<svg width="15" height="15" viewBox="0 0 15 15" fill="none" xmlns="http://www.w3.org/2000/svg">
<path d="M12.8584 13.7559C13.1617 13.6486 13.3339 13.2712 13.2431 12.913L12.9498 11.7564C12.8589 11.3981 12.5394 11.1947 12.2361 11.302L11.2683 11.6444L11.0833 11.8629L12.3407 12.0532L10.7961 12.2875L9.86825 11.0236C9.7293 10.8343 9.49125 10.8041 9.32223 10.9458C9.1231 11.1128 9.09228 11.443 9.24948 11.6571L10.3211 13.117C10.4051 13.2314 10.541 13.3013 10.6826 13.2799H10.6827L12.3883 13.0211C11.6936 13.3284 11.1286 13.5784 10.8205 13.7146C10.6905 13.7722 10.4557 13.764 10.2533 13.6368C10.0955 13.5375 10.0271 13.4251 9.9033 13.2565C9.6554 13.5493 9.83212 13.3406 9.25465 14.0226L9.25495 14.0233C9.49142 14.5188 9.98474 14.7546 10.4468 14.5942C11.3285 14.2883 12.6595 13.8263 12.8584 13.7559Z" fill="black"/>
<path d="M8.76054 11.4328C8.73066 11.0704 8.87833 10.7086 9.1607 10.518C9.07504 10.4168 9.09011 10.4346 8.49832 9.73565L10.5224 7.34509L11.4386 9.03771L11.4267 9.05187L10.0901 10.6304C10.1464 10.6892 10.1213 10.6596 10.6408 11.3674L12.2912 9.41817C12.4099 9.27804 12.434 9.05512 12.3405 8.88249L10.6656 5.78846L9.51611 4.40302C9.70882 4.03428 9.67059 3.54495 9.39989 3.22519C9.08362 2.85165 8.57084 2.85165 8.25454 3.22519L7.94617 3.5894C8.71045 4.49208 8.69054 5.93598 7.94617 6.81513C7.19525 7.70203 5.97329 7.71073 5.215 6.81513L3.07116 9.34717C3.82811 10.2412 3.82346 11.6844 3.07116 12.5729C2.32267 13.4569 1.10064 13.4713 0.339992 12.5729L0.237201 12.6943C-0.0790669 13.0678 -0.0790669 13.6735 0.237201 14.047C0.486448 14.3414 0.857386 14.4028 1.15836 14.2332L1.43365 14.5583C1.93253 15.1475 2.74143 15.1475 3.24032 14.5583L4.05203 13.5996C4.433 13.7265 6.0993 14.2816 7.51171 14.7521C7.64055 14.7769 7.76339 14.7769 7.86798 14.6423L9.50291 12.7113C8.93779 11.9414 8.79261 11.8217 8.76054 11.4328ZM7.47404 13.7202C7.28841 13.6583 5.84131 13.1763 5.64153 13.1097L7.91096 10.4293C7.96726 10.4958 8.50969 11.1365 8.6071 11.2515L8.01994 11.3832L6.78523 12.8415L8.52436 12.4797L7.47404 13.7202Z" fill="black"/>
<path d="M6.58051 6.66125C7.26274 6.66125 7.8158 6.00804 7.8158 5.20227C7.8158 4.39649 7.26274 3.74329 6.58051 3.74329C5.89827 3.74329 5.34521 4.39649 5.34521 5.20227C5.34521 6.00804 5.89827 6.66125 6.58051 6.66125Z" fill="black"/>
<path d="M1.70551 12.419C2.38774 12.419 2.9408 11.7658 2.9408 10.96C2.9408 10.1543 2.38774 9.50105 1.70551 9.50105C1.02327 9.50105 0.470215 10.1543 0.470215 10.96C0.470215 11.7658 1.02327 12.419 1.70551 12.419Z" fill="black"/>
<path d="M14.1514 12.9583C14.6201 12.9583 15 12.5095 15 11.956C15 11.4024 14.6201 10.9537 14.1514 10.9537C13.6827 10.9537 13.3027 11.4024 13.3027 11.956C13.3027 12.5095 13.6827 12.9583 14.1514 12.9583Z" fill="black"/>
<path d="M0.89762 3.34977C1.04876 3.34977 1.1907 3.3035 1.31406 3.22249C1.40692 3.67367 1.74782 4.00995 2.15666 4.01862C2.15666 4.01878 2.15663 4.01893 2.15663 4.01908C2.15663 4.38461 2.40751 4.68097 2.71703 4.68097C3.02655 4.68097 3.27744 4.38465 3.27744 4.01908C3.27744 3.7608 3.15188 3.53761 2.96916 3.42858C3.02456 3.29317 3.05577 3.14144 3.05656 2.98123C3.24553 2.84547 3.37217 2.60073 3.37217 2.32039C3.37217 1.89509 3.08159 1.55022 2.72214 1.54693C2.76116 1.42266 2.78255 1.2883 2.78255 1.14798C2.78255 0.514104 2.34747 0.000244141 1.81078 0.000244141C1.27409 0.000244141 0.838985 0.514104 0.838985 1.14801C0.838985 1.20763 0.84285 1.26617 0.850254 1.32331C0.398143 1.35237 0.0390625 1.7945 0.0390625 2.33575C0.0390625 2.89577 0.423464 3.34977 0.89762 3.34977Z" fill="black"/>
<path d="M3.37204 5.86959C3.57105 5.86959 3.73237 5.67906 3.73237 5.44402C3.73237 5.20898 3.57105 5.01845 3.37204 5.01845C3.17304 5.01845 3.01172 5.20898 3.01172 5.44402C3.01172 5.67906 3.17304 5.86959 3.37204 5.86959Z" fill="black"/>
</svg>
