<svg width="11" height="14" viewBox="0 0 11 14" fill="none" xmlns="http://www.w3.org/2000/svg">
<path d="M8.95373 9.9025C11.0875 10.7017 10.0079 13.0548 8.14326 13.0473C6.68263 13.0412 6.60248 12.2819 5.60451 12.2777C4.7256 12.2739 4.3431 13.1205 3.26966 13.1162C1.31357 13.1083 -0.070181 10.7687 2.21498 9.9925C5.20982 8.97484 3.83357 7.21234 5.62513 7.23016C7.37451 7.2475 6.23732 8.88578 8.95373 9.90344V9.9025ZM7.2667 6.14031C8.78826 6.07937 8.79107 2.66547 7.19076 2.73016C5.5642 2.79625 5.71888 6.20266 7.2667 6.14031ZM4.24279 6.19094C5.75919 6.06062 5.57966 2.65094 3.98498 2.78828C2.36404 2.92797 2.7006 6.32359 4.24279 6.19094ZM1.90654 8.62187C3.41544 8.43156 3.07607 5.03172 1.48935 5.23281C-0.123618 5.43719 0.37185 8.81594 1.90654 8.62187ZM9.62216 8.67156C11.1447 8.70062 11.3847 5.29375 9.78341 5.26375C8.15545 5.23375 8.07341 8.64203 9.62216 8.67156ZM1.01966 4.50812C1.89341 4.435 1.54279 3.32219 0.826069 2.485C0.336694 3.44781 0.310444 4.56719 1.01966 4.50812ZM10.1054 4.42797C9.23123 4.41672 9.48716 3.27812 10.1294 2.39031C10.6951 3.31891 10.8147 4.43734 10.1054 4.42797ZM7.37873 2.1039C6.51107 2.20094 6.65591 1.03422 7.2067 0.0690613C7.85685 0.924999 8.08279 2.02515 7.37873 2.1039ZM3.90998 2.21125C3.04841 2.34672 3.13185 1.17484 3.63201 0.186249C4.32576 1.01219 4.60935 2.10109 3.90998 2.21125Z" fill="black"/>
</svg>
