<svg width="32" height="32" viewBox="0 0 32 32" fill="none" xmlns="http://www.w3.org/2000/svg">
<path d="M-7.7486e-07 16C-7.7486e-07 24.8366 7.16344 32 16 32C24.8366 32 32 24.8366 32 16C32 7.16344 24.8366 0 16 0C7.16344 0 -7.7486e-07 7.16344 -7.7486e-07 16Z" fill="#AFAFAF"/>
<path d="M15.73 12.8C13.9074 12.8 12.43 11.3225 12.43 9.5C12.43 7.67746 13.9074 6.2 15.73 6.2C17.5525 6.2 19.03 7.67746 19.03 9.5C19.03 11.3225 17.5525 12.8 15.73 12.8Z" fill="#777775" stroke="#777775" stroke-width="0.6"/>
<path d="M9.4441 12.5L15.1943 15.1733L15.23 24.1733V24.5C15.0871 24.4406 14.98 24.3812 14.8728 24.3218L14.8728 24.3218L13.4799 23.4901V16.3317L11.3727 15.1901L11.3727 21.8861V22.2426L10.9441 22.0644L9.22998 21.2958L9.4441 12.877L9.4441 12.5Z" fill="#777775" stroke="#777775" stroke-width="0.6"/>
<path d="M22.0159 12.5L16.2657 15.1733L16.23 24.1733V24.5C16.3728 24.4406 16.48 24.3812 16.5871 24.3218L16.5871 24.3218L17.98 23.4901V16.3317L20.0872 15.1901L20.0872 21.8861V22.2426L20.5158 22.0644L22.23 21.2958L22.0159 12.877L22.0159 12.5Z" fill="#777775" stroke="#777775" stroke-width="0.6"/>
</svg>
