<svg width="48" height="48" viewBox="0 0 48 48" fill="none" xmlns="http://www.w3.org/2000/svg">
<rect width="48" height="48" rx="24" fill="white" fill-opacity="0.35"/>
<path d="M30.7996 29.2345C31.0278 29.4813 31.1516 29.8069 31.1451 30.143C31.1386 30.4791 31.0022 30.7996 30.7646 31.0374C30.527 31.2751 30.2066 31.4117 29.8705 31.4185C29.5344 31.4252 29.2087 31.3017 28.9618 31.0736L24.0001 26.112L19.0384 31.0736C18.9195 31.2023 18.7758 31.3056 18.616 31.3773C18.4561 31.4491 18.2835 31.4878 18.1083 31.4913C17.9332 31.4947 17.7591 31.4627 17.5966 31.3972C17.4342 31.3317 17.2866 31.234 17.1627 31.1101C17.0389 30.9862 16.9414 30.8385 16.876 30.676C16.8106 30.5135 16.7787 30.3394 16.7822 30.1643C16.7858 29.9891 16.8246 29.8165 16.8965 29.6567C16.9684 29.4969 17.0718 29.3533 17.2005 29.2345L22.1622 24.2728L17.2005 19.3136C17.0718 19.1948 16.9684 19.0512 16.8965 18.8914C16.8246 18.7317 16.7858 18.559 16.7822 18.3839C16.7787 18.2087 16.8106 18.0347 16.876 17.8721C16.9414 17.7096 17.0389 17.5619 17.1627 17.438C17.2866 17.3141 17.4342 17.2165 17.5966 17.151C17.7591 17.0855 17.9332 17.0535 18.1083 17.0569C18.2835 17.0603 18.4561 17.099 18.616 17.1708C18.7758 17.2426 18.9195 17.3459 19.0384 17.4745L24.0001 22.4349L28.9618 17.4732C29.2087 17.2452 29.5344 17.1216 29.8705 17.1284C30.2066 17.1352 30.527 17.2717 30.7646 17.5095C31.0022 17.7473 31.1386 18.0678 31.1451 18.4039C31.1516 18.74 31.0278 19.0656 30.7996 19.3124L25.838 24.2728L30.7996 29.2345Z" fill="#E8E8E8"/>
</svg>
