<svg width="15" height="15" viewBox="0 0 15 15" fill="none" xmlns="http://www.w3.org/2000/svg">
<path d="M13.8734 3.17814e-05L10.0776 2.09081L15 1.40608L13.8733 0L13.8734 3.17814e-05ZM8.36208 0.0288416L7.38719 2.93844L11.007 0.0288416H8.36208ZM1.06711 0.168916L0.967806 0.367658C0.366753 1.56193 0 2.87983 0 4.12291C0 5.83353 0.68265 7.086 1.82627 7.90297C2.68528 8.51669 3.78718 8.87271 4.99478 9.01196C5.77269 10.5426 5.72946 12.2259 4.88262 13.743C3.49444 13.9055 2.14607 14.3247 0.962085 15H11.4596C10.2762 14.3249 8.92817 13.9067 7.54053 13.7439C6.69382 12.2276 6.65046 10.545 7.42701 9.01491C8.6431 8.87792 9.75126 8.5214 10.6111 7.90291C11.2171 7.46707 11.6907 6.90735 12.0017 6.22056L8.15348 3.94198L5.8107 3.90722L8.17895 7.71116L5.90015 5.368L2.30591 7.41807L5.20342 4.65348L4.4642 3.89333L2.01925 3.37958L1.57367 3.28616L1.74822 2.98311L3.38287 0.168916H1.06711ZM4.2981 0.168916L2.7103 2.90362L4.91536 3.36769L6.40381 2.29639L5.61209 0.168884H4.2981V0.168916ZM12.2274 2.48724L8.51396 3.37761L12.2331 5.57968C12.3559 5.13736 12.4218 4.65227 12.4218 4.12298C12.4218 3.58621 12.3531 3.0359 12.2274 2.48724Z" fill="black"/>
</svg>
