<svg width="20" height="20" viewBox="0 0 20 20" fill="none" xmlns="http://www.w3.org/2000/svg">
<path d="M3.25 2C2.56 2 2 2.56 2 3.25V6C2 6.26522 1.89464 6.51957 1.70711 6.70711C1.51957 6.89464 1.26522 7 1 7C0.734784 7 0.48043 6.89464 0.292893 6.70711C0.105357 6.51957 0 6.26522 0 6V3.25C0 2.38805 0.34241 1.5614 0.951903 0.951903C1.5614 0.34241 2.38805 0 3.25 0H6C6.26522 0 6.51957 0.105357 6.70711 0.292893C6.89464 0.48043 7 0.734784 7 1C7 1.26522 6.89464 1.51957 6.70711 1.70711C6.51957 1.89464 6.26522 2 6 2H3.25ZM3.25 18C2.56 18 2 17.44 2 16.75V14C2 13.7348 1.89464 13.4804 1.70711 13.2929C1.51957 13.1054 1.26522 13 1 13C0.734784 13 0.48043 13.1054 0.292893 13.2929C0.105357 13.4804 0 13.7348 0 14V16.75C0 17.1768 0.0840637 17.5994 0.247391 17.9937C0.410719 18.388 0.650112 18.7463 0.951903 19.0481C1.25369 19.3499 1.61197 19.5893 2.00628 19.7526C2.40059 19.9159 2.8232 20 3.25 20H6C6.26522 20 6.51957 19.8946 6.70711 19.7071C6.89464 19.5196 7 19.2652 7 19C7 18.7348 6.89464 18.4804 6.70711 18.2929C6.51957 18.1054 6.26522 18 6 18H3.25ZM18 3.25C18 2.56 17.44 2 16.75 2H14C13.7348 2 13.4804 1.89464 13.2929 1.70711C13.1054 1.51957 13 1.26522 13 1C13 0.734784 13.1054 0.48043 13.2929 0.292893C13.4804 0.105357 13.7348 0 14 0H16.75C17.1768 0 17.5994 0.0840637 17.9937 0.247391C18.388 0.410719 18.7463 0.650112 19.0481 0.951903C19.3499 1.25369 19.5893 1.61197 19.7526 2.00628C19.9159 2.40059 20 2.8232 20 3.25V6C20 6.26522 19.8946 6.51957 19.7071 6.70711C19.5196 6.89464 19.2652 7 19 7C18.7348 7 18.4804 6.89464 18.2929 6.70711C18.1054 6.51957 18 6.26522 18 6V3.25ZM16.75 18C17.44 18 18 17.44 18 16.75V14C18 13.7348 18.1054 13.4804 18.2929 13.2929C18.4804 13.1054 18.7348 13 19 13C19.2652 13 19.5196 13.1054 19.7071 13.2929C19.8946 13.4804 20 13.7348 20 14V16.75C20 17.1768 19.9159 17.5994 19.7526 17.9937C19.5893 18.388 19.3499 18.7463 19.0481 19.0481C18.7463 19.3499 18.388 19.5893 17.9937 19.7526C17.5994 19.9159 17.1768 20 16.75 20H14C13.7348 20 13.4804 19.8946 13.2929 19.7071C13.1054 19.5196 13 19.2652 13 19C13 18.7348 13.1054 18.4804 13.2929 18.2929C13.4804 18.1054 13.7348 18 14 18H16.75ZM10 11C10.2652 11 10.5196 10.8946 10.7071 10.7071C10.8946 10.5196 11 10.2652 11 10C11 9.73478 10.8946 9.48043 10.7071 9.29289C10.5196 9.10536 10.2652 9 10 9C9.73478 9 9.48043 9.10536 9.29289 9.29289C9.10536 9.48043 9 9.73478 9 10C9 10.2652 9.10536 10.5196 9.29289 10.7071C9.48043 10.8946 9.73478 11 10 11ZM8.848 5C8.375 5 7.942 5.263 7.73 5.678L7.242 7H6.667C5.747 7 5 7.596 5 8.5V12.364C5 13.267 5.746 14 6.667 14H13.333C14.253 14 15 13.267 15 12.364V8.5C15 7.596 14.254 7 13.333 7H12.758L12.27 5.678C12.1644 5.4728 12.004 5.30083 11.8067 5.18117C11.6094 5.0615 11.3828 4.99879 11.152 5H8.848ZM10 12C9.46957 12 8.96086 11.7893 8.58579 11.4142C8.21071 11.0391 8 10.5304 8 10C8 9.46957 8.21071 8.96086 8.58579 8.58579C8.96086 8.21071 9.46957 8 10 8C10.5304 8 11.0391 8.21071 11.4142 8.58579C11.7893 8.96086 12 9.46957 12 10C12 10.5304 11.7893 11.0391 11.4142 11.4142C11.0391 11.7893 10.5304 12 10 12Z" fill="#FD5B68"/>
</svg>
