<svg width="19" height="12" viewBox="0 0 19 12" fill="none" xmlns="http://www.w3.org/2000/svg">
<path fill-rule="evenodd" clip-rule="evenodd" d="M4.40548 9.57349L0 9.23625V7.5264L3.75364 7.81373L4.16028 2.50156L8.52098 3.16451L9.54277 6.45726L9.29975 9.63181C9.27632 9.93781 8.94682 9.9425 8.94682 9.9425L8.5905 9.90668C8.5905 9.90668 8.56522 7.83581 6.63157 7.68778C4.54495 7.52805 4.40548 9.57349 4.40548 9.57349ZM5.65804 5.83075L8.9308 6.41042L8.1986 3.91353L5.83339 3.54013L5.65804 5.83075Z" fill="black"/>
<path d="M3.02116 7.33062L0 7.09935V0.559143L3.5189 0.828512L3.02116 7.33062Z" fill="black"/>
<path fill-rule="evenodd" clip-rule="evenodd" d="M18.1312 3.73834L14.014 4.34515L10.5562 7.45888L10.9318 10.0076L12.176 10.6923C11.9943 10.465 11.8686 10.1871 11.8228 9.8763C11.6884 8.96456 12.3245 8.10865 13.2362 7.97425C14.148 7.83988 15.0039 8.4759 15.1383 9.38766C15.1841 9.69849 15.144 10.0008 15.0355 10.2709L18.1312 9.81459V5.919L16.8773 6.10382L16.6269 4.40464L18.1312 4.18294V3.73834ZM16.2124 4.46573L16.4629 6.1649L13.0645 6.66577L14.5133 4.71616L16.2124 4.46573Z" fill="black"/>
<path fill-rule="evenodd" clip-rule="evenodd" d="M12.2371 9.81514C12.1363 9.13133 12.6103 8.46867 13.3148 8.36484C14.0194 8.26101 14.6644 8.75873 14.7651 9.44254C14.8659 10.1264 14.392 10.789 13.6874 10.8929C13.0036 10.9936 12.3379 10.4989 12.2371 9.81514ZM14.1021 9.54029C14.0532 9.20873 13.7441 8.97907 13.4126 9.02794C13.081 9.07679 12.8514 9.38587 12.9002 9.71741C12.9491 10.049 13.2582 10.2786 13.5897 10.2298C13.9213 10.1809 14.1509 9.87183 14.1021 9.54029Z" fill="black"/>
<path fill-rule="evenodd" clip-rule="evenodd" d="M6.34669 11.4358C5.41724 11.3647 4.72147 10.5536 4.7926 9.62411C4.86376 8.69466 5.67488 7.99889 6.60433 8.07002C7.53378 8.14118 8.22955 8.95232 8.15841 9.88175C8.08726 10.8112 7.27611 11.507 6.34669 11.4358ZM7.27547 9.81412C7.24162 10.2563 6.85573 10.5873 6.41355 10.5535C5.97139 10.5196 5.64038 10.1337 5.67422 9.69153C5.70806 9.24937 6.09396 8.91836 6.53614 8.9522C6.9783 8.98605 7.30931 9.37194 7.27547 9.81412Z" fill="black"/>
<path d="M12.4132 1.74527L11.1849 3.36221C11.0668 3.51767 10.8203 3.45909 10.7847 3.26712L10.569 2.10264L10.4884 3.76678C10.4784 3.97148 10.2222 4.05728 10.091 3.89984L9.42421 3.09969L9.95677 4.62134C9.9804 4.68885 9.94482 4.76272 9.87731 4.78636C9.8098 4.80999 9.73591 4.77441 9.7123 4.7069L9.11739 3.00716C9.03467 2.77079 9.34208 2.59653 9.5024 2.78892L10.2339 3.66671L10.3245 1.79684C10.3375 1.53017 10.7216 1.50425 10.7703 1.76677L11.0253 3.14403L12.3218 1.43748C12.4734 1.23788 12.7886 1.39862 12.7161 1.6386L12.239 3.2165L13.3453 2.7033C13.5656 2.6011 13.769 2.87237 13.6092 3.05525L12.129 4.74933C12.0819 4.8032 12.0001 4.80872 11.9463 4.76164C11.8924 4.71458 11.8869 4.63276 11.934 4.57891L13.3083 3.00597L12.2789 3.48351C12.1028 3.56524 11.9129 3.40031 11.9691 3.21446L12.4132 1.74527Z" fill="black"/>
</svg>
