<svg width="15" height="15" viewBox="0 0 15 15" fill="none" xmlns="http://www.w3.org/2000/svg">
<path fill-rule="evenodd" clip-rule="evenodd" d="M6.71933 8.28923C6.71933 8.75253 7.0689 9.12808 7.50015 9.12808C7.93139 9.12808 8.28097 8.75253 8.28097 8.28923V5.7727C8.28097 5.30942 7.93139 4.93385 7.50015 4.93385C7.0689 4.93385 6.71933 5.30942 6.71933 5.7727V8.28923ZM8.28097 10.7964C8.28097 10.3331 7.93139 9.95753 7.50015 9.95753C7.0689 9.95753 6.71933 10.3331 6.71933 10.7964V10.8058C6.71933 11.2691 7.0689 11.6446 7.50015 11.6446C7.93139 11.6446 8.28097 11.2691 8.28097 10.8058V10.7964ZM5.45233 1.2944C6.34484 -0.431467 8.65521 -0.431467 9.54769 1.2944L14.7019 11.2613C15.5692 12.9387 14.4402 15 12.6542 15H2.34583C0.559739 15 -0.569248 12.9387 0.298149 11.2613L5.45233 1.2944Z" fill="black"/>
</svg>
