<svg width="18" height="18" viewBox="0 0 18 18" fill="none" xmlns="http://www.w3.org/2000/svg">
<path d="M18 5.14286V14.7857C18.0001 15.6018 17.6898 16.3873 17.1321 16.9831C16.5743 17.5788 15.8109 17.94 14.9966 17.9936L14.7857 18H3.21429C2.39822 18.0001 1.61266 17.6898 1.01694 17.1321C0.421227 16.5743 0.0599627 15.8109 0.00642876 14.9966L3.81612e-08 14.7857V5.14286H18ZM10.9491 6.72943C10.2669 6.72943 9.72471 6.912 9.32271 7.27714C8.91986 7.64229 8.71886 8.136 8.71971 8.75829C8.71971 9.11743 8.811 9.43671 8.99357 9.71614C9.17614 9.99471 9.42471 10.2146 9.73929 10.3757C9.36471 10.5437 9.07329 10.7833 8.865 11.0944C8.65768 11.4066 8.54925 11.774 8.55386 12.1487C8.55386 12.7881 8.77243 13.2973 9.20957 13.6761C9.64671 14.055 10.2283 14.244 10.9543 14.2431C11.6777 14.2431 12.2571 14.0546 12.6926 13.6774C13.128 13.302 13.3457 12.7924 13.3457 12.1487C13.3457 11.7604 13.2429 11.4124 13.0371 11.1047C12.818 10.7832 12.5122 10.5304 12.1551 10.3757C12.46 10.226 12.7199 9.9985 12.9086 9.71614C13.0929 9.43586 13.185 9.11657 13.185 8.75829C13.185 8.136 12.9836 7.64229 12.5807 7.27714C12.1796 6.912 11.6357 6.72943 10.9491 6.72943ZM7.06629 6.80529H6.91071L4.05771 7.85443V8.88429L5.85129 8.27229V14.1429H7.06629V6.80529ZM10.944 10.8784C11.2997 10.8784 11.5851 10.9899 11.8003 11.2127C12.0154 11.4356 12.1234 11.7274 12.1243 12.0883C12.1243 12.4611 12.0214 12.7509 11.8157 12.9574C11.61 13.1657 11.3229 13.2694 10.9543 13.2686C10.5866 13.2686 10.2981 13.1614 10.089 12.9471C9.87986 12.7329 9.77486 12.4466 9.774 12.0883C9.774 11.724 9.88029 11.4313 10.0929 11.2101C10.3054 10.989 10.5891 10.8784 10.944 10.8784ZM10.9491 7.70914C11.2611 7.70914 11.5093 7.812 11.6936 8.01771C11.8779 8.22343 11.9696 8.48571 11.9687 8.80457C11.9687 9.13886 11.8779 9.40457 11.6961 9.60172C11.5136 9.79972 11.2663 9.89872 10.9543 9.89872C10.6431 9.89872 10.3963 9.80014 10.2137 9.603C10.0311 9.40586 9.93986 9.13971 9.93986 8.80457C9.93986 8.466 10.0303 8.199 10.2111 8.00357C10.3911 7.80643 10.6371 7.70829 10.9491 7.70914ZM14.7857 3.81612e-08C15.6018 -0.000125635 16.3873 0.310156 16.9831 0.867908C17.5788 1.42566 17.94 2.18912 17.9936 3.00343L18 3.21429V3.85714H3.81612e-08V3.21429C-0.000125635 2.39822 0.310156 1.61266 0.867908 1.01694C1.42566 0.421227 2.18912 0.0599627 3.00343 0.00642876L3.21429 3.81612e-08H14.7857Z" fill="#FD5B68"/>
</svg>
