<svg width="24" height="24" viewBox="0 0 24 24" fill="none" xmlns="http://www.w3.org/2000/svg">
<path d="M12 13.8461C13.0196 13.8461 13.8461 13.0195 13.8461 11.9999C13.8461 10.9803 13.0196 10.1538 12 10.1538C10.9804 10.1538 10.1538 10.9803 10.1538 11.9999C10.1538 13.0195 10.9804 13.8461 12 13.8461Z" fill="#E8E8E8"/>
<path d="M12 0C5.35385 0 0 5.35385 0 12C0 18.6462 5.35385 24 12 24C18.6462 24 24 18.6462 24 12C24 5.35385 18.6462 0 12 0ZM5.53846 6.46154C5.53846 5.90769 5.90769 5.53846 6.46154 5.53846C7.01538 5.53846 7.38462 5.90769 7.38462 6.46154C7.38462 7.01538 7.01538 7.38462 6.46154 7.38462C5.90769 7.38462 5.53846 7.01538 5.53846 6.46154ZM12.0923 16.7077L7.01539 18.0923C6.36923 18.2769 5.72308 17.6308 5.90769 16.9846L7.29231 11.9077C7.93846 9.69231 9.6 7.93846 11.8154 7.38462L16.8923 6C17.5385 5.81538 18.1846 6.46154 18 7.10769L16.6154 12.1846C16.0615 14.3077 14.3077 16.0615 12.0923 16.7077ZM17.5385 18.4615C16.9846 18.4615 16.6154 18.0923 16.6154 17.5385C16.6154 16.9846 16.9846 16.6154 17.5385 16.6154C18.0923 16.6154 18.4615 16.9846 18.4615 17.5385C18.4615 18.0923 18.0923 18.4615 17.5385 18.4615Z" fill="#E8E8E8"/>
</svg>
