<svg width="15" height="15" viewBox="0 0 15 15" fill="none" xmlns="http://www.w3.org/2000/svg">
<path d="M6.55316 8.95028H6.35966C6.56844 8.7632 6.70798 8.42971 6.70798 8.04813C6.70798 7.46198 6.37972 6.98679 5.97482 6.98679L3.56491 6.97616C3.39901 6.97616 3.26643 6.76539 3.28826 6.51902C3.3063 6.31538 3.43282 6.16826 3.57462 6.16826H4.26361C4.41473 6.16826 4.4859 5.89805 4.37318 5.75236L3.5864 4.73554C3.29403 4.35767 2.84818 4.37972 2.57414 4.78499L0.609341 7.69209C0.232193 8.2711 0 9.11296 0 9.81676V11.9994C0 13.5604 0.841781 14.9999 2.13839 14.9999H5.3815C5.76974 14.9999 6.10544 14.5746 6.13225 14.014C6.15201 13.6013 6.00814 13.2357 5.78576 13.0364H6.00469C6.39293 13.0364 6.72863 12.6111 6.75544 12.0505C6.7752 11.6378 6.63133 11.2722 6.40895 11.073H6.57396C6.99059 11.073 7.32614 10.5697 7.30628 9.96025C7.28765 9.38944 6.94796 8.95028 6.55316 8.95028Z" fill="black"/>
<path d="M14.3906 7.69216L12.4258 4.78506C12.1517 4.3795 11.7059 4.35781 11.4135 4.73561L10.6268 5.75243C10.514 5.89813 10.5852 6.16833 10.7363 6.16833H11.4253C11.5671 6.16833 11.6936 6.31553 11.7117 6.51909C11.7335 6.76546 11.6009 6.97623 11.435 6.97623L9.02506 6.98686C8.62017 6.98686 8.29191 7.46206 8.29191 8.0482C8.29191 8.42971 8.43149 8.76327 8.64023 8.95036H8.44672C8.05198 8.95036 7.71229 9.38952 7.69371 9.96032C7.67385 10.5698 8.00935 11.073 8.42602 11.073H8.59104C8.36865 11.2723 8.22478 11.6378 8.2445 12.0505C8.27131 12.6112 8.60701 13.0365 8.99524 13.0365H9.21423C8.99179 13.2358 8.84797 13.6013 8.86769 14.014C8.8945 14.5747 9.2302 15 9.61843 15H12.9272C14.0719 15 14.9999 13.6566 14.9999 11.9994V9.81684C14.9999 9.11296 14.7411 8.24434 14.3906 7.69216Z" fill="black"/>
<path d="M7.86968 5.23955V0.535128C7.86968 0.239523 7.70423 0 7.50003 0C7.29583 0 7.13037 0.239523 7.13037 0.535128V5.23962C7.13037 5.53522 7.29583 5.77475 7.50003 5.77475C7.70418 5.77468 7.86968 5.53515 7.86968 5.23955Z" fill="black"/>
<path d="M5.68859 5.46773C5.77558 5.73515 5.99599 5.84967 6.18052 5.72366C6.3652 5.59766 6.44436 5.27886 6.35732 5.01151L5.2207 1.51998C5.13371 1.2527 4.91349 1.13804 4.72876 1.26404C4.54408 1.39005 4.46493 1.70884 4.55197 1.97619L5.68859 5.46773Z" fill="black"/>
<path d="M8.81956 5.72359C9.00414 5.8496 9.22451 5.73508 9.3115 5.46766L10.4481 1.97613C10.5352 1.70878 10.456 1.38991 10.2713 1.26398C10.0867 1.1379 9.86638 1.25249 9.77938 1.51991L8.64277 5.01144C8.55577 5.27879 8.63488 5.59766 8.81956 5.72359Z" fill="black"/>
</svg>
