<svg width="12" height="15" viewBox="0 0 12 15" fill="none" xmlns="http://www.w3.org/2000/svg">
<path d="M12 8.51594C12 12.3597 9.37439 14.9417 6.11409 15C7.27906 14.9633 8.20621 14.3433 8.20621 12.5597C8.20621 10.7195 6 8.33426 6 8.33426C6 8.33426 3.79379 10.7195 3.79379 12.5597C3.79379 14.3433 4.72094 14.9633 5.88591 15C2.6256 14.9417 0 12.3597 0 8.51594C0 7.14746 0.742367 5.6873 1.70648 4.37048C1.40849 5.77034 2.45749 7.11216 3.44188 7.13912C3.63791 4.81887 3.63791 3.3337 6 0C7.75308 3.75042 11.857 4.13045 12 8.51594Z" fill="black"/>
</svg>
