<svg width="15" height="16" viewBox="0 0 15 16" fill="none" xmlns="http://www.w3.org/2000/svg">
<path d="M11.9161 0.5L11.4109 0.8617L10.9385 0.523408L10.0605 1.15206L10.5329 1.49035L1.43543 8.00432L0.962967 7.66602L0.0849795 8.29468L0.570372 8.64223C-0.132206 9.27683 -0.185684 10.161 0.409775 10.8338L13.379 1.54751L11.9161 0.5Z" fill="black"/>
<path d="M9.50206 10.1762C10.6279 9.37009 10.6938 8.08829 9.7003 7.22617L14.9999 3.43154L13.7517 2.53781L1.74707 11.1334L2.99527 12.0271L3.65775 11.5528L7.64818 15.5L11.1129 13.0192L8.76929 10.7009L9.50206 10.1762ZM8.03189 9.97155L7.26814 9.21604L7.12244 9.07193L7.3555 8.90506L8.00256 9.36836L8.88054 8.7397L8.23349 8.2764L8.81565 7.85957C9.32899 8.37027 9.26512 9.08854 8.62404 9.54757L8.03189 9.97155Z" fill="black"/>
</svg>
