<!DOCTYPE svg PUBLIC "-//W3C//DTD SVG 1.1//EN" "http://www.w3.org/Graphics/SVG/1.1/DTD/svg11.dtd">
<!-- Uploaded to: SVG Repo, www.svgrepo.com, Transformed by: SVG Repo Mixer Tools -->
<svg fill="#000000" height="800px" width="800px" version="1.1" id="Layer_1" xmlns="http://www.w3.org/2000/svg" xmlns:xlink="http://www.w3.org/1999/xlink" viewBox="0 0 512.002 512.002" xml:space="preserve">
<g id="SVGRepo_bgCarrier" stroke-width="0"/>
<g id="SVGRepo_tracerCarrier" stroke-linecap="round" stroke-linejoin="round"/>
<g id="SVGRepo_iconCarrier"> <g> <g> <circle cx="386.487" cy="42.39" r="42.118"/> </g> </g> <g> <g> <path d="M485.15,329.739h-3.545v-18.345c5.037-3.806,8.131-9.796,8.099-16.309l-0.75-149.299 c-0.132-26.386-21.706-47.852-48.092-47.852h-20.83c-2.662,6.954-22.337,58.354-25.192,65.815l5.94-27.98 c0.417-1.965,0.115-4.013-0.853-5.774l-8.156-14.835l7.251-13.188c0.503-0.914,0.485-2.027-0.046-2.925 c-0.532-0.899-1.497-1.449-2.542-1.449h-19.902c-1.043,0-2.01,0.551-2.542,1.449c-0.532,0.899-0.548,2.011-0.046,2.925 l7.251,13.188l-8.186,14.89c-0.95,1.726-1.259,3.732-0.875,5.666l5.193,28.033c-2.596-6.659-22.113-58.586-24.932-65.815h-20.633 c-26.384,0-47.959,21.466-48.092,47.862l-0.239,53.385l-29.925,23.831l-14.215-77.686c-2.153-11.769-11.649-20.235-22.741-20.235 c-15.821,0-25.846,0-40.1,0c-11.068,0-20.592,8.489-22.741,20.235l-7.99,43.664l2.403-0.16l32.454-32.879l-29.052,50.718 l-62.214,4.133c-9.933,0.66-17.451,9.246-16.791,19.18c0.633,9.527,8.557,16.831,17.968,16.831c0.402,0,0.806-0.013,1.212-0.041 l71.857-4.774c6.023-0.399,11.445-3.788,14.445-9.026l33.855-59.103l-18.214,68.063c-2.694,10.07-11.472,16.887-21.321,17.556 c-9.797,0.643-1.912,0.12-39.988,2.651l-14.073,76.908c-1.21,6.617,3.477,12.745,9.669,12.745c2.919,0,25.565,0,28.79,0v137.176 c0,12.72,10.311,23.032,23.031,23.032s23.031-10.312,23.031-23.032V351.794c4.679,0,9.33,0,13.889,0V488.97 c0,7.925-2.518,15.268-6.785,21.289c2.706,1.117,5.668,1.741,8.778,1.741c12.72,0,23.031-10.311,23.031-23.031V351.794 c9.216,0,17.273,0,23.37,0c6.18,0,10.877-6.14,9.669-12.745l-12.934-70.686l54.565-43.453c4.817-3.835,7.635-9.648,7.663-15.806 l0.284-63.113c0-0.018,0-0.036,0-0.052c0.027-2.158,1.79-3.89,3.947-3.876c2.158,0.013,3.9,1.766,3.9,3.924l0.009,341.627 c0,13.468,10.918,24.387,24.387,24.387s24.387-10.918,24.387-24.387V292.689v-0.001h10.529v0.001v194.924 c0,13.468,10.918,24.387,24.387,24.387s24.387-10.918,24.387-24.387v-41.539c-9.726-5.135-16.373-15.35-16.373-27.091v-80.869 c0-11.742,6.647-21.955,16.373-27.091c0-17.412-0.338-136.282-0.424-165.813c-0.007-2.352,1.894-4.263,4.247-4.271 c2.351-0.007,4.263,1.894,4.27,4.247c0.001,0.258-0.009,0.526-0.03,0.805l0.75,149.299c0.034,6.933,3.623,13.093,8.87,16.681 v17.77h-3.436c-4.625,0-8.374,3.75-8.374,8.374v80.869c0,4.625,3.75,8.374,8.374,8.374h30.656c4.625,0,8.374-3.75,8.374-8.374 v-80.869C493.526,333.489,489.776,329.739,485.15,329.739z"/> </g> </g> <g> <g> <path d="M274.18,2.494c-2.921-3.154-7.848-3.341-11.003-0.422l-26.42,24.47c-3.154,2.922-3.344,7.848-0.422,11.004 c1.534,1.656,3.62,2.495,5.714,2.495c1.893,0,3.791-0.686,5.289-2.073l26.42-24.47C276.913,10.576,277.102,5.65,274.18,2.494z"/> </g> </g> <g> <g> <path d="M314.901,38.194c-0.939-4.195-5.1-6.843-9.298-5.898l-52.044,11.642c-4.198,0.938-6.838,5.101-5.9,9.298 c0.811,3.624,4.026,6.089,7.591,6.089c0.563,0,1.135-0.062,1.707-0.19l52.044-11.642C313.198,46.553,315.84,42.39,314.901,38.194z "/> </g> </g> <g> <g> <path d="M56.122,194.506v23.455c3.469-11.005,12.096-19.841,23.223-23.455H56.122z"/> </g> </g> <g> <g> <path d="M33.504,194.506c-2.195,0-3.972,1.779-3.972,3.972v18.998c0,2.193,1.779,3.972,3.972,3.972h7.802v-26.942H33.504z"/> </g> </g> <g> <g> <path d="M22.45,155.82c-2.193,0-3.972,1.779-3.972,3.972v18.998c0,2.195,1.779,3.972,3.972,3.972h11.447V155.82H22.45z"/> </g> </g> <g> <g> <path d="M101.548,155.819H48.713v26.941h52.835c2.193,0.001,3.972-1.776,3.972-3.971v-18.998 C105.52,157.598,103.741,155.819,101.548,155.819z"/> </g> </g> <g> <g> <path d="M36.957,115.754c-2.193,0-3.972,1.779-3.972,3.972v18.998c0.001,2.195,1.779,3.972,3.972,3.972h62.556v-26.942H36.957z"/> </g> </g> <g> <g> <path d="M116.054,115.754h-5.576v26.942h5.576c2.193,0,3.972-1.777,3.972-3.972v-18.998 C120.026,117.532,118.248,115.754,116.054,115.754z"/> </g> </g> <g> <g> <circle cx="196.498" cy="70.542" r="39.778"/> </g> </g> </g>
</svg>