<svg width="15" height="13" viewBox="0 0 15 13" fill="none" xmlns="http://www.w3.org/2000/svg">
<path d="M14.8531 11.6788L8.02398 0.59461C7.91142 0.411461 7.71109 0.299927 7.49639 0.299927C7.28082 0.299927 7.08122 0.411417 6.96811 0.59461L0.0922084 11.7544C-0.025755 11.9455 -0.030745 12.1861 0.078452 12.382C0.188188 12.5785 0.395209 12.7 0.620526 12.7H14.3716C14.374 12.6992 14.3767 12.6992 14.3797 12.7C14.7223 12.7 15 12.4217 15 12.0797C15.0003 11.9266 14.9449 11.7874 14.8531 11.6788ZM7.08913 3.99284H7.90301V8.93616H7.08913V3.99284ZM7.89847 10.7443C7.77889 10.8566 7.6446 10.9133 7.49585 10.9133C7.34736 10.9133 7.2133 10.8566 7.09358 10.7443C6.97441 10.6304 6.91475 10.4935 6.91475 10.3315C6.91475 10.1704 6.97144 10.0335 7.08441 9.91987C7.19698 9.80699 7.3341 9.75035 7.49585 9.75035C7.65697 9.75035 7.79507 9.80703 7.90818 9.91987C8.02075 10.0335 8.07771 10.1704 8.07771 10.3315C8.07775 10.4935 8.01724 10.6304 7.89847 10.7443Z" fill="black"/>
</svg>
