<svg width="24" height="21" viewBox="0 0 24 21" fill="none" xmlns="http://www.w3.org/2000/svg">
<path fill-rule="evenodd" clip-rule="evenodd" d="M11.3103 0.775861C11.6966 0.408051 12.3034 0.408051 12.6897 0.775861L20.6897 8.39491L23.1897 10.7759C23.5896 11.1567 23.605 11.7897 23.2241 12.1897C22.8433 12.5896 22.2103 12.605 21.8103 12.2241L21 11.4524V19C21 20.1046 20.1046 21 19 21H14H10H5C3.89543 21 3 20.1046 3 19V11.4524L2.18966 12.2241C1.78972 12.605 1.15675 12.5896 0.775864 12.1897C0.394978 11.7897 0.410416 11.1567 0.810347 10.7759L3.31034 8.39491L11.3103 0.775861ZM5 9.5476V19H9V14C9 12.3431 10.3431 11 12 11C13.6569 11 15 12.3431 15 14V19H19V9.5476L12 2.88095L5 9.5476ZM13 19V14C13 13.4477 12.5523 13 12 13C11.4477 13 11 13.4477 11 14V19H13Z" fill="#E8E8E8"/>
</svg>
