<svg width="18" height="18" viewBox="0 0 18 18" fill="none" xmlns="http://www.w3.org/2000/svg">
<path d="M1 13C1.24493 13 1.48134 13.09 1.66437 13.2527C1.84741 13.4155 1.96434 13.6397 1.993 13.883L2 14V16H4C4.25488 16.0003 4.50003 16.0979 4.68537 16.2728C4.8707 16.4478 4.98223 16.687 4.99717 16.9414C5.01211 17.1958 4.92933 17.4464 4.76574 17.6418C4.60214 17.8373 4.3701 17.9629 4.117 17.993L4 18H2C1.49542 18.0002 1.00943 17.8096 0.639452 17.4665C0.269471 17.1234 0.0428433 16.6532 0.00500011 16.15L0 16V14C0 13.7348 0.105357 13.4804 0.292893 13.2929C0.48043 13.1054 0.734784 13 1 13ZM17 13C17.2652 13 17.5196 13.1054 17.7071 13.2929C17.8946 13.4804 18 13.7348 18 14V16C18 16.5304 17.7893 17.0391 17.4142 17.4142C17.0391 17.7893 16.5304 18 16 18H14C13.7348 18 13.4804 17.8946 13.2929 17.7071C13.1054 17.5196 13 17.2652 13 17C13 16.7348 13.1054 16.4804 13.2929 16.2929C13.4804 16.1054 13.7348 16 14 16H16V14C16 13.7348 16.1054 13.4804 16.2929 13.2929C16.4804 13.1054 16.7348 13 17 13ZM12.642 4.045C12.8151 3.97097 13.0056 3.94732 13.1916 3.97678C13.3776 4.00623 13.5515 4.0876 13.6932 4.21151C13.835 4.33542 13.9389 4.49684 13.993 4.6772C14.0471 4.85755 14.0492 5.04952 13.999 5.231L13.955 5.358L9.712 15.258C9.63274 15.4425 9.4998 15.5988 9.33047 15.7066C9.16114 15.8145 8.96326 15.8689 8.76259 15.8627C8.56192 15.8566 8.36775 15.7902 8.20534 15.6722C8.04294 15.5541 7.91981 15.39 7.852 15.201L7.818 15.089L6.898 11.101L2.911 10.181C2.71536 10.1357 2.53789 10.0325 2.40171 9.88491C2.26553 9.73731 2.17694 9.55213 2.14748 9.35348C2.11802 9.15483 2.14906 8.95191 2.23655 8.77114C2.32404 8.59038 2.46393 8.44014 2.638 8.34L2.742 8.288L12.642 4.045ZM4 0C4.26522 0 4.51957 0.105357 4.70711 0.292893C4.89464 0.48043 5 0.734784 5 1C5 1.26522 4.89464 1.51957 4.70711 1.70711C4.51957 1.89464 4.26522 2 4 2H2V4C2 4.26522 1.89464 4.51957 1.70711 4.70711C1.51957 4.89464 1.26522 5 1 5C0.734784 5 0.48043 4.89464 0.292893 4.70711C0.105357 4.51957 0 4.26522 0 4V2C0 1.46957 0.210714 0.960859 0.585786 0.585786C0.960859 0.210714 1.46957 0 2 0H4ZM16 0C16.5304 0 17.0391 0.210714 17.4142 0.585786C17.7893 0.960859 18 1.46957 18 2V4C18 4.26522 17.8946 4.51957 17.7071 4.70711C17.5196 4.89464 17.2652 5 17 5C16.7348 5 16.4804 4.89464 16.2929 4.70711C16.1054 4.51957 16 4.26522 16 4V2H14C13.7348 2 13.4804 1.89464 13.2929 1.70711C13.1054 1.51957 13 1.26522 13 1C13 0.734784 13.1054 0.48043 13.2929 0.292893C13.4804 0.105357 13.7348 0 14 0H16Z" fill="#FD5B68"/>
</svg>
