<svg width="15" height="15" viewBox="0 0 15 15" fill="none" xmlns="http://www.w3.org/2000/svg">
<g clip-path="url(#clip0_484_4299)">
<path d="M13.0699 3.14372H12.7785V2.68084C12.7785 2.56826 12.6873 2.47704 12.5747 2.47704H11.4334C11.3208 2.47704 11.2296 2.56826 11.2296 2.68084V3.14372H10.2174V2.62679C10.2174 1.83652 9.5744 1.19356 8.78413 1.19356H6.21579C5.42552 1.19356 4.78255 1.83652 4.78255 2.62679V3.14372H3.77038V2.68084C3.77038 2.56826 3.67916 2.47704 3.56658 2.47704H2.42527C2.31269 2.47704 2.22147 2.56826 2.22147 2.68084V3.14372H1.93011C0.86413 3.14372 0 4.00785 0 5.07383V11.8768C0 12.9428 0.86413 13.8069 1.93011 13.8069H13.0699C14.1359 13.8069 15 12.9428 15 11.8768V5.07383C15 4.00785 14.1359 3.14372 13.0699 3.14372ZM5.59777 2.62679C5.59777 2.28603 5.87503 2.00878 6.21579 2.00878H8.78413C9.12489 2.00878 9.40215 2.28603 9.40215 2.62679V3.14372H5.59777V2.62679ZM7.5 11.9518C5.58 11.9518 4.02351 10.3953 4.02351 8.47532C4.02351 6.55532 5.58 4.99883 7.5 4.99883C9.42 4.99883 10.9765 6.55532 10.9765 8.47532C10.9765 10.3953 9.42 11.9518 7.5 11.9518ZM10.1099 9.3291C10.1099 9.38315 10.0886 9.435 10.0504 9.47331C10.0122 9.51155 9.96041 9.53307 9.90636 9.53315L8.56003 9.53437V10.8806C8.56003 10.9932 8.4688 11.0844 8.35622 11.0844H6.64378C6.5312 11.0844 6.43997 10.9932 6.43997 10.8806V9.53633L5.09568 9.53755H5.09552C5.04155 9.53755 4.98978 9.51611 4.95155 9.47804C4.91332 9.43981 4.89179 9.38804 4.89171 9.33399L4.89016 7.62163C4.89008 7.50905 4.98122 7.41774 5.0938 7.41766L6.44005 7.41644V6.07002C6.44005 5.95744 6.53128 5.86622 6.64386 5.86622H8.35622C8.4688 5.86622 8.56003 5.95744 8.56003 6.07002V7.41432L9.90432 7.4131H9.90448C10.017 7.4131 10.1082 7.50424 10.1083 7.61674L10.1099 9.3291Z" fill="black"/>
</g>
<defs>
<clipPath id="clip0_484_4299">
<rect width="15" height="15" fill="white" transform="translate(0 0.000244141)"/>
</clipPath>
</defs>
</svg>
