<svg width="21" height="20" viewBox="0 0 21 20" fill="none" xmlns="http://www.w3.org/2000/svg">
<path d="M14.09 10.4002V14.4702C14.09 14.8302 14.05 15.1702 13.96 15.4802C13.59 16.9502 12.37 17.8702 10.69 17.8702H7.97L4.95 19.8802C4.5 20.1902 3.9 19.8602 3.9 19.3202V17.8702C2.88 17.8702 2.03 17.5302 1.44 16.9402C0.84 16.3402 0.5 15.4902 0.5 14.4702V10.4002C0.5 8.50019 1.68 7.19019 3.5 7.02019C3.63 7.01019 3.76 7.00019 3.9 7.00019H10.69C12.73 7.00019 14.09 8.36019 14.09 10.4002Z" fill="#E8E8E8"/>
<path d="M16.25 13.6002C17.52 13.6002 18.59 13.1802 19.33 12.4302C20.08 11.6902 20.5 10.6202 20.5 9.35019V4.25019C20.5 1.90019 18.6 0.000190735 16.25 0.000190735H7.75C5.4 0.000190735 3.5 1.90019 3.5 4.25019V5.00019C3.5 5.28019 3.72 5.50019 4 5.50019H10.69C13.4 5.50019 15.59 7.69019 15.59 10.4002V13.1002C15.59 13.3802 15.81 13.6002 16.09 13.6002H16.25Z" fill="#E8E8E8"/>
</svg>
