<svg width="72" height="73" viewBox="0 0 72 73" fill="none" xmlns="http://www.w3.org/2000/svg">
<path d="M57.4792 30.5937V36.9479C57.4792 42.8462 55.1361 48.5029 50.9653 52.6737C46.7946 56.8444 41.1379 59.1875 35.2396 59.1875M35.2396 59.1875C29.3413 59.1875 23.6846 56.8444 19.5138 52.6737C15.3431 48.5029 13 42.8462 13 36.9479V30.5937M35.2396 59.1875L35.2396 71.8958M22.5313 71.8958H47.9479M35.2396 2C32.7117 2 30.2874 3.00418 28.5 4.79164C26.7125 6.57909 25.7083 9.00341 25.7083 11.5312V36.9479C25.7083 39.4758 26.7125 41.9001 28.5 43.6875C30.2874 45.475 32.7117 46.4792 35.2396 46.4792C37.7674 46.4792 40.1917 45.475 41.9792 43.6875C43.7667 41.9001 44.7708 39.4758 44.7708 36.9479V11.5312C44.7708 9.00341 43.7667 6.57909 41.9792 4.79164C40.1917 3.00418 37.7674 2 35.2396 2Z" stroke="#E0E0E0" stroke-width="1.5" stroke-linecap="round" stroke-linejoin="round"/>
<path d="M1.65503 1.24432L70.1943 60.6443" stroke="white" stroke-width="2" stroke-linecap="round"/>
</svg>
