<svg width="46" height="72" viewBox="0 0 46 72" fill="none" xmlns="http://www.w3.org/2000/svg">
<path d="M45.2397 29.6458V36C45.2397 41.8983 42.8966 47.555 38.7258 51.7258C34.5551 55.8965 28.8984 58.2396 23.0001 58.2396M23.0001 58.2396C17.1018 58.2396 11.4451 55.8965 7.27432 51.7258C3.10359 47.555 0.760498 41.8983 0.760498 36V29.6458M23.0001 58.2396L23.0001 70.9479M10.2917 70.9479H35.7084M23.0001 1.05209C20.4722 1.05209 18.0479 2.05628 16.2605 3.84373C14.473 5.63119 13.4688 8.0555 13.4688 10.5833V36C13.4688 38.5279 14.473 40.9522 16.2605 42.7396C18.0479 44.5271 20.4722 45.5313 23.0001 45.5313C25.5279 45.5313 27.9522 44.5271 29.7397 42.7396C31.5272 40.9522 32.5313 38.5279 32.5313 36V10.5833C32.5313 8.0555 31.5272 5.63119 29.7397 3.84373C27.9522 2.05628 25.5279 1.05209 23.0001 1.05209Z" stroke="#E0E0E0" stroke-width="1.5" stroke-linecap="round" stroke-linejoin="round"/>
</svg>
