<svg width="100" height="100" viewBox="0 0 100 100" fill="none" xmlns="http://www.w3.org/2000/svg">
<path d="M69.9312 36.6187L71.9826 36.0895C72.6618 34.9065 73.666 33.8913 74.9526 33.1937C78.6526 31.1875 83.2808 32.5651 85.2896 36.2703C87.2986 39.9757 85.9276 44.6055 82.2276 46.6117C78.5276 48.6179 73.8996 47.2403 71.8906 43.5351C71.0518 41.9879 70.8042 40.2799 71.0674 38.6687L71.0656 38.6727L69.9312 36.6187Z" fill="white"/>
<path d="M69.9312 36.6186C69.9312 36.6186 69.9596 36.665 70.01 36.7536C70.0618 36.845 70.1358 36.9756 70.2328 37.1464C70.4278 37.4932 70.7136 38.0014 71.0848 38.6616L71.0456 38.6634L71.0474 38.6594C71.0522 38.6484 71.0652 38.6432 71.0762 38.6482C71.0854 38.6522 71.0906 38.6622 71.089 38.6718C70.94 39.6214 70.9185 40.9238 71.4083 42.3512C71.5307 42.7062 71.6858 43.0656 71.8746 43.4236C71.9672 43.6036 72.0842 43.7738 72.1904 43.954C72.247 44.042 72.2958 44.1362 72.3598 44.2212C72.4242 44.3058 72.489 44.3912 72.5546 44.4772C73.0748 45.1656 73.7486 45.8108 74.5678 46.3226C75.385 46.8348 76.3455 47.2122 77.3851 47.379C78.4233 47.547 79.54 47.5018 80.6268 47.2C82.8052 46.6236 84.8208 44.8946 85.677 42.5572C86.1118 41.3754 86.2632 40.1092 86.089 38.911C85.9284 37.712 85.4842 36.586 84.8448 35.6358C84.1974 34.6894 83.3564 33.927 82.4384 33.3848C81.5198 32.8406 80.5264 32.515 79.5596 32.3874C78.5914 32.2584 77.6516 32.3272 76.8058 32.5304C76.3786 32.62 75.9843 32.7756 75.6049 32.9212C75.2377 33.0966 74.8776 33.255 74.5612 33.461C73.2754 34.2604 72.4738 35.2824 72.0004 36.0996C71.9976 36.1046 71.9926 36.108 71.9874 36.1094C71.3274 36.274 70.8164 36.4016 70.467 36.4886C70.2944 36.531 70.1624 36.5634 70.0694 36.5862C69.9796 36.6084 69.9312 36.6186 69.9312 36.6186C69.9312 36.6186 69.973 36.6054 70.06 36.5816C70.1512 36.557 70.2808 36.5218 70.45 36.476C70.8012 36.3824 71.3144 36.2456 71.9776 36.0688L71.9646 36.0786C72.4326 35.2526 73.233 34.217 74.5262 33.404C74.8444 33.1946 75.2068 33.033 75.577 32.8544C75.9592 32.7056 76.3568 32.547 76.788 32.4548C77.642 32.2462 78.5919 32.1736 79.5713 32.3014C80.5495 32.4276 81.5556 32.7546 82.4868 33.3038C83.4172 33.8508 84.2706 34.6218 84.9276 35.5798C85.5766 36.5412 86.028 37.682 86.1916 38.8974C86.3688 40.1118 86.216 41.3956 85.775 42.5936C84.9072 44.9632 82.8616 46.715 80.654 47.296C79.5524 47.6006 78.421 47.6444 77.3704 47.4722C76.318 47.3012 75.3468 46.9168 74.5218 46.3966C73.6946 45.8768 73.0154 45.2222 72.4924 44.5246C72.4266 44.4374 72.3614 44.351 72.2968 44.2652C72.2324 44.1792 72.1834 44.0838 72.1266 43.9948C72.0198 43.8124 71.9026 43.64 71.81 43.458C71.621 43.096 71.466 42.7324 71.3444 42.3736C70.8572 40.9308 70.8878 39.6186 71.0464 38.665L71.088 38.6774L71.0862 38.6814C71.0814 38.6924 71.0685 38.6974 71.0575 38.6928C71.0529 38.6908 71.0493 38.6872 71.0471 38.6832C70.6829 38.012 70.4024 37.4952 70.2112 37.1426C70.1192 36.9718 70.0492 36.8414 70 36.75C69.9524 36.662 69.9312 36.6186 69.9312 36.6186Z" fill="#E0E0E0"/>
<path d="M78.026 38.2007V41.8001H77.0284L75.6606 40.1649V41.8001H74.478V38.2007H75.4754L76.8434 39.8359V38.2007H78.026Z" fill="#CC293D"/>
<path d="M78.4673 40.0004C78.4673 38.9102 79.3259 38.1184 80.4983 38.1184C81.6707 38.1184 82.5295 38.9102 82.5295 40.0004C82.5295 41.0906 81.6707 41.8824 80.4983 41.8824C79.3259 41.8824 78.4673 41.0904 78.4673 40.0004ZM81.3057 40.0004C81.3057 39.44 80.9457 39.1006 80.4983 39.1006C80.0511 39.1006 79.6911 39.44 79.6911 40.0004C79.6911 40.561 80.0511 40.9004 80.4983 40.9004C80.9457 40.9002 81.3057 40.5608 81.3057 40.0004Z" fill="#CC293D"/>
<path d="M87.187 74.4761L84.151 71.4401L78.1112 77.4799L72.2236 71.2917L69.113 74.2513L75.0742 80.5169L68.959 86.6323L71.9948 89.6683L78.0348 83.6283L83.9226 89.8167L87.033 86.8571L81.0716 80.5915L87.187 74.4761Z" fill="#263238"/>
<path d="M31.385 43.5763L27.885 40.0763L20.922 47.0393L14.1342 39.9053L10.5482 43.3173L17.4208 50.5405L10.3706 57.5905L13.8706 61.0907L20.8338 54.1275L27.6214 61.2617L31.2074 57.8497L24.3348 50.6265L31.385 43.5763Z" fill="#263238"/>
<path d="M87.5048 15.8777L85.6002 13.9731L81.8114 17.7621L78.1178 13.8799L76.1664 15.7367L79.9062 19.6673L76.0698 23.5035L77.9744 25.4081L81.7634 21.6191L85.4568 25.5013L87.4082 23.6445L83.6684 19.7139L87.5048 15.8777Z" fill="#263238"/>
<path d="M87.8415 56.091L86.8331 55.0826L84.8271 57.0888L82.8715 55.0334L81.8383 56.0164L83.8183 58.0974L81.7871 60.1286L82.7955 61.137L84.8017 59.1308L86.7571 61.1862L87.7903 60.2032L85.8103 58.1222L87.8415 56.091Z" fill="#263238"/>
<path d="M19.9777 83.4372L18.9693 82.4288L16.9633 84.435L15.0077 82.3796L13.9745 83.3626L15.9545 85.4436L13.9233 87.4748L14.9317 88.4832L16.9379 86.477L18.8933 88.5324L19.9265 87.5494L17.9465 85.4684L19.9777 83.4372Z" fill="#263238"/>
<path d="M38.8086 9.78754L37.8002 8.77914L35.7942 10.7851L33.8388 8.72974L32.8056 9.71274L34.7856 11.7939L32.7544 13.8249L33.7628 14.8333L35.7688 12.8273L37.7244 14.8825L38.7574 13.8997L36.7774 11.8185L38.8086 9.78754Z" fill="#263238"/>
<path d="M94.7567 93.4751C94.7567 93.5039 74.7095 93.5271 49.9859 93.5271C25.2537 93.5271 5.21094 93.5037 5.21094 93.4751C5.21094 93.4465 25.2537 93.4231 49.9859 93.4231C74.7095 93.4231 94.7567 93.4463 94.7567 93.4751Z" fill="#263238"/>
<path d="M33.3226 31.3872L30.4474 31.7708C29.3306 33.2674 27.7994 34.4832 25.9364 35.2206C20.5786 37.3416 14.5134 34.7114 12.3896 29.3462C10.2656 23.9808 12.8872 17.9122 18.2452 15.7912C23.603 13.6702 29.668 16.3004 31.7918 21.6658C32.6786 23.9062 32.7354 26.2682 32.1138 28.4154L32.1168 28.4104L33.3226 31.3872Z" fill="white"/>
<path d="M33.3226 31.3873C33.3226 31.3873 33.293 31.3203 33.2394 31.1919C33.1852 31.0613 33.1066 30.8713 33.003 30.6217C32.7964 30.1197 32.4922 29.3801 32.0964 28.4183L32.1354 28.4213L32.1324 28.4263C32.1262 28.4367 32.1128 28.4401 32.1024 28.4341C32.0936 28.4289 32.09 28.4185 32.0926 28.4091C32.2696 27.7711 32.4274 27.0189 32.476 26.1645C32.5334 25.3117 32.4766 24.3579 32.2656 23.3507C32.1576 22.8475 32.0058 22.3327 31.8078 21.8147C31.7116 21.5545 31.5804 21.3035 31.4654 21.0409C31.403 20.9119 31.352 20.7755 31.2788 20.6495C31.2052 20.5237 31.1308 20.3967 31.056 20.2689C30.4614 19.2461 29.6504 18.2571 28.6194 17.4257C27.5914 16.5941 26.3456 15.9221 24.9574 15.5241C23.5716 15.1247 22.0438 15.0027 20.5142 15.2353C20.321 15.2517 20.1324 15.2983 19.9428 15.3429C19.753 15.3865 19.5624 15.4303 19.3712 15.4741C19.1798 15.5169 18.9974 15.5947 18.809 15.6537C18.6222 15.7177 18.4346 15.7819 18.2464 15.8463C18.0654 15.9289 17.8838 16.0117 17.7016 16.0947L17.4278 16.2195L17.291 16.2825L17.1606 16.3587C16.9866 16.4603 16.8122 16.5623 16.6372 16.6647C16.5502 16.7167 16.4606 16.7649 16.3756 16.8205L16.129 17.0001C15.9642 17.1201 15.7988 17.2405 15.633 17.3611C15.4696 17.4847 15.3236 17.6311 15.1674 17.7655L14.9362 17.9717C14.8576 18.0391 14.7814 18.1091 14.714 18.1881C14.5736 18.3407 14.4328 18.4935 14.2916 18.6469C14.144 18.7949 14.021 18.9639 13.8954 19.1317C13.7694 19.2989 13.643 19.4665 13.5162 19.6347C13.406 19.8139 13.2956 19.9937 13.1848 20.1739L13.0186 20.4443C12.9654 20.5359 12.9236 20.6337 12.8754 20.7283C12.7804 20.9223 12.6854 21.1161 12.5908 21.3093C12.5026 21.5053 12.436 21.7101 12.3578 21.9093C12.1894 22.3045 12.1006 22.7231 11.985 23.1309C11.9536 23.2325 11.9338 23.3363 11.9182 23.4411L11.865 23.7535C11.8348 23.9621 11.7828 24.1675 11.7706 24.3771C11.7556 24.5863 11.7406 24.7949 11.7258 25.0031C11.7206 25.1071 11.7058 25.2109 11.7084 25.3149L11.7166 25.6263C11.7388 27.2855 12.159 28.8917 12.8742 30.2899C13.6006 31.6845 14.621 32.8605 15.7822 33.7489C16.9438 34.6401 18.243 35.2459 19.5384 35.5775C20.8352 35.9115 22.126 35.9715 23.3106 35.8329C23.9068 35.7807 24.4688 35.6331 25.0088 35.4969C25.2732 35.4079 25.5328 35.3205 25.7876 35.2347C26.0426 35.1497 26.2826 35.0393 26.5174 34.9325C27.4542 34.4965 28.2438 33.9579 28.8888 33.4033C29.5366 32.8495 30.0382 32.2777 30.4312 31.7587C30.4346 31.7541 30.44 31.7513 30.4452 31.7505C31.3722 31.6323 32.0882 31.5411 32.576 31.4789C32.8186 31.4487 33.0036 31.4255 33.1312 31.4097C33.256 31.3939 33.3226 31.3873 33.3226 31.3873C33.3226 31.3873 33.2624 31.3975 33.1398 31.4153C33.0138 31.4333 32.8308 31.4593 32.5912 31.4933C32.1012 31.5615 31.3816 31.6619 30.4502 31.7917L30.4642 31.7835C30.0734 32.3073 29.5726 32.8849 28.9242 33.4447C28.2786 34.0055 27.4866 34.5505 26.5454 34.9929C26.3094 35.1011 26.0682 35.2131 25.812 35.2997C25.5558 35.3869 25.2948 35.4757 25.0288 35.5663C24.4856 35.7053 23.9198 35.8553 23.3194 35.9099C22.1262 36.0529 20.825 35.9955 19.5166 35.6615C18.2098 35.3297 16.8982 34.7211 15.7246 33.8235C14.5516 32.9287 13.52 31.7429 12.7854 30.3355C12.0622 28.9247 11.6364 27.3031 11.6132 25.6273L11.6048 25.3129C11.6024 25.2079 11.617 25.1031 11.6222 24.9981C11.6372 24.7879 11.6522 24.5773 11.6674 24.3659C11.6798 24.1543 11.732 23.9467 11.7626 23.7361L11.8162 23.4207C11.832 23.3149 11.852 23.2099 11.8836 23.1075C12.0002 22.6955 12.0902 22.2727 12.26 21.8735C12.339 21.6723 12.4064 21.4655 12.4954 21.2675C12.591 21.0723 12.6868 20.8767 12.7828 20.6807C12.8314 20.5851 12.8738 20.4863 12.9274 20.3939L13.0952 20.1207C13.207 19.9387 13.3186 19.7573 13.43 19.5763C13.558 19.4065 13.6856 19.2373 13.8128 19.0683C13.9396 18.8989 14.0642 18.7283 14.2132 18.5787C14.3558 18.4239 14.4982 18.2695 14.64 18.1155C14.7084 18.0359 14.7852 17.9651 14.8646 17.8969L15.0982 17.6887C15.256 17.5529 15.4036 17.4055 15.5686 17.2805C15.7362 17.1587 15.9032 17.0371 16.0698 16.9161L16.3194 16.7347C16.4052 16.6787 16.4958 16.6301 16.5836 16.5775C16.7604 16.4743 16.9368 16.3715 17.1124 16.2689L17.2442 16.1921L17.3824 16.1285L17.6588 16.0027C17.8428 15.9189 18.0262 15.8355 18.209 15.7523C18.399 15.6873 18.5884 15.6227 18.777 15.5581C18.9672 15.4987 19.1514 15.4205 19.3448 15.3773C19.5378 15.3331 19.7304 15.2891 19.922 15.2453C20.1136 15.2005 20.304 15.1535 20.499 15.1371C22.0436 14.9037 23.5858 15.0287 24.9836 15.4339C26.3838 15.8375 27.6392 16.5175 28.6742 17.3583C29.7122 18.1987 30.5274 19.1977 31.1238 20.2299C31.1988 20.3589 31.2732 20.4869 31.3472 20.6139C31.4206 20.7411 31.4716 20.8785 31.5342 21.0087C31.6494 21.2737 31.7806 21.5269 31.8768 21.7891C32.0744 22.3115 32.2256 22.8303 32.3326 23.3371C32.5414 24.3519 32.5946 25.3117 32.5328 26.1689C32.48 27.0277 32.317 27.7825 32.135 28.4221L32.0952 28.4049L32.0982 28.3999C32.1044 28.3895 32.1176 28.3861 32.128 28.3921C32.1322 28.3947 32.1354 28.3985 32.1372 28.4029C32.5246 29.3747 32.8226 30.1221 33.0248 30.6295C33.1232 30.8785 33.1982 31.0679 33.2498 31.1981C33.2996 31.3243 33.3226 31.3873 33.3226 31.3873Z" fill="#263238"/>
<path d="M22.0782 36.0341C21.212 36.0341 20.3502 35.9257 19.5042 35.7097C18.1376 35.3629 16.8202 34.7241 15.6944 33.8629C14.4728 32.9311 13.4516 31.7191 12.7412 30.3583C11.9932 28.8993 11.586 27.2637 11.5634 25.6277L11.555 25.3139C11.5534 25.2433 11.559 25.1731 11.5646 25.1053C11.5676 25.0685 11.5706 25.0319 11.5724 24.9951L11.6176 24.3619C11.6258 24.2227 11.6512 24.0837 11.6756 23.9495C11.689 23.8759 11.7024 23.8025 11.7132 23.7285L11.767 23.4119C11.7864 23.2829 11.8076 23.1841 11.836 23.0923C11.8652 22.9889 11.893 22.8837 11.921 22.7783C12.0022 22.4715 12.0862 22.1543 12.2142 21.8535C12.2414 21.7843 12.2676 21.7129 12.2938 21.6417C12.342 21.5113 12.3916 21.3763 12.45 21.2465L12.738 20.6583C12.7554 20.6243 12.7716 20.5903 12.788 20.5565C12.8186 20.4929 12.8492 20.4293 12.8844 20.3683L13.3878 19.5495L13.8026 18.9987C13.9186 18.8437 14.0382 18.6835 14.1782 18.5431L14.6036 18.0811C14.678 17.9943 14.7612 17.9199 14.8324 17.8587L15.0652 17.6509C15.1214 17.6025 15.1756 17.5535 15.2296 17.5043C15.3282 17.4147 15.4302 17.3223 15.5386 17.2403L16.2902 16.6939C16.3486 16.6557 16.4072 16.6219 16.4656 16.5883C16.4966 16.5705 16.5276 16.5525 16.558 16.5343L17.219 16.1485L18.1884 15.7063L18.761 15.5103C18.8292 15.4891 18.8952 15.4657 18.9612 15.4425C19.0818 15.4003 19.2064 15.3565 19.334 15.3279L19.9498 15.1867C20.1266 15.1453 20.3094 15.1023 20.495 15.0867C21.9864 14.8609 23.5448 14.9639 24.9976 15.3853C26.344 15.7735 27.6264 16.4421 28.7058 17.3189C29.696 18.1205 30.5242 19.0913 31.1672 20.2041L31.3906 20.5881C31.4394 20.6727 31.4784 20.7615 31.5162 20.8473C31.5368 20.8941 31.5574 20.9407 31.5792 20.9863C31.6208 21.0815 31.6634 21.1737 31.7058 21.2653C31.782 21.4299 31.8608 21.5999 31.9236 21.7713C32.1182 22.2855 32.2722 22.8089 32.3814 23.3261C32.581 24.2963 32.6486 25.2535 32.5826 26.1719C32.5378 26.8997 32.41 27.6303 32.1918 28.4039L33.2962 31.1789C33.3432 31.2985 33.3666 31.3617 33.3694 31.3695C33.37 31.3709 33.3704 31.3725 33.3708 31.3739C33.3726 31.3805 33.3732 31.3875 33.3722 31.3941C33.3714 31.4005 33.3692 31.4067 33.3662 31.4121V31.4123C33.366 31.4123 33.366 31.4123 33.366 31.4125C33.3626 31.4185 33.358 31.4239 33.3522 31.4281C33.3522 31.4281 33.352 31.4281 33.352 31.4283C33.347 31.4319 33.3414 31.4347 33.335 31.4361C33.335 31.4363 33.3348 31.4363 33.3348 31.4363C33.3332 31.4367 33.3316 31.4371 33.33 31.4373C33.322 31.4387 33.2616 31.4489 33.1466 31.4655L30.4862 31.8377C30.021 32.4577 29.5204 32.9961 28.9566 33.4831C28.2368 34.1083 27.4324 34.6317 26.5662 35.0387L26.5406 35.0505C26.3128 35.1551 26.0772 35.2633 25.8276 35.3477L25.0444 35.6143L24.9622 35.6355C24.4394 35.7695 23.899 35.9081 23.3232 35.9603C22.9086 36.0093 22.4928 36.0341 22.0782 36.0341ZM22.0682 15.1685C21.5498 15.1685 21.0322 15.2071 20.522 15.2847C20.3424 15.3001 20.165 15.3419 19.9934 15.3825L19.3828 15.5229C19.2618 15.5499 19.1412 15.5925 19.0246 15.6335C18.9582 15.6569 18.8916 15.6803 18.8244 15.7015L18.263 15.8935L17.3124 16.3279L16.6628 16.7077C16.632 16.7263 16.6002 16.7447 16.5682 16.7629C16.5126 16.7949 16.457 16.8271 16.4032 16.8621L15.6622 17.4015C15.5592 17.4795 15.46 17.5697 15.364 17.6569C15.3098 17.7063 15.2554 17.7555 15.1998 17.8033L14.9692 18.0089C14.9006 18.0679 14.8216 18.1385 14.7516 18.2205L14.328 18.6807C14.1928 18.8163 14.0762 18.9723 13.9636 19.1233L13.5558 19.6645L13.0608 20.4701C13.028 20.5269 12.9988 20.5875 12.9698 20.6479C12.9534 20.6823 12.9368 20.7167 12.9196 20.7505L12.6354 21.3307C12.5798 21.4541 12.5314 21.5855 12.4846 21.7127C12.4582 21.7843 12.4318 21.8561 12.404 21.9269C12.2796 22.2189 12.1976 22.5283 12.1182 22.8277C12.0902 22.9333 12.0622 23.0391 12.0326 23.1439C12.0056 23.2315 11.9854 23.3247 11.967 23.4479L11.9138 23.7611C11.9032 23.8345 11.8896 23.9087 11.876 23.9829C11.8522 24.1127 11.8276 24.2469 11.8198 24.3789L11.775 25.0055C11.7732 25.0419 11.77 25.0793 11.767 25.1167C11.7614 25.1841 11.756 25.2481 11.7576 25.3125L11.7658 25.6239C11.7872 27.2293 12.1858 28.8343 12.918 30.2661C13.6136 31.6015 14.6142 32.7917 15.8118 33.7081C16.9158 34.5553 18.2084 35.1847 19.55 35.5281C20.7784 35.8443 22.0414 35.9301 23.304 35.7821C23.8666 35.7327 24.3976 35.5985 24.9112 35.4687L24.9958 35.4475L25.7708 35.1863C26.013 35.1055 26.244 35.0005 26.4674 34.8989L26.496 34.8859C27.3496 34.4885 28.1436 33.9765 28.8554 33.3643C29.42 32.8817 29.922 32.3463 30.3906 31.7275C30.4014 31.7129 30.4186 31.7029 30.4372 31.7001L33.1244 31.3591C33.1764 31.3527 33.2184 31.3479 33.2496 31.3443C33.2356 31.3119 33.2168 31.2673 33.193 31.2107L32.0612 28.4643C32.0444 28.4463 32.0374 28.4201 32.0444 28.3951C32.26 27.6179 32.3848 26.8873 32.426 26.1613C32.4868 25.2565 32.4164 24.3143 32.2166 23.3605C32.1076 22.8519 31.9542 22.3375 31.7612 21.8319C31.6996 21.6657 31.6254 21.5067 31.5466 21.3383C31.5038 21.2465 31.4606 21.1541 31.4194 21.0601C31.3978 21.0157 31.377 20.9689 31.3562 20.9217C31.3194 20.8387 31.2812 20.7529 31.2352 20.6737L31.0124 20.2933C30.3776 19.2013 29.5618 18.2493 28.5878 17.4639C27.5258 16.6049 26.2656 15.9505 24.9434 15.5715C24.0138 15.3041 23.04 15.1685 22.0682 15.1685ZM20.1192 15.2505C20.07 15.2615 20.0212 15.2729 19.973 15.2841L19.3564 15.4255C19.2342 15.4529 19.1124 15.4955 18.9946 15.5369C18.9274 15.5605 18.8602 15.5841 18.7922 15.6053L18.2256 15.7991L17.2654 16.2371L16.6092 16.6203C16.5786 16.6387 16.5472 16.6567 16.5158 16.6749C16.459 16.7077 16.4022 16.7405 16.3472 16.7763L15.5984 17.3207C15.4942 17.3995 15.394 17.4905 15.297 17.5785C15.2422 17.6281 15.1874 17.6781 15.1312 17.7263L14.898 17.9341C14.8288 17.9935 14.7494 18.0649 14.6782 18.1477L14.25 18.6123C14.1138 18.7491 13.996 18.9065 13.8824 19.0587L13.4702 19.6059L12.9702 20.4197C12.9368 20.4773 12.9074 20.5387 12.878 20.5999C12.8616 20.6343 12.845 20.6689 12.8276 20.7029L12.5406 21.2889C12.4842 21.4141 12.4352 21.5473 12.3876 21.6763C12.3612 21.7481 12.3346 21.8201 12.3068 21.8913C12.181 22.1871 12.098 22.5005 12.0178 22.8039C11.9898 22.9097 11.9618 23.0155 11.932 23.1205C11.9048 23.2083 11.8846 23.3029 11.8658 23.4277L11.812 23.7441C11.8012 23.8181 11.7876 23.8927 11.7742 23.9673C11.7502 24.0987 11.7254 24.2347 11.7176 24.3683L11.6726 25.0011C11.6708 25.0379 11.6676 25.0755 11.6646 25.1135C11.659 25.1817 11.6536 25.2463 11.6552 25.3113L11.6636 25.6257C11.684 27.1029 12.0208 28.5793 12.6406 29.9229C12.022 28.5787 11.6864 27.1025 11.6664 25.6265L11.6582 25.3157C11.6566 25.2459 11.6624 25.1765 11.6678 25.1093C11.6708 25.0729 11.6738 25.0367 11.6758 25.0003L11.7206 24.3733C11.7288 24.2357 11.7538 24.0983 11.7782 23.9657C11.7916 23.8927 11.805 23.8197 11.8156 23.7463L11.8688 23.4329C11.8878 23.3057 11.909 23.2079 11.9372 23.1165C11.9664 23.0133 11.9942 22.9081 12.0222 22.8031C12.1024 22.5003 12.1854 22.1871 12.312 21.8901C12.339 21.8211 12.3652 21.7501 12.3914 21.6791C12.4388 21.5503 12.4878 21.4173 12.5456 21.2891L12.8308 20.7067C12.848 20.6727 12.8642 20.6391 12.8804 20.6055C12.9106 20.5427 12.9408 20.4799 12.9756 20.4197L13.474 19.6091L13.884 19.0643C13.9988 18.9105 14.1176 18.7517 14.2564 18.6123L14.6774 18.1549C14.7506 18.0693 14.833 17.9953 14.9038 17.9345L15.1344 17.7289C15.19 17.6811 15.2436 17.6323 15.2972 17.5835C15.3948 17.4949 15.4958 17.4031 15.603 17.3219L16.3468 16.7805C16.4042 16.7429 16.4614 16.7099 16.5186 16.6769C16.5498 16.6589 16.5812 16.6407 16.6122 16.6223L17.2664 16.2399L18.2264 15.8013L18.7936 15.6069C18.861 15.5857 18.9264 15.5627 18.9918 15.5395C19.1112 15.4975 19.2346 15.4539 19.361 15.4257L19.9708 15.2855C20.0196 15.2735 20.0692 15.2617 20.1192 15.2505Z" fill="#263238"/>
<path d="M21.806 23.0327V27.9589H20.4408L18.5688 25.7211V27.9589H16.9502V23.0327H18.3154L20.1872 25.2705V23.0327H21.806Z" fill="#CC293D"/>
<path d="M22.4116 25.496C22.4116 24.0042 23.5868 22.9204 25.1914 22.9204C26.7958 22.9204 27.971 24.0042 27.971 25.496C27.971 26.988 26.7958 28.0716 25.1914 28.0716C23.5868 28.0716 22.4116 26.9878 22.4116 25.496ZM26.2962 25.496C26.2962 24.729 25.8036 24.2644 25.1914 24.2644C24.579 24.2644 24.0866 24.7288 24.0866 25.496C24.0866 26.263 24.5792 26.7276 25.1914 26.7276C25.8036 26.7274 26.2962 26.263 26.2962 25.496Z" fill="#CC293D"/>
<path d="M32.919 50.29C32.919 50.29 31.1486 50.8616 30.1232 52.1946C29.0978 53.5276 14.687 70.6386 14.9946 74.3298C15.3022 78.0212 28.7614 89.4064 30.636 91.2616L32.8848 86.0888L24.2616 74.5476L34.2248 65.3194L36.0706 56.3986L32.919 50.29Z" fill="#AE7461"/>
<path d="M20.8779 73.9833C20.8787 73.9695 21.0595 73.9659 21.3509 73.9823C21.6423 73.9987 22.0441 74.0377 22.4841 74.1075C22.9243 74.1777 23.3183 74.2653 23.6003 74.3403C23.8825 74.4151 24.0531 74.4747 24.0495 74.4881C24.0457 74.5027 23.8687 74.4683 23.5837 74.4121C23.2987 74.3559 22.9049 74.2801 22.4675 74.2103C22.0303 74.1409 21.6325 74.0905 21.3441 74.0555C21.0559 74.0207 20.8771 73.9983 20.8779 73.9833Z" fill="#6F4439"/>
<path d="M57.9457 11.0835C58.5579 10.4293 59.4901 10.0895 60.3797 10.1965C60.7417 10.2401 61.1379 10.3459 61.4495 10.1567C61.6725 10.0211 61.7893 9.76774 61.9551 9.56634C62.4641 8.94794 63.5293 8.91254 64.0781 9.49594C64.2131 9.63954 64.3235 9.81534 64.4985 9.90574C65.2067 10.2707 65.9767 8.94234 66.6813 9.31474C66.3737 9.45634 66.0701 9.64494 65.8999 9.93734C65.7297 10.2299 65.7359 10.6469 65.9917 10.8687C66.6547 11.4441 67.7311 10.1411 68.4687 10.6169C68.8663 10.8735 68.9255 11.5469 69.3863 11.6549C69.5645 11.6967 69.7481 11.6329 69.9299 11.6117C70.5411 11.5405 71.1611 12.0355 71.2269 12.6473C71.2831 13.1699 71.0237 13.8105 71.4183 14.1577C71.6625 14.3727 72.0313 14.3351 72.3529 14.2847C72.3495 14.7649 72.2341 15.2439 72.0187 15.6733C72.8741 16.1565 73.1911 17.3947 72.6729 18.2293C73.0897 18.5519 73.5147 18.8887 73.7773 19.3457C74.0399 19.8027 74.1049 20.4133 73.7971 20.8409C73.7271 20.9381 73.6389 21.0257 73.5985 21.1387C73.5547 21.2607 73.5733 21.3957 73.6001 21.5227C73.7031 22.0121 73.9213 22.4855 73.9097 22.9855C73.8979 23.4855 73.5303 24.0361 73.0317 23.9961C72.9155 23.9867 72.7873 23.9487 72.6899 24.0131C72.6165 24.0615 72.5867 24.1539 72.5713 24.2405C72.5081 24.5945 72.5987 24.9551 72.6497 25.3111C72.7007 25.6671 72.7039 26.0587 72.4953 26.3517C72.2867 26.6447 71.7971 26.7487 71.5709 26.4691C71.7167 27.0247 71.8625 27.5803 72.0083 28.1357C72.0949 28.4661 72.1651 28.8655 71.9259 29.1093C71.6123 29.4287 71.0407 29.1819 70.7991 28.8051C70.5575 28.4283 70.4901 27.9585 70.2387 27.5883C70.1361 27.4371 70.0031 27.3035 69.9335 27.1343C69.8785 27.0007 69.8593 26.8407 69.7473 26.7495C69.5221 26.5661 69.1789 26.8805 69.2111 27.1693C69.2433 27.4581 69.4743 27.6763 69.6583 27.9011C69.8423 28.1259 69.9921 28.4457 69.8453 28.6965C69.7745 28.8175 69.6457 28.8969 69.5781 29.0199C69.3443 29.4451 69.9683 29.8535 70.0441 30.3327C70.1003 30.6869 69.8441 31.0087 69.5917 31.2631C69.2833 31.5739 68.6851 31.8271 68.4881 31.4361C68.4197 31.3005 68.4427 31.1357 68.3903 30.9931C68.3291 30.8261 68.1759 30.7145 68.0433 30.5961C67.7141 30.3017 67.4741 29.9089 67.3625 29.4815C67.7341 29.9347 68.1265 30.5347 67.8679 31.0607C67.7599 31.2805 67.5559 31.4341 67.3869 31.6117C67.0555 31.9601 66.8511 32.4127 66.5245 32.7655C66.1979 33.1183 65.6589 33.3611 65.2379 33.1289C65.3865 33.5891 65.1807 34.1387 64.7663 34.3881C64.3519 34.6375 63.7699 34.5619 63.4331 34.2149C63.3405 34.1197 63.2599 34.0033 63.1365 33.9547C63.0035 33.9023 62.8545 33.9415 62.7139 33.9679C61.8709 34.1273 60.9513 33.7649 60.4439 33.0733C60.5869 33.0219 60.7297 32.9705 60.8727 32.9191C60.0281 32.8147 59.1483 32.6973 58.4433 32.2207C57.7383 31.7441 57.2775 30.7897 57.6385 30.0191C57.7951 29.6851 58.0959 29.3415 57.9563 28.9999C57.8603 28.7647 57.5933 28.6575 57.3529 28.5747C56.3473 28.2277 55.3417 27.8807 54.3361 27.5337C53.8481 27.3653 53.3339 27.1793 53.0075 26.7793C52.6809 26.3793 52.6477 25.6943 53.0755 25.4055C52.8409 24.9423 52.4717 24.5481 52.0251 24.2833C51.5229 23.9857 50.9385 23.8547 50.4233 23.5801C49.9081 23.3057 49.4371 22.8079 49.4701 22.2253C49.5033 21.6425 50.3039 21.1871 50.7075 21.6087C50.6221 20.7317 49.0583 20.6871 48.9189 19.8171C48.8055 19.1105 49.7083 18.7373 50.1711 18.1911C50.0745 17.9461 49.8223 17.7901 49.7183 17.5481C49.5003 17.0401 50.0261 16.5279 50.5235 16.2869C51.0209 16.0461 51.6281 15.8013 51.7457 15.2613C51.8661 14.7089 51.3887 14.0877 51.6793 13.6025C51.8403 13.3337 52.2303 13.2341 52.5003 13.3929C52.8957 12.3791 54.8045 13.1283 55.3535 12.1889C55.3969 12.1145 55.4287 12.0287 55.4169 11.9433C55.4067 11.8695 55.3653 11.8039 55.3189 11.7459C55.0979 11.4703 54.7573 11.3239 54.4765 11.1091C54.1959 10.8943 53.9589 10.5335 54.0831 10.2027C54.2073 9.87194 54.8337 9.87894 54.8289 10.2321C55.1855 9.90874 55.8523 10.0717 56.0195 10.5233C56.2617 10.2257 56.7397 10.2267 57.0707 10.4207C57.4017 10.6145 57.6205 10.9497 57.8269 11.2729" fill="#263238"/>
<path d="M64.6564 11.9156C64.657 11.9236 64.5892 11.9218 64.4726 11.9584C64.3578 11.9952 64.1934 12.0824 64.0526 12.2624C63.9112 12.4394 63.7974 12.7036 63.7982 13.0232C63.7914 13.3424 63.8844 13.697 64.0002 14.0796L64.0188 14.1414L63.9532 14.1428C63.5146 14.1526 63.0278 14.3034 62.6256 14.6266C62.2232 14.944 61.9338 15.464 61.9582 16.0318C61.9674 16.5478 62.2164 17.0366 62.5944 17.3018L62.7312 17.3976L62.5642 17.405C61.9614 17.432 61.4362 17.7454 61.1192 18.1334C60.7938 18.5244 60.6856 18.9866 60.6838 19.3574C60.6818 19.7332 60.7788 20.0248 60.8604 20.2124C60.9444 20.4008 61.0108 20.4934 61.0026 20.4988C60.9998 20.5006 60.9818 20.479 60.9494 20.435C60.9164 20.3914 60.8732 20.3226 60.8254 20.2292C60.7314 20.0432 60.6198 19.747 60.6118 19.3582C60.603 18.9754 60.7066 18.4882 61.0434 18.0722C61.3712 17.6604 61.9184 17.3246 62.5596 17.292L62.5294 17.3954C62.1164 17.1088 61.8504 16.5844 61.8406 16.0354C61.8304 15.7368 61.896 15.4392 62.027 15.1826C62.1558 14.9246 62.3448 14.7096 62.5548 14.5392C62.9812 14.201 63.4922 14.0486 63.9518 14.0442L63.905 14.1076C63.7942 13.7228 63.7034 13.3558 63.7176 13.0214C63.7236 12.687 63.8532 12.405 64.0084 12.2264C64.1634 12.0424 64.3424 11.9586 64.4646 11.9298C64.5262 11.9152 64.5748 11.9104 64.6072 11.9116C64.6398 11.9114 64.6564 11.9128 64.6564 11.9156Z" fill="#455A64"/>
<path d="M72.0663 20.0024C72.0677 20.0052 72.0466 20.019 72.0044 20.0434C71.9616 20.0662 71.9005 20.106 71.8145 20.1432C71.6441 20.2214 71.3824 20.3154 71.038 20.363C70.695 20.4088 70.2662 20.4086 69.8044 20.2806C69.343 20.1614 68.8499 19.9048 68.4429 19.4888L68.5312 19.4768C68.2172 20.0686 67.6201 20.6294 66.8385 20.7736C66.0121 20.925 65.1657 20.5028 64.8405 19.8432L64.9414 19.8336C64.859 20.1096 64.6968 20.3432 64.507 20.5208C64.3164 20.6994 64.1006 20.8268 63.8864 20.9168C63.4528 21.094 63.0371 21.1124 62.7051 21.1044C62.3707 21.0928 62.1096 21.0504 61.932 21.021C61.7544 20.99 61.6598 20.9678 61.6606 20.962C61.6616 20.9556 61.7583 20.966 61.9369 20.986C62.1155 21.0046 62.3765 21.0364 62.7061 21.0382C63.0329 21.037 63.4387 21.009 63.8505 20.8328C64.2537 20.6598 64.6846 20.3198 64.8364 19.8036L64.8757 19.6702L64.9375 19.794C65.2415 20.4034 66.0425 20.801 66.8173 20.6578C67.5531 20.523 68.1288 19.9904 68.4338 19.425L68.4698 19.3586L68.5224 19.4132C68.9098 19.8148 69.3829 20.069 69.8291 20.1914C70.2755 20.3226 70.6931 20.3316 71.0297 20.296C71.7101 20.2178 72.0579 19.9774 72.0663 20.0024Z" fill="#455A64"/>
<path d="M68.753 25.9438C68.7556 25.9448 68.7486 25.9746 68.711 26.0172C68.6738 26.0594 68.5994 26.106 68.4954 26.1276C68.2872 26.166 67.9802 26.1496 67.6256 26.0298C67.2752 25.9092 66.8768 25.6628 66.5892 25.2532C66.3034 24.849 66.138 24.289 66.2194 23.7166L66.2208 23.7044L66.3084 23.7642C65.8084 24.0496 65.2426 24.1216 64.7562 24.0626C64.2648 24.0054 63.8516 23.8152 63.5438 23.614C63.234 23.411 63.0214 23.1972 62.8874 23.0422C62.7534 22.8862 62.6938 22.7892 62.699 22.7852C62.718 22.765 62.9746 23.1574 63.5882 23.5436C63.894 23.7308 64.2962 23.906 64.7684 23.9548C65.2364 24.0058 65.7762 23.9326 66.2498 23.662L66.3516 23.604L66.3374 23.722L66.336 23.7334C66.2592 24.2726 66.412 24.805 66.6784 25.1914C66.9456 25.5824 67.3202 25.8256 67.654 25.9516C67.9894 26.0768 68.2922 26.1052 68.487 26.0824C68.6906 26.0564 68.7468 25.9352 68.753 25.9438Z" fill="#455A64"/>
<path d="M56.1353 12.5084C56.1649 12.512 55.9447 12.9614 56.0223 13.7162C56.0635 14.0872 56.1903 14.5284 56.4677 14.9376C56.7451 15.344 57.1781 15.7068 57.7087 15.9144C58.0073 16.0312 58.3175 16.0902 58.6127 16.0976L58.6851 16.0994L58.6673 16.169C58.5537 16.6146 58.5431 17.0526 58.5915 17.4366C58.6425 17.821 58.7473 18.1534 58.8661 18.4148C58.9245 18.5454 58.9841 18.6634 59.0443 18.7548C59.1055 18.845 59.1855 18.9014 59.2591 18.9026C59.3331 18.906 59.3883 18.8754 59.4133 18.8464C59.4393 18.8172 59.4433 18.7944 59.4479 18.7956C59.4499 18.7956 59.4537 18.8206 59.4295 18.8588C59.4059 18.8966 59.3457 18.9396 59.2585 18.9422C59.1687 18.9478 59.0681 18.8834 58.9979 18.7888C58.9277 18.6924 58.8645 18.5782 58.7995 18.446C58.6689 18.183 58.5525 17.8446 58.4929 17.45C58.4361 17.0558 58.4415 16.6032 58.5563 16.1408L58.6109 16.2122C58.3019 16.2066 57.9773 16.146 57.6659 16.024C57.1121 15.8072 56.6623 15.426 56.3777 14.998C56.0931 14.5672 55.9711 14.1072 55.9393 13.724C55.9055 13.3382 55.9625 13.0256 56.0167 12.819C56.0471 12.7158 56.0729 12.6368 56.0965 12.5852C56.1181 12.5332 56.1313 12.5068 56.1353 12.5084Z" fill="#455A64"/>
<path d="M65.9813 27.4237C65.3115 26.0629 64.0113 24.7207 62.5533 24.2071C62.5831 24.1619 62.6101 24.1149 62.6301 24.0645C62.6869 23.9219 62.6969 23.7637 62.6763 23.6115C62.6347 23.3039 62.4641 23.0137 62.2097 22.8359C62.1477 22.7925 62.0807 22.7563 62.0107 22.7275C62.2169 22.5909 62.4197 22.4485 62.6151 22.2955C62.7289 22.2063 62.8469 22.1053 62.8883 21.9637C62.9329 21.8111 62.8781 21.6493 62.8209 21.5027C61.5763 18.3111 58.8067 15.8297 55.5935 15.0273C55.4645 14.9951 55.3237 14.9665 55.2027 15.0251C55.1131 15.0683 55.0491 15.1529 54.9883 15.2343C54.7563 15.5461 54.5243 15.8579 54.2925 16.1697L60.6651 22.9427C60.5829 23.0705 60.5193 23.2131 60.4739 23.3571C60.4133 23.5493 60.3761 23.7531 60.4063 23.9525C60.4655 24.3435 60.7961 24.6619 61.1797 24.7589C60.7535 26.2561 60.5699 27.8223 60.6437 29.3775C60.6959 30.4773 60.8743 31.5669 61.0525 32.6535C61.3061 34.2005 61.5597 35.7477 61.8131 37.2947C61.8499 37.5187 61.9017 37.7675 62.0895 37.8951C63.2573 35.7409 64.1821 33.3893 64.2491 30.9399C64.2669 30.2881 64.2087 29.6001 64.0805 28.9131C64.2357 29.1241 64.3925 29.3339 64.5503 29.5427C65.2167 30.4245 65.8831 31.3061 66.5495 32.1877C66.6459 32.3153 66.7601 32.4535 66.9191 32.4715C66.9397 30.7441 66.7441 28.9735 65.9813 27.4237Z" fill="#FD5B68"/>
<path d="M37.7202 29.4192C37.8904 28.2984 37.1312 27.0702 37.5132 26.003C37.8872 24.958 38.3562 24.8702 38.3562 24.8702C37.2606 23.024 38.9644 22.2658 38.9644 22.2658C38.9644 22.2658 38.3252 21.8344 38.5654 20.8986C38.757 20.1526 39.3642 19.9046 39.6094 19.5576C39.7962 19.293 39.8848 18.974 39.9966 18.6698C40.6954 16.7684 42.6232 15.2676 44.6408 15.448C45.0078 15.4808 45.3718 15.5652 45.7396 15.5504C46.2414 15.53 46.7142 15.3272 47.1896 15.1654C49.1354 14.503 51.608 14.6594 52.8386 16.3058C55.0318 15.6714 57.6036 17.1272 58.188 19.3342C59.09 19.7032 60.0246 20.0948 60.6744 20.821C61.3242 21.5472 61.5944 22.7124 61.022 23.5012C62.1768 24.5376 60.9884 25.038 60.9884 25.038C60.9884 25.038 62.1938 25.3468 61.3944 27.771C61.3394 27.9376 61.377 28.2492 61.7428 29.3536C62.137 30.5426 61.2502 31.6752 60.1742 32.3164C60.013 32.4124 59.8292 32.4882 59.7202 32.641C59.5924 32.8202 59.5996 33.058 59.5886 33.278C59.5228 34.6004 58.5196 35.8218 57.2354 36.1438L40.1034 36.7548C39.5146 36.4198 37.9692 33.9262 38.0752 33.257C38.1184 32.9834 38.2296 32.7148 38.201 32.4394C38.1632 32.0764 37.8946 31.7868 37.7216 31.4654C37.4974 31.049 37.4314 30.5496 37.5396 30.0892C37.5926 29.8636 37.6854 29.648 37.7202 29.4192Z" fill="#263238"/>
<path d="M56.6009 27.9743C56.5163 24.9413 54.4601 21.5435 51.3833 20.1957C49.4439 19.3461 47.9629 19.4061 46.9601 19.3343C44.7131 19.1735 42.9589 20.3617 42.9589 20.3617C42.0249 20.6255 38.7071 23.9471 38.6809 27.3919C38.6517 31.2189 38.7671 35.8925 39.3765 38.7131C40.6019 44.3847 45.5155 44.8503 45.5155 44.8503C45.5157 44.8415 45.1847 49.1687 45.1847 49.1687L51.4755 53.1017L56.3105 48.2333L56.7751 34.3327L56.6009 27.9743Z" fill="#AE7461"/>
<path d="M45.5153 44.8503C45.5153 44.8503 49.4345 44.8771 53.1213 42.3735C53.1213 42.3735 51.1599 46.5279 45.4033 46.3095L45.5153 44.8503Z" fill="#6F4439"/>
<path d="M45.0814 35.4956C45.0828 35.4506 44.587 35.3932 43.786 35.3354C43.5834 35.3256 43.3902 35.2962 43.3486 35.1606C43.293 35.0174 43.3654 34.7954 43.4502 34.5556C43.6128 34.057 43.783 33.5346 43.9616 32.987C44.6684 30.7552 45.1686 28.9242 45.0784 28.8968C44.9882 28.869 44.3418 30.6558 43.6348 32.8876C43.4654 33.4378 43.3032 33.962 43.1492 34.4638C43.0854 34.6972 42.9688 34.9644 43.0884 35.261C43.1512 35.4088 43.3052 35.5096 43.4364 35.5374C43.568 35.5698 43.6814 35.5654 43.7816 35.5662C44.584 35.5646 45.0808 35.5406 45.0814 35.4956Z" fill="#263238"/>
<path d="M41.3184 31.7055C41.322 32.0941 41.654 32.4111 42.0596 32.4145C42.4644 32.4181 42.7904 32.1071 42.7868 31.7185C42.783 31.3301 42.451 31.0129 42.0464 31.0091C41.6406 31.0057 41.3146 31.3175 41.3184 31.7055Z" fill="#263238"/>
<path d="M40.127 29.5004C40.2224 29.5922 40.76 29.1556 41.5504 29.122C42.3392 29.0774 42.9374 29.4578 43.0188 29.3572C43.0592 29.3124 42.9584 29.1438 42.6978 28.9714C42.4412 28.7996 42.0092 28.6408 41.517 28.6648C41.025 28.6896 40.6192 28.8896 40.3896 29.0856C40.1548 29.2826 40.0804 29.4596 40.127 29.5004Z" fill="#263238"/>
<path d="M40.0177 27.7218C40.2151 27.8643 40.8025 27.6182 41.5538 27.5171C42.2998 27.3952 42.97 27.454 43.0774 27.266C43.1227 27.1756 42.9847 27.0254 42.6704 26.9061C42.3603 26.787 41.8721 26.7186 41.3575 26.7948C40.843 26.8717 40.4286 27.0745 40.2053 27.2733C39.9777 27.4731 39.929 27.6511 40.0177 27.7218Z" fill="#263238"/>
<path d="M50.1064 31.6544C50.127 32.0424 49.8156 32.3796 49.411 32.4084C49.0072 32.4374 48.6624 32.1474 48.6416 31.7596C48.621 31.3718 48.9324 31.0342 49.336 31.0052C49.7408 30.976 50.0856 31.2666 50.1064 31.6544Z" fill="#263238"/>
<path d="M50.9373 29.442C50.8479 29.5396 50.2839 29.1376 49.4931 29.1536C48.7031 29.1584 48.1299 29.5758 48.0425 29.4804C47.9995 29.4384 48.0895 29.2638 48.3385 29.0752C48.5841 28.8876 49.0053 28.7018 49.4977 28.695C49.9903 28.689 50.4079 28.863 50.6493 29.0442C50.8957 29.2264 50.9813 29.3982 50.9373 29.442Z" fill="#263238"/>
<path d="M51.0623 28.5435C50.828 28.6704 50.1971 28.4166 49.3695 28.2931C48.5497 28.1503 47.7965 28.1805 47.6953 27.9992C47.6537 27.9122 47.8226 27.7758 48.1851 27.675C48.5426 27.5742 49.094 27.528 49.6604 27.6193C50.2264 27.7113 50.6686 27.9177 50.8978 28.1134C51.1319 28.3106 51.1685 28.4804 51.0623 28.5435Z" fill="#263238"/>
<path d="M39.4652 22.368C39.9 21.4834 39.9532 21.0276 40.6696 20.3506C41.2684 19.7846 41.9928 19.371 42.7206 18.9852C44.6346 17.9706 46.7804 17.0862 48.9128 17.4678C50.0576 17.6726 51.1048 18.2294 52.1242 18.7886C52.9056 19.2174 53.6906 19.6572 54.3556 20.2508C54.939 20.7716 55.4172 21.3998 55.8438 22.0552C56.8604 23.6176 57.6076 25.3814 57.8184 27.2334C58.029 29.0854 59.508 30.6654 58.4862 32.2242C58.407 32.345 56.5226 34.8082 56.3784 34.8082C55.8028 34.8082 55.2624 33.5552 55.2484 33.2156C55.2176 32.4712 55.6346 31.4894 55.6346 31.4894C55.6346 31.4894 55.2796 30.9664 55.2886 30.4828C55.2976 29.999 55.564 29.5618 55.8334 29.16C55.8686 29.1074 55.9052 29.052 55.91 28.989C55.923 28.8234 55.732 28.7304 55.5854 28.6524C54.8718 28.272 54.7432 27.131 55.3544 26.6014C54.4138 26.4274 53.7606 25.3346 54.0522 24.4236C54.0982 24.2796 54.1626 24.1174 54.0888 23.9854C54.0178 23.8586 53.8548 23.8252 53.7138 23.7902C52.6702 23.5308 51.926 22.3976 52.1026 21.3368C51.5622 21.3894 51.0126 21.4416 50.4796 21.3372C49.9468 21.2326 49.4234 20.947 49.1606 20.4718C48.8428 21.1096 48.1832 21.564 47.474 21.6338C46.7648 21.7036 46.0294 21.3866 45.5932 20.823C44.6882 20.9504 43.7516 20.848 42.8956 20.5278C42.7272 21.384 42.0912 22.133 41.2738 22.4382C41.115 22.4974 40.9322 22.5564 40.8612 22.7104C40.816 22.8084 40.829 22.9218 40.8396 23.0292C40.8926 23.5728 40.5316 23.8216 40.2516 24.2904C39.9714 24.7592 39.4776 25.4614 38.9464 25.3344C39.0462 26.26 38.5798 26.9578 37.8186 27.4936L37.8184 26.8506C39.1392 26.0626 38.837 23.6464 39.4652 22.368Z" fill="#263238"/>
<path d="M50.9618 15.5448C50.9562 15.5538 50.8556 15.4912 50.661 15.408C50.467 15.3264 50.173 15.2276 49.7972 15.2046C49.4244 15.1796 48.9662 15.235 48.5246 15.4588C48.086 15.6812 47.668 16.0674 47.413 16.5774C47.3398 16.7238 47.2784 16.8788 47.2424 17.029C47.2078 17.1784 47.21 17.3356 47.2924 17.4386L47.3946 17.5662L47.2348 17.5298C46.7956 17.4304 46.3546 17.5364 46.0356 17.737C45.711 17.9374 45.5146 18.2328 45.412 18.4938C45.308 18.7576 45.2918 18.9894 45.2934 19.1448C45.2962 19.3014 45.3132 19.3864 45.3044 19.3882C45.301 19.389 45.294 19.3684 45.2834 19.328C45.2724 19.2876 45.2612 19.2268 45.254 19.1468C45.2398 18.9882 45.2444 18.7474 45.3434 18.4682C45.4406 18.1926 45.6406 17.8732 45.9826 17.6534C46.318 17.4342 46.7858 17.3144 47.2604 17.4184L47.2028 17.51C47.0864 17.3628 47.0918 17.1662 47.1284 17.0038C47.1682 16.8368 47.2306 16.6802 47.308 16.5248C47.5754 15.99 48.0152 15.589 48.4764 15.362C48.9418 15.133 49.4202 15.0854 49.804 15.1218C50.1912 15.1564 50.4888 15.2706 50.6804 15.3666C50.7764 15.4152 50.8484 15.4578 50.8944 15.4908C50.9408 15.523 50.964 15.5412 50.9618 15.5448Z" fill="#455A64"/>
<path d="M57.528 19.6916C57.5328 19.6966 57.4896 19.7504 57.399 19.8382C57.308 19.925 57.1696 20.0472 56.9738 20.168C56.7784 20.287 56.521 20.4076 56.2076 20.4424C55.8998 20.4772 55.529 20.426 55.2234 20.2004L55.3092 20.1828C55.2746 20.237 55.2392 20.2924 55.2032 20.349C55.1642 20.4034 55.1202 20.4554 55.0782 20.5096C54.8064 20.8216 54.4682 21.0428 54.1352 21.1674C53.8026 21.2956 53.4794 21.34 53.2116 21.333C52.9426 21.3264 52.7306 21.2716 52.5894 21.2252C52.45 21.1718 52.3772 21.1336 52.38 21.1272C52.387 21.1024 52.69 21.2546 53.2116 21.2498C53.47 21.246 53.7788 21.1948 54.095 21.0666C54.4118 20.9422 54.7314 20.7282 54.9884 20.4332C55.028 20.382 55.07 20.3328 55.107 20.2816C55.1412 20.2286 55.1748 20.1762 55.2076 20.1252L55.2432 20.0698L55.2934 20.1074C55.5662 20.3118 55.9074 20.3662 56.1972 20.3396C56.4906 20.3138 56.7404 20.2076 56.9344 20.101C57.3222 19.8788 57.5146 19.6754 57.528 19.6916Z" fill="#455A64"/>
<path d="M59.7804 23.2018C59.7844 23.2026 59.7824 23.227 59.7746 23.2742C59.7634 23.32 59.7446 23.389 59.6976 23.4676C59.6096 23.6254 59.4064 23.8228 59.091 23.9184C58.7742 24.019 58.3732 23.9754 57.9702 23.856C57.7678 23.7954 57.5578 23.7352 57.3414 23.6454C57.1308 23.5554 56.8996 23.4222 56.7766 23.1826C56.7672 23.1616 56.7578 23.1406 56.749 23.121L56.8424 23.1442C56.4822 23.4576 56.1084 23.7334 55.7216 23.8998C55.3378 24.0718 54.9454 24.1164 54.6318 24.0706C54.316 24.028 54.0788 23.9074 53.9406 23.7992C53.87 23.7462 53.8214 23.6976 53.7918 23.6622C53.7618 23.6268 53.748 23.6072 53.7508 23.6046C53.7586 23.597 53.8236 23.669 53.9666 23.762C54.1078 23.8552 54.3388 23.9584 54.6414 23.9886C54.9434 24.0216 55.3112 23.9718 55.678 23.8012C56.0468 23.636 56.4088 23.3658 56.7652 23.0552L56.8248 23.0034L56.8588 23.0784C56.866 23.0946 56.874 23.1122 56.882 23.1296C56.9824 23.328 57.1856 23.4522 57.387 23.5392C57.5906 23.6254 57.8032 23.6896 58.0004 23.7516C58.3942 23.8742 58.772 23.9214 59.068 23.8382C59.3658 23.7584 59.5644 23.5842 59.659 23.4428C59.7572 23.3002 59.7682 23.1982 59.7804 23.2018Z" fill="#455A64"/>
<path d="M56.3881 33.5543C56.3655 33.1281 56.3939 31.9995 56.8113 31.9105C57.9253 31.6731 59.9559 31.6511 60.1327 34.5041C60.3743 38.4039 56.1327 37.9341 56.1189 37.8227C56.1083 37.7357 56.4661 35.0259 56.3881 33.5543Z" fill="#AE7461"/>
<path d="M57.3829 36.2298C57.3993 36.2164 57.4537 36.2732 57.5717 36.3186C57.6871 36.3628 57.8819 36.3864 58.0803 36.2976C58.4829 36.121 58.7891 35.4454 58.7645 34.7412C58.7525 34.3856 58.6573 34.0522 58.5141 33.78C58.3773 33.5022 58.1805 33.3144 57.9707 33.2904C57.7615 33.2554 57.6223 33.3888 57.5813 33.5012C57.5357 33.6138 57.5655 33.6902 57.5451 33.6978C57.5349 33.7084 57.4573 33.6378 57.4787 33.475C57.4901 33.3964 57.5299 33.3014 57.6171 33.2208C57.7059 33.139 57.8411 33.0918 57.9865 33.0982C58.2887 33.1006 58.5763 33.3604 58.7337 33.659C58.9075 33.958 59.0231 34.332 59.0365 34.7314C59.0603 35.5188 58.7037 36.279 58.1497 36.4772C57.8799 36.5656 57.6459 36.4972 57.5221 36.4124C57.3957 36.3238 57.3699 36.2376 57.3829 36.2298Z" fill="#6F4439"/>
<path d="M46.1962 38.7281C46.6338 38.7281 46.9886 38.3733 46.9886 37.9357C46.9886 37.4981 46.6338 37.1433 46.1962 37.1433C45.7586 37.1433 45.4038 37.4981 45.4038 37.9357C45.4038 38.3733 45.7586 38.7281 46.1962 38.7281Z" fill="#6F4439"/>
<path d="M45.711 38.5328C45.7184 38.5094 45.9202 38.638 46.2728 38.6504C46.446 38.6508 46.6572 38.601 46.833 38.4552C46.921 38.3822 46.9976 38.2924 47.031 38.1774C47.0666 38.0632 47.0668 37.9328 47.0396 37.805C46.9836 37.5494 46.8298 37.327 46.6466 37.1954C46.4624 37.06 46.2468 37.0268 46.0802 37.071C45.911 37.1094 45.7962 37.2026 45.7342 37.2764C45.672 37.352 45.6526 37.4058 45.644 37.4024C45.639 37.4014 45.645 37.3418 45.7016 37.2522C45.758 37.165 45.8766 37.0522 46.0616 36.9998C46.2428 36.9406 46.4948 36.9702 46.7018 37.117C46.9092 37.2604 47.0782 37.4984 47.1414 37.7836C47.1714 37.9254 47.1714 38.0736 47.1282 38.2084C47.0866 38.3456 46.9906 38.454 46.8932 38.53C46.6934 38.6886 46.4562 38.7348 46.2706 38.7242C46.0828 38.7116 45.9402 38.658 45.8474 38.6152C45.755 38.5704 45.7082 38.5386 45.711 38.5328Z" fill="#263238"/>
<path d="M75.2072 61.4727C75.4144 61.8303 78.211 66.8623 78.7748 69.0649C79.5006 71.9011 78.4626 75.7835 74.8008 75.7835C71.3992 75.7835 67.0162 67.8789 67.0162 67.8789L65.5024 65.1883L69.2854 50.5837C69.2854 50.5837 70.8632 51.3883 72.32 55.1567C73.0504 57.0465 75.2072 61.4727 75.2072 61.4727Z" fill="#AE7461"/>
<path d="M73.691 65.4764C73.6968 65.4634 73.9148 65.5466 74.2606 65.6962C74.6062 65.8458 75.08 66.0612 75.5958 66.3152C76.1116 66.5694 76.5716 66.815 76.8926 67.0154C77.053 67.1156 77.1786 67.2048 77.2588 67.2756C77.3392 67.3472 77.3694 67.402 77.365 67.4032C77.3566 67.4088 77.3178 67.366 77.2336 67.3074C77.148 67.2484 77.0188 67.17 76.8552 67.079C76.5276 66.8968 76.0644 66.6624 75.5498 66.4088C75.0492 66.164 74.5966 65.9426 74.2296 65.7632C73.8922 65.5966 73.6852 65.4896 73.691 65.4764Z" fill="#6F4439"/>
<path d="M64.9888 82.4533C65.0846 78.9069 66.6782 71.4517 67.0938 67.0893L76.4695 62.6463C76.4695 62.6463 71.9053 51.0053 68.2187 49.7307L56.5276 46.9445C56.5276 46.9445 55.1383 50.0341 50.4589 49.7307C46.3061 49.4615 45.1481 46.6743 45.1481 46.6743L35.8009 48.3171C35.7723 48.3219 35.7393 48.3277 35.6991 48.3351L35.5753 48.3569C35.5753 48.3569 35.5751 48.3585 35.5749 48.3589C34.7697 48.5169 32.6176 49.0379 31.0764 50.3235C29.1122 51.9621 21.1562 61.6679 21.1562 61.6679L29.9177 69.8251L33.7457 65.8191C34.2013 67.9855 36.0452 77.7097 36.5418 81.2207C36.7638 82.7907 36.7423 84.5325 36.0371 85.9527C35.1627 87.7139 33.8257 90.9199 34.3793 93.5431H66.7844C67.883 90.6869 64.888 86.1821 64.9888 82.4533Z" fill="#FD5B68"/>
<path d="M32.619 56.958C32.6226 56.9578 32.6282 56.99 32.6358 57.0514C32.6434 57.125 32.6524 57.2138 32.6634 57.3206C32.6878 57.5708 32.7206 57.9048 32.7602 58.31C32.847 59.1448 32.9876 60.2958 33.1714 61.5634C33.359 62.8234 33.5286 63.9632 33.6544 64.8092C33.7152 65.2248 33.7618 65.5616 33.791 65.7948C33.8032 65.9014 33.8132 65.9902 33.8218 66.0638C33.8276 66.1254 33.829 66.158 33.8256 66.1586C33.822 66.1592 33.8138 66.1276 33.8012 66.067C33.7874 65.9942 33.771 65.9066 33.7512 65.8012C33.7084 65.5532 33.6512 65.2224 33.582 64.821C33.4426 63.9928 33.2508 62.848 33.0686 61.5784C32.8846 60.3096 32.7554 59.155 32.6872 58.317C32.6536 57.898 32.6312 57.5586 32.6232 57.3236C32.62 57.2162 32.6172 57.127 32.615 57.053C32.6142 56.9908 32.6154 56.9582 32.619 56.958Z" fill="#263238"/>
<path d="M43.4288 75.7836C43.4304 75.7804 43.4742 75.7978 43.5564 75.834C43.6476 75.8756 43.7662 75.9296 43.9134 75.9966C44.2328 76.147 44.6758 76.3556 45.2186 76.6112C46.3182 77.135 47.836 77.8624 49.491 78.7098C51.1464 79.5574 52.619 80.377 53.6564 81.0172C53.917 81.1752 54.1504 81.322 54.3528 81.455C54.5564 81.5862 54.7312 81.6996 54.8706 81.7978C55.0032 81.8906 55.11 81.9652 55.1922 82.0226C55.265 82.075 55.3024 82.1038 55.3004 82.1068C55.2984 82.1098 55.2572 82.0866 55.1806 82.04C55.0956 81.9868 54.9854 81.9176 54.8484 81.8316C54.7058 81.7386 54.528 81.6304 54.3218 81.5042C54.1168 81.3762 53.881 81.234 53.6184 81.0802C52.573 80.457 51.0974 79.6492 49.4434 78.8024C47.79 77.9558 46.2778 77.2182 45.1864 76.6774C44.6498 76.4094 44.2116 76.1908 43.8956 76.0332C43.7518 75.959 43.6362 75.899 43.547 75.853C43.468 75.8106 43.4272 75.7868 43.4288 75.7836Z" fill="#263238"/>
<path d="M32.5481 85.6805L33.7945 85.8065C33.7945 85.8065 37.8077 81.6775 38.5873 81.0355C39.3669 80.3935 43.8521 80.7403 43.8521 80.7403C44.7697 80.8737 44.8609 81.7491 44.4941 82.1159C44.1273 82.4827 40.4541 82.5427 40.4541 82.5427C40.4541 82.5427 44.7607 82.9425 45.0547 83.0323C45.2909 83.1045 45.7431 83.6145 45.3305 84.2107C44.9177 84.8069 40.4591 84.5003 40.4591 84.5003L44.5171 84.9825C45.0767 85.0489 45.2935 85.7625 44.8523 86.1131C44.7633 86.1839 44.6487 86.2501 44.5027 86.3131C43.8017 86.6163 39.2603 86.3317 39.2603 86.3317L38.8125 86.6095L42.6397 86.7743C42.8765 86.7845 43.0577 86.9889 43.0395 87.2251L43.0269 87.3891C43.0269 88.3063 39.2211 88.4897 39.2211 88.4897C39.2211 88.4897 38.2117 88.5119 37.9373 88.8107C37.6913 89.0783 34.8487 91.4565 33.8447 91.9997C32.6811 92.6291 31.0021 91.7871 30.4961 91.1911L32.5481 85.6805Z" fill="#AE7461"/>
<path d="M37.5146 83.4825C37.5098 83.4771 37.5452 83.4375 37.6136 83.3699C37.6828 83.3033 37.7806 83.2037 37.916 83.0969C38.0478 82.9861 38.2124 82.8617 38.409 82.7435C38.6022 82.6203 38.8386 82.5165 39.0992 82.4539C39.3612 82.3925 39.6206 82.3973 39.8474 82.4215C40.0752 82.4455 40.2754 82.4823 40.4444 82.5043C40.7818 82.5521 40.993 82.5595 40.9932 82.5765C40.9936 82.5881 40.7798 82.6069 40.4362 82.5775C40.0946 82.5579 39.6216 82.4411 39.1224 82.5553C38.6244 82.6725 38.2344 82.9581 37.9614 83.1549C37.6878 83.3577 37.5266 83.4961 37.5146 83.4825Z" fill="#6F4439"/>
<path d="M37.3063 85.5362C37.3013 85.5328 37.3253 85.4804 37.3839 85.395C37.4427 85.31 37.5345 85.1896 37.6715 85.0628C37.9383 84.803 38.4079 84.5406 38.9699 84.4428C39.5309 84.3408 40.0481 84.3836 40.4115 84.4348C40.7759 84.4876 40.9973 84.5514 40.9927 84.537C40.9987 84.5804 40.7631 84.5414 40.4029 84.508C40.0407 84.476 39.5329 84.4462 38.9887 84.5454C38.4437 84.6408 37.9915 84.8806 37.7201 85.118C37.4449 85.3528 37.3217 85.5478 37.3063 85.5362Z" fill="#6F4439"/>
<path d="M37.0837 87.4756C37.0787 87.472 37.1013 87.4268 37.1563 87.355C37.2109 87.283 37.2999 87.185 37.4273 87.0836C37.6797 86.877 38.1035 86.687 38.5931 86.6162C39.0825 86.5414 39.5303 86.5694 39.8483 86.6038C40.0077 86.6216 40.1357 86.642 40.2235 86.6566C40.3119 86.6718 40.3583 86.6792 40.3573 86.6762C40.3601 86.757 39.5639 86.5816 38.6091 86.719C38.1327 86.7884 37.7255 86.959 37.4715 87.1426C37.2147 87.3238 37.0981 87.4874 37.0837 87.4756Z" fill="#6F4439"/>
<path d="M59.7205 32.6406C59.7205 32.6406 59.7451 32.5916 59.8245 32.5238C59.9017 32.4526 60.0425 32.3854 60.2121 32.2792C60.5449 32.0642 61.0509 31.716 61.4633 31.073C61.5617 30.9114 61.6549 30.7322 61.7157 30.5312C61.7811 30.3322 61.8201 30.1122 61.8087 29.8828C61.8025 29.652 61.7441 29.4214 61.6575 29.1824C61.5791 28.9422 61.4999 28.692 61.4307 28.428C61.3973 28.2958 61.3643 28.1604 61.3489 28.0174C61.3417 27.946 61.3387 27.8716 61.3547 27.7958C61.3747 27.7266 61.3951 27.6568 61.4153 27.5864C61.4563 27.448 61.4995 27.3078 61.5271 27.1618C61.5427 27.0892 61.5585 27.016 61.5745 26.9424C61.5847 26.8678 61.5951 26.7928 61.6053 26.7172C61.6393 26.4158 61.6493 26.0964 61.5641 25.7888C61.5265 25.634 61.4531 25.4886 61.3583 25.3596C61.2617 25.234 61.1273 25.124 60.9791 25.0748L60.8859 25.044L60.9737 25.0024C61.2285 24.8818 61.4987 24.6438 61.4855 24.33C61.4647 24.0214 61.2389 23.7514 60.9945 23.5318L60.9667 23.5068L60.9887 23.4766C61.2419 23.1284 61.3339 22.666 61.2725 22.2154C61.2129 21.7638 61.0195 21.3168 60.7187 20.9444C60.4141 20.5724 60.0125 20.2716 59.5741 20.0244C59.1347 19.776 58.6571 19.577 58.1701 19.3784L58.1481 19.3694L58.1419 19.3462C57.8743 18.3404 57.1503 17.4284 56.1845 16.856C55.2267 16.2814 53.9977 16.0266 52.8531 16.3552L52.8191 16.365L52.7975 16.3366C52.4337 15.8566 51.9269 15.473 51.3497 15.2242C50.7675 14.9848 50.1269 14.866 49.4805 14.8534C48.7803 14.8482 48.0833 14.9428 47.4263 15.1468C47.0961 15.2404 46.7781 15.3768 46.4455 15.4736C46.1159 15.5744 45.7619 15.6292 45.4183 15.5934C45.0757 15.5668 44.7475 15.4886 44.4177 15.4908C44.2529 15.4768 44.0891 15.4986 43.9255 15.5056C43.7639 15.5296 43.6007 15.547 43.4433 15.5884C42.8093 15.738 42.2209 16.0306 41.7227 16.4204C41.2207 16.8058 40.7975 17.2768 40.4793 17.7988L40.3609 17.9944L40.2575 18.197C40.1843 18.3298 40.1317 18.4712 40.0737 18.6092C39.9607 18.8856 39.8857 19.1816 39.7343 19.4474C39.5889 19.7268 39.3233 19.8942 39.1219 20.0908C38.9123 20.2846 38.7433 20.5138 38.6509 20.7742C38.5659 21.0346 38.5255 21.315 38.5857 21.5758C38.6403 21.8344 38.7879 22.0766 38.9887 22.23L39.0459 22.2736L38.9821 22.3052C38.5077 22.5404 38.1343 22.9748 38.0511 23.4676C38.0101 23.714 38.0427 23.9612 38.1013 24.1954C38.1383 24.3106 38.1819 24.4232 38.2253 24.5342C38.2805 24.6406 38.3351 24.746 38.3893 24.8506L38.4115 24.8936L38.3631 24.9082C38.2175 24.952 38.0863 25.0762 37.9825 25.1986C37.8767 25.3248 37.7921 25.4666 37.7195 25.6114C37.5731 25.9018 37.4653 26.2038 37.4471 26.5098C37.4081 27.1256 37.5851 27.6982 37.6809 28.2376C37.7845 28.774 37.8263 29.3104 37.6615 29.7634C37.4955 30.2042 37.4733 30.6426 37.5705 31.0148C37.6561 31.3926 37.8719 31.6688 38.0241 31.925C38.1001 32.054 38.1591 32.1814 38.1905 32.3052C38.2215 32.4294 38.2223 32.547 38.2101 32.6488C38.1831 32.8528 38.1337 33.001 38.1111 33.1028C38.0863 33.2042 38.0751 33.2566 38.0751 33.2566C38.0751 33.2566 38.0789 33.2028 38.1001 33.1004C38.1191 32.9976 38.1651 32.8476 38.1879 32.6466C38.1981 32.5462 38.1955 32.4324 38.1637 32.3122C38.1315 32.1922 38.0723 32.0684 37.9959 31.9418C37.8435 31.6914 37.6197 31.411 37.5289 31.0254C37.4793 30.8364 37.4571 30.6286 37.4687 30.4116C37.4769 30.1938 37.5391 29.9704 37.6113 29.748C37.7697 29.3042 37.7261 28.7828 37.6207 28.2492C37.5235 27.7132 37.3411 27.14 37.3779 26.505C37.3959 26.1874 37.5063 25.8738 37.6541 25.5788C37.7281 25.4302 37.8143 25.2836 37.9247 25.1508C38.0379 25.0212 38.1601 24.891 38.3489 24.8328L38.3229 24.8902C38.2669 24.7832 38.2107 24.6754 38.1537 24.5668C38.1083 24.4526 38.0629 24.3364 38.0245 24.2174C37.9625 23.9744 37.9273 23.7154 37.9701 23.4542C38.0593 22.929 38.4461 22.4762 38.9467 22.2266L38.9401 22.3018C38.7125 22.1288 38.5609 21.8746 38.4989 21.595C38.4341 21.314 38.4761 21.0192 38.5653 20.7444C38.6621 20.4684 38.8427 20.2236 39.0581 20.0242C39.2687 19.8192 39.5207 19.6592 39.6521 19.4016C39.7955 19.1498 39.8695 18.8584 39.9841 18.5752C40.0431 18.4342 40.0967 18.29 40.1709 18.1544L40.2761 17.9476L40.3965 17.748C40.7199 17.2156 41.1503 16.7354 41.6617 16.3416C42.1695 15.9434 42.7701 15.6434 43.4201 15.4894C43.5813 15.447 43.7491 15.4288 43.9149 15.4042C44.0829 15.3966 44.2511 15.3744 44.4205 15.3884C44.7613 15.3866 45.0941 15.4654 45.4265 15.4906C45.7591 15.5248 46.0911 15.473 46.4159 15.3742C46.7415 15.2796 47.0593 15.1432 47.3959 15.0472C48.0629 14.84 48.7699 14.7438 49.4821 14.7492C50.1397 14.7622 50.7933 14.8828 51.3901 15.1286C51.9821 15.3836 52.5051 15.7794 52.8799 16.2748L52.8243 16.2562C54.0021 15.9192 55.2585 16.1826 56.2359 16.77C57.2213 17.3556 57.9613 18.2886 58.2345 19.3218L58.2063 19.2898C58.6933 19.4894 59.1743 19.6906 59.6199 19.9436C60.0645 20.1956 60.4747 20.503 60.7885 20.8878C61.0991 21.2744 61.2973 21.7352 61.3581 22.2046C61.4209 22.6722 61.3239 23.1588 61.0555 23.5254L61.0497 23.4702C61.2983 23.697 61.5407 23.9756 61.5651 24.3276C61.5733 24.502 61.4969 24.669 61.3885 24.7904C61.2787 24.9132 61.1481 25.0064 61.0033 25.073L60.9979 25.0006C61.3503 25.1258 61.5503 25.4534 61.6341 25.7694C61.7217 26.0916 61.7095 26.4184 61.6737 26.7254C61.6627 26.8022 61.6519 26.8786 61.6413 26.9544C61.6249 27.029 61.6085 27.103 61.5923 27.1764C61.5635 27.3244 61.5193 27.4656 61.4773 27.6052C61.4569 27.674 61.4367 27.7424 61.4167 27.81C61.4027 27.874 61.4047 27.9432 61.4113 28.011C61.4251 28.1476 61.4569 28.2818 61.4893 28.4128C61.5565 28.6746 61.6341 28.9248 61.7109 29.1648C61.7949 29.4002 61.8565 29.646 61.8603 29.881C61.8703 30.117 61.8287 30.3426 61.7603 30.5454C61.6965 30.7506 61.6003 30.932 61.4989 31.0952C61.0747 31.744 60.5613 32.0874 60.2231 32.2978C60.0497 32.4018 59.9095 32.4648 59.8311 32.5322C59.7511 32.5964 59.7229 32.6428 59.7205 32.6406Z" fill="#455A64"/>
<path d="M70.7064 68.541C71.488 68.565 72.2302 68.1944 72.668 67.5466C73.008 67.0436 73.4114 66.291 73.7946 65.189C74.7144 62.5448 74.8292 60.0732 74.8292 58.8086C74.8292 58.8086 75.2074 56.6596 75.2074 55.4186C75.2074 54.1774 74.9884 51.549 74.4774 51.257C73.9664 50.965 73.2728 51.038 73.3458 52.3886C73.4188 53.7392 73.2728 57.3898 72.9442 57.5722C72.6156 57.7548 72.5426 57.1706 72.6886 56.331C72.8346 55.4914 73.2726 51.1108 72.9442 49.176C72.6156 47.2412 71.5404 47.9094 71.411 48.373C71.2852 48.8232 71.2722 50.4182 71.1554 51.6584C71.0412 52.8714 70.6444 56.039 70.6444 56.039C70.6444 56.039 70.3158 56.2946 70.3158 55.966C70.3158 55.6374 70.6194 50.0498 70.729 49.2466C70.8384 48.4434 70.9654 47.1448 69.9432 46.9624C68.921 46.7798 68.819 48.008 68.7096 49.3222C68.6 50.6364 68.527 55.9296 68.308 56.1122C68.089 56.2948 67.943 56.2948 67.9794 55.8202C68.016 55.3456 68.162 50.6366 68.162 49.943C68.162 49.2494 68.235 47.6432 67.3954 47.5702C66.5558 47.4972 66.2272 48.5558 66.0082 50.5636C65.7892 52.5714 65.6796 56.4044 65.5336 57.171C65.3876 57.9376 64.84 60.1644 64.5114 60.5294C64.5082 60.533 64.5048 60.5366 64.5016 60.5402C64.2568 60.8074 63.8186 60.7508 63.6406 60.435C63.4442 60.0864 63.3126 59.508 63.1242 58.777C62.6556 56.958 61.372 55.3456 60.5324 55.4916C59.6928 55.6376 59.6198 56.2948 59.8388 57.3898C60.0578 58.485 60.7558 60.1024 61.1618 61.7238C61.5468 63.2612 64.1098 66.881 65.278 67.319C66.2404 67.6798 68.7764 68.4818 70.7064 68.541Z" fill="#AE7461"/>
<path d="M70.7066 68.5411C70.7066 68.5411 70.303 68.5475 69.5438 68.4437C68.7862 68.3361 67.6752 68.1141 66.2858 67.6829C65.94 67.5705 65.5716 67.4631 65.1982 67.3041C64.829 67.1235 64.5138 66.8287 64.2016 66.5161C63.5878 65.8763 62.9934 65.1155 62.423 64.2537C62.1388 63.8223 61.8564 63.3671 61.6036 62.8751C61.477 62.6295 61.3568 62.3751 61.2538 62.1081C61.2014 61.9753 61.1632 61.8343 61.1212 61.6961C61.0838 61.5571 61.046 61.4171 61.008 61.2761C60.8504 60.7135 60.6596 60.1431 60.461 59.5581C60.2638 58.9727 60.0498 58.3747 59.884 57.7437C59.804 57.4271 59.7378 57.1031 59.7082 56.7685C59.6924 56.6015 59.6904 56.4305 59.714 56.2597C59.7378 56.0901 59.7936 55.9159 59.9072 55.7761C60.0194 55.6349 60.1836 55.5431 60.3528 55.4943C60.5188 55.4405 60.7108 55.4309 60.885 55.4811C61.2288 55.5959 61.5088 55.8335 61.7546 56.0909C62.2406 56.6175 62.6158 57.2549 62.8914 57.9421C63.1828 58.6279 63.2832 59.3857 63.5378 60.0981C63.6082 60.2703 63.6698 60.4615 63.8132 60.5657C63.9538 60.6741 64.156 60.6969 64.3176 60.6211C64.4862 60.5493 64.5698 60.3695 64.6472 60.1945C64.7238 60.0171 64.7888 59.8323 64.8496 59.6455C65.0894 58.8965 65.2864 58.1181 65.4564 57.3247C65.5414 56.9313 65.559 56.5209 65.5914 56.1101C65.6164 55.6983 65.6414 55.2837 65.6668 54.8661C65.7156 54.0305 65.765 53.1837 65.815 52.3261C65.8734 51.4691 65.9362 50.5999 66.0668 49.7271C66.135 49.2917 66.213 48.8519 66.3634 48.4261C66.437 48.2137 66.5368 48.0041 66.6856 47.8241C66.7194 47.7767 66.7688 47.7411 66.8098 47.6993C66.8552 47.6617 66.9078 47.6313 66.9582 47.6001C67.0672 47.5511 67.1856 47.5163 67.3048 47.5197L67.394 47.5201C67.4238 47.5237 67.4536 47.5315 67.4834 47.5373C67.5448 47.5447 67.5998 47.5713 67.654 47.6007C67.7126 47.6229 67.7512 47.6731 67.7998 47.7095C67.8424 47.7519 67.8758 47.8023 67.913 47.8491C68.0392 48.0515 68.1004 48.2797 68.1414 48.5057C68.219 48.9607 68.216 49.4225 68.213 49.8803C68.1852 50.7979 68.1572 51.7243 68.129 52.6589C68.1 53.5937 68.071 54.5367 68.0416 55.4873L68.03 55.8435C68.0236 55.9537 68.0198 56.0887 68.0636 56.1565C68.0798 56.2131 68.2374 56.1169 68.2788 56.0621C68.3128 55.9751 68.3292 55.8439 68.3434 55.7303C68.398 55.2579 68.4216 54.7767 68.4474 54.2957C68.4952 53.3323 68.527 52.3607 68.5624 51.3825C68.6 50.4053 68.6222 49.4173 68.7456 48.4293C68.7802 48.1717 68.8232 47.9135 68.903 47.6625C68.922 47.5995 68.944 47.5373 68.9722 47.4769C68.9956 47.4149 69.0286 47.3565 69.0632 47.2987C69.0926 47.2383 69.1432 47.1895 69.183 47.1351C69.2344 47.0905 69.2806 47.0369 69.3426 47.0053C69.8344 46.7289 70.5002 46.9911 70.7006 47.4975C70.8108 47.7409 70.8418 48.0051 70.851 48.2619C70.8586 48.5199 70.8386 48.7759 70.8092 49.0287C70.7402 49.5299 70.7112 50.0315 70.6744 50.5327C70.6062 51.5343 70.5472 52.5281 70.4916 53.5123C70.465 54.0045 70.4384 54.4941 70.412 54.9813C70.4002 55.2249 70.3884 55.4677 70.3766 55.7099L70.3694 55.8907C70.368 55.9507 70.3636 56.0115 70.3802 56.0491C70.3928 56.1203 70.532 56.0627 70.6134 55.9987L70.5942 56.0325C70.6952 55.1687 70.7952 54.3125 70.8944 53.4641C70.944 53.0399 70.9934 52.6177 71.0424 52.1975C71.0954 51.7773 71.137 51.3595 71.1614 50.9417C71.185 50.5235 71.2086 50.1073 71.2322 49.6935C71.2588 49.2787 71.2724 48.8673 71.3424 48.4545C71.3584 48.3511 71.4064 48.2409 71.4708 48.1551C71.5376 48.0693 71.6172 47.9947 71.7098 47.9381C71.8886 47.8181 72.1396 47.7901 72.3372 47.8917C72.5368 47.9921 72.6578 48.1793 72.752 48.3609C72.8402 48.5485 72.9026 48.7447 72.9444 48.9431C73.0352 49.3395 73.0646 49.7407 73.0872 50.1375C73.108 50.5347 73.1128 50.9297 73.1084 51.3217C73.1008 52.1059 73.0622 52.8791 73.0094 53.6405C72.9558 54.4019 72.8866 55.1513 72.797 55.8885C72.7558 56.2589 72.67 56.6189 72.663 56.9787C72.66 57.1549 72.6624 57.3457 72.7352 57.4893C72.7722 57.5631 72.8344 57.5779 72.907 57.5411C72.961 57.5215 72.9902 57.4201 73.0164 57.3427C73.108 57.0027 73.146 56.6455 73.1832 56.2959C73.2186 55.9449 73.243 55.5955 73.2634 55.2489C73.3024 54.5555 73.323 53.8727 73.3234 53.2027C73.3262 52.8663 73.31 52.5393 73.302 52.2059C73.3014 52.0393 73.3142 51.8723 73.3512 51.7091C73.3848 51.5463 73.4542 51.3845 73.5722 51.2587C73.689 51.1287 73.8714 51.0727 74.0378 51.0813C74.2068 51.0895 74.3652 51.1463 74.5062 51.2307C74.583 51.2805 74.6318 51.3513 74.6722 51.4215C74.7138 51.4921 74.745 51.5661 74.7742 51.6401C74.8306 51.7889 74.873 51.9403 74.9098 52.0919C75.0512 52.6991 75.1196 53.3037 75.1718 53.8943C75.2198 54.4853 75.2516 55.0637 75.2386 55.6299C75.2192 56.1955 75.1588 56.7427 75.092 57.2733C75.0236 57.8039 74.946 58.3177 74.86 58.8151L74.8604 58.8097C74.8558 60.6187 74.6238 62.2317 74.287 63.5997C73.9464 64.9673 73.5174 66.1003 73.0456 66.9559C72.8086 67.3799 72.5786 67.7567 72.286 67.9965C72.0012 68.2413 71.7064 68.3725 71.4652 68.4467C71.2224 68.5213 71.0288 68.5387 70.9004 68.5433C70.772 68.5469 70.7066 68.5411 70.7066 68.5411C70.7066 68.5411 70.723 68.5397 70.7554 68.5389C70.7878 68.5371 70.8364 68.5401 70.9002 68.5337C71.0278 68.5263 71.2202 68.5063 71.4604 68.4295C71.699 68.3533 71.9898 68.2207 72.2696 67.9765C72.5566 67.7381 72.7822 67.3639 73.0166 66.9391C73.482 66.0845 73.9052 64.9525 74.2402 63.5873C74.5714 62.2217 74.7982 60.6123 74.7984 58.8087V58.8061L74.7988 58.8033C74.8832 58.3073 74.9596 57.7935 75.0266 57.2641C75.092 56.7347 75.151 56.1885 75.1692 55.6271C75.181 55.0661 75.148 54.4881 75.0992 53.8997C75.0462 53.3117 74.9766 52.7087 74.8358 52.1091C74.7992 51.9599 74.7572 51.8109 74.7024 51.6671C74.646 51.5283 74.5798 51.3745 74.4652 51.2961C74.3358 51.2187 74.1848 51.1655 74.0344 51.1591C73.8846 51.1527 73.7306 51.1997 73.6286 51.3133C73.5256 51.4237 73.46 51.5715 73.4286 51.7267C73.3938 51.8815 73.3814 52.0431 73.3822 52.2055C73.3906 52.5303 73.4074 52.8675 73.405 53.2023C73.4056 53.8743 73.386 54.5583 73.3476 55.2535C73.3276 55.6011 73.3036 55.9515 73.2684 56.3043C73.231 56.6569 73.1946 57.0125 73.0998 57.3675C73.0852 57.4117 73.072 57.4561 73.0508 57.5003C73.043 57.5223 73.026 57.5447 73.0126 57.5667C72.9956 57.5875 72.966 57.6147 72.944 57.6205C72.899 57.6419 72.8418 57.6593 72.7822 57.6415C72.7252 57.6229 72.681 57.5785 72.6588 57.5335C72.568 57.3501 72.5736 57.1607 72.5742 56.9765C72.5816 56.6043 72.6676 56.2435 72.7076 55.8775C72.796 55.1431 72.8644 54.3941 72.9172 53.6343C72.9694 52.8743 73.007 52.1027 73.014 51.3211C73.018 50.9305 73.013 50.5371 72.992 50.1427C72.9692 49.7491 72.9394 49.3509 72.8504 48.9647C72.8096 48.7711 72.7484 48.5815 72.665 48.4039C72.5764 48.2325 72.4626 48.0625 72.2936 47.9789C71.9546 47.8025 71.496 48.1013 71.438 48.4739C71.3708 48.8709 71.3562 49.2869 71.3302 49.6993C71.307 50.1135 71.2836 50.5301 71.2602 50.9485C71.2358 51.3675 71.1942 51.7881 71.1416 52.2077C71.0926 52.6283 71.0434 53.0507 70.994 53.4753C70.8952 54.3243 70.7954 55.1813 70.6946 56.0457L70.692 56.0673L70.6752 56.0797C70.6212 56.1195 70.5672 56.1517 70.4994 56.1733C70.4648 56.1819 70.4272 56.1913 70.3818 56.1787C70.3364 56.1663 70.2996 56.1269 70.2854 56.0893C70.256 56.0131 70.2668 55.9487 70.2666 55.8887L70.2738 55.7061C70.2856 55.4635 70.2972 55.2203 70.309 54.9765C70.3352 54.4891 70.3616 53.9993 70.3882 53.5069C70.4436 52.5223 70.5024 51.5283 70.5704 50.5259C70.6068 50.0259 70.6362 49.5193 70.7054 49.0169C70.7344 48.7671 70.7538 48.5157 70.7464 48.2655C70.7378 48.0167 70.7068 47.7637 70.605 47.5405C70.5064 47.3179 70.3282 47.1331 70.0954 47.0565C69.866 46.9797 69.5992 46.9681 69.3968 47.0941C69.19 47.2171 69.0798 47.4605 69.0014 47.6949C68.9248 47.9353 68.8822 48.1889 68.848 48.4433C68.7256 49.4235 68.7032 50.4087 68.6654 51.3867C68.63 52.3647 68.598 53.3367 68.55 54.3013C68.524 54.7837 68.5004 55.2639 68.445 55.7433C68.427 55.8657 68.4216 55.9773 68.3682 56.1125C68.3388 56.1629 68.3158 56.1687 68.2906 56.1909C68.265 56.2097 68.2384 56.2277 68.2084 56.2435C68.1782 56.2589 68.1448 56.2731 68.1024 56.2763C68.0588 56.2801 68.007 56.2559 67.9818 56.2209C67.9334 56.1515 67.9306 56.0853 67.9242 56.0225C67.9194 55.9591 67.9226 55.8981 67.9262 55.8371L67.9378 55.4803C67.9674 54.5309 67.9968 53.5891 68.026 52.6557C68.0546 51.7221 68.083 50.7969 68.1112 49.8805C68.1144 49.4221 68.117 48.9661 68.0418 48.5237C68.0026 48.3045 67.9422 48.0865 67.8282 47.9037C67.715 47.7185 67.5188 47.6115 67.3056 47.6199C67.199 47.6165 67.0976 47.6479 67.0024 47.6893C66.9584 47.7171 66.9126 47.7431 66.8722 47.7765C66.8354 47.8147 66.7914 47.8449 66.7602 47.8891C66.6238 48.0539 66.5268 48.2537 66.4554 48.4603C66.309 48.8741 66.2306 49.3103 66.1628 49.7425C66.0324 50.6099 65.969 51.4771 65.91 52.3331C65.8592 53.1903 65.8092 54.0367 65.7598 54.8719C65.7342 55.2897 65.7086 55.7047 65.6832 56.1169C65.6504 56.5279 65.6326 56.9405 65.5454 57.3437C65.3738 58.1411 65.1762 58.9195 64.9336 59.6737C64.872 59.8619 64.8064 60.0485 64.7276 60.2305C64.688 60.3215 64.6464 60.4115 64.5882 60.4975C64.5334 60.5865 64.4494 60.6569 64.3538 60.7013C64.1618 60.7909 63.9258 60.7633 63.7602 60.6359C63.6764 60.5753 63.612 60.4843 63.5708 60.3971C63.5264 60.3093 63.4896 60.2193 63.456 60.1287C63.1976 59.4013 63.1 58.6501 62.8132 57.9739C62.5422 57.2947 62.1708 56.6635 61.6954 56.1469C61.4558 55.8941 61.1812 55.6645 60.8618 55.5575C60.7 55.5125 60.537 55.5189 60.3746 55.5697C60.2148 55.6155 60.067 55.6993 59.9664 55.8255C59.7628 56.0833 59.757 56.4417 59.7828 56.7631C59.811 57.0909 59.8764 57.4135 59.9548 57.7263C60.1182 58.3525 60.3308 58.9505 60.5268 59.5365C60.7244 60.1221 60.9144 60.6943 61.0714 61.2591C61.1092 61.4007 61.1468 61.5413 61.184 61.6809C61.2256 61.8183 61.2622 61.9547 61.3136 62.0863C61.4146 62.3501 61.5332 62.6029 61.6586 62.8473C61.9086 63.3369 62.189 63.7915 62.4712 64.2223C63.0374 65.0829 63.6284 65.8437 64.2368 66.4821C64.5454 66.7937 64.8596 67.0875 65.216 67.2633C65.5832 67.4213 65.9536 67.5315 66.2976 67.6447C67.683 68.0813 68.791 68.3093 69.5464 68.4233C69.9248 68.4775 70.215 68.5065 70.4104 68.5207C70.6064 68.5321 70.7066 68.5411 70.7066 68.5411Z" fill="#6F4439"/>
<path d="M67.1494 56.9582C67.15 56.951 67.2486 56.9542 67.4268 56.966C67.6052 56.9762 67.8624 57.0048 68.1782 57.0526C68.81 57.1472 69.6758 57.3458 70.5886 57.6946C71.501 58.0456 72.2778 58.4768 72.8108 58.8288C73.0778 59.0044 73.288 59.155 73.4274 59.2668C73.5678 59.3772 73.6432 59.4408 73.639 59.4464C73.6346 59.4522 73.551 59.3994 73.4036 59.2996C73.2574 59.1984 73.0416 59.0576 72.7712 58.891C72.231 58.557 71.4558 58.14 70.551 57.7918C69.6458 57.446 68.7906 57.2378 68.1656 57.125C67.8532 57.0682 67.5986 57.0286 67.4222 57.006C67.2462 56.9822 67.1488 56.9654 67.1494 56.9582Z" fill="#6F4439"/>
</svg>
