<svg width="17" height="20" viewBox="0 0 17 20" fill="none" xmlns="http://www.w3.org/2000/svg">
<path fill-rule="evenodd" clip-rule="evenodd" d="M2.93444 9.89386C2.81379 6.5116 5.38414 3.66687 8.68146 3.53333C11.9788 3.66687 14.5492 6.5116 14.4286 9.89386C14.4286 11.2987 15.9168 12.6672 15.9604 14.0752C15.9604 14.0951 15.9604 14.115 15.9604 14.1349C15.9926 15.037 15.307 15.7956 14.4275 15.8309H11.1078C11.1109 16.5221 10.8568 17.1886 10.3975 17.6944C9.95581 18.1863 9.33351 18.4662 8.68146 18.4662C8.02941 18.4662 7.40722 18.1863 6.96551 17.6944C6.50611 17.1886 6.25208 16.5221 6.25517 15.8309H2.93444C2.05499 15.7956 1.36928 15.037 1.40148 14.1349C1.40148 14.115 1.40148 14.0951 1.40148 14.0752C1.44621 12.6715 2.93444 11.2997 2.93444 9.89386Z" stroke="#263238" stroke-width="1.5" stroke-linecap="round" stroke-linejoin="round"/>
<path d="M6.25508 15.0309C5.81325 15.0309 5.45508 15.3891 5.45508 15.8309C5.45508 16.2727 5.81325 16.6309 6.25508 16.6309V15.0309ZM11.1077 16.6309C11.5496 16.6309 11.9077 16.2727 11.9077 15.8309C11.9077 15.3891 11.5496 15.0309 11.1077 15.0309V16.6309ZM9.72139 2.19998C10.1632 2.19998 10.5214 1.8418 10.5214 1.39998C10.5214 0.958152 10.1632 0.599976 9.72139 0.599976V2.19998ZM7.64139 0.599976C7.19958 0.599976 6.8414 0.958152 6.8414 1.39998C6.8414 1.8418 7.19958 2.19998 7.64139 2.19998V0.599976ZM6.25508 16.6309H11.1077V15.0309H6.25508V16.6309ZM9.72139 0.599976H7.64139V2.19998H9.72139V0.599976Z" fill="#263238"/>
</svg>
