<svg width="24" height="24" viewBox="0 0 24 24" fill="none" xmlns="http://www.w3.org/2000/svg">
<g clip-path="url(#clip0_727_6443)">
<path fill-rule="evenodd" clip-rule="evenodd" d="M5.93444 10.8939C5.81379 7.5116 8.38414 4.66687 11.6815 4.53333C14.9788 4.66687 17.5492 7.5116 17.4286 10.8939C17.4286 12.2987 18.9168 13.6672 18.9604 15.0752C18.9604 15.0951 18.9604 15.115 18.9604 15.1349C18.9926 16.037 18.307 16.7956 17.4275 16.8309H14.1078C14.1109 17.5221 13.8568 18.1886 13.3975 18.6944C12.9558 19.1863 12.3335 19.4662 11.6815 19.4662C11.0294 19.4662 10.4072 19.1863 9.96551 18.6944C9.50611 18.1886 9.25208 17.5221 9.25517 16.8309H5.93444C5.05499 16.7956 4.36928 16.037 4.40148 15.1349C4.40148 15.115 4.40148 15.0951 4.40148 15.0752C4.44621 13.6715 5.93444 12.2997 5.93444 10.8939Z" stroke="#263238" stroke-width="1.5" stroke-linecap="round" stroke-linejoin="round"/>
<path d="M9.25508 16.0309C8.81325 16.0309 8.45508 16.3891 8.45508 16.8309C8.45508 17.2727 8.81325 17.6309 9.25508 17.6309V16.0309ZM14.1077 17.6309C14.5496 17.6309 14.9077 17.2727 14.9077 16.8309C14.9077 16.3891 14.5496 16.0309 14.1077 16.0309V17.6309ZM12.7214 3.19998C13.1632 3.19998 13.5214 2.8418 13.5214 2.39998C13.5214 1.95815 13.1632 1.59998 12.7214 1.59998V3.19998ZM10.6414 1.59998C10.1996 1.59998 9.8414 1.95815 9.8414 2.39998C9.8414 2.8418 10.1996 3.19998 10.6414 3.19998V1.59998ZM9.25508 17.6309H14.1077V16.0309H9.25508V17.6309ZM12.7214 1.59998H10.6414V3.19998H12.7214V1.59998Z" fill="#263238"/>
<circle cx="17" cy="7" r="4" fill="#FD5B68"/>
</g>
<defs>
<clipPath id="clip0_727_6443">
<rect width="24" height="24" fill="white"/>
</clipPath>
</defs>
</svg>
