<svg width="15" height="15" viewBox="0 0 15 15" fill="none" xmlns="http://www.w3.org/2000/svg">
<g clip-path="url(#clip0_418_6922)">
<path d="M14.1908 11.4421C14.1908 11.4421 13.9547 10.3908 13.7833 9.89739C13.6115 9.40376 12.7962 9.63981 12.7962 9.63981L12.0206 8.08163L12.3256 6.77343C12.3256 6.77343 13.1167 6.76051 13.5807 6.67177C14.0446 6.5828 14.0358 6.27644 13.8892 6.02437C13.5515 5.44318 12.4834 4.57335 12.4834 4.57335C12.2471 2.3891 11.1517 1.25739 9.54986 0.995034L10.2001 0.691752L9.73879 0.0302582L8.64488 0.89267L7.46723 0.100336L7.13647 0.835981L7.64805 1.03974C7.59136 1.04979 7.53373 1.06031 7.47631 1.07179C4.78047 1.60608 4.43799 4.51168 4.43799 4.51168C4.43799 4.51168 3.58129 5.3564 3.18192 5.71658C2.78275 6.07675 2.84828 6.25948 3.01355 6.39676C3.17881 6.53378 4.73383 6.11765 4.73383 6.11765C4.73383 6.11765 4.89549 6.6084 4.93041 6.7548C4.96533 6.9007 4.63985 7.66242 4.39012 8.18548C4.233 8.51384 4.68359 8.80107 5.19444 8.72311C5.56035 8.66715 5.53141 8.92998 5.51108 9.29422C5.5034 9.43007 5.73326 9.52743 5.89399 9.53003C5.79066 9.59487 5.67801 9.70224 5.72632 9.80701C5.86575 10.1098 5.99418 9.86153 6.13911 10.1497C6.30748 10.4848 6.43449 11.1054 6.97592 11.064C7.51765 11.0229 8.0909 10.6537 8.0909 10.6537L8.61227 11.6567L7.9254 13.03C7.9254 13.03 7.40855 13.5193 6.98931 14.7775C11.3925 12.995 14.538 13.729 14.9573 12.6808C15.2187 12.0276 14.1908 11.4421 14.1908 11.4421Z" fill="black"/>
<path d="M3.36258 12.1307C4.06427 11.5522 4.29147 10.4764 3.8507 9.51595C3.33604 8.39429 2.10745 7.85687 1.10631 8.31633C0.105648 8.77526 -0.288717 10.0572 0.225941 11.1791C0.695423 12.2022 1.75826 12.7365 2.70106 12.4749L3.76199 14.7878C3.83804 14.9528 4.05088 15.0176 4.23768 14.9318C4.42495 14.8462 4.51486 14.6422 4.43907 14.4774L3.36258 12.1307ZM0.973597 10.8359C0.644271 10.1186 0.896107 9.29903 1.53657 9.0053C2.17659 8.71163 2.96268 9.05528 3.29154 9.77303C3.62063 10.4903 3.36879 11.3101 2.72857 11.6033C2.08831 11.8973 1.30243 11.5536 0.973597 10.8359Z" fill="black"/>
</g>
<defs>
<clipPath id="clip0_418_6922">
<rect width="15" height="15" fill="white"/>
</clipPath>
</defs>
</svg>
