<svg width="21" height="16" viewBox="0 0 21 16" fill="none" xmlns="http://www.w3.org/2000/svg">
<path d="M6.05272 11.0711C6.04952 11.0333 6.03927 10.9984 6.03927 10.9605V10.6363C6.03927 10.4819 6.06105 10.3298 6.10465 10.1851C6.10465 10.1851 6.80257 9.10319 7.13262 7.83203C6.77115 6.94896 6.44302 5.85 6.44302 4.76064C6.44302 4.5076 6.45906 4.26273 6.4815 4.02152C6.01047 3.45015 5.37408 3.12659 4.67103 3.12659C3.21944 3.12659 2.04156 4.49791 2.04156 6.62911C2.04156 8.33435 3.23999 10.1851 3.23999 10.1851C3.28228 10.3298 3.3041 10.4819 3.3041 10.6362V10.9605C3.3041 11.3649 3.10029 11.733 2.78242 11.9015L0.879664 12.8016C0.437434 13.0376 0.122762 13.508 0.0349885 14.0616L0.00229903 14.5461C-0.0143533 14.7985 0.059967 15.047 0.208649 15.2318C0.356674 15.4181 0.564992 15.5227 0.783524 15.5227H3.89366L4.02117 13.6253L4.0295 13.5741C4.18524 12.579 4.75306 11.733 5.54642 11.31L6.05272 11.0711Z" fill="black"/>
<path d="M20.9652 14.0616C20.878 13.508 20.5634 13.0375 20.1212 12.8016L18.2171 11.9015C17.8993 11.733 17.6967 11.3649 17.6967 10.9605V10.6362C17.6967 10.4819 17.7179 10.3298 17.7614 10.1851C17.7614 10.1851 18.9592 8.33435 18.9592 6.62911C18.9592 4.49791 17.782 3.12659 16.3278 3.12659C15.6261 3.12659 14.9897 3.45015 14.5174 4.02299C14.5405 4.26345 14.5564 4.50755 14.5564 4.76059C14.5564 5.8492 14.229 6.9482 13.8682 7.83122C14.1976 9.10239 14.8968 10.1851 14.8968 10.1851C14.939 10.3298 14.9615 10.4819 14.9615 10.6362V10.9605C14.9615 10.9984 14.9506 11.0332 14.9474 11.0711L15.419 11.2937C16.2458 11.7315 16.8136 12.5775 16.9712 13.5726L16.979 13.6245L17.1059 15.5227H20.2173C20.4358 15.5227 20.6441 15.4181 20.7915 15.2318C20.9402 15.047 21.0145 14.7985 20.9978 14.5461L20.9652 14.0616Z" fill="black"/>
<path d="M15.0883 12.2309L12.785 11.1408C12.4005 10.936 12.1551 10.4908 12.1551 10.0025V9.60922C12.1551 9.42371 12.1807 9.23892 12.2339 9.06306C12.2339 9.06306 13.6823 6.82501 13.6823 4.76059C13.6823 2.18117 12.2577 0.522705 10.4997 0.522705C8.74246 0.522705 7.31716 2.18121 7.31716 4.76059C7.31716 6.82501 8.76682 9.06306 8.76682 9.06306C8.81875 9.23892 8.84565 9.42371 8.84565 9.60922V10.0025C8.84565 10.4908 8.59829 10.936 8.21438 11.1408L5.91111 12.2309C5.37598 12.5151 4.99465 13.085 4.88957 13.7558L4.771 15.5227H10.4997H16.2285L16.1112 13.7558C16.0048 13.085 15.6234 12.5151 15.0883 12.2309Z" fill="black"/>
</svg>
