<svg width="21" height="22" viewBox="0 0 21 22" fill="none" xmlns="http://www.w3.org/2000/svg">
<g clip-path="url(#clip0_361_2590)">
<path d="M6.05272 13.6646C6.04952 13.6318 6.03927 13.6016 6.03927 13.5688V13.2878C6.03927 13.154 6.06105 13.0222 6.10465 12.8967C6.10465 12.8967 6.80257 11.9591 7.13262 10.8574C6.77115 10.0921 6.44302 9.13965 6.44302 8.19553C6.44302 7.97624 6.45906 7.76402 6.4815 7.55497C6.01047 7.05978 5.37407 6.77936 4.67103 6.77936C3.21944 6.77936 2.04155 7.96784 2.04155 9.81488C2.04155 11.2928 3.23999 12.8967 3.23999 12.8967C3.28228 13.0221 3.3041 13.1539 3.3041 13.2877V13.5688C3.3041 13.9193 3.10029 14.2383 2.78242 14.3842L0.879664 15.1643C0.437434 15.3689 0.122762 15.7766 0.0349885 16.2563L0.00229903 16.6763C-0.0143533 16.895 0.059967 17.1104 0.208649 17.2706C0.356674 17.432 0.564992 17.5227 0.783524 17.5227H3.89366L4.02117 15.8782L4.0295 15.8338C4.18524 14.9714 4.75306 14.2383 5.54642 13.8717L6.05272 13.6646Z" fill="black"/>
<path d="M20.9652 16.2563C20.878 15.7766 20.5634 15.3688 20.1212 15.1643L18.2171 14.3842C17.8993 14.2383 17.6967 13.9193 17.6967 13.5688V13.2877C17.6967 13.1539 17.7179 13.0221 17.7614 12.8967C17.7614 12.8967 18.9592 11.2928 18.9592 9.81488C18.9592 7.96784 17.782 6.77936 16.3278 6.77936C15.6261 6.77936 14.9897 7.05978 14.5174 7.55624C14.5405 7.76464 14.5564 7.9762 14.5564 8.19549C14.5564 9.13895 14.229 10.0914 13.8682 10.8567C14.1976 11.9584 14.8968 12.8967 14.8968 12.8967C14.939 13.0221 14.9615 13.1539 14.9615 13.2877V13.5688C14.9615 13.6016 14.9506 13.6318 14.9474 13.6646L15.419 13.8575C16.2458 14.237 16.8136 14.9701 16.9712 15.8325L16.979 15.8776L17.1059 17.5227H20.2173C20.4358 17.5227 20.6441 17.432 20.7915 17.2706C20.9402 17.1104 21.0145 16.895 20.9978 16.6763L20.9652 16.2563Z" fill="black"/>
<path d="M15.0883 14.6698L12.785 13.7251C12.4005 13.5476 12.1551 13.1617 12.1551 12.7385V12.3977C12.1551 12.2369 12.1807 12.0768 12.2339 11.9243C12.2339 11.9243 13.6823 9.9847 13.6823 8.19554C13.6823 5.96004 12.2577 4.52271 10.4997 4.52271C8.74246 4.52271 7.31716 5.96008 7.31716 8.19554C7.31716 9.9847 8.76682 11.9243 8.76682 11.9243C8.81875 12.0768 8.84565 12.2369 8.84565 12.3977V12.7385C8.84565 13.1617 8.59829 13.5476 8.21438 13.7251L5.91111 14.6698C5.37598 14.9161 4.99465 15.41 4.88957 15.9914L4.771 17.5227H10.4997H16.2285L16.1112 15.9914C16.0048 15.4101 15.6234 14.9162 15.0883 14.6698Z" fill="black"/>
</g>
<defs>
<clipPath id="clip0_361_2590">
<rect width="21" height="21" fill="white" transform="translate(0 0.5)"/>
</clipPath>
</defs>
</svg>
