<svg width="16" height="16" viewBox="0 0 16 16" fill="none" xmlns="http://www.w3.org/2000/svg">
<path d="M11.3256 11.5051L14.5937 14.7969M13.0833 7.24479C13.0833 10.5815 10.3784 13.2865 7.04167 13.2865C3.70494 13.2865 1 10.5815 1 7.24479C1 3.90807 3.70494 1.20312 7.04167 1.20312C10.3784 1.20312 13.0833 3.90807 13.0833 7.24479Z" stroke="black" stroke-width="2" stroke-linecap="round" stroke-linejoin="round"/>
<path d="M11.5728 7.24475C11.5728 8.14095 11.307 9.01702 10.8091 9.76218C10.3112 10.5073 9.60352 11.0881 8.77554 11.4311C7.94756 11.774 7.03648 11.8638 6.1575 11.6889C5.27853 11.5141 4.47113 11.0825 3.83743 10.4488C3.20372 9.81512 2.77216 9.00773 2.59732 8.12875C2.42248 7.24978 2.51222 6.33869 2.85518 5.51072C3.19814 4.68274 3.77892 3.97505 4.52408 3.47715C5.26924 2.97925 6.14531 2.7135 7.0415 2.7135C7.63656 2.7135 8.22578 2.83071 8.77554 3.05842C9.3253 3.28614 9.82482 3.61991 10.2456 4.04067C10.6663 4.46144 11.0001 4.96096 11.2278 5.51072C11.4556 6.06047 11.5728 6.6497 11.5728 7.24475ZM5.10927 7.38898C5.27703 7.29405 5.40178 7.13816 5.45762 6.95368C5.51347 6.76919 5.49612 6.57028 5.40918 6.39825C5.25636 5.96327 4.87461 5.69999 4.55639 5.81217C4.38878 5.9071 4.26413 6.06289 4.20829 6.24724C4.15245 6.43159 4.16971 6.63036 4.25648 6.80233C4.40929 7.23788 4.79105 7.50059 5.10927 7.38898ZM8.92337 7.81652C8.67853 7.57137 8.38777 7.37689 8.06771 7.2442C7.74765 7.11151 7.40458 7.04321 7.0581 7.04321C6.71163 7.04321 6.36855 7.11151 6.04849 7.2442C5.72843 7.37689 5.43767 7.57137 5.19283 7.81652C4.99153 8.02675 4.88056 8.30745 4.88371 8.5985C4.88687 8.88955 5.00388 9.16779 5.2097 9.3736C5.41551 9.57942 5.69375 9.69644 5.9848 9.69959C6.27585 9.70274 6.55656 9.59178 6.76678 9.39047C6.84403 9.3134 6.9487 9.27012 7.05782 9.27012C7.16694 9.27012 7.2716 9.3134 7.34885 9.39047C7.55908 9.59178 7.83979 9.70274 8.13083 9.69959C8.42188 9.69644 8.70012 9.57942 8.90593 9.3736C9.11175 9.16779 9.22877 8.88955 9.23192 8.5985C9.23507 8.30745 9.12468 8.02675 8.92337 7.81652ZM5.51907 5.76066C5.56886 6.28607 5.91971 6.68214 6.30433 6.64608C6.6878 6.60945 6.95852 6.15386 6.90929 5.62902C6.8595 5.10418 6.50808 4.70755 6.12404 4.74418C5.74057 4.78024 5.46928 5.23582 5.51907 5.76066ZM7.81016 6.64608C8.19421 6.68214 8.54563 6.2855 8.59542 5.76066C8.64521 5.23582 8.37449 4.78024 7.99045 4.74418C7.60698 4.70755 7.25499 5.10418 7.2052 5.62902C7.15597 6.15443 7.42669 6.60945 7.81016 6.64608ZM9.55982 5.81217C9.2416 5.70057 8.85984 5.9627 8.70703 6.39825C8.62026 6.57023 8.603 6.76899 8.65884 6.95335C8.71468 7.1377 8.83933 7.29349 9.00693 7.38841C9.32516 7.50059 9.70691 7.23788 9.85973 6.80233C9.9465 6.63036 9.96375 6.43159 9.90791 6.24724C9.85208 6.06289 9.72743 5.9071 9.55982 5.81217Z" fill="black"/>
</svg>
