<svg width="13" height="14" viewBox="0 0 13 14" fill="none" xmlns="http://www.w3.org/2000/svg">
<path d="M6.5 6.69437C7.2901 6.69437 8.04784 6.36806 8.60652 5.78722C9.1652 5.20639 9.47907 4.41861 9.47907 3.59718C9.47907 2.77576 9.1652 1.98798 8.60652 1.40714C8.04784 0.826309 7.2901 0.5 6.5 0.5C5.7099 0.5 4.95216 0.826309 4.39348 1.40714C3.8348 1.98798 3.52093 2.77576 3.52093 3.59718C3.52093 4.41861 3.8348 5.20639 4.39348 5.78722C4.95216 6.36806 5.7099 6.69437 6.5 6.69437ZM6.5 8.05513C2.53914 8.05513 0 10.3276 0 11.434V13.5H13V11.434C13 10.096 10.5962 8.05513 6.5 8.05513Z" fill="black"/>
</svg>
