<svg width="17" height="17" viewBox="0 0 17 17" fill="none" xmlns="http://www.w3.org/2000/svg">
<path d="M12.3938 12.3677L16 16M14.3333 7.66667C14.3333 11.3486 11.3486 14.3333 7.66667 14.3333C3.98477 14.3333 1 11.3486 1 7.66667C1 3.98477 3.98477 1 7.66667 1C11.3486 1 14.3333 3.98477 14.3333 7.66667Z" stroke="black" stroke-width="2" stroke-linecap="round" stroke-linejoin="round"/>
<path d="M7.62082 3.20691C5.18312 3.20691 3.20703 5.18305 3.20703 7.62063C3.20703 10.0583 5.18312 12.0345 7.62082 12.0345C10.0585 12.0345 12.0346 10.0583 12.0346 7.62063C12.0346 5.18305 10.0585 3.20691 7.62082 3.20691ZM7.62076 10.1364C6.42684 10.1359 5.57388 9.9737 5.59379 9.82508C5.70226 9.01287 6.35722 8.93477 6.77313 8.60198C6.95989 8.45256 7.05067 8.48991 7.05067 8.24086C7.05067 8.15374 7.05067 7.99179 7.05067 7.84239C6.93855 7.71793 6.89779 7.73348 6.80298 7.24475C6.61139 7.24475 6.62374 6.99569 6.53336 6.77484C6.46284 6.6027 6.51632 6.52839 6.57548 6.49613C6.54355 6.32596 6.56372 5.75458 6.80879 5.45719L6.77013 5.18737C6.77013 5.18737 6.8472 5.2067 7.03989 5.16803C7.23267 5.12963 7.69513 5.01406 7.96496 5.24522C8.6125 5.34043 8.78445 5.87225 8.65813 6.49222C8.72017 6.522 8.78189 6.59501 8.70815 6.77484C8.61784 6.99569 8.63019 7.24475 8.4386 7.24475C8.34384 7.73348 8.30303 7.71793 8.19091 7.84239C8.19091 7.99181 8.19091 8.15374 8.19091 8.24086C8.19091 8.48991 8.28162 8.45256 8.46838 8.60198C8.88434 8.93475 9.53926 9.01286 9.64779 9.82508C9.66763 9.9737 8.81472 10.1359 7.62076 10.1364Z" fill="black"/>
</svg>
