<svg width="15" height="15" viewBox="0 0 15 15" fill="none" xmlns="http://www.w3.org/2000/svg">
<g clip-path="url(#clip0_408_3989)">
<path d="M13.6434 9.76616C13.3637 9.64668 12.5663 9.36789 11.6087 9.52674C11.0525 9.62014 7.89849 10.1658 7.69936 10.1658C7.49976 10.1658 7.49976 10.1658 7.49976 10.1658C7.49976 10.1658 7.49976 10.1658 7.30016 10.1658C7.10056 10.1658 3.94707 9.62014 3.3909 9.52674C2.43324 9.36789 1.63584 9.64668 1.35614 9.76616C0.182421 10.2697 0.576113 11.4452 0.837499 11.881C1.19639 12.4793 2.56326 14.0513 3.90954 14.2344C5.6646 14.4738 7.18071 13.118 7.49978 13.118C7.81886 13.118 9.3345 14.4738 11.09 14.2344C12.4363 14.0513 13.8032 12.4794 14.1621 11.881C14.4235 11.4452 14.8176 10.2697 13.6434 9.76616ZM3.85323 12.3997C3.28607 11.8325 3.38082 11.2649 4.04275 11.2177C4.70469 11.1701 5.82116 11.4549 5.83994 11.8325C5.88664 12.7783 4.42086 12.9673 3.85323 12.3997ZM11.1463 12.3997C10.5787 12.9673 9.11296 12.7783 9.15963 11.8325C9.17841 11.4548 10.2949 11.1701 10.9568 11.2177C11.6188 11.2649 11.714 11.8325 11.1463 12.3997Z" fill="#100806"/>
<path d="M14.2552 5.94977C13.5635 1.74799 9.57322 0.737244 7.5 0.737244C5.42725 0.737244 1.43602 1.74799 0.744785 5.9498C0.265957 6.05644 0 6.58836 0 6.85431C0 7.12027 0 8.60937 0 8.60937H15C15 8.60937 15 7.12027 15 6.85431C15 6.58836 14.734 6.05644 14.2552 5.94977Z" fill="#100806"/>
</g>
<defs>
<clipPath id="clip0_408_3989">
<rect width="15" height="15" fill="white"/>
</clipPath>
</defs>
</svg>
