<svg width="220" height="220" viewBox="0 0 220 220" fill="none" xmlns="http://www.w3.org/2000/svg">
<g filter="url(#filter0_iiii_286_790)">
<circle cx="110" cy="110" r="103" fill="#F5F5FA"/>
</g>
<g filter="url(#filter1_dddd_286_790)">
<path d="M187.25 110C187.25 152.664 152.664 187.25 110 187.25C67.336 187.25 32.75 152.664 32.75 110C32.75 67.3362 67.336 32.7502 110 32.7502C152.664 32.7502 187.25 67.3362 187.25 110Z" fill="url(#paint0_radial_286_790)"/>
</g>
<path d="M90.6477 99.4207C90.5568 98.504 90.1667 97.7919 89.4773 97.2843C88.7879 96.7768 87.8523 96.523 86.6705 96.523C85.8674 96.523 85.1894 96.6366 84.6364 96.8639C84.0833 97.0836 83.6591 97.3904 83.3636 97.7843C83.0758 98.1783 82.9318 98.6252 82.9318 99.1252C82.9167 99.5419 83.0038 99.9055 83.1932 100.216C83.3902 100.527 83.6591 100.796 84 101.023C84.3409 101.243 84.7348 101.436 85.1818 101.603C85.6288 101.762 86.1061 101.898 86.6136 102.012L88.7045 102.512C89.7197 102.739 90.6515 103.042 91.5 103.421C92.3485 103.799 93.0833 104.265 93.7045 104.818C94.3258 105.371 94.8068 106.023 95.1477 106.773C95.4962 107.523 95.6742 108.383 95.6818 109.353C95.6742 110.777 95.3106 112.012 94.5909 113.057C93.8788 114.095 92.8485 114.902 91.5 115.478C90.1591 116.046 88.5417 116.33 86.6477 116.33C84.7689 116.33 83.1326 116.042 81.7386 115.466C80.3523 114.89 79.2689 114.038 78.4886 112.909C77.7159 111.773 77.3106 110.368 77.2727 108.693H82.0341C82.0871 109.474 82.3106 110.125 82.7045 110.648C83.1061 111.163 83.6402 111.553 84.3068 111.818C84.9811 112.076 85.7424 112.205 86.5909 112.205C87.4242 112.205 88.1477 112.084 88.7614 111.841C89.3826 111.599 89.8636 111.262 90.2045 110.83C90.5455 110.398 90.7159 109.902 90.7159 109.341C90.7159 108.818 90.5606 108.379 90.25 108.023C89.947 107.667 89.5 107.364 88.9091 107.114C88.3258 106.864 87.6098 106.637 86.7614 106.432L84.2273 105.796C82.2652 105.318 80.7159 104.572 79.5795 103.557C78.4432 102.542 77.8788 101.174 77.8864 99.4548C77.8788 98.0457 78.2538 96.8146 79.0114 95.7616C79.7765 94.7086 80.8258 93.8866 82.1591 93.2957C83.4924 92.7048 85.0076 92.4093 86.7045 92.4093C88.4318 92.4093 89.9394 92.7048 91.2273 93.2957C92.5227 93.8866 93.5303 94.7086 94.25 95.7616C94.9697 96.8146 95.3409 98.0343 95.3636 99.4207H90.6477ZM120.378 104.364C120.378 106.902 119.897 109.061 118.935 110.841C117.98 112.621 116.677 113.981 115.026 114.921C113.382 115.853 111.533 116.318 109.48 116.318C107.412 116.318 105.556 115.849 103.912 114.909C102.268 113.97 100.969 112.61 100.014 110.83C99.0597 109.049 98.5824 106.894 98.5824 104.364C98.5824 101.826 99.0597 99.6669 100.014 97.8866C100.969 96.1063 102.268 94.7502 103.912 93.8184C105.556 92.879 107.412 92.4093 109.48 92.4093C111.533 92.4093 113.382 92.879 115.026 93.8184C116.677 94.7502 117.98 96.1063 118.935 97.8866C119.897 99.6669 120.378 101.826 120.378 104.364ZM115.389 104.364C115.389 102.72 115.143 101.334 114.651 100.205C114.166 99.076 113.48 98.2199 112.594 97.6366C111.707 97.0533 110.67 96.7616 109.48 96.7616C108.291 96.7616 107.253 97.0533 106.366 97.6366C105.48 98.2199 104.791 99.076 104.298 100.205C103.813 101.334 103.571 102.72 103.571 104.364C103.571 106.008 103.813 107.394 104.298 108.523C104.791 109.652 105.48 110.508 106.366 111.091C107.253 111.674 108.291 111.966 109.48 111.966C110.67 111.966 111.707 111.674 112.594 111.091C113.48 110.508 114.166 109.652 114.651 108.523C115.143 107.394 115.389 106.008 115.389 104.364ZM136.648 99.4207C136.557 98.504 136.167 97.7919 135.477 97.2843C134.788 96.7768 133.852 96.523 132.67 96.523C131.867 96.523 131.189 96.6366 130.636 96.8639C130.083 97.0836 129.659 97.3904 129.364 97.7843C129.076 98.1783 128.932 98.6252 128.932 99.1252C128.917 99.5419 129.004 99.9055 129.193 100.216C129.39 100.527 129.659 100.796 130 101.023C130.341 101.243 130.735 101.436 131.182 101.603C131.629 101.762 132.106 101.898 132.614 102.012L134.705 102.512C135.72 102.739 136.652 103.042 137.5 103.421C138.348 103.799 139.083 104.265 139.705 104.818C140.326 105.371 140.807 106.023 141.148 106.773C141.496 107.523 141.674 108.383 141.682 109.353C141.674 110.777 141.311 112.012 140.591 113.057C139.879 114.095 138.848 114.902 137.5 115.478C136.159 116.046 134.542 116.33 132.648 116.33C130.769 116.33 129.133 116.042 127.739 115.466C126.352 114.89 125.269 114.038 124.489 112.909C123.716 111.773 123.311 110.368 123.273 108.693H128.034C128.087 109.474 128.311 110.125 128.705 110.648C129.106 111.163 129.64 111.553 130.307 111.818C130.981 112.076 131.742 112.205 132.591 112.205C133.424 112.205 134.148 112.084 134.761 111.841C135.383 111.599 135.864 111.262 136.205 110.83C136.545 110.398 136.716 109.902 136.716 109.341C136.716 108.818 136.561 108.379 136.25 108.023C135.947 107.667 135.5 107.364 134.909 107.114C134.326 106.864 133.61 106.637 132.761 106.432L130.227 105.796C128.265 105.318 126.716 104.572 125.58 103.557C124.443 102.542 123.879 101.174 123.886 99.4548C123.879 98.0457 124.254 96.8146 125.011 95.7616C125.777 94.7086 126.826 93.8866 128.159 93.2957C129.492 92.7048 131.008 92.4093 132.705 92.4093C134.432 92.4093 135.939 92.7048 137.227 93.2957C138.523 93.8866 139.53 94.7086 140.25 95.7616C140.97 96.8146 141.341 98.0343 141.364 99.4207H136.648Z" fill="white"/>
<path d="M90.6477 99.4207C90.5568 98.504 90.1667 97.7919 89.4773 97.2843C88.7879 96.7768 87.8523 96.523 86.6705 96.523C85.8674 96.523 85.1894 96.6366 84.6364 96.8639C84.0833 97.0836 83.6591 97.3904 83.3636 97.7843C83.0758 98.1783 82.9318 98.6252 82.9318 99.1252C82.9167 99.5419 83.0038 99.9055 83.1932 100.216C83.3902 100.527 83.6591 100.796 84 101.023C84.3409 101.243 84.7348 101.436 85.1818 101.603C85.6288 101.762 86.1061 101.898 86.6136 102.012L88.7045 102.512C89.7197 102.739 90.6515 103.042 91.5 103.421C92.3485 103.799 93.0833 104.265 93.7045 104.818C94.3258 105.371 94.8068 106.023 95.1477 106.773C95.4962 107.523 95.6742 108.383 95.6818 109.353C95.6742 110.777 95.3106 112.012 94.5909 113.057C93.8788 114.095 92.8485 114.902 91.5 115.478C90.1591 116.046 88.5417 116.33 86.6477 116.33C84.7689 116.33 83.1326 116.042 81.7386 115.466C80.3523 114.89 79.2689 114.038 78.4886 112.909C77.7159 111.773 77.3106 110.368 77.2727 108.693H82.0341C82.0871 109.474 82.3106 110.125 82.7045 110.648C83.1061 111.163 83.6402 111.553 84.3068 111.818C84.9811 112.076 85.7424 112.205 86.5909 112.205C87.4242 112.205 88.1477 112.084 88.7614 111.841C89.3826 111.599 89.8636 111.262 90.2045 110.83C90.5455 110.398 90.7159 109.902 90.7159 109.341C90.7159 108.818 90.5606 108.379 90.25 108.023C89.947 107.667 89.5 107.364 88.9091 107.114C88.3258 106.864 87.6098 106.637 86.7614 106.432L84.2273 105.796C82.2652 105.318 80.7159 104.572 79.5795 103.557C78.4432 102.542 77.8788 101.174 77.8864 99.4548C77.8788 98.0457 78.2538 96.8146 79.0114 95.7616C79.7765 94.7086 80.8258 93.8866 82.1591 93.2957C83.4924 92.7048 85.0076 92.4093 86.7045 92.4093C88.4318 92.4093 89.9394 92.7048 91.2273 93.2957C92.5227 93.8866 93.5303 94.7086 94.25 95.7616C94.9697 96.8146 95.3409 98.0343 95.3636 99.4207H90.6477ZM120.378 104.364C120.378 106.902 119.897 109.061 118.935 110.841C117.98 112.621 116.677 113.981 115.026 114.921C113.382 115.853 111.533 116.318 109.48 116.318C107.412 116.318 105.556 115.849 103.912 114.909C102.268 113.97 100.969 112.61 100.014 110.83C99.0597 109.049 98.5824 106.894 98.5824 104.364C98.5824 101.826 99.0597 99.6669 100.014 97.8866C100.969 96.1063 102.268 94.7502 103.912 93.8184C105.556 92.879 107.412 92.4093 109.48 92.4093C111.533 92.4093 113.382 92.879 115.026 93.8184C116.677 94.7502 117.98 96.1063 118.935 97.8866C119.897 99.6669 120.378 101.826 120.378 104.364ZM115.389 104.364C115.389 102.72 115.143 101.334 114.651 100.205C114.166 99.076 113.48 98.2199 112.594 97.6366C111.707 97.0533 110.67 96.7616 109.48 96.7616C108.291 96.7616 107.253 97.0533 106.366 97.6366C105.48 98.2199 104.791 99.076 104.298 100.205C103.813 101.334 103.571 102.72 103.571 104.364C103.571 106.008 103.813 107.394 104.298 108.523C104.791 109.652 105.48 110.508 106.366 111.091C107.253 111.674 108.291 111.966 109.48 111.966C110.67 111.966 111.707 111.674 112.594 111.091C113.48 110.508 114.166 109.652 114.651 108.523C115.143 107.394 115.389 106.008 115.389 104.364ZM136.648 99.4207C136.557 98.504 136.167 97.7919 135.477 97.2843C134.788 96.7768 133.852 96.523 132.67 96.523C131.867 96.523 131.189 96.6366 130.636 96.8639C130.083 97.0836 129.659 97.3904 129.364 97.7843C129.076 98.1783 128.932 98.6252 128.932 99.1252C128.917 99.5419 129.004 99.9055 129.193 100.216C129.39 100.527 129.659 100.796 130 101.023C130.341 101.243 130.735 101.436 131.182 101.603C131.629 101.762 132.106 101.898 132.614 102.012L134.705 102.512C135.72 102.739 136.652 103.042 137.5 103.421C138.348 103.799 139.083 104.265 139.705 104.818C140.326 105.371 140.807 106.023 141.148 106.773C141.496 107.523 141.674 108.383 141.682 109.353C141.674 110.777 141.311 112.012 140.591 113.057C139.879 114.095 138.848 114.902 137.5 115.478C136.159 116.046 134.542 116.33 132.648 116.33C130.769 116.33 129.133 116.042 127.739 115.466C126.352 114.89 125.269 114.038 124.489 112.909C123.716 111.773 123.311 110.368 123.273 108.693H128.034C128.087 109.474 128.311 110.125 128.705 110.648C129.106 111.163 129.64 111.553 130.307 111.818C130.981 112.076 131.742 112.205 132.591 112.205C133.424 112.205 134.148 112.084 134.761 111.841C135.383 111.599 135.864 111.262 136.205 110.83C136.545 110.398 136.716 109.902 136.716 109.341C136.716 108.818 136.561 108.379 136.25 108.023C135.947 107.667 135.5 107.364 134.909 107.114C134.326 106.864 133.61 106.637 132.761 106.432L130.227 105.796C128.265 105.318 126.716 104.572 125.58 103.557C124.443 102.542 123.879 101.174 123.886 99.4548C123.879 98.0457 124.254 96.8146 125.011 95.7616C125.777 94.7086 126.826 93.8866 128.159 93.2957C129.492 92.7048 131.008 92.4093 132.705 92.4093C134.432 92.4093 135.939 92.7048 137.227 93.2957C138.523 93.8866 139.53 94.7086 140.25 95.7616C140.97 96.8146 141.341 98.0343 141.364 99.4207H136.648Z" fill="white"/>
<path d="M66.0383 141V133.728H68.6306C69.1964 133.728 69.6652 133.83 70.0368 134.036C70.4085 134.242 70.6867 134.524 70.8714 134.882C71.056 135.237 71.1483 135.637 71.1483 136.082C71.1483 136.529 71.0548 136.932 70.8678 137.289C70.6831 137.644 70.4038 137.926 70.0297 138.134C69.6581 138.34 69.1905 138.443 68.627 138.443H66.8444V137.513H68.5276C68.8851 137.513 69.1751 137.451 69.3976 137.328C69.6202 137.203 69.7835 137.032 69.8877 136.817C69.9919 136.602 70.0439 136.357 70.0439 136.082C70.0439 135.807 69.9919 135.563 69.8877 135.35C69.7835 135.137 69.619 134.97 69.3941 134.85C69.1715 134.729 68.878 134.669 68.5134 134.669H67.1356V141H66.0383ZM72.3495 141V135.546H73.3758V136.412H73.4326C73.532 136.119 73.7072 135.888 73.9582 135.72C74.2115 135.549 74.498 135.464 74.8176 135.464C74.8838 135.464 74.962 135.466 75.0519 135.471C75.1443 135.476 75.2165 135.482 75.2686 135.489V136.505C75.2259 136.493 75.1502 136.48 75.0413 136.465C74.9324 136.449 74.8235 136.441 74.7146 136.441C74.4636 136.441 74.2399 136.494 74.0434 136.6C73.8493 136.705 73.6954 136.85 73.5818 137.037C73.4681 137.222 73.4113 137.433 73.4113 137.669V141H72.3495ZM78.343 141.11C77.8055 141.11 77.3427 140.996 76.9545 140.766C76.5686 140.534 76.2703 140.208 76.0596 139.789C75.8512 139.368 75.7471 138.874 75.7471 138.308C75.7471 137.75 75.8512 137.257 76.0596 136.831C76.2703 136.405 76.5638 136.072 76.9403 135.833C77.319 135.594 77.7617 135.475 78.2684 135.475C78.5761 135.475 78.8744 135.526 79.1633 135.627C79.4521 135.729 79.7113 135.889 79.941 136.107C80.1706 136.325 80.3517 136.607 80.4843 136.955C80.6169 137.301 80.6832 137.721 80.6832 138.216V138.593H76.3472V137.797H79.6427C79.6427 137.518 79.5858 137.27 79.4722 137.055C79.3586 136.837 79.1988 136.665 78.9928 136.54C78.7892 136.415 78.5501 136.352 78.2755 136.352C77.9772 136.352 77.7168 136.425 77.4942 136.572C77.2741 136.716 77.1036 136.906 76.9829 137.14C76.8645 137.372 76.8053 137.624 76.8053 137.897V138.518C76.8053 138.883 76.8692 139.193 76.9971 139.448C77.1273 139.704 77.3084 139.899 77.5404 140.034C77.7724 140.167 78.0435 140.233 78.3536 140.233C78.5548 140.233 78.7383 140.205 78.904 140.148C79.0698 140.089 79.213 140.001 79.3337 139.885C79.4545 139.769 79.5468 139.626 79.6107 139.455L80.6157 139.637C80.5352 139.933 80.3908 140.192 80.1824 140.414C79.9765 140.634 79.7172 140.806 79.4047 140.929C79.0946 141.05 78.7407 141.11 78.343 141.11ZM85.9486 136.877L84.9862 137.048C84.946 136.925 84.8821 136.808 84.7945 136.696C84.7093 136.585 84.5932 136.494 84.4465 136.423C84.2997 136.352 84.1162 136.316 83.896 136.316C83.5954 136.316 83.3444 136.384 83.1432 136.519C82.942 136.651 82.8414 136.823 82.8414 137.034C82.8414 137.216 82.9088 137.363 83.0438 137.474C83.1787 137.585 83.3965 137.676 83.6972 137.747L84.5637 137.946C85.0655 138.062 85.4396 138.241 85.6858 138.482C85.932 138.724 86.0551 139.038 86.0551 139.424C86.0551 139.75 85.9604 140.041 85.771 140.297C85.584 140.55 85.3224 140.749 84.9862 140.894C84.6524 141.038 84.2654 141.11 83.825 141.11C83.2142 141.11 82.7159 140.98 82.33 140.72C81.9441 140.457 81.7074 140.084 81.6198 139.601L82.646 139.445C82.71 139.712 82.8414 139.915 83.0402 140.052C83.2391 140.187 83.4983 140.255 83.8179 140.255C84.1659 140.255 84.4441 140.182 84.6524 140.038C84.8608 139.891 84.9649 139.712 84.9649 139.502C84.9649 139.331 84.901 139.188 84.7732 139.072C84.6477 138.956 84.4548 138.868 84.1943 138.809L83.271 138.607C82.762 138.491 82.3856 138.306 82.1418 138.053C81.9003 137.799 81.7796 137.479 81.7796 137.09C81.7796 136.768 81.8695 136.487 82.0494 136.245C82.2294 136.004 82.478 135.816 82.7952 135.681C83.1124 135.543 83.4758 135.475 83.8854 135.475C84.4749 135.475 84.9389 135.603 85.2774 135.858C85.616 136.112 85.8397 136.451 85.9486 136.877ZM91.3099 136.877L90.3476 137.048C90.3073 136.925 90.2434 136.808 90.1558 136.696C90.0706 136.585 89.9546 136.494 89.8078 136.423C89.661 136.352 89.4775 136.316 89.2574 136.316C88.9567 136.316 88.7058 136.384 88.5045 136.519C88.3033 136.651 88.2027 136.823 88.2027 137.034C88.2027 137.216 88.2702 137.363 88.4051 137.474C88.54 137.585 88.7578 137.676 89.0585 137.747L89.925 137.946C90.4269 138.062 90.8009 138.241 91.0471 138.482C91.2934 138.724 91.4165 139.038 91.4165 139.424C91.4165 139.75 91.3218 140.041 91.1324 140.297C90.9453 140.55 90.6837 140.749 90.3476 140.894C90.0138 141.038 89.6267 141.11 89.1863 141.11C88.5756 141.11 88.0772 140.98 87.6913 140.72C87.3054 140.457 87.0687 140.084 86.9811 139.601L88.0074 139.445C88.0713 139.712 88.2027 139.915 88.4015 140.052C88.6004 140.187 88.8596 140.255 89.1792 140.255C89.5273 140.255 89.8054 140.182 90.0138 140.038C90.2221 139.891 90.3263 139.712 90.3263 139.502C90.3263 139.331 90.2623 139.188 90.1345 139.072C90.009 138.956 89.8161 138.868 89.5557 138.809L88.6324 138.607C88.1234 138.491 87.747 138.306 87.5031 138.053C87.2616 137.799 87.1409 137.479 87.1409 137.09C87.1409 136.768 87.2309 136.487 87.4108 136.245C87.5907 136.004 87.8393 135.816 88.1565 135.681C88.4738 135.543 88.8372 135.475 89.2467 135.475C89.8362 135.475 90.3002 135.603 90.6388 135.858C90.9773 136.112 91.201 136.451 91.3099 136.877ZM97.7481 141.1C97.2604 141.1 96.8248 141.016 96.4413 140.848C96.0602 140.679 95.7583 140.446 95.5358 140.148C95.3156 139.847 95.1972 139.499 95.1807 139.104H96.2957C96.3099 139.319 96.3821 139.506 96.5123 139.665C96.6449 139.821 96.8177 139.942 97.0308 140.027C97.2439 140.112 97.4806 140.155 97.741 140.155C98.0275 140.155 98.2808 140.105 98.501 140.006C98.7235 139.906 98.8975 139.768 99.023 139.59C99.1485 139.411 99.2112 139.203 99.2112 138.969C99.2112 138.725 99.1485 138.511 99.023 138.326C98.8999 138.139 98.7188 137.992 98.4797 137.886C98.2429 137.779 97.9565 137.726 97.6203 137.726H97.0059V136.831H97.6203C97.8902 136.831 98.1269 136.783 98.3305 136.686C98.5365 136.589 98.6975 136.454 98.8135 136.281C98.9295 136.106 98.9875 135.901 98.9875 135.666C98.9875 135.442 98.9366 135.246 98.8348 135.08C98.7354 134.912 98.5933 134.781 98.4086 134.686C98.2264 134.592 98.0109 134.544 97.7623 134.544C97.5256 134.544 97.3042 134.588 97.0983 134.676C96.8947 134.761 96.729 134.884 96.6011 135.045C96.4733 135.204 96.4046 135.394 96.3952 135.617H95.3334C95.3452 135.224 95.4612 134.878 95.6814 134.58C95.9039 134.281 96.1975 134.048 96.5621 133.88C96.9266 133.712 97.3315 133.628 97.7765 133.628C98.2429 133.628 98.6454 133.719 98.9839 133.902C99.3248 134.081 99.5876 134.322 99.7723 134.622C99.9593 134.923 100.052 135.252 100.049 135.61C100.052 136.017 99.938 136.362 99.7084 136.647C99.4811 136.931 99.1781 137.121 98.7993 137.218V137.275C99.2822 137.348 99.6563 137.54 99.9214 137.85C100.189 138.161 100.322 138.545 100.319 139.005C100.322 139.405 100.21 139.763 99.9854 140.08C99.7628 140.398 99.4586 140.647 99.0727 140.83C98.6868 141.01 98.2453 141.1 97.7481 141.1ZM106.918 135.546V136.398H103.836V135.546H106.918ZM104.681 141V134.914C104.681 134.573 104.755 134.29 104.905 134.065C105.054 133.838 105.251 133.668 105.498 133.557C105.744 133.443 106.011 133.387 106.3 133.387C106.513 133.387 106.696 133.404 106.847 133.44C106.999 133.473 107.111 133.504 107.184 133.532L106.936 134.392C106.886 134.377 106.822 134.361 106.744 134.342C106.666 134.321 106.571 134.31 106.46 134.31C106.202 134.31 106.017 134.374 105.906 134.502C105.797 134.63 105.743 134.814 105.743 135.056V141H104.681ZM110.096 141.11C109.585 141.11 109.139 140.993 108.758 140.759C108.376 140.524 108.08 140.197 107.87 139.775C107.659 139.354 107.554 138.861 107.554 138.298C107.554 137.732 107.659 137.237 107.87 136.813C108.08 136.39 108.376 136.061 108.758 135.826C109.139 135.592 109.585 135.475 110.096 135.475C110.608 135.475 111.054 135.592 111.435 135.826C111.816 136.061 112.112 136.39 112.323 136.813C112.534 137.237 112.639 137.732 112.639 138.298C112.639 138.861 112.534 139.354 112.323 139.775C112.112 140.197 111.816 140.524 111.435 140.759C111.054 140.993 110.608 141.11 110.096 141.11ZM110.1 140.219C110.431 140.219 110.706 140.131 110.924 139.956C111.142 139.781 111.303 139.548 111.407 139.257C111.513 138.965 111.566 138.645 111.566 138.294C111.566 137.946 111.513 137.627 111.407 137.335C111.303 137.042 111.142 136.806 110.924 136.629C110.706 136.451 110.431 136.362 110.1 136.362C109.766 136.362 109.489 136.451 109.269 136.629C109.051 136.806 108.889 137.042 108.782 137.335C108.678 137.627 108.626 137.946 108.626 138.294C108.626 138.645 108.678 138.965 108.782 139.257C108.889 139.548 109.051 139.781 109.269 139.956C109.489 140.131 109.766 140.219 110.1 140.219ZM113.824 141V135.546H114.85V136.412H114.907C115.007 136.119 115.182 135.888 115.433 135.72C115.686 135.549 115.973 135.464 116.292 135.464C116.358 135.464 116.437 135.466 116.527 135.471C116.619 135.476 116.691 135.482 116.743 135.489V136.505C116.701 136.493 116.625 136.48 116.516 136.465C116.407 136.449 116.298 136.441 116.189 136.441C115.938 136.441 115.715 136.494 115.518 136.6C115.324 136.705 115.17 136.85 115.056 137.037C114.943 137.222 114.886 137.433 114.886 137.669V141H113.824ZM124.396 136.877L123.434 137.048C123.393 136.925 123.329 136.808 123.242 136.696C123.157 136.585 123.041 136.494 122.894 136.423C122.747 136.352 122.563 136.316 122.343 136.316C122.043 136.316 121.792 136.384 121.59 136.519C121.389 136.651 121.289 136.823 121.289 137.034C121.289 137.216 121.356 137.363 121.491 137.474C121.626 137.585 121.844 137.676 122.144 137.747L123.011 137.946C123.513 138.062 123.887 138.241 124.133 138.482C124.379 138.724 124.502 139.038 124.502 139.424C124.502 139.75 124.408 140.041 124.218 140.297C124.031 140.55 123.77 140.749 123.434 140.894C123.1 141.038 122.713 141.11 122.272 141.11C121.661 141.11 121.163 140.98 120.777 140.72C120.391 140.457 120.155 140.084 120.067 139.601L121.093 139.445C121.157 139.712 121.289 139.915 121.487 140.052C121.686 140.187 121.946 140.255 122.265 140.255C122.613 140.255 122.891 140.182 123.1 140.038C123.308 139.891 123.412 139.712 123.412 139.502C123.412 139.331 123.348 139.188 123.22 139.072C123.095 138.956 122.902 138.868 122.642 138.809L121.718 138.607C121.209 138.491 120.833 138.306 120.589 138.053C120.348 137.799 120.227 137.479 120.227 137.09C120.227 136.768 120.317 136.487 120.497 136.245C120.677 136.004 120.925 135.816 121.242 135.681C121.56 135.543 121.923 135.475 122.333 135.475C122.922 135.475 123.386 135.603 123.725 135.858C124.063 136.112 124.287 136.451 124.396 136.877ZM128.021 141.11C127.483 141.11 127.02 140.996 126.632 140.766C126.246 140.534 125.948 140.208 125.737 139.789C125.529 139.368 125.425 138.874 125.425 138.308C125.425 137.75 125.529 137.257 125.737 136.831C125.948 136.405 126.242 136.072 126.618 135.833C126.997 135.594 127.439 135.475 127.946 135.475C128.254 135.475 128.552 135.526 128.841 135.627C129.13 135.729 129.389 135.889 129.619 136.107C129.848 136.325 130.029 136.607 130.162 136.955C130.295 137.301 130.361 137.721 130.361 138.216V138.593H126.025V137.797H129.32C129.32 137.518 129.264 137.27 129.15 137.055C129.036 136.837 128.877 136.665 128.671 136.54C128.467 136.415 128.228 136.352 127.953 136.352C127.655 136.352 127.395 136.425 127.172 136.572C126.952 136.716 126.781 136.906 126.661 137.14C126.542 137.372 126.483 137.624 126.483 137.897V138.518C126.483 138.883 126.547 139.193 126.675 139.448C126.805 139.704 126.986 139.899 127.218 140.034C127.45 140.167 127.721 140.233 128.031 140.233C128.233 140.233 128.416 140.205 128.582 140.148C128.747 140.089 128.891 140.001 129.011 139.885C129.132 139.769 129.225 139.626 129.288 139.455L130.293 139.637C130.213 139.933 130.069 140.192 129.86 140.414C129.654 140.634 129.395 140.806 129.082 140.929C128.772 141.05 128.418 141.11 128.021 141.11ZM133.837 141.11C133.309 141.11 132.854 140.991 132.473 140.752C132.094 140.51 131.803 140.178 131.599 139.754C131.396 139.33 131.294 138.845 131.294 138.298C131.294 137.744 131.398 137.255 131.606 136.831C131.815 136.405 132.108 136.072 132.487 135.833C132.866 135.594 133.312 135.475 133.826 135.475C134.24 135.475 134.61 135.552 134.934 135.705C135.258 135.857 135.52 136.07 135.719 136.345C135.92 136.619 136.039 136.94 136.077 137.307H135.044C134.987 137.051 134.857 136.831 134.653 136.647C134.452 136.462 134.182 136.37 133.844 136.37C133.548 136.37 133.289 136.448 133.066 136.604C132.846 136.758 132.674 136.978 132.551 137.264C132.428 137.549 132.366 137.885 132.366 138.273C132.366 138.671 132.427 139.014 132.547 139.303C132.668 139.592 132.839 139.815 133.059 139.974C133.281 140.133 133.543 140.212 133.844 140.212C134.045 140.212 134.227 140.175 134.391 140.102C134.556 140.026 134.695 139.918 134.806 139.779C134.92 139.639 134.999 139.471 135.044 139.274H136.077C136.039 139.627 135.925 139.942 135.733 140.219C135.541 140.496 135.284 140.714 134.962 140.872C134.643 141.031 134.267 141.11 133.837 141.11ZM139.51 141.11C138.999 141.11 138.553 140.993 138.172 140.759C137.79 140.524 137.495 140.197 137.284 139.775C137.073 139.354 136.968 138.861 136.968 138.298C136.968 137.732 137.073 137.237 137.284 136.813C137.495 136.39 137.79 136.061 138.172 135.826C138.553 135.592 138.999 135.475 139.51 135.475C140.022 135.475 140.468 135.592 140.849 135.826C141.23 136.061 141.526 136.39 141.737 136.813C141.948 137.237 142.053 137.732 142.053 138.298C142.053 138.861 141.948 139.354 141.737 139.775C141.526 140.197 141.23 140.524 140.849 140.759C140.468 140.993 140.022 141.11 139.51 141.11ZM139.514 140.219C139.845 140.219 140.12 140.131 140.338 139.956C140.556 139.781 140.717 139.548 140.821 139.257C140.927 138.965 140.981 138.645 140.981 138.294C140.981 137.946 140.927 137.627 140.821 137.335C140.717 137.042 140.556 136.806 140.338 136.629C140.12 136.451 139.845 136.362 139.514 136.362C139.18 136.362 138.903 136.451 138.683 136.629C138.465 136.806 138.303 137.042 138.196 137.335C138.092 137.627 138.04 137.946 138.04 138.294C138.04 138.645 138.092 138.965 138.196 139.257C138.303 139.548 138.465 139.781 138.683 139.956C138.903 140.131 139.18 140.219 139.514 140.219ZM144.3 137.762V141H143.238V135.546H144.257V136.433H144.325C144.45 136.145 144.647 135.913 144.914 135.737C145.184 135.562 145.524 135.475 145.934 135.475C146.305 135.475 146.631 135.553 146.91 135.709C147.189 135.863 147.406 136.093 147.56 136.398C147.714 136.703 147.791 137.081 147.791 137.531V141H146.729V137.659C146.729 137.263 146.626 136.954 146.42 136.732C146.214 136.507 145.931 136.394 145.571 136.394C145.325 136.394 145.106 136.448 144.914 136.554C144.725 136.661 144.575 136.817 144.463 137.023C144.354 137.227 144.3 137.473 144.3 137.762ZM151.257 141.107C150.816 141.107 150.423 140.994 150.078 140.769C149.734 140.542 149.465 140.219 149.268 139.8C149.074 139.379 148.977 138.873 148.977 138.284C148.977 137.694 149.075 137.19 149.272 136.771C149.47 136.352 149.743 136.031 150.088 135.808C150.434 135.586 150.826 135.475 151.264 135.475C151.602 135.475 151.875 135.531 152.081 135.645C152.289 135.756 152.45 135.887 152.563 136.036C152.679 136.185 152.769 136.316 152.833 136.43H152.897V133.728H153.959V141H152.922V140.152H152.833C152.769 140.268 152.677 140.4 152.556 140.549C152.438 140.698 152.275 140.829 152.066 140.94C151.858 141.051 151.588 141.107 151.257 141.107ZM151.491 140.201C151.796 140.201 152.054 140.121 152.265 139.96C152.478 139.796 152.639 139.57 152.748 139.281C152.859 138.993 152.915 138.656 152.915 138.273C152.915 137.894 152.861 137.563 152.752 137.279C152.643 136.995 152.483 136.773 152.272 136.615C152.062 136.456 151.801 136.377 151.491 136.377C151.171 136.377 150.905 136.46 150.692 136.625C150.479 136.791 150.318 137.017 150.209 137.304C150.103 137.59 150.049 137.913 150.049 138.273C150.049 138.638 150.104 138.965 150.213 139.257C150.322 139.548 150.483 139.779 150.696 139.949C150.911 140.117 151.176 140.201 151.491 140.201Z" fill="white"/>
<defs>
<filter id="filter0_iiii_286_790" x="-3.72917" y="-3.72892" width="227.458" height="227.458" filterUnits="userSpaceOnUse" color-interpolation-filters="sRGB">
<feFlood flood-opacity="0" result="BackgroundImageFix"/>
<feBlend mode="normal" in="SourceGraphic" in2="BackgroundImageFix" result="shape"/>
<feColorMatrix in="SourceAlpha" type="matrix" values="0 0 0 0 0 0 0 0 0 0 0 0 0 0 0 0 0 0 127 0" result="hardAlpha"/>
<feOffset dx="-10.7292" dy="-10.7292"/>
<feGaussianBlur stdDeviation="10.7292"/>
<feComposite in2="hardAlpha" operator="arithmetic" k2="-1" k3="1"/>
<feColorMatrix type="matrix" values="0 0 0 0 1 0 0 0 0 1 0 0 0 0 1 0 0 0 1 0"/>
<feBlend mode="normal" in2="shape" result="effect1_innerShadow_286_790"/>
<feColorMatrix in="SourceAlpha" type="matrix" values="0 0 0 0 0 0 0 0 0 0 0 0 0 0 0 0 0 0 127 0" result="hardAlpha"/>
<feOffset dx="10.7292" dy="10.7292"/>
<feGaussianBlur stdDeviation="10.7292"/>
<feComposite in2="hardAlpha" operator="arithmetic" k2="-1" k3="1"/>
<feColorMatrix type="matrix" values="0 0 0 0 0.666667 0 0 0 0 0.666667 0 0 0 0 0.8 0 0 0 0.5 0"/>
<feBlend mode="normal" in2="effect1_innerShadow_286_790" result="effect2_innerShadow_286_790"/>
<feColorMatrix in="SourceAlpha" type="matrix" values="0 0 0 0 0 0 0 0 0 0 0 0 0 0 0 0 0 0 127 0" result="hardAlpha"/>
<feOffset dx="5.36458" dy="5.36458"/>
<feGaussianBlur stdDeviation="5.36458"/>
<feComposite in2="hardAlpha" operator="arithmetic" k2="-1" k3="1"/>
<feColorMatrix type="matrix" values="0 0 0 0 0.666667 0 0 0 0 0.666667 0 0 0 0 0.8 0 0 0 0.25 0"/>
<feBlend mode="normal" in2="effect2_innerShadow_286_790" result="effect3_innerShadow_286_790"/>
<feColorMatrix in="SourceAlpha" type="matrix" values="0 0 0 0 0 0 0 0 0 0 0 0 0 0 0 0 0 0 127 0" result="hardAlpha"/>
<feOffset dx="-5.36458" dy="-5.36458"/>
<feGaussianBlur stdDeviation="5.36458"/>
<feComposite in2="hardAlpha" operator="arithmetic" k2="-1" k3="1"/>
<feColorMatrix type="matrix" values="0 0 0 0 1 0 0 0 0 1 0 0 0 0 1 0 0 0 0.5 0"/>
<feBlend mode="normal" in2="effect3_innerShadow_286_790" result="effect4_innerShadow_286_790"/>
</filter>
<filter id="filter1_dddd_286_790" x="0.562496" y="0.56274" width="218.875" height="218.875" filterUnits="userSpaceOnUse" color-interpolation-filters="sRGB">
<feFlood flood-opacity="0" result="BackgroundImageFix"/>
<feColorMatrix in="SourceAlpha" type="matrix" values="0 0 0 0 0 0 0 0 0 0 0 0 0 0 0 0 0 0 127 0" result="hardAlpha"/>
<feOffset dx="-10.7292" dy="-10.7292"/>
<feGaussianBlur stdDeviation="10.7292"/>
<feColorMatrix type="matrix" values="0 0 0 0 1 0 0 0 0 1 0 0 0 0 1 0 0 0 1 0"/>
<feBlend mode="normal" in2="BackgroundImageFix" result="effect1_dropShadow_286_790"/>
<feColorMatrix in="SourceAlpha" type="matrix" values="0 0 0 0 0 0 0 0 0 0 0 0 0 0 0 0 0 0 127 0" result="hardAlpha"/>
<feOffset dx="10.7292" dy="10.7292"/>
<feGaussianBlur stdDeviation="10.7292"/>
<feColorMatrix type="matrix" values="0 0 0 0 0.666667 0 0 0 0 0.666667 0 0 0 0 0.8 0 0 0 0.5 0"/>
<feBlend mode="normal" in2="effect1_dropShadow_286_790" result="effect2_dropShadow_286_790"/>
<feColorMatrix in="SourceAlpha" type="matrix" values="0 0 0 0 0 0 0 0 0 0 0 0 0 0 0 0 0 0 127 0" result="hardAlpha"/>
<feOffset dx="5.36458" dy="5.36458"/>
<feGaussianBlur stdDeviation="5.36458"/>
<feColorMatrix type="matrix" values="0 0 0 0 0.666667 0 0 0 0 0.666667 0 0 0 0 0.8 0 0 0 0.25 0"/>
<feBlend mode="normal" in2="effect2_dropShadow_286_790" result="effect3_dropShadow_286_790"/>
<feColorMatrix in="SourceAlpha" type="matrix" values="0 0 0 0 0 0 0 0 0 0 0 0 0 0 0 0 0 0 127 0" result="hardAlpha"/>
<feOffset dx="-5.36458" dy="-5.36458"/>
<feGaussianBlur stdDeviation="5.36458"/>
<feColorMatrix type="matrix" values="0 0 0 0 1 0 0 0 0 1 0 0 0 0 1 0 0 0 0.5 0"/>
<feBlend mode="normal" in2="effect3_dropShadow_286_790" result="effect4_dropShadow_286_790"/>
<feBlend mode="normal" in="SourceGraphic" in2="effect4_dropShadow_286_790" result="shape"/>
</filter>
<radialGradient id="paint0_radial_286_790" cx="0" cy="0" r="1" gradientUnits="userSpaceOnUse" gradientTransform="translate(110 110) rotate(90) scale(103.5)">
<stop offset="0.538462" stop-color="#EA6A6A"/>
<stop offset="1" stop-color="#843B3B"/>
</radialGradient>
</defs>
</svg>
