<svg width="23" height="24" viewBox="0 0 23 24" fill="none" xmlns="http://www.w3.org/2000/svg">
<circle cx="11.4998" cy="12" r="8.7" fill="#E8E8E8" stroke="#E8E8E8"/>
<circle cx="11.5" cy="12" r="11" stroke="#E8E8E8"/>
<mask id="path-3-outside-1_727_6283" maskUnits="userSpaceOnUse" x="3.70459" y="8.34091" width="15" height="8" fill="black">
<rect fill="white" x="3.70459" y="8.34091" width="15" height="8"/>
<path d="M7.96817 11.2322C7.95113 11.0604 7.87797 10.9268 7.74871 10.8317C7.61945 10.7365 7.44403 10.6889 7.22243 10.6889C7.07187 10.6889 6.94474 10.7102 6.84104 10.7528C6.73735 10.794 6.6578 10.8516 6.60241 10.9254C6.54843 10.9993 6.52144 11.0831 6.52144 11.1768C6.5186 11.255 6.53493 11.3232 6.57045 11.3814C6.60738 11.4396 6.6578 11.4901 6.72172 11.5327C6.78564 11.5739 6.85951 11.6101 6.94331 11.6413C7.02712 11.6712 7.11661 11.6967 7.21178 11.718L7.60383 11.8118C7.79417 11.8544 7.96888 11.9112 8.12797 11.9822C8.28707 12.0533 8.42485 12.1406 8.54133 12.2443C8.6578 12.348 8.748 12.4702 8.81192 12.6108C8.87726 12.7514 8.91064 12.9126 8.91206 13.0945C8.91064 13.3615 8.84246 13.593 8.70752 13.7891C8.574 13.9837 8.38082 14.1349 8.12797 14.2429C7.87655 14.3494 7.57329 14.4027 7.21817 14.4027C6.8659 14.4027 6.55908 14.3487 6.29772 14.2408C6.03778 14.1328 5.83465 13.973 5.68834 13.7614C5.54346 13.5483 5.46746 13.2848 5.46036 12.9709H6.35312C6.36306 13.1172 6.40496 13.2393 6.47883 13.3374C6.55411 13.4339 6.65425 13.5071 6.77925 13.5568C6.90567 13.6051 7.04843 13.6293 7.20752 13.6293C7.36377 13.6293 7.49942 13.6065 7.61448 13.5611C7.73096 13.5156 7.82116 13.4524 7.88508 13.3714C7.949 13.2905 7.98096 13.1974 7.98096 13.0923C7.98096 12.9943 7.95184 12.9119 7.8936 12.8452C7.83678 12.7784 7.75297 12.7216 7.64218 12.6747C7.5328 12.6278 7.39857 12.5852 7.23948 12.5469L6.76434 12.4276C6.39644 12.3381 6.10596 12.1982 5.89289 12.0078C5.67982 11.8175 5.574 11.5611 5.57542 11.2386C5.574 10.9744 5.64431 10.7436 5.78635 10.5462C5.92982 10.3487 6.12655 10.1946 6.37655 10.0838C6.62655 9.97301 6.91064 9.91761 7.22883 9.91761C7.55269 9.91761 7.83536 9.97301 8.07684 10.0838C8.31974 10.1946 8.50866 10.3487 8.6436 10.5462C8.77854 10.7436 8.84814 10.9723 8.85241 11.2322H7.96817ZM13.5426 12.1591C13.5426 12.6349 13.4524 13.0398 13.272 13.3736C13.093 13.7074 12.8487 13.9624 12.539 14.1385C12.2308 14.3132 11.8842 14.4006 11.4992 14.4006C11.1115 14.4006 10.7634 14.3125 10.4552 14.1364C10.147 13.9602 9.90336 13.7053 9.72439 13.3714C9.54541 13.0376 9.45592 12.6335 9.45592 12.1591C9.45592 11.6832 9.54541 11.2784 9.72439 10.9446C9.90336 10.6108 10.147 10.3565 10.4552 10.1818C10.7634 10.0057 11.1115 9.91761 11.4992 9.91761C11.8842 9.91761 12.2308 10.0057 12.539 10.1818C12.8487 10.3565 13.093 10.6108 13.272 10.9446C13.4524 11.2784 13.5426 11.6832 13.5426 12.1591ZM12.6072 12.1591C12.6072 11.8509 12.561 11.5909 12.4687 11.3793C12.3778 11.1676 12.2492 11.0071 12.0831 10.8977C11.9169 10.7884 11.7223 10.7337 11.4992 10.7337C11.2762 10.7337 11.0816 10.7884 10.9154 10.8977C10.7492 11.0071 10.62 11.1676 10.5277 11.3793C10.4367 11.5909 10.3913 11.8509 10.3913 12.1591C10.3913 12.4673 10.4367 12.7273 10.5277 12.9389C10.62 13.1506 10.7492 13.3111 10.9154 13.4205C11.0816 13.5298 11.2762 13.5845 11.4992 13.5845C11.7223 13.5845 11.9169 13.5298 12.0831 13.4205C12.2492 13.3111 12.3778 13.1506 12.4687 12.9389C12.561 12.7273 12.6072 12.4673 12.6072 12.1591ZM16.5932 11.2322C16.5761 11.0604 16.503 10.9268 16.3737 10.8317C16.2445 10.7365 16.069 10.6889 15.8474 10.6889C15.6969 10.6889 15.5697 10.7102 15.466 10.7528C15.3623 10.794 15.2828 10.8516 15.2274 10.9254C15.1734 10.9993 15.1464 11.0831 15.1464 11.1768C15.1436 11.255 15.1599 11.3232 15.1954 11.3814C15.2324 11.4396 15.2828 11.4901 15.3467 11.5327C15.4106 11.5739 15.4845 11.6101 15.5683 11.6413C15.6521 11.6712 15.7416 11.6967 15.8368 11.718L16.2288 11.8118C16.4192 11.8544 16.5939 11.9112 16.753 11.9822C16.9121 12.0533 17.0498 12.1406 17.1663 12.2443C17.2828 12.348 17.373 12.4702 17.4369 12.6108C17.5023 12.7514 17.5356 12.9126 17.5371 13.0945C17.5356 13.3615 17.4675 13.593 17.3325 13.7891C17.199 13.9837 17.0058 14.1349 16.753 14.2429C16.5016 14.3494 16.1983 14.4027 15.8432 14.4027C15.4909 14.4027 15.1841 14.3487 14.9227 14.2408C14.6628 14.1328 14.4596 13.973 14.3133 13.7614C14.1685 13.5483 14.0925 13.2848 14.0854 12.9709H14.9781C14.9881 13.1172 15.03 13.2393 15.1038 13.3374C15.1791 13.4339 15.2793 13.5071 15.4043 13.5568C15.5307 13.6051 15.6734 13.6293 15.8325 13.6293C15.9888 13.6293 16.1244 13.6065 16.2395 13.5611C16.356 13.5156 16.4462 13.4524 16.5101 13.3714C16.574 13.2905 16.606 13.1974 16.606 13.0923C16.606 12.9943 16.5768 12.9119 16.5186 12.8452C16.4618 12.7784 16.378 12.7216 16.2672 12.6747C16.1578 12.6278 16.0236 12.5852 15.8645 12.5469L15.3893 12.4276C15.0214 12.3381 14.731 12.1982 14.5179 12.0078C14.3048 11.8175 14.199 11.5611 14.2004 11.2386C14.199 10.9744 14.2693 10.7436 14.4114 10.5462C14.5548 10.3487 14.7516 10.1946 15.0016 10.0838C15.2516 9.97301 15.5356 9.91761 15.8538 9.91761C16.1777 9.91761 16.4604 9.97301 16.7018 10.0838C16.9447 10.1946 17.1337 10.3487 17.2686 10.5462C17.4035 10.7436 17.4731 10.9723 17.4774 11.2322H16.5932Z"/>
</mask>
<path d="M7.96817 11.2322C7.95113 11.0604 7.87797 10.9268 7.74871 10.8317C7.61945 10.7365 7.44403 10.6889 7.22243 10.6889C7.07187 10.6889 6.94474 10.7102 6.84104 10.7528C6.73735 10.794 6.6578 10.8516 6.60241 10.9254C6.54843 10.9993 6.52144 11.0831 6.52144 11.1768C6.5186 11.255 6.53493 11.3232 6.57045 11.3814C6.60738 11.4396 6.6578 11.4901 6.72172 11.5327C6.78564 11.5739 6.85951 11.6101 6.94331 11.6413C7.02712 11.6712 7.11661 11.6967 7.21178 11.718L7.60383 11.8118C7.79417 11.8544 7.96888 11.9112 8.12797 11.9822C8.28707 12.0533 8.42485 12.1406 8.54133 12.2443C8.6578 12.348 8.748 12.4702 8.81192 12.6108C8.87726 12.7514 8.91064 12.9126 8.91206 13.0945C8.91064 13.3615 8.84246 13.593 8.70752 13.7891C8.574 13.9837 8.38082 14.1349 8.12797 14.2429C7.87655 14.3494 7.57329 14.4027 7.21817 14.4027C6.8659 14.4027 6.55908 14.3487 6.29772 14.2408C6.03778 14.1328 5.83465 13.973 5.68834 13.7614C5.54346 13.5483 5.46746 13.2848 5.46036 12.9709H6.35312C6.36306 13.1172 6.40496 13.2393 6.47883 13.3374C6.55411 13.4339 6.65425 13.5071 6.77925 13.5568C6.90567 13.6051 7.04843 13.6293 7.20752 13.6293C7.36377 13.6293 7.49942 13.6065 7.61448 13.5611C7.73096 13.5156 7.82116 13.4524 7.88508 13.3714C7.949 13.2905 7.98096 13.1974 7.98096 13.0923C7.98096 12.9943 7.95184 12.9119 7.8936 12.8452C7.83678 12.7784 7.75297 12.7216 7.64218 12.6747C7.5328 12.6278 7.39857 12.5852 7.23948 12.5469L6.76434 12.4276C6.39644 12.3381 6.10596 12.1982 5.89289 12.0078C5.67982 11.8175 5.574 11.5611 5.57542 11.2386C5.574 10.9744 5.64431 10.7436 5.78635 10.5462C5.92982 10.3487 6.12655 10.1946 6.37655 10.0838C6.62655 9.97301 6.91064 9.91761 7.22883 9.91761C7.55269 9.91761 7.83536 9.97301 8.07684 10.0838C8.31974 10.1946 8.50866 10.3487 8.6436 10.5462C8.77854 10.7436 8.84814 10.9723 8.85241 11.2322H7.96817ZM13.5426 12.1591C13.5426 12.6349 13.4524 13.0398 13.272 13.3736C13.093 13.7074 12.8487 13.9624 12.539 14.1385C12.2308 14.3132 11.8842 14.4006 11.4992 14.4006C11.1115 14.4006 10.7634 14.3125 10.4552 14.1364C10.147 13.9602 9.90336 13.7053 9.72439 13.3714C9.54541 13.0376 9.45592 12.6335 9.45592 12.1591C9.45592 11.6832 9.54541 11.2784 9.72439 10.9446C9.90336 10.6108 10.147 10.3565 10.4552 10.1818C10.7634 10.0057 11.1115 9.91761 11.4992 9.91761C11.8842 9.91761 12.2308 10.0057 12.539 10.1818C12.8487 10.3565 13.093 10.6108 13.272 10.9446C13.4524 11.2784 13.5426 11.6832 13.5426 12.1591ZM12.6072 12.1591C12.6072 11.8509 12.561 11.5909 12.4687 11.3793C12.3778 11.1676 12.2492 11.0071 12.0831 10.8977C11.9169 10.7884 11.7223 10.7337 11.4992 10.7337C11.2762 10.7337 11.0816 10.7884 10.9154 10.8977C10.7492 11.0071 10.62 11.1676 10.5277 11.3793C10.4367 11.5909 10.3913 11.8509 10.3913 12.1591C10.3913 12.4673 10.4367 12.7273 10.5277 12.9389C10.62 13.1506 10.7492 13.3111 10.9154 13.4205C11.0816 13.5298 11.2762 13.5845 11.4992 13.5845C11.7223 13.5845 11.9169 13.5298 12.0831 13.4205C12.2492 13.3111 12.3778 13.1506 12.4687 12.9389C12.561 12.7273 12.6072 12.4673 12.6072 12.1591ZM16.5932 11.2322C16.5761 11.0604 16.503 10.9268 16.3737 10.8317C16.2445 10.7365 16.069 10.6889 15.8474 10.6889C15.6969 10.6889 15.5697 10.7102 15.466 10.7528C15.3623 10.794 15.2828 10.8516 15.2274 10.9254C15.1734 10.9993 15.1464 11.0831 15.1464 11.1768C15.1436 11.255 15.1599 11.3232 15.1954 11.3814C15.2324 11.4396 15.2828 11.4901 15.3467 11.5327C15.4106 11.5739 15.4845 11.6101 15.5683 11.6413C15.6521 11.6712 15.7416 11.6967 15.8368 11.718L16.2288 11.8118C16.4192 11.8544 16.5939 11.9112 16.753 11.9822C16.9121 12.0533 17.0498 12.1406 17.1663 12.2443C17.2828 12.348 17.373 12.4702 17.4369 12.6108C17.5023 12.7514 17.5356 12.9126 17.5371 13.0945C17.5356 13.3615 17.4675 13.593 17.3325 13.7891C17.199 13.9837 17.0058 14.1349 16.753 14.2429C16.5016 14.3494 16.1983 14.4027 15.8432 14.4027C15.4909 14.4027 15.1841 14.3487 14.9227 14.2408C14.6628 14.1328 14.4596 13.973 14.3133 13.7614C14.1685 13.5483 14.0925 13.2848 14.0854 12.9709H14.9781C14.9881 13.1172 15.03 13.2393 15.1038 13.3374C15.1791 13.4339 15.2793 13.5071 15.4043 13.5568C15.5307 13.6051 15.6734 13.6293 15.8325 13.6293C15.9888 13.6293 16.1244 13.6065 16.2395 13.5611C16.356 13.5156 16.4462 13.4524 16.5101 13.3714C16.574 13.2905 16.606 13.1974 16.606 13.0923C16.606 12.9943 16.5768 12.9119 16.5186 12.8452C16.4618 12.7784 16.378 12.7216 16.2672 12.6747C16.1578 12.6278 16.0236 12.5852 15.8645 12.5469L15.3893 12.4276C15.0214 12.3381 14.731 12.1982 14.5179 12.0078C14.3048 11.8175 14.199 11.5611 14.2004 11.2386C14.199 10.9744 14.2693 10.7436 14.4114 10.5462C14.5548 10.3487 14.7516 10.1946 15.0016 10.0838C15.2516 9.97301 15.5356 9.91761 15.8538 9.91761C16.1777 9.91761 16.4604 9.97301 16.7018 10.0838C16.9447 10.1946 17.1337 10.3487 17.2686 10.5462C17.4035 10.7436 17.4731 10.9723 17.4774 11.2322H16.5932Z" fill="#3C4F5D"/>
<path d="M7.96817 11.2322L6.97305 11.3309L7.06244 12.2322H7.96817V11.2322ZM6.84104 10.7528L7.21026 11.6823L7.22116 11.6778L6.84104 10.7528ZM6.60241 10.9254L5.80234 10.3254L5.79501 10.3354L6.60241 10.9254ZM6.52144 11.1768L7.52078 11.2132L7.52144 11.195V11.1768H6.52144ZM6.57045 11.3814L5.71665 11.902L5.72123 11.9095L5.72594 11.9169L6.57045 11.3814ZM6.72172 11.5327L6.16702 12.3647L6.17349 12.369L6.18002 12.3732L6.72172 11.5327ZM6.94332 11.6413L6.59393 12.5783L6.60094 12.5809L6.60799 12.5834L6.94332 11.6413ZM7.21178 11.718L7.44435 10.7455L7.43732 10.7438L7.43025 10.7422L7.21178 11.718ZM7.60383 11.8118L7.37125 12.7844L7.37829 12.7861L7.38535 12.7876L7.60383 11.8118ZM8.12797 11.9822L7.72032 12.8954H7.72032L8.12797 11.9822ZM8.54133 12.2443L9.20626 11.4974L9.20626 11.4974L8.54133 12.2443ZM8.81192 12.6108L7.90153 13.0246L7.90504 13.0322L8.81192 12.6108ZM8.91207 13.0945L9.91214 13.0998L9.91203 13.0866L8.91207 13.0945ZM8.70752 13.7891L7.88383 13.222L7.88295 13.2233L8.70752 13.7891ZM8.12797 14.2429L8.51812 15.1637L8.52065 15.1626L8.12797 14.2429ZM6.29772 14.2408L5.91418 15.1643L5.91596 15.165L6.29772 14.2408ZM5.68834 13.7614L4.86139 14.3237L4.86575 14.33L5.68834 13.7614ZM5.46036 12.9709V11.9709H4.43748L4.46062 12.9935L5.46036 12.9709ZM6.35312 12.9709L7.35081 12.9031L7.28746 11.9709H6.35312V12.9709ZM6.47883 13.3374L5.68022 13.9392L5.68511 13.9457L5.6901 13.9521L6.47883 13.3374ZM6.77925 13.5568L6.40965 14.4861L6.42238 14.491L6.77925 13.5568ZM7.61448 13.5611L7.25093 12.6295L7.24705 12.631L7.61448 13.5611ZM7.88508 13.3714L8.66996 13.9911L8.66996 13.9911L7.88508 13.3714ZM7.8936 12.8452L7.132 13.4933L7.14003 13.5025L7.8936 12.8452ZM7.64218 12.6747L7.24826 13.5939L7.25254 13.5957L7.64218 12.6747ZM7.23948 12.5469L6.99591 13.5168L7.00512 13.519L7.23948 12.5469ZM6.76434 12.4276L7.0079 11.4576L7.00069 11.4559L6.76434 12.4276ZM5.89289 12.0078L5.22668 12.7536H5.22668L5.89289 12.0078ZM5.57542 11.2386L6.57546 11.243L6.5754 11.2333L5.57542 11.2386ZM5.78635 10.5462L4.97736 9.95833L4.9746 9.96217L5.78635 10.5462ZM8.07684 10.0838L7.65981 10.9927L7.66183 10.9936L8.07684 10.0838ZM8.6436 10.5462L7.818 11.1104L7.818 11.1104L8.6436 10.5462ZM8.85241 11.2322V12.2322H9.86893L9.85227 11.2159L8.85241 11.2322ZM8.96329 11.1336C8.92068 10.7039 8.71776 10.3033 8.34161 10.0264L7.15582 11.637C7.10974 11.603 7.06066 11.5515 7.02352 11.4837C6.9873 11.4176 6.97603 11.361 6.97305 11.3309L8.96329 11.1336ZM8.34161 10.0264C7.98604 9.7646 7.57793 9.68892 7.22243 9.68892V11.6889C7.26337 11.6889 7.27226 11.6935 7.2584 11.6897C7.24249 11.6854 7.20301 11.6717 7.15582 11.637L8.34161 10.0264ZM7.22243 9.68892C6.98363 9.68892 6.71889 9.72189 6.46093 9.8279L7.22116 11.6778C7.19453 11.6887 7.17883 11.6912 7.17945 11.6911C7.18021 11.691 7.19357 11.6889 7.22243 11.6889V9.68892ZM6.47185 9.82349C6.23279 9.91846 5.98938 10.0761 5.80241 10.3254L7.40241 11.5254C7.32623 11.627 7.24191 11.6696 7.21024 11.6822L6.47185 9.82349ZM5.79501 10.3354C5.6126 10.585 5.52144 10.8766 5.52144 11.1768H7.52144C7.52144 11.2273 7.51395 11.2868 7.49354 11.3502C7.47305 11.4138 7.4433 11.4696 7.4098 11.5154L5.79501 10.3354ZM5.5221 11.1405C5.51321 11.3851 5.56476 11.6529 5.71665 11.902L7.42424 10.8608C7.50511 10.9934 7.52399 11.1248 7.52078 11.2132L5.5221 11.1405ZM5.72594 11.9169C5.84581 12.106 6.00015 12.2535 6.16702 12.3647L7.27642 10.7006C7.31545 10.7266 7.36894 10.7733 7.41495 10.8458L5.72594 11.9169ZM6.18002 12.3732C6.31387 12.4595 6.45419 12.5262 6.59393 12.5783L7.2927 10.7044C7.26482 10.694 7.25742 10.6882 7.26342 10.6921L6.18002 12.3732ZM6.60799 12.5834C6.73347 12.6281 6.86227 12.6645 6.99331 12.6939L7.43025 10.7422C7.37095 10.7289 7.32077 10.7142 7.27864 10.6992L6.60799 12.5834ZM6.97921 12.6906L7.37125 12.7844L7.8364 10.8392L7.44435 10.7455L6.97921 12.6906ZM7.38535 12.7876C7.5183 12.8174 7.62876 12.8545 7.72032 12.8954L8.53562 11.0691C8.309 10.9679 8.07004 10.8914 7.8223 10.8359L7.38535 12.7876ZM7.72032 12.8954C7.79649 12.9294 7.84504 12.9633 7.8764 12.9912L9.20626 11.4974C9.00466 11.3179 8.77764 11.1771 8.53562 11.0691L7.72032 12.8954ZM7.8764 12.9912C7.88976 13.0031 7.8959 13.0121 7.90156 13.0246L9.72229 12.197C9.60011 11.9282 9.42585 11.6929 9.20626 11.4974L7.8764 12.9912ZM7.90504 13.0322C7.90064 13.0227 7.9116 13.0389 7.9121 13.1023L9.91203 13.0866C9.90969 12.7863 9.85388 12.4801 9.71881 12.1894L7.90504 13.0322ZM7.91208 13.0891C7.91159 13.1809 7.89135 13.2111 7.88383 13.222L9.53121 14.3561C9.79357 13.975 9.9097 13.5421 9.91205 13.0998L7.91208 13.0891ZM7.88295 13.2233C7.8736 13.2369 7.84285 13.2773 7.7353 13.3232L8.52065 15.1626C8.91878 14.9926 9.27439 14.7304 9.53209 14.3548L7.88295 13.2233ZM7.73782 13.3221C7.64089 13.3632 7.47768 13.4027 7.21817 13.4027V15.4027C7.66889 15.4027 8.11222 15.3356 8.51812 15.1636L7.73782 13.3221ZM7.21817 13.4027C6.96577 13.4027 6.794 13.3638 6.67948 13.3165L5.91596 15.165C6.32416 15.3336 6.76603 15.4027 7.21817 15.4027V13.4027ZM6.68126 13.3172C6.58139 13.2758 6.53781 13.2316 6.51093 13.1927L4.86575 14.33C5.13149 14.7144 5.49416 14.9899 5.91418 15.1643L6.68126 13.3172ZM6.51527 13.1991C6.50046 13.1773 6.46381 13.1118 6.4601 12.9483L4.46062 12.9935C4.47112 13.4578 4.58646 13.9193 4.86142 14.3237L6.51527 13.1991ZM5.46036 13.9709H6.35312V11.9709H5.46036V13.9709ZM5.35542 13.0387C5.37592 13.3403 5.46848 13.6582 5.68022 13.9392L7.27744 12.7355C7.30715 12.7749 7.32647 12.8144 7.3379 12.8478C7.34893 12.8799 7.35063 12.9004 7.35081 12.9031L5.35542 13.0387ZM5.6901 13.9521C5.88523 14.2025 6.13623 14.3773 6.40968 14.486L7.14882 12.6276C7.15802 12.6313 7.17684 12.6401 7.20027 12.6572C7.22414 12.6746 7.24745 12.6968 7.26755 12.7226L5.6901 13.9521ZM6.42238 14.491C6.68085 14.5897 6.94745 14.6293 7.20752 14.6293V12.6293C7.1494 12.6293 7.1305 12.6205 7.13612 12.6227L6.42238 14.491ZM7.20752 14.6293C7.45778 14.6293 7.72356 14.5932 7.98191 14.4911L7.24705 12.631C7.26155 12.6253 7.26744 12.6249 7.26121 12.626C7.25475 12.627 7.23759 12.6293 7.20752 12.6293V14.6293ZM7.97802 14.4927C8.22508 14.3962 8.47461 14.2385 8.66996 13.9911L7.10019 12.7518C7.1677 12.6663 7.23684 12.635 7.25094 12.6295L7.97802 14.4927ZM8.66996 13.9911C8.87605 13.73 8.98096 13.4177 8.98096 13.0923H6.98096C6.98096 13.0419 6.98891 12.981 7.01123 12.9161C7.03363 12.8509 7.06572 12.7955 7.10019 12.7518L8.66996 13.9911ZM8.98096 13.0923C8.98096 12.7802 8.88156 12.4565 8.64717 12.1878L7.14003 13.5025C7.08735 13.4421 7.04438 13.3698 7.01628 13.2903C6.9887 13.2123 6.98096 13.1432 6.98096 13.0923H8.98096ZM8.65514 12.1971C8.46689 11.9759 8.23556 11.8399 8.03182 11.7537L7.25254 13.5957C7.27039 13.6032 7.20667 13.581 7.13206 13.4933L8.65514 12.1971ZM8.0361 11.7556C7.86002 11.6801 7.6688 11.6217 7.47384 11.5747L7.00512 13.519C7.12834 13.5487 7.20559 13.5756 7.24826 13.5939L8.0361 11.7556ZM7.48304 11.577L7.0079 11.4577L6.52078 13.3974L6.99592 13.5168L7.48304 11.577ZM7.00069 11.4559C6.74247 11.3931 6.61627 11.3131 6.5591 11.2621L5.22668 12.7536C5.59565 13.0832 6.05041 13.2831 6.52799 13.3992L7.00069 11.4559ZM6.5591 11.2621C6.55875 11.2617 6.56225 11.2649 6.5671 11.2717C6.57202 11.2786 6.57576 11.2856 6.57808 11.2912C6.58031 11.2966 6.57977 11.2972 6.57858 11.2906C6.57734 11.2837 6.5753 11.2684 6.57541 11.243L4.57543 11.2342C4.57293 11.802 4.77133 12.3468 5.22668 12.7536L6.5591 11.2621ZM6.5754 11.2333C6.57502 11.1612 6.59032 11.141 6.59811 11.1302L4.9746 9.96217C4.6983 10.3462 4.57298 10.7876 4.57543 11.244L6.5754 11.2333ZM6.59534 11.134C6.62326 11.0956 6.67291 11.0463 6.78173 10.998L5.97138 9.16957C5.5802 9.34293 5.23639 9.60187 4.97737 9.95834L6.59534 11.134ZM6.78173 10.998C6.88495 10.9523 7.02758 10.9176 7.22883 10.9176V8.91761C6.79371 8.91761 6.36816 8.99372 5.97138 9.16957L6.78173 10.998ZM7.22883 10.9176C7.43961 10.9176 7.57459 10.9536 7.65981 10.9927L8.49386 9.17491C8.09613 8.99242 7.66577 8.91761 7.22883 8.91761V10.9176ZM7.66183 10.9936C7.75875 11.0378 7.79751 11.0804 7.818 11.1104L9.4692 9.98191C9.2198 9.617 8.88072 9.35137 8.49184 9.17399L7.66183 10.9936ZM7.818 11.1104C7.83285 11.1321 7.8512 11.1666 7.85254 11.2486L9.85227 11.2159C9.84509 10.778 9.72424 10.3551 9.4692 9.98191L7.818 11.1104ZM8.85241 10.2322H7.96817V12.2322H8.85241V10.2322ZM13.272 13.3736L12.3922 12.8981L12.3907 12.901L13.272 13.3736ZM12.539 14.1385L13.0321 15.0085L13.0334 15.0077L12.539 14.1385ZM10.4552 14.1364L10.9514 13.2681L10.4552 14.1364ZM9.72439 13.3714L8.84307 13.844L9.72439 13.3714ZM9.72439 10.9446L10.6057 11.4171V11.4171L9.72439 10.9446ZM10.4552 10.1818L10.9483 11.0518L10.9514 11.0501L10.4552 10.1818ZM12.539 10.1818L12.0429 11.0501L12.0476 11.0528L12.539 10.1818ZM13.272 10.9446L12.3907 11.4171L12.3922 11.42L13.272 10.9446ZM12.4687 11.3793L11.5499 11.7739L11.5521 11.7791L12.4687 11.3793ZM12.0831 10.8977L11.5333 11.7331L11.5333 11.7331L12.0831 10.8977ZM10.9154 10.8977L11.4652 11.7331L11.4652 11.7331L10.9154 10.8977ZM10.5277 11.3793L9.61106 10.9794L9.60883 10.9846L10.5277 11.3793ZM10.5277 12.9389L9.60881 13.3336L9.61107 13.3388L10.5277 12.9389ZM10.9154 13.4205L11.4652 12.5851H11.4652L10.9154 13.4205ZM12.0831 13.4205L11.5333 12.5851H11.5333L12.0831 13.4205ZM12.4687 12.9389L11.5521 12.5391L11.5499 12.5443L12.4687 12.9389ZM12.5426 12.1591C12.5426 12.5103 12.4761 12.7429 12.3922 12.8981L14.1517 13.849C14.4286 13.3366 14.5426 12.7595 14.5426 12.1591H12.5426ZM12.3907 12.901C12.2948 13.0798 12.18 13.1922 12.0446 13.2693L13.0334 15.0077C13.5173 14.7325 13.8912 14.335 14.1533 13.8461L12.3907 12.901ZM12.0459 13.2685C11.9009 13.3507 11.7267 13.4006 11.4992 13.4006V15.4006C12.0417 15.4006 12.5607 15.2757 13.0321 15.0085L12.0459 13.2685ZM11.4992 13.4006C11.269 13.4006 11.0948 13.3501 10.9514 13.2681L9.95907 15.0046C10.4321 15.2749 10.954 15.4006 11.4992 15.4006V13.4006ZM10.9514 13.2681C10.8171 13.1914 10.7022 13.0788 10.6057 12.8989L8.84307 13.844C9.10456 14.3317 9.47683 14.729 9.95907 15.0046L10.9514 13.2681ZM10.6057 12.8989C10.5219 12.7426 10.4559 12.5095 10.4559 12.1591H8.45592C8.45592 12.7575 8.56892 13.3327 8.84307 13.844L10.6057 12.8989ZM10.4559 12.1591C10.4559 11.8067 10.5221 11.573 10.6057 11.4171L8.84307 10.4721C8.56871 10.9838 8.45592 11.5598 8.45592 12.1591H10.4559ZM10.6057 11.4171C10.7018 11.2378 10.8159 11.1269 10.9483 11.0518L9.9621 9.31185C9.47807 9.58621 9.10489 9.98377 8.84307 10.4721L10.6057 11.4171ZM10.9514 11.0501C11.0948 10.9681 11.269 10.9176 11.4992 10.9176V8.91761C10.954 8.91761 10.4321 9.04325 9.95907 9.31357L10.9514 11.0501ZM11.4992 10.9176C11.7253 10.9176 11.8983 10.9675 12.0429 11.0501L13.0352 9.31357C12.5632 9.04389 12.0431 8.91761 11.4992 8.91761V10.9176ZM12.0476 11.0528C12.1813 11.1282 12.2951 11.239 12.3907 11.4171L14.1533 10.4721C13.8908 9.98259 13.5161 9.58492 13.0304 9.31088L12.0476 11.0528ZM12.3922 11.42C12.4761 11.5753 12.5426 11.8078 12.5426 12.1591H14.5426C14.5426 11.5586 14.4286 10.9816 14.1517 10.4692L12.3922 11.42ZM13.6072 12.1591C13.6072 11.7569 13.5478 11.3518 13.3853 10.9794L11.5521 11.7791C11.5743 11.83 11.6072 11.9448 11.6072 12.1591H13.6072ZM13.3875 10.9846C13.2319 10.6222 12.9871 10.2955 12.6328 10.0624L11.5333 11.7331C11.5303 11.7311 11.5275 11.7289 11.5253 11.7269C11.5232 11.7249 11.5226 11.7241 11.5236 11.7253C11.5253 11.7274 11.5357 11.741 11.5499 11.7739L13.3875 10.9846ZM12.6328 10.0624C12.2841 9.83291 11.8932 9.73366 11.4992 9.73366V11.7337C11.5286 11.7337 11.5412 11.7372 11.5419 11.7374C11.5425 11.7375 11.5414 11.7373 11.5391 11.7363C11.5369 11.7352 11.5348 11.7341 11.5333 11.7331L12.6328 10.0624ZM11.4992 9.73366C11.1053 9.73366 10.7144 9.83291 10.3657 10.0624L11.4652 11.7331C11.4636 11.7341 11.4616 11.7352 11.4593 11.7363C11.4571 11.7373 11.456 11.7375 11.4566 11.7374C11.4573 11.7372 11.4699 11.7337 11.4992 11.7337V9.73366ZM10.3657 10.0624C10.0129 10.2946 9.76817 10.6193 9.61107 10.9794L11.4442 11.7791C11.459 11.7452 11.4701 11.7305 11.4727 11.7274C11.4746 11.725 11.4719 11.7287 11.4652 11.7331L10.3657 10.0624ZM9.60883 10.9846C9.44954 11.3554 9.39129 11.7586 9.39129 12.1591H11.3913C11.3913 11.9432 11.4239 11.8264 11.4465 11.7739L9.60883 10.9846ZM9.39129 12.1591C9.39129 12.5596 9.44954 12.9628 9.60883 13.3336L11.4465 12.5443C11.4239 12.4918 11.3913 12.375 11.3913 12.1591H9.39129ZM9.61107 13.3388C9.76817 13.6989 10.0129 14.0236 10.3657 14.2558L11.4652 12.5851C11.4719 12.5895 11.4746 12.5932 11.4727 12.5908C11.4701 12.5876 11.459 12.573 11.4442 12.5391L9.61107 13.3388ZM10.3657 14.2558C10.7144 14.4853 11.1053 14.5845 11.4992 14.5845V12.5845C11.4699 12.5845 11.4573 12.581 11.4566 12.5808C11.456 12.5806 11.4571 12.5809 11.4593 12.5819C11.4616 12.5829 11.4636 12.5841 11.4652 12.5851L10.3657 14.2558ZM11.4992 14.5845C11.8932 14.5845 12.2841 14.4853 12.6328 14.2558L11.5333 12.5851C11.5348 12.5841 11.5369 12.5829 11.5391 12.5819C11.5414 12.5809 11.5425 12.5806 11.5419 12.5808C11.5412 12.581 11.5286 12.5845 11.4992 12.5845V14.5845ZM12.6328 14.2558C12.9871 14.0226 13.2319 13.696 13.3875 13.3336L11.5499 12.5443C11.5357 12.5772 11.5253 12.5908 11.5236 12.5929C11.5226 12.5941 11.5232 12.5933 11.5253 12.5913C11.5275 12.5893 11.5303 12.5871 11.5333 12.5851L12.6328 14.2558ZM13.3853 13.3388C13.5478 12.9663 13.6072 12.5613 13.6072 12.1591H11.6072C11.6072 12.3734 11.5743 12.4882 11.5521 12.5391L13.3853 13.3388ZM16.5932 11.2322L15.5981 11.3309L15.6874 12.2322H16.5932V11.2322ZM15.466 10.7528L15.8353 11.6823L15.8462 11.6778L15.466 10.7528ZM15.2274 10.9254L14.4273 10.3254L14.42 10.3354L15.2274 10.9254ZM15.1464 11.1768L16.1458 11.2132L16.1464 11.195V11.1768H15.1464ZM15.1954 11.3814L14.3416 11.902L14.3462 11.9095L14.3509 11.9169L15.1954 11.3814ZM15.3467 11.5327L14.792 12.3647L14.7985 12.369L14.805 12.3732L15.3467 11.5327ZM15.5683 11.6413L15.2189 12.5783L15.2259 12.5809L15.233 12.5834L15.5683 11.6413ZM15.8368 11.718L16.0694 10.7455L16.0623 10.7438L16.0553 10.7422L15.8368 11.718ZM16.2288 11.8118L15.9963 12.7844L16.0033 12.7861L16.0104 12.7876L16.2288 11.8118ZM16.753 11.9822L16.3453 12.8954L16.753 11.9822ZM17.1663 12.2443L17.8313 11.4974V11.4974L17.1663 12.2443ZM17.4369 12.6108L16.5265 13.0246L16.53 13.0322L17.4369 12.6108ZM17.5371 13.0945L18.5371 13.0998L18.537 13.0866L17.5371 13.0945ZM17.3325 13.7891L16.5088 13.222L16.508 13.2233L17.3325 13.7891ZM16.753 14.2429L17.1431 15.1637L17.1456 15.1626L16.753 14.2429ZM14.9227 14.2408L14.5392 15.1643L14.541 15.165L14.9227 14.2408ZM14.3133 13.7614L13.4864 14.3237L13.4908 14.33L14.3133 13.7614ZM14.0854 12.9709V11.9709H13.0625L13.0856 12.9935L14.0854 12.9709ZM14.9781 12.9709L15.9758 12.9031L15.9125 11.9709H14.9781V12.9709ZM15.1038 13.3374L14.3052 13.9392L14.3101 13.9457L14.3151 13.9521L15.1038 13.3374ZM15.4043 13.5568L15.0346 14.4861L15.0474 14.491L15.4043 13.5568ZM16.2395 13.5611L15.8759 12.6295L15.8721 12.631L16.2395 13.5611ZM16.5101 13.3714L17.295 13.9911V13.9911L16.5101 13.3714ZM16.5186 12.8452L15.757 13.4933L15.765 13.5025L16.5186 12.8452ZM16.2672 12.6747L15.8733 13.5939L15.8775 13.5957L16.2672 12.6747ZM15.8645 12.5469L15.6209 13.5168L15.6301 13.519L15.8645 12.5469ZM15.3893 12.4276L15.6329 11.4576L15.6257 11.4559L15.3893 12.4276ZM14.5179 12.0078L13.8517 12.7536L14.5179 12.0078ZM14.2004 11.2386L15.2005 11.243L15.2004 11.2333L14.2004 11.2386ZM14.4114 10.5462L13.6024 9.95833L13.5996 9.96217L14.4114 10.5462ZM16.7018 10.0838L16.2848 10.9927L16.2868 10.9936L16.7018 10.0838ZM17.2686 10.5462L16.443 11.1104L16.443 11.1104L17.2686 10.5462ZM17.4774 11.2322V12.2322H18.4939L18.4773 11.2159L17.4774 11.2322ZM17.5883 11.1336C17.5457 10.7039 17.3428 10.3033 16.9666 10.0264L15.7808 11.637C15.7347 11.603 15.6857 11.5515 15.6485 11.4837C15.6123 11.4176 15.601 11.361 15.5981 11.3309L17.5883 11.1336ZM16.9666 10.0264C16.611 9.7646 16.2029 9.68892 15.8474 9.68892V11.6889C15.8884 11.6889 15.8973 11.6935 15.8834 11.6897C15.8675 11.6854 15.828 11.6717 15.7808 11.637L16.9666 10.0264ZM15.8474 9.68892C15.6086 9.68892 15.3439 9.72189 15.0859 9.8279L15.8462 11.6778C15.8195 11.6887 15.8038 11.6912 15.8045 11.6911C15.8052 11.691 15.8186 11.6889 15.8474 11.6889V9.68892ZM15.0968 9.82349C14.8578 9.91846 14.6144 10.0761 14.4274 10.3254L16.0274 11.5254C15.9512 11.627 15.8669 11.6696 15.8352 11.6822L15.0968 9.82349ZM14.42 10.3354C14.2376 10.585 14.1464 10.8766 14.1464 11.1768H16.1464C16.1464 11.2273 16.139 11.2868 16.1185 11.3502C16.0981 11.4138 16.0683 11.4696 16.0348 11.5154L14.42 10.3354ZM14.1471 11.1405C14.1382 11.3851 14.1898 11.6529 14.3416 11.902L16.0492 10.8608C16.1301 10.9934 16.149 11.1248 16.1458 11.2132L14.1471 11.1405ZM14.3509 11.9169C14.4708 12.106 14.6252 12.2535 14.792 12.3647L15.9014 10.7006C15.9405 10.7266 15.9939 10.7733 16.04 10.8458L14.3509 11.9169ZM14.805 12.3732C14.9389 12.4595 15.0792 12.5262 15.2189 12.5783L15.9177 10.7044C15.8898 10.694 15.8824 10.6882 15.8884 10.6921L14.805 12.3732ZM15.233 12.5834C15.3585 12.6281 15.4873 12.6645 15.6183 12.6939L16.0553 10.7422C15.9959 10.7289 15.9458 10.7142 15.9036 10.6992L15.233 12.5834ZM15.6042 12.6906L15.9963 12.7844L16.4614 10.8392L16.0694 10.7455L15.6042 12.6906ZM16.0104 12.7876C16.1433 12.8174 16.2538 12.8545 16.3453 12.8954L17.1606 11.0691C16.934 10.9679 16.695 10.8914 16.4473 10.8359L16.0104 12.7876ZM16.3453 12.8954C16.4215 12.9294 16.47 12.9633 16.5014 12.9912L17.8313 11.4974C17.6297 11.3179 17.4026 11.1771 17.1606 11.0691L16.3453 12.8954ZM16.5014 12.9912C16.5148 13.0031 16.5209 13.0121 16.5266 13.0246L18.3473 12.197C18.2251 11.9282 18.0508 11.6929 17.8313 11.4974L16.5014 12.9912ZM16.53 13.0322C16.5256 13.0227 16.5366 13.0389 16.5371 13.1023L18.537 13.0866C18.5347 12.7863 18.4789 12.4801 18.3438 12.1894L16.53 13.0322ZM16.5371 13.0891C16.5366 13.1809 16.5164 13.2111 16.5088 13.222L18.1562 14.3561C18.4186 13.975 18.5347 13.5421 18.5371 13.0998L16.5371 13.0891ZM16.508 13.2233C16.4986 13.2369 16.4678 13.2773 16.3603 13.3232L17.1456 15.1626C17.5438 14.9926 17.8994 14.7304 18.1571 14.3548L16.508 13.2233ZM16.3628 13.3221C16.2659 13.3632 16.1027 13.4027 15.8432 13.4027V15.4027C16.2939 15.4027 16.7372 15.3356 17.1431 15.1636L16.3628 13.3221ZM15.8432 13.4027C15.5908 13.4027 15.419 13.3638 15.3045 13.3165L14.541 15.165C14.9492 15.3336 15.391 15.4027 15.8432 15.4027V13.4027ZM15.3063 13.3172C15.2064 13.2758 15.1628 13.2316 15.1359 13.1927L13.4908 14.33C13.7565 14.7144 14.1192 14.9899 14.5392 15.1643L15.3063 13.3172ZM15.1403 13.1991C15.1255 13.1773 15.0888 13.1118 15.0851 12.9483L13.0856 12.9935C13.0961 13.4578 13.2115 13.9193 13.4864 14.3237L15.1403 13.1991ZM14.0854 13.9709H14.9781V11.9709H14.0854V13.9709ZM13.9804 13.0387C14.0009 13.3403 14.0935 13.6582 14.3052 13.9392L15.9024 12.7355C15.9322 12.7749 15.9515 12.8144 15.9629 12.8478C15.9739 12.8799 15.9756 12.9004 15.9758 12.9031L13.9804 13.0387ZM14.3151 13.9521C14.5102 14.2025 14.7612 14.3773 15.0347 14.486L15.7738 12.6276C15.783 12.6313 15.8018 12.6401 15.8253 12.6572C15.8491 12.6746 15.8724 12.6968 15.8926 12.7226L14.3151 13.9521ZM15.0474 14.491C15.3058 14.5897 15.5725 14.6293 15.8325 14.6293V12.6293C15.7744 12.6293 15.7555 12.6205 15.7611 12.6227L15.0474 14.491ZM15.8325 14.6293C16.0828 14.6293 16.3486 14.5932 16.6069 14.4911L15.8721 12.631C15.8865 12.6253 15.8924 12.6249 15.8862 12.626C15.8798 12.627 15.8626 12.6293 15.8325 12.6293V14.6293ZM16.603 14.4927C16.8501 14.3962 17.0996 14.2385 17.295 13.9911L15.7252 12.7518C15.7927 12.6663 15.8618 12.635 15.8759 12.6295L16.603 14.4927ZM17.295 13.9911C17.5011 13.73 17.606 13.4177 17.606 13.0923H15.606C15.606 13.0419 15.6139 12.981 15.6362 12.9161C15.6586 12.8509 15.6907 12.7955 15.7252 12.7518L17.295 13.9911ZM17.606 13.0923C17.606 12.7802 17.5066 12.4565 17.2722 12.1878L15.765 13.5025C15.7123 13.4421 15.6694 13.3698 15.6413 13.2903C15.6137 13.2123 15.606 13.1432 15.606 13.0923H17.606ZM17.2801 12.1971C17.0919 11.9759 16.8606 11.8399 16.6568 11.7537L15.8775 13.5957C15.8954 13.6032 15.8317 13.581 15.7571 13.4933L17.2801 12.1971ZM16.6611 11.7556C16.485 11.6801 16.2938 11.6217 16.0988 11.5747L15.6301 13.519C15.7533 13.5487 15.8306 13.5756 15.8733 13.5939L16.6611 11.7556ZM16.108 11.577L15.6329 11.4577L15.1458 13.3974L15.6209 13.5168L16.108 11.577ZM15.6257 11.4559C15.3675 11.3931 15.2413 11.3131 15.1841 11.2621L13.8517 12.7536C14.2206 13.0832 14.6754 13.2831 15.153 13.3992L15.6257 11.4559ZM15.1841 11.2621C15.1837 11.2617 15.1873 11.2649 15.1921 11.2717C15.197 11.2786 15.2008 11.2856 15.2031 11.2912C15.2053 11.2966 15.2048 11.2972 15.2036 11.2906C15.2023 11.2837 15.2003 11.2684 15.2004 11.243L13.2004 11.2342C13.1979 11.802 13.3963 12.3468 13.8517 12.7536L15.1841 11.2621ZM15.2004 11.2333C15.2 11.1612 15.2153 11.141 15.2231 11.1302L13.5996 9.96217C13.3233 10.3462 13.198 10.7876 13.2004 11.244L15.2004 11.2333ZM15.2203 11.134C15.2483 11.0956 15.2979 11.0463 15.4067 10.998L14.5964 9.16957C14.2052 9.34293 13.8614 9.60187 13.6024 9.95834L15.2203 11.134ZM15.4067 10.998C15.51 10.9523 15.6526 10.9176 15.8538 10.9176V8.91761C15.4187 8.91761 14.9932 8.99372 14.5964 9.16957L15.4067 10.998ZM15.8538 10.9176C16.0646 10.9176 16.1996 10.9536 16.2848 10.9927L17.1189 9.17491C16.7211 8.99242 16.2908 8.91761 15.8538 8.91761V10.9176ZM16.2868 10.9936C16.3837 11.0378 16.4225 11.0804 16.443 11.1104L18.0942 9.98191C17.8448 9.617 17.5057 9.35137 17.1168 9.17399L16.2868 10.9936ZM16.443 11.1104C16.4578 11.1321 16.4762 11.1666 16.4775 11.2486L18.4773 11.2159C18.4701 10.778 18.3492 10.3551 18.0942 9.98191L16.443 11.1104ZM17.4774 10.2322H16.5932V12.2322H17.4774V10.2322Z" fill="#E8E8E8" mask="url(#path-3-outside-1_727_6283)"/>
</svg>
