<svg width="91" height="118" viewBox="0 0 91 118" fill="none" xmlns="http://www.w3.org/2000/svg">
<path d="M8.48621 52.8336C8.48621 30.048 26.9576 11.5767 49.7431 11.5767C72.5286 11.5767 91 30.048 91 52.8335V107.541C91 113.041 86.5412 117.5 81.041 117.5H18.4452C12.945 117.5 8.48621 113.041 8.48621 107.541V52.8336Z" fill="#C5C6C7"/>
<path d="M52.7399 14.4742C52.7399 16.2022 52.2653 17.4629 51.4289 17.4629C50.5924 17.4629 49.4849 15.2531 49.4849 13.5249C49.4849 11.7966 50.3889 11.3449 51.2254 11.3449C52.0618 11.3449 52.7399 12.746 52.7399 14.4742Z" fill="#1D2345"/>
<path d="M50.1045 14.1581C50.1045 14.1581 50.9829 14.2987 51.2414 15.9863C51.2414 15.9863 50.8795 12.8219 50.2079 12.7517" fill="#1D2345"/>
<path d="M66.1212 14.4742C66.1212 16.2022 66.596 17.4629 67.4322 17.4629C68.2686 17.4629 69.3761 15.2531 69.3761 13.5249C69.3761 11.7966 68.4721 11.3449 67.6357 11.3449C66.7992 11.3449 66.1212 12.746 66.1212 14.4742Z" fill="#29353C"/>
<path d="M68.7565 14.1581C68.7565 14.1581 67.8781 14.2987 67.6196 15.9863C67.6196 15.9863 67.9815 12.8219 68.6532 12.7517" fill="#29353C"/>
<path d="M64.0791 33.2031H54.9891V21.5726H64.0791V33.2031Z" fill="#29353C"/>
<mask id="mask0_789_7220" style="mask-type:luminance" maskUnits="userSpaceOnUse" x="54" y="21" width="10" height="13">
<path d="M63.5677 33.5918H54.4777V21.9613H63.5677V33.5918Z" fill="white"/>
</mask>
<g mask="url(#mask0_789_7220)">
<path d="M67.9272 12.7494C67.9272 19.545 64.3338 25.0537 59.9008 25.0537C55.4683 25.0537 51.8744 19.545 51.8744 12.7494C51.8744 5.95372 55.4683 0.444742 59.9008 0.444742C64.3338 0.444742 67.9272 5.95372 67.9272 12.7494Z" fill="#29353C"/>
</g>
<path d="M67.9176 12.7833C67.9176 17.0306 66.4818 20.9934 64.1718 22.8401C62.7858 23.948 60.7402 25.1016 59.385 25.1016C58.0299 25.1016 56.0763 24.0421 54.6903 22.9342C52.3805 21.0876 50.9437 17.0306 50.9437 12.7833C50.9437 5.98768 54.7433 3.11263 59.4307 3.11263C64.118 3.11263 67.9176 5.98768 67.9176 12.7833Z" fill="#27343A"/>
<path d="M56.592 5.12197C56.592 5.12197 57.0826 14.0597 67.6356 12.1029C71.5331 11.3801 74.3093 -1.58833 64.0795 0.791341C64.0795 0.791341 56.8073 1.82779 54.8743 2.20475C46.2867 3.87898 50.5478 12.8521 50.5478 12.8521C50.5478 12.8521 53.4919 5.80923 56.592 5.12197Z" fill="#29363C"/>
<path d="M58.9247 13.4173C58.9279 13.9909 58.8959 14.5603 58.8433 15.1271C58.8159 15.4104 58.7888 15.6937 58.7518 15.976C58.718 16.2585 58.6773 16.54 58.6341 16.8215L58.6154 16.7486C58.7259 16.9117 58.8601 17.0733 59.0086 17.2091C59.1563 17.3482 59.3295 17.4616 59.5372 17.4969C59.3251 17.5235 59.1114 17.4295 58.9311 17.3139C58.7491 17.1922 58.5934 17.0437 58.4516 16.8703L58.4294 16.8433L58.4329 16.7973C58.4548 16.5133 58.4795 16.2295 58.5108 15.9469C58.5392 15.6636 58.5774 15.3814 58.6149 15.0993C58.6928 14.5358 58.791 13.9743 58.9247 13.4173Z" fill="#A6B1C3"/>
<path d="M80.921 42.3442C80.921 35.6831 71.4233 30.2832 59.707 30.2832C47.991 30.2832 38.4933 35.6831 38.4933 42.3442L48.0626 76.5474L73.2846 76.3588L80.921 42.3442Z" fill="#29353C"/>
<path d="M48.615 74.4753L48.0627 76.5485C48.0627 76.5485 44.5648 87.1016 44.1965 94.074C43.8285 101.047 43.6152 117.244 43.6152 117.244H78.7079C78.7079 117.244 77.7032 98.0315 77.1509 92.5667C76.5986 87.1016 73.2847 76.3599 73.2847 76.3599L48.615 74.4753Z" fill="#29363C"/>
<path d="M52.8494 30.7541L55.0585 28.1159L64.448 27.7392L66.6571 30.9424L62.9749 35.6538L52.8494 30.7541Z" fill="#29353C"/>
<path d="M35.7978 19.9559C35.5943 21.6294 35.3131 23.2862 34.9644 24.9311C34.6111 26.5735 34.1891 28.2046 33.6139 29.7831C33.3248 30.5711 32.9923 31.345 32.5836 32.0772C32.385 32.4469 32.1487 32.7945 31.9003 33.1311C31.6386 33.4573 31.3515 33.7658 31.0274 34.0261C30.3873 34.5556 29.6576 34.9629 29.0802 35.559C28.7943 35.8564 28.563 36.2139 28.4431 36.6151C28.3202 37.0153 28.3049 37.4418 28.3385 37.8594C28.3 37.442 28.3096 37.0148 28.4283 36.6106C28.5437 36.2053 28.7734 35.8408 29.0578 35.5375C29.6332 34.9285 30.3599 34.5109 30.9884 33.9772C31.3073 33.7143 31.5846 33.4081 31.8396 33.0826C32.0811 32.7463 32.3108 32.4001 32.5031 32.0308C32.8993 31.2996 33.2202 30.5267 33.4979 29.7395C34.051 28.1624 34.4513 26.5326 34.7831 24.8915C35.1106 23.2501 35.3713 21.5907 35.5526 19.9286L35.7978 19.9559Z" fill="#AC54A2"/>
<path d="M35.6753 19.9422C35.6753 19.9422 34.9005 31.445 31.723 34.2213C28.5455 36.9979 27.3055 40.0123 32.1102 42.5508C36.9155 45.0895 38.6976 44.4548 40.4803 42.3129C42.2626 40.1708 38.4653 19.7044 38.4653 19.7044L35.6753 19.9422Z" fill="black"/>
<path d="M54.1904 19.9422C54.1904 19.9422 54.9655 31.445 58.143 34.2213C61.3205 36.9979 62.5602 40.0123 57.7555 42.5508C52.9505 45.0895 51.1681 44.4548 49.3854 42.3129C47.6031 40.1708 49.47 19.7044 49.47 19.7044L54.1904 19.9422Z" fill="black"/>
<path d="M26.4589 73.9232C22.2289 75.1485 8.81509 58.4946 8.81509 58.4946L12.4287 53.8406L23.1672 62.1546C23.1672 62.1546 27.8698 45.1727 29.5 43.5533C32.771 40.3038 38.0276 38.8212 44.9784 38.8212C50.8941 38.8212 55.1374 39.8577 58.5947 42.3318C61.2246 44.2136 61.748 47.2467 62.7248 49.6597C65.8599 57.4031 67.773 59.9002 67.773 59.9002L75.7747 44.1098L80.728 46.9076C80.728 46.9076 74.352 71.6024 66.5648 71.2704C61.6047 71.0588 56.3485 55.0098 56.3485 55.0098C56.3485 55.0098 54.9542 65.368 55.0156 67.4157C55.0765 69.4638 59.2375 79.7228 59.2375 79.7228C50.5315 82.1244 41.8549 82.3721 33.2017 80.9183C33.2017 80.9183 36.0102 71.3964 36.0442 67.7994C36.0788 64.2025 33.6148 55.3651 33.6148 55.3651C33.6148 55.3651 31.9356 72.3366 26.4589 73.9232Z" fill="#818181"/>
<path d="M37.9193 24.0688C37.9193 25.3683 37.4447 26.3164 36.6083 26.3164C35.7719 26.3164 34.6643 24.6545 34.6643 23.3548C34.6643 22.055 35.5684 21.7154 36.4048 21.7154C37.2412 21.7154 37.9193 22.7687 37.9193 24.0688Z" fill="#FFD1BD"/>
<path d="M35.2844 23.8291C35.4428 23.8336 35.5972 23.8917 35.7397 23.9684C35.8843 24.0452 36.0091 24.1573 36.1193 24.2815C36.2247 24.4105 36.3145 24.5532 36.3825 24.7057C36.4499 24.8587 36.5009 25.0173 36.5377 25.1791L36.3034 25.2228C36.2234 24.7789 36.1295 24.3315 36.012 23.8965C35.9531 23.6788 35.8867 23.4632 35.7997 23.2585C35.7111 23.0608 35.6102 22.8386 35.3877 22.7714C35.5034 22.7661 35.6154 22.8335 35.7 22.9146C35.7861 22.9969 35.8594 23.0916 35.92 23.1926C36.0436 23.3938 36.1339 23.6112 36.2133 23.8301C36.367 24.2714 36.4696 24.7231 36.5387 25.1854C36.5485 25.2518 36.5041 25.3139 36.439 25.3243C36.3771 25.3339 36.3194 25.293 36.3051 25.2316L36.3046 25.2288L36.2543 25.0067C36.2306 24.935 36.2128 24.8605 36.1852 24.7908C36.1309 24.6507 36.0685 24.5133 35.9844 24.3891C35.8182 24.1429 35.5838 23.928 35.2844 23.8291Z" fill="#1D2345"/>
<path d="M51.3011 24.0688C51.3011 25.3683 51.7759 26.3164 52.6121 26.3164C53.4485 26.3164 54.556 24.6545 54.556 23.3548C54.556 22.055 53.652 21.7154 52.8156 21.7154C51.9791 21.7154 51.3011 22.7687 51.3011 24.0688Z" fill="#FFD1BD"/>
<path d="M53.9362 23.8291C53.6368 23.9281 53.4024 24.1429 53.2362 24.3891C53.1521 24.5133 53.0897 24.6507 53.0354 24.7908C53.0078 24.8605 52.99 24.935 52.9663 25.0067L52.916 25.2289L52.9155 25.2311C52.9007 25.2968 52.8368 25.3377 52.7727 25.3225C52.7118 25.3081 52.6726 25.2478 52.6819 25.1854C52.751 24.7231 52.8536 24.2714 53.0073 23.8301C53.0867 23.6112 53.1767 23.3938 53.3005 23.1926C53.3612 23.0916 53.4345 22.9969 53.5206 22.9146C53.6052 22.8335 53.7172 22.7661 53.8329 22.7714C53.6104 22.8386 53.5095 23.0608 53.4209 23.2585C53.3339 23.4632 53.2675 23.6789 53.2085 23.8965C53.0911 24.3315 52.9972 24.7789 52.9172 25.2228L52.6829 25.1791C52.7197 25.0173 52.7707 24.8587 52.8381 24.7057C52.9061 24.5532 52.9959 24.4106 53.1013 24.2815C53.2115 24.1573 53.3366 24.0452 53.4809 23.9685C53.6234 23.8917 53.7778 23.8336 53.9362 23.8291Z" fill="#1D2345"/>
<path d="M36.9154 26.6459C36.9154 26.9746 36.6549 27.2407 36.334 27.2407C36.0128 27.2407 35.7528 26.9746 35.7528 26.6459C35.7528 26.3171 36.0128 26.0508 36.334 26.0508C36.6549 26.0508 36.9154 26.3171 36.9154 26.6459Z" fill="white"/>
<path d="M53.4612 26.6459C53.4612 26.9746 53.201 27.2407 52.8798 27.2407C52.5592 27.2407 52.2987 26.9746 52.2987 26.6459C52.2987 26.3171 52.5592 26.0508 52.8798 26.0508C53.201 26.0508 53.4612 26.3171 53.4612 26.6459Z" fill="white"/>
<path d="M44.7138 42.813C42.2037 42.813 40.1688 40.73 40.1688 38.1607V31.1825H49.2588V38.1607C49.2588 40.73 47.2238 42.813 44.7138 42.813Z" fill="#FFD1BD"/>
<mask id="mask1_789_7220" style="mask-type:luminance" maskUnits="userSpaceOnUse" x="40" y="33" width="10" height="13">
<path d="M49.3646 45.3608H40.2745V33.7304H49.3646V45.3608Z" fill="white"/>
</mask>
<g mask="url(#mask1_789_7220)">
<path d="M62.8141 23.3602C62.8141 30.1558 59.2207 35.6646 54.7876 35.6646C50.3551 35.6646 46.7612 30.1558 46.7612 23.3602C46.7612 16.5646 50.3551 11.0556 54.7876 11.0556C59.2207 11.0556 62.8141 16.5646 62.8141 23.3602Z" fill="#FFD1BD"/>
</g>
<path d="M53.0972 22.3923C53.0972 29.1879 48.2237 33.4526 44.6103 33.4526C40.9969 33.4526 36.1234 29.1879 36.1234 22.3923C36.1234 15.5969 39.923 12.7213 44.6103 12.7213C49.2976 12.7213 53.0972 15.5969 53.0972 22.3923Z" fill="#FFD1BD"/>
<path d="M41.7718 14.7326C41.7718 14.7326 42.2625 23.6703 52.8154 21.7136C56.713 20.9907 52.4151 8.59773 42.185 10.9777C42.185 10.9777 38.4967 7.52266 35.0552 10.1846C28.0801 15.579 36.0885 21.7666 36.0885 21.7666C36.0885 21.7666 38.6718 15.4201 41.7718 14.7326Z" fill="black"/>
<path d="M53.1181 18.02C53.217 18.0109 53.2688 18.0281 53.3297 18.0501C53.3894 18.07 53.439 18.1011 53.4881 18.1321C53.5831 18.1973 53.6662 18.2725 53.7362 18.3553C53.8833 18.5169 53.9913 18.6997 54.0939 18.8835C54.2858 19.2564 54.439 19.6438 54.5601 20.0391C54.8095 20.8284 54.9735 21.6369 55.1193 22.4463C55.3805 24.0711 55.5734 25.6973 55.8556 27.312C56.1466 28.9203 56.4858 30.535 57.1357 32.0347C57.4653 32.7773 57.8484 33.5059 58.3646 34.1339C58.8735 34.7661 59.4803 35.312 60.1554 35.7563C59.4751 35.3211 58.8599 34.782 58.3409 34.1541C57.8143 33.5299 57.4204 32.8028 57.0795 32.0605C56.4074 30.5612 56.0465 28.9435 55.7345 27.335C55.4316 25.7221 55.2172 24.0908 54.9372 22.4804C54.7823 21.6788 54.6092 20.8789 54.3554 20.1091C54.232 19.7233 54.0776 19.3494 53.8921 18.9989C53.7937 18.828 53.6901 18.6591 53.5614 18.5217C53.4997 18.45 53.4299 18.3902 53.3584 18.3419C53.3216 18.3197 53.2856 18.2973 53.2491 18.2864C53.2175 18.2702 53.1674 18.27 53.1664 18.2675L53.1181 18.02Z" fill="black"/>
<path d="M41.41 23.5122C41.41 23.9209 41.0864 24.2524 40.6868 24.2524C40.2874 24.2524 39.9633 23.9209 39.9633 23.5122C39.9633 23.1031 40.2874 22.7716 40.6868 22.7716C41.0864 22.7716 41.41 23.1031 41.41 23.5122Z" fill="#1D2345"/>
<path d="M37.9988 21.4906C38.9092 21.33 39.8115 21.1207 40.6924 20.8544C41.1317 20.716 41.5569 20.5428 41.9797 20.3764C42.4022 20.2065 42.8149 20.0156 43.157 19.6975L43.1768 19.7126C43.1102 19.8088 43.0421 19.9126 42.9609 20.002C42.8721 20.081 42.7856 20.1679 42.6903 20.2408C42.5939 20.3108 42.493 20.3751 42.3934 20.4423L42.0784 20.6079C41.6509 20.812 41.1963 20.9359 40.7447 21.0493C39.8404 21.2753 38.9238 21.427 38.0018 21.5156L37.9988 21.4906Z" fill="#1D2345"/>
<path d="M47.4034 23.5122C47.4034 23.9209 47.7273 24.2524 48.1268 24.2524C48.5262 24.2524 48.8498 23.9209 48.8498 23.5122C48.8498 23.1031 48.5262 22.7716 48.1268 22.7716C47.7273 22.7716 47.4034 23.1031 47.4034 23.5122Z" fill="#1D2345"/>
<path d="M50.8123 21.5156C49.89 21.427 48.9731 21.2753 48.0691 21.0493C47.6175 20.9359 47.1631 20.812 46.7354 20.6079L46.4207 20.4423C46.321 20.3751 46.2199 20.3108 46.1234 20.2408C46.0285 20.1679 45.9417 20.081 45.8529 20.002C45.7717 19.9126 45.7039 19.8088 45.637 19.7126L45.6568 19.6975C45.9991 20.0156 46.4115 20.2065 46.8341 20.3764C47.2569 20.5428 47.6819 20.716 48.1214 20.8544C49.0025 21.1207 49.9048 21.33 50.815 21.4906L50.8123 21.5156Z" fill="#1D2345"/>
<path d="M44.4069 24.941C44.453 25.2019 44.4574 25.4687 44.4229 25.7348C44.4086 25.8687 44.3758 26.0012 44.3299 26.134C44.2831 26.2646 44.2128 26.3996 44.086 26.5059C44.0571 26.5345 44.0179 26.5529 43.9782 26.5703L43.9222 26.5948L43.8901 26.6074C43.863 26.6148 43.8581 26.6251 43.8452 26.6297C43.8445 26.6337 43.8479 26.6244 43.845 26.6188C43.8408 26.6206 43.8652 26.67 43.9047 26.7044C43.9434 26.7413 43.9898 26.7769 44.0384 26.8114C44.2399 26.9415 44.4666 27.0498 44.7169 27.1094C44.4587 27.1551 44.1893 27.0968 43.9446 26.9836C43.883 26.9538 43.822 26.9198 43.7638 26.8723C43.7093 26.8228 43.639 26.7718 43.6129 26.6446C43.602 26.5721 43.6356 26.5029 43.6765 26.4582C43.7147 26.4244 43.7589 26.3921 43.7939 26.3812L43.8502 26.3577L43.8805 26.3416C43.899 26.3327 43.9187 26.3254 43.935 26.3065C44.0083 26.2517 44.0694 26.1522 44.1146 26.0429C44.1649 25.9353 44.2002 25.8164 44.235 25.6952C44.302 25.4523 44.3509 25.1991 44.4069 24.941Z" fill="#1D2345"/>
<path d="M36.1672 18.1606C36.0508 17.7882 35.9916 17.3961 35.981 17.0022C35.9711 16.6089 36.0079 16.2092 36.1191 15.8259C36.2318 15.4439 36.4161 15.0829 36.6573 14.7655C36.8932 14.44 37.2131 14.1938 37.5384 13.9755C38.1933 13.5323 39.031 13.3629 39.809 13.5121C40.2012 13.5796 40.5702 13.7381 40.9125 13.932C41.2544 14.1315 41.5704 14.3628 41.8538 14.6541L42.1764 14.9854L41.7364 14.8432C41.3003 14.7021 40.8373 14.6077 40.3775 14.5584C39.917 14.5057 39.4488 14.4976 38.9932 14.5759C38.5369 14.6493 38.0966 14.8223 37.7239 15.103C37.3515 15.3871 37.0801 15.7949 36.9011 16.241C37.0404 15.7805 37.296 15.3467 37.6647 15.0276C38.0322 14.7069 38.4938 14.5117 38.9644 14.4173C39.4363 14.3181 39.9207 14.3077 40.3975 14.3458C40.875 14.392 41.343 14.4802 41.8079 14.6238L41.6903 14.8132C41.1607 14.2959 40.4799 13.907 39.7636 13.7533C39.0445 13.6081 38.2755 13.7495 37.6492 14.1608C37.3396 14.3693 37.0268 14.5824 36.7957 14.8816C36.5584 15.1715 36.3715 15.5063 36.2501 15.8683C36.0165 16.5965 36.0022 17.3997 36.1672 18.1606Z" fill="#1D2345"/>
<path d="M33.202 80.9188C33.202 80.9188 30.6271 92.8022 30.9667 101.495C31.3066 110.187 33.202 117.5 33.202 117.5L48.1271 117.5L47.4409 98.0176L57.151 117.5L73.1933 117.499C73.1933 117.499 70.7747 109.149 65.3343 94.654C62.7493 87.7672 59.1009 79.5205 59.1009 79.5205C51.1063 81.8348 42.387 82.0512 33.202 80.9188Z" fill="white"/>
<path d="M42.9857 95.5123C43.3712 95.6948 43.7491 95.8913 44.13 96.0822L45.2612 96.6763L46.3822 97.2896C46.7542 97.4969 47.1314 97.6948 47.4989 97.9109L47.3778 97.914C48.2443 97.3797 49.1017 96.8299 49.9761 96.3084C50.8463 95.7803 51.7203 95.2582 52.6055 94.7548C51.7691 95.3394 50.9216 95.9052 50.0706 96.4649C49.2233 97.0316 48.3587 97.5696 47.5041 98.1236L47.4463 98.1606L47.3829 98.1266C47.008 97.9246 46.6422 97.7052 46.2717 97.4949L45.1654 96.8545L44.069 96.1956C43.7074 95.9685 43.3429 95.7471 42.9857 95.5123Z" fill="#62385E"/>
<path d="M32.1324 85.5801C32.3377 85.4167 32.5397 85.2536 32.7313 85.0766C32.9274 84.9062 33.1161 84.7282 33.2999 84.5449C33.6659 84.1775 34.0142 83.7937 34.3332 83.3857C34.6595 82.9838 34.9486 82.5523 35.2138 82.1051C35.2786 81.9925 35.347 81.8812 35.4096 81.7668L35.5835 81.4158C35.7142 81.1868 35.7949 80.9364 35.9145 80.6985C35.7927 81.2139 35.6259 81.7259 35.3798 82.1991C35.3248 82.321 35.2643 82.4402 35.1938 82.5528L34.9903 82.8972C34.8398 83.1163 34.6926 83.3388 34.5246 83.5445C34.1928 83.9589 33.8302 84.3487 33.4264 84.6886C33.0259 85.0304 32.5984 85.3422 32.1324 85.5801Z" fill="#62385E"/>
<path d="M55.3187 80.0249C55.5017 80.2739 55.6869 80.5193 55.8857 80.7528C56.0779 80.9917 56.2755 81.226 56.4854 81.4472C56.9027 81.8908 57.3302 82.3253 57.8068 82.6964C58.2791 83.0709 58.785 83.3986 59.3287 83.6508C59.8785 83.8879 60.4641 84.026 61.0741 84.0647C60.7721 84.0791 60.4621 84.1086 60.1577 84.0528C59.8484 84.026 59.5563 83.919 59.2586 83.8314C58.676 83.6125 58.1447 83.2767 57.6548 82.8952C57.1679 82.5078 56.7343 82.0574 56.3436 81.5752C55.9555 81.0911 55.5981 80.5801 55.3187 80.0249Z" fill="#62385E"/>
<path d="M45.781 80.1936C45.9147 81.6818 46.0294 83.1709 46.1465 84.6593L46.4926 89.125C46.5974 90.6142 46.724 92.1015 46.8557 93.5877C46.9176 94.3313 46.9928 95.0733 47.0772 95.8141C47.1255 96.1832 47.1534 96.5569 47.2185 96.923L47.3071 97.4752L47.4408 98.0176L47.2706 97.4835L47.1544 96.9351C47.0703 96.57 47.0244 96.1991 46.9576 95.831C46.8485 95.0917 46.7521 94.3502 46.6672 93.6079C46.4958 92.123 46.3712 90.6336 46.2469 89.145C46.1409 87.6546 46.0355 86.1644 45.9581 84.6725C45.8801 83.1805 45.813 81.6878 45.781 80.1936Z" fill="#62385E"/>
<path d="M11.4126 56.9661C8.08365 60.824 2.39383 55.6322 0.726141 53.9572C0.50819 53.7383 0.464062 53.3959 0.616796 53.1255L0.692422 52.9917C0.869033 52.6791 1.25156 52.5602 1.56808 52.719L3.04951 53.4636L0.233606 50.9877C0.0124723 50.793 -0.0605649 50.4749 0.0529247 50.2002C0.21 49.82 0.65678 49.667 1.00586 49.8732L3.25301 51.2033L0.535373 48.6482C0.28612 48.4141 0.246801 48.0261 0.443638 47.744L0.641833 47.4602C0.857959 47.1512 1.27874 47.0805 1.57984 47.3034L4.73345 49.6384L2.75872 47.3943C2.45809 47.0527 2.56437 46.5111 2.9705 46.3147C3.37969 46.1173 3.86051 46.1574 4.23273 46.4205L9.46869 50.1222L8.07978 47.966C7.74526 47.4464 7.95406 46.7429 8.51482 46.5021C8.90729 46.3334 9.35991 46.4455 9.63371 46.7788C10.9568 48.3884 13.2954 52.1019 12.8926 53.7681C12.4023 55.797 11.4126 56.9661 11.4126 56.9661Z" fill="#FFD1BD"/>
<path d="M4.07454 54.2935C4.07146 54.297 4.06248 54.3074 4.05621 54.2978C4.05237 54.291 4.0517 54.2836 4.05094 54.2766C4.04978 54.2624 4.05025 54.2483 4.05094 54.2344C4.05266 54.2066 4.05575 54.1791 4.0594 54.1516C4.06778 54.0971 4.07886 54.043 4.09092 53.9895C4.1148 53.8819 4.14198 53.7754 4.17165 53.6693C4.23448 53.4588 4.30675 53.2512 4.38961 53.048C4.55341 52.6407 4.75506 52.2489 4.98969 51.8765C5.22816 51.5078 5.50055 51.1564 5.8296 50.8617C6.15381 50.5668 6.54791 50.3297 6.97283 50.2537C6.57729 50.4249 6.25162 50.7001 5.96238 51.0044C5.67573 51.3129 5.42347 51.655 5.19587 52.0146C4.96482 52.3723 4.7594 52.7485 4.56353 53.1308C4.46745 53.3229 4.37256 53.5163 4.28391 53.713C4.23786 53.8107 4.19353 53.9092 4.15286 54.0094C4.13234 54.0594 4.11307 54.1099 4.09524 54.1609C4.08589 54.1862 4.07674 54.2117 4.06924 54.2377C4.06566 54.2506 4.06201 54.2637 4.06036 54.2766C4.05671 54.2892 4.06036 54.3076 4.07454 54.2935Z" fill="#1D2345"/>
<path d="M76.7365 48.2507C80.0654 52.1087 85.7555 46.9171 87.4229 45.2418C87.6407 45.0229 87.6851 44.6805 87.5322 44.4101L87.4564 44.2763C87.2801 43.964 86.8973 43.8448 86.581 44.0039L85.0993 44.748L87.9152 42.2721C88.1365 42.0779 88.2095 41.7595 88.096 41.4846C87.9392 41.1046 87.4922 40.9513 87.1434 41.1579L84.8961 42.4882L87.6136 39.9331C87.8629 39.6988 87.9024 39.3107 87.7053 39.0289L87.507 38.7451C87.2909 38.4356 86.8701 38.3654 86.5692 38.5881L83.4156 40.9233L85.3904 38.679C85.6911 38.3374 85.5848 37.7958 85.1785 37.5993C84.7695 37.4016 84.2885 37.442 83.9166 37.7051L78.6804 41.4071L80.0691 39.2506C80.4038 38.731 80.1949 38.0278 79.6343 37.7869C79.2418 37.6183 78.7892 37.7301 78.5151 38.0632C77.1923 39.673 74.8537 43.3866 75.2565 45.0525C75.7468 47.0814 76.7365 48.2507 76.7365 48.2507Z" fill="#FFD1BD"/>
<path d="M84.0748 45.5785C84.0891 45.5929 84.0925 45.5742 84.0891 45.5618C84.0871 45.5487 84.0837 45.5356 84.0802 45.5227C84.0726 45.4969 84.0634 45.4712 84.0541 45.4462C84.036 45.3949 84.0171 45.3444 83.9966 45.2944C83.9556 45.1945 83.9115 45.0957 83.8654 44.998C83.7766 44.8013 83.6818 44.6077 83.5856 44.416C83.3898 44.0335 83.1843 43.6573 82.9532 43.2998C82.7258 42.9403 82.4734 42.5979 82.1868 42.2896C81.8977 41.9854 81.5721 41.7102 81.1765 41.5387C81.6015 41.615 81.9954 41.8516 82.3198 42.1467C82.6488 42.4414 82.9209 42.7931 83.1597 43.1617C83.394 43.5339 83.5958 43.9257 83.7595 44.333C83.8427 44.5362 83.9149 44.7438 83.9778 44.9543C84.0072 45.0604 84.0346 45.1669 84.0585 45.2745C84.0703 45.328 84.0812 45.3821 84.0901 45.4366C84.0935 45.4641 84.0967 45.4916 84.0982 45.5197C84.0989 45.5333 84.0994 45.5474 84.0982 45.5616C84.0977 45.5684 84.097 45.576 84.0928 45.5828C84.0866 45.5926 84.078 45.5823 84.0748 45.5785Z" fill="#1D2345"/>
<path d="M42.085 11.0522C41.7012 10.516 41.2325 10.0219 40.7221 9.59566C40.2101 9.16896 39.6381 8.81321 39.018 8.57866C38.3996 8.34208 37.7269 8.24588 37.0668 8.32162C36.4046 8.3908 35.7679 8.64026 35.1885 8.97909C35.7571 8.62258 36.3898 8.35041 37.0592 8.25876C37.7264 8.16105 38.4178 8.23704 39.0587 8.45948C39.7015 8.6799 40.2989 9.02657 40.8364 9.44696C41.3746 9.86987 41.8617 10.3503 42.2855 10.9058L42.085 11.0522Z" fill="#AC54A2"/>
<mask id="mask2_789_7220" style="mask-type:luminance" maskUnits="userSpaceOnUse" x="12" y="39" width="69" height="43">
<path d="M26.1302 74.3701C21.9002 75.5954 12.1 62.6016 12.1 62.6016L15.7137 57.9475L22.8385 62.6016C22.8385 62.6016 26.7257 46.3198 28.3559 44.7001C31.6266 41.4509 37.699 39.2681 44.6497 39.2681C50.5654 39.2681 55.8448 40.8495 59.3022 43.3236C61.9322 45.2053 62.5308 47.8024 63.5078 50.2156C66.6427 57.9588 67.4443 60.3471 67.4443 60.3471L75.4461 44.5567L80.3993 47.3545C80.3993 47.3545 74.0233 72.0493 66.2362 71.7173C61.276 71.5057 56.0199 55.4567 56.0199 55.4567L54.0749 67.6939L58.9641 80.9512L32.873 81.3652C32.873 81.3652 35.6815 71.8433 35.7156 68.2464C35.7501 64.6495 33.2862 55.812 33.2862 55.812C33.2862 55.812 31.6069 72.7835 26.1302 74.3701Z" fill="white"/>
</mask>
<g mask="url(#mask2_789_7220)">
<path d="M29.3627 41.8606C29.3627 41.8606 31.4278 48.484 33.7681 56.5166" stroke="#3631A9" stroke-width="0.364701" stroke-miterlimit="10"/>
<path d="M56.4843 55.3892C56.4843 55.3892 56.7595 45.3837 59.513 41.5787" stroke="#3631A9" stroke-width="0.364701" stroke-miterlimit="10"/>
</g>
<path d="M35.9707 35.9042C38.3249 40.4525 46.5619 35.7724 48.5663 34.543C48.8283 34.3825 48.9496 34.0605 48.8628 33.7606L48.8196 33.6124C48.7197 33.2665 48.3752 33.0592 48.0311 33.138L46.4204 33.5066L49.7242 31.7743C49.9836 31.6382 50.1274 31.3463 50.0801 31.0519C50.0142 30.6449 49.6149 30.3887 49.2284 30.5058L46.7395 31.2607L49.9659 29.4277C50.2616 29.2595 50.3889 28.8917 50.2619 28.5705L50.1339 28.2471C49.9945 27.8946 49.6016 27.7254 49.258 27.8699L45.6579 29.3843L48.091 27.6757C48.4615 27.4156 48.482 26.8635 48.1319 26.5754C47.7797 26.2853 47.3027 26.2093 46.8809 26.3759L40.9437 28.7202L42.787 26.9564C43.2312 26.5314 43.1888 25.7977 42.6989 25.4291C42.3558 25.1713 41.8904 25.1716 41.5478 25.4298C39.8934 26.6781 35.2712 30.3192 35.2818 32.0351C35.2944 34.1254 35.9707 35.9042 35.9707 35.9042Z" fill="#29353C"/>
<path d="M46.5304 47.856C46.1841 45.543 44.9601 42.2872 44.4017 40.8806C44.2382 40.4686 43.8299 40.2128 43.3921 40.2486C42.7671 40.2999 42.3413 40.9134 42.5058 41.5257L43.1879 44.0672L39.222 38.7772C38.9403 38.401 38.4815 38.2055 38.0185 38.2639C37.5588 38.3222 37.2842 38.8123 37.4714 39.2412L38.7003 42.0585L36.3447 38.7698C36.12 38.456 35.6854 38.3876 35.3763 38.6171L35.0929 38.8274C34.8112 39.0367 34.7278 39.4253 34.8983 39.7338L36.7571 43.0937L34.974 41.0738C34.697 40.7599 34.2108 40.7632 33.9373 41.0806C33.7397 41.3101 33.7108 41.6421 33.8665 41.9027L35.8469 45.2176L34.6292 44.0147C34.3692 43.7577 33.957 43.7486 33.6857 43.994L33.5695 44.099C33.3344 44.3116 33.27 44.6575 33.4148 44.9406C34.2066 46.4898 36.861 51.3206 39.9465 52.9726C43.3438 58.1397 57.8774 79.3838 63.7115 73.9097C69.5149 68.4641 51.18 51.893 46.5304 47.856Z" fill="#29353C"/>
<path d="M57.5386 20.5864C57.7211 20.3448 57.9683 20.1542 58.2396 20.0158C58.5107 19.8752 58.8126 19.7896 59.1195 19.7701C59.4251 19.7573 59.7374 19.7828 60.023 19.8926C60.1705 19.931 60.302 20.0128 60.4374 20.0762C60.5674 20.1524 60.689 20.243 60.8069 20.3339C60.6619 20.292 60.5284 20.2324 60.3898 20.1903C60.2484 20.1559 60.1148 20.1022 59.9732 20.083C59.6964 20.0173 59.4137 20.0067 59.1365 20.0216C58.8573 20.0345 58.5822 20.1014 58.3149 20.1961C58.0477 20.293 57.789 20.4233 57.5386 20.5864Z" fill="#A6B1C3"/>
</svg>
