<svg width="518" height="448" viewBox="0 0 518 448" fill="none" xmlns="http://www.w3.org/2000/svg">
<rect width="518" height="448" fill="#2D2D23"/>
<path d="M323.517 121.151C323.004 123.368 323 127 323 127H337.983H354C354 127 353.539 123.163 352.967 121.151C352.157 118.306 351.905 117.194 350.383 114.697C348.861 112.201 347.552 111.184 345.389 109.454C344.011 108.352 342.574 107.999 340.911 106.429C339.689 105.274 337.983 103 337.983 103C337.983 103 336.022 105.226 334.711 106.429C333.211 107.804 332.817 108.042 330.75 109.454C328.636 110.898 327.503 112.408 326.1 114.697C324.697 116.987 324.146 118.432 323.517 121.151Z" fill="#D4C7B7" stroke="black" stroke-width="5"/>
<path d="M220.016 101C220.94 101.007 221.73 101.645 221.943 102.528L221.979 102.708C221.979 102.709 221.979 102.712 221.979 102.717C221.981 102.726 221.984 102.741 221.987 102.762C221.994 102.803 222.004 102.867 222.019 102.95C222.047 103.118 222.091 103.365 222.152 103.669C222.275 104.279 222.463 105.104 222.721 105.977C222.981 106.857 223.301 107.737 223.674 108.478C224.064 109.25 224.427 109.697 224.695 109.896L224.809 109.976C225.098 110.165 225.571 110.397 226.22 110.645C226.931 110.916 227.738 111.163 228.515 111.373C229.287 111.582 230.006 111.748 230.531 111.862C230.793 111.919 231.005 111.963 231.15 111.992C231.223 112.007 231.278 112.017 231.314 112.024C231.332 112.028 231.346 112.03 231.354 112.031C231.358 112.032 231.362 112.033 231.363 112.033H231.365L231.547 112.076C232.44 112.329 233.051 113.172 232.997 114.115C232.943 115.058 232.238 115.825 231.322 115.974L231.137 115.995L231.129 115.996C231.121 115.997 231.109 115.998 231.092 115.999C231.057 116.002 231.003 116.006 230.932 116.012C230.79 116.024 230.581 116.044 230.323 116.072C229.805 116.13 229.099 116.222 228.342 116.36C227.579 116.5 226.801 116.679 226.126 116.902C225.505 117.108 225.094 117.313 224.864 117.474L224.776 117.54C223.879 118.284 223.149 119.708 222.637 121.226C222.395 121.941 222.228 122.599 222.121 123.077C222.068 123.315 222.03 123.506 222.007 123.633C221.995 123.696 221.987 123.743 221.982 123.772C221.98 123.787 221.977 123.797 221.977 123.803V123.805L221.976 123.804C221.823 124.797 220.958 125.523 219.953 125.499C218.948 125.475 218.117 124.71 218.011 123.711V123.709C218.01 123.703 218.01 123.693 218.008 123.679C218.004 123.649 217.998 123.602 217.989 123.539C217.972 123.412 217.945 123.222 217.904 122.985C217.822 122.509 217.69 121.854 217.49 121.14C217.091 119.712 216.512 118.38 215.786 117.611L215.639 117.466C215.048 116.918 213.744 116.476 212.117 116.229C210.634 116.003 209.317 115.998 209.069 115.999C209.059 115.999 209.051 115.999 209.043 115.999C209.04 115.999 209.038 116 209.036 116H209.035L209.034 115.999C209.032 115.999 209.031 116 209.029 116H209.007C207.908 116.004 207.011 115.119 207 114.021C206.989 112.922 207.866 112.019 208.965 112H209.014C209.222 111.997 210.521 111.964 211.997 111.668C213.567 111.353 214.887 110.826 215.545 110.128L215.638 110.021C215.863 109.74 216.145 109.249 216.445 108.529C216.773 107.744 217.06 106.836 217.301 105.95C217.54 105.07 217.723 104.246 217.846 103.64C217.907 103.338 217.953 103.092 217.983 102.925C217.999 102.841 218.009 102.776 218.017 102.734C218.02 102.713 218.023 102.698 218.024 102.688C218.025 102.684 218.026 102.681 218.026 102.679V102.677C218.186 101.704 219.03 100.992 220.016 101Z" fill="#D6921E" stroke="black" stroke-width="4" stroke-linejoin="round"/>
<path d="M177.016 173.185C178.001 173.193 178.834 173.917 178.979 174.892V174.893C178.979 174.896 178.98 174.9 178.98 174.906C178.982 174.918 178.986 174.938 178.99 174.966C178.999 175.02 179.012 175.103 179.03 175.212C179.068 175.429 179.125 175.747 179.204 176.137C179.363 176.922 179.605 177.985 179.939 179.111C180.276 180.244 180.693 181.394 181.188 182.371C181.699 183.38 182.208 184.033 182.647 184.36L182.813 184.476C183.234 184.752 183.88 185.063 184.72 185.382C185.649 185.735 186.694 186.053 187.693 186.322C188.688 186.59 189.611 186.804 190.286 186.95C190.623 187.023 190.896 187.078 191.083 187.115C191.177 187.134 191.249 187.148 191.297 187.157C191.321 187.162 191.338 187.165 191.35 187.167C191.355 187.168 191.359 187.169 191.361 187.17H191.363C192.354 187.353 193.055 188.245 192.997 189.251C192.943 190.194 192.238 190.961 191.322 191.11L191.137 191.132H191.136C191.134 191.132 191.129 191.132 191.124 191.133C191.114 191.133 191.097 191.135 191.074 191.136C191.028 191.14 190.957 191.146 190.865 191.154C190.681 191.17 190.41 191.195 190.077 191.232C189.409 191.306 188.497 191.424 187.518 191.602C186.532 191.781 185.515 192.015 184.623 192.309C183.811 192.577 183.227 192.857 182.868 193.109L182.729 193.215C181.465 194.258 180.497 196.186 179.838 198.131C179.523 199.06 179.305 199.914 179.166 200.534C179.097 200.842 179.048 201.09 179.018 201.257C179.002 201.34 178.991 201.403 178.984 201.443C178.981 201.463 178.979 201.477 178.978 201.485C178.977 201.488 178.977 201.491 178.977 201.492V201.491L178.976 201.49C178.822 202.483 177.957 203.208 176.953 203.184C175.949 203.161 175.119 202.397 175.012 201.399L175.011 201.391C175.01 201.383 175.008 201.369 175.006 201.349C175.001 201.31 174.993 201.247 174.981 201.164C174.959 200.998 174.923 200.751 174.87 200.443C174.764 199.826 174.592 198.976 174.332 198.049C173.82 196.221 173.054 194.424 172.031 193.346L171.823 193.141C170.94 192.324 169.129 191.747 167.051 191.432C165.116 191.139 163.401 191.133 163.081 191.135C163.069 191.136 163.058 191.135 163.049 191.135C163.045 191.136 163.041 191.136 163.039 191.136H163.035L163.034 191.135L163.032 191.136H163.007C161.908 191.14 161.011 190.256 161 189.157C160.989 188.058 161.866 187.156 162.965 187.136H162.989L163.041 187.135C163.363 187.13 165.029 187.083 166.923 186.705C168.942 186.302 170.768 185.606 171.729 184.592L171.871 184.428C172.209 184.011 172.592 183.331 172.98 182.402C173.409 181.378 173.782 180.203 174.092 179.066C174.4 177.936 174.635 176.878 174.793 176.101C174.872 175.715 174.931 175.4 174.97 175.184C174.989 175.076 175.004 174.993 175.014 174.938C175.018 174.911 175.021 174.891 175.023 174.878C175.025 174.871 175.026 174.867 175.026 174.864V174.861C175.186 173.889 176.03 173.178 177.016 173.185Z" fill="#D6921E" stroke="black" stroke-width="4" stroke-linejoin="round"/>
<path d="M150.012 151.685C150.751 151.691 151.375 152.234 151.483 152.966V152.965C151.483 152.965 151.484 152.967 151.484 152.969C151.485 152.975 151.486 152.984 151.488 152.997C151.492 153.022 151.499 153.062 151.508 153.114C151.526 153.218 151.554 153.372 151.593 153.562C151.67 153.944 151.787 154.461 151.949 155.006C152.113 155.556 152.311 156.1 152.54 156.552C152.781 157.029 152.993 157.276 153.122 157.372L153.262 157.463C153.431 157.561 153.688 157.683 154.037 157.816C154.48 157.985 154.986 158.139 155.477 158.271C155.964 158.403 156.417 158.507 156.749 158.579C156.914 158.615 157.047 158.642 157.139 158.66C157.184 158.669 157.219 158.676 157.242 158.68C157.254 158.683 157.262 158.684 157.268 158.685C157.27 158.686 157.272 158.686 157.272 158.686L157.409 158.718C158.079 158.907 158.538 159.539 158.497 160.247C158.456 160.954 157.929 161.53 157.241 161.641L157.103 161.657L157.099 161.658C157.094 161.658 157.086 161.659 157.075 161.66C157.054 161.662 157.02 161.664 156.976 161.668C156.887 161.675 156.756 161.688 156.594 161.706C156.268 161.742 155.824 161.799 155.349 161.885C154.869 161.973 154.384 162.085 153.968 162.222C153.636 162.332 153.415 162.436 153.284 162.515L153.183 162.586C152.663 163.015 152.215 163.866 151.893 164.819C151.742 165.263 151.638 165.671 151.571 165.969C151.538 166.116 151.514 166.234 151.5 166.312C151.493 166.351 151.488 166.38 151.485 166.397C151.484 166.406 151.483 166.412 151.482 166.415L151.481 166.414C151.366 167.158 150.718 167.703 149.965 167.685C149.259 167.669 148.666 167.163 148.529 166.482L148.509 166.344C148.508 166.342 148.508 166.336 148.507 166.327C148.505 166.309 148.5 166.281 148.495 166.242C148.485 166.164 148.468 166.046 148.442 165.899C148.391 165.603 148.309 165.195 148.185 164.752C147.933 163.854 147.577 163.058 147.157 162.614L147.072 162.53C146.751 162.233 145.983 161.96 144.95 161.803C144.245 161.697 143.599 161.668 143.263 161.662L143.039 161.661H143.005C142.181 161.664 141.509 161.001 141.5 160.177C141.491 159.352 142.15 158.675 142.974 158.661H143.006C143.133 158.659 143.944 158.638 144.863 158.455C145.854 158.257 146.634 157.933 147.001 157.545L147.105 157.415C147.221 157.251 147.368 156.986 147.529 156.601C147.732 156.116 147.912 155.551 148.063 154.995C148.214 154.443 148.329 153.925 148.406 153.544C148.445 153.354 148.474 153.2 148.493 153.095C148.503 153.043 148.509 153.003 148.514 152.977C148.516 152.965 148.518 152.955 148.519 152.949C148.519 152.946 148.519 152.944 148.52 152.943V152.942C148.639 152.213 149.273 151.68 150.012 151.685Z" fill="#D6921E" stroke="black" stroke-width="3" stroke-linejoin="round"/>
<rect x="315.5" y="175.5" width="45" height="15" rx="7.5" fill="#D4C7B7" stroke="black" stroke-width="5"/>
<rect x="315.5" y="129.5" width="45" height="15" rx="7.5" fill="#D4C7B7" stroke="black" stroke-width="5"/>
<path d="M256.808 155.959C257.4 156.345 258.178 156.855 259.108 157.473C261.374 158.978 264.541 161.12 268.143 163.666C274.913 168.452 283.152 174.618 289.822 180.632L291.135 181.832C298.879 189.023 301.707 197.899 302.584 205.088C303.022 208.68 302.967 211.817 302.804 214.049C302.764 214.589 302.718 215.075 302.671 215.5H211.92C211.86 215.089 211.798 214.619 211.741 214.094C211.51 211.939 211.361 208.894 211.695 205.365C212.343 198.533 214.791 189.974 221.9 182.488L222.604 181.768C228.941 175.43 237.792 168.782 245.137 163.678C248.794 161.136 252.05 158.997 254.39 157.494C255.369 156.865 256.188 156.347 256.808 155.959Z" fill="#D4C7B7" stroke="black" stroke-width="5"/>
<path d="M332.688 175H323V145H354V175H344.462V158C344.462 154.5 338.5 152 338.5 152C338.5 152 332.688 154.5 332.688 158V175Z" fill="#958E80" stroke="black" stroke-width="5"/>
<rect x="166.5" y="215.5" width="161" height="70" fill="url(#paint0_linear_1_2185)" stroke="black" stroke-width="5"/>
<path d="M234 247H217C217 247 217 236.706 217 230.941C217 228.471 225.5 226 225.5 226C225.5 226 234 228.471 234 230.941V247Z" fill="#2D2D23" stroke="black" stroke-width="4"/>
<path d="M295 247H278C278 247 278 236.706 278 230.941C278 228.471 286.5 226 286.5 226C286.5 226 295 228.471 295 230.941V247Z" fill="#2D2D23" stroke="black" stroke-width="4"/>
<rect x="324" y="192" width="29" height="87" fill="url(#paint1_linear_1_2185)" stroke="black" stroke-width="6"/>
<path d="M343.361 223.185H332.667V204.832C332.667 202.009 338.014 199.185 338.014 199.185C338.014 199.185 343.361 202.009 343.361 204.832V223.185Z" fill="#2D2D23" stroke="black" stroke-width="5"/>
<rect x="194" y="240.185" width="14" height="106" rx="7" fill="#D4C7B7" stroke="black" stroke-width="6"/>
<rect x="180" y="262.185" width="14" height="67" rx="7" fill="#D4C7B7" stroke="black" stroke-width="6"/>
<rect x="165" y="269.185" width="14" height="53" rx="7" fill="#D4C7B7" stroke="black" stroke-width="6"/>
<rect x="151" y="276.185" width="14" height="35" rx="7" fill="#D4C7B7" stroke="black" stroke-width="6"/>
<rect x="137" y="285.185" width="14" height="17" rx="7" fill="#D4C7B7" stroke="black" stroke-width="6"/>
<rect x="209" y="260.185" width="14" height="67" rx="7" fill="#D4C7B7" stroke="black" stroke-width="6"/>
<rect x="224" y="269.185" width="13" height="53" rx="6.5" fill="#D4C7B7" stroke="black" stroke-width="6"/>
<rect x="237" y="254.185" width="15" height="81" rx="7" fill="#D4C7B7" stroke="black" stroke-width="6"/>
<rect x="251" y="234.185" width="15" height="118" rx="7" fill="#D4C7B7" stroke="black" stroke-width="6"/>
<rect x="267" y="254.185" width="13" height="83" rx="6.5" fill="#D4C7B7" stroke="black" stroke-width="6"/>
<rect x="281" y="269.185" width="13" height="55" rx="6.5" fill="#D4C7B7" stroke="black" stroke-width="6"/>
<rect x="295" y="260.185" width="14" height="69" rx="7" fill="#D4C7B7" stroke="black" stroke-width="6"/>
<rect x="309" y="242.185" width="14" height="104" rx="7" fill="#D4C7B7" stroke="black" stroke-width="6"/>
<rect x="324" y="262.185" width="14" height="67" rx="7" fill="#D4C7B7" stroke="black" stroke-width="6"/>
<rect x="338" y="267.185" width="14" height="55" rx="7" fill="#D4C7B7" stroke="black" stroke-width="6"/>
<rect x="353" y="275.185" width="14" height="39" rx="7" fill="#D4C7B7" stroke="black" stroke-width="6"/>
<rect x="368" y="284.185" width="14" height="18" rx="7" fill="#D4C7B7" stroke="black" stroke-width="6"/>
<path d="M252.351 117.716C254.843 116.55 257.655 116.411 260.251 117.324L260.402 117.384C261.141 117.707 261.629 118.417 261.677 119.209L261.677 119.214C261.727 120.069 261.259 120.876 260.482 121.254L260.483 121.255C258.634 122.156 257.833 124.422 258.705 126.285C259.576 128.148 261.829 128.985 263.706 128.144L263.705 128.145C264.443 127.813 265.295 127.931 265.913 128.427L266.034 128.532L266.04 128.537L266.151 128.65C266.685 129.233 266.858 130.074 266.575 130.833L266.576 130.834C265.615 133.416 263.706 135.488 261.211 136.655C260.931 136.786 260.648 136.901 260.362 137.006L260.424 137.254C260.642 137.444 260.892 137.687 261.14 137.986C261.826 138.814 262.546 140.127 262.475 141.88C262.359 144.758 260.304 147.937 256.811 148.027L256.468 148.026C252.736 147.908 250.79 144.429 250.868 141.466L250.884 141.202C251.006 139.899 251.755 138.795 252.219 138.193C252.469 137.87 252.715 137.595 252.911 137.388C252.946 137.256 252.986 137.107 253.027 136.95C250.647 135.961 248.472 134.095 247.312 131.615C244.868 126.392 247.128 120.159 252.351 117.716Z" fill="#D4C7B7" stroke="black" stroke-width="4"/>
<path d="M168.854 100.751C170.049 100.272 171.423 100.487 172.413 101.331L172.619 101.521L172.807 101.725C173.64 102.703 173.874 104.069 173.397 105.273L173.284 105.529C171.91 108.323 171.215 111.322 171.215 114.456C171.215 125.629 180.298 134.719 191.45 134.719C194.614 134.719 197.637 134.007 200.457 132.603L200.71 132.488C201.992 131.972 203.479 132.256 204.479 133.257H204.478C205.533 134.313 205.8 135.923 205.142 137.263L205.143 137.264C200.534 146.653 191.162 152.5 180.714 152.5C165.703 152.5 153.5 140.279 153.5 125.259C153.5 114.862 159.291 105.506 168.598 100.866L168.602 100.864L168.854 100.751Z" fill="#D4C7B7" stroke="black" stroke-width="5"/>
<defs>
<linearGradient id="paint0_linear_1_2185" x1="210.5" y1="216.5" x2="259" y2="306" gradientUnits="userSpaceOnUse">
<stop stop-color="#D4C7B7"/>
<stop offset="1" stop-color="#252523"/>
</linearGradient>
<linearGradient id="paint1_linear_1_2185" x1="332" y1="208.5" x2="352.5" y2="282" gradientUnits="userSpaceOnUse">
<stop stop-color="#958E80"/>
<stop offset="1" stop-color="#2F2D28"/>
</linearGradient>
</defs>
</svg>
