<svg width="21" height="14" viewBox="0 0 21 14" fill="none" xmlns="http://www.w3.org/2000/svg">
<path d="M20.525 2.149C20.3801 2.05952 20.2148 2.00851 20.0447 2.00081C19.8746 1.99311 19.7054 2.02897 19.553 2.105L17 3.382V3C17 1.346 15.654 0 14 0H3C1.346 0 0 1.346 0 3V11C0 12.654 1.346 14 3 14H14C15.654 14 17 12.654 17 11V10.618L19.553 11.894C19.705 11.9711 19.8744 12.0077 20.0446 12.0001C20.2149 11.9926 20.3804 11.9412 20.525 11.851C20.82 11.668 21 11.347 21 11V3C21 2.653 20.82 2.332 20.525 2.149ZM5 8.5C4.79983 8.50524 4.60063 8.47034 4.41416 8.39737C4.22768 8.3244 4.05771 8.21483 3.91426 8.07513C3.7708 7.93542 3.65677 7.76841 3.57889 7.58393C3.501 7.39946 3.46084 7.20125 3.46078 7.00101C3.46071 6.80077 3.50074 6.60254 3.5785 6.41802C3.65626 6.23349 3.77018 6.0664 3.91354 5.9266C4.0569 5.7868 4.2268 5.67712 4.41323 5.60402C4.59965 5.53093 4.79882 5.4959 4.999 5.501C5.38999 5.51097 5.76163 5.67326 6.03469 5.95327C6.30775 6.23329 6.46065 6.60889 6.46078 7.00001C6.46091 7.39113 6.30827 7.76683 6.03539 8.04703C5.76251 8.32724 5.39099 8.48977 5 8.5Z" fill="#FD5B68"/>
</svg>
