<svg width="17" height="16" viewBox="0 0 17 16" fill="none" xmlns="http://www.w3.org/2000/svg">
<path d="M14.1409 2.84704C14.6224 2.84704 15.013 3.23763 15.013 3.7191C15.013 4.20056 14.6224 4.59115 14.1409 4.59115C13.6592 4.59115 13.2689 4.20056 13.2689 3.7191C13.2689 3.23763 13.6595 2.84704 14.1409 2.84704ZM16.6097 5.12847C15.5288 5.08055 14.4545 4.90971 13.4159 4.60437C13.3941 4.59809 13.3733 4.59578 13.3525 4.59248C13.3456 4.48971 13.3218 4.38495 13.2768 4.27921C13.2226 4.15166 13.1344 4.03666 13.026 3.94116C13.0822 2.9085 13.2504 1.88246 13.5425 0.889454C13.7064 0.331323 12.8601 -0.00573552 12.6942 0.559004C12.3915 1.58902 12.1979 2.64745 12.1298 3.71877C12.0882 3.73198 12.0475 3.74785 12.0082 3.76899C11.122 4.24352 10.2367 4.71805 9.35041 5.19224C9.33587 5.19984 9.32233 5.20877 9.30845 5.2167L9.0431 5.35879L7.61192 6.09173L5.79708 6.96544C5.75247 6.9889 5.71546 7.02062 5.68506 7.05664L5.67878 7.05962C5.48977 7.16073 5.41839 7.39601 5.52017 7.5847C5.62129 7.77372 5.85657 7.84476 6.04525 7.74365L8.46745 6.65977L8.82996 6.50413L8.8749 6.5874L7.55772 7.44558L6.40412 8.17257C6.35191 8.20033 6.30994 8.23899 6.2769 8.2836C6.1434 8.39992 6.10242 8.59588 6.18966 8.75879C6.29078 8.94781 6.52573 9.01885 6.71474 8.91774L8.44829 7.89136L9.85138 7.10654L10.082 6.98295C10.0906 6.97865 10.0999 6.97535 10.1088 6.97072C10.9951 6.4962 11.8807 6.02167 12.7666 5.54715C12.8429 5.50617 12.9133 5.45792 12.9778 5.40439C13.0098 5.42323 13.0445 5.43975 13.0858 5.45165C14.1988 5.77912 15.3454 5.9807 16.5053 6.03192C17.0882 6.05868 17.1969 5.15457 16.6097 5.12847ZM3.12606 11.8369C2.51109 11.8369 2.01244 12.3356 2.01244 12.9505C2.01244 13.5655 2.51109 14.0642 3.12606 14.0642C3.74102 14.0642 4.23967 13.5655 4.23967 12.9505C4.23967 12.3356 3.74102 11.8369 3.12606 11.8369ZM11.5221 12.8557C11.4987 12.8088 11.4706 12.7638 11.4352 12.7225C11.1001 12.326 10.7621 11.9318 10.3907 11.5683C10.3851 11.5627 10.3794 11.5597 10.3735 11.5544C10.3464 11.5167 10.317 11.4791 10.2833 11.4424C9.6161 10.7263 8.79493 10.1288 7.83695 9.89884C7.98334 9.75278 8.1294 9.60639 8.27546 9.46033C8.74338 8.99308 8.01903 8.26906 7.55177 8.73632C7.18894 9.09915 6.82644 9.46166 6.4636 9.82449C6.18206 9.85952 5.90613 9.92396 5.63649 10.0128C5.63649 9.50362 5.63649 8.99506 5.63649 8.48551C5.63682 7.8256 4.61275 7.8256 4.61275 8.48551C4.61242 9.15203 4.61275 9.81788 4.61275 10.4841C4.49181 10.5558 4.37251 10.6314 4.25587 10.7117C3.2361 11.4143 4.20498 13.089 5.23499 12.3802C5.83277 11.9685 6.41899 11.6882 7.15556 11.7272C7.79631 11.7619 8.35345 12.2288 8.78898 12.6769C8.81674 13.2423 8.72719 13.8031 8.47968 14.3322C8.2021 14.9266 9.08473 15.4468 9.36429 14.849C9.63328 14.2727 9.77174 13.6828 9.80082 13.0814C9.94688 13.0384 10.0834 12.9581 10.199 12.8524C10.3345 13.0037 10.4677 13.1581 10.5995 13.3134C10.3209 13.8523 10.0024 14.3659 9.62204 14.842C9.21295 15.3546 9.94622 16.07 10.358 15.5545C10.8721 14.9111 11.306 14.2261 11.6603 13.4829C11.7805 13.2318 11.6887 12.9978 11.5221 12.8557ZM1.29768 12.7562L1.32775 12.6148L0 12.4843L1.29768 12.7562ZM0.717737 13.4869L1.27124 13.3544L1.24745 13.2962L0.717737 13.4869ZM1.39053 14.0328L1.78311 13.6746L1.72726 13.6352L1.39053 14.0328Z" fill="#010002"/>
</svg>
