<svg width="15" height="15" viewBox="0 0 15 15" fill="none" xmlns="http://www.w3.org/2000/svg">
<path d="M15 0C14.1842 0.816392 13.3525 1.62799 12.5143 2.43767C10.6979 2.00997 8.38432 2.96509 7.07457 3.81217C8.64563 3.55645 10.2231 3.29114 10.9114 3.96241C8.18993 6.53241 5.38241 9.07045 2.56469 11.6021L3.80497 13.0373C4.5666 12.7592 5.60867 12.104 6.73677 11.1961C7.94774 10.218 9.26067 8.94898 10.478 7.56169C12.6354 5.10676 14.4806 2.25099 15 0ZM2.45252 12.2925L2.0188 12.6921L2.65456 13.4145L3.1007 13.0022L2.45252 12.2925ZM1.59528 13.0821L0 14.5557V15H0.936584L2.23199 13.8045L1.59528 13.0821Z" fill="black"/>
</svg>
