<svg width="15" height="15" viewBox="0 0 15 15" fill="none" xmlns="http://www.w3.org/2000/svg">
<path d="M12.1962 4.78732C12.1948 4.78732 12.1937 4.78732 12.1927 4.78732C12.1943 4.73416 12.1962 4.68133 12.1962 4.62754C12.1962 2.0718 10.3759 0 8.131 0C6.0278 0 4.29756 1.81821 4.08732 4.14924C3.79245 4.04542 3.479 3.98946 3.15434 3.98946C1.41243 3.98946 0 5.59694 0 7.57987C0 9.56276 1.41243 11.1703 3.15437 11.1703H12.1962C13.7446 11.1703 15 9.74151 15 7.97863C15 6.21607 13.7446 4.78732 12.1962 4.78732Z" fill="black"/>
<path d="M2.83936 14.0847C2.83936 14.5903 3.1995 15 3.64373 15C4.08793 15 4.44808 14.5904 4.44808 14.0847C4.44808 13.579 3.64373 12.2873 3.64373 12.2873C3.64373 12.2873 2.83936 13.579 2.83936 14.0847Z" fill="black"/>
<path d="M6.75146 14.0847C6.75146 14.5903 7.11185 15 7.55581 15C8.00033 15 8.36019 14.5904 8.36019 14.0847C8.36019 13.579 7.55581 12.2873 7.55581 12.2873C7.55581 12.2873 6.75146 13.579 6.75146 14.0847Z" fill="black"/>
<path d="M10.665 14.0847C10.665 14.5903 11.0249 15 11.4694 15C11.9134 15 12.2738 14.5904 12.2738 14.0847C12.2738 13.579 11.4694 12.2873 11.4694 12.2873C11.4694 12.2873 10.665 13.579 10.665 14.0847Z" fill="black"/>
</svg>
