<svg width="15" height="15" viewBox="0 0 15 15" fill="none" xmlns="http://www.w3.org/2000/svg">
<path d="M14.2235 9.9021L13.2452 8.80716C12.9484 8.47458 12.3915 8.68335 12.3915 9.13309V10.5541C12.3915 10.6441 12.3183 10.7171 12.2285 10.7171C12.1387 10.7171 12.0654 10.6441 12.0654 10.5541V9.78157C12.0654 8.20769 10.9487 6.82427 9.39632 6.48894C8.93906 6.39006 8.61676 6.93768 8.92757 7.29155C9.60304 8.04653 9.64549 9.06635 8.92918 9.9021C7.03055 12.0191 8.87914 14.9994 11.5764 14.9994C13.4764 14.9994 15.0002 13.4903 15.0002 11.8584C15.0002 10.7835 14.2553 9.9376 14.2235 9.9021Z" fill="black"/>
<path d="M11.0227 4.05622L7.10974 0.143283C6.91869 -0.047761 6.60914 -0.047761 6.4181 0.143283L2.50516 4.05622C2.19802 4.36339 2.41584 4.89115 2.85095 4.89115H3.91325L1.32442 7.48001C1.01727 7.78719 1.23509 8.31494 1.67021 8.31494H2.73251L0.143697 10.9038C-0.163479 11.211 0.0543716 11.7387 0.489516 11.7387H5.21763V14.5104C5.21763 14.7805 5.43671 14.9995 5.70674 14.9995H7.66321C7.93596 14.9995 8.15232 14.8114 8.15232 14.4095C6.63785 12.6469 7.09345 10.4821 8.20075 9.24901C8.56312 8.82579 8.56757 8.35645 8.1982 7.94375C7.25511 6.86973 8.23133 5.23626 9.6028 5.53286C9.96175 5.61038 10.3003 5.73606 10.6185 5.89503L9.61455 4.89106H10.6769C11.112 4.89112 11.3298 4.36334 11.0227 4.05622Z" fill="black"/>
</svg>
