<svg width="279" height="360" viewBox="0 0 279 360" fill="none" xmlns="http://www.w3.org/2000/svg">
<g filter="url(#filter0_d_74_292)">
<g filter="url(#filter1_d_74_292)">
<path d="M216.038 84.8651L129.781 34.1704C128.832 33.6125 127.654 33.6195 126.711 34.1884L42.7629 84.8598C41.8632 85.4029 41.3132 86.3773 41.3132 87.4282V230.231C41.3132 231.208 41.789 232.123 42.5884 232.685L126.539 291.677C127.563 292.397 128.925 292.405 129.958 291.699L216.212 232.683C217.029 232.123 217.518 231.197 217.518 230.207V87.4515C217.518 86.388 216.955 85.404 216.038 84.8651Z" stroke="url(#paint0_linear_74_292)" stroke-width="30" shape-rendering="crispEdges"/>
</g>
<path d="M214.547 84.1816L126.093 33.5759C125.471 33.2197 124.705 33.2242 124.087 33.5875L37.9868 84.1778C37.3754 84.537 37 85.1931 37 85.9022V227.774C37 228.434 37.3259 229.052 37.8708 229.425L123.972 288.322C124.646 288.783 125.531 288.788 126.21 288.336L214.663 229.423C215.22 229.052 215.554 228.427 215.554 227.758V85.9176C215.554 85.2002 215.17 84.5378 214.547 84.1816Z" fill="url(#paint1_linear_74_292)" stroke="url(#paint2_linear_74_292)" stroke-width="25"/>
<path d="M204.103 224.161L127.398 275.679C126.724 276.132 125.842 276.132 125.168 275.679L48.4633 224.161C47.9102 223.789 47.5784 223.167 47.5784 222.5V92.7486C47.5784 92.0419 47.9513 91.3877 48.5595 91.0276L125.264 45.6153C125.893 45.2433 126.674 45.2433 127.302 45.6153L204.007 91.0276C204.615 91.3877 204.988 92.0419 204.988 92.7486V222.5C204.988 223.167 204.656 223.789 204.103 224.161Z" fill="#D9D9D9" stroke="url(#paint3_linear_74_292)" stroke-width="6"/>
<g filter="url(#filter2_i_74_292)">
<circle cx="217.831" cy="89.8313" r="7.83133" fill="#121414"/>
<circle cx="217.831" cy="89.8314" r="3.74542" fill="#9B9D9F"/>
</g>
<g filter="url(#filter3_i_74_292)">
<circle cx="125.831" cy="32.8313" r="7.83133" fill="#121414"/>
<circle cx="125.831" cy="32.8314" r="3.74542" fill="#9B9D9F"/>
</g>
<g filter="url(#filter4_i_74_292)">
<circle cx="34.8313" cy="89.8313" r="7.83133" fill="#121414"/>
<circle cx="34.8311" cy="89.8314" r="3.74542" fill="#9B9D9F"/>
</g>
<g filter="url(#filter5_i_74_292)">
<circle cx="34.8313" cy="158.831" r="7.83133" fill="#121414"/>
<circle cx="34.8311" cy="158.831" r="3.74542" fill="#9B9D9F"/>
</g>
<g filter="url(#filter6_i_74_292)">
<g filter="url(#filter7_i_74_292)">
<circle cx="217.831" cy="162.831" r="7.83133" fill="#121414"/>
<circle cx="217.831" cy="162.831" r="3.74542" fill="#9B9D9F"/>
</g>
</g>
<g filter="url(#filter8_i_74_292)">
<g filter="url(#filter9_i_74_292)">
<circle cx="125.831" cy="288.831" r="7.83133" fill="#121414"/>
<circle cx="125.831" cy="288.831" r="3.74542" fill="#9B9D9F"/>
</g>
</g>
</g>
<g filter="url(#filter10_f_74_292)">
<path d="M200.189 220.132L127.009 269.41C126.333 269.865 125.45 269.865 124.775 269.41L51.5938 220.132C51.0419 219.76 50.7109 219.138 50.7109 218.473V94.285C50.7109 93.5872 51.0746 92.9399 51.6704 92.5769L124.851 47.9953C125.49 47.606 126.293 47.606 126.932 47.9953L200.113 92.5769C200.709 92.9399 201.072 93.5872 201.072 94.285V218.473C201.072 219.138 200.741 219.76 200.189 220.132Z" fill="#65757E"/>
<path d="M200.189 220.132L127.009 269.41C126.333 269.865 125.45 269.865 124.775 269.41L51.5938 220.132C51.0419 219.76 50.7109 219.138 50.7109 218.473V94.285C50.7109 93.5872 51.0746 92.9399 51.6704 92.5769L124.851 47.9953C125.49 47.606 126.293 47.606 126.932 47.9953L200.113 92.5769C200.709 92.9399 201.072 93.5872 201.072 94.285V218.473C201.072 219.138 200.741 219.76 200.189 220.132Z" stroke="#050A0D" stroke-width="6"/>
</g>
<g filter="url(#filter11_d_74_292)">
<line x1="98.6985" y1="63.02" x2="99.4882" y2="252.146" stroke="#050A0D" stroke-width="2"/>
<line x1="102.614" y1="60.6706" x2="103.397" y2="254.496" stroke="#050A0D" stroke-width="2"/>
<line x1="107.313" y1="58.7091" x2="108.879" y2="258.408" stroke="#050A0D" stroke-width="2"/>
<line x1="112.795" y1="55.1852" x2="114.361" y2="262.324" stroke="#050A0D" stroke-width="2"/>
<line x1="118.277" y1="51.6687" x2="118.277" y2="265.464" stroke="#050A0D" stroke-width="2"/>
<line x1="122.193" y1="49.3193" x2="122.193" y2="267.03" stroke="#050A0D" stroke-width="2"/>
<line x1="126.108" y1="47.7531" x2="126.108" y2="270.163" stroke="#050A0D" stroke-width="2"/>
<line x1="130.024" y1="49.3193" x2="130.024" y2="267.03" stroke="#050A0D" stroke-width="2"/>
<line x1="134.723" y1="51.6687" x2="134.723" y2="264.681" stroke="#050A0D" stroke-width="2"/>
<line x1="140.205" y1="56.3714" x2="139.424" y2="261.552" stroke="#050A0D" stroke-width="2"/>
<line x1="145.686" y1="58.7248" x2="144.108" y2="258.424" stroke="#050A0D" stroke-width="2"/>
<line x1="149.602" y1="62.249" x2="148.054" y2="256.074" stroke="#050A0D" stroke-width="2"/>
<line x1="153.518" y1="63.8154" x2="151.964" y2="253.725" stroke="#050A0D" stroke-width="2"/>
<line x1="156.65" y1="66.1567" x2="156.644" y2="249.801" stroke="#050A0D" stroke-width="2"/>
<line x1="160.566" y1="68.1102" x2="161.335" y2="246.664" stroke="#050A0D" stroke-width="2"/>
<line x1="163.698" y1="70.0678" x2="164.482" y2="243.923" stroke="#050A0D" stroke-width="2"/>
<line x1="166.5" y1="72.9977" x2="167.283" y2="243.721" stroke="#050A0D"/>
<path d="M170.542 74.7711L171.308 239.229" stroke="#050A0D" stroke-width="2"/>
<line x1="174.662" y1="77.1155" x2="175.453" y2="236.483" stroke="#050A0D" stroke-width="2"/>
<line x1="178.578" y1="79.4649" x2="179.361" y2="234.134" stroke="#050A0D" stroke-width="2"/>
<line x1="183.277" y1="82.6024" x2="183.276" y2="231.006" stroke="#050A0D" stroke-width="2"/>
<line x1="187.193" y1="84.9464" x2="187.962" y2="227.868" stroke="#050A0D" stroke-width="2"/>
<line x1="191.891" y1="88.0787" x2="192.674" y2="225.518" stroke="#050A0D" stroke-width="2"/>
<line x1="195.807" y1="91.2109" x2="196.592" y2="222.777" stroke="#050A0D" stroke-width="2"/>
<line x1="95.6201" y1="64.978" x2="96.3462" y2="249.797" stroke="#050A0D" stroke-width="2"/>
<line y1="-1" x2="177.551" y2="-1" transform="matrix(3.53388e-05 1 1 -3.41125e-05 91.5959 68.6964)" stroke="#050A0D" stroke-width="2"/>
<line y1="-0.5" x2="177.551" y2="-0.5" transform="matrix(3.53388e-05 1 1 -3.41125e-05 93.7832 69.2892)" stroke="#050A0D"/>
<line y1="-1" x2="172.353" y2="-1" transform="matrix(-0.0043871 0.99999 0.999991 0.00423486 87.8152 71.668)" stroke="#050A0D" stroke-width="2"/>
<line x1="83.5221" y1="71.6802" x2="81.4699" y2="239.633" stroke="#050A0D" stroke-width="2"/>
<line x1="78.9855" y1="75.3962" x2="76.7711" y2="236.502" stroke="#050A0D" stroke-width="2"/>
<line x1="75.2047" y1="79.1122" x2="72.8553" y2="233.371" stroke="#050A0D" stroke-width="2"/>
<line x1="71.424" y1="81.3369" x2="69.7228" y2="231.017" stroke="#050A0D" stroke-width="2"/>
<line x1="66.8874" y1="83.5617" x2="65.7954" y2="228.664" stroke="#050A0D" stroke-width="2"/>
<line x1="63.1066" y1="85.7973" x2="61.1082" y2="225.538" stroke="#050A0D" stroke-width="2"/>
<line x1="58.5699" y1="88.7707" x2="56.4094" y2="222.408" stroke="#050A0D" stroke-width="2"/>
<line x1="54.0603" y1="91.223" x2="53.2772" y2="220.44" stroke="#050A0D" stroke-width="2"/>
</g>
<g filter="url(#filter12_d_74_292)">
<ellipse cx="124.093" cy="91.6085" rx="28.7436" ry="27.8012" fill="url(#paint4_linear_74_292)"/>
<ellipse cx="124.564" cy="90.6661" rx="20.7331" ry="20.2619" fill="white"/>
<ellipse cx="124.717" cy="91.6084" rx="16.8373" ry="16.0542" fill="url(#paint5_linear_74_292)"/>
</g>
<g filter="url(#filter13_d_74_292)">
<path d="M192.377 101.789L129.415 135.111L129.024 247.295V251.367C130.589 250.627 131.762 249.887 132.935 249.146L148.187 238.779V149.551L171.259 135.32V218.786V223.229L175.952 221.008L194.721 211.428L192.377 106.488L192.377 101.789Z" fill="#E6EFF0"/>
<path d="M192.377 101.789L129.415 135.111L129.024 247.295V251.367C130.589 250.627 131.762 249.887 132.935 249.146L148.187 238.779V149.551L171.259 135.32V218.786V223.229L175.952 221.008L194.721 211.428L192.377 106.488L192.377 101.789Z" stroke="#E6EFF0" stroke-width="2"/>
</g>
<g filter="url(#filter14_d_74_292)">
<path d="M189.631 106.88L129.698 139.981L129.33 247.465V251.368C130.802 250.658 131.906 249.949 133.01 249.239L148.908 239.229V146.428L174.36 130.765V217.693L191.589 209.078L189.631 111.187V106.88Z" fill="url(#paint6_linear_74_292)"/>
</g>
<path d="M193.155 100.615L189.631 106.88L191.588 209.078L195.504 211.819L193.155 100.615Z" fill="#2B3F4A"/>
<path d="M173.83 218.025L170.041 225.011L195.637 212.09L195.613 211.624C195.548 210.337 194.668 209.235 193.428 208.887L192.612 208.658C191.882 208.453 191.101 208.533 190.426 208.88L175.092 216.789C174.557 217.065 174.117 217.496 173.83 218.025Z" fill="#2D373D"/>
<path d="M148.908 146.428V160.133L150.082 154.651L151.45 149.523C151.578 149.043 151.88 148.628 152.297 148.358L170.444 136.639L174.36 130.765L148.908 146.428Z" fill="#384853"/>
<path d="M171.369 134.48L170.444 136.639V224.741L172.793 220.825L174.751 216.91L174.359 130.765L172.035 133.421C171.759 133.737 171.534 134.094 171.369 134.48Z" fill="#E6EFF0"/>
<g filter="url(#filter15_d_74_292)">
<path d="M60.3787 101.789L123.34 135.111L123.731 247.295V251.367C122.167 250.627 120.994 249.887 119.82 249.146L104.569 238.779V149.551L81.4961 135.32V218.786V223.229L76.8034 221.008L58.0342 211.428L60.3787 106.488L60.3787 101.789Z" fill="#E6EFF0"/>
<path d="M60.3787 101.789L123.34 135.111L123.731 247.295V251.367C122.167 250.627 120.994 249.887 119.82 249.146L104.569 238.779V149.551L81.4961 135.32V218.786V223.229L76.8034 221.008L58.0342 211.428L60.3787 106.488L60.3787 101.789Z" stroke="#E6EFF0" stroke-width="2"/>
</g>
<g filter="url(#filter16_d_74_292)">
<path d="M63.1248 106.88L123.058 139.981L123.426 247.465V251.368C121.954 250.658 120.85 249.949 119.745 249.239L103.848 239.229V146.428L78.3959 130.765V217.693L61.167 209.078L63.1248 111.187V106.88Z" fill="url(#paint7_linear_74_292)"/>
</g>
<path d="M59.6007 100.615L63.1248 106.88L61.1669 209.078L57.2513 211.819L59.6007 100.615Z" fill="#2B3F4A"/>
<path d="M78.9253 218.025L82.7144 225.011L57.1188 212.09L57.1424 211.624C57.2075 210.337 58.0872 209.235 59.3279 208.887L60.1434 208.658C60.8738 208.453 61.6549 208.533 62.3292 208.88L77.6634 216.789C78.1985 217.065 78.6382 217.496 78.9253 218.025Z" fill="#2D373D"/>
<path d="M103.848 146.428V160.133L102.673 154.651L101.306 149.523C101.178 149.043 100.876 148.628 100.458 148.358L82.3115 136.639L78.3958 130.765L103.848 146.428Z" fill="#74797B"/>
<path d="M81.3862 134.48L82.3115 136.639V224.741L79.9621 220.825L78.0043 216.91L78.3959 130.765L80.7199 133.421C80.9961 133.737 81.221 134.094 81.3862 134.48Z" fill="#74797B"/>
<defs>
<filter id="filter0_d_74_292" x="0.400002" y="0.656837" width="278.218" height="358.666" filterUnits="userSpaceOnUse" color-interpolation-filters="sRGB">
<feFlood flood-opacity="0" result="BackgroundImageFix"/>
<feColorMatrix in="SourceAlpha" type="matrix" values="0 0 0 0 0 0 0 0 0 0 0 0 0 0 0 0 0 0 127 0" result="hardAlpha"/>
<feOffset dx="11" dy="17"/>
<feGaussianBlur stdDeviation="17.55"/>
<feComposite in2="hardAlpha" operator="out"/>
<feColorMatrix type="matrix" values="0 0 0 0 0 0 0 0 0 0 0 0 0 0 0 0 0 0 1 0"/>
<feBlend mode="normal" in2="BackgroundImageFix" result="effect1_dropShadow_74_292"/>
<feBlend mode="normal" in="SourceGraphic" in2="effect1_dropShadow_74_292" result="shape"/>
</filter>
<filter id="filter1_d_74_292" x="22.3132" y="18.7568" width="214.205" height="296.466" filterUnits="userSpaceOnUse" color-interpolation-filters="sRGB">
<feFlood flood-opacity="0" result="BackgroundImageFix"/>
<feColorMatrix in="SourceAlpha" type="matrix" values="0 0 0 0 0 0 0 0 0 0 0 0 0 0 0 0 0 0 127 0" result="hardAlpha"/>
<feOffset dy="4"/>
<feGaussianBlur stdDeviation="2"/>
<feComposite in2="hardAlpha" operator="out"/>
<feColorMatrix type="matrix" values="0 0 0 0 0 0 0 0 0 0 0 0 0 0 0 0 0 0 1 0"/>
<feBlend mode="normal" in2="BackgroundImageFix" result="effect1_dropShadow_74_292"/>
<feBlend mode="normal" in="SourceGraphic" in2="effect1_dropShadow_74_292" result="shape"/>
</filter>
<filter id="filter2_i_74_292" x="210" y="82" width="15.6626" height="19.6626" filterUnits="userSpaceOnUse" color-interpolation-filters="sRGB">
<feFlood flood-opacity="0" result="BackgroundImageFix"/>
<feBlend mode="normal" in="SourceGraphic" in2="BackgroundImageFix" result="shape"/>
<feColorMatrix in="SourceAlpha" type="matrix" values="0 0 0 0 0 0 0 0 0 0 0 0 0 0 0 0 0 0 127 0" result="hardAlpha"/>
<feOffset dy="4"/>
<feGaussianBlur stdDeviation="3.15"/>
<feComposite in2="hardAlpha" operator="arithmetic" k2="-1" k3="1"/>
<feColorMatrix type="matrix" values="0 0 0 0 0 0 0 0 0 0 0 0 0 0 0 0 0 0 1 0"/>
<feBlend mode="normal" in2="shape" result="effect1_innerShadow_74_292"/>
</filter>
<filter id="filter3_i_74_292" x="118" y="25" width="15.6626" height="19.6626" filterUnits="userSpaceOnUse" color-interpolation-filters="sRGB">
<feFlood flood-opacity="0" result="BackgroundImageFix"/>
<feBlend mode="normal" in="SourceGraphic" in2="BackgroundImageFix" result="shape"/>
<feColorMatrix in="SourceAlpha" type="matrix" values="0 0 0 0 0 0 0 0 0 0 0 0 0 0 0 0 0 0 127 0" result="hardAlpha"/>
<feOffset dy="4"/>
<feGaussianBlur stdDeviation="4.45"/>
<feComposite in2="hardAlpha" operator="arithmetic" k2="-1" k3="1"/>
<feColorMatrix type="matrix" values="0 0 0 0 0 0 0 0 0 0 0 0 0 0 0 0 0 0 1 0"/>
<feBlend mode="normal" in2="shape" result="effect1_innerShadow_74_292"/>
</filter>
<filter id="filter4_i_74_292" x="25" y="82" width="17.6626" height="15.6626" filterUnits="userSpaceOnUse" color-interpolation-filters="sRGB">
<feFlood flood-opacity="0" result="BackgroundImageFix"/>
<feBlend mode="normal" in="SourceGraphic" in2="BackgroundImageFix" result="shape"/>
<feColorMatrix in="SourceAlpha" type="matrix" values="0 0 0 0 0 0 0 0 0 0 0 0 0 0 0 0 0 0 127 0" result="hardAlpha"/>
<feOffset dx="-2"/>
<feGaussianBlur stdDeviation="4.35"/>
<feComposite in2="hardAlpha" operator="arithmetic" k2="-1" k3="1"/>
<feColorMatrix type="matrix" values="0 0 0 0 0 0 0 0 0 0 0 0 0 0 0 0 0 0 1 0"/>
<feBlend mode="normal" in2="shape" result="effect1_innerShadow_74_292"/>
</filter>
<filter id="filter5_i_74_292" x="25" y="151" width="17.6626" height="15.6626" filterUnits="userSpaceOnUse" color-interpolation-filters="sRGB">
<feFlood flood-opacity="0" result="BackgroundImageFix"/>
<feBlend mode="normal" in="SourceGraphic" in2="BackgroundImageFix" result="shape"/>
<feColorMatrix in="SourceAlpha" type="matrix" values="0 0 0 0 0 0 0 0 0 0 0 0 0 0 0 0 0 0 127 0" result="hardAlpha"/>
<feOffset dx="-2"/>
<feGaussianBlur stdDeviation="4.35"/>
<feComposite in2="hardAlpha" operator="arithmetic" k2="-1" k3="1"/>
<feColorMatrix type="matrix" values="0 0 0 0 0 0 0 0 0 0 0 0 0 0 0 0 0 0 1 0"/>
<feBlend mode="normal" in2="shape" result="effect1_innerShadow_74_292"/>
</filter>
<filter id="filter6_i_74_292" x="210" y="155" width="15.6626" height="19.6626" filterUnits="userSpaceOnUse" color-interpolation-filters="sRGB">
<feFlood flood-opacity="0" result="BackgroundImageFix"/>
<feBlend mode="normal" in="SourceGraphic" in2="BackgroundImageFix" result="shape"/>
<feColorMatrix in="SourceAlpha" type="matrix" values="0 0 0 0 0 0 0 0 0 0 0 0 0 0 0 0 0 0 127 0" result="hardAlpha"/>
<feOffset dy="4"/>
<feGaussianBlur stdDeviation="2"/>
<feComposite in2="hardAlpha" operator="arithmetic" k2="-1" k3="1"/>
<feColorMatrix type="matrix" values="0 0 0 0 0 0 0 0 0 0 0 0 0 0 0 0 0 0 0.81 0"/>
<feBlend mode="normal" in2="shape" result="effect1_innerShadow_74_292"/>
</filter>
<filter id="filter7_i_74_292" x="208" y="155" width="17.6626" height="15.6626" filterUnits="userSpaceOnUse" color-interpolation-filters="sRGB">
<feFlood flood-opacity="0" result="BackgroundImageFix"/>
<feBlend mode="normal" in="SourceGraphic" in2="BackgroundImageFix" result="shape"/>
<feColorMatrix in="SourceAlpha" type="matrix" values="0 0 0 0 0 0 0 0 0 0 0 0 0 0 0 0 0 0 127 0" result="hardAlpha"/>
<feOffset dx="-2"/>
<feGaussianBlur stdDeviation="4.35"/>
<feComposite in2="hardAlpha" operator="arithmetic" k2="-1" k3="1"/>
<feColorMatrix type="matrix" values="0 0 0 0 0 0 0 0 0 0 0 0 0 0 0 0 0 0 1 0"/>
<feBlend mode="normal" in2="shape" result="effect1_innerShadow_74_292"/>
</filter>
<filter id="filter8_i_74_292" x="118" y="281" width="15.6626" height="19.6626" filterUnits="userSpaceOnUse" color-interpolation-filters="sRGB">
<feFlood flood-opacity="0" result="BackgroundImageFix"/>
<feBlend mode="normal" in="SourceGraphic" in2="BackgroundImageFix" result="shape"/>
<feColorMatrix in="SourceAlpha" type="matrix" values="0 0 0 0 0 0 0 0 0 0 0 0 0 0 0 0 0 0 127 0" result="hardAlpha"/>
<feOffset dy="4"/>
<feGaussianBlur stdDeviation="2"/>
<feComposite in2="hardAlpha" operator="arithmetic" k2="-1" k3="1"/>
<feColorMatrix type="matrix" values="0 0 0 0 0 0 0 0 0 0 0 0 0 0 0 0 0 0 0.81 0"/>
<feBlend mode="normal" in2="shape" result="effect1_innerShadow_74_292"/>
</filter>
<filter id="filter9_i_74_292" x="118" y="281" width="15.6626" height="19.6626" filterUnits="userSpaceOnUse" color-interpolation-filters="sRGB">
<feFlood flood-opacity="0" result="BackgroundImageFix"/>
<feBlend mode="normal" in="SourceGraphic" in2="BackgroundImageFix" result="shape"/>
<feColorMatrix in="SourceAlpha" type="matrix" values="0 0 0 0 0 0 0 0 0 0 0 0 0 0 0 0 0 0 127 0" result="hardAlpha"/>
<feOffset dy="4"/>
<feGaussianBlur stdDeviation="4.45"/>
<feComposite in2="hardAlpha" operator="arithmetic" k2="-1" k3="1"/>
<feColorMatrix type="matrix" values="0 0 0 0 0 0 0 0 0 0 0 0 0 0 0 0 0 0 1 0"/>
<feBlend mode="normal" in2="shape" result="effect1_innerShadow_74_292"/>
</filter>
<filter id="filter10_f_74_292" x="43.7109" y="40.7034" width="164.361" height="236.048" filterUnits="userSpaceOnUse" color-interpolation-filters="sRGB">
<feFlood flood-opacity="0" result="BackgroundImageFix"/>
<feBlend mode="normal" in="SourceGraphic" in2="BackgroundImageFix" result="shape"/>
<feGaussianBlur stdDeviation="2" result="effect1_foregroundBlur_74_292"/>
</filter>
<filter id="filter11_d_74_292" x="49.4771" y="47.7531" width="150.915" height="229.21" filterUnits="userSpaceOnUse" color-interpolation-filters="sRGB">
<feFlood flood-opacity="0" result="BackgroundImageFix"/>
<feColorMatrix in="SourceAlpha" type="matrix" values="0 0 0 0 0 0 0 0 0 0 0 0 0 0 0 0 0 0 127 0" result="hardAlpha"/>
<feOffset dy="4"/>
<feGaussianBlur stdDeviation="1.4"/>
<feComposite in2="hardAlpha" operator="out"/>
<feColorMatrix type="matrix" values="0 0 0 0 0 0 0 0 0 0 0 0 0 0 0 0 0 0 0.09 0"/>
<feBlend mode="normal" in2="BackgroundImageFix" result="effect1_dropShadow_74_292"/>
<feBlend mode="normal" in="SourceGraphic" in2="effect1_dropShadow_74_292" result="shape"/>
</filter>
<filter id="filter12_d_74_292" x="94.3494" y="63.8073" width="65.4873" height="65.6024" filterUnits="userSpaceOnUse" color-interpolation-filters="sRGB">
<feFlood flood-opacity="0" result="BackgroundImageFix"/>
<feColorMatrix in="SourceAlpha" type="matrix" values="0 0 0 0 0 0 0 0 0 0 0 0 0 0 0 0 0 0 127 0" result="hardAlpha"/>
<feOffset dx="3" dy="6"/>
<feGaussianBlur stdDeviation="2"/>
<feComposite in2="hardAlpha" operator="out"/>
<feColorMatrix type="matrix" values="0 0 0 0 0 0 0 0 0 0 0 0 0 0 0 0 0 0 0.93 0"/>
<feBlend mode="normal" in2="BackgroundImageFix" result="effect1_dropShadow_74_292"/>
<feBlend mode="normal" in="SourceGraphic" in2="effect1_dropShadow_74_292" result="shape"/>
</filter>
<filter id="filter13_d_74_292" x="124.024" y="100.129" width="75.7104" height="160.819" filterUnits="userSpaceOnUse" color-interpolation-filters="sRGB">
<feFlood flood-opacity="0" result="BackgroundImageFix"/>
<feColorMatrix in="SourceAlpha" type="matrix" values="0 0 0 0 0 0 0 0 0 0 0 0 0 0 0 0 0 0 127 0" result="hardAlpha"/>
<feOffset dy="4"/>
<feGaussianBlur stdDeviation="2"/>
<feComposite in2="hardAlpha" operator="out"/>
<feColorMatrix type="matrix" values="0 0 0 0 0 0 0 0 0 0 0 0 0 0 0 0 0 0 0.86 0"/>
<feBlend mode="normal" in2="BackgroundImageFix" result="effect1_dropShadow_74_292"/>
<feBlend mode="normal" in="SourceGraphic" in2="effect1_dropShadow_74_292" result="shape"/>
</filter>
<filter id="filter14_d_74_292" x="125.33" y="106.88" width="70.259" height="152.488" filterUnits="userSpaceOnUse" color-interpolation-filters="sRGB">
<feFlood flood-opacity="0" result="BackgroundImageFix"/>
<feColorMatrix in="SourceAlpha" type="matrix" values="0 0 0 0 0 0 0 0 0 0 0 0 0 0 0 0 0 0 127 0" result="hardAlpha"/>
<feOffset dy="4"/>
<feGaussianBlur stdDeviation="2"/>
<feComposite in2="hardAlpha" operator="out"/>
<feColorMatrix type="matrix" values="0 0 0 0 0 0 0 0 0 0 0 0 0 0 0 0 0 0 0.86 0"/>
<feBlend mode="normal" in2="BackgroundImageFix" result="effect1_dropShadow_74_292"/>
<feBlend mode="normal" in="SourceGraphic" in2="effect1_dropShadow_74_292" result="shape"/>
</filter>
<filter id="filter15_d_74_292" x="53.0205" y="100.129" width="75.7104" height="160.819" filterUnits="userSpaceOnUse" color-interpolation-filters="sRGB">
<feFlood flood-opacity="0" result="BackgroundImageFix"/>
<feColorMatrix in="SourceAlpha" type="matrix" values="0 0 0 0 0 0 0 0 0 0 0 0 0 0 0 0 0 0 127 0" result="hardAlpha"/>
<feOffset dy="4"/>
<feGaussianBlur stdDeviation="2"/>
<feComposite in2="hardAlpha" operator="out"/>
<feColorMatrix type="matrix" values="0 0 0 0 0 0 0 0 0 0 0 0 0 0 0 0 0 0 0.86 0"/>
<feBlend mode="normal" in2="BackgroundImageFix" result="effect1_dropShadow_74_292"/>
<feBlend mode="normal" in="SourceGraphic" in2="effect1_dropShadow_74_292" result="shape"/>
</filter>
<filter id="filter16_d_74_292" x="57.167" y="106.88" width="70.259" height="152.488" filterUnits="userSpaceOnUse" color-interpolation-filters="sRGB">
<feFlood flood-opacity="0" result="BackgroundImageFix"/>
<feColorMatrix in="SourceAlpha" type="matrix" values="0 0 0 0 0 0 0 0 0 0 0 0 0 0 0 0 0 0 127 0" result="hardAlpha"/>
<feOffset dy="4"/>
<feGaussianBlur stdDeviation="2"/>
<feComposite in2="hardAlpha" operator="out"/>
<feColorMatrix type="matrix" values="0 0 0 0 0 0 0 0 0 0 0 0 0 0 0 0 0 0 0.86 0"/>
<feBlend mode="normal" in2="BackgroundImageFix" result="effect1_dropShadow_74_292"/>
<feBlend mode="normal" in="SourceGraphic" in2="effect1_dropShadow_74_292" result="shape"/>
</filter>
<linearGradient id="paint0_linear_74_292" x1="56.9759" y1="70.0722" x2="208.12" y2="262.723" gradientUnits="userSpaceOnUse">
<stop stop-color="#3A525E"/>
<stop offset="1" stop-color="#132630"/>
</linearGradient>
<linearGradient id="paint1_linear_74_292" x1="126.277" y1="33" x2="120.413" y2="251.88" gradientUnits="userSpaceOnUse">
<stop stop-color="#5D8AA9"/>
<stop offset="1" stop-color="#0B0C0C"/>
</linearGradient>
<linearGradient id="paint2_linear_74_292" x1="201.63" y1="251.872" x2="52.6239" y2="70.0073" gradientUnits="userSpaceOnUse">
<stop stop-color="#6F7274"/>
<stop offset="1" stop-color="#FBFDFD"/>
</linearGradient>
<linearGradient id="paint3_linear_74_292" x1="102.789" y1="131.157" x2="121.976" y2="151.518" gradientUnits="userSpaceOnUse">
<stop stop-color="#384A4E"/>
<stop offset="1" stop-color="#E7EAE8"/>
</linearGradient>
<linearGradient id="paint4_linear_74_292" x1="124.093" y1="63.8073" x2="124.093" y2="119.41" gradientUnits="userSpaceOnUse">
<stop stop-color="#153144"/>
<stop offset="1" stop-color="#111617"/>
</linearGradient>
<linearGradient id="paint5_linear_74_292" x1="136.666" y1="101.241" x2="121.067" y2="82.7696" gradientUnits="userSpaceOnUse">
<stop stop-color="#235267"/>
<stop offset="0.285" stop-color="#326680"/>
<stop offset="1" stop-color="white"/>
</linearGradient>
<linearGradient id="paint6_linear_74_292" x1="160.459" y1="106.88" x2="160.459" y2="251.368" gradientUnits="userSpaceOnUse">
<stop stop-color="#CED0D1"/>
<stop offset="1" stop-color="#6B7274"/>
</linearGradient>
<linearGradient id="paint7_linear_74_292" x1="60.8917" y1="114.711" x2="136.072" y2="275.253" gradientUnits="userSpaceOnUse">
<stop stop-color="#F9FBFB"/>
<stop offset="1" stop-color="#949595"/>
</linearGradient>
</defs>
</svg>
