<svg width="14" height="16" viewBox="0 0 14 16" fill="none" xmlns="http://www.w3.org/2000/svg">
<path d="M11.9898 3.14539L10.0653 2.77871C9.57897 2.68603 9.22602 2.25947 9.22602 1.76435V0.968986C9.22602 0.559316 8.89274 0.226082 8.48317 0.226082H5.4586C5.04898 0.226082 4.71575 0.559366 4.71575 0.968986V1.76435C4.71575 2.25942 4.3628 2.68598 3.87654 2.77871L1.95194 3.14539C0.750372 3.3744 -0.0857601 4.46678 0.00702236 5.68648L0.680525 14.5396C0.7099 14.9246 1.03526 15.226 1.4213 15.226H12.5205C12.9066 15.226 13.2319 14.9245 13.2612 14.5396L13.9347 5.68648C14.0275 4.46678 13.1914 3.3744 11.9898 3.14539ZM13.1938 5.6301L12.5204 14.483H10.897L10.5382 12.7664L11.7902 7.28929C11.8359 7.08931 11.7108 6.89002 11.5108 6.84435C11.3107 6.79848 11.1115 6.92376 11.0658 7.12379L9.7957 12.6801C9.78376 12.7323 9.78326 12.7864 9.79421 12.8389L10.1378 14.4831L3.80377 14.4832L4.14741 12.8389C4.15836 12.7864 4.15786 12.7323 4.14592 12.6801L2.8758 7.12379C2.83008 6.92376 2.63104 6.79858 2.43086 6.84435C2.23083 6.89007 2.10575 7.08931 2.15142 7.28929L3.40342 12.7664L3.04462 14.4831H1.4214L0.747945 5.6301C0.683844 4.78783 1.26125 4.03348 2.09099 3.87526L4.01559 3.50859C4.85182 3.34918 5.4588 2.61564 5.4588 1.76435L5.4586 0.969134L8.48297 0.968986V1.76435C8.48297 2.61569 9.08995 3.34918 9.92623 3.50859L11.8507 3.87526C12.6805 4.03343 13.2579 4.78783 13.1938 5.6301Z" fill="#E2E4E5"/>
<path d="M6.97105 4.65775C6.80693 4.65775 6.67383 4.79085 6.67383 4.95497V11.392C6.67383 11.5561 6.80693 11.6893 6.97105 11.6893C7.13516 11.6893 7.26827 11.5561 7.26827 11.392V4.95497C7.26827 4.7908 7.13521 4.65775 6.97105 4.65775Z" fill="#E2E4E5"/>
</svg>
