<svg width="11" height="11" viewBox="0 0 11 11" fill="none" xmlns="http://www.w3.org/2000/svg">
<path d="M4.85383 5.02186C4.85383 4.74672 5.14331 4.52368 5.50042 4.52368C5.85753 4.52368 6.14701 4.74672 6.14701 5.02186V6.01823H7.44019C7.79731 6.01823 8.08679 6.24126 8.08679 6.51641C8.08679 6.79155 7.79731 7.01459 7.44019 7.01459H6.14701V8.01095C6.14701 8.2861 5.85753 8.50913 5.50042 8.50913C5.14331 8.50913 4.85383 8.2861 4.85383 8.01095V7.01459H3.56065C3.20355 7.01459 2.91406 6.79155 2.91406 6.51641C2.91406 6.24126 3.20355 6.01823 3.56065 6.01823H4.85383V5.02186Z" fill="#74797B"/>
<path fill-rule="evenodd" clip-rule="evenodd" d="M4.57964 0.310393C5.07849 -0.103451 5.92119 -0.103467 6.41998 0.310363C7.03023 0.816624 8.15653 1.79881 9.13424 2.91888C10.1098 4.03646 11.0159 5.30948 10.9998 6.69208C10.9984 6.81438 10.99 6.986 10.9622 7.19071C10.9073 7.59742 10.7744 8.14946 10.4568 8.70882C10.1378 9.27061 9.62584 9.85035 8.80913 10.288C7.98867 10.7278 6.90563 11 5.49981 11C4.09402 11 3.01098 10.7278 2.19059 10.288C1.37391 9.85035 0.861972 9.27056 0.542995 8.70877C0.225409 8.14941 0.0926826 7.59742 0.0377223 7.19071C0.0100611 6.98595 0.00161649 6.81433 0.000206917 6.69203C-0.0157186 5.30943 0.890112 4.03653 1.86563 2.91891C2.84328 1.79884 3.96946 0.816659 4.57964 0.310393ZM5.49987 1.01118C4.90501 1.50617 3.84847 2.43265 2.93872 3.47493C2.11491 4.41875 1.27985 5.51034 1.29335 6.68321C1.29445 6.77886 1.30114 6.9186 1.32396 7.08753C1.36997 7.42809 1.47965 7.87242 1.72778 8.30942C1.9745 8.74399 2.35158 9.16062 2.92909 9.47014C3.50289 9.77771 4.3192 10.0036 5.49981 10.0036C6.68042 10.0036 7.49681 9.77771 8.07066 9.47014C8.6482 9.16062 9.02529 8.74399 9.27209 8.30942C9.52025 7.87242 9.62998 7.42804 9.67602 7.08748C9.69884 6.9186 9.70557 6.77881 9.70667 6.68316C9.72025 5.51029 8.88498 4.41869 8.06116 3.47493C7.15134 2.43264 6.09474 1.50617 5.49987 1.01118Z" fill="#74797B"/>
</svg>
