<svg width="15" height="13" viewBox="0 0 15 13" fill="none" xmlns="http://www.w3.org/2000/svg">
<g clip-path="url(#clip0_1504_9635)">
<path d="M5.3115 0.30806C5.3115 1.01607 5.3115 1.55238 5.3115 1.917C5.3115 2.46393 5.01041 2.67478 3.87572 2.96634C2.74104 3.25787 2.4051 3.42972 2.14005 3.9329C1.96335 4.26834 1.875 4.78628 1.875 5.48665V10.9331" stroke="#E2E4E5" stroke-width="0.4" stroke-linecap="round"/>
<path d="M10.919 5.93581C10.9932 6.83481 10.8409 7.61996 10.462 8.29124C10.083 8.96252 9.41408 9.37146 8.45508 9.51799" stroke="#E2E4E5" stroke-width="0.4" stroke-linecap="round" stroke-linejoin="round"/>
<path d="M4.08084 5.93581C4.00624 6.83481 4.15924 7.61996 4.5399 8.29124C4.92052 8.96252 5.59493 9.37146 6.56318 9.51799" stroke="#E2E4E5" stroke-width="0.4" stroke-linecap="round" stroke-linejoin="round"/>
<path d="M4.0625 12.8119C4.47916 12.326 4.6875 11.7976 4.6875 11.2268C4.6875 10.656 4.6875 9.78478 4.6875 8.61328" stroke="#E2E4E5" stroke-width="0.4" stroke-linecap="round"/>
<path d="M10.9375 12.8119C10.5208 12.326 10.3125 11.7976 10.3125 11.2268C10.3125 10.656 10.3125 9.78478 10.3125 8.61328" stroke="#E2E4E5" stroke-width="0.4" stroke-linecap="round"/>
<path d="M9.6875 0.30806C9.6875 1.01607 9.6875 1.55238 9.6875 1.917C9.6875 2.46393 9.98859 2.67478 11.1233 2.96634C12.2579 3.25787 12.5939 3.42972 12.8589 3.9329C13.0357 4.26834 13.124 4.78628 13.124 5.48665V10.9331" stroke="#E2E4E5" stroke-width="0.4" stroke-linecap="round"/>
</g>
<defs>
<clipPath id="clip0_1504_9635">
<rect width="15" height="12.5038" fill="white" transform="matrix(-1 0 0 1 15 0.30806)"/>
</clipPath>
</defs>
</svg>
