<svg width="15" height="16" viewBox="0 0 15 16" fill="none" xmlns="http://www.w3.org/2000/svg">
<path d="M12.6622 15.0129H2.33795C1.74728 15.0116 1.18115 14.7764 0.763484 14.3587C0.345816 13.9411 0.110621 13.375 0.109375 12.7843V3.78857C0.110509 3.19749 0.345963 2.63098 0.764119 2.21323C1.18227 1.79547 1.74901 1.56056 2.34009 1.56H12.6644C13.2555 1.56113 13.822 1.79659 14.2397 2.21474C14.6575 2.6329 14.8924 3.19963 14.8929 3.79071V12.7821C14.8923 13.3736 14.657 13.9405 14.2388 14.3587C13.8206 14.7769 13.2536 15.0122 12.6622 15.0129ZM2.33795 2.62928C2.03059 2.62962 1.73592 2.75187 1.51858 2.96921C1.30125 3.18654 1.179 3.48121 1.17866 3.78857V12.7821C1.17968 13.0891 1.30221 13.3831 1.51946 13.6C1.73671 13.8168 2.03099 13.9388 2.33795 13.9393H12.6622C12.9688 13.9384 13.2626 13.8162 13.4795 13.5994C13.6963 13.3826 13.8185 13.0888 13.8194 12.7821V3.78857C13.8186 3.48192 13.6964 3.18806 13.4796 2.97122C13.2627 2.75439 12.9689 2.63222 12.6622 2.63143L2.33795 2.62928Z" fill="#74797B"/>
<path d="M14.3574 7.54756H0.660714C0.518634 7.54756 0.382373 7.49112 0.281907 7.39066C0.181441 7.29019 0.125 7.15393 0.125 7.01185C0.125 6.86977 0.181441 6.73351 0.281907 6.63304C0.382373 6.53258 0.518634 6.47614 0.660714 6.47614H14.3574C14.4995 6.47614 14.6358 6.53258 14.7362 6.63304C14.8367 6.73351 14.8931 6.86977 14.8931 7.01185C14.8931 7.15393 14.8367 7.29019 14.7362 7.39066C14.6358 7.49112 14.4995 7.54756 14.3574 7.54756Z" fill="#74797B"/>
<path d="M4.05427 4.04354C3.9839 4.0436 3.91421 4.02978 3.84919 4.00288C3.78417 3.97597 3.72509 3.93652 3.67534 3.88676C3.62558 3.837 3.58612 3.77792 3.55922 3.7129C3.53232 3.64788 3.5185 3.57819 3.51855 3.50783V0.762826C3.51855 0.620746 3.575 0.484485 3.67546 0.384019C3.77593 0.283553 3.91219 0.227112 4.05427 0.227112C4.19635 0.227112 4.33261 0.283553 4.43308 0.384019C4.53354 0.484485 4.58998 0.620746 4.58998 0.762826V3.50783C4.58998 3.64991 4.53354 3.78617 4.43308 3.88663C4.33261 3.9871 4.19635 4.04354 4.05427 4.04354Z" fill="#74797B"/>
<path d="M10.9468 4.04354C10.8765 4.0436 10.8068 4.02978 10.7418 4.00288C10.6768 3.97597 10.6177 3.93652 10.5679 3.88676C10.5182 3.837 10.4787 3.77792 10.4518 3.7129C10.4249 3.64788 10.4111 3.57819 10.4111 3.50783V0.762826C10.4111 0.620746 10.4676 0.484485 10.568 0.384019C10.6685 0.283553 10.8048 0.227112 10.9468 0.227112C11.0889 0.227112 11.2252 0.283553 11.3257 0.384019C11.4261 0.484485 11.4826 0.620746 11.4826 0.762826V3.50783C11.4826 3.64991 11.4261 3.78617 11.3257 3.88663C11.2252 3.9871 11.0889 4.04354 10.9468 4.04354Z" fill="#74797B"/>
</svg>
