<svg width="12" height="13" viewBox="0 0 12 13" fill="none" xmlns="http://www.w3.org/2000/svg">
<path d="M11.5 6.2149C11.5003 5.8149 11.1706 5.50035 10.7506 5.5C10.3306 5.49965 10.0003 5.81367 10 6.21367C9.99968 6.61367 10.749 7.5 10.749 7.5C10.749 7.5 11.4997 6.58632 11.5 6.2149Z" fill="#04172F"/>
<path fill-rule="evenodd" clip-rule="evenodd" d="M6.04449 9.32375L11.3609 9.33012C11.7136 9.33052 11.9997 8.91515 12 8.40236C12.0003 7.88957 11.7146 7.47356 11.362 7.47312H11.3605C11.3862 7.5462 11.4003 7.62557 11.4003 7.70851C11.4001 8.06994 11.1313 8.36266 10.7998 8.36227C10.4684 8.36188 10.1999 8.06855 10.2001 7.70707C10.2002 7.62413 10.2144 7.54481 10.2402 7.47177L6.33307 7.46714L6.33334 7.00287L8.40029 7.00536C8.73169 7.00575 9.00058 6.61539 9.00085 6.13345L9.00091 6.02171C9.00118 5.53977 8.73274 5.14875 8.40134 5.14836L6.33439 5.14591L6.33466 4.68164L8.06821 4.68373C8.39963 4.68413 8.66853 4.29376 8.6688 3.81182L8.66886 3.70004C8.66913 3.21814 8.40068 2.82712 8.06926 2.82673L5.66893 2.8239L5.6692 2.35962L6.9027 2.36111C7.23413 2.3615 7.50299 1.97114 7.50326 1.48919L7.50332 1.37746C7.50359 0.895513 7.23515 0.504496 6.90375 0.504103L4.6701 0.501442L3.44014 0.500002C1.54176 0.497733 0.00155538 2.73375 1.16598e-06 5.4943C-0.00114499 7.52513 0.8428 9.35508 2.1353 10.1243L6.00063 12.4249C6.29275 12.5987 6.62876 12.4634 6.8177 12.0956C7.08182 11.5816 6.95239 10.8442 6.55111 10.5772L5.91941 10.1568C5.62624 9.96172 5.7221 9.3234 6.04449 9.32375Z" fill="#74797B"/>
</svg>
