<svg width="15" height="16" viewBox="0 0 15 16" fill="none" xmlns="http://www.w3.org/2000/svg">
<path d="M5.75501 6.52311C5.72814 6.85999 5.555 7.20936 5.30375 7.43497C5.21812 7.51185 5.18126 7.63059 5.20938 7.74309L5.33688 8.2537C5.36501 8.36559 5.45187 8.45307 5.56437 8.48119L6.68375 8.76057C6.83812 8.79868 6.98187 8.87307 7.11125 8.98182C7.24376 9.09244 7.44063 9.07557 7.55187 8.94244C7.66188 8.80993 7.64436 8.61306 7.5125 8.50182C7.31 8.33245 7.08251 8.21556 6.83563 8.15307L5.89751 7.91931L5.85813 7.76181C6.10127 7.49307 6.27438 7.14994 6.34563 6.79369C6.51251 6.70744 6.63438 6.54306 6.65876 6.34618L6.72626 5.80369C6.74688 5.63931 6.69626 5.47243 6.58689 5.34807C6.55314 5.30931 6.51438 5.27556 6.47252 5.24743L6.48878 4.91556L6.54564 4.85805C6.70689 4.68742 6.92501 4.32118 6.58001 3.79431C6.41627 3.54432 6.07938 3.24493 5.40251 3.24493C5.20314 3.24493 4.75376 3.24493 4.3175 3.5193C3.03125 3.5643 2.87999 4.25743 2.87999 4.78056C2.87999 4.88368 2.89874 5.07681 2.91623 5.23806C2.86997 5.26744 2.82811 5.30368 2.79061 5.34555C2.67937 5.47117 2.6281 5.63866 2.64937 5.80366L2.71687 6.34741C2.7425 6.55117 2.87187 6.71992 3.06248 6.80304C3.13247 7.14429 3.29624 7.47367 3.52435 7.73617L3.47873 7.91992L2.54062 8.15368C1.78124 8.34367 1.25 9.02368 1.25 9.80743C1.25 9.97993 1.39001 10.1199 1.56251 10.1199H5.97312C6.14563 10.1199 6.28563 9.97993 6.28563 9.80743C6.28563 9.63493 6.14565 9.49498 5.97315 9.49498L1.92189 9.49437C2.02877 9.1375 2.3169 8.85373 2.69313 8.75998L3.81313 8.48061C3.92501 8.45248 4.01249 8.36562 4.04062 8.25312L4.17374 7.72C4.20125 7.61064 4.16686 7.49439 4.08374 7.41687C3.84061 7.1875 3.68 6.85311 3.65311 6.52188C3.63998 6.35937 3.50123 6.27001 3.33811 6.27001L3.25748 5.77188C3.34748 5.77188 3.43247 5.73312 3.49186 5.66626C3.55124 5.59815 3.57872 5.50938 3.56747 5.42002C3.54371 5.23126 3.5056 4.89066 3.5056 4.78003C3.5056 4.45692 3.5056 4.15129 4.41934 4.14192C4.48309 4.1413 4.54558 4.12129 4.59808 4.08318C4.89564 3.86998 5.23815 3.86998 5.40251 3.86998C5.88251 3.86998 6.01314 4.06999 6.05876 4.13685C6.18564 4.33185 6.13376 4.38684 6.09875 4.42434L5.96313 4.55995C5.90814 4.61494 5.87562 4.68807 5.87187 4.76559L5.83813 5.44621C5.83437 5.5312 5.84437 5.58997 5.90313 5.65246C5.96126 5.71434 6.02187 5.7262 6.10689 5.72746L6.06626 6.23497C5.90313 6.23497 5.76813 6.35998 5.75501 6.52311Z" fill="#74797B"/>
<path d="M9.06251 5.12002H10.9375C11.11 5.12002 11.25 4.98001 11.25 4.80751C11.25 4.63501 11.11 4.495 10.9375 4.495H9.06251C8.89001 4.495 8.75 4.63501 8.75 4.80751C8.75 4.98001 8.89001 5.12002 9.06251 5.12002Z" fill="#74797B"/>
<path d="M13.4375 0.119995H1.56249C0.700635 0.119995 0 0.82063 0 1.68249V9.80748C0 10.6694 0.700635 11.37 1.56249 11.37H6.18624C6.35936 11.37 6.49875 11.23 6.49875 11.0575C6.49875 10.885 6.35874 10.745 6.18624 10.745H1.56249C1.04561 10.745 0.62499 10.3244 0.62499 9.80748V2.61999H14.375V8.75124C14.375 8.92374 14.515 9.06375 14.6875 9.06375C14.86 9.06375 15 8.92374 15 8.75124V1.68249C15 0.82063 14.2994 0.119995 13.4375 0.119995ZM14.375 1.995H0.62499V1.68249C0.62499 1.1656 1.04561 0.744985 1.56249 0.744985H13.4375C13.9544 0.744985 14.375 1.1656 14.375 1.68249V1.995H14.375Z" fill="#74797B"/>
<path d="M13.4375 5.12002C13.61 5.12002 13.75 4.98001 13.75 4.80751C13.75 4.63501 13.61 4.495 13.4375 4.495H12.1875C12.015 4.495 11.875 4.63501 11.875 4.80751C11.875 4.98001 12.015 5.12002 12.1875 5.12002H13.4375Z" fill="#74797B"/>
<path d="M15 10.12C15 9.85875 14.8056 9.67624 14.5275 9.67624C14.3706 9.67624 14.1019 9.75686 13.8706 9.88998C13.565 9.24498 13.065 8.67311 12.7069 8.49499C12.47 8.37686 11.6631 8.245 10.9375 8.245C10.2119 8.245 9.40499 8.37686 9.16748 8.49499C8.81061 8.67311 8.31061 9.24498 8.00437 9.88998C7.77248 9.75686 7.50374 9.67624 7.34686 9.67624C7.22811 9.67624 7.12622 9.70685 7.04436 9.76872C6.93561 9.85061 6.875 9.97559 6.875 10.12C6.875 10.6075 7.25313 10.9456 7.29687 10.9825C7.33062 11.0112 7.36938 11.0293 7.40937 11.0419C7.25999 11.4562 7.18751 11.9162 7.18751 12.3075C7.18751 12.7744 7.23063 13.5706 7.50002 13.9775V14.495C7.50002 14.8456 7.77438 15.12 8.12501 15.12H8.75C9.10062 15.12 9.37499 14.8456 9.37499 14.495V14.2831C9.75248 14.3775 10.3412 14.495 10.9375 14.495C11.5337 14.495 12.1225 14.3775 12.5 14.2831V14.495C12.5 14.8456 12.7743 15.12 13.125 15.12H13.75C14.1006 15.12 14.3749 14.8456 14.3749 14.495V13.9775C14.6443 13.5706 14.6875 12.7744 14.6875 12.3075C14.6875 11.9162 14.6149 11.4562 14.4656 11.0419C14.5056 11.03 14.5443 11.0119 14.5781 10.9825C14.6219 10.9456 15 10.6075 15 10.12ZM9.44563 9.05499C9.56249 9.00123 10.2294 8.86998 10.9375 8.86998C11.6456 8.86998 12.3125 9.00123 12.4275 9.05373C12.6644 9.17247 13.2144 9.79562 13.4331 10.475C12.8456 10.5575 11.4569 10.745 10.9375 10.745C10.4181 10.745 9.02876 10.5575 8.44127 10.475C8.66 9.79562 9.20999 9.1725 9.44563 9.05499ZM7.68061 10.4856C7.6606 10.4656 7.62998 10.4331 7.59374 10.38C7.63499 10.3994 7.67436 10.4213 7.71125 10.4431C7.70123 10.4575 7.69063 10.4706 7.68061 10.4856ZM8.75 14.495H8.12501V14.1825H8.75V14.495ZM13.75 14.495H13.125V14.1825H13.75V14.495ZM13.8937 13.5575H12.8125C12.7793 13.5575 12.7462 13.5631 12.7137 13.5731C12.705 13.5763 11.81 13.87 10.9375 13.87C10.065 13.87 9.16997 13.5762 9.16124 13.5737C9.15061 13.5706 9.14 13.5731 9.12936 13.5713C9.10748 13.5662 9.08624 13.5575 9.06248 13.5575H7.97999C7.89811 13.3706 7.81185 12.94 7.81185 12.3081C7.81185 12.2088 7.81936 12.1032 7.83061 11.9963C8.25061 12.0081 8.74997 12.15 8.74997 12.3075C8.74997 12.48 8.88998 12.62 9.06248 12.62C9.23498 12.62 9.37499 12.48 9.37499 12.3075C9.37499 11.5438 8.34374 11.4031 7.95313 11.3769C7.98813 11.2625 8.03 11.155 8.07749 11.0538L8.07937 11.0544C8.16687 11.0675 10.23 11.37 10.9375 11.37C11.645 11.37 13.7081 11.0675 13.7956 11.0544L13.7969 11.0538C13.8443 11.155 13.8862 11.2625 13.9212 11.3769C13.5306 11.4031 12.5 11.5444 12.5 12.3075C12.5 12.48 12.64 12.62 12.8125 12.62C12.985 12.62 13.125 12.48 13.125 12.3075C13.125 12.1469 13.6212 12.0094 14.0437 11.9963C14.055 12.1031 14.0625 12.2087 14.0625 12.3075C14.0625 12.94 13.9756 13.3706 13.8937 13.5575ZM14.1937 10.485C14.1838 10.4706 14.1737 10.4569 14.1631 10.4431C14.2 10.4213 14.24 10.3988 14.2806 10.3794C14.25 10.4256 14.2187 10.46 14.1937 10.485Z" fill="#74797B"/>
<path d="M9.06251 6.99502H13.4375C13.61 6.99502 13.75 6.85501 13.75 6.68251C13.75 6.51001 13.61 6.37 13.4375 6.37H9.06251C8.89001 6.37 8.75 6.51001 8.75 6.68251C8.75 6.85501 8.89001 6.99502 9.06251 6.99502Z" fill="#74797B"/>
<path d="M11.5625 11.995H10.3125C10.14 11.995 10 12.135 10 12.3075C10 12.48 10.14 12.62 10.3125 12.62H11.5625C11.735 12.62 11.875 12.48 11.875 12.3075C11.875 12.135 11.735 11.995 11.5625 11.995Z" fill="#74797B"/>
</svg>
