<svg width="15" height="15" viewBox="0 0 15 15" fill="none" xmlns="http://www.w3.org/2000/svg">
<g clip-path="url(#clip0_1504_9771)">
<g clip-path="url(#clip1_1504_9771)">
<path d="M4.86328 0.482231C8.84363 -0.31874 11.1864 1.87145 11.5195 3.3045C11.7015 4.08741 11.8335 4.6686 11.8994 5.12969C11.9634 5.57742 11.9604 5.89215 11.8896 6.15411C11.8383 6.23077 11.7958 6.31197 11.7744 6.40508C11.7491 6.51569 11.7549 6.62672 11.7832 6.74297C11.8366 6.96246 11.9801 7.23041 12.1943 7.59649C12.3073 7.78955 12.4503 7.98999 12.5693 8.1668C12.6938 8.35161 12.7912 8.51048 12.8408 8.64336C12.8908 8.7772 12.8724 8.82946 12.8516 8.85625C12.8267 8.88809 12.7612 8.93636 12.6045 8.97344L12.415 9.00567L12.4023 9.00762C12.1842 9.04838 12.0168 9.12108 11.9102 9.23614C11.7945 9.36115 11.7753 9.50795 11.7979 9.63067C11.8189 9.74489 11.8758 9.84195 11.918 9.90313C11.9393 9.93407 11.9591 9.95997 11.9746 9.97832C11.9757 9.9819 11.9775 9.98581 11.9785 9.99004C11.9844 10.0152 11.9861 10.0405 11.9814 10.0613C11.9779 10.0771 11.9696 10.0968 11.9395 10.1189C11.905 10.1441 11.8329 10.1781 11.6914 10.1941L11.3994 10.2273L11.5381 10.4871V10.4881C11.5387 10.4892 11.5398 10.4915 11.541 10.4939C11.5437 10.4992 11.5486 10.5072 11.5537 10.5174C11.5641 10.5381 11.5783 10.5684 11.5947 10.6043C11.628 10.677 11.6672 10.7705 11.6953 10.8611C11.7155 10.9261 11.724 10.9774 11.7275 11.0135C11.5478 11.0212 11.3948 11.0649 11.2803 11.1824C11.1936 11.2714 11.1465 11.3863 11.1133 11.4988L11.084 11.6092C11.071 11.6625 11.0635 11.74 11.0566 11.8016C11.0489 11.8714 11.0397 11.9484 11.0234 12.0291C10.9904 12.1927 10.9325 12.3556 10.8213 12.4803C10.6317 12.6926 10.1936 12.8867 9.1084 12.5174L8.88281 12.4354C8.78818 12.3905 8.68927 12.369 8.58887 12.3787C8.48213 12.3892 8.38974 12.4332 8.31152 12.492C8.16182 12.6045 8.04744 12.7858 7.95605 12.9695C7.86227 13.1581 7.77855 13.3774 7.7002 13.5867C7.66027 13.6934 7.62214 13.7975 7.58398 13.8963L7.46875 14.1756C7.41711 14.2901 7.37258 14.3952 7.31641 14.4939C7.26133 14.5907 7.20313 14.6656 7.13477 14.7166C7.03166 14.7935 6.85694 14.8512 6.51172 14.7313L6.35352 14.6688C5.92179 14.4792 5.23022 14.1609 4.55859 13.7381C3.96698 13.3656 3.40832 12.9227 3.05078 12.4295L2.91016 12.2147C2.84387 12.1007 2.83087 11.9646 2.86133 11.7791C2.89298 11.5867 2.96423 11.378 3.04199 11.117C3.19317 10.6096 3.34504 9.97365 3.06641 9.24004C2.80816 8.56015 2.62802 8.29563 2.42871 8.10821C2.2361 7.92709 2.10697 7.87761 1.86914 7.53008H1.86816C1.45113 6.91838 1.26061 6.13519 1.1709 5.35821L1.1377 5.0252V4.99493C1.13742 4.96832 1.13721 4.92837 1.13867 4.87676C1.14161 4.77294 1.1503 4.62221 1.17285 4.43829C1.21808 4.06961 1.31945 3.57047 1.54199 3.04864C1.98389 2.01265 2.90686 0.875953 4.86328 0.482231Z" stroke="#E2E4E5" stroke-width="0.4"/>
</g>
</g>
<defs>
<clipPath id="clip0_1504_9771">
<rect width="15" height="15" fill="white" transform="matrix(-1 0 0 1 15 0)"/>
</clipPath>
<clipPath id="clip1_1504_9771">
<rect width="15" height="15" fill="white"/>
</clipPath>
</defs>
</svg>
