<svg width="31" height="30" viewBox="0 0 31 30" fill="none" xmlns="http://www.w3.org/2000/svg">
<path d="M24.1259 23.939C23.5101 25.9097 19.4887 26.9677 15.5536 26.9886C11.6196 26.9677 7.59336 25.9158 6.98246 23.939C6.61297 22.7615 7.75594 22.1974 8.23506 19.1699C8.68338 16.3432 7.72515 15.7803 7.9333 12.5632C8.07125 10.4693 8.20673 8.41736 9.65762 6.63265C11.7514 4.07815 15.0276 4.00795 15.4464 4.00302C15.8245 4.00302 19.2436 4.01287 21.4261 6.63265C23.3721 8.97284 23.1196 12.0114 23.1566 12.5632C23.3684 15.7791 22.4102 16.342 22.8585 19.1687C23.3524 22.1974 24.4905 22.7615 24.1259 23.939Z" fill="#2D2D2D"/>
<path d="M26.989 24.6458C26.6303 25.0726 26.2479 25.4789 25.8435 25.8627C23.0558 28.5217 19.3502 30.0036 15.4976 29.9999C12.3064 29.9999 9.63618 28.8914 7.68401 27.6881C6.813 27.1527 5.99005 26.5428 5.22439 25.8652C4.83238 25.5189 4.46217 25.1487 4.1159 24.7567C4.08634 24.7247 4.05432 24.684 4.01367 24.6335C4.93641 23.7115 5.98412 22.9238 7.12607 22.2933C8.20623 21.698 9.35034 21.227 10.5365 20.8892C12.1837 22.3475 13.8316 23.8046 15.4804 25.2604L20.4698 20.8892C20.5043 20.9003 20.5425 20.9089 20.577 20.9188C20.5871 20.9248 20.5985 20.9286 20.6102 20.9299C21.7417 21.2641 22.8343 21.7183 23.8692 22.2847C25.0146 22.9218 26.0648 23.7166 26.989 24.6458Z" fill="#FF725E"/>
<path d="M20.4655 20.9027L15.4761 25.274C13.8257 23.8173 12.1777 22.3602 10.5322 20.9027L10.6554 20.8683L10.7613 20.8387C10.7909 20.8301 10.8254 20.8227 10.8611 20.8116H10.8685C10.9916 20.7796 11.1444 20.7389 11.3094 20.7007C12.6995 21.8922 14.0888 23.0828 15.4773 24.2726C16.8839 23.0795 18.2896 21.8889 19.6945 20.7007C20.0603 20.787 20.3461 20.8683 20.4655 20.9027Z" fill="#7C211A"/>
<path d="M19.6898 20.7008C18.2833 21.8923 16.8775 23.0829 15.4726 24.2727C14.0817 23.0796 12.6924 21.889 11.3047 20.7008C11.482 20.6577 11.6742 20.6171 11.8577 20.5776C12.0412 20.5382 12.2063 20.5099 12.3713 20.4828C12.4557 20.2761 12.524 20.0632 12.5758 19.846C12.6053 19.7229 12.6275 19.6145 12.6435 19.5061C12.972 19.7824 13.3372 20.012 13.7286 20.1884C13.7914 20.2155 13.8616 20.2488 13.9454 20.2833C14.4226 20.4859 14.9357 20.5904 15.4541 20.5904C15.9726 20.5904 16.4857 20.4859 16.9629 20.2833C17.0738 20.2377 17.1711 20.1946 17.2499 20.1601C17.6354 19.9789 17.9956 19.7483 18.3214 19.4741C18.3572 19.6342 18.4003 19.8005 18.4446 19.9766C18.4889 20.1527 18.5579 20.3301 18.6183 20.489C18.6198 20.4882 18.6215 20.4878 18.6232 20.4878C18.6249 20.4878 18.6266 20.4882 18.6281 20.489C18.7845 20.5161 18.9311 20.5419 19.0604 20.569C19.2858 20.606 19.4903 20.6528 19.6898 20.7008Z" fill="#EAB198"/>
<path opacity="0.2" d="M20.6087 20.9386C20.5053 21.0618 20.4006 21.1689 20.2922 21.2761C20.0507 21.5189 19.7918 21.7437 19.5175 21.9486C19.1581 22.2187 18.7652 22.441 18.3486 22.61C18.0874 22.7176 17.8159 22.7981 17.5382 22.8502C17.2947 22.8972 17.0471 22.9191 16.7992 22.9155C16.3091 22.9062 15.8249 22.8055 15.3717 22.6186L15.2904 22.5854C14.9287 22.4313 14.5861 22.2358 14.2694 22.0028C13.6727 21.558 13.1466 21.0257 12.7089 20.4238C12.6387 20.3289 12.5685 20.2316 12.502 20.1319C12.5143 20.0888 12.5278 20.0457 12.5414 19.9988C12.5861 19.8366 12.6223 19.6722 12.6498 19.5062C12.7224 19.5653 12.7988 19.622 12.8715 19.6761C13.0716 19.8224 13.2819 19.9541 13.5008 20.0703L13.5649 20.106L13.6437 20.1454L13.7348 20.1885L13.789 20.2132L13.8346 20.2353L13.8913 20.2587L13.9479 20.2809L13.9726 20.292C13.9947 20.3031 14.0157 20.3105 14.0378 20.3191C14.06 20.3277 14.0945 20.3376 14.1216 20.3486C14.1511 20.3597 14.1807 20.3708 14.2078 20.3782L14.23 20.3868L14.294 20.4053C14.3248 20.4164 14.3568 20.4275 14.3864 20.4349C14.4011 20.4371 14.4155 20.4408 14.4295 20.4459L14.5182 20.4706C14.7018 20.5175 14.8887 20.5504 15.0773 20.5691C15.097 20.5703 15.1168 20.5703 15.1365 20.5691C15.15 20.5703 15.1636 20.5703 15.1771 20.5691C15.202 20.5724 15.2271 20.5745 15.2522 20.5753H15.32H15.469C15.8755 20.5725 16.2791 20.506 16.665 20.3782H16.6723C16.6859 20.372 16.7031 20.3671 16.7167 20.3622C16.7967 20.3376 16.8756 20.3055 16.9569 20.2747C16.9636 20.2709 16.9706 20.2676 16.9778 20.2649C17.0135 20.2513 17.048 20.2353 17.08 20.2218L17.1071 20.2107C17.4671 20.0478 17.8086 19.8467 18.1257 19.6109L18.3252 19.4569C18.3609 19.6244 18.409 19.8055 18.4656 19.9939C18.5223 20.1824 18.5716 20.324 18.6282 20.4718L18.7625 20.4964L18.8979 20.5211L19.0297 20.5457L19.1295 20.5667C19.1515 20.57 19.1733 20.5745 19.1948 20.5802C19.3623 20.6159 19.5298 20.6504 19.6874 20.6911C19.9502 20.7526 20.2088 20.82 20.4634 20.893L20.6087 20.9386Z" fill="black"/>
<path d="M22.6443 14.0214C22.6246 14.6606 22.2169 15.3072 21.7599 15.545C21.6987 15.5773 21.6338 15.6021 21.5666 15.6189H21.5518C21.4657 15.6398 21.3762 15.6416 21.2893 15.6241C21.2025 15.6067 21.1206 15.5704 21.0493 15.5179C21.037 15.5103 21.0255 15.5017 21.0148 15.492C20.9635 15.4522 20.9171 15.4063 20.8769 15.3553C20.548 14.9599 20.4125 14.2147 20.6305 13.6211C20.7188 13.3885 20.8543 13.1767 21.0283 12.9991C21.1746 12.8416 21.3639 12.7307 21.5727 12.6801C21.6686 12.6604 21.7675 12.6604 21.8634 12.6801C22.4103 12.7909 22.6603 13.4868 22.6443 14.0214Z" fill="#EAB198"/>
<path opacity="0.3" d="M22.6448 14.0214C22.6251 14.6606 22.2175 15.306 21.7617 15.5462C21.6992 15.5763 21.6341 15.6006 21.5671 15.6189C21.5671 15.6189 21.5585 15.6189 21.5511 15.6189C21.4651 15.6393 21.3757 15.6409 21.289 15.6237C21.2023 15.6065 21.1203 15.5708 21.0486 15.5191L21.0141 15.492C20.9636 15.4526 20.9181 15.4071 20.8787 15.3565C20.5461 14.9599 20.4143 14.2148 20.6323 13.6211C20.7197 13.3884 20.8548 13.1765 21.0289 12.9991C21.1384 12.8858 21.2684 12.7943 21.412 12.7293C21.4636 12.7079 21.5172 12.6919 21.5721 12.6813C21.6679 12.661 21.7669 12.661 21.8627 12.6813C21.8773 12.6841 21.8917 12.6878 21.9059 12.6924C22.4256 12.8279 22.6609 13.5028 22.6448 14.0214Z" fill="black"/>
<path d="M10.1119 15.3602C10.0622 15.4218 10.0042 15.4761 9.93947 15.5216C9.86817 15.5741 9.78623 15.6104 9.69941 15.6278C9.61259 15.6453 9.523 15.6435 9.43695 15.6226H9.42217C9.35498 15.6058 9.29006 15.581 9.2288 15.5487C8.77186 15.311 8.36664 14.6643 8.34447 14.0251C8.32846 13.4906 8.57849 12.7934 9.12165 12.6863C9.42956 12.6235 9.72516 12.7737 9.95671 13.0065C10.1312 13.1839 10.2667 13.3957 10.3545 13.6285C10.5762 14.2185 10.4408 14.9624 10.1119 15.3602Z" fill="#EAB198"/>
<path d="M21.5759 12.6765V12.6864C21.5759 12.7344 21.5759 12.7861 21.5759 12.8366C21.5157 13.745 21.3287 14.6405 21.0204 15.4971C20.9847 15.5968 20.9465 15.6966 20.9096 15.7964C20.3258 17.2842 19.4131 18.596 18.3231 19.468L18.1236 19.6219C17.8065 19.8578 17.465 20.0589 17.105 20.2218L17.0779 20.2329C17.0459 20.2464 17.0114 20.2624 16.9756 20.276C16.9684 20.2787 16.9614 20.282 16.9547 20.2858C16.8734 20.3166 16.7946 20.3486 16.7145 20.3733C16.701 20.3733 16.6837 20.3831 16.6702 20.3893H16.6628C16.2769 20.5171 15.8734 20.5836 15.4669 20.5864H15.3178H15.2501C15.225 20.5856 15.1999 20.5835 15.175 20.5802C15.1614 20.5814 15.1478 20.5814 15.1343 20.5802C15.1146 20.5814 15.0949 20.5814 15.0752 20.5802C14.8875 20.5618 14.7014 20.5292 14.5185 20.4829L14.4298 20.4583C14.4159 20.4531 14.4014 20.4494 14.3867 20.4472C14.3571 20.4398 14.3251 20.4287 14.2943 20.4176L14.2303 20.3991L14.2081 20.3905C14.181 20.3831 14.1515 20.372 14.1219 20.361C14.0948 20.3499 14.0677 20.3412 14.0381 20.3314C14.0086 20.3215 13.995 20.3154 13.9729 20.3043L13.9482 20.2932L13.8916 20.271L13.8349 20.2476L13.7894 20.2255L13.7352 20.2008L13.644 20.1577L13.5652 20.1183L13.5011 20.0826C13.2822 19.9664 13.0719 19.8347 12.8718 19.6885C12.7991 19.6343 12.7227 19.5776 12.6501 19.5185C12.5552 19.4421 12.4641 19.3645 12.3717 19.2832C12.2793 19.2019 12.1907 19.1182 12.1044 19.0295C12.0182 18.9408 11.9271 18.8509 11.8458 18.7598C11.7645 18.6686 11.6758 18.5701 11.5995 18.474C10.3781 16.9443 9.63176 15.0902 9.45269 13.1409C9.43914 13.0177 9.43175 12.8871 9.4256 12.7603C9.40457 12.3136 9.41816 11.866 9.46624 11.4214C9.48841 11.2404 9.51181 11.0618 9.54507 10.8844C9.58571 10.6676 9.63374 10.4496 9.69656 10.2279C9.83862 9.69485 10.0299 9.17614 10.268 8.67848C10.789 7.58475 11.5428 6.5563 12.485 5.82469C13.3472 5.15712 14.3559 4.73588 15.4927 4.73342C17.3254 4.7248 18.8428 5.80252 19.9045 7.2522C20.3355 7.84187 20.6925 8.4822 20.9674 9.15884C21.0377 9.32881 21.1005 9.49878 21.1596 9.67122C21.2942 10.0674 21.3996 10.4729 21.4749 10.8844C21.5057 11.0569 21.5315 11.2318 21.5513 11.4079C21.592 11.8295 21.6003 12.2536 21.5759 12.6765Z" fill="#EAB198"/>
<path opacity="0.2" d="M21.583 12.6863C21.5719 12.8624 21.5583 13.0053 21.5423 13.1568C21.5177 13.3945 21.5054 13.5103 21.4992 13.5189C21.3514 13.7652 20.1715 13.5558 18.4484 12.6358C17.1071 11.9177 16.9605 11.6344 15.6599 10.8424C13.7225 9.66127 12.752 9.06391 11.6804 9.23757C9.99184 9.50731 9.1149 11.3425 8.7959 11.2354C9.15801 11.3129 9.72703 9.41001 11.2826 8.89517C12.8382 8.38032 14.6931 9.49253 16.5984 10.6281C17.1983 10.9878 17.9841 11.5273 19.2847 12.1222C21.0804 12.94 21.445 12.77 21.5805 12.6838C21.5805 12.6863 21.5805 12.6863 21.583 12.6863Z" fill="black"/>
<path d="M21.5833 12.6863C21.4478 12.7726 21.0832 12.9425 19.2875 12.1247C17.9868 11.5298 17.201 10.9903 16.6012 10.6307C14.6958 9.49506 12.8434 8.38778 11.2854 8.8977C9.72734 9.40761 9.15585 11.313 8.7962 11.2354L8.77527 11.2268C8.508 11.1036 8.68043 9.94955 9.07456 8.95558C9.66822 7.46279 11.1561 5.34677 13.7918 4.65826C14.3522 4.51169 16.5187 3.9796 18.6297 5.19527C20.7162 6.39616 21.332 8.4272 21.6153 9.37436C21.7126 9.70691 22.4343 12.1124 21.5833 12.6863Z" fill="#2D2D2D"/>
</svg>
