<svg width="11" height="11" viewBox="0 0 11 11" fill="none" xmlns="http://www.w3.org/2000/svg">
<path d="M10.1251 1.64176C9.8478 1.35889 9.51728 1.13373 9.15255 0.979256C8.78783 0.824786 8.39613 0.744068 8.00005 0.74176C7.02505 0.74176 6.00005 1.51676 5.50005 2.36676C5.00005 1.51676 3.97505 0.74176 3.00005 0.74176C2.60397 0.744068 2.21227 0.824786 1.84755 0.979256C1.48283 1.13373 1.15231 1.35889 0.875052 1.64176C0.595585 1.92025 0.374302 2.25154 0.224083 2.61636C0.0738636 2.98118 -0.00229069 3.37223 5.24726e-05 3.76676C0.0103567 4.29065 0.166162 4.80134 0.450052 5.24176H2.97505L3.77505 3.86676C3.80043 3.83065 3.83412 3.80118 3.87328 3.78084C3.91244 3.76049 3.95592 3.74987 4.00005 3.74987C4.04418 3.74987 4.08767 3.76049 4.12683 3.78084C4.16599 3.80118 4.19968 3.83065 4.22505 3.86676L5.50005 6.01676L5.97505 5.24176H7.97505C8.09858 5.2395 8.21895 5.28088 8.31498 5.35862C8.41101 5.43636 8.47654 5.54547 8.50005 5.66676C8.51093 5.73842 8.5061 5.81159 8.48589 5.8812C8.46568 5.9508 8.43058 6.01519 8.38302 6.06988C8.33546 6.12458 8.27657 6.16828 8.21045 6.19796C8.14432 6.22763 8.07253 6.24258 8.00005 6.24176H6.52505L5.72505 7.61676C5.69968 7.65287 5.66599 7.68234 5.62683 7.70268C5.58767 7.72303 5.54418 7.73365 5.50005 7.73365C5.45592 7.73365 5.41244 7.72303 5.37328 7.70268C5.33412 7.68234 5.30043 7.65287 5.27505 7.61676L4.00005 5.46676L3.52505 6.24176H1.20005C1.20005 6.25502 1.20532 6.26774 1.2147 6.27712C1.22407 6.28649 1.23679 6.29176 1.25005 6.29176C1.75005 6.86676 4.57505 9.86676 5.32505 10.6668C5.37178 10.7126 5.43461 10.7382 5.50005 10.7382C5.56549 10.7382 5.62832 10.7126 5.67505 10.6668C6.42505 9.86676 9.25005 6.86676 9.75005 6.29176C10.2501 5.71676 11.0001 4.79176 11.0001 3.76676C11.0024 3.37223 10.9262 2.98118 10.776 2.61636C10.6258 2.25154 10.4045 1.92025 10.1251 1.64176Z" fill="#74797B"/>
</svg>
