<svg width="16" height="16" viewBox="0 0 16 16" fill="none" xmlns="http://www.w3.org/2000/svg">
<path d="M12.6084 15.43V0.860962M12.6084 15.43L9.7168 12.5162M12.6084 15.43L15.5 12.5162M12.6084 0.860962L9.7168 3.77476M12.6084 0.860962L15.5 3.77476" stroke="#74797B" stroke-linecap="round" stroke-linejoin="round"/>
<path d="M4.23662 0.429993C5.06454 0.429993 5.7386 0.988471 5.7386 1.67443C5.7386 2.36039 5.06454 2.91887 4.23662 2.91887C3.40871 2.91887 2.73465 2.36039 2.73465 1.67443C2.73465 0.988471 3.40871 0.429993 4.23662 0.429993ZM6.12692 3.2406H2.37564C1.33525 3.2406 0.5 3.93263 0.5 4.79463V8.59471C0.5 8.89216 0.785742 9.14105 1.1594 9.14105C1.53307 9.14105 1.81881 8.9043 1.81881 8.59471V5.10422C1.81881 5.01923 1.90673 4.94639 2.0093 4.94639C2.11188 4.94639 2.1998 5.01923 2.1998 5.10422V14.5255C2.1998 14.9929 2.61742 15.3754 3.13762 15.3754C3.65781 15.3754 4.07544 14.9929 4.07544 14.5255V9.15319C4.07544 9.0682 4.16336 8.99536 4.26593 8.99536C4.36851 8.99536 4.45643 9.0682 4.45643 9.15319V14.5255C4.45643 14.9929 4.87405 15.3754 5.39425 15.3754C5.91444 15.3754 6.33207 14.9929 6.33207 14.5255V5.10422C6.33207 5.01923 6.41999 4.94639 6.52256 4.94639C6.62513 4.94639 6.71305 5.01923 6.71305 5.10422V8.60078C6.71305 8.89823 6.9988 9.14712 7.37246 9.14712C7.74612 9.14712 8.03186 8.91037 8.03186 8.60078V4.79463C8.00256 3.93263 7.14533 3.2406 6.12692 3.2406Z" fill="#74797B"/>
</svg>
