<svg width="282" height="274" viewBox="0 0 282 274" fill="none" xmlns="http://www.w3.org/2000/svg">
<path d="M80.6694 2.16357H4.0481V128.994H80.6694V2.16357Z" fill="#E0E0E0"/>
<path d="M78.1213 2.16357H1.5V128.994H78.1213V2.16357Z" fill="#EBEBEB"/>
<path d="M74.8587 4.73553H4.76245V126.422H74.8587V4.73553Z" fill="#FAFAFA"/>
<path d="M61.2104 20.548H18.1074V110.61H61.2104V20.548Z" fill="#EBEBEB"/>
<path d="M18.1074 78.7397C18.0075 70.3269 25.5719 62.1134 33.9036 60.939C37.8762 60.3791 42.097 61.1671 45.8089 59.6451C52.4345 56.928 54.5427 48.1251 61.2104 45.5142L61.5145 110.61H18.1074V78.7397Z" fill="#E0E0E0"/>
<path d="M249.008 37.4603L242.719 37.4943L242.888 68.7869L249.177 68.7529L249.008 37.4603Z" fill="#E0E0E0"/>
<path d="M204.518 37.5647L188.232 37.651L188.323 54.9264L204.609 54.8401L204.518 37.5647Z" fill="#EBEBEB"/>
<path d="M220.731 37.4566L204.445 37.5446L204.539 54.8199L220.824 54.732L220.731 37.4566Z" fill="#F5F5F5"/>
<path d="M188.257 42.4112C199.08 42.5004 209.929 42.4376 220.751 42.2616C220.973 42.2585 220.972 41.9166 220.749 41.9154C209.926 41.8557 199.077 41.9085 188.256 42.114C188.065 42.1184 188.066 42.4093 188.257 42.4112Z" fill="#E0E0E0"/>
<path d="M207.672 54.5314L178.084 54.6912L178.16 68.7693L207.748 68.6096L207.672 54.5314Z" fill="#EBEBEB"/>
<path d="M237.12 54.3724L207.532 54.5322L207.608 68.6104L237.196 68.4506L237.12 54.3724Z" fill="#F5F5F5"/>
<path d="M178.098 58.614C197.754 58.8364 217.479 58.6372 237.134 58.3224C237.356 58.3186 237.355 57.9774 237.132 57.9762C217.475 57.8725 197.749 57.8838 178.097 58.3167C177.906 58.3218 177.907 58.6121 178.098 58.614Z" fill="#E0E0E0"/>
<path d="M281.666 68.7767H167.034V73.82H281.666V68.7767Z" fill="#E0E0E0"/>
<path d="M190.455 71.2016H185.801V88.4116H190.455V71.2016Z" fill="#E0E0E0"/>
<path d="M259.922 71.2016H255.269V88.4116H259.922V71.2016Z" fill="#E0E0E0"/>
<path d="M255.143 25.7915L248.854 25.8255L249.087 68.8631L255.376 68.8292L255.143 25.7915Z" fill="#EBEBEB"/>
<path d="M264.97 33.8063L255.198 33.8591L255.386 68.7366L265.158 68.6838L264.97 33.8063Z" fill="#F5F5F5"/>
<path d="M264.898 40.5336C264.898 40.6272 262.711 40.7026 260.012 40.7026C257.313 40.7026 255.126 40.6266 255.126 40.5336C255.126 40.44 257.313 40.3646 260.012 40.3646C262.711 40.3639 264.898 40.44 264.898 40.5336Z" fill="#E0E0E0"/>
<path d="M264.898 39.0682C264.898 39.1618 262.711 39.2372 260.012 39.2372C257.313 39.2372 255.126 39.1612 255.126 39.0682C255.126 38.9746 257.313 38.8992 260.012 38.8992C262.711 38.8992 264.898 38.9746 264.898 39.0682Z" fill="#E0E0E0"/>
<path d="M264.898 63.4437C264.898 63.5373 262.711 63.6127 260.012 63.6127C257.313 63.6127 255.126 63.5367 255.126 63.4437C255.126 63.3507 257.313 63.274 260.012 63.274C262.711 63.2746 264.898 63.35 264.898 63.4437Z" fill="#E0E0E0"/>
<path d="M264.898 61.9782C264.898 62.0719 262.711 62.1473 260.012 62.1473C257.313 62.1473 255.126 62.0719 255.126 61.9782C255.126 61.8846 257.313 61.8092 260.012 61.8092C262.711 61.8092 264.898 61.8852 264.898 61.9782Z" fill="#E0E0E0"/>
<path d="M260.17 58.7817C260.076 58.7817 260 55.2628 260 50.9232C260 46.5824 260.076 43.0641 260.17 43.0641C260.263 43.0641 260.339 46.5824 260.339 50.9232C260.339 55.2628 260.263 58.7817 260.17 58.7817Z" fill="#E0E0E0"/>
<path d="M275.641 42.3785H265.004V68.7038H275.641V42.3785Z" fill="#EBEBEB"/>
<path d="M253.708 33.1508C253.708 34.1493 252.899 34.958 251.901 34.958C250.902 34.958 250.094 34.1486 250.094 33.1508C250.094 32.1529 250.903 31.3436 251.901 31.3436C252.899 31.3429 253.708 32.1523 253.708 33.1508Z" fill="#E0E0E0"/>
<path d="M252.459 38.1219H251.342V63.7245H252.459V38.1219Z" fill="#E0E0E0"/>
<path d="M91.7125 237.856C91.7125 237.856 85.9516 242.246 91.4713 248.045C91.5655 248.144 91.6994 248.2 91.8363 248.199L142.172 247.906C142.172 247.906 146.471 243.084 142.904 237.53L91.7125 237.856Z" fill="#EBEBEB"/>
<path d="M131.047 242.438C131.047 242.494 124.779 242.54 117.049 242.54C109.316 242.54 103.049 242.494 103.049 242.438C103.049 242.382 109.316 242.336 117.049 242.336C124.779 242.336 131.047 242.382 131.047 242.438Z" fill="#E0E0E0"/>
<path d="M123.218 244.259C123.218 244.315 120.27 244.361 116.637 244.361C113.001 244.361 110.055 244.315 110.055 244.259C110.055 244.203 113.001 244.157 116.637 244.157C120.27 244.157 123.218 244.202 123.218 244.259Z" fill="#E0E0E0"/>
<path d="M136.194 247.745C136.161 247.736 136.304 247.166 136.46 246.234C136.617 245.303 136.763 244.002 136.75 242.562C136.735 241.121 136.565 239.823 136.39 238.895C136.217 237.966 136.062 237.4 136.095 237.39C136.108 237.386 136.16 237.524 136.241 237.777C136.325 238.03 136.425 238.402 136.531 238.866C136.743 239.794 136.938 241.103 136.953 242.56C136.965 244.016 136.796 245.328 136.601 246.26C136.504 246.727 136.411 247.1 136.332 247.354C136.256 247.609 136.207 247.748 136.194 247.745Z" fill="#E0E0E0"/>
<path d="M139.95 237.466C139.962 237.46 140.041 237.59 140.174 237.832C140.243 237.952 140.321 238.102 140.398 238.282C140.476 238.462 140.576 238.664 140.655 238.898C140.835 239.359 141 239.927 141.134 240.568C141.257 241.212 141.343 241.929 141.353 242.687C141.355 243.444 141.281 244.163 141.168 244.808C141.044 245.452 140.889 246.022 140.716 246.486C140.641 246.721 140.545 246.924 140.47 247.105C140.396 247.288 140.319 247.438 140.253 247.56C140.125 247.804 140.048 247.936 140.035 247.929C140 247.912 140.281 247.37 140.581 246.44C140.734 245.976 140.873 245.411 140.985 244.776C141.086 244.14 141.153 243.433 141.151 242.688C141.141 241.944 141.062 241.238 140.951 240.604C140.829 239.971 140.681 239.408 140.52 238.946C140.205 238.022 139.915 237.484 139.95 237.466Z" fill="#E0E0E0"/>
<path d="M99.6545 247.812C99.6426 247.819 99.5596 247.699 99.4201 247.475C99.3478 247.364 99.2655 247.225 99.1851 247.055C99.1028 246.887 98.9985 246.699 98.9161 246.476C98.7283 246.042 98.5592 245.501 98.4254 244.888C98.3041 244.274 98.2249 243.586 98.23 242.861C98.2444 242.136 98.3412 241.45 98.4794 240.839C98.6296 240.23 98.8131 239.694 99.0129 239.264C99.1009 239.044 99.2102 238.859 99.2969 238.693C99.3818 238.525 99.4685 238.389 99.5433 238.279C99.6891 238.059 99.7751 237.941 99.7864 237.949C99.821 237.971 99.4968 238.457 99.1449 239.32C98.9652 239.75 98.7993 240.281 98.6617 240.88C98.5366 241.482 98.4468 242.154 98.4329 242.863C98.4279 243.573 98.4995 244.247 98.6082 244.851C98.7295 245.454 98.881 245.989 99.0494 246.423C99.3786 247.296 99.6891 247.792 99.6545 247.812Z" fill="#E0E0E0"/>
<path d="M94.2199 249.04C94.208 249.047 94.1168 248.911 93.961 248.658C93.8812 248.532 93.7888 248.376 93.6977 248.186C93.6047 247.996 93.4878 247.785 93.3936 247.537C93.1799 247.05 92.9814 246.445 92.8174 245.76C92.6659 245.073 92.5566 244.303 92.534 243.489C92.5208 242.675 92.5962 241.901 92.7168 241.207C92.85 240.516 93.0216 239.903 93.2139 239.407C93.2974 239.154 93.4049 238.938 93.4891 238.744C93.5714 238.549 93.6569 238.389 93.731 238.26C93.8749 238.001 93.9604 237.861 93.9723 237.868C94.0088 237.886 93.6864 238.459 93.349 239.454C93.1762 239.95 93.0222 240.557 92.9009 241.24C92.7922 241.924 92.7244 242.685 92.7369 243.485C92.7595 244.284 92.8614 245.041 93.0002 245.72C93.1517 246.396 93.3326 246.995 93.5268 247.483C93.9082 248.461 94.2551 249.019 94.2199 249.04Z" fill="#E0E0E0"/>
<path d="M140.325 263.235C140.325 263.617 140.325 272.868 140.325 272.868H121.686V263.235H140.325Z" fill="#EBEBEB"/>
<path d="M80.1278 268.141C80.1309 268.226 80.1347 268.311 80.1391 268.396C80.2905 271.311 82.7651 273.565 85.6839 273.565H141.194V272.868H128.016C125.357 272.868 123.2 270.711 123.2 268.052C123.2 265.392 125.357 263.236 128.016 263.236H141.194V262.212L85.6675 262.4C82.5332 262.41 80.0134 265.009 80.1278 268.141Z" fill="#E0E0E0"/>
<path d="M140.325 268.18C140.325 268.236 136.493 268.282 131.767 268.282C127.039 268.282 123.207 268.237 123.207 268.18C123.207 268.124 127.039 268.078 131.767 268.078C136.493 268.079 140.325 268.124 140.325 268.18Z" fill="#E0E0E0"/>
<path d="M140.056 270.351C140.056 270.407 136.429 270.453 131.957 270.453C127.483 270.453 123.858 270.408 123.858 270.351C123.858 270.295 127.484 270.249 131.957 270.249C136.429 270.249 140.056 270.294 140.056 270.351Z" fill="#E0E0E0"/>
<path d="M140.325 272.335C140.325 272.391 137.065 272.437 133.044 272.437C129.022 272.437 125.762 272.392 125.762 272.335C125.762 272.28 129.021 272.234 133.044 272.234C137.065 272.234 140.325 272.28 140.325 272.335Z" fill="#E0E0E0"/>
<path d="M140.325 266.23C140.325 266.286 136.571 266.332 131.941 266.332C127.31 266.332 123.557 266.287 123.557 266.23C123.557 266.174 127.31 266.128 131.941 266.128C136.571 266.128 140.325 266.174 140.325 266.23Z" fill="#E0E0E0"/>
<path d="M140.056 264.28C140.056 264.336 136.715 264.381 132.594 264.381C128.472 264.381 125.131 264.336 125.131 264.28C125.131 264.224 128.472 264.178 132.594 264.178C136.714 264.178 140.056 264.224 140.056 264.28Z" fill="#E0E0E0"/>
<path d="M86.8535 262.561C86.8843 262.592 86.3112 263.027 85.674 263.964C85.0381 264.884 84.3896 266.379 84.4072 268.106C84.4298 269.833 85.1141 271.312 85.7714 272.218C86.4306 273.14 87.0137 273.56 86.9835 273.592C86.9766 273.601 86.8277 273.504 86.5833 273.297C86.3376 273.091 86.0058 272.761 85.6558 272.303C84.9558 271.402 84.2275 269.89 84.2042 268.109C84.1854 266.328 84.8779 264.799 85.5559 263.882C85.8946 263.416 86.2188 263.079 86.4595 262.866C86.7001 262.653 86.8466 262.552 86.8535 262.561Z" fill="#F5F5F5"/>
<path d="M84.9763 262.356C85.0071 262.387 84.434 262.821 83.7968 263.758C83.1609 264.679 82.5118 266.174 82.53 267.9C82.5526 269.628 83.2369 271.107 83.8942 272.012C84.5534 272.934 85.1365 273.355 85.1063 273.387C85.0994 273.396 84.9505 273.298 84.7061 273.091C84.4604 272.885 84.1286 272.555 83.7786 272.098C83.0786 271.197 82.3503 269.685 82.327 267.903C82.3082 266.122 83.0007 264.594 83.6793 263.676C84.018 263.211 84.3422 262.873 84.5829 262.661C84.823 262.447 84.9694 262.347 84.9763 262.356Z" fill="#F5F5F5"/>
<path d="M122.695 262.561C122.725 262.592 122.152 263.027 121.515 263.964C120.879 264.884 120.23 266.379 120.248 268.106C120.271 269.833 120.955 271.312 121.613 272.218C122.272 273.14 122.855 273.56 122.825 273.592C122.818 273.601 122.669 273.504 122.424 273.297C122.178 273.091 121.846 272.761 121.496 272.303C120.796 271.402 120.068 269.89 120.045 268.109C120.026 266.328 120.718 264.799 121.396 263.882C121.735 263.416 122.059 263.079 122.3 262.866C122.541 262.653 122.687 262.552 122.695 262.561Z" fill="#F5F5F5"/>
<path d="M120.818 262.356C120.849 262.387 120.276 262.821 119.639 263.758C119.003 264.679 118.353 266.174 118.372 267.9C118.394 269.628 119.079 271.107 119.736 272.012C120.395 272.934 120.978 273.355 120.948 273.387C120.941 273.396 120.792 273.298 120.547 273.091C120.301 272.885 119.97 272.555 119.62 272.098C118.92 271.197 118.191 269.685 118.168 267.903C118.149 266.122 118.842 264.594 119.52 263.676C119.859 263.211 120.183 262.873 120.424 262.661C120.664 262.447 120.81 262.347 120.818 262.356Z" fill="#F5F5F5"/>
<path d="M93.1711 269.495C93.1535 268.189 93.1359 266.884 93.1183 265.578C93.1139 265.237 93.1076 264.887 92.9807 264.57C92.8538 264.253 92.5773 263.972 92.2373 263.942C91.7466 263.725 90.9825 264.134 90.6394 264.699C90.2969 265.264 90.2592 265.957 90.2542 266.618C90.2466 267.651 90.2969 268.685 90.4043 269.712C90.4552 270.2 90.5244 270.702 90.7688 271.128C91.0132 271.554 91.4745 271.892 91.964 271.847C92.4491 271.802 92.8393 271.394 93.0102 270.938C93.1818 270.482 93.1774 269.982 93.1711 269.495Z" fill="#F5F5F5"/>
<path d="M114.729 268.368C114.729 268.424 110.716 268.47 105.767 268.47C100.816 268.47 96.8042 268.425 96.8042 268.368C96.8042 268.313 100.816 268.267 105.767 268.267C110.716 268.267 114.729 268.313 114.729 268.368Z" fill="#F5F5F5"/>
<path d="M89.4523 262.176L89.3499 253.045H94.3197L94.4912 262.176H89.4523Z" fill="#F5F5F5"/>
<path d="M94.0262 254.67C94.0262 254.726 92.9919 254.772 91.7169 254.772C90.4413 254.772 89.407 254.726 89.407 254.67C89.407 254.614 90.4407 254.568 91.7169 254.568C92.9919 254.569 94.0262 254.614 94.0262 254.67Z" fill="#E0E0E0"/>
<path d="M94.0262 256.079C94.0262 256.135 92.9919 256.181 91.7169 256.181C90.4413 256.181 89.407 256.136 89.407 256.079C89.407 256.023 90.4407 255.978 91.7169 255.978C92.9919 255.978 94.0262 256.023 94.0262 256.079Z" fill="#E0E0E0"/>
<path d="M94.0262 257.489C94.0262 257.545 92.9919 257.591 91.7169 257.591C90.4413 257.591 89.407 257.545 89.407 257.489C89.407 257.433 90.4407 257.387 91.7169 257.387C92.9919 257.387 94.0262 257.432 94.0262 257.489Z" fill="#E0E0E0"/>
<path d="M94.0262 258.898C94.0262 258.953 92.9919 258.999 91.7169 258.999C90.4413 258.999 89.407 258.953 89.407 258.898C89.407 258.842 90.4407 258.796 91.7169 258.796C92.9919 258.796 94.0262 258.842 94.0262 258.898Z" fill="#E0E0E0"/>
<path d="M94.0262 260.307C94.0262 260.363 92.9919 260.409 91.7169 260.409C90.4413 260.409 89.407 260.364 89.407 260.307C89.407 260.251 90.4407 260.205 91.7169 260.205C92.9919 260.205 94.0262 260.25 94.0262 260.307Z" fill="#E0E0E0"/>
<path d="M89.0859 252.804H144.17C144.85 255.827 144.755 259.154 144.17 262.672H89.3209V262.001H92.6727C93.5468 262.001 94.2556 261.292 94.2556 260.418V254.957C94.2556 254.083 93.5468 253.374 92.6727 253.374H89.0859V252.804Z" fill="#EBEBEB"/>
<path d="M102.109 257.744H103.028C103.062 257.744 103.096 257.752 103.127 257.768C103.193 257.807 103.226 257.864 103.226 257.941C103.226 257.964 103.223 257.984 103.219 258C103.201 258.078 103.18 258.156 103.157 258.235C103.029 258.656 102.836 259.002 102.581 259.276C102.328 259.546 102.066 259.681 101.798 259.681C101.761 259.681 101.724 259.679 101.687 259.674C101.436 259.635 101.228 259.485 101.062 259.221C100.879 258.926 100.787 258.558 100.787 258.115C100.787 257.854 100.824 257.592 100.896 257.326C101.013 256.897 101.195 256.542 101.442 256.261C101.7 255.968 101.976 255.821 102.27 255.821C102.394 255.821 102.509 255.847 102.618 255.9C102.856 256.017 103.035 256.241 103.155 256.571C103.17 256.601 103.177 256.632 103.177 256.663C103.177 256.698 103.168 256.731 103.15 256.762C103.11 256.827 103.053 256.86 102.98 256.86C102.959 256.86 102.939 256.857 102.918 256.85C102.854 256.828 102.812 256.787 102.792 256.727L102.782 256.709C102.752 256.628 102.715 256.556 102.671 256.491C102.55 256.316 102.404 256.229 102.231 256.229C102.131 256.229 102.029 256.267 101.928 256.341C101.735 256.479 101.568 256.719 101.426 257.062C101.281 257.415 101.209 257.76 101.209 258.099C101.209 258.425 101.262 258.696 101.367 258.913C101.484 259.153 101.644 259.273 101.847 259.273C101.983 259.272 102.131 259.183 102.291 259.006C102.487 258.786 102.644 258.501 102.763 258.152C102.34 258.152 102.12 258.15 102.104 258.145C101.96 258.122 101.887 258.047 101.884 257.922C101.887 257.898 101.894 257.875 101.903 257.856C101.938 257.781 102.006 257.744 102.109 257.744Z" fill="#FAFAFA"/>
<path d="M105.236 255.95C105.244 255.968 105.252 255.99 105.261 256.016C105.3 256.152 105.516 257.29 105.909 259.43C105.915 259.446 105.918 259.462 105.918 259.479C105.918 259.513 105.91 259.547 105.891 259.58C105.852 259.647 105.798 259.681 105.727 259.681C105.717 259.681 105.707 259.681 105.695 259.679C105.617 259.665 105.566 259.62 105.543 259.542L105.324 258.408H104.192L103.648 259.546C103.644 259.559 103.637 259.571 103.63 259.584C103.578 259.648 103.521 259.681 103.46 259.681C103.421 259.681 103.386 259.67 103.352 259.648C103.292 259.608 103.262 259.552 103.262 259.483C103.262 259.463 103.266 259.443 103.274 259.424C103.308 259.344 103.365 259.22 103.443 259.05C104.234 257.32 104.708 256.3 104.863 255.989C104.907 255.898 104.971 255.852 105.054 255.851C105.134 255.853 105.195 255.886 105.236 255.95ZM104.989 256.713L104.377 258.001H105.241L104.989 256.713Z" fill="#FAFAFA"/>
<path d="M108.308 259.681H106.648C106.61 259.681 106.575 259.67 106.542 259.649C106.494 259.615 106.463 259.545 106.448 259.441V259.439C106.448 259.371 106.601 258.238 106.906 256.04C106.908 256.015 106.911 255.99 106.916 255.967C106.951 255.886 107.011 255.846 107.095 255.846C107.128 255.846 107.158 255.853 107.187 255.868C107.256 255.905 107.291 255.963 107.291 256.043C107.276 256.193 107.239 256.504 107.178 256.975C106.988 258.426 106.889 259.192 106.881 259.273H108.291C108.33 259.273 108.365 259.28 108.397 259.292C108.482 259.327 108.524 259.389 108.524 259.478C108.524 259.5 108.521 259.521 108.514 259.542C108.485 259.619 108.417 259.665 108.308 259.681Z" fill="#FAFAFA"/>
<path d="M110.578 255.95C110.587 255.968 110.595 255.99 110.603 256.016C110.642 256.152 110.858 257.29 111.251 259.43C111.258 259.446 111.261 259.462 111.261 259.479C111.261 259.513 111.252 259.547 111.234 259.58C111.194 259.647 111.14 259.681 111.069 259.681C111.06 259.681 111.049 259.681 111.038 259.679C110.959 259.665 110.908 259.62 110.886 259.542L110.666 258.408H109.535L108.99 259.546C108.986 259.559 108.98 259.571 108.972 259.584C108.92 259.648 108.864 259.681 108.802 259.681C108.764 259.681 108.728 259.67 108.694 259.648C108.634 259.608 108.604 259.552 108.604 259.483C108.604 259.463 108.608 259.443 108.617 259.424C108.65 259.344 108.707 259.22 108.785 259.05C109.577 257.32 110.05 256.3 110.205 255.989C110.25 255.898 110.313 255.852 110.396 255.851C110.477 255.853 110.537 255.886 110.578 255.95ZM110.331 256.713L109.719 258.001H110.583L110.331 256.713Z" fill="#FAFAFA"/>
<path d="M113.223 257.909C113.353 258.269 113.453 258.546 113.524 258.741C113.695 259.214 113.781 259.464 113.781 259.49C113.781 259.526 113.77 259.559 113.749 259.591C113.709 259.651 113.654 259.682 113.583 259.682C113.509 259.68 113.455 259.636 113.418 259.549C113.406 259.513 113.395 259.485 113.387 259.465C113.296 259.258 113.148 258.869 112.943 258.295L112.003 259.579C111.951 259.647 111.893 259.681 111.827 259.683C111.792 259.683 111.757 259.674 111.725 259.656C111.662 259.618 111.631 259.563 111.631 259.49C111.631 259.474 111.632 259.46 111.634 259.448C111.639 259.418 111.671 259.365 111.732 259.288C112.047 258.881 112.395 258.397 112.775 257.834C112.735 257.724 112.697 257.619 112.661 257.521C112.308 256.574 112.131 256.084 112.131 256.053C112.131 256.016 112.139 255.983 112.156 255.952C112.192 255.886 112.245 255.853 112.316 255.853C112.402 255.855 112.464 255.891 112.501 255.963L113.056 257.457L114.163 255.95C114.21 255.889 114.269 255.857 114.339 255.856C114.372 255.856 114.402 255.864 114.43 255.878C114.494 255.914 114.526 255.973 114.526 256.055C114.526 256.082 114.519 256.113 114.507 256.146L113.223 257.909Z" fill="#FAFAFA"/>
<path d="M117.332 255.864C117.364 255.864 117.394 255.871 117.424 255.886C117.49 255.922 117.525 255.979 117.53 256.056C117.258 258.203 117.109 259.363 117.08 259.535C117.017 259.901 116.899 260.203 116.725 260.442C116.459 260.803 116.092 260.983 115.622 260.983C115.47 260.983 115.294 260.936 115.091 260.842C114.807 260.711 114.613 260.54 114.505 260.328C114.49 260.299 114.483 260.267 114.483 260.232C114.483 260.197 114.493 260.164 114.51 260.133C114.55 260.067 114.607 260.034 114.68 260.034C114.74 260.036 114.79 260.063 114.831 260.116C115.077 260.437 115.36 260.599 115.681 260.6C115.937 260.599 116.157 260.487 116.341 260.266C116.55 260.011 116.672 259.664 116.706 259.222C116.642 259.322 116.561 259.408 116.462 259.481C116.282 259.611 116.084 259.676 115.866 259.676C115.83 259.676 115.793 259.674 115.755 259.669C115.502 259.632 115.291 259.481 115.125 259.216C114.94 258.921 114.848 258.553 114.848 258.11C114.848 257.908 114.857 257.701 114.876 257.487C114.907 257.151 114.982 256.674 115.1 256.056C115.103 256.037 115.109 256.018 115.118 255.999C115.152 255.909 115.211 255.864 115.296 255.864C115.329 255.864 115.361 255.873 115.392 255.891C115.458 255.928 115.49 255.981 115.49 256.048C115.49 256.151 115.46 256.403 115.399 256.806C115.312 257.398 115.268 257.783 115.268 257.963C115.268 258.331 115.318 258.632 115.416 258.864C115.53 259.134 115.694 259.268 115.908 259.268C115.93 259.268 115.952 259.266 115.975 259.261C116.136 259.228 116.302 259.095 116.471 258.864C116.666 258.597 116.802 258.292 116.882 257.948L117.134 256.055C117.137 256.026 117.145 255.998 117.158 255.972C117.195 255.9 117.253 255.864 117.332 255.864Z" fill="#FAFAFA"/>
<path d="M142.102 262.801C142.046 262.801 142 260.534 142 257.739C142 254.942 142.045 252.676 142.102 252.676C142.157 252.676 142.203 254.943 142.203 257.739C142.203 260.534 142.157 262.801 142.102 262.801Z" fill="#F5F5F5"/>
<path d="M97.0254 262.801C96.9695 262.801 96.9236 260.534 96.9236 257.739C96.9236 254.942 96.9688 252.676 97.0254 252.676C97.0813 252.676 97.1272 254.943 97.1272 257.739C97.1272 260.534 97.0813 262.801 97.0254 262.801Z" fill="#E0E0E0"/>
<path d="M143.068 262.801C143.012 262.801 142.966 260.534 142.966 257.739C142.966 254.942 143.011 252.676 143.068 252.676C143.124 252.676 143.17 254.943 143.17 257.739C143.169 260.534 143.124 262.801 143.068 262.801Z" fill="#F5F5F5"/>
<path d="M96.1218 262.801C96.0659 262.801 96.02 260.534 96.02 257.739C96.02 254.942 96.0653 252.676 96.1218 252.676C96.1784 252.676 96.2236 254.943 96.2236 257.739C96.2236 260.534 96.1784 262.801 96.1218 262.801Z" fill="#E0E0E0"/>
<path d="M128.745 254.344L128.736 254.326C130.24 255.54 132.284 257.189 134.558 259.023L134.609 259.065L134.545 259.082C134.299 259.146 134.036 259.216 133.77 259.285C132.002 259.749 130.328 260.189 128.855 260.575L128.845 260.578L128.836 260.574C127.009 259.799 125.468 259.146 124.381 258.685C123.841 258.453 123.415 258.27 123.119 258.144C122.976 258.081 122.865 258.033 122.786 257.999C122.751 257.983 122.723 257.97 122.702 257.961C122.683 257.952 122.673 257.946 122.673 257.946C122.673 257.946 122.684 257.949 122.703 257.956C122.725 257.965 122.754 257.976 122.79 257.99C122.869 258.022 122.982 258.068 123.126 258.127C123.423 258.249 123.852 258.427 124.394 258.651C125.483 259.107 127.028 259.753 128.858 260.518L128.839 260.517C130.311 260.129 131.985 259.687 133.753 259.221C134.018 259.151 134.281 259.082 134.528 259.017L134.515 259.075C132.246 257.235 130.206 255.581 128.705 254.363L128.697 254.356L128.696 254.346" fill="#E0E0E0"/>
<path d="M134.032 258.292L134.349 258.59L134.775 258.499L134.589 258.893L134.809 259.269L134.376 259.214L134.085 259.539L134.004 259.111L133.606 258.935L133.988 258.725L134.032 258.292Z" fill="#E0E0E0"/>
<path d="M128.447 260.143L128.664 260.323L128.936 260.247L128.831 260.509L128.987 260.744L128.706 260.725L128.531 260.947L128.462 260.673L128.198 260.575L128.436 260.425L128.447 260.143Z" fill="#E0E0E0"/>
<path d="M122.279 257.612L122.624 257.633L122.838 257.361L122.924 257.697L123.25 257.815L122.957 258.001L122.944 258.347L122.677 258.127L122.345 258.221L122.472 257.899L122.279 257.612Z" fill="#E0E0E0"/>
<path d="M136.642 254.417L136.988 254.439L137.201 254.167L137.287 254.502L137.612 254.621L137.32 254.807L137.308 255.152L137.04 254.932L136.707 255.027L136.835 254.705L136.642 254.417Z" fill="#E0E0E0"/>
<path d="M128.463 254.19L128.683 254.204L128.82 254.03L128.875 254.244L129.082 254.32L128.896 254.439L128.887 254.66L128.717 254.519L128.505 254.579L128.586 254.374L128.463 254.19Z" fill="#E0E0E0"/>
<path d="M137.127 254.66C137.126 254.682 135.243 254.62 132.922 254.52C130.599 254.421 128.718 254.322 128.719 254.3C128.719 254.277 130.602 254.34 132.925 254.439C135.247 254.538 137.129 254.637 137.127 254.66Z" fill="#E0E0E0"/>
<path d="M139.242 252.718H83.3758C82.6438 251.058 82.4647 249.481 83.3758 248.067H139.242C139.975 249.76 139.914 251.298 139.242 252.718Z" fill="#E0E0E0"/>
<path d="M125.211 249.397H94.9436V251.089H125.211V249.397Z" fill="#EBEBEB"/>
<path d="M85.52 252.743C85.5031 252.758 85.3033 252.565 85.0789 252.181C84.8546 251.799 84.6303 251.211 84.5687 250.531C84.5102 249.85 84.6284 249.232 84.783 248.817C84.9363 248.399 85.1003 248.175 85.1191 248.186C85.1493 248.201 85.033 248.446 84.9199 248.859C84.8056 249.272 84.7157 249.863 84.771 250.513C84.8295 251.162 85.0211 251.728 85.2059 252.114C85.3906 252.502 85.5471 252.723 85.52 252.743Z" fill="#E0E0E0"/>
<path d="M86.7288 252.743C86.7118 252.758 86.512 252.565 86.2877 252.181C86.0633 251.799 85.839 251.211 85.7774 250.531C85.719 249.85 85.8371 249.232 85.9917 248.817C86.145 248.399 86.309 248.175 86.3279 248.186C86.358 248.201 86.2418 248.446 86.1287 248.859C86.0137 249.272 85.9245 249.863 85.9798 250.513C86.0388 251.162 86.2298 251.728 86.4146 252.114C86.5987 252.502 86.7558 252.723 86.7288 252.743Z" fill="#E0E0E0"/>
<path d="M136.982 252.635C136.92 252.613 137.377 251.644 137.375 250.361C137.392 249.077 136.947 248.104 137.008 248.083C137.045 248.051 137.593 249.025 137.578 250.362C137.578 251.7 137.018 252.668 136.982 252.635Z" fill="#F5F5F5"/>
<path d="M135.943 252.623C135.882 252.609 136.117 251.627 136.111 250.396C136.114 249.165 135.876 248.184 135.937 248.17C135.984 248.152 136.317 249.133 136.314 250.396C136.319 251.66 135.989 252.641 135.943 252.623Z" fill="#F5F5F5"/>
<path d="M171.177 231.044L92.6778 230.998C83.2364 230.992 75.5865 223.336 75.5884 213.895L75.6267 17.0963C75.6286 7.64988 83.2898 -0.00565227 92.7362 3.13136e-06L171.235 0.0458735C180.676 0.0515289 188.326 7.70769 188.324 17.1484L188.286 213.947C188.284 223.395 180.623 231.05 171.177 231.044Z" fill="#263238"/>
<path d="M170.977 7.06614L155.757 7.05734C153.716 7.05671 152.061 8.78538 152.061 10.9187L152.06 13.6792C152.06 15.8132 150.405 17.5418 148.364 17.5406L118.697 17.523C116.657 17.5217 115.002 15.7912 115.003 13.6572L115.003 10.8967C115.003 8.76276 113.349 7.03221 111.308 7.03095L105.955 7.02781L92.6343 7.02027C86.0187 7.0165 80.653 12.3778 80.6517 18.9934L80.614 211.083C80.6128 217.696 85.9703 223.057 92.5827 223.062L170.925 223.108C177.54 223.111 182.906 217.751 182.908 211.134L182.945 19.0443C182.946 12.4312 177.588 7.06991 170.977 7.06614Z" fill="white"/>
<path d="M183.824 37.5864C183.824 37.6769 160.693 37.7498 132.166 37.7498C103.628 37.7498 80.5022 37.6763 80.5022 37.5864C80.5022 37.4959 103.628 37.423 132.166 37.423C160.693 37.423 183.824 37.4959 183.824 37.5864Z" fill="#263238"/>
<path d="M91.3083 30.4701C91.2348 30.4701 91.1606 30.4443 91.1009 30.3921L88.1161 27.7743C88.047 27.7134 88.0081 27.626 88.0093 27.5337C88.0106 27.4419 88.052 27.3552 88.1224 27.2961L91.1072 24.8147C91.2411 24.7034 91.439 24.7223 91.5496 24.8549C91.6608 24.9881 91.6426 25.1867 91.5094 25.2973L88.8073 27.5437L91.5157 29.919C91.6464 30.0333 91.6596 30.2319 91.5446 30.3626C91.4823 30.4336 91.3956 30.4701 91.3083 30.4701Z" fill="#263238"/>
<path d="M156.444 27.3646C156.444 27.4551 146.72 27.528 134.729 27.528C122.733 27.528 113.012 27.4545 113.012 27.3646C113.012 27.2748 122.733 27.2012 134.729 27.2012C146.72 27.2012 156.444 27.2741 156.444 27.3646Z" fill="#263238"/>
<path d="M169.022 27.3439C169.022 27.9666 168.517 28.4718 167.894 28.4718C167.271 28.4718 166.766 27.9672 166.766 27.3439C166.766 26.7212 167.271 26.2159 167.894 26.2159C168.517 26.2159 169.022 26.7212 169.022 27.3439Z" fill="#263238"/>
<path d="M172.28 27.3439C172.28 27.9666 171.776 28.4718 171.152 28.4718C170.53 28.4718 170.024 27.9672 170.024 27.3439C170.024 26.7212 170.529 26.2159 171.152 26.2159C171.775 26.2159 172.28 26.7212 172.28 27.3439Z" fill="#263238"/>
<path d="M175.537 27.3439C175.537 27.9666 175.033 28.4718 174.409 28.4718C173.786 28.4718 173.281 27.9672 173.281 27.3439C173.281 26.7212 173.786 26.2159 174.409 26.2159C175.033 26.2159 175.537 26.7212 175.537 27.3439Z" fill="#263238"/>
<path d="M122.368 79.7902C122.368 80.5185 122.065 80.9558 121.56 80.9558C121.29 80.9558 121.097 80.8295 121.025 80.5895C120.861 80.8295 120.604 80.9558 120.267 80.9558C119.686 80.9558 119.257 80.5141 119.257 79.8826C119.257 79.2598 119.686 78.8175 120.267 78.8175C120.562 78.8175 120.806 78.9186 120.97 79.1166V78.8426H121.437V80.274C121.437 80.4889 121.538 80.5606 121.657 80.5606C121.884 80.5606 122.01 80.2954 122.01 79.799C122.01 78.8979 121.354 78.2921 120.394 78.2921C119.418 78.2921 118.77 78.945 118.77 79.8624C118.77 80.7924 119.409 81.4409 120.378 81.4409C120.635 81.4409 120.938 81.3863 121.195 81.2556L121.308 81.5924C121.051 81.7231 120.69 81.7903 120.378 81.7903C119.183 81.7903 118.383 80.9778 118.383 79.8624C118.383 78.7596 119.191 77.9471 120.395 77.9471C121.555 77.9465 122.368 78.7169 122.368 79.7902ZM120.979 79.8826C120.979 79.4659 120.709 79.2259 120.356 79.2259C119.989 79.2259 119.732 79.4785 119.732 79.8826C119.732 80.291 119.989 80.548 120.356 80.548C120.71 80.548 120.979 80.3036 120.979 79.8826Z" fill="#263238"/>
<path d="M146.111 80.9301C146.111 81.0206 141.565 81.0935 135.96 81.0935C130.352 81.0935 125.808 81.02 125.808 80.9301C125.808 80.8396 130.352 80.7667 135.96 80.7667C141.565 80.7667 146.111 80.8403 146.111 80.9301Z" fill="#263238"/>
<path d="M105.965 109.653C105.965 109.743 105.335 109.816 104.558 109.816C103.781 109.816 103.151 109.743 103.151 109.653C103.151 109.562 103.781 109.489 104.558 109.489C105.336 109.489 105.965 109.562 105.965 109.653Z" fill="#263238"/>
<path d="M112.593 116.461C112.593 116.552 109.199 116.624 105.013 116.624C100.825 116.624 97.4319 116.551 97.4319 116.461C97.4319 116.371 100.825 116.298 105.013 116.298C109.198 116.297 112.593 116.371 112.593 116.461Z" fill="#263238"/>
<path d="M136.468 109.653C136.468 109.743 134.537 109.816 132.156 109.816C129.774 109.816 127.843 109.743 127.843 109.653C127.843 109.562 129.774 109.489 132.156 109.489C134.537 109.489 136.468 109.562 136.468 109.653Z" fill="#263238"/>
<path d="M139.01 116.098C139.01 116.188 135.534 116.261 131.248 116.261C126.961 116.261 123.486 116.188 123.486 116.098C123.486 116.007 126.96 115.935 131.248 115.935C135.534 115.935 139.01 116.007 139.01 116.098Z" fill="#263238"/>
<path d="M164.61 109.743C164.61 109.834 162.008 109.906 158.8 109.906C155.591 109.906 152.99 109.833 152.99 109.743C152.99 109.653 155.591 109.58 158.8 109.58C162.008 109.58 164.61 109.653 164.61 109.743Z" fill="#263238"/>
<path d="M166.788 116.37C166.788 116.46 163.435 116.533 159.299 116.533C155.162 116.533 151.81 116.46 151.81 116.37C151.81 116.28 155.163 116.207 159.299 116.207C163.435 116.207 166.788 116.28 166.788 116.37Z" fill="#263238"/>
<path d="M145.076 135.979H102.481C101.598 135.979 100.882 135.263 100.882 134.379V124.416C100.882 123.533 101.598 122.817 102.481 122.817H145.076C145.96 122.817 146.676 123.533 146.676 124.416V134.379C146.677 135.263 145.96 135.979 145.076 135.979Z" fill="#FD5B68"/>
<path d="M138.018 129.617C138.018 129.708 132.122 129.781 124.852 129.781C117.579 129.781 111.685 129.707 111.685 129.617C111.685 129.527 117.579 129.454 124.852 129.454C132.122 129.453 138.018 129.527 138.018 129.617Z" fill="white"/>
<path d="M162.063 136.062H151.953C151.132 136.062 150.466 135.396 150.466 134.575V124.059C150.466 123.238 151.132 122.572 151.953 122.572H162.063C162.884 122.572 163.55 123.238 163.55 124.059V134.575C163.55 135.396 162.884 136.062 162.063 136.062Z" fill="#EBEBEB"/>
<path d="M155.598 128.627H158.418L157.127 130.608L155.598 128.627Z" fill="#263238"/>
<path d="M146.677 145.771C146.677 145.861 139.396 145.934 130.416 145.934C121.433 145.934 114.154 145.86 114.154 145.771C114.154 145.68 121.433 145.607 130.416 145.607C139.396 145.607 146.677 145.68 146.677 145.771Z" fill="#E0E0E0"/>
<path d="M156.144 151.897C156.144 151.987 145.447 152.06 132.255 152.06C119.058 152.06 108.363 151.986 108.363 151.897C108.363 151.807 119.058 151.733 132.255 151.733C145.447 151.733 156.144 151.806 156.144 151.897Z" fill="#E0E0E0"/>
<path d="M183.604 162.519C183.604 162.609 160.695 162.682 132.442 162.682C104.178 162.682 81.2739 162.609 81.2739 162.519C81.2739 162.429 104.178 162.355 132.442 162.355C160.695 162.355 183.604 162.428 183.604 162.519Z" fill="#263238"/>
<path d="M133.447 174.436C133.356 174.436 133.283 171.843 133.283 168.645C133.283 165.446 133.356 162.853 133.447 162.853C133.537 162.853 133.61 165.446 133.61 168.645C133.611 171.843 133.537 174.436 133.447 174.436Z" fill="#263238"/>
<path d="M128.999 90.1327L126.185 96.8777H125.003L122.179 90.1327H123.48L125.631 95.3363L127.8 90.1327H128.999Z" fill="#FD5B68"/>
<path d="M133.82 94.6909H129.953C130.091 95.4425 130.691 95.9244 131.55 95.9244C132.103 95.9244 132.537 95.741 132.888 95.3652L133.507 96.1073C133.064 96.6565 132.372 96.9462 131.523 96.9462C129.871 96.9462 128.8 95.8377 128.8 94.3057C128.8 92.7738 129.88 91.6754 131.347 91.6754C132.787 91.6754 133.839 92.7254 133.839 94.3346C133.838 94.4308 133.829 94.5753 133.82 94.6909ZM129.943 93.891H132.74C132.648 93.1489 132.103 92.638 131.346 92.638C130.599 92.638 130.054 93.1395 129.943 93.891Z" fill="#FD5B68"/>
<path d="M137.8 91.6747V92.8215C137.698 92.8021 137.615 92.7926 137.532 92.7926C136.655 92.7926 136.102 93.3324 136.102 94.3824V96.8783H134.948V91.7326H136.046V92.4841C136.379 91.9443 136.979 91.6747 137.8 91.6747Z" fill="#FD5B68"/>
<path d="M138.623 90.1616C138.623 89.7569 138.937 89.439 139.362 89.439C139.787 89.439 140.1 89.7381 140.1 90.1327C140.1 90.5562 139.796 90.8842 139.362 90.8842C138.937 90.8842 138.623 90.5663 138.623 90.1616ZM138.78 91.7325H139.934V96.8783H138.78V91.7325Z" fill="#FD5B68"/>
<path d="M143.368 89.6608C143.765 89.6608 144.153 89.7475 144.411 89.9398L144.088 90.8459C143.913 90.7202 143.691 90.6335 143.451 90.6335C142.971 90.6335 142.721 90.9131 142.721 91.4623V91.7709H144.079V92.7342H142.759V96.8777H141.605V92.7342H140.792V91.7709H141.605V91.4435C141.606 90.3639 142.224 89.6608 143.368 89.6608ZM145.436 90.1616C145.436 89.7569 145.749 89.439 146.174 89.439C146.599 89.439 146.913 89.7381 146.913 90.1327C146.913 90.5562 146.608 90.8842 146.174 90.8842C145.75 90.8842 145.436 90.5663 145.436 90.1616ZM145.593 91.7325H146.747V96.8783H145.593V91.7325Z" fill="#FD5B68"/>
<path d="M152.877 94.6909H149.01C149.148 95.4425 149.748 95.9244 150.607 95.9244C151.16 95.9244 151.594 95.741 151.945 95.3652L152.563 96.1073C152.12 96.6565 151.428 96.9462 150.578 96.9462C148.927 96.9462 147.855 95.8377 147.855 94.3057C147.855 92.7738 148.935 91.6754 150.403 91.6754C151.843 91.6754 152.895 92.7254 152.895 94.3346C152.896 94.4308 152.886 94.5753 152.877 94.6909ZM149.001 93.891H151.797C151.705 93.1489 151.16 92.638 150.404 92.638C149.656 92.638 149.112 93.1395 149.001 93.891Z" fill="#FD5B68"/>
<path d="M158.833 89.728V96.8777H157.726V96.2129C157.338 96.7043 156.766 96.9456 156.092 96.9456C154.662 96.9456 153.6 95.905 153.6 94.3051C153.6 92.7053 154.662 91.6747 156.092 91.6747C156.729 91.6747 157.292 91.8959 157.68 92.3685V89.728H158.833ZM157.698 94.3051C157.698 93.3223 157.061 92.6959 156.23 92.6959C155.4 92.6959 154.762 93.3223 154.762 94.3051C154.762 95.2879 155.4 95.9144 156.23 95.9144C157.061 95.9144 157.698 95.2879 157.698 94.3051Z" fill="#FD5B68"/>
<path d="M113.064 98.5743C115.861 98.5743 118.128 96.2072 118.128 93.2872C118.128 90.3671 115.861 88 113.064 88C110.267 88 108 90.3671 108 93.2872C108 96.2072 110.267 98.5743 113.064 98.5743Z" fill="#FD5B68"/>
<path d="M110.778 93.3839L111.428 92.7053L112.682 93.869L115.143 91.3964L115.747 92.075L112.589 95.1779L110.778 93.3839Z" fill="white"/>
<path d="M133.169 223.086L91.7025 223.069C85.5162 223.069 80.5017 218.054 80.5017 211.867V174.436H133.169L133.169 223.086Z" fill="#EBEBEB"/>
<path d="M171.416 223.185L132.667 223.084V174.436H183.049V211.552C183.05 217.788 177.653 223.185 171.416 223.185Z" fill="#455A64"/>
<path d="M183.604 174.436C183.604 174.526 160.697 174.599 132.445 174.599C104.183 174.599 81.2803 174.526 81.2803 174.436C81.2803 174.346 104.183 174.273 132.445 174.273C160.697 174.273 183.604 174.345 183.604 174.436Z" fill="#263238"/>
<path d="M131.663 202.895C131.659 202.899 131.611 202.869 131.522 202.806C131.417 202.731 131.288 202.637 131.127 202.521C130.764 202.249 130.264 201.874 129.63 201.399C128.317 200.397 126.455 198.975 124.161 197.225C123.01 196.353 121.746 195.345 120.397 194.356C119.708 193.939 118.748 193.945 118.042 194.437C117.704 194.678 117.396 195.051 117.063 195.372C116.734 195.705 116.402 196.043 116.064 196.385C113.363 199.118 110.396 202.119 107.282 205.27C107.096 205.458 106.911 205.645 106.74 205.818L106.64 205.919L106.526 205.834C104.783 204.535 103.084 203.268 101.444 202.046C100.625 201.434 99.8205 200.834 99.0325 200.246C98.3193 199.592 97.3126 199.427 96.5089 199.825C96.1106 200.001 95.8096 200.349 95.4639 200.659C95.1296 200.97 94.7998 201.277 94.4749 201.58C93.8245 202.184 93.1936 202.771 92.5835 203.339C91.3638 204.471 90.227 205.525 89.1883 206.489C87.1222 208.394 85.4457 209.939 84.265 211.027C83.6944 211.544 83.2439 211.951 82.9171 212.247C82.7726 212.373 82.6557 212.475 82.5615 212.558C82.4798 212.626 82.4364 212.66 82.4326 212.656C82.4289 212.651 82.4647 212.611 82.5388 212.534C82.6274 212.445 82.7374 212.335 82.8725 212.2C83.1892 211.893 83.6253 211.471 84.1789 210.935C85.3427 209.829 86.9947 208.258 89.0319 206.322C90.0624 205.35 91.1897 204.285 92.4 203.143C93.0064 202.572 93.6341 201.98 94.2801 201.371C94.6037 201.067 94.9317 200.758 95.2641 200.445C95.4306 200.289 95.5984 200.131 95.7675 199.972C95.9478 199.804 96.1552 199.664 96.3795 199.555C96.8275 199.334 97.351 199.255 97.8562 199.338C98.1088 199.378 98.357 199.458 98.5882 199.574C98.8258 199.69 99.0237 199.856 99.2179 199.996C100.007 200.582 100.813 201.181 101.635 201.79C103.276 203.01 104.977 204.275 106.721 205.571L106.507 205.587C106.678 205.414 106.863 205.228 107.049 205.04C110.17 201.895 113.142 198.9 115.849 196.172C116.188 195.832 116.522 195.496 116.852 195.164C117.193 194.841 117.476 194.489 117.879 194.198C118.683 193.647 119.763 193.648 120.535 194.122C121.932 195.159 123.148 196.15 124.303 197.042C126.569 198.826 128.41 200.277 129.708 201.298C130.326 201.794 130.814 202.184 131.168 202.469C131.32 202.595 131.443 202.697 131.542 202.78C131.626 202.851 131.667 202.89 131.663 202.895Z" fill="#263238"/>
<path d="M111.109 186.566C111.072 186.567 111.09 186.158 110.904 185.466C110.72 184.787 110.258 183.793 109.235 183.028C108.728 182.655 108.092 182.339 107.36 182.214C106.634 182.094 105.816 182.12 105.039 182.419C104.263 182.7 103.522 183.229 102.996 183.962C102.455 184.684 102.151 185.61 102.141 186.564C102.15 187.519 102.454 188.446 102.995 189.168C103.521 189.9 104.262 190.43 105.039 190.711C105.816 191.01 106.634 191.036 107.361 190.916C108.092 190.791 108.728 190.475 109.235 190.101C110.258 189.337 110.72 188.343 110.904 187.663C111.09 186.972 111.072 186.563 111.109 186.566C111.12 186.566 111.126 186.665 111.127 186.858C111.132 187.051 111.108 187.337 111.028 187.695C110.877 188.402 110.433 189.457 109.376 190.286C108.852 190.691 108.185 191.038 107.411 191.183C106.642 191.324 105.771 191.306 104.936 190.995C104.102 190.702 103.305 190.14 102.737 189.359C102.153 188.587 101.822 187.59 101.814 186.565C101.823 185.54 102.154 184.543 102.737 183.772C103.305 182.99 104.102 182.428 104.936 182.135C105.77 181.825 106.642 181.807 107.41 181.947C108.184 182.091 108.852 182.439 109.375 182.844C110.433 183.673 110.876 184.728 111.027 185.434C111.107 185.793 111.131 186.079 111.126 186.271C111.126 186.465 111.12 186.566 111.109 186.566Z" fill="#263238"/>
<path d="M181.514 201.365C181.51 201.369 181.464 201.339 181.378 201.276C181.276 201.2 181.151 201.107 180.997 200.991C180.647 200.718 180.165 200.343 179.555 199.867C178.289 198.863 176.495 197.44 174.286 195.687C173.177 194.815 171.96 193.803 170.66 192.817C169.994 192.403 169.049 192.42 168.382 192.933C168.065 193.183 167.764 193.555 167.447 193.874C167.132 194.206 166.813 194.542 166.49 194.883C163.902 197.605 161.06 200.595 158.076 203.735C157.896 203.924 157.716 204.112 157.55 204.286L157.448 204.393L157.331 204.303C155.653 203.002 154.016 201.733 152.436 200.508C151.647 199.895 150.871 199.293 150.113 198.705C149.431 198.048 148.439 197.899 147.67 198.312C147.293 198.502 147.003 198.852 146.672 199.159C146.351 199.469 146.035 199.775 145.722 200.078C145.098 200.681 144.493 201.266 143.907 201.832C142.737 202.961 141.647 204.012 140.65 204.974C138.667 206.873 137.059 208.414 135.925 209.501C135.378 210.015 134.946 210.422 134.631 210.718C134.492 210.844 134.381 210.945 134.289 211.028C134.211 211.097 134.169 211.13 134.165 211.126C134.161 211.123 134.196 211.081 134.266 211.005C134.351 210.916 134.457 210.806 134.586 210.672C134.89 210.366 135.308 209.945 135.838 209.411C136.954 208.307 138.539 206.741 140.491 204.811C141.479 203.841 142.56 202.78 143.721 201.64C144.303 201.07 144.904 200.481 145.524 199.874C145.835 199.57 146.149 199.263 146.468 198.95C146.628 198.794 146.789 198.637 146.95 198.479C147.119 198.314 147.316 198.163 147.531 198.049C147.962 197.816 148.477 197.729 148.974 197.805C149.222 197.843 149.466 197.922 149.692 198.038C149.922 198.155 150.118 198.319 150.304 198.461C151.064 199.048 151.841 199.647 152.632 200.258C154.214 201.481 155.853 202.747 157.533 204.046L157.315 204.062C157.48 203.888 157.66 203.699 157.84 203.51C160.83 200.377 163.679 197.394 166.273 194.676C166.597 194.337 166.917 194.002 167.233 193.672C167.563 193.346 167.829 193.005 168.211 192.704C168.973 192.123 170.052 192.111 170.801 192.586C172.154 193.622 173.319 194.615 174.433 195.508C176.614 197.294 178.387 198.745 179.636 199.769C180.23 200.265 180.699 200.656 181.04 200.94C181.186 201.067 181.305 201.169 181.4 201.251C181.478 201.322 181.518 201.361 181.514 201.365Z" fill="#263238"/>
<path d="M160.154 185.184C160.117 185.187 160.135 184.777 159.949 184.085C159.766 183.406 159.304 182.412 158.28 181.648C157.773 181.275 157.137 180.958 156.406 180.833C155.679 180.713 154.861 180.74 154.084 181.038C153.308 181.319 152.567 181.849 152.041 182.581C151.5 183.303 151.196 184.229 151.186 185.184C151.195 186.139 151.499 187.066 152.04 187.788C152.566 188.52 153.307 189.05 154.084 189.332C154.861 189.631 155.68 189.656 156.406 189.536C157.138 189.411 157.774 189.095 158.281 188.722C159.304 187.957 159.766 186.963 159.949 186.285C160.135 185.591 160.117 185.182 160.154 185.184C160.165 185.184 160.171 185.284 160.172 185.477C160.177 185.669 160.153 185.956 160.073 186.314C159.922 187.021 159.478 188.076 158.421 188.905C157.897 189.31 157.23 189.657 156.456 189.802C155.687 189.942 154.816 189.925 153.981 189.614C153.147 189.322 152.35 188.76 151.782 187.978C151.198 187.206 150.867 186.21 150.859 185.184C150.868 184.159 151.199 183.163 151.783 182.391C152.351 181.609 153.148 181.048 153.982 180.755C154.816 180.444 155.687 180.427 156.456 180.566C157.23 180.711 157.897 181.058 158.421 181.463C159.478 182.293 159.922 183.347 160.073 184.054C160.153 184.413 160.176 184.699 160.172 184.891C160.171 185.084 160.165 185.184 160.154 185.184Z" fill="#263238"/>
<path d="M133.461 75.6674C141.498 75.6674 148.014 69.1514 148.014 61.1136C148.014 53.0757 141.498 46.5597 133.461 46.5597C125.423 46.5597 118.907 53.0757 118.907 61.1136C118.907 69.1514 125.423 75.6674 133.461 75.6674Z" fill="#F5F5F5"/>
<path d="M142.872 72.1554C142.441 67.6833 138.634 63.891 133.465 63.891C128.296 63.891 124.761 67.8014 124.056 72.1868C124.056 72.1868 127.25 75.719 133.465 75.6674C139.68 75.6159 142.872 72.1554 142.872 72.1554Z" fill="#E0E0E0"/>
<path d="M139.097 60.0858C139.601 56.9746 137.486 54.0445 134.375 53.5412C131.264 53.0379 128.334 55.152 127.831 58.2632C127.327 61.3743 129.442 64.3044 132.553 64.8077C135.664 65.311 138.594 63.1969 139.097 60.0858Z" fill="#E0E0E0"/>
<path d="M142.804 71.6565C142.734 71.676 142.722 70.5996 141.914 68.9677C141.484 68.1721 140.824 67.2679 139.856 66.4384C138.892 65.6178 137.627 64.8486 136.138 64.3535L135.842 64.2554L136.113 64.1103C137.017 63.6264 137.842 62.8466 138.387 61.8406C138.935 60.8402 139.179 59.6048 138.99 58.3776C138.823 57.1491 138.191 55.942 137.206 55.0635C136.228 54.1788 134.892 53.6415 133.507 53.6409C132.125 53.6409 130.791 54.1737 129.812 55.0547C128.825 55.9282 128.193 57.1321 128.021 58.3569C127.822 59.5828 128.071 60.8132 128.606 61.818C128.879 62.3188 129.217 62.7687 129.601 63.152C129.985 63.5385 130.422 63.8307 130.867 64.1159L131.118 64.2768L130.83 64.3541C129.298 64.7651 128.033 65.5367 127.11 66.4095C126.181 67.2836 125.574 68.2312 125.163 69.0405C124.753 69.8543 124.531 70.5367 124.396 71.0023C124.326 71.2348 124.285 71.4164 124.254 71.5377C124.225 71.6596 124.209 71.7225 124.203 71.7212C124.196 71.7206 124.198 71.6552 124.215 71.5302C124.234 71.4058 124.262 71.2198 124.32 70.9822C124.432 70.5065 124.633 69.8097 125.029 68.9739C125.426 68.1432 126.025 67.1648 126.965 66.2549C127.896 65.3457 129.191 64.5351 130.761 64.099L130.724 64.3371C130.283 64.0613 129.812 63.7521 129.406 63.35C129 62.9509 128.64 62.4809 128.351 61.955C127.78 60.9012 127.511 59.6042 127.715 58.3097C127.892 57.0146 128.556 55.7384 129.598 54.8128C130.63 53.879 132.045 53.3122 133.508 53.3129C134.974 53.3129 136.391 53.8847 137.423 54.8229C138.463 55.7541 139.127 57.0335 139.298 58.3324C139.493 59.6281 139.227 60.9301 138.644 61.9795C138.062 63.0345 137.189 63.8451 136.238 64.3428L136.214 64.0996C137.756 64.6287 139.019 65.423 139.997 66.2776C140.974 67.1391 141.631 68.0772 142.049 68.8985C142.23 69.3233 142.416 69.6915 142.497 70.0409C142.598 70.3828 142.69 70.6706 142.712 70.9163C142.744 71.1387 142.771 71.3197 142.791 71.4667C142.806 71.5918 142.81 71.6559 142.804 71.6565Z" fill="#263238"/>
<path d="M148.014 61.1135C148.009 61.1135 147.999 61.0337 147.986 60.8779C147.973 60.7063 147.956 60.4776 147.935 60.1873C147.925 60.034 147.913 59.8643 147.901 59.6789C147.881 59.4929 147.84 59.2912 147.806 59.0719C147.734 58.6333 147.667 58.125 147.497 57.5726C147.237 56.451 146.708 55.1257 145.877 53.7219C145.04 52.3244 143.833 50.8647 142.191 49.6274C140.556 48.4014 138.492 47.359 136.112 46.9392C133.747 46.5339 131.079 46.6087 128.538 47.5751C127.891 47.7825 127.284 48.1023 126.658 48.4027C126.066 48.7609 125.443 49.0908 124.892 49.5388C124.306 49.941 123.794 50.4443 123.258 50.9288C122.774 51.4654 122.265 51.9901 121.847 52.599C120.99 53.7898 120.241 55.1131 119.788 56.5678C119.319 58.0137 119.066 59.5495 119.045 61.1123C119.066 62.6757 119.318 64.2121 119.787 65.658C120.24 67.1133 120.989 68.4367 121.846 69.6281C122.264 70.237 122.773 70.7623 123.257 71.2989C123.794 71.7834 124.305 72.2867 124.891 72.6895C125.443 73.1376 126.066 73.4681 126.658 73.8263C127.283 74.126 127.891 74.4465 128.537 74.6538C131.078 75.6203 133.747 75.6944 136.112 75.2891C138.493 74.8687 140.556 73.8263 142.191 72.6003C143.833 71.3624 145.039 69.9033 145.877 68.5051C146.707 67.1013 147.237 65.7767 147.497 64.6551C147.666 64.1027 147.734 63.5944 147.805 63.1558C147.839 62.9365 147.88 62.7348 147.901 62.5488C147.913 62.3634 147.924 62.1937 147.934 62.0404C147.955 61.7501 147.972 61.5214 147.985 61.3498C147.999 61.194 148.009 61.1135 148.014 61.1135C148.02 61.1135 148.021 61.1933 148.019 61.3498C148.015 61.5226 148.009 61.752 148.001 62.0442C147.995 62.1987 147.989 62.369 147.982 62.5563C147.967 62.7442 147.931 62.9471 147.902 63.169C147.84 63.612 147.782 64.126 147.62 64.6852C147.377 65.8213 146.861 67.168 146.034 68.5982C145.201 70.0221 143.99 71.5138 142.332 72.7831C140.679 74.0412 138.586 75.1144 136.162 75.5549C133.755 75.9797 131.033 75.9144 128.435 74.936C127.774 74.7255 127.152 74.4012 126.513 74.0958C125.908 73.732 125.27 73.3958 124.706 72.9396C124.107 72.5293 123.582 72.0172 123.034 71.522C122.538 70.9753 122.017 70.4387 121.589 69.8166C120.71 68.6 119.944 67.2471 119.48 65.7591C118.998 64.2799 118.74 62.7084 118.719 61.1104C118.74 59.5124 119 57.9415 119.481 56.4635C119.946 54.9762 120.712 53.6233 121.59 52.4074C122.018 51.7859 122.539 51.2499 123.035 50.7026C123.584 50.208 124.108 49.6953 124.707 49.2856C125.272 48.8294 125.909 48.4932 126.515 48.1294C127.154 47.824 127.775 47.4997 128.436 47.2898C131.034 46.3121 133.756 46.2461 136.163 46.6709C138.586 47.1108 140.68 48.1846 142.333 49.442C143.991 50.7114 145.202 52.2031 146.035 53.627C146.862 55.0572 147.379 56.4038 147.622 57.5406C147.783 58.1005 147.842 58.6145 147.903 59.0575C147.932 59.2793 147.968 59.4823 147.984 59.6701C147.99 59.8568 147.996 60.0277 148.002 60.1823C148.01 60.4738 148.016 60.7038 148.021 60.8766C148.021 61.0337 148.02 61.1135 148.014 61.1135Z" fill="#263238"/>
<path d="M73.2707 127.22C65.6284 131.178 59.7675 137.994 55.5536 145.5C51.3397 153.005 48.6238 161.24 45.9337 169.416L43.5798 211.582C52.4726 196.453 59.6104 178.669 61.5389 161.226C59.5664 161.05 57.5939 160.875 55.6208 160.699C59.5884 160.093 62.9188 157.218 65.0383 153.809C67.1572 150.401 68.2481 146.469 69.3126 142.6C66.9059 142.957 64.4992 143.316 62.0925 143.673C67.7466 139.9 71.8455 133.866 73.2707 127.22Z" fill="#455A64"/>
<path d="M73.2707 127.22C65.6284 131.178 59.7675 137.994 55.5536 145.5C51.3397 153.005 48.6238 161.24 45.9337 169.416L43.5798 211.582C52.4726 196.453 59.6104 178.669 61.5389 161.226C59.5664 161.05 57.5939 160.875 55.6208 160.699C59.5884 160.093 62.9188 157.218 65.0383 153.809C67.1572 150.401 68.2481 146.469 69.3126 142.6C66.9059 142.957 64.4992 143.316 62.0925 143.673C67.7466 139.9 71.8455 133.866 73.2707 127.22Z" fill="#455A64"/>
<path d="M42.2635 221.461C42.2635 221.461 22.9616 198.358 23.1847 176.304H30.9816C30.9816 176.304 22.5123 170.735 23.1828 167.616C23.8527 164.498 24.0758 152.69 24.0758 152.69L31.2047 154.472C31.2047 154.472 25.8585 151.799 25.1899 147.567C24.5219 143.334 26.7495 123.73 26.7495 123.73C26.7495 123.73 35.4375 132.863 38.1112 142.22C40.7843 151.576 47.8014 162.492 45.741 191.007C43.6799 219.522 42.2635 221.461 42.2635 221.461Z" fill="#455A64"/>
<path d="M52.0485 223.642C52.0485 223.642 72.9603 209.712 77.6065 191.931L71.3378 190.225C71.3378 190.225 79.3653 187.601 79.5086 184.946C79.6519 182.292 82.0561 172.751 82.0561 172.751L75.935 172.624C75.935 172.624 80.8181 171.644 82.2816 168.387C83.7451 165.13 86.2429 148.882 86.2429 148.882C86.2429 148.882 77.2596 154.324 73.0633 161.261C68.867 168.199 60.837 175.439 56.2548 198.816C51.6727 222.192 52.0485 223.642 52.0485 223.642Z" fill="#455A64"/>
<path d="M32.0214 143.872C32.027 143.871 32.0497 143.952 32.0892 144.112C32.1307 144.288 32.1854 144.523 32.2558 144.824C32.399 145.468 32.6033 146.389 32.8653 147.566C33.1317 148.756 33.4421 150.216 33.779 151.916C34.1214 153.614 34.5211 155.546 34.9119 157.692C35.737 161.976 36.6079 167.097 37.5052 172.795C38.3749 178.497 39.2433 184.778 40.0156 191.39C40.7722 198.005 41.3603 204.321 41.8147 210.072C42.2413 215.825 42.5618 221.01 42.7359 225.369C42.8452 227.548 42.8967 229.52 42.9508 231.252C43.0111 232.984 43.0419 234.476 43.0538 235.695C43.0676 236.901 43.0783 237.844 43.0865 238.504C43.0865 238.812 43.0865 239.053 43.0865 239.234C43.0846 239.398 43.0808 239.483 43.0752 239.483C43.0695 239.483 43.062 239.398 43.0526 239.234C43.0444 239.054 43.0337 238.813 43.0199 238.505C42.9979 237.845 42.9665 236.903 42.9263 235.698C42.8948 234.479 42.8452 232.989 42.7679 231.258C42.6963 229.528 42.6284 227.557 42.5046 225.38C42.301 221.025 41.9567 215.844 41.5143 210.096C41.0436 204.351 40.4473 198.039 39.6907 191.429C38.9191 184.822 38.0601 178.542 37.2074 172.842C36.327 167.146 35.4806 162.023 34.6851 157.736C34.3093 155.588 33.9254 153.654 33.6005 151.953C33.2813 150.251 32.9891 148.787 32.7421 147.594C32.5065 146.412 32.3224 145.487 32.1929 144.839C32.1364 144.536 32.0918 144.298 32.0585 144.121C32.0277 143.957 32.0157 143.874 32.0214 143.872Z" fill="#263238"/>
<path d="M39.5859 235.609C39.5859 235.609 21.9222 215.566 16.4377 203.451L20.5781 201.682C17.577 202.178 14.5023 200.888 12.1748 198.929C9.84795 196.97 8.13876 194.394 6.46287 191.855L11.9172 190.933C6.9574 189.542 2.58766 186.156 0 181.702C6.43648 182.76 12.259 186.296 17.0573 190.714C20.9432 194.293 24.2334 198.446 27.3935 202.69C28.9349 204.761 30.2841 206.966 31.4076 209.29C34.3767 215.428 39.596 228.248 39.5859 235.609Z" fill="#455A64"/>
<path d="M77.8841 160.548C77.8892 160.551 77.8609 160.62 77.8012 160.752C77.7327 160.898 77.6422 161.09 77.5285 161.334C77.2734 161.86 76.9114 162.605 76.4502 163.556C75.9758 164.518 75.3989 165.696 74.7479 167.073C74.0944 168.448 73.3315 170.007 72.5335 171.75C70.9035 175.22 69.0284 179.383 67.0145 184.034C65.0168 188.693 62.8898 193.845 60.774 199.298C58.6702 204.758 56.7782 210.002 55.1218 214.793C53.483 219.591 52.0691 223.932 50.9405 227.596C50.3587 229.423 49.8748 231.089 49.4331 232.546C48.9882 234.002 48.6225 235.262 48.3265 236.293C48.028 237.306 47.7943 238.101 47.629 238.662C47.5498 238.918 47.4876 239.121 47.4399 239.276C47.3952 239.413 47.3701 239.484 47.3644 239.482C47.3588 239.481 47.3739 239.408 47.4072 239.267C47.4468 239.111 47.4989 238.904 47.5649 238.644C47.7163 238.079 47.93 237.279 48.2033 236.258C48.4804 235.222 48.8286 233.957 49.2571 232.494C49.6825 231.031 50.1513 229.36 50.7187 227.528C51.8196 223.854 53.2115 219.501 54.8359 214.695C56.4778 209.895 58.363 204.644 60.4686 199.18C62.5863 193.722 64.7234 188.57 66.7373 183.914C68.7683 179.266 70.666 175.11 72.3243 171.65C73.1368 169.913 73.9141 168.361 74.5839 166.992C75.2506 165.622 75.8444 164.452 76.3365 163.498C76.8216 162.559 77.2011 161.823 77.4694 161.303C77.5957 161.067 77.6956 160.879 77.7717 160.737C77.8414 160.61 77.8791 160.546 77.8841 160.548Z" fill="#263238"/>
<path d="M41.0848 244.197C41.0735 244.199 41.0458 244.072 41.0037 243.828C40.9591 243.55 40.9032 243.198 40.834 242.764C40.7674 242.301 40.682 241.735 40.5607 241.082C40.4426 240.429 40.3288 239.681 40.1516 238.864C39.8362 237.224 39.3831 235.285 38.805 233.154C38.2087 231.028 37.4766 228.712 36.5831 226.326C35.6757 223.943 34.6948 221.721 33.7371 219.731C32.7619 217.749 31.8206 215.995 30.9735 214.555C30.567 213.825 30.1579 213.189 29.8148 212.62C29.4742 212.049 29.1644 211.569 28.9087 211.177C28.6743 210.807 28.4833 210.505 28.3325 210.267C28.2036 210.056 28.1402 209.943 28.1496 209.936C28.159 209.93 28.2401 210.031 28.3865 210.229C28.5505 210.458 28.7585 210.749 29.0142 211.106C29.287 211.488 29.6131 211.959 29.9688 212.521C30.3276 213.082 30.7511 213.712 31.1721 214.436C32.0474 215.866 33.0132 217.614 34.0073 219.597C34.9838 221.588 35.9779 223.816 36.8891 226.209C37.7864 228.607 38.5128 230.935 39.0959 233.074C39.6596 235.218 40.0913 237.169 40.3785 238.821C40.5418 239.643 40.6399 240.396 40.741 241.054C40.846 241.711 40.9126 242.28 40.9603 242.746C41.0043 243.184 41.0408 243.539 41.0691 243.82C41.0904 244.066 41.0961 244.195 41.0848 244.197Z" fill="#263238"/>
<path d="M64.3924 239.483H25.7327V247.369H64.3924V239.483Z" fill="#FD5B68"/>
<path d="M29.4163 247.369L33.5981 273.894H56.9587L60.8559 247.369H29.4163Z" fill="#FD5B68"/>
<path d="M62.0205 247.369C62.0205 247.459 54.7074 247.532 45.6883 247.532C36.6661 247.532 29.3542 247.459 29.3542 247.369C29.3542 247.278 36.6661 247.205 45.6883 247.205C54.7074 247.205 62.0205 247.278 62.0205 247.369Z" fill="#263238"/>
<g opacity="0.3">
<path d="M73.2707 127.22C65.6284 131.178 59.7675 137.994 55.5536 145.5C51.3397 153.005 48.6238 161.24 45.9337 169.416L43.5798 211.582C52.4726 196.453 59.6104 178.669 61.5389 161.226C59.5664 161.05 57.5939 160.875 55.6208 160.699C59.5884 160.093 62.9188 157.218 65.0383 153.809C67.1572 150.401 68.2481 146.469 69.3126 142.6C66.9059 142.957 64.4992 143.316 62.0925 143.673C67.7466 139.9 71.8455 133.866 73.2707 127.22Z" fill="black"/>
</g>
<path d="M253.257 161.25C253.257 161.25 259.67 171.892 260.621 182.024C261.571 192.155 254.809 274 254.809 274H175.067C175.067 274 196.428 172.931 203.421 166.445L203.899 159.721L253.257 161.25Z" fill="#263238"/>
<path d="M256.662 169.364C256.662 169.364 256.696 169.856 256.633 170.791C256.573 171.723 256.402 173.107 255.869 174.809C255.349 176.509 254.43 178.526 252.893 180.547C252.12 181.551 251.186 182.546 250.068 183.453C248.951 184.361 247.667 185.179 246.293 185.977C244.919 186.777 243.449 187.556 241.98 188.464C240.522 189.38 239.036 190.419 237.81 191.807C236.606 193.208 235.622 194.874 234.97 196.74C234.327 198.61 233.956 200.622 233.673 202.694C233.39 204.769 233.209 206.912 232.923 209.096C232.629 211.275 232.226 213.511 231.413 215.67C230.616 217.828 229.313 219.863 227.552 221.471C225.801 223.094 223.682 224.305 221.478 225.32C217.059 227.34 212.458 228.629 208.556 230.988C206.61 232.158 204.921 233.658 203.621 235.402C202.33 237.159 201.478 239.148 200.825 241.127C199.543 245.109 199.005 249.089 197.957 252.686C197.82 253.134 197.685 253.578 197.55 254.018C197.397 254.452 197.245 254.883 197.095 255.31C196.738 256.142 196.419 256.973 195.999 257.737C195.627 258.526 195.157 259.24 194.734 259.959C194.496 260.302 194.261 260.641 194.029 260.977L193.68 261.475L193.304 261.944C191.328 264.449 189.126 266.366 187.014 267.755C184.902 269.15 182.913 270.078 181.235 270.669C179.553 271.253 178.202 271.56 177.281 271.721C176.828 271.789 176.478 271.841 176.229 271.879C175.991 271.913 175.869 271.921 175.869 271.921C175.869 271.921 175.988 271.89 176.224 271.845C176.471 271.8 176.818 271.738 177.269 271.656C178.184 271.475 179.524 271.148 181.191 270.55C182.854 269.943 184.823 269.004 186.911 267.603C189 266.209 191.174 264.295 193.121 261.802L193.493 261.336L193.837 260.84C194.065 260.506 194.296 260.169 194.53 259.829C194.947 259.115 195.409 258.406 195.774 257.623C196.188 256.865 196.5 256.042 196.85 255.217C196.998 254.794 197.147 254.367 197.297 253.936C197.429 253.499 197.563 253.057 197.697 252.612C198.728 249.035 199.254 245.057 200.539 241.034C201.194 239.035 202.055 237.014 203.37 235.218C204.694 233.436 206.419 231.902 208.39 230.715C212.343 228.323 216.958 227.031 221.343 225.024C223.529 224.018 225.617 222.822 227.332 221.233C229.057 219.658 230.328 217.679 231.114 215.558C231.916 213.438 232.319 211.224 232.614 209.056C232.902 206.884 233.087 204.739 233.375 202.655C233.664 200.573 234.041 198.542 234.699 196.647C235.365 194.753 236.375 193.052 237.609 191.627C238.866 190.214 240.377 189.167 241.848 188.25C243.331 187.342 244.805 186.567 246.178 185.777C247.551 184.988 248.828 184.183 249.938 183.292C251.048 182.403 251.978 181.424 252.75 180.436C254.285 178.446 255.214 176.454 255.749 174.772C256.297 173.087 256.486 171.714 256.568 170.786C256.622 170.323 256.622 169.966 256.637 169.727C256.647 169.487 256.662 169.364 256.662 169.364Z" fill="#455A64"/>
<path d="M258.901 176.806C258.901 176.806 258.947 176.91 259.022 177.122C259.106 177.331 259.19 177.654 259.291 178.081C259.457 178.935 259.582 180.259 259.222 181.894C258.874 183.521 258.072 185.456 256.613 187.329C255.172 189.217 253.134 191.009 250.833 192.875C248.554 194.754 245.955 196.777 243.962 199.626C242.972 201.045 242.215 202.693 241.843 204.501C241.45 206.304 241.354 208.214 241.232 210.171C241.123 212.127 240.92 214.154 240.393 216.154C239.88 218.155 239.112 220.135 238.099 222.027C236.078 225.81 233.064 229.257 229.253 231.764C225.414 234.27 221.084 235.48 217.286 237.376C215.389 238.32 213.593 239.425 212.141 240.851C210.691 242.277 209.584 243.965 208.776 245.735C207.16 249.293 206.496 252.996 205.593 256.363C205.148 258.052 204.658 259.672 204.065 261.187C203.45 262.693 202.725 264.088 201.867 265.311C201.018 266.54 200.035 267.582 199.029 268.469C198.539 268.93 198.003 269.306 197.506 269.696C196.976 270.04 196.483 270.406 195.959 270.685C193.911 271.876 191.955 272.538 190.329 272.881C188.699 273.236 187.398 273.257 186.526 273.279C186.099 273.258 185.769 273.242 185.532 273.231C185.308 273.218 185.194 273.203 185.194 273.203C185.194 273.203 185.31 273.195 185.534 273.198C185.77 273.201 186.1 273.206 186.525 273.213C187.394 273.169 188.686 273.128 190.301 272.756C191.912 272.397 193.846 271.722 195.866 270.527C196.383 270.247 196.868 269.881 197.391 269.537C197.881 269.148 198.408 268.772 198.89 268.313C199.88 267.43 200.845 266.395 201.677 265.178C202.517 263.967 203.227 262.587 203.83 261.093C204.411 259.589 204.893 257.979 205.33 256.293C206.221 252.935 206.872 249.22 208.502 245.609C209.317 243.813 210.444 242.085 211.923 240.627C213.405 239.168 215.229 238.043 217.143 237.088C220.975 235.172 225.293 233.962 229.074 231.49C232.835 229.016 235.815 225.611 237.817 221.875C238.82 220.007 239.58 218.051 240.09 216.075C240.614 214.099 240.817 212.106 240.931 210.15C241.058 208.197 241.158 206.271 241.562 204.438C241.945 202.6 242.729 200.908 243.738 199.471C245.776 196.582 248.4 194.562 250.687 192.695C252.996 190.84 255.029 189.074 256.469 187.215C257.925 185.374 258.735 183.469 259.099 181.865C259.473 180.253 259.371 178.944 259.227 178.092C259.06 177.239 258.876 176.814 258.901 176.806Z" fill="#455A64"/>
<path d="M177.964 119.886C177.964 119.886 183.138 155.551 191.089 159.018C195.1 160.767 198.321 159.263 200.521 155.221C202.72 151.18 208.313 122.028 208.313 122.028L192.836 121.667L192.257 127.467L186.293 116.361L177.964 119.886Z" fill="#FFBF9D"/>
<path d="M200.782 143.174C200.791 143.169 200.746 143.072 200.651 142.892C200.538 142.685 200.397 142.427 200.226 142.112C199.832 141.4 199.298 140.433 198.646 139.254C197.314 136.84 195.484 133.499 193.486 129.797C191.513 126.101 189.729 122.758 188.411 120.291C187.782 119.1 187.265 118.123 186.885 117.404C186.713 117.089 186.573 116.831 186.46 116.623C186.36 116.446 186.303 116.356 186.294 116.36C186.284 116.364 186.324 116.464 186.406 116.65C186.506 116.864 186.63 117.13 186.781 117.455C187.111 118.153 187.606 119.154 188.225 120.386C189.467 122.85 191.225 126.232 193.225 129.937C195.224 133.641 197.083 136.968 198.463 139.357C199.152 140.552 199.724 141.511 200.126 142.17C200.317 142.474 200.473 142.722 200.6 142.922C200.711 143.092 200.774 143.18 200.782 143.174Z" fill="#FB8E7F"/>
<path d="M254.717 128.228L250.299 147.988L252.389 161.25H203.839L207.013 99.3384L219.118 98.3085L248.691 103.3L254.717 128.228Z" fill="#FD5B68"/>
<path d="M242.366 102.944C242.366 102.944 255.013 101.785 261.037 110.388C264.723 115.653 269.898 127.746 269.898 127.746L253.064 130.648L242.366 102.944Z" fill="#FD5B68"/>
<g opacity="0.3">
<path d="M250.03 128.459C248.385 124.949 244.547 122.587 240.671 122.702C239.827 122.727 238.881 122.925 238.431 123.638C237.959 124.387 238.235 125.366 238.558 126.19C238.98 127.267 239.537 128.398 240.572 128.915C241.326 129.291 242.213 129.274 243.018 129.52C244.009 129.822 244.831 130.504 245.624 131.169C246.266 131.707 246.921 132.26 247.34 132.984C247.675 133.561 247.842 134.216 248.006 134.862C248.827 138.093 249.479 144.757 250.3 147.989L251.204 145.204C251.226 142.547 251.248 139.891 251.27 137.235C251.295 134.254 251.295 131.158 250.03 128.459Z" fill="black"/>
</g>
<path d="M234.937 144.933C234.946 144.885 235.6 144.998 236.661 145.081C237.722 145.164 239.196 145.183 240.805 144.976C242.414 144.764 243.834 144.367 244.839 144.014C245.843 143.663 246.446 143.385 246.467 143.429C246.476 143.447 246.335 143.535 246.07 143.677C245.806 143.823 245.411 144.007 244.912 144.21C243.916 144.618 242.479 145.054 240.844 145.27C239.208 145.481 237.708 145.428 236.641 145.289C236.107 145.221 235.677 145.145 235.385 145.071C235.092 145.001 234.933 144.953 234.937 144.933Z" fill="#263238"/>
<path d="M213.756 145.801C213.779 145.723 220.649 147.68 229.098 150.173C237.551 152.666 244.382 154.751 244.359 154.829C244.335 154.908 237.467 152.95 229.014 150.457C220.566 147.965 213.733 145.88 213.756 145.801Z" fill="#263238"/>
<g opacity="0.3">
<path d="M235.289 145.015C236.497 146.861 238.796 147.93 240.987 147.663C243.177 147.397 244.877 145.992 245.607 143.91C242.284 145.258 238.846 145.458 235.289 145.015Z" fill="black"/>
</g>
<g opacity="0.3">
<path d="M242.511 154.226L242.334 154.295C238 155.07 233.938 154.269 229.782 152.816C225.626 151.363 221.756 149.209 217.918 147.052C226.116 149.443 234.314 151.835 242.511 154.226Z" fill="black"/>
</g>
<path d="M207.013 99.3385C207.013 99.3385 199.012 100.319 195.904 107.155C192.797 113.992 190.527 122.161 190.527 122.161L206.848 125.835C206.848 125.835 209.415 112.028 209.611 107.155C209.825 101.818 210.034 99.1845 207.013 99.3385Z" fill="#FD5B68"/>
<path d="M205.474 128.021C205.392 128.021 205.33 125.972 205.336 123.444C205.341 120.915 205.412 118.866 205.494 118.866C205.576 118.866 205.638 120.916 205.632 123.444C205.627 125.972 205.556 128.021 205.474 128.021Z" fill="#263238"/>
<path d="M214.339 55.5361C218.66 50.254 224.464 47.2133 231.287 47.1008C235.136 47.0373 236.73 47.8372 239.502 48.585C242.274 49.3328 244.776 50.8201 246.429 53.1678C248.394 55.9559 250.044 59.0783 250.415 62.4684C250.797 65.9509 251.179 69.4572 250.916 72.951C250.653 76.4448 249.704 79.9631 247.647 82.7983L238.758 84.3429C233.849 84.51 228.872 84.6709 224.089 83.5511C219.305 82.4313 214.659 79.8581 212.097 75.6662C208.539 69.843 210.017 60.8176 214.339 55.5361Z" fill="#263238"/>
<path d="M244.958 87.8027C244.94 87.8234 245.102 88.022 245.489 88.269C245.871 88.5159 246.495 88.7905 247.32 88.8873C248.136 88.9727 249.17 88.8672 250.146 88.3142C251.128 87.7744 251.933 86.7307 252.27 85.4947C252.603 84.2568 252.433 82.9497 251.856 81.9883C251.292 81.0187 250.452 80.4067 249.704 80.0693C248.943 79.7375 248.266 79.6602 247.811 79.6809C247.353 79.6998 247.113 79.7896 247.118 79.816C247.111 79.9222 248.153 79.7017 249.541 80.4073C250.214 80.7611 250.951 81.3537 251.43 82.2277C251.918 83.0899 252.054 84.2448 251.758 85.3564C251.453 86.4649 250.754 87.3943 249.898 87.8926C249.044 88.4066 248.109 88.5467 247.349 88.5134C245.795 88.4242 245.006 87.7078 244.958 87.8027Z" fill="#E0E0E0"/>
<path d="M205.723 81.3417C205.943 79.3359 206.995 77.3653 208.732 76.3392C210.47 75.313 212.896 75.4192 214.344 76.8255L215.74 78.4901C217.929 79.4226 219.305 81.9116 219.041 84.2762C218.776 86.6408 216.957 88.7258 214.681 89.4201C212.405 90.1145 209.795 89.4421 208.055 87.819C206.314 86.1965 205.463 83.7075 205.723 81.3417Z" fill="#263238"/>
<path d="M207.485 87.3365C207.55 87.3063 206.933 86.7376 207.007 85.5676C207.081 84.4302 207.908 82.9385 209.041 81.5717C210.197 80.1981 211.56 79.2587 212.603 78.7158C213.644 78.1565 214.36 77.9523 214.338 77.8794C214.329 77.836 213.575 77.9359 212.467 78.4386C211.359 78.9244 209.911 79.86 208.708 81.2896C208.106 81.999 207.622 82.7506 207.27 83.4751C206.913 84.1958 206.692 84.9248 206.697 85.5575C206.695 86.191 206.9 86.6817 207.096 86.967C207.297 87.2554 207.468 87.3553 207.485 87.3365Z" fill="#455A64"/>
<path d="M211.785 89.9612C211.93 89.9524 211.326 87.2648 212.182 84.0909C212.991 80.9031 214.834 78.8571 214.712 78.7779C214.676 78.7446 214.169 79.2008 213.537 80.0975C212.904 80.9898 212.188 82.3534 211.76 83.9803C211.337 85.6078 211.293 87.1473 211.408 88.235C211.52 89.3272 211.738 89.9731 211.785 89.9612Z" fill="#455A64"/>
<path d="M238.762 98.7654C238.702 95.6461 238.629 93.0918 238.629 93.1062C238.629 93.1062 245.877 92.3075 247.88 83.0182C248.876 78.3984 249.061 70.7441 249.01 64.476C248.965 58.8345 244.161 51.1519 237.195 51.1274L234.099 50.7673L222.248 55.4777C220.537 55.5644 219.176 56.9462 219.116 58.6591L218.76 98.3393L230.215 126.15L238.434 115.01L238.762 98.7654Z" fill="#FFBF9D"/>
<path d="M233.945 80.8434C234.01 80.3539 234.282 79.9209 234.629 79.6237C235.323 79.0286 236.338 78.9715 237.081 79.4842C237.824 79.997 238.25 81.0482 238.11 82.0254C237.692 82.5985 237.055 82.9855 236.348 83.0471C236.238 83.0565 236.128 83.0603 236.018 83.0578C235.482 83.044 234.938 82.863 234.528 82.4684C234.119 82.0731 233.866 81.4479 233.945 80.8434Z" fill="#FB8E7F"/>
<path d="M244.404 70.8943C244.391 71.5309 243.842 72.0443 243.178 72.0436C242.515 72.043 241.986 71.5284 241.999 70.8918C242.011 70.2559 242.56 69.7413 243.223 69.7419C243.888 69.7431 244.416 70.259 244.404 70.8943Z" fill="#263238"/>
<path d="M246.703 67.9547C246.546 68.1036 245.672 67.3797 244.378 67.3119C243.087 67.2258 242.102 67.8391 241.97 67.6732C241.904 67.5991 242.072 67.3251 242.501 67.0467C242.925 66.7696 243.635 66.5164 244.44 66.5635C245.245 66.6125 245.906 66.9462 246.28 67.271C246.661 67.5972 246.781 67.8881 246.703 67.9547Z" fill="#263238"/>
<path d="M238.575 77.7524C238.573 77.6789 239.385 77.584 240.697 77.4885C241.028 77.4722 241.345 77.4238 241.413 77.202C241.504 76.9676 241.385 76.6037 241.247 76.211C240.98 75.3947 240.701 74.5389 240.408 73.6422C239.248 69.9876 238.428 66.9889 238.575 66.9443C238.723 66.8984 239.783 69.8242 240.942 73.4794C241.22 74.3805 241.487 75.2389 241.739 76.0602C241.843 76.4423 242.035 76.8802 241.839 77.366C241.737 77.6079 241.484 77.7738 241.27 77.819C241.054 77.8718 240.869 77.8655 240.705 77.8662C239.39 77.8649 238.577 77.8259 238.575 77.7524Z" fill="#263238"/>
<path d="M238.629 93.1062C238.629 93.1062 232.302 93.1665 226.262 89.0695C226.262 89.0695 229.249 95.7492 238.677 95.3866L238.629 93.1062Z" fill="#FB8E7F"/>
<path d="M234.721 78.438C234.932 78.4374 234.857 79.8412 236.004 80.9037C237.149 81.9695 238.654 81.8941 238.654 82.0908C238.669 82.18 238.306 82.3453 237.673 82.3277C237.052 82.3151 236.159 82.0663 235.457 81.4165C234.757 80.7655 234.487 79.9323 234.47 79.3542C234.45 78.7641 234.625 78.4248 234.721 78.438Z" fill="#263238"/>
<path d="M246.446 63.0798C246.211 63.3839 245.233 63.1181 244.071 63.1508C242.907 63.1464 241.933 63.4354 241.694 63.1369C241.588 62.9918 241.732 62.6908 242.15 62.3955C242.562 62.1007 243.262 61.8456 244.061 61.8356C244.86 61.8268 245.563 62.0643 245.979 62.3496C246.402 62.6349 246.549 62.9321 246.446 63.0798Z" fill="#263238"/>
<path d="M229.353 70.5519C229.32 71.1871 229.83 71.7389 230.492 71.786C231.153 71.8331 231.718 71.3581 231.752 70.7228C231.785 70.0875 231.275 69.5345 230.614 69.488C229.951 69.4409 229.387 69.9172 229.353 70.5519Z" fill="#263238"/>
<path d="M228.98 67.491C229.126 67.6506 230.05 66.9921 231.345 67.0178C232.639 67.0254 233.577 67.7084 233.721 67.5519C233.791 67.4828 233.643 67.1969 233.236 66.8884C232.833 66.5811 232.144 66.2776 231.337 66.2663C230.53 66.2569 229.846 66.5421 229.451 66.8387C229.047 67.1378 228.907 67.4193 228.98 67.491Z" fill="#263238"/>
<path d="M228.236 64.711C228.487 65.0095 229.491 64.7217 230.693 64.728C231.894 64.6972 232.908 64.9643 233.148 64.6608C233.253 64.5131 233.098 64.2159 232.658 63.9293C232.225 63.6447 231.497 63.4046 230.67 63.4128C229.845 63.4222 229.124 63.6761 228.701 63.9702C228.271 64.2649 228.127 64.5652 228.236 64.711Z" fill="#263238"/>
<path d="M220.726 74.4076C220.762 73.7094 220.046 72.0197 219.363 71.8746C217.538 71.4869 214.213 71.4523 213.925 76.1249C213.532 82.5124 220.026 81.5893 220.048 81.4065C220.066 81.2638 220.599 76.818 220.726 74.4076Z" fill="#FFBF9D"/>
<path d="M218.43 78.9646C218.403 78.9426 218.314 79.0356 218.121 79.1103C217.932 79.1826 217.613 79.2216 217.287 79.0764C216.628 78.7874 216.125 77.6808 216.166 76.5277C216.185 75.9452 216.341 75.3991 216.575 74.9536C216.798 74.4987 217.121 74.1908 217.465 74.1512C217.807 74.0934 218.035 74.3121 218.102 74.4962C218.177 74.6803 218.129 74.8053 218.161 74.8179C218.178 74.8355 218.305 74.7199 218.27 74.4528C218.251 74.324 218.186 74.1688 218.043 74.0368C217.898 73.903 217.676 73.8257 217.438 73.8364C216.943 73.8401 216.472 74.2662 216.215 74.7551C215.93 75.2446 215.742 75.8579 215.72 76.512C215.681 77.8014 216.266 79.0463 217.173 79.3699C217.615 79.5144 217.998 79.4019 218.201 79.263C218.409 79.1185 218.451 78.9778 218.43 78.9646Z" fill="#FB8E7F"/>
<path d="M219.102 71.8928L220.725 73.5762C227.733 66.8683 241.429 50.073 240.665 51.0734C240.665 51.0734 235.864 49.099 230.653 49.9863C225.442 50.8742 215.558 53.4819 215.709 59.6281C215.861 65.7743 219.102 71.8928 219.102 71.8928Z" fill="#263238"/>
<path d="M219.251 87.8027C219.269 87.8234 219.107 88.022 218.72 88.269C218.338 88.5159 217.714 88.7905 216.889 88.8873C216.073 88.9727 215.039 88.8672 214.063 88.3142C213.081 87.7744 212.276 86.7307 211.939 85.4947C211.606 84.2568 211.777 82.9497 212.353 81.9883C212.917 81.0187 213.757 80.4067 214.505 80.0693C215.266 79.7375 215.944 79.6602 216.398 79.6809C216.856 79.6998 217.097 79.7896 217.092 79.816C217.098 79.9222 216.056 79.7017 214.668 80.4073C213.996 80.7611 213.258 81.3537 212.78 82.2277C212.292 83.0899 212.156 84.2448 212.452 85.3564C212.756 86.4649 213.456 87.3943 214.312 87.8926C215.166 88.4066 216.101 88.5467 216.86 88.5134C218.414 88.4242 219.204 87.7078 219.251 87.8027Z" fill="#E0E0E0"/>
<path d="M209.821 70.4828C209.81 70.4796 209.843 70.3527 209.918 70.1133C209.995 69.8745 210.131 69.5289 210.354 69.106C210.798 68.2652 211.647 67.1272 213.023 66.1023C214.378 65.0504 216.257 64.1914 218.398 63.5172C220.534 62.8209 222.943 62.2812 225.307 61.2657C227.686 60.2886 229.808 59.0287 231.617 57.7311C233.421 56.4197 234.909 55.0605 236.071 53.837C237.233 52.6123 238.078 51.5346 238.647 50.7806C238.908 50.4212 239.121 50.1296 239.288 49.9002C239.436 49.6998 239.519 49.5973 239.528 49.603C239.537 49.6093 239.473 49.7237 239.343 49.9367C239.209 50.1472 239.02 50.4645 238.751 50.8547C238.211 51.6352 237.39 52.7411 236.24 53.9954C235.092 55.2477 233.606 56.6377 231.795 57.9749C229.979 59.2983 227.838 60.5801 225.433 61.568C223.037 62.5954 220.612 63.1295 218.489 63.8043C216.358 64.4591 214.509 65.2792 213.161 66.2883C211.795 67.2699 210.937 68.3601 210.466 69.1682C209.997 69.9838 209.854 70.4947 209.821 70.4828Z" fill="#455A64"/>
<path d="M211.68 71.4881C211.68 71.4881 211.615 70.9647 211.927 70.0925C212.225 69.2266 212.981 68.0497 214.327 67.0851C215.661 66.0891 217.565 65.4733 219.657 64.9957C221.758 64.532 224.038 63.9394 226.28 62.8938C228.519 61.857 230.527 60.6009 232.185 59.2486C233.852 57.9064 235.197 56.5126 236.233 55.2697C237.283 54.0337 237.986 52.9214 238.49 52.1674C238.71 51.8042 238.889 51.5082 239.032 51.2726C239.159 51.0696 239.23 50.9653 239.241 50.9703C239.251 50.9754 239.198 51.0904 239.09 51.304C238.961 51.5478 238.799 51.8551 238.6 52.2327C238.127 53.0107 237.448 54.1499 236.413 55.4161C235.391 56.6886 234.05 58.1131 232.376 59.483C230.71 60.8623 228.683 62.1423 226.417 63.1917C224.153 64.2486 221.821 64.8443 219.726 65.2898C217.636 65.7498 215.772 66.3317 214.461 67.2742C213.134 68.1891 212.373 69.3083 212.046 70.1384C211.705 70.9735 211.723 71.4957 211.68 71.4881Z" fill="#455A64"/>
<path d="M178.613 123.368C178.253 123.233 177.783 118.149 177.783 118.149C177.783 118.149 172.7 114.085 172.009 112.432C171.317 110.779 171.417 106.842 171.417 106.842L179.741 101.173C179.741 101.173 184.663 105.581 185.951 107.304C186.673 108.271 187.233 110.943 187.585 113.104C187.885 114.942 187.954 116.809 187.794 118.665L187.67 120.098C187.67 120.098 184.321 125.493 178.613 123.368Z" fill="#FFBF9D"/>
<path d="M172.39 113.432C172.39 113.432 171.743 112.886 170.688 111.744C169.61 110.576 168.409 109.482 169.425 108.245C170.023 107.517 170.729 107.528 170.729 107.528C170.729 107.528 170.112 106.44 170.648 105.755C171.183 105.069 171.965 105.145 171.965 105.145C171.965 105.145 171.156 103.589 171.903 102.535C172.84 101.214 174.418 101.545 174.418 101.545C174.418 101.545 171.043 94.6709 170.838 94.3159C170.084 93.0145 170.154 91.5969 171.664 91.4404C172.217 91.3832 172.692 91.8162 174.129 93.9325C175.566 96.0489 177.959 99.6828 177.959 99.6828C177.959 99.6828 180.581 101.901 181.89 103.145C183.199 104.389 185.952 107.304 186.408 108.174C187.587 110.426 187.332 114.062 187.332 114.062L177.784 118.149C177.783 118.15 173.006 113.978 172.39 113.432Z" fill="#FFBF9D"/>
<path d="M171.032 107.768C171.051 107.744 171.483 108.044 172.167 108.549C172.524 108.816 172.926 109.117 173.362 109.443C173.585 109.613 173.828 109.792 174.047 110.025C174.263 110.253 174.457 110.559 174.497 110.914C174.548 111.258 174.431 111.652 174.142 111.858C173.859 112.073 173.516 112.09 173.23 112.066C172.938 112.041 172.672 111.966 172.433 111.898C172.192 111.829 171.968 111.76 171.766 111.694C171.36 111.56 171.037 111.438 170.817 111.346C170.597 111.253 170.48 111.193 170.485 111.179C170.496 111.149 170.994 111.319 171.81 111.546C172.218 111.647 172.709 111.816 173.245 111.865C173.511 111.882 173.802 111.855 174.013 111.688C174.23 111.529 174.322 111.233 174.282 110.94C174.248 110.643 174.089 110.383 173.891 110.169C173.692 109.953 173.461 109.775 173.241 109.601C172.815 109.261 172.423 108.948 172.075 108.669C171.413 108.135 171.014 107.791 171.032 107.768Z" fill="#FB8E7F"/>
<path d="M179.338 105.73C179.286 105.752 178.984 105.068 178.887 104.161C178.784 103.253 178.93 102.521 178.985 102.531C179.049 102.538 179.003 103.259 179.103 104.137C179.196 105.015 179.398 105.71 179.338 105.73Z" fill="#FB8E7F"/>
<path d="M183.959 106.427C182.767 105.854 181.393 105.727 180.082 105.902C178.77 106.077 177.514 106.54 176.315 107.1C175.356 107.549 174.316 108.214 174.184 109.265C174.049 110.346 175.033 111.322 176.104 111.53C177.174 111.738 178.27 111.366 179.257 110.904C180.245 110.443 181.205 109.881 182.275 109.673" fill="#FFBF9D"/>
<path d="M182.276 109.674C182.279 109.692 181.991 109.748 181.499 109.932C181.004 110.111 180.326 110.458 179.481 110.885C179.055 111.094 178.579 111.312 178.039 111.475C177.502 111.635 176.889 111.745 176.247 111.655C175.604 111.572 174.958 111.234 174.514 110.676C174.29 110.401 174.133 110.056 174.079 109.686C174.036 109.315 174.106 108.923 174.291 108.59C174.662 107.913 175.303 107.507 175.903 107.186C176.518 106.876 177.123 106.621 177.716 106.405C178.898 105.974 180.031 105.762 180.986 105.755C181.942 105.744 182.707 105.914 183.209 106.088C183.461 106.173 183.65 106.258 183.775 106.32C183.899 106.384 183.963 106.421 183.96 106.428C183.952 106.447 183.688 106.314 183.184 106.169C182.682 106.022 181.926 105.879 180.989 105.909C180.054 105.936 178.947 106.158 177.785 106.594C177.205 106.811 176.6 107.071 176.002 107.375C175.419 107.688 174.812 108.086 174.483 108.693C174.317 108.99 174.258 109.335 174.293 109.659C174.341 109.983 174.478 110.292 174.682 110.545C175.085 111.056 175.681 111.376 176.275 111.457C176.876 111.547 177.464 111.45 177.988 111.302C178.515 111.151 178.988 110.945 179.414 110.746C180.264 110.339 180.962 110.008 181.471 109.852C181.724 109.77 181.926 109.725 182.063 109.698C182.202 109.675 182.274 109.667 182.276 109.674Z" fill="#FB8E7F"/>
<path d="M171.143 107.854C172.732 109.041 174.256 110.428 175.718 111.769C176.143 112.159 176.592 112.571 177.157 112.689C177.61 112.783 178.378 112.039 178.738 111.749L173.606 106.355" fill="#FFBF9D"/>
<path d="M173.607 106.355C173.617 106.346 173.766 106.483 174.03 106.743C174.316 107.032 174.688 107.406 175.138 107.86C176.072 108.814 177.365 110.153 178.817 111.675L178.898 111.758L178.807 111.833C178.542 112.051 178.265 112.307 177.944 112.522C177.817 112.606 177.685 112.685 177.537 112.742C177.462 112.771 177.384 112.796 177.296 112.801C177.21 112.813 177.113 112.791 177.046 112.774C176.749 112.695 176.488 112.542 176.26 112.372C175.806 112.022 175.436 111.639 175.055 111.298C174.305 110.606 173.623 109.989 173.042 109.48C172.462 108.972 171.983 108.571 171.651 108.295C171.318 108.02 171.134 107.867 171.143 107.854C171.152 107.844 171.353 107.972 171.703 108.229C172.052 108.485 172.548 108.868 173.142 109.364C173.738 109.858 174.432 110.465 175.19 111.15C175.574 111.486 175.957 111.873 176.387 112.2C176.603 112.36 176.842 112.496 177.102 112.565C177.331 112.645 177.586 112.494 177.822 112.342C178.125 112.139 178.395 111.892 178.671 111.665L178.66 111.824C177.214 110.298 175.94 108.941 175.033 107.96C174.602 107.488 174.246 107.098 173.972 106.797C173.727 106.52 173.597 106.364 173.607 106.355Z" fill="#FB8E7F"/>
<path d="M172.159 104.724C173.885 106.669 175.61 108.613 177.336 110.557C177.702 110.97 178.078 111.39 178.56 111.66C179.041 111.929 179.657 112.024 180.143 111.762C180.813 111.401 181.004 110.483 180.782 109.755C180.561 109.028 180.029 108.443 179.528 107.871C177.967 106.093 176.545 104.195 175.277 102.198" fill="#FFBF9D"/>
<path d="M175.278 102.198C175.284 102.194 175.333 102.257 175.421 102.38C175.521 102.525 175.646 102.705 175.799 102.925C176.128 103.397 176.605 104.078 177.226 104.898C177.846 105.717 178.61 106.674 179.507 107.694C179.948 108.204 180.469 108.728 180.78 109.438C180.935 109.787 181.011 110.195 180.965 110.594C180.921 110.991 180.762 111.403 180.437 111.689C180.113 111.977 179.66 112.067 179.263 112.008C178.86 111.956 178.49 111.774 178.188 111.542C177.581 111.068 177.159 110.486 176.698 109.988C175.805 108.969 174.999 108.048 174.314 107.267C173.657 106.505 173.118 105.88 172.722 105.421C172.55 105.215 172.41 105.047 172.297 104.912C172.202 104.793 172.154 104.729 172.16 104.724C172.166 104.719 172.224 104.774 172.33 104.883C172.45 105.011 172.601 105.17 172.785 105.365C173.194 105.813 173.751 106.422 174.43 107.166C175.125 107.938 175.943 108.848 176.848 109.855C177.312 110.35 177.748 110.935 178.316 111.372C178.6 111.588 178.932 111.747 179.291 111.794C179.646 111.845 180.024 111.765 180.294 111.525C180.566 111.288 180.71 110.928 180.75 110.571C180.792 110.208 180.727 109.85 180.584 109.522C180.299 108.862 179.797 108.343 179.356 107.826C178.463 106.794 177.709 105.823 177.102 104.989C176.495 104.156 176.036 103.458 175.728 102.971C175.575 102.727 175.458 102.536 175.383 102.404C175.308 102.273 175.271 102.202 175.278 102.198Z" fill="#FB8E7F"/>
<path d="M183.174 115.583C183.18 115.607 182.952 115.693 182.561 115.717C182.173 115.744 181.621 115.683 181.067 115.453C180.512 115.22 180.082 114.871 179.827 114.575C179.57 114.28 179.471 114.058 179.492 114.044C179.542 113.999 180.082 114.818 181.15 115.251C182.21 115.706 183.172 115.514 183.174 115.583Z" fill="#FB8E7F"/>
<path d="M249.021 99.1355L247.212 121.97C247.148 122.783 246.443 123.393 245.63 123.34L232.902 122.514C232.065 122.459 231.437 121.726 231.514 120.891L233.594 98.0723C233.667 97.2674 234.368 96.6672 235.175 96.72L247.632 97.5294C248.462 97.5841 249.087 98.3067 249.021 99.1355Z" fill="#455A64"/>
<path d="M267.236 128.205C267.236 128.205 271.039 153.895 270.889 157.347C270.738 160.799 266.837 168.453 261.584 169.203C256.331 169.954 251.378 165.151 251.228 158.848C251.078 152.545 250.3 132.609 250.3 132.609L254.22 130.449L267.236 128.205Z" fill="#FFBF9D"/>
<path d="M245.59 106.978C245.59 106.978 249.528 109.399 250.689 110.031C251.851 110.662 251.702 115.355 251.702 115.355L258.324 130.75L250.339 133.611C250.339 133.611 247.497 128.225 246.68 127.544C245.862 126.863 244.773 126.591 244.773 126.591C244.773 126.591 244.365 128.089 243.139 127.408C241.913 126.727 240.551 125.093 240.551 125.093C240.551 125.093 239.462 125.774 239.053 124.956C238.645 124.139 237.963 122.369 237.963 122.369C237.963 122.369 240.279 119.372 241.232 119.372C242.186 119.372 247.089 119.645 247.089 119.645C247.089 119.645 246.816 119.236 245.454 118.691C244.092 118.146 235.982 115.761 235.601 115.613C235.031 115.393 234.386 113.902 236.157 113.766C237.928 113.63 247.904 115.412 247.904 115.412C247.904 115.412 248.45 112.835 248.042 112.29C247.633 111.745 244.092 109.429 245.59 106.978Z" fill="#FFBF9D"/>
<path d="M240.54 124.97C240.513 124.968 240.449 124.545 240.573 123.85C240.647 123.508 240.8 123.081 241.174 122.747C241.556 122.399 242.126 122.33 242.637 122.303C243.687 122.236 244.641 122.304 245.321 122.402C246.002 122.5 246.412 122.616 246.405 122.654C246.392 122.745 244.719 122.465 242.655 122.599C242.141 122.625 241.661 122.687 241.35 122.955C241.033 123.219 240.868 123.589 240.776 123.901C240.609 124.54 240.593 124.976 240.54 124.97Z" fill="#FB8E7F"/>
<path d="M242.12 125.462C242.173 125.394 242.802 125.817 243.651 126.183C244.496 126.555 245.235 126.728 245.221 126.814C245.213 126.89 244.419 126.844 243.532 126.454C242.643 126.071 242.069 125.52 242.12 125.462Z" fill="#FB8E7F"/>
<path d="M247.448 115.355C247.459 115.279 248.208 115.421 248.856 116.053C249.51 116.68 249.676 117.424 249.6 117.437C249.518 117.468 249.247 116.834 248.65 116.266C248.063 115.689 247.419 115.438 247.448 115.355Z" fill="#FB8E7F"/>
<path d="M179.454 252.827C179.366 252.805 182.798 238.377 187.118 220.605C191.439 202.826 195.012 188.436 195.1 188.457C195.188 188.478 191.757 202.903 187.436 220.682C183.116 238.455 179.542 252.848 179.454 252.827Z" fill="#455A64"/>
<path d="M242.277 47.1943L244.124 40.5253C242.379 37.6926 241.37 34.3584 241.37 30.7873C241.37 20.5177 249.695 12.193 259.964 12.193C270.234 12.193 278.559 20.5177 278.559 30.7873C278.559 41.0563 270.234 49.3817 259.964 49.3817C255.676 49.3817 251.73 47.9263 248.585 45.4876L248.591 45.4958L242.277 47.1943Z" fill="white"/>
<path d="M242.277 47.1943C242.277 47.1943 242.424 47.1484 242.698 47.0705C242.983 46.99 243.386 46.8763 243.911 46.728C244.98 46.4295 246.543 45.9934 248.574 45.4266L248.535 45.5404C248.535 45.5404 248.531 45.5353 248.529 45.5322C248.504 45.5008 248.51 45.4555 248.541 45.431C248.568 45.4103 248.605 45.4122 248.63 45.431C250.571 46.9109 253.423 48.4938 257.119 49.0505C258.955 49.3396 260.985 49.3465 263.08 48.9745C265.173 48.6113 267.337 47.8616 269.368 46.6482C271.399 45.4398 273.293 43.7702 274.815 41.696C276.337 39.6261 277.49 37.1509 278.036 34.4526C278.563 31.755 278.503 28.8544 277.761 26.0544C277.42 24.6443 276.824 23.2964 276.157 21.9781C275.405 20.7075 274.592 19.4407 273.542 18.3548C272.558 17.2326 271.392 16.3088 270.201 15.4624C268.963 14.687 267.691 13.9713 266.333 13.5088C263.645 12.5141 260.794 12.1817 258.085 12.4456C255.374 12.7265 252.819 13.6074 250.625 14.9019C248.427 16.1945 246.588 17.893 245.183 19.7706C242.351 23.5446 241.327 27.942 241.502 31.6312C241.658 35.3569 242.901 38.3787 244.187 40.4876C244.198 40.5052 244.2 40.5272 244.195 40.546C243.58 42.6901 243.106 44.3408 242.782 45.47C242.622 46.0242 242.498 46.4503 242.411 46.7506C242.327 47.0397 242.277 47.1943 242.277 47.1943C242.277 47.1943 242.308 47.0585 242.382 46.7764C242.461 46.4785 242.572 46.0575 242.716 45.509C243.023 44.3615 243.471 42.6844 244.053 40.5058L244.061 40.5642C242.743 38.4535 241.462 35.409 241.282 31.64C241.083 27.9093 242.099 23.4441 244.962 19.6034C246.381 17.6925 248.243 15.9626 250.474 14.6436C252.699 13.3234 255.296 12.4217 258.053 12.132C260.807 11.8593 263.709 12.1936 266.445 13.204C267.828 13.6747 269.123 14.4011 270.382 15.1903C271.594 16.0506 272.781 16.9913 273.783 18.1324C274.85 19.2377 275.679 20.5265 276.443 21.8204C277.121 23.1619 277.727 24.5349 278.073 25.9702C278.826 28.8205 278.884 31.7701 278.343 34.5136C277.784 37.2577 276.605 39.7719 275.055 41.8713C273.503 43.9751 271.574 45.6654 269.509 46.8851C267.443 48.1098 265.244 48.8614 263.122 49.2202C260.997 49.5871 258.941 49.5695 257.086 49.266C253.348 48.6798 250.48 47.0573 248.541 45.5448L248.643 45.4436C248.645 45.4467 248.649 45.4518 248.649 45.4518C248.673 45.4832 248.668 45.5284 248.636 45.5523C248.629 45.558 248.619 45.563 248.61 45.5655C246.546 46.0996 244.958 46.5106 243.871 46.7921C243.353 46.9247 242.954 47.0265 242.672 47.0981C242.406 47.1666 242.277 47.1943 242.277 47.1943Z" fill="#263238"/>
<path d="M251.648 31.2391L253.824 29.0624L258.022 32.7937L266.262 24.8649L268.282 27.0416L257.711 36.9913L251.648 31.2391Z" fill="#FD5B68"/>
</svg>
