<svg width="16" height="17" viewBox="0 0 16 17" fill="none" xmlns="http://www.w3.org/2000/svg">
<path fill-rule="evenodd" clip-rule="evenodd" d="M10.8843 1.12H5.11573C3.88475 1.1268 2.7069 1.62233 1.84129 2.49759C0.975684 3.37287 0.493226 4.55615 0.500072 5.78714V11.4529C0.493226 12.6838 0.975684 13.8671 1.84129 14.7424C2.7069 15.6176 3.88475 16.1132 5.11573 16.12H10.8843C12.1152 16.1132 13.293 15.6176 14.1586 14.7424C15.0243 13.8671 15.5067 12.6838 15.4999 11.4529V5.78714C15.5067 4.55615 15.0243 3.37287 14.1586 2.49759C13.293 1.62233 12.1152 1.1268 10.8843 1.12Z" stroke="#74797B" stroke-linecap="round" stroke-linejoin="round"/>
<path d="M3.71469 5.4057C3.2709 5.4057 2.91113 5.76548 2.91113 6.20927C2.91113 6.65306 3.2709 7.01284 3.71469 7.01284V5.4057ZM8.00034 7.01284C8.44412 7.01284 8.8039 6.65306 8.8039 6.20927C8.8039 5.76548 8.44412 5.4057 8.00034 5.4057V7.01284ZM7.19678 6.20927C7.19678 6.65306 7.55656 7.01284 8.00034 7.01284C8.44412 7.01284 8.8039 6.65306 8.8039 6.20927H7.19678ZM8.8039 4.33427C8.8039 3.89048 8.44412 3.5307 8.00034 3.5307C7.55656 3.5307 7.19678 3.89048 7.19678 4.33427H8.8039ZM8.00034 5.4057C7.55656 5.4057 7.19678 5.76548 7.19678 6.20927C7.19678 6.65306 7.55656 7.01284 8.00034 7.01284V5.4057ZM11.7503 7.01284C12.1941 7.01284 12.5539 6.65306 12.5539 6.20927C12.5539 5.76548 12.1941 5.4057 11.7503 5.4057V7.01284ZM11.7503 5.4057C11.3065 5.4057 10.9467 5.76548 10.9467 6.20927C10.9467 6.65306 11.3065 7.01284 11.7503 7.01284V5.4057ZM12.286 7.01284C12.7298 7.01284 13.0896 6.65306 13.0896 6.20927C13.0896 5.76548 12.7298 5.4057 12.286 5.4057V7.01284ZM12.4078 6.67116C12.6629 6.30808 12.5754 5.80687 12.2123 5.55175C11.8491 5.29663 11.348 5.38419 11.0928 5.74732L12.4078 6.67116ZM7.22206 9.98959C6.88371 10.2768 6.84235 10.7839 7.1296 11.1222C7.41684 11.4606 7.92395 11.5019 8.26219 11.2147L7.22206 9.98959ZM5.10712 11.7274C4.75225 11.9939 4.68063 12.4977 4.94713 12.8526C5.21365 13.2074 5.71736 13.2791 6.07222 13.0125L5.10712 11.7274ZM8.27548 11.1989C8.6074 10.9044 8.63772 10.3965 8.34319 10.0646C8.04877 9.73256 7.54081 9.70224 7.20888 9.99677L8.27548 11.1989ZM7.10999 11.094C7.38406 11.4431 7.88913 11.5039 8.2383 11.23C8.58737 10.9559 8.64822 10.4508 8.37426 10.1017L7.10999 11.094ZM7.1281 8.02716C6.94864 7.6212 6.47411 7.43777 6.06825 7.61724C5.66236 7.7967 5.47884 8.27124 5.65833 8.67709L7.1281 8.02716ZM8.38691 10.1226C8.12205 9.76641 7.6187 9.69249 7.26256 9.95734C6.90653 10.2222 6.83249 10.7256 7.09735 11.0817L8.38691 10.1226ZM10.0309 13.6137C10.4218 13.8236 10.909 13.6769 11.119 13.2858C11.3289 12.8949 11.1822 12.4077 10.7913 12.1977L10.0309 13.6137ZM3.71469 7.01284H8.00034V5.4057H3.71469V7.01284ZM8.8039 6.20927V4.33427H7.19678V6.20927H8.8039ZM8.00034 7.01284H11.7503V5.4057H8.00034V7.01284ZM11.7503 7.01284H12.286V5.4057H11.7503V7.01284ZM11.0928 5.74732C9.98792 7.32002 8.68722 8.74556 7.22206 9.98959L8.26219 11.2147C9.83139 9.88234 11.2244 8.35556 12.4078 6.67116L11.0928 5.74732ZM6.07222 13.0125C6.6195 12.6015 7.41427 11.9629 8.27548 11.1989L7.20888 9.99677C6.37929 10.7327 5.61839 11.3434 5.10712 11.7274L6.07222 13.0125ZM8.37426 10.1017C7.87423 9.4647 7.45563 8.76774 7.1281 8.02716L5.65833 8.67709C6.03986 9.53991 6.52757 10.3518 7.10999 11.094L8.37426 10.1017ZM7.09735 11.0817C7.87755 12.1307 8.87911 12.9952 10.0309 13.6137L10.7913 12.1977C9.84725 11.6908 9.02643 10.9823 8.38691 10.1226L7.09735 11.0817Z" fill="#74797B"/>
</svg>
