<svg width="15" height="16" viewBox="0 0 15 16" fill="none" xmlns="http://www.w3.org/2000/svg">
<g clip-path="url(#clip0_1504_9574)">
<path d="M11.9478 1.26666C12.9392 1.26666 13.6494 1.60415 13.8638 2.76548C14.0279 3.65494 13.8005 4.95572 12.3005 5.1854C11.2705 5.40572 8.60093 5.42681 7.42788 5.55572C8.356 7.35455 7.53804 8.81822 7.02475 9.82837C6.76811 10.3323 6.44936 11.5018 6.64272 12.5143C6.70952 12.8624 6.99077 13.6299 6.3978 13.8877C6.17866 13.9827 6.00639 14.0073 5.82827 14.0073C5.68296 14.0073 5.53413 13.9909 5.35249 13.9838C5.15796 13.9756 5.01147 13.9534 4.86733 13.9534C4.71147 13.9534 4.55796 13.9792 4.34936 14.0788C4.07866 14.2077 3.90639 14.3284 3.62397 14.3788C3.59819 14.3835 3.57124 14.3858 3.54429 14.3858C3.27475 14.3858 2.95952 14.1842 2.95952 14.1842C2.95952 14.1842 2.89624 14.353 2.68413 14.4127C2.57514 14.4432 2.47788 14.4772 2.37593 14.4772C2.29038 14.4772 2.20132 14.4538 2.10054 14.3846C1.95288 14.2838 2.10054 14.1526 2.10054 14.1526C2.10054 14.1526 2.62202 13.8514 2.75561 13.7741C3.00171 13.6335 3.66147 13.0674 4.28843 12.6585C4.72788 12.3713 4.91772 12.1452 5.09585 11.6928C5.33139 11.0917 4.77944 7.18462 4.94936 5.50884C4.84272 4.74947 4.65288 4.28072 5.02202 3.65845C5.12175 3.48998 5.27232 3.35746 5.4521 3.27994C7.39038 2.44673 10.4771 1.39556 11.2857 1.3065C11.5177 1.28189 11.7392 1.26666 11.9478 1.26666ZM11.9478 0.915092C11.7369 0.915092 11.5083 0.929155 11.247 0.95728C10.34 1.05689 7.17241 2.15728 5.31265 2.9565C5.06421 3.06314 4.8603 3.24361 4.71968 3.47798C4.35171 4.09673 4.43843 4.59595 4.53804 5.17369C4.55679 5.28384 4.57671 5.39751 4.59429 5.51705C4.51225 6.39595 4.61069 7.80923 4.69741 9.05962C4.76421 10.017 4.85444 11.3295 4.76772 11.5651C4.61772 11.946 4.47358 12.1182 4.09624 12.3655C3.74116 12.5975 3.37788 12.8764 3.08608 13.1002C2.8728 13.2643 2.67241 13.4178 2.58218 13.4694C2.44741 13.5467 1.92475 13.8491 1.92475 13.8491C1.90483 13.8608 1.88491 13.8749 1.86733 13.8901C1.82046 13.9311 1.67046 14.0846 1.68452 14.3096C1.69389 14.4561 1.77124 14.5862 1.90366 14.6752C2.056 14.7784 2.21069 14.8288 2.3771 14.8288C2.51421 14.8288 2.63257 14.7948 2.73686 14.7643L2.78139 14.7514C2.88335 14.7221 2.97124 14.6764 3.04389 14.6225C3.18569 14.6823 3.36616 14.7385 3.54663 14.7385C3.59468 14.7385 3.64272 14.735 3.68843 14.7268C3.9521 14.6799 4.14194 14.5827 4.32475 14.4877C4.381 14.4585 4.43843 14.4292 4.50288 14.3975C4.66225 14.3213 4.76421 14.3061 4.86968 14.3061C4.93296 14.3061 5.00327 14.312 5.0853 14.319C5.1603 14.3249 5.2435 14.3319 5.3396 14.3366C5.40991 14.3389 5.47554 14.3436 5.53765 14.3483C5.63725 14.3553 5.73218 14.3612 5.82944 14.3612C6.08374 14.3612 6.30288 14.3155 6.5396 14.2124C7.32241 13.8713 7.11147 12.9772 7.02124 12.5952C7.00835 12.5413 6.99663 12.492 6.98843 12.4499C6.81968 11.5616 7.09155 10.4764 7.33882 9.99009L7.39507 9.87876C7.87788 8.93423 8.58686 7.5479 7.94936 5.86509C8.34897 5.83697 8.83179 5.81236 9.33452 5.78775C10.5017 5.73033 11.7099 5.67173 12.3638 5.53345C13.0154 5.4315 13.5146 5.14322 13.8462 4.67798C14.3677 3.94439 14.274 3.05376 14.2095 2.70455C13.988 1.49986 13.2486 0.915092 11.9478 0.915092Z" fill="#E2E4E5"/>
<path d="M6.8862 5.90142C6.80065 6.16978 6.72331 6.42642 6.65768 6.68306C6.5944 6.9397 6.53815 7.19282 6.5112 7.44947C6.4737 7.70493 6.45729 7.96157 6.45612 8.22173C6.44792 8.4854 6.47487 8.74556 6.47721 9.03032V9.03384C6.47721 9.0397 6.47253 9.04556 6.46432 9.04556C6.45964 9.04556 6.45378 9.04204 6.4526 9.03736C6.36237 8.77603 6.28385 8.51236 6.2569 8.24048C6.21823 7.96978 6.22526 7.69556 6.2569 7.42368C6.29323 7.15298 6.36471 6.88462 6.4655 6.62798C6.56628 6.37017 6.69635 6.12056 6.86393 5.8897C6.86477 5.88838 6.86585 5.88723 6.86714 5.88634C6.86842 5.88544 6.86987 5.88481 6.87139 5.88448C6.87292 5.88416 6.8745 5.88414 6.87604 5.88443C6.87757 5.88472 6.87904 5.88532 6.88034 5.88618C6.88503 5.88853 6.8862 5.89439 6.88503 5.89907L6.8862 5.90142Z" fill="#455A64"/>
<path d="M6.17013 12.2717C6.21818 12.3807 6.27326 12.587 6.16896 12.792C6.00138 13.0393 5.79044 13.0733 5.68146 13.0698C5.64865 13.0686 5.63107 13.0346 5.65099 13.01C5.71076 12.9385 5.82209 12.7956 5.91584 12.6338C6.00021 12.4885 6.06115 12.3526 6.09396 12.2706C6.10919 12.2389 6.15724 12.2401 6.17013 12.2717Z" fill="#E2E4E5"/>
<path d="M5.74141 4.99908C5.91719 4.83853 6.06836 4.51744 6.10117 4.419C6.13281 4.32056 6.2207 3.93853 6.19961 3.73228L6.19727 3.72174C6.19609 3.71471 6.20078 3.70767 6.20898 3.70767C6.2125 3.7065 6.21602 3.70767 6.21836 3.71002C6.34727 3.79791 6.41406 3.94088 6.43516 4.07916C6.45859 4.21978 6.44453 4.36392 6.40352 4.49986C6.35898 4.63463 6.28164 4.76471 6.16797 4.86549C6.05664 4.96744 5.89961 5.02838 5.74258 5.02955C5.73555 5.02955 5.72852 5.02369 5.72852 5.01666C5.72852 5.01314 5.73086 5.00846 5.7332 5.00611L5.74141 4.99908Z" fill="#E2E4E5"/>
</g>
<defs>
<clipPath id="clip0_1504_9574">
<rect width="15" height="15" fill="white" transform="translate(0 0.30806)"/>
</clipPath>
</defs>
</svg>
