<svg width="15" height="16" viewBox="0 0 15 16" fill="none" xmlns="http://www.w3.org/2000/svg">
<g clip-path="url(#clip0_1504_9537)">
<path d="M10.9693 3.5423C10.812 3.5423 10.6839 3.66849 10.6815 3.82573L10.6001 9.21704C10.3512 9.14621 9.95616 9.11746 9.47842 9.11746C8.75675 9.11746 7.84662 9.1831 6.96734 9.2686C6.8838 9.27674 6.80025 9.28074 6.71704 9.28074C6.1418 9.28074 5.58089 9.08851 5.12452 8.73016C4.80743 8.48114 3.86236 7.7263 3.86236 7.7263C3.79867 7.67565 3.72265 7.65104 3.6471 7.65104C3.54523 7.65104 3.44431 7.69578 3.376 7.78171C3.25694 7.93132 3.28179 8.14906 3.43141 8.26807L3.83233 8.60248C3.87088 8.63466 3.88479 8.68774 3.86689 8.73468C3.84946 8.78038 3.80567 8.81041 3.75702 8.81041C3.75573 8.81041 3.7544 8.81042 3.75311 8.81037L1.51433 8.73644C1.51376 8.73644 1.51324 8.73644 1.51266 8.73644C1.32225 8.73644 1.16763 8.84802 1.16697 9.03863C1.16654 9.16306 1.23204 9.22928 1.33039 9.29064L1.06129 9.28969C1.06086 9.28969 1.06048 9.28969 1.06005 9.28969C0.869448 9.28969 0.714594 9.44387 0.713927 9.63462C0.713262 9.82579 0.867686 9.98131 1.05886 9.98198L1.3887 9.98312C1.28993 10.0438 1.22366 10.1524 1.22323 10.2768C1.22257 10.468 1.37704 10.6235 1.56822 10.6242L2.1426 10.6261C2.04382 10.6868 1.97756 10.7526 1.97713 10.877C1.97646 11.0682 2.13093 11.1381 2.32206 11.1388C2.372 11.139 2.4752 11.1414 2.62496 11.1414C3.04763 11.1414 3.84056 11.1223 4.84847 10.9805C5.0316 10.9547 5.21487 10.9418 5.3979 10.9418C5.6641 10.9418 5.92973 10.9692 6.19298 11.0244C7.62531 11.3246 9.33779 11.6826 10.848 11.8922C10.9338 11.9041 11.0192 11.9099 11.1036 11.9099C11.9665 11.9099 12.7312 11.3042 12.9123 10.4369L14.2796 3.8889C14.2973 3.80407 14.2759 3.71581 14.2213 3.64855C14.1666 3.58128 14.0846 3.54225 13.9979 3.54225L10.9693 3.5423ZM13.4197 4.8551C13.2425 4.8551 13.0987 4.71139 13.0987 4.53411C13.0987 4.35684 13.2425 4.21312 13.4197 4.21312C13.597 4.21312 13.7407 4.35684 13.7407 4.53411C13.7407 4.71139 13.597 4.8551 13.4197 4.8551ZM12.8502 7.78647C12.8306 7.78647 12.8107 7.78466 12.7908 7.78095C12.6166 7.74834 12.5017 7.58068 12.5343 7.40645L12.9275 5.30424C12.9564 5.14991 13.0915 5.04223 13.2429 5.04228C13.2624 5.04228 13.2822 5.04409 13.3021 5.04775C13.4763 5.08036 13.5912 5.24802 13.5585 5.42225L13.1653 7.52446C13.1365 7.67879 13.0017 7.78647 12.8502 7.78647ZM10.9693 2.82825H13.9979C14.3009 2.82825 14.5843 2.96311 14.7754 3.19822C14.9665 3.43333 15.0406 3.73828 14.9786 4.0349L13.6114 10.5829C13.4907 11.1608 13.1715 11.6833 12.7124 12.0541C12.2575 12.4216 11.6862 12.624 11.1037 12.624C10.9861 12.624 10.8671 12.6157 10.7499 12.5995C9.20051 12.3845 7.4517 12.0179 6.04655 11.7233C5.83324 11.6786 5.61502 11.6559 5.398 11.6559C5.24915 11.6559 5.09777 11.6666 4.94805 11.6877C4.16769 11.7975 3.36443 11.8555 2.6251 11.8555C2.52043 11.8555 2.43588 11.8544 2.37995 11.8536C2.35477 11.8533 2.33463 11.853 2.31978 11.8529C2.07429 11.8521 1.85998 11.792 1.68275 11.6742C1.54465 11.5825 1.43707 11.4605 1.36543 11.3186C0.971793 11.2415 0.655756 10.946 0.548553 10.5644C0.220614 10.3829 -0.00140858 10.0328 -2.76566e-05 9.63229C0.00125694 9.25641 0.199668 8.92581 0.496713 8.73849C0.62448 8.31506 1.0194 8.02253 1.51271 8.02253C1.51414 8.02253 1.51728 8.02253 1.51871 8.02253C1.52514 8.02258 1.53152 8.02268 1.53794 8.02291L2.58836 8.05762C2.57317 7.79694 2.65338 7.54317 2.81723 7.33723C3.0194 7.08299 3.32192 6.93708 3.6471 6.93708C3.88564 6.93708 4.11995 7.01891 4.30684 7.16753C4.31745 7.176 5.25438 7.92428 5.56552 8.16863C5.89246 8.4254 6.30142 8.56678 6.71704 8.56678C6.77726 8.56678 6.83824 8.56383 6.89827 8.55797C7.95263 8.45544 8.82073 8.40345 9.47846 8.40345C9.62941 8.40345 9.76899 8.40607 9.89823 8.41136L9.96759 3.81502C9.97573 3.27091 10.4251 2.82825 10.9693 2.82825Z" fill="#E2E4E5"/>
</g>
<defs>
<clipPath id="clip0_1504_9537">
<rect width="15" height="15" fill="white" transform="matrix(-1 0 0 1 15 0.226059)"/>
</clipPath>
</defs>
</svg>
