<svg width="31" height="30" viewBox="0 0 31 30" fill="none" xmlns="http://www.w3.org/2000/svg">
<path d="M26.9911 24.6475C25.5813 26.3224 23.8227 27.6691 21.8383 28.5936C19.8538 29.5181 17.6915 29.9981 15.5022 30C10.6249 30 6.97342 27.4098 5.22565 25.8622C4.83498 25.5167 4.46582 25.1475 4.12025 24.7569C4.08954 24.7225 4.05392 24.6832 4.01953 24.634C5.68378 22.9551 7.93512 21.6458 10.5328 20.9028C11.2599 22.7095 13.2116 24.004 15.501 24.004C17.6295 24.004 19.4645 22.8875 20.2911 21.2823C20.3574 21.1595 20.4139 21.0366 20.4667 20.9028L20.608 20.9433C23.1418 21.695 25.344 22.9883 26.9911 24.6475Z" fill="#536EA1"/>
<path d="M20.4642 20.9028C20.4114 21.0317 20.3549 21.157 20.2885 21.2823C19.4595 22.8875 17.6245 24.004 15.4985 24.004C13.209 24.004 11.2574 22.7095 10.5303 20.9028L10.8582 20.8131L10.8852 20.8045C10.8852 20.8045 11.1039 20.7468 11.3065 20.7014C11.6887 21.4881 12.2846 22.1514 13.026 22.6155C13.7674 23.0795 14.6244 23.3256 15.4991 23.3256C16.3737 23.3256 17.2308 23.0795 17.9722 22.6155C18.7136 22.1514 19.3094 21.4881 19.6916 20.7014C19.9561 20.7384 20.2153 20.806 20.4642 20.9028Z" fill="black"/>
<path d="M19.6888 20.7013C19.307 21.4884 18.7112 22.1522 17.9698 22.6165C17.2283 23.0809 16.3711 23.3272 15.4963 23.3272C14.6214 23.3272 13.7642 23.0809 13.0228 22.6165C12.2813 22.1522 11.6856 21.4884 11.3037 20.7013C11.4695 20.6596 11.6366 20.624 11.8048 20.5896L11.9277 20.565C11.9485 20.5589 11.9706 20.5539 11.9903 20.5503L12.0971 20.5294L12.2445 20.5048C12.2789 20.4962 12.3182 20.4913 12.3563 20.4827H12.3747C12.4177 20.3759 12.4582 20.2616 12.4975 20.1364C12.5111 20.0946 12.5246 20.0492 12.5381 20.0049C12.583 19.8403 12.6195 19.6734 12.6474 19.5051C12.9099 19.7224 13.1943 19.9117 13.4961 20.07C13.5182 20.0811 13.5391 20.0921 13.5612 20.1057L13.6373 20.1437L13.7307 20.1879C13.7503 20.1965 13.7688 20.2039 13.7847 20.2125L13.8314 20.2346L13.8891 20.2592L13.9432 20.2801C13.9507 20.285 13.959 20.2888 13.9677 20.2911C13.9893 20.3006 14.0115 20.3088 14.0341 20.3157L14.1151 20.3488L14.2048 20.382H14.2244L14.2871 20.4041L14.3829 20.4311C14.3964 20.4311 14.4099 20.4397 14.4259 20.4422L14.5131 20.4667C14.6968 20.5107 14.883 20.5435 15.0707 20.565H15.1272C15.1407 20.565 15.1542 20.565 15.1689 20.565H15.2451H15.3126C15.3372 20.565 15.3655 20.565 15.3925 20.565H15.46C15.8671 20.5641 16.2712 20.4964 16.6563 20.3648C16.6575 20.3654 16.6587 20.3656 16.66 20.3656C16.6613 20.3656 16.6625 20.3654 16.6637 20.3648C16.6789 20.362 16.6937 20.3574 16.7079 20.3513C16.8062 20.3181 16.8934 20.2825 16.9695 20.253L17.0739 20.2088L17.1009 20.199C17.5416 20.0103 17.9511 19.7561 18.3157 19.4449C18.3537 19.6144 18.4004 19.7949 18.4581 19.9828C18.5097 20.1523 18.5638 20.3108 18.619 20.4606C18.6645 20.4692 18.7087 20.4741 18.7554 20.4852L18.8892 20.5097L19.0231 20.5343C19.0551 20.5343 19.0882 20.5478 19.1214 20.5527C19.1428 20.5589 19.1645 20.5639 19.1865 20.5675C19.3584 20.624 19.5242 20.6596 19.6888 20.7013Z" fill="#EAB198"/>
<path d="M9.53149 10.8696C9.41926 11.4889 9.37805 12.1189 9.40867 12.7475C9.40867 12.8704 9.42218 13.0005 9.43569 13.127C9.43569 13.1725 9.44306 13.2216 9.4492 13.2683C9.19005 13.132 9.08073 12.5314 8.87808 11.3879C8.75525 10.667 8.6877 10.3071 8.70612 9.91408C8.75411 9.30361 8.92498 8.70913 9.20847 8.16635C9.33376 8.62159 9.60307 9.02404 9.97611 9.31349C9.7786 9.81683 9.62972 10.3379 9.53149 10.8696Z" fill="#2D2D2D"/>
<path d="M22.1077 11.3879C22.0095 11.9442 21.9321 12.3704 21.851 12.6787C21.7638 13.0115 21.668 13.2056 21.528 13.2707C21.5501 13.0742 21.5673 12.8813 21.5747 12.6848C21.6274 11.6573 21.481 10.6293 21.1436 9.65732C21.1436 9.65732 21.1436 9.64873 21.1436 9.64627C21.4746 9.42509 21.7924 9.18477 22.0954 8.92654C22.1946 9.24597 22.2572 9.57559 22.2821 9.9091C22.3005 10.3095 22.2355 10.6706 22.1077 11.3879Z" fill="#2D2D2D"/>
<path opacity="0.2" d="M20.6044 20.9433C20.5037 21.0661 20.3968 21.173 20.2875 21.2823C20.0471 21.5247 19.7893 21.7492 19.5162 21.9541C19.1552 22.2225 18.7625 22.4452 18.3469 22.6173C18.0842 22.7232 17.8119 22.8034 17.5338 22.8568C17.2881 22.9035 17.0384 22.9257 16.7883 22.9231C16.2983 22.9116 15.8146 22.8104 15.3611 22.6247C15.334 22.6148 15.3077 22.6029 15.2825 22.5891C14.9199 22.4353 14.5762 22.2403 14.2581 22.0081C13.6616 21.5631 13.1361 21.0301 12.6995 20.4274C12.6295 20.3329 12.5607 20.2371 12.4932 20.1364C12.5067 20.0946 12.5202 20.0492 12.5337 20.0049C12.5786 19.8403 12.6151 19.6734 12.643 19.5051C12.7142 19.5628 12.7879 19.6205 12.8641 19.6746C13.0644 19.8201 13.274 19.9522 13.4917 20.07C13.5138 20.0811 13.5347 20.0921 13.5568 20.1057L13.633 20.1437L13.7263 20.1879C13.746 20.1965 13.7644 20.2039 13.7803 20.2125L13.827 20.2346L13.8847 20.2592L13.9388 20.2801C13.9463 20.285 13.9546 20.2888 13.9634 20.2911L14.0297 20.3157L14.1107 20.3488L14.2004 20.382H14.2201L14.2827 20.4041L14.3785 20.4311C14.392 20.4311 14.4055 20.4397 14.4215 20.4422L14.5087 20.4667C14.6919 20.5131 14.8783 20.5459 15.0663 20.565H15.1228C15.1363 20.565 15.1498 20.565 15.1646 20.565H15.2407H15.3083C15.3328 20.565 15.3611 20.565 15.3881 20.565H15.4557C15.8624 20.5607 16.266 20.4932 16.6519 20.3648C16.6531 20.3654 16.6544 20.3656 16.6556 20.3656C16.6569 20.3656 16.6582 20.3654 16.6593 20.3648C16.6745 20.362 16.6893 20.3574 16.7035 20.3513C16.7858 20.3243 16.8644 20.2936 16.9492 20.2616L16.9737 20.253C17.0057 20.2395 17.0388 20.226 17.0745 20.2088L17.1015 20.199C17.4599 20.0345 17.8003 19.8332 18.1172 19.5984C18.1848 19.5493 18.2511 19.4965 18.3162 19.4449C18.3543 19.6144 18.4009 19.7949 18.4587 19.9828C18.5103 20.1523 18.5643 20.3108 18.6196 20.4606C18.665 20.4692 18.7092 20.4741 18.7559 20.4852L18.8898 20.5097L19.0237 20.5343C19.0556 20.5343 19.0887 20.5478 19.1219 20.5527C19.1433 20.5589 19.165 20.5639 19.187 20.5675C19.3565 20.6018 19.5223 20.6375 19.6869 20.6792C19.9485 20.7394 20.2077 20.802 20.4619 20.8806L20.6044 20.9433Z" fill="black"/>
<path d="M22.6435 14.0211C22.6239 14.6598 22.2161 15.307 21.7604 15.5453C21.6989 15.5775 21.6338 15.6022 21.5664 15.619H21.5516C21.4691 15.6386 21.3834 15.6411 21.2999 15.6264C21.211 15.6089 21.1271 15.572 21.0542 15.5183L21.0198 15.4925C20.9688 15.4521 20.9223 15.4064 20.881 15.3561C20.5519 14.9594 20.418 14.2152 20.6354 13.6207C20.7237 13.3886 20.8587 13.1771 21.0321 12.9992C21.1793 12.8424 21.3687 12.7315 21.5774 12.6799C21.6735 12.6602 21.7725 12.6602 21.8685 12.6799C22.4102 12.7917 22.6607 13.4868 22.6435 14.0211Z" fill="#EAB198"/>
<path opacity="0.3" d="M22.6435 14.0211C22.6239 14.6598 22.2161 15.307 21.7592 15.5453C21.6981 15.5775 21.6334 15.6023 21.5664 15.619H21.5516C21.4691 15.6386 21.3834 15.6411 21.2999 15.6264C21.211 15.6089 21.1271 15.572 21.0542 15.5183L21.0198 15.4925C20.9685 15.4524 20.922 15.4067 20.881 15.3561C20.5519 14.9594 20.418 14.2152 20.6354 13.6207C20.7237 13.3886 20.8587 13.1771 21.0321 12.9992C21.1793 12.8424 21.3687 12.7315 21.5774 12.6799C21.6735 12.6602 21.7725 12.6602 21.8685 12.6799C22.4102 12.7917 22.6607 13.4868 22.6435 14.0211Z" fill="black"/>
<path d="M10.1111 15.3599C10.0609 15.4214 10.0026 15.4759 9.93795 15.522C9.86478 15.5753 9.781 15.6121 9.69231 15.6301C9.60875 15.6448 9.52307 15.6423 9.44052 15.6227H9.42578C9.35839 15.606 9.29325 15.5812 9.23172 15.549C8.77605 15.3108 8.37196 14.6635 8.3474 14.0248C8.33143 13.4906 8.58199 12.7966 9.12487 12.6861C9.43315 12.6235 9.72792 12.7733 9.96006 13.0067C10.1342 13.1841 10.2697 13.3957 10.358 13.6281C10.5742 14.2189 10.4391 14.9632 10.1111 15.3599Z" fill="#EAB198"/>
<path d="M21.5741 12.6848C21.5667 12.8813 21.5495 13.0741 21.5274 13.2707C21.4436 14.0299 21.2717 14.7767 21.0152 15.4962C20.4416 17.1063 19.4775 18.5335 18.3131 19.4669C18.248 19.5185 18.1817 19.5713 18.1141 19.6205C17.7973 19.8553 17.4568 20.0565 17.0984 20.221L17.0714 20.2309C17.0358 20.2481 17.0026 20.2616 16.9707 20.2751L16.9461 20.2837C16.8663 20.3156 16.7877 20.3463 16.7004 20.3733C16.6863 20.3795 16.6714 20.384 16.6562 20.3868C16.6551 20.3874 16.6538 20.3877 16.6525 20.3877C16.6513 20.3877 16.65 20.3874 16.6489 20.3868C16.2629 20.5152 15.8593 20.5828 15.4526 20.587H15.385C15.358 20.587 15.3297 20.587 15.3052 20.587H15.2376H15.1615C15.1467 20.587 15.1332 20.587 15.1197 20.587H15.0632C14.8752 20.568 14.6888 20.5351 14.5056 20.4888L14.4184 20.4642C14.4024 20.4642 14.3889 20.4556 14.3754 20.4532L14.2796 20.4261L14.217 20.404H14.1973L14.1077 20.3709L14.0266 20.3377L13.9603 20.3132C13.9515 20.3108 13.9433 20.3071 13.9357 20.3021L13.8817 20.2812L13.8239 20.2567L13.7773 20.2346C13.7613 20.226 13.7429 20.2186 13.7232 20.21L13.6299 20.1658L13.5537 20.1277C13.5316 20.1142 13.5107 20.1031 13.4886 20.0921C13.271 19.9742 13.0613 19.8421 12.861 19.6966C12.7849 19.6426 12.7112 19.5848 12.6399 19.5271C12.2518 19.2162 11.8977 18.865 11.5836 18.4795C10.8403 17.5635 10.2713 16.5191 9.90466 15.3979C9.67647 14.7054 9.5249 13.99 9.45267 13.2645C9.45267 13.2178 9.44162 13.1687 9.43916 13.1233C9.42565 13.0005 9.41706 12.8776 9.41214 12.7438C9.38152 12.1152 9.42273 11.4851 9.53497 10.8658C9.63311 10.3337 9.782 9.81222 9.97958 9.30849C10.0606 9.09232 10.154 8.87739 10.2547 8.66368C10.7455 7.60147 11.4618 6.65889 12.3537 5.90146C12.3918 5.86953 12.4299 5.83882 12.4692 5.80935C13.3208 5.1179 14.3803 4.73329 15.4771 4.71748C16.6734 4.71502 17.742 5.17314 18.6386 5.89532C19.1136 6.2862 19.5363 6.73655 19.8963 7.23529C20.3249 7.82558 20.6812 8.46512 20.9575 9.14022C21.0238 9.30972 21.0889 9.47307 21.1466 9.64256C21.1466 9.64256 21.1466 9.65116 21.1466 9.65361C21.4841 10.6256 21.6305 11.6536 21.5777 12.6811L21.5741 12.6848Z" fill="#EAB198"/>
<path opacity="0.2" d="M22.2793 9.90911C22.1499 10.044 22.009 10.1673 21.8581 10.2776C21.847 10.2886 21.7905 10.3267 21.7168 10.3783C21.594 10.4581 21.4712 10.5367 21.3483 10.6129C20.8267 10.9306 20.2745 11.1952 19.7001 11.4026C18.4609 11.8479 17.1423 12.0291 15.829 11.9346C14.5156 11.84 13.2366 11.4718 12.074 10.8536C11.7976 10.7038 11.5299 10.5392 11.2732 10.3623C11.186 10.3021 11.1012 10.2395 11.0165 10.1793C10.7912 10.0153 10.5747 9.83939 10.368 9.65242C10.2697 9.56522 10.1715 9.47556 10.0781 9.38221C10.4106 9.63101 10.7729 9.8373 11.1565 9.99631C11.9499 10.3464 12.8981 10.6104 13.8181 10.8647C14.6133 11.0992 15.4369 11.2232 16.2659 11.2331C17.1017 11.2386 17.9333 11.1143 18.731 10.8647C19.0937 10.7476 19.4462 10.601 19.7848 10.4262C19.9457 10.3464 20.1066 10.2591 20.2761 10.1695C20.5991 9.99386 20.8792 9.8256 21.142 9.64751C21.4695 9.42848 21.7841 9.19063 22.0841 8.93515C22.189 9.25053 22.2546 9.57766 22.2793 9.90911Z" fill="black"/>
<path d="M24.2117 6.2638C24.2031 6.95159 23.557 7.5792 23.3679 7.75606C22.8852 8.21541 22.486 8.59124 22.093 8.92531L22.0831 8.93268C21.7832 9.18816 21.4686 9.42601 21.1411 9.64504C20.8783 9.82312 20.5982 9.99139 20.2752 10.167C20.1094 10.2567 19.9485 10.3439 19.7839 10.4237C19.4452 10.5985 19.0928 10.7452 18.7301 10.8622C17.9324 11.1118 17.1008 11.2361 16.265 11.2306C15.436 11.2207 14.6123 11.0967 13.8172 10.8622C12.8972 10.6055 11.949 10.3439 11.1556 9.99384C10.772 9.83483 10.4097 9.62854 10.0772 9.37975C10.0441 9.35272 10.0109 9.32816 9.97895 9.30114C9.60591 9.01169 9.3366 8.60924 9.21131 8.154C8.92145 7.00072 9.77016 5.8413 9.89789 5.66935C10.2996 5.15652 10.8284 4.75767 11.4319 4.51239C12.5816 4.02111 13.1134 4.40554 15.6079 4.51239C17.8273 4.60819 18.9389 4.65732 19.9866 4.2471C20.4091 4.08129 21.2013 3.71529 21.3376 3.9118C21.4494 4.07024 21.1239 4.53941 21.0477 4.64872C20.7616 5.06139 20.5208 5.17316 20.5565 5.27142C20.6191 5.42985 21.313 5.35248 21.8915 5.18421C22.5057 5.00367 22.7378 4.79119 22.8471 4.89436C22.9945 5.03315 22.7734 5.63128 22.4013 6.02676C22.1347 6.31416 21.8854 6.39522 21.91 6.49348C21.9456 6.62489 22.4221 6.67156 22.8643 6.5598C23.5632 6.38417 23.9181 5.87446 24.1146 6.0022C24.176 6.03044 24.2141 6.10045 24.2117 6.2638Z" fill="#2D2D2D"/>
</svg>
