<svg width="17" height="17" viewBox="0 0 17 17" fill="none" xmlns="http://www.w3.org/2000/svg">
<path d="M13.5 8.61999H11M16 4.33428H1M13.5 12.9057H11M9.33333 16.12C9.01817 14.286 7.64558 12.9057 6 12.9057C4.36052 12.9057 2.99195 14.2759 2.6702 16.0997M2.6702 16.0997C2.93147 16.12 3.2533 16.12 3.66667 16.12H13.3333C14.2667 16.12 14.7335 16.12 15.09 15.8864C15.4036 15.681 15.6586 15.3532 15.8183 14.95C16 14.4916 16 13.8915 16 12.6914V4.54857C16 3.34846 16 2.7484 15.8183 2.29002C15.6586 1.88681 15.4036 1.55899 15.09 1.35356C14.7335 1.12 14.2667 1.12 13.3333 1.12H3.66667C2.73325 1.12 2.26653 1.12 1.91002 1.35356C1.59641 1.55899 1.34144 1.88681 1.18166 2.29002C1 2.7484 1 3.34845 1 4.54857V12.6914C1 13.8915 1 14.4916 1.18166 14.95C1.34144 15.3532 1.59641 15.681 1.91002 15.8864C2.10865 16.0166 2.34149 16.0741 2.6702 16.0997ZM6 8.61999H6.00833M6.83333 8.61999C6.83333 9.21174 6.46023 9.69142 6 9.69142C5.53977 9.69142 5.16667 9.21174 5.16667 8.61999C5.16667 8.02824 5.53977 7.54857 6 7.54857C6.46023 7.54857 6.83333 8.02824 6.83333 8.61999Z" stroke="#74797B" stroke-linecap="round" stroke-linejoin="round"/>
</svg>
