<svg width="16" height="16" viewBox="0 0 16 16" fill="none" xmlns="http://www.w3.org/2000/svg">
<path d="M3.6081 2.20896C3.6081 1.05254 4.38119 0.119995 5.35375 0.119995C6.32012 0.119995 7.09941 1.05254 7.09941 2.20896C7.09316 3.37279 6.31387 4.29786 5.35375 4.29786C4.38738 4.29793 3.6081 3.36538 3.6081 2.20896ZM13.237 11.1684H10.0696V7.78129C10.0696 6.13118 8.86459 4.79746 7.50869 4.79746H3.26304C1.77447 4.79746 0.499291 6.34102 0.500005 7.862V14.0716C0.498279 14.7598 0.90441 15.1191 1.3087 15.12C1.71399 15.1208 2.11739 14.7615 2.11739 14.0716V8.02326H2.65649V15.1106H7.91304V8.02326H8.45215L8.45762 12.0853C8.45399 12.7892 8.81762 13.089 9.19345 13.1039H13.2369C14.3396 13.1039 14.3396 11.1684 13.237 11.1684ZM13.1895 4.52658V5.03359H12.8579C12.9395 4.77218 13.0552 4.58641 13.1895 4.52658ZM12.8026 6.45072H13.1895V5.95624H12.7474C12.7526 6.1326 12.7711 6.29949 12.8026 6.45072ZM12.3868 6.6617C12.5052 6.84747 12.6658 6.99869 12.85 7.09001C12.7789 6.97347 12.7184 6.82866 12.6737 6.6617H12.3868ZM12.7448 5.74525H13.1895V5.24458H12.8027C12.7711 5.39886 12.7526 5.56896 12.7448 5.74525ZM13.1895 7.17185V6.66483H12.8579C12.9395 6.92304 13.0552 7.11202 13.1895 7.17185ZM12.5711 5.95624H12.1605C12.1711 6.1326 12.2132 6.29949 12.2763 6.45064H12.6237C12.5948 6.29949 12.5763 6.1326 12.5711 5.95624ZM12.8421 4.61476C12.6632 4.70608 12.5052 4.85096 12.3895 5.03359H12.6711C12.7158 4.87297 12.7737 4.73129 12.8421 4.61476ZM12.6237 5.24458H12.2789C12.2132 5.39573 12.1737 5.56575 12.1605 5.74525H12.5711C12.5763 5.56896 12.5948 5.39886 12.6237 5.24458ZM15.5 3.07797V10.2768H10.8974V2.92682L15.0526 2.33162V3.07797H15.5ZM14.7342 2.75993L12.5237 3.07797H14.7342V2.75993ZM14.6368 5.84918C14.6368 4.95168 14.0289 4.22107 13.2763 4.22107C12.5263 4.22107 11.9158 4.94854 11.9158 5.84918C11.9158 6.74668 12.5237 7.47728 13.2763 7.47728C14.0289 7.47415 14.6368 6.74668 14.6368 5.84918ZM11.9185 8.34017V8.98886H14.6368V8.34017H11.9185ZM13.3658 7.17185C13.5 7.11515 13.6184 6.92625 13.7 6.66483H13.3658V7.17185ZM13.7079 7.08993C13.8921 6.99862 14.05 6.8506 14.1711 6.66163H13.8868C13.8395 6.82859 13.7789 6.9734 13.7079 7.08993ZM13.9316 6.45072H14.279C14.3421 6.29957 14.3816 6.13267 14.3948 5.95631H13.9842C13.9789 6.1326 13.9605 6.29949 13.9316 6.45072ZM13.8105 5.95624H13.3658V6.45064H13.7526C13.7842 6.29949 13.8026 6.1326 13.8105 5.95624ZM13.7526 5.24458H13.3658V5.74525H13.8105C13.8026 5.56896 13.7842 5.39886 13.7526 5.24458ZM13.9842 5.74525H14.3948C14.3842 5.56575 14.3421 5.39573 14.2764 5.24458H13.9316C13.9632 5.39886 13.9789 5.56896 13.9842 5.74525ZM14.1658 5.03673C14.0474 4.85409 13.8921 4.70921 13.7132 4.61789C13.7815 4.73443 13.8395 4.8761 13.8842 5.03673H14.1658ZM13.3658 4.52658V5.03359H13.7C13.6185 4.77218 13.5 4.58641 13.3658 4.52658Z" fill="#74797B"/>
</svg>
