<svg width="15" height="17" viewBox="0 0 15 17" fill="none" xmlns="http://www.w3.org/2000/svg">
<path d="M14.9053 14.5837C14.8751 14.5707 11.8701 13.264 10.6846 11.783C9.75946 10.6273 10.0844 7.06649 10.1968 6.06991C10.3773 5.66588 10.4929 5.34079 10.5413 5.1975C10.9 4.13512 11.533 0.426924 11.5597 0.269595C11.5789 0.157303 11.5402 0.0402964 11.4733 0.00819867C11.4066 -0.0238489 11.3368 0.0410987 11.3177 0.153391C11.3129 0.181426 10.8224 2.01051 10.5 3.5H9.5C9.4305 3.5 9 3.5 9 4C9 4.11676 9.41464 4.15427 9.48414 4.15427H10.5444C10.4639 4.50228 10.3877 4.79543 10.3224 4.98892C9.9072 6.21861 8.84956 8.34002 7.51476 8.50693C6.17998 8.34002 5.41515 6.22969 5 5H6.5C6.56953 5 7 5 7 4.5C7 4 6.85872 3.88064 6.78919 3.88064H4.42325C4.36301 3.60796 4.30127 3.31206 4.24054 3.00999H5.54538C5.61488 3.00999 6 3 6 2.5C6 2 5.5695 2 5.5 2H4C3.76159 0.776875 3.71544 0.174655 3.71183 0.153391C3.69269 0.0410987 3.62301 -0.0238991 3.5562 0.00819867C3.48939 0.0402964 3.45067 0.157303 3.46977 0.269595C3.49652 0.426924 4.12955 4.13512 4.48818 5.1975C4.53338 5.33131 4.63725 5.6237 4.7978 5.99087C4.89892 6.86027 5.26705 10.594 4.31527 11.783C3.12982 13.264 0.124803 14.5707 0.0946205 14.5837C0.0272697 14.6127 -0.0133019 14.728 0.00398357 14.8411C0.0185524 14.9366 0.0697222 15 0.125788 15C0.136177 15 0.146686 14.9978 0.157165 14.9933C0.282492 14.9393 3.24031 13.6529 4.46552 12.1224C5.4047 10.9492 5.23289 7.97396 5.09706 6.61858C5.22833 6.87135 5.37951 7.13525 5.55021 7.39244C6.17437 8.3328 6.83239 8.85002 7.50595 8.92982C7.50891 8.93017 7.51183 8.93037 7.51479 8.93037C7.51777 8.93037 7.5207 8.93022 7.52366 8.92982C8.19719 8.85002 8.85524 8.33275 9.4794 7.39244C9.63452 7.15867 9.77346 6.91945 9.89604 6.68799C9.76164 8.07316 9.61105 10.9689 10.5345 12.1224C11.1945 12.947 12.3574 13.7005 13.3094 14.2288H11.2611C11.1916 14.2288 11.1352 14.3235 11.1352 14.4402C11.1352 14.557 11.1916 14.6517 11.2611 14.6517H14.1148C14.5247 14.8552 14.806 14.9775 14.8429 14.9933C14.8534 14.9978 14.8638 15 14.8742 15C14.9303 15 14.9815 14.9365 14.996 14.841C15.0133 14.728 14.9727 14.6127 14.9053 14.5837Z" fill="#E2E4E5"/>
<path d="M9.30947 9.5594C9.24 9.54792 9.17885 9.63368 9.17229 9.74993C9.10747 10.8972 9.11055 12.4906 9.49313 13.5661C9.51668 13.6323 9.55845 13.6691 9.60126 13.6691C9.62323 13.6691 9.64547 13.6594 9.66572 13.6391C9.72539 13.5792 9.74483 13.4494 9.70918 13.3491C9.36159 12.372 9.36159 10.8743 9.42285 9.78986C9.42945 9.67365 9.37867 9.57044 9.30947 9.5594Z" fill="#E2E4E5"/>
<path d="M5.41094 13.6391C5.43118 13.6594 5.45342 13.6691 5.47536 13.6691C5.51823 13.6691 5.55997 13.6323 5.58353 13.5661C5.96613 12.4906 5.96918 10.8972 5.90437 9.74993C5.89777 9.63368 5.83636 9.54811 5.76719 9.5594C5.69799 9.57043 5.64717 9.67365 5.65377 9.78985C5.71503 10.8743 5.71506 12.372 5.36744 13.3491C5.3318 13.4493 5.35126 13.5792 5.41094 13.6391Z" fill="#E2E4E5"/>
<path d="M10.8859 14.8917C10.6817 14.9333 8.87927 15.316 8.47603 15.9412C8.42495 16.0204 8.42179 16.1542 8.46893 16.24C8.49374 16.2851 8.52753 16.3081 8.56144 16.3081C8.59199 16.3081 8.62259 16.2895 8.6468 16.252C8.90724 15.8481 10.1466 15.4683 10.9162 15.3115C10.9851 15.2975 11.0343 15.1921 11.026 15.0762C11.0176 14.9603 10.9548 14.8777 10.8859 14.8917Z" fill="#E2E4E5"/>
<path d="M4.16249 14.8917C4.09379 14.8778 4.03077 14.9602 4.02241 15.0761C4.01405 15.1921 4.06319 15.2974 4.13224 15.3115C4.66466 15.4199 6.11026 15.8002 6.40157 16.2519C6.42581 16.2895 6.45641 16.308 6.48692 16.308C6.52081 16.308 6.55463 16.2851 6.57944 16.2399C6.62658 16.1541 6.62342 16.0204 6.57234 15.9412C6.16907 15.316 4.36669 14.9333 4.16249 14.8917Z" fill="#E2E4E5"/>
</svg>
