<svg width="15" height="13" viewBox="0 0 15 13" fill="none" xmlns="http://www.w3.org/2000/svg">
<g clip-path="url(#clip0_1504_9782)">
<path fill-rule="evenodd" clip-rule="evenodd" d="M11.494 10.3346L3.97733 2.8179C4.918 1.98724 6.14867 1.47857 7.5 1.47857C10.4407 1.47857 12.8333 3.87124 12.8333 6.8119C12.8333 8.16257 12.3247 9.3939 11.494 10.3346ZM2.16667 6.8119C2.16667 5.46057 2.67467 4.2299 3.506 3.28924L11.0227 10.8059C10.082 11.6366 8.85067 12.1452 7.5 12.1452C4.55933 12.1452 2.16667 9.75257 2.16667 6.8119ZM7.5 0.811905C4.186 0.811905 1.5 3.49791 1.5 6.8119C1.5 10.1259 4.186 12.8119 7.5 12.8119C10.8133 12.8119 13.5 10.1259 13.5 6.8119C13.5 3.49791 10.8133 0.811905 7.5 0.811905Z" fill="#E2E4E5"/>
</g>
<defs>
<clipPath id="clip0_1504_9782">
<rect width="15" height="12" fill="white" transform="matrix(-1 0 0 1 15 0.811905)"/>
</clipPath>
</defs>
</svg>
