<svg width="296" height="290" viewBox="0 0 296 290" fill="none" xmlns="http://www.w3.org/2000/svg">
<g clip-path="url(#clip0_590_7234)">
<path d="M265.263 101.908C255.209 70.6543 247.705 49.1406 227.815 39.7704C194.265 23.9651 165.684 62.3523 119.22 46.6556C96.3432 38.9271 93.5339 26.3316 75.3645 27.3876C43.2191 29.2558 23.1754 70.3879 21.4329 73.919C10.8462 95.3732 10.0286 119.68 19.1351 141.339C25.0496 155.406 29.8795 170.163 31.595 185.287C34.581 211.608 39.1194 235.909 67.4014 247.544C92.6538 257.933 123.603 265.765 151.612 263.675C170.647 262.254 191.358 256.657 208.718 249.067C297.185 210.385 279.086 144.879 265.263 101.908Z" fill="#28353E"/>
<path d="M295.5 221.963H0.5V222.108H295.5V221.963Z" fill="#D1E3FF"/>
<path d="M263.396 226.372H246.924V226.517H263.396V226.372Z" fill="#D1E3FF"/>
<path d="M165.151 226.372H151.639V226.517H165.151V226.372Z" fill="#D1E3FF"/>
<path d="M134.644 228.845H85.8364V228.99H134.644V228.845Z" fill="#D1E3FF"/>
<path d="M68.678 227.854H39.9704V227.999H68.678V227.854Z" fill="#D1E3FF"/>
<path d="M241.211 226.372H190.895V226.517H241.211V226.372Z" fill="#D1E3FF"/>
<path d="M35.1519 227.854H30.9711V227.999H35.1519V227.854Z" fill="#D1E3FF"/>
<path d="M140.338 196.096H26.4098C24.5531 196.096 23.0421 194.611 23.0421 192.785V35.3548C23.0421 33.5296 24.5531 32.0442 26.4098 32.0442H140.338C142.194 32.0442 143.705 33.5296 143.705 35.3548V192.785C143.705 194.611 142.194 196.096 140.338 196.096ZM26.4098 32.1898C24.6339 32.1898 23.1896 33.6096 23.1896 35.3554V192.786C23.1896 194.532 24.6339 195.952 26.4098 195.952H140.338C142.114 195.952 143.558 194.532 143.558 192.786V35.3548C143.558 33.6096 142.114 32.1892 140.338 32.1892L26.4098 32.1898Z" fill="#D1E3FF"/>
<path d="M267.953 196.096H154.025C152.169 196.096 150.658 194.611 150.658 192.785V35.3548C150.658 33.5296 152.169 32.0442 154.025 32.0442H267.953C269.81 32.0442 271.321 33.5296 271.321 35.3548V192.785C271.321 194.611 269.81 196.096 267.953 196.096ZM154.025 32.1898C152.25 32.1898 150.805 33.6096 150.805 35.3554V192.786C150.805 194.532 152.25 195.952 154.025 195.952H267.953C269.729 195.952 271.173 194.532 271.173 192.786V35.3548C271.173 33.6096 269.729 32.1892 267.953 32.1892L154.025 32.1898Z" fill="#D1E3FF"/>
<path d="M202.131 165.074V165.078C201.806 165.078 201.48 165.085 201.151 165.107C194.23 165.571 188.634 171.102 188.193 177.907C188.092 179.462 188.256 180.964 188.643 182.376C190.237 188.195 190.833 194.235 190.833 200.262V217.824C190.833 219.097 191.883 220.13 193.178 220.13H202.131H211.085H249.884V165.074H202.131Z" fill="#D7D6D6"/>
<path d="M263.85 178.804C263.85 170.902 257.06 164.559 248.903 165.106C241.982 165.57 236.387 171.101 235.945 177.906C235.844 179.461 236.008 180.963 236.395 182.375C237.989 188.194 238.585 194.235 238.585 200.261V217.823C238.585 219.096 239.635 220.129 240.93 220.129H258.837C260.132 220.129 261.182 219.096 261.182 217.823V199.23C261.182 193.577 261.809 187.921 263.345 182.473C263.674 181.305 263.85 180.075 263.85 178.804Z" fill="#989D9F"/>
<path d="M230.638 186.702H151.133V220.129H230.638V186.702Z" fill="#D7D6D6"/>
<path d="M195.227 146.662H119.636C113.798 146.662 109.065 151.314 109.065 157.053V194.259H205.798V157.053C205.798 151.314 201.065 146.662 195.227 146.662Z" fill="#989D9F"/>
<path d="M209.045 146.662H132.435C126.879 146.662 122.374 151.09 122.374 156.553V194.259H219.106V156.553C219.106 151.09 214.602 146.662 209.045 146.662Z" fill="#E0E0E0"/>
<path d="M229.985 183.65H154.464C153.958 183.65 153.548 184.053 153.548 184.55V196.362C153.548 196.86 153.958 197.263 154.464 197.263H229.985C231.68 197.263 233.053 195.913 233.053 194.247V186.666C233.053 185 231.679 183.65 229.985 183.65Z" fill="#989D9F"/>
<path d="M104.046 165.074V165.078C103.721 165.078 103.395 165.085 103.066 165.107C96.1449 165.571 90.5493 171.102 90.108 177.907C90.0071 179.462 90.1706 180.964 90.5576 182.376C92.1518 188.195 92.7477 194.235 92.7477 200.262V217.824C92.7477 219.097 93.7979 220.13 95.0929 220.13H104.046H112.999H151.799V165.074H104.046Z" fill="#D7D6D6"/>
<path d="M165.765 178.804C165.765 170.902 158.976 164.559 150.818 165.106C143.898 165.57 138.302 171.101 137.861 177.906C137.76 179.461 137.923 180.963 138.31 182.375C139.905 188.194 140.5 194.235 140.5 200.261V217.823C140.5 219.096 141.551 220.129 142.846 220.129H160.752C162.047 220.129 163.097 219.096 163.097 217.823V199.23C163.097 193.577 163.723 187.921 165.26 182.473C165.589 181.305 165.765 180.075 165.765 178.804Z" fill="#989D9F"/>
<path d="M248.887 221.8H105.043C104.104 221.8 103.342 221.052 103.342 220.129H250.587C250.587 221.052 249.826 221.8 248.887 221.8Z" fill="#E0E0E0"/>
<path d="M44.7388 180.045H28.9669V219.304H44.7388V180.045Z" fill="#989D9F"/>
<path d="M109.776 219.303H31.9954V221.791H109.776V219.303Z" fill="#E0E0E0"/>
<path d="M44.7395 219.303H112.805V180.044H44.7395V219.303Z" fill="#989D9F"/>
<path d="M50.9403 197.752H106.604V184.877H50.9403V197.752Z" fill="#E0E0E0"/>
<path d="M50.9403 214.471H106.604V201.596H50.9403V214.471Z" fill="#E0E0E0"/>
<path d="M85.6606 186.075H71.8824C71.3885 186.075 70.9844 185.678 70.9844 185.192C70.9844 184.707 71.3885 184.31 71.8824 184.31H85.6606C86.1545 184.31 86.5586 184.707 86.5586 185.192C86.5592 185.678 86.155 186.075 85.6606 186.075Z" fill="#F3F8FF"/>
<path d="M85.6606 202.794H71.8824C71.3885 202.794 70.9844 202.396 70.9844 201.911C70.9844 201.425 71.3885 201.028 71.8824 201.028H85.6606C86.1545 201.028 86.5586 201.425 86.5586 201.911C86.5592 202.396 86.155 202.794 85.6606 202.794Z" fill="#F3F8FF"/>
<path d="M201.864 44.627H90.8779V122.995H201.864V44.627Z" fill="#D1E3FF"/>
<path d="M203.724 44.627H91.7469V122.995H203.724V44.627Z" fill="#989D9F"/>
<path d="M201.864 122.995H90.8779V124.759H201.864V122.995Z" fill="#E0E0E0"/>
<path d="M212.224 122.995H104.316V124.759H212.224V122.995Z" fill="#989D9F"/>
<path d="M201.12 119.672V47.9512L94.3502 47.9512L94.3502 119.672L201.12 119.672Z" fill="#F0F3F7"/>
<path d="M123.407 119.671L138.686 47.9509H158.18L142.901 119.671H123.407Z" fill="white"/>
<path d="M148.417 119.671L163.696 47.9509H172.742L157.462 119.671H148.417Z" fill="white"/>
<path d="M201.12 112.167V47.502H200.79V112.167H201.12Z" fill="#D1E3FF"/>
<path d="M88.9244 44.5145V72.416H96.434C96.434 72.416 109.927 63.7641 112.993 45.9662C113.304 44.1589 111.897 42.5054 110.032 42.5054H90.9676C89.8389 42.5054 88.9244 43.4049 88.9244 44.5145Z" fill="#E0E0E0"/>
<path d="M88.9244 117.145V74.6687H96.434C96.434 74.6687 100.752 83.2428 105.057 93.1046C110.023 104.482 101.519 117.145 88.9244 117.145Z" fill="#D1E3FF"/>
<path d="M96.2128 74.6687H89.2C88.7846 74.6687 88.4478 74.3376 88.4478 73.9292V73.1555C88.4478 72.7472 88.7846 72.416 89.2 72.416H96.2128C96.6281 72.416 96.965 72.7472 96.965 73.1555V73.9292C96.9656 74.3376 96.6287 74.6687 96.2128 74.6687Z" fill="#F3F8FF"/>
<path d="M205.85 44.5145V72.416H198.34C198.34 72.416 184.847 63.7641 181.781 45.9662C181.47 44.1589 182.877 42.5054 184.742 42.5054H203.806C204.935 42.5054 205.85 43.4049 205.85 44.5145Z" fill="#E0E0E0"/>
<path d="M205.85 117.145V74.6687H198.34C198.34 74.6687 194.022 83.2428 189.717 93.1046C184.75 104.482 193.255 117.145 205.85 117.145Z" fill="#E0E0E0"/>
<path d="M198.561 74.6687H205.573C205.989 74.6687 206.326 74.3376 206.326 73.9292V73.1555C206.326 72.7472 205.989 72.416 205.573 72.416H198.561C198.145 72.416 197.808 72.7472 197.808 73.1555V73.9292C197.808 74.3376 198.145 74.6687 198.561 74.6687Z" fill="#FD5B68"/>
<path d="M259.74 53.5532H222.888V107.665H259.74V53.5532Z" fill="#EAE9E9"/>
<path d="M265.074 53.5532H223.833V107.665H265.074V53.5532Z" fill="#989D9F"/>
<path d="M260.82 103.484V57.7349L228.087 57.7349V103.484H260.82Z" fill="white"/>
<path d="M241.314 84.9974V82.3944C241.314 78.9851 244.125 76.2214 247.593 76.2214V78.8245C247.593 82.2337 244.782 84.9974 241.314 84.9974Z" fill="#FD5B68"/>
<path d="M241.314 97.3282V94.7252C241.314 91.3159 244.125 88.5522 247.593 88.5522V91.1553C247.593 94.5645 244.782 97.3282 241.314 97.3282Z" fill="#FD5B68"/>
<path d="M241.314 72.6666V70.0636C241.314 66.6543 244.125 63.8906 247.593 63.8906V66.4937C247.593 69.9029 244.782 72.6666 241.314 72.6666Z" fill="#FD5B68"/>
<path d="M54.2567 169.632C55.7464 154.46 57.0851 112.08 56.2107 104.47L54.1452 102.99C54.1452 102.99 54.7812 130.662 53.6714 153.908C52.5616 177.153 53.5097 166.178 53.0448 169.632H54.2567Z" fill="#2B605B"/>
<path d="M60.018 139.452C64.1805 136.238 72.6836 133.953 81.3483 133.965C84.7502 133.97 70.9991 137.703 65.2808 141.823C60.8381 145.024 55.8296 150.408 54.1263 153.396C55.2272 147.108 55.8556 142.665 60.018 139.452Z" fill="#2B605B"/>
<path d="M51.7663 144.204C48.3095 140.857 40.3286 138.283 31.6945 137.993C28.3044 137.878 41.2018 142.078 46.0144 146.382C49.7532 149.726 53.587 155.265 54.642 158.301C54.8951 151.999 55.2231 147.551 51.7663 144.204Z" fill="#2B605B"/>
<path d="M60.2039 116.786C63.7285 114.066 70.9289 112.131 78.2655 112.141C81.1459 112.145 69.5023 115.306 64.6595 118.794C60.8977 121.505 56.6568 126.064 55.2142 128.594C56.147 123.27 56.6792 119.508 60.2039 116.786Z" fill="#2B605B"/>
<path d="M53.2165 120.81C50.2889 117.977 43.5317 115.798 36.2204 115.551C33.35 115.454 44.2709 119.011 48.3461 122.655C51.512 125.487 54.7582 130.177 55.6515 132.749C55.8656 127.411 56.1441 123.644 53.2165 120.81Z" fill="#2B605B"/>
<path d="M54.9133 100.08C52.8306 97.7729 47.7855 95.805 42.2118 95.2998C40.0235 95.1014 48.1755 98.3088 51.0907 101.288C53.3557 103.603 55.5806 107.351 56.1234 109.368C56.5777 105.272 56.9954 102.386 54.9133 100.08Z" fill="#2B605B"/>
<path d="M56.2775 101.614C57.782 99.6243 61.3591 97.8959 65.2791 97.4122C66.8184 97.2225 61.0382 100.038 58.9366 102.611C57.3041 104.61 55.6715 107.833 55.2532 109.561C55.0119 106.066 54.773 103.604 56.2775 101.614Z" fill="#2B605B"/>
<path d="M53.9812 180.045C58.5419 180.045 62.3108 176.547 62.5728 172.071L63.3327 164.948H44.6297L45.3896 172.071C45.6516 176.547 49.4205 180.045 53.9812 180.045Z" fill="#E0E0E0"/>
<path d="M43.4184 167.89H64.5434L65.1487 162.503H42.8137L43.4184 167.89Z" fill="#E0E0E0"/>
<path d="M157.779 248.342C186.133 248.342 209.119 245.294 209.119 241.533C209.119 237.772 186.133 234.724 157.779 234.724C129.425 234.724 106.439 237.772 106.439 241.533C106.439 245.294 129.425 248.342 157.779 248.342Z" fill="#FD5B68"/>
<path d="M148.476 231.814L144.479 230.258L147.08 220.745L151.076 222.3L148.476 231.814Z" fill="#FFC3BD"/>
<path d="M188.623 236.179H184.325L180.975 226.393H185.274L188.623 236.179Z" fill="#FFC3BD"/>
<path d="M183.751 235.69H188.992C189.168 235.69 189.32 235.81 189.358 235.979L190.207 239.735C190.295 240.125 189.983 240.493 189.577 240.487C187.891 240.458 186.661 240.361 184.537 240.361C183.23 240.361 179.29 240.494 177.486 240.494C175.721 240.494 175.446 238.74 176.184 238.581C179.497 237.869 181.992 236.886 183.053 235.95C183.244 235.781 183.494 235.69 183.751 235.69Z" fill="#14365B"/>
<path d="M144.691 229.814L149.056 231.513C149.219 231.577 149.316 231.743 149.288 231.913L148.671 235.714C148.608 236.107 148.19 236.342 147.815 236.189C146.251 235.549 144.012 234.574 142.033 233.804C139.719 232.904 137.67 232.25 134.956 231.194C133.316 230.555 133.517 228.747 134.263 228.867C137.661 229.411 140.243 230.332 143.605 229.746C143.97 229.682 144.346 229.68 144.691 229.814Z" fill="#14365B"/>
<path d="M174.512 109.042C174.112 109.358 173.798 109.593 173.443 109.853C173.098 110.107 172.746 110.344 172.394 110.582C171.69 111.056 170.975 111.511 170.246 111.951C168.787 112.827 167.266 113.621 165.662 114.316C164.059 115.005 162.374 115.607 160.557 115.998C158.746 116.385 156.781 116.605 154.695 116.29C154.165 116.22 153.681 116.1 153.106 115.95C151.966 115.602 151.332 115.026 150.853 114.556C149.935 113.585 149.502 112.716 149.081 111.876C148.283 110.205 147.808 108.606 147.375 107.007C146.551 103.807 146.059 100.659 145.788 97.4202L148.959 96.8286C149.942 99.7449 150.968 102.707 152.112 105.481C152.68 106.861 153.313 108.219 153.99 109.335C154.317 109.877 154.721 110.368 154.927 110.518C155.013 110.594 155.038 110.508 154.671 110.377C154.874 110.399 155.167 110.462 155.433 110.468C156.523 110.545 157.783 110.367 159.067 110.015C160.352 109.654 161.67 109.147 162.967 108.528C164.269 107.918 165.553 107.201 166.821 106.443C167.454 106.063 168.081 105.666 168.695 105.255L169.606 104.632C169.898 104.432 170.226 104.199 170.454 104.031L174.512 109.042Z" fill="#FFC3BD"/>
<path d="M177.192 108C176.148 111.908 163.27 116.288 163.27 116.288L159.304 107.496C159.304 107.496 164.535 104.788 169.379 102.635C172.63 101.19 178.328 103.748 177.192 108Z" fill="#496172"/>
<path d="M148.981 97.5257L149.089 93.7581L144.427 95.1176C144.427 95.1176 144.482 97.1 146.223 98.3737L148.981 97.5257Z" fill="#FFC3BD"/>
<path d="M149.311 91.1331L144.831 92.6509L144.427 95.1182L149.089 93.7581L149.311 91.1331Z" fill="#FFC3BD"/>
<path d="M148.46 100.071L152.878 99.1097C153.187 99.0425 153.348 98.7472 153.235 98.4532L149.391 88.3803C149.279 88.0863 148.935 87.9013 148.627 87.968L144.208 88.9296C143.9 88.9969 143.739 89.2921 143.851 89.5861L147.695 99.659C147.808 99.9531 148.152 100.139 148.46 100.071Z" fill="#496172"/>
<path d="M149.003 99.953L153.422 98.9913C153.73 98.9241 153.891 98.6288 153.779 98.3348L149.935 88.2619C149.823 87.9679 149.478 87.7828 149.169 87.8495L144.751 88.8112C144.442 88.8785 144.282 89.1737 144.394 89.4677L148.238 99.5406C148.351 99.8352 148.695 100.02 149.003 99.953Z" fill="#496172"/>
<path d="M144.527 89.8151L146.255 94.3431L146.413 94.7602L147.189 96.7942L147.354 97.2286L147.975 98.8538L153.514 97.6474L153.363 97.2478L153.199 96.8249L151.706 92.9094L151.242 91.6838L150.069 88.6116L148.237 89.0089L147.768 89.1144L145.259 89.6573L144.866 89.7408L144.527 89.8151Z" fill="#DCE9FF"/>
<path d="M148.132 91.6642L147.667 95.3999C147.63 95.6981 147.905 95.9422 148.203 95.875L151.188 95.201C151.505 95.1291 151.637 94.755 151.432 94.5062L148.912 91.4443C148.667 91.1468 148.179 91.2843 148.132 91.6642Z" fill="#FF725E"/>
<path d="M149.736 94.5531C149.798 94.7561 149.722 94.9487 149.568 94.984C149.414 95.0188 149.239 94.8825 149.178 94.6795C149.116 94.4765 149.192 94.2834 149.346 94.2486C149.5 94.2138 149.675 94.3501 149.736 94.5531Z" fill="white"/>
<path d="M149.377 93.9001L149.122 93.9575C149.072 93.9691 149.015 93.9273 148.991 93.8624L148.496 92.5266C148.469 92.4535 148.495 92.3799 148.551 92.3671L148.975 92.2714C149.032 92.2587 149.096 92.312 149.113 92.3874L149.438 93.7614C149.453 93.8281 149.427 93.8885 149.377 93.9001Z" fill="white"/>
<path d="M147.08 220.748L145.739 225.651L149.737 227.207L151.078 222.304L147.08 220.748Z" fill="#F29994"/>
<path d="M185.276 226.395H180.976L182.704 231.44H187.004L185.276 226.395Z" fill="#F29994"/>
<path d="M194.561 106.237C192.731 110.739 191.367 115.377 190.322 119.768C189.559 122.98 188.973 126.061 188.512 128.863C187.429 135.429 187.021 140.479 186.634 142.164C183.317 141.58 170.818 139.377 164.004 138.173C163.533 113.943 170.82 102.262 170.82 102.262C170.82 102.262 173.399 102.036 176.351 102.18C176.74 102.197 177.135 102.226 177.535 102.26C180.123 102.482 184.292 103.311 187.157 103.956C187.759 104.093 188.366 104.246 188.955 104.405C191.954 105.219 194.561 106.237 194.561 106.237Z" fill="#496172"/>
<path d="M188.137 111.67C187.709 115.425 188.414 118.712 189.888 121.684C190.023 121.051 190.169 120.413 190.322 119.769C190.896 117.355 191.567 114.865 192.37 112.362L188.137 111.67Z" fill="#496172"/>
<path d="M188.147 93.1392C186.984 96.0751 185.36 101.543 187.155 103.956C185.273 105.283 182.672 106.236 179.209 105.548C176.556 105.022 176.756 103.168 177.535 102.259C181.134 102.058 181.505 99.5244 181.336 97.0542L188.147 93.1392Z" fill="#FFC3BD"/>
<path d="M185.37 94.7371L181.339 97.0518C181.381 97.6371 181.389 98.224 181.329 98.7826C182.681 98.8278 184.753 97.7246 185.141 96.3924C185.334 95.7277 185.424 95.0717 185.37 94.7371Z" fill="#F29994"/>
<path d="M177.667 83.181C176.724 85.0649 176.301 90.9043 178.96 89.9995C181.619 89.0947 181.482 84.6455 181.482 84.6455C181.482 84.6455 179.877 78.769 177.667 83.181Z" fill="#0F264C"/>
<path d="M189.351 88.6251C188.341 92.7002 187.961 95.1356 185.457 96.8768C181.692 99.4961 176.863 96.6958 176.614 92.4067C176.39 88.5457 178.079 82.5311 182.481 81.6152C186.818 80.7128 190.361 84.55 189.351 88.6251Z" fill="#FFC3BD"/>
<path d="M187.238 85.2981C184.811 86.7423 185.221 91.4043 188.566 92.6281C191.911 93.8519 192.641 91.4565 192.094 91.2071C193.252 90.9664 197.807 88.9625 195.997 85.3271C194.897 83.119 191.551 83.4833 191.551 83.4833C191.551 83.4833 195.518 79.6588 189.279 76.5801C181.657 72.82 180.505 79.7191 180.505 79.7191C180.505 79.7191 175.6 79.1861 176.015 82.3969C176.565 86.6536 181.165 83.2536 181.165 83.2536C181.165 83.2536 181.454 87.001 187.238 85.2981Z" fill="#050A0D"/>
<path d="M180.768 81.3309C180.677 81.3309 180.59 81.2747 180.559 81.1842C180.514 81.0554 179.466 78.0052 181.067 76.0158C182.107 74.7242 184.004 74.2051 186.716 74.4748C186.838 74.4869 186.926 74.5937 186.914 74.7131C186.902 74.832 186.8 74.9243 186.672 74.9074C184.125 74.6546 182.356 75.1168 181.415 76.2844C179.964 78.0853 180.967 81.0131 180.977 81.0421C181.017 81.1558 180.956 81.2793 180.841 81.3188C180.816 81.3269 180.792 81.3309 180.768 81.3309Z" fill="#050A0D"/>
<path d="M190.415 93.5005C189.647 94.3427 188.555 94.758 187.611 94.7939C186.19 94.8479 185.807 93.5208 186.477 92.3713C187.079 91.3366 188.545 90.0617 189.839 90.553C191.114 91.0379 191.292 92.5377 190.415 93.5005Z" fill="#FFC3BD"/>
<path d="M144.606 224.161L151.375 226.791C151.375 226.791 159.265 200.999 161.953 188.099C162.771 184.175 164.447 178.766 166.439 173C168.953 165.735 171.964 157.911 174.398 151.792C176.964 145.347 178.879 140.797 178.879 140.797L164.001 138.172C164.001 138.172 151.074 172.044 149.22 184.812C147.288 198.088 144.606 224.161 144.606 224.161Z" fill="#050A0D"/>
<path d="M166.439 173C168.953 165.735 171.964 157.911 174.398 151.792L173.205 148.333C169.008 152.28 166.525 165.619 166.439 173Z" fill="#242D33"/>
<path d="M172.028 139.588C172.028 139.588 169.68 175.729 170.142 188.103C170.647 201.653 180.682 230.463 180.682 230.463H188.556C188.556 230.463 183.457 204.547 182.43 191.365C181.26 176.349 186.631 142.165 186.631 142.165L172.028 139.588Z" fill="#050A0D"/>
<path d="M179.739 230.63H189.01V227.907L178.646 227.73L179.739 230.63Z" fill="#242D33"/>
<path d="M143.694 223.985L151.759 227.123L152.79 224.562L143.829 220.919L143.694 223.985Z" fill="#242D33"/>
<path d="M182.783 88.6545C182.722 88.9898 182.491 89.2299 182.268 89.1904C182.045 89.151 181.914 88.8471 181.975 88.5118C182.037 88.176 182.267 87.9365 182.49 87.9759C182.713 88.0154 182.845 88.3193 182.783 88.6545Z" fill="#050A0D"/>
<path d="M178.926 87.9736C178.865 88.3089 178.634 88.549 178.411 88.5095C178.188 88.4701 178.057 88.1662 178.118 87.8309C178.179 87.4957 178.41 87.2556 178.633 87.295C178.856 87.3345 178.987 87.6384 178.926 87.9736Z" fill="#050A0D"/>
<path d="M180.121 88.3572C180.121 88.3572 178.992 90.1558 177.967 90.9388C178.47 91.5994 179.543 91.5275 179.543 91.5275L180.121 88.3572Z" fill="#ED847E"/>
<path d="M181.992 93.9107C181.945 93.9107 181.903 93.8782 181.893 93.8306C181.881 93.7767 181.917 93.7239 181.972 93.7129C182.547 93.5986 182.582 93.4844 182.582 93.4844C182.571 93.4763 182.562 93.467 182.555 93.4565C182.554 93.4554 182.294 93.0882 180.97 93.0314C180.914 93.0291 180.87 92.9827 180.873 92.927C180.875 92.8731 180.92 92.8313 180.975 92.8313C180.976 92.8313 180.978 92.8313 180.979 92.8313C182.316 92.8887 182.658 93.2518 182.721 93.3405C182.758 93.3765 182.801 93.4455 182.78 93.5308C182.74 93.6926 182.497 93.8127 182.012 93.9089C182.006 93.9107 181.999 93.9107 181.992 93.9107Z" fill="#050A0D"/>
<path d="M184.205 87.6401C184.131 87.6401 184.059 87.6001 184.023 87.5305C183.616 86.7429 182.889 86.6495 182.858 86.646C182.747 86.6332 182.667 86.5341 182.679 86.425C182.691 86.3154 182.784 86.2319 182.903 86.2481C182.942 86.2522 183.876 86.3618 184.386 87.3495C184.437 87.4481 184.397 87.5688 184.297 87.6187C184.268 87.6332 184.236 87.6401 184.205 87.6401Z" fill="#050A0D"/>
<path d="M177.511 86.3763C177.47 86.3763 177.428 86.3641 177.392 86.338C177.301 86.273 177.281 86.1477 177.347 86.0584C178.011 85.1623 178.951 85.2018 178.99 85.2029C179.102 85.2087 179.188 85.3027 179.182 85.4135C179.176 85.5231 179.101 85.6159 178.969 85.6031C178.942 85.606 178.206 85.5788 177.676 86.2939C177.635 86.3479 177.574 86.3763 177.511 86.3763Z" fill="#050A0D"/>
<path d="M182.329 236.429C182.002 236.429 181.696 236.374 181.501 236.213C181.347 236.085 181.277 235.908 181.291 235.684C181.302 235.518 181.392 235.438 181.465 235.401C181.944 235.164 183.327 235.998 183.484 236.095C183.519 236.116 183.537 236.156 183.53 236.196C183.524 236.236 183.494 236.267 183.454 236.277C183.156 236.348 182.727 236.429 182.329 236.429ZM181.69 235.554C181.637 235.554 181.592 235.562 181.558 235.579C181.53 235.592 181.498 235.618 181.494 235.696C181.484 235.856 181.529 235.975 181.632 236.059C181.867 236.254 182.428 236.28 183.158 236.136C182.674 235.86 182.02 235.554 181.69 235.554Z" fill="#FF725E"/>
<path d="M183.43 236.28C183.414 236.28 183.397 236.276 183.382 236.267C182.937 236.03 182.077 235.103 182.168 234.633C182.184 234.548 182.248 234.4 182.491 234.371C182.649 234.349 182.796 234.395 182.925 234.499C183.425 234.9 183.527 236.12 183.531 236.172C183.534 236.208 183.516 236.244 183.485 236.263C183.469 236.274 183.45 236.28 183.43 236.28ZM182.563 234.566C182.548 234.566 182.532 234.567 182.517 234.569C182.384 234.585 182.373 234.645 182.368 234.671C182.314 234.949 182.862 235.649 183.304 235.979C183.254 235.623 183.117 234.911 182.796 234.654C182.723 234.595 182.647 234.566 182.563 234.566Z" fill="#FF725E"/>
<path d="M144.083 230.204C144.077 230.204 144.071 230.204 144.065 230.203C143.37 230.078 142.162 229.787 141.878 229.235C141.791 229.069 141.793 228.893 141.882 228.714C141.935 228.606 142.024 228.541 142.138 228.527C142.154 228.525 142.17 228.523 142.187 228.523C142.799 228.523 144.019 229.88 144.16 230.038C144.188 230.07 144.193 230.117 144.172 230.153C144.153 230.185 144.119 230.204 144.083 230.204ZM142.194 228.724C142.184 228.724 142.175 228.724 142.165 228.725C142.119 228.732 142.089 228.754 142.066 228.801C142.005 228.924 142.003 229.036 142.059 229.146C142.219 229.455 142.862 229.749 143.802 229.948C143.282 229.398 142.531 228.724 142.194 228.724Z" fill="#FF725E"/>
<path d="M144.083 230.204C144.056 230.204 144.029 230.193 144.01 230.173C143.613 229.773 143 228.552 143.251 228.135C143.311 228.038 143.438 227.938 143.708 228.012C143.91 228.069 144.065 228.191 144.169 228.377C144.513 228.985 144.194 230.085 144.18 230.131C144.17 230.166 144.143 230.191 144.107 230.2C144.1 230.203 144.091 230.204 144.083 230.204ZM143.537 228.187C143.458 228.187 143.436 228.224 143.426 228.239C143.275 228.489 143.656 229.409 144.031 229.891C144.104 229.563 144.216 228.874 143.992 228.475C143.913 228.335 143.802 228.247 143.654 228.206C143.605 228.192 143.567 228.187 143.537 228.187Z" fill="#FF725E"/>
<path d="M194.683 108.209C195.256 108.865 195.743 109.453 196.236 110.093C196.727 110.721 197.205 111.355 197.677 111.995C198.609 113.283 199.499 114.604 200.334 115.97C201.179 117.328 201.949 118.749 202.668 120.21L203.194 121.317L203.675 122.46C203.84 122.836 203.979 123.235 204.122 123.629L204.336 124.22L204.389 124.368L204.469 124.616C204.53 124.806 204.568 124.977 204.606 125.152C204.86 126.52 204.709 127.512 204.547 128.444C204.372 129.368 204.125 130.196 203.856 130.997C203.307 132.59 202.637 134.051 201.925 135.473C200.485 138.314 198.843 140.94 196.991 143.504L194.188 141.932C195.342 139.192 196.466 136.376 197.429 133.622C197.906 132.243 198.331 130.859 198.636 129.533C198.787 128.874 198.905 128.223 198.951 127.643C199.002 127.078 198.964 126.528 198.895 126.405C198.887 126.397 198.883 126.382 198.879 126.393C198.872 126.383 198.891 126.425 198.866 126.371L198.813 126.255L198.597 125.788C198.453 125.477 198.319 125.166 198.15 124.856L197.67 123.927L197.155 123C196.445 121.77 195.688 120.548 194.876 119.343C194.061 118.142 193.221 116.946 192.347 115.77C191.497 114.597 190.549 113.408 189.697 112.334L194.683 108.209Z" fill="#FFC3BD"/>
<path d="M193.401 105.889C197.464 106.494 202.866 115.512 202.866 115.512L195.229 123.684C195.229 123.684 191.032 118.379 188.595 113.74C185.94 108.686 188.478 105.157 193.401 105.889Z" fill="#496172"/>
<path d="M194.978 141.13L191.219 143.308L195.726 146.391C195.726 146.391 198.508 143.838 197.296 142.238L194.978 141.13Z" fill="#FFC3BD"/>
<path d="M189.885 146.586L193.732 148.963L195.726 146.391L191.219 143.308L189.885 146.586Z" fill="#FFC3BD"/>
<path d="M151.619 88.8571H151.029C151.029 87.7377 150.102 86.8271 148.964 86.8271V86.2471C150.427 86.2471 151.619 87.4175 151.619 88.8571Z" fill="#FF725E"/>
<path d="M152.799 88.8569H152.209C152.209 87.0978 150.752 85.6669 148.964 85.6669V85.0869C151.078 85.0869 152.799 86.7782 152.799 88.8569Z" fill="#FF725E"/>
<path d="M153.979 88.857H153.389C153.389 86.4581 151.404 84.507 148.964 84.507V83.927C151.728 83.927 153.979 86.1385 153.979 88.857Z" fill="#FF725E"/>
<path d="M148.536 102.422C147.072 102.422 145.881 101.252 145.881 99.812H146.471C146.471 100.931 147.397 101.842 148.536 101.842V102.422Z" fill="#FF725E"/>
<path d="M148.536 103.582C146.421 103.582 144.701 101.891 144.701 99.812H145.291C145.291 101.571 146.746 103.002 148.536 103.002V103.582Z" fill="#FF725E"/>
<path d="M148.536 104.742C145.77 104.742 143.521 102.53 143.521 99.812H144.111C144.111 102.211 146.096 104.162 148.536 104.162V104.742Z" fill="#FF725E"/>
<path d="M60.6446 83.3269H60.0546V94.7372H60.6446V83.3269Z" fill="#FD5B68"/>
<path d="M60.6446 97.8901H60.0546V101.552H60.6446V97.8901Z" fill="#FD5B68"/>
<path d="M120.15 122.571H70.1748C65.7445 122.571 62.1196 119.007 62.1196 114.652V79.595C62.1196 75.2398 65.7445 71.6763 70.1748 71.6763H120.15C124.58 71.6763 128.205 75.2398 128.205 79.595V114.652C128.205 119.008 124.58 122.571 120.15 122.571Z" fill="#FD5B68"/>
<path d="M61.329 71.4978C61.1779 71.4978 61.0269 71.4409 60.9119 71.3278L56.3559 66.8491C56.1252 66.6223 56.1252 66.2558 56.3559 66.029C56.5866 65.8022 56.9594 65.8022 57.1901 66.029L61.7461 70.5077C61.9768 70.7345 61.9768 71.1011 61.7461 71.3278C61.6311 71.4409 61.48 71.4978 61.329 71.4978Z" fill="#FD5B68"/>
<path d="M64.2554 70.2646C63.9781 70.2646 63.7309 70.0715 63.6766 69.7937L62.8406 65.515C62.7792 65.2006 62.9887 64.8967 63.3084 64.8364C63.6288 64.7761 63.9374 64.9826 63.9987 65.2969L64.8348 69.575C64.8967 69.8894 64.6867 70.1933 64.3669 70.2536C64.3291 70.2611 64.292 70.2646 64.2554 70.2646Z" fill="#FD5B68"/>
<path d="M60.0752 74.3746C60.0381 74.3746 60.0009 74.3711 59.9637 74.3642L55.6119 73.5417C55.2915 73.4814 55.0821 73.1775 55.1434 72.8631C55.2048 72.5482 55.5157 72.344 55.8337 72.4026L60.1856 73.225C60.5059 73.2854 60.7154 73.5893 60.654 73.9036C60.5997 74.182 60.3525 74.3746 60.0752 74.3746Z" fill="#FD5B68"/>
<path d="M127.014 94.8107L141.499 90.4451L127.014 105.541V94.8107Z" fill="#FD5B68"/>
<path d="M109.51 106.213H80.8126C80.8126 104.705 81.4203 103.261 82.5059 102.2L83.0782 101.632C84.0104 100.721 84.5296 99.4797 84.5296 98.1863V91.6265C84.5296 85.7279 89.5033 80.9719 95.5508 81.1807C96.4417 81.2155 97.2972 81.3547 98.1173 81.5925C97.7987 82.4219 97.6217 83.3267 97.6217 84.2663C97.6217 88.4655 101.085 91.8759 105.362 91.8759C105.51 91.8759 105.652 91.8701 105.793 91.8643C105.793 91.8701 105.793 91.8701 105.793 91.8759V98.1863C105.793 99.4797 106.318 100.721 107.245 101.632L107.817 102.2C108.36 102.733 108.784 103.36 109.074 104.038C109.357 104.723 109.51 105.459 109.51 106.213Z" fill="white"/>
<path d="M100.834 107.741C100.693 110.781 98.0948 113.181 94.9466 113.07C92.003 112.973 89.6808 110.6 89.4902 107.741H100.834Z" fill="white"/>
<path d="M109.276 88.4585C111.633 86.3308 111.789 82.7279 109.624 80.4112C107.46 78.0945 103.795 77.9412 101.438 80.0689C99.0815 82.1966 98.9256 85.7995 101.09 88.1162C103.254 90.4329 106.919 90.5862 109.276 88.4585Z" fill="#496172"/>
<path d="M106.511 81.5224V87.2522H104.901V83.4973C104.64 83.6922 104.388 83.8494 104.144 83.97C103.9 84.0906 103.595 84.2061 103.227 84.3157V83.0321C103.77 82.8605 104.19 82.6546 104.49 82.4133C104.79 82.172 105.024 81.875 105.193 81.5212H106.511V81.5224Z" fill="white"/>
</g>
<defs>
<clipPath id="clip0_590_7234">
<rect width="295" height="290" fill="white" transform="translate(0.5)"/>
</clipPath>
</defs>
</svg>
