<svg width="228" height="220" viewBox="0 0 228 220" fill="none" xmlns="http://www.w3.org/2000/svg">
<path d="M224.466 91.9582C219.979 63.0847 216.377 43.1305 200.173 32.1962C172.841 13.7529 142.317 43.6935 103.6 23.6029C84.5371 13.7111 83.8226 2.24237 67.6781 0.720063C39.115 -1.97319 15.7236 31.5363 13.6964 34.41C1.3794 51.8705 -2.73494 73.161 2.25827 93.4589C5.50121 106.643 7.69279 120.287 7.09126 133.834C6.04453 157.412 6.64686 179.419 29.9227 193.48C50.7051 206.035 76.8604 217.108 101.813 219.047C118.77 220.365 137.787 218.232 154.131 213.892C237.423 191.774 230.636 131.658 224.466 91.9582Z" fill="#28353E"/>
<path d="M111.375 172.69C116.276 164.017 122.1 150.603 121.445 134.438C120.586 113.237 109.336 105.931 99.4957 72.6798C93.2741 51.6552 89.1476 36.9209 97.3018 25.7757C103.692 17.0418 116.858 11.5576 126.931 14.614C135.305 17.1553 142.521 25.8986 146.054 32.6494C148.933 38.1513 149.518 42.6203 153.925 44.6083C158.427 46.64 161.61 43.6841 165.622 44.9756C173.759 47.5946 175.01 64.3672 175.212 67.0779C177.46 97.232 157.381 124.373 148.477 136.108C141.115 145.811 129.258 159.385 111.375 172.69Z" fill="url(#paint0_linear_590_7079)"/>
<mask id="mask0_590_7079" style="mask-type:luminance" maskUnits="userSpaceOnUse" x="92" y="13" width="84" height="160">
<path d="M111.375 172.69C116.276 164.017 122.1 150.603 121.445 134.438C120.586 113.237 109.336 105.931 99.4957 72.6798C93.2741 51.6552 89.1476 36.9209 97.3018 25.7757C103.692 17.0418 116.858 11.5576 126.931 14.614C135.305 17.1553 142.521 25.8986 146.054 32.6494C148.933 38.1513 149.518 42.6203 153.925 44.6083C158.427 46.64 161.61 43.6841 165.622 44.9756C173.759 47.5946 175.01 64.3672 175.212 67.0779C177.46 97.232 157.381 124.373 148.477 136.108C141.115 145.811 129.258 159.385 111.375 172.69Z" fill="white"/>
</mask>
<g mask="url(#mask0_590_7079)">
<g opacity="0.5">
<path d="M105.104 180.448L104.618 179.85C123.401 165.123 145.398 142.06 143.527 115.824C142.839 106.176 139.025 97.1503 133.745 84.6577C129.53 74.6829 125.627 67.9868 122.184 62.0791C117.678 54.3496 114.12 48.2444 112.01 38.4199C109.869 28.4509 109.978 17.8373 112.334 6.87329L113.095 7.03166C110.762 17.8905 110.653 28.3979 112.771 38.2616C114.856 47.9686 118.388 54.0276 122.859 61.6988C126.314 67.6262 130.23 74.3444 134.464 84.363C139.572 96.4515 143.607 105.998 144.304 115.77C145.195 128.269 140.754 141.266 131.104 154.398C124.589 163.264 115.841 172.029 105.104 180.448Z" fill="#28353E"/>
<path d="M131.191 77.5918L130.754 77.5481C130.675 77.5401 122.73 76.7022 113.49 71.8614C104.963 67.3941 93.5408 58.5057 87.5537 41.5322L88.2891 41.2816C94.1887 58.0067 105.433 66.767 113.828 71.171C121.711 75.3067 128.626 76.4841 130.396 76.7312C130.065 56.4086 136.4 41.5996 141.794 32.7323C147.688 23.044 153.78 18.1464 153.841 18.0981L154.33 18.6931C154.27 18.7408 148.267 23.573 142.443 33.1563C137.071 41.9972 130.756 56.8078 131.182 77.1593L131.191 77.5918Z" fill="#8FA4A2"/>
<path d="M141.723 104.878L141.5 104.708C141.4 104.631 131.339 96.9695 119.724 91.2301C108.187 85.5294 86.6565 89.0664 86.4406 89.1027L86.3091 88.3483C87.2019 88.198 108.309 84.7331 120.074 90.5466C130.79 95.842 140.189 102.762 141.751 103.933C149.744 98.4349 156.817 84.5391 162.218 63.7123C166.35 47.7808 168.067 33.2895 168.084 33.1448L168.857 33.2322C168.84 33.3772 167.117 47.9202 162.972 63.9013C157.392 85.4153 150.322 99.1495 141.957 104.722L141.723 104.878Z" fill="#8FA4A2"/>
<path d="M133.477 150.909L133.64 150.163C136.082 139.019 132.055 129.391 121.673 121.546C113.898 115.672 105.295 113.071 105.209 113.046L105.434 112.313C105.522 112.339 114.261 114.981 122.147 120.939C132.404 128.689 136.683 138.574 134.557 149.567C137.017 148.385 145.674 144.016 155.813 136.505C166.84 128.337 181.927 114.674 191.18 95.9714L209.164 59.6194L209.864 59.9542L191.88 96.3062C182.556 115.153 167.366 128.908 156.265 137.129C144.241 146.033 134.281 150.547 134.182 150.592L133.477 150.909Z" fill="#28353E"/>
</g>
</g>
<path d="M93.9577 189.56C109.725 191.829 130.139 192.508 150.625 186.582C155.853 185.07 188.148 175.727 186.49 161.633C185.906 156.669 181.602 155.307 180.703 148.683C179.638 140.834 184.999 137.721 189.68 128.763C192.473 123.418 200.647 107.774 191.917 97.2949C186.701 91.033 175.684 86.8984 166.738 87.6988C153.616 88.8727 147.522 100.434 137.554 120.17C128.718 137.666 129.681 142.39 123.094 154.88C118.206 164.149 109.702 176.667 93.9577 189.56Z" fill="#2B605B"/>
<mask id="mask1_590_7079" style="mask-type:luminance" maskUnits="userSpaceOnUse" x="93" y="87" width="103" height="105">
<path d="M93.9577 189.56C109.725 191.829 130.139 192.508 150.625 186.582C155.853 185.07 188.148 175.727 186.49 161.633C185.906 156.669 181.602 155.307 180.703 148.683C179.638 140.834 184.999 137.721 189.68 128.763C192.473 123.418 200.647 107.774 191.917 97.2949C186.701 91.033 175.684 86.8984 166.738 87.6988C153.616 88.8727 147.522 100.434 137.554 120.17C128.718 137.666 129.681 142.39 123.094 154.88C118.206 164.149 109.702 176.667 93.9577 189.56Z" fill="white"/>
</mask>
<g mask="url(#mask1_590_7079)">
<g opacity="0.5">
<path d="M66.544 193.531C52.9961 193.531 39.2822 190.688 25.6511 185.041L25.9534 184.336C42.5804 191.224 59.3292 193.911 75.7331 192.323C134.431 186.641 164.043 126.068 171.72 107.639C176.074 97.1857 177.234 85.1085 175.165 71.7426L175.934 71.6274C178.024 85.1321 176.849 97.3457 172.44 107.929C166.119 123.103 154.672 145.033 136.04 163.332C118.11 180.941 97.8455 190.951 75.8092 193.084C72.7323 193.382 69.6417 193.531 66.544 193.531Z" fill="white"/>
<path d="M156.617 137.504L156.436 137.21C156.4 137.15 152.736 131.11 150.331 122.329C148.108 114.214 146.531 102.022 151.639 90.0257L152.357 90.321C147.334 102.118 148.891 114.13 151.082 122.13C153.159 129.712 156.176 135.21 156.929 136.517C193.354 119.721 196.485 95.2557 196.576 88.1408C196.579 87.9135 196.58 87.8386 196.589 87.7781L197.359 87.8911L196.974 87.8346L197.36 87.8839C197.356 87.925 197.356 88.0148 197.354 88.1505C197.262 95.3991 194.075 120.371 156.934 137.359L156.617 137.504Z" fill="white"/>
<path d="M158.597 166.541C152.14 166.541 144.602 165.607 135.964 163.123L135.765 163.066L135.702 162.871C135.638 162.669 129.317 142.383 134.97 116.759L140.667 90.938L141.428 91.1L135.731 116.921C130.418 141.002 135.756 160.313 136.386 162.447C156.32 168.134 170.289 165.486 178.508 162.255C187.437 158.745 191.691 153.809 191.733 153.76L192.331 154.249C192.156 154.456 187.939 159.36 178.845 162.947C174.041 164.841 167.302 166.541 158.597 166.541Z" fill="white"/>
</g>
</g>
<path d="M132.42 20.0453L148.779 200.509C149.027 203.241 147.097 205.671 144.485 205.908L55.973 214.869C50.6774 215.146 47.8752 212.323 47.6374 209.485L31.9359 22.1183C31.7041 19.3521 34.3341 16.745 39.5659 16.5556L127.266 15.2884C129.861 15.2396 132.178 17.3798 132.42 20.0453Z" fill="#28353E"/>
<path d="M136.44 19.5974L152.948 201.141C153.198 203.89 151.257 206.334 148.631 206.573L56.7887 214.905C53.9727 215.16 51.4682 213.033 51.2281 210.177L35.3872 21.6792C35.1534 18.8965 37.2531 16.5776 40.0483 16.5251L131.256 14.8121C133.866 14.7632 136.196 16.9161 136.44 19.5974Z" fill="#6B7F8D"/>
<path d="M88.5897 21.1321C88.6727 22.0785 87.9818 22.8621 87.046 22.8821C86.1094 22.9022 85.2826 22.1501 85.1998 21.2027C85.1169 20.2552 85.8093 19.4718 86.7457 19.453C87.6815 19.4342 88.5068 20.1859 88.5897 21.1321Z" fill="url(#paint1_linear_590_7079)"/>
<mask id="mask2_590_7079" style="mask-type:luminance" maskUnits="userSpaceOnUse" x="40" y="24" width="109" height="187">
<path d="M129.063 24.5045L43.9847 26.349C41.7712 26.397 40.1361 28.2199 40.3361 30.4201L56.3725 206.792C56.5701 208.964 58.5035 210.554 60.6875 210.345L144.653 202.294C146.688 202.099 148.187 200.245 148.004 198.153L133.13 28.2604C132.945 26.1415 131.125 24.4598 129.063 24.5045Z" fill="white"/>
</mask>
<g mask="url(#mask2_590_7079)">
<path d="M137.582 79.1131L45.137 83.2211L42.7169 56.6042L135.338 53.4775L137.582 79.1131Z" fill="white"/>
</g>
<mask id="mask3_590_7079" style="mask-type:luminance" maskUnits="userSpaceOnUse" x="40" y="24" width="109" height="187">
<path d="M129.063 24.5045L43.9847 26.349C41.7712 26.397 40.1361 28.2199 40.3361 30.4201L56.3725 206.792C56.5701 208.964 58.5035 210.554 60.6875 210.345L144.653 202.294C146.688 202.099 148.187 200.245 148.004 198.153L133.13 28.2604C132.945 26.1415 131.125 24.4598 129.063 24.5045Z" fill="white"/>
</mask>
<g mask="url(#mask3_590_7079)">
<path d="M148.401 202.688L56.8006 211.499L43.8903 69.5086L136.426 65.906L148.401 202.688Z" fill="#D8DEE8"/>
<path d="M136.067 61.8102L43.5036 65.2562L39.6425 22.7897L132.487 20.9121L136.067 61.8102Z" fill="#FD5B68"/>
<path d="M125.067 42.1645L91.6949 43.1304L91.3983 39.8003L124.778 38.8796L125.067 42.1645Z" fill="white"/>
<path d="M125.619 48.4426L92.2621 49.4947L91.9655 46.1662L125.33 45.1592L125.619 48.4426Z" fill="white"/>
<mask id="mask4_590_7079" style="mask-type:luminance" maskUnits="userSpaceOnUse" x="43" y="65" width="106" height="147">
<path d="M148.401 202.688L56.8006 211.499L43.8903 69.5086L136.426 65.906L148.401 202.688Z" fill="white"/>
</mask>
<g mask="url(#mask4_590_7079)">
<path d="M153.755 210.536C152.992 210.536 152.243 210.173 151.788 209.501L110.874 149.07L70.0104 152.001L45.0893 202.592C44.521 203.746 43.1095 204.228 41.9363 203.67C40.7632 203.111 40.2727 201.724 40.8407 200.57L66.3557 148.773C66.7232 148.027 67.4675 147.53 68.3082 147.47L111.904 144.343C112.756 144.284 113.569 144.675 114.041 145.371L155.718 206.93C156.44 207.997 156.145 209.437 155.06 210.147C154.658 210.41 154.204 210.536 153.755 210.536Z" fill="white"/>
<path d="M97.819 214.953C96.6087 214.953 95.5785 214.043 95.4706 212.836L89.7403 148.759L43.5869 62.258C42.9814 61.1232 43.4264 59.7208 44.5807 59.1256C45.7353 58.5304 47.1617 58.9678 47.7671 60.1025L94.14 147.016C94.285 147.287 94.3738 147.584 94.401 147.89L100.173 212.43C100.287 213.706 99.3268 214.832 98.0282 214.944C97.9582 214.95 97.8881 214.953 97.819 214.953Z" fill="white"/>
<path d="M95.0933 183.785C94.2386 183.785 93.5112 183.142 93.4355 182.289C93.3556 181.388 94.0339 180.594 94.9505 180.515L124.151 178.012L114.194 65.2356C114.114 64.3347 114.793 63.5406 115.71 63.4624C116.623 63.3817 117.434 64.0512 117.513 64.9525L127.615 179.36C127.694 180.261 127.016 181.055 126.1 181.133L95.2399 183.778C95.1908 183.783 95.1419 183.785 95.0933 183.785Z" fill="white"/>
<path d="M145.495 155.419C145.246 155.419 144.997 155.325 144.807 155.138L93.0383 104.169C90.8576 104.866 82.7452 107.449 74.661 109.918C69.1317 111.606 64.6952 112.912 61.4749 113.799C59.5513 114.329 58.0404 114.715 56.9842 114.946C56.7006 115.008 56.4431 115.062 56.2091 115.106C57.8347 119.666 64.6774 137.362 69.3875 149.442C69.5796 149.935 69.329 150.487 68.8278 150.676C68.3265 150.864 67.7644 150.619 67.5725 150.126C67.538 150.038 64.0771 141.16 60.6912 132.381C58.7021 127.223 57.1276 123.108 56.0113 120.149C55.3474 118.389 54.8398 117.023 54.5026 116.087C54.3216 115.585 54.1829 115.189 54.0934 114.916C53.9594 114.508 53.7102 113.747 54.4486 113.359C54.7016 113.226 54.9978 113.22 55.2559 113.316C57.8156 113.195 79.6306 106.46 93.0032 102.171C93.3515 102.06 93.7339 102.15 93.9923 102.404L146.183 153.789C146.562 154.162 146.561 154.767 146.182 155.139C145.992 155.326 145.743 155.419 145.495 155.419ZM55.7119 113.655C55.7148 113.659 55.7178 113.663 55.7207 113.667C55.7177 113.663 55.7148 113.659 55.7119 113.655Z" fill="white"/>
<path d="M93.3036 104.035C92.8052 104.035 92.3809 103.66 92.3365 103.163L88.1893 56.69C88.1424 56.1643 88.5379 55.701 89.0727 55.6549C89.6064 55.6035 90.0787 55.9974 90.1258 56.5231L94.2729 102.996C94.3198 103.521 93.9243 103.985 93.3896 104.031C93.3607 104.034 93.332 104.035 93.3036 104.035Z" fill="white"/>
</g>
<mask id="mask5_590_7079" style="mask-type:luminance" maskUnits="userSpaceOnUse" x="43" y="65" width="106" height="147">
<path d="M148.401 202.688L56.8006 211.499L43.8903 69.5086L136.426 65.906L148.401 202.688Z" fill="white"/>
</mask>
<g mask="url(#mask5_590_7079)">
<path d="M151.965 206.094C151.714 206.094 151.469 205.975 151.32 205.755L149.595 203.219C149.357 202.869 149.453 202.396 149.809 202.162C150.164 201.928 150.646 202.022 150.884 202.372L152.608 204.908C152.846 205.258 152.751 205.732 152.395 205.966C152.263 206.052 152.113 206.094 151.965 206.094ZM147.484 199.503C147.234 199.503 146.988 199.384 146.839 199.164L144.082 195.109C143.844 194.759 143.939 194.285 144.295 194.052C144.651 193.818 145.133 193.912 145.371 194.262L148.128 198.317C148.366 198.667 148.27 199.14 147.914 199.374C147.782 199.461 147.632 199.503 147.484 199.503ZM141.97 191.392C141.72 191.392 141.474 191.273 141.325 191.054L138.568 186.998C138.33 186.648 138.426 186.175 138.782 185.941C139.138 185.708 139.619 185.801 139.857 186.151L142.614 190.207C142.852 190.557 142.756 191.03 142.4 191.264C142.268 191.351 142.118 191.392 141.97 191.392ZM136.456 183.282C136.206 183.282 135.961 183.163 135.811 182.943L133.054 178.888C132.817 178.538 132.912 178.065 133.269 177.831C133.625 177.597 134.106 177.691 134.344 178.041L137.1 182.096C137.338 182.446 137.243 182.92 136.886 183.153C136.754 183.24 136.604 183.282 136.456 183.282ZM130.943 175.172C130.693 175.172 130.447 175.053 130.298 174.833L127.541 170.778C127.303 170.428 127.399 169.954 127.755 169.721C128.111 169.487 128.592 169.581 128.83 169.931L131.587 173.986C131.825 174.336 131.729 174.809 131.373 175.043C131.241 175.13 131.091 175.172 130.943 175.172ZM125.429 167.061C125.179 167.061 124.934 166.942 124.784 166.722L122.027 162.667C121.79 162.317 121.885 161.844 122.241 161.61C122.598 161.376 123.079 161.471 123.317 161.82L126.073 165.876C126.311 166.225 126.215 166.699 125.86 166.933C125.727 167.02 125.577 167.061 125.429 167.061ZM119.916 158.951C119.666 158.951 119.42 158.832 119.271 158.612L116.514 154.557C116.276 154.207 116.372 153.734 116.728 153.5C117.084 153.266 117.565 153.36 117.803 153.71L120.56 157.765C120.798 158.115 120.702 158.589 120.346 158.822C120.214 158.909 120.064 158.951 119.916 158.951ZM114.402 150.841C114.152 150.841 113.906 150.722 113.757 150.502L111.682 147.45L111.359 147.473C110.93 147.504 110.56 147.188 110.529 146.768C110.498 146.348 110.819 145.983 111.246 145.953L112.47 145.865L115.046 149.655C115.284 150.005 115.188 150.478 114.832 150.712C114.7 150.799 114.55 150.841 114.402 150.841ZM91.5995 148.89L91.1115 147.975C90.9126 147.603 91.0586 147.142 91.4379 146.946C91.8166 146.751 92.2856 146.894 92.4845 147.267L92.5004 147.297L96.4009 147.017C96.8267 146.984 97.1993 147.302 97.2305 147.722C97.2617 148.142 96.9408 148.507 96.5139 148.537L91.5995 148.89ZM101.405 148.184C101.002 148.184 100.662 147.879 100.633 147.478C100.601 147.058 100.922 146.693 101.349 146.662L106.298 146.307C106.724 146.274 107.096 146.592 107.127 147.012C107.158 147.432 106.837 147.797 106.41 147.827L101.462 148.182C101.443 148.184 101.424 148.184 101.405 148.184ZM89.4941 144.064C89.2152 144.064 88.9455 143.916 88.807 143.656L86.5024 139.337C86.3034 138.964 86.4496 138.503 86.8288 138.308C87.2073 138.112 87.6764 138.256 87.8753 138.629L90.18 142.948C90.3789 143.321 90.2327 143.781 89.8536 143.977C89.7387 144.036 89.6155 144.064 89.4941 144.064ZM84.8849 135.426C84.6059 135.426 84.3363 135.277 84.1978 135.017L81.8933 130.698C81.6943 130.325 81.8406 129.865 82.2197 129.669C82.5982 129.474 83.0675 129.617 83.2663 129.99L85.5708 134.309C85.7697 134.682 85.6235 135.143 85.2444 135.338C85.1294 135.397 85.0063 135.426 84.8849 135.426ZM80.2757 126.787C79.9968 126.787 79.7271 126.639 79.5886 126.379L77.2841 122.06C77.0852 121.687 77.2314 121.226 77.6105 121.031C77.989 120.835 78.4582 120.979 78.6571 121.352L80.9616 125.671C81.1606 126.044 81.0143 126.504 80.6352 126.7C80.5202 126.759 80.3971 126.787 80.2757 126.787ZM75.6666 118.148C75.3877 118.148 75.118 118 74.9795 117.74L72.675 113.421C72.476 113.048 72.6223 112.588 73.0014 112.392C73.3798 112.197 73.8492 112.34 74.048 112.713L76.3525 117.032C76.5514 117.405 76.4052 117.866 76.0261 118.061C75.9111 118.12 75.788 118.148 75.6666 118.148ZM71.0574 109.51C70.7784 109.51 70.5088 109.361 70.3703 109.102L68.0657 104.782C67.8667 104.41 68.0129 103.949 68.3921 103.753C68.7709 103.558 69.2398 103.701 69.4386 104.074L71.7433 108.394C71.9422 108.766 71.796 109.227 71.4169 109.423C71.302 109.482 71.1789 109.51 71.0574 109.51ZM66.4483 100.871C66.1695 100.871 65.8998 100.723 65.7612 100.463L63.4566 96.1437C63.2576 95.771 63.4039 95.3103 63.7831 95.1149C64.162 94.9195 64.6307 95.0629 64.8296 95.4358L67.1343 99.7551C67.3332 100.128 67.187 100.588 66.8079 100.784C66.6928 100.843 66.5697 100.871 66.4483 100.871ZM61.8392 92.2328C61.5602 92.2328 61.2906 92.0843 61.1521 91.8245L58.8474 87.5052C58.6485 87.1325 58.7947 86.6718 59.1739 86.4763C59.5524 86.2811 60.0214 86.4243 60.2205 86.7972L62.5251 91.1166C62.7241 91.4893 62.5779 91.95 62.1987 92.1454C62.0837 92.2046 61.9606 92.2328 61.8392 92.2328ZM57.23 83.5942C56.9509 83.5942 56.6814 83.4457 56.5429 83.186L54.2383 78.8666C54.0393 78.4939 54.1856 78.0332 54.5647 77.8378C54.9435 77.6424 55.4123 77.7856 55.6112 78.1587L57.9159 82.4781C58.1149 82.8508 57.9686 83.3115 57.5895 83.5069C57.4745 83.5661 57.3514 83.5942 57.23 83.5942ZM52.6208 74.9557C52.3418 74.9557 52.0722 74.8072 51.9337 74.5474L49.6292 70.228C49.4303 69.8553 49.5765 69.3946 49.9556 69.1992C50.3343 69.0038 50.8032 69.1472 51.0022 69.5201L53.3067 73.8395C53.5056 74.2122 53.3594 74.6728 52.9803 74.8683C52.8653 74.9275 52.7422 74.9557 52.6208 74.9557ZM49.5544 65.859C49.1619 65.859 48.8253 65.5673 48.7841 65.1752L48.2744 60.3236C48.2305 59.9049 48.54 59.5305 48.966 59.4872C49.3914 59.4449 49.7727 59.7483 49.8168 60.167L50.3264 65.0186C50.3703 65.4373 50.0608 65.8118 49.6349 65.855C49.6078 65.8577 49.581 65.859 49.5544 65.859ZM48.5349 56.1559C48.1424 56.1559 47.8058 55.8641 47.7647 55.4721L47.2549 50.6204C47.211 50.2017 47.5205 49.8273 47.9464 49.784C48.3723 49.7415 48.7533 50.0449 48.7972 50.4638L49.307 55.3154C49.3511 55.7341 49.0414 56.1085 48.6155 56.1518C48.5883 56.1545 48.5615 56.1559 48.5349 56.1559Z" fill="#496172"/>
</g>
</g>
<g opacity="0.48">
<path d="M87.7646 145.872C78.861 115.292 52.9015 118.35 45.1381 90.7166C38.762 68.0216 53.4639 56.0577 44.5459 37.0573C40.3515 28.1211 33.0035 22.0787 25.3837 17.9495L13.4403 18.1738C10.645 18.2264 8.54537 20.5452 8.77898 23.3279L24.6198 211.826C24.8599 214.681 27.3647 216.809 30.1805 216.554L105.483 209.722C100.668 203.717 96.0991 196.368 92.9283 187.542C86.2166 168.857 92.6882 162.783 87.7646 145.872Z" fill="white"/>
</g>
<path d="M118.904 96.9953C118.904 107.386 104.097 126.346 97.3959 134.394C95.7284 136.397 92.6111 136.397 90.9435 134.394C84.2424 126.346 69.4352 107.386 69.4352 96.9953C69.4352 83.5664 80.5092 72.6799 94.1698 72.6799C107.83 72.6799 118.904 83.5664 118.904 96.9953Z" fill="url(#paint2_linear_590_7079)"/>
<path d="M103.922 106.584C109.309 101.288 109.309 92.7021 103.922 87.4063C98.5349 82.1105 89.8006 82.1105 84.4134 87.4063C79.0262 92.7022 79.0262 101.288 84.4134 106.584C89.8005 111.88 98.5348 111.88 103.922 106.584Z" fill="white"/>
<g opacity="0.3">
<path d="M94.0602 124.411C95.6295 114.252 102.454 111 101.283 101.407C99.9317 90.3439 89.9672 87.3973 89.7267 77.5511C89.688 75.966 89.9074 74.4373 90.3212 72.9736C78.4884 74.7909 69.4349 84.8535 69.4349 96.9956C69.4349 107.386 84.2421 126.346 90.9432 134.394C91.9248 135.573 93.4084 136.057 94.8033 135.849C93.604 131.399 93.5677 127.599 94.0602 124.411Z" fill="url(#paint3_linear_590_7079)"/>
</g>
<path d="M94.1695 151.194C96.9616 151.194 99.2251 148.969 99.2251 146.224C99.2251 143.479 96.9616 141.254 94.1695 141.254C91.3773 141.254 89.1138 143.479 89.1138 146.224C89.1138 148.969 91.3773 151.194 94.1695 151.194Z" fill="#FD5B68"/>
<path d="M61.2163 36.7444C61.2163 36.7444 61.2204 36.7096 61.2306 36.707C61.2358 36.7056 61.2416 36.6873 61.2493 36.6853C61.2612 36.6827 61.2748 36.6715 61.2906 36.6681C61.3481 36.6565 61.4332 36.6351 61.5445 36.6125C61.7455 36.5725 62.0239 36.5201 62.376 36.4708C62.7288 36.4187 63.1527 36.3751 63.6433 36.339C64.1332 36.3111 64.6889 36.29 65.2989 36.3103C65.9087 36.3333 66.5752 36.377 67.2788 36.4911C67.367 36.5043 67.4558 36.5176 67.5452 36.5311C67.6345 36.546 67.7236 36.5652 67.8139 36.5825C67.9944 36.619 68.1772 36.6561 68.362 36.6935C68.7274 36.7887 69.1072 36.8731 69.4822 37.0012C69.67 37.0636 69.8637 37.1177 70.0515 37.1911C70.24 37.2645 70.4299 37.3382 70.6208 37.4126L70.7645 37.4694L70.9046 37.5339C70.9982 37.5775 71.0921 37.6211 71.1862 37.6649C71.3731 37.7553 71.5676 37.8373 71.7477 37.9427C71.931 38.045 72.1149 38.1477 72.2994 38.2506C72.3932 38.3008 72.4805 38.359 72.5688 38.4166L72.8339 38.5904C73.1956 38.8162 73.5226 39.0796 73.8568 39.3404C74.0285 39.4676 74.1744 39.6136 74.3317 39.7525C74.4851 39.8938 74.6432 40.0334 74.7908 40.1788C74.9316 40.3288 75.0721 40.4785 75.2121 40.6276C75.351 40.7781 75.4945 40.927 75.6142 41.0851C76.1257 41.7045 76.5701 42.3473 76.9396 42.9857C77.0293 43.1461 77.1182 43.3051 77.2063 43.4626C77.2499 43.5418 77.2934 43.6206 77.3367 43.699C77.3797 43.7775 77.4125 43.8564 77.4505 43.9346C77.5966 44.2476 77.74 44.5559 77.8745 44.8574C78.1012 45.4581 78.3342 46.0345 78.4763 46.5626C78.5548 46.827 78.6323 47.0817 78.6995 47.3235C78.755 47.564 78.8075 47.792 78.857 48.006C78.9054 48.2211 78.9507 48.4222 78.9926 48.6081C79.0279 48.7929 79.0532 48.9613 79.0794 49.1144C79.179 49.7273 79.2359 50.0768 79.2359 50.0768L70.8366 50.7392C70.8366 50.7392 70.8493 50.4827 70.8716 50.0333C70.8768 49.9207 70.8863 49.7939 70.8902 49.6588C70.8887 49.5261 70.8872 49.3825 70.8856 49.229C70.8848 49.0742 70.8838 48.9094 70.8829 48.7356C70.8708 48.5671 70.8582 48.3899 70.8449 48.2049C70.8324 47.8241 70.7591 47.4474 70.7078 47.0271C70.6653 46.8277 70.6215 46.6225 70.5768 46.4127C70.5649 46.3605 70.5571 46.3046 70.5419 46.2543C70.5266 46.2038 70.5114 46.153 70.496 46.102C70.4658 45.9989 70.4354 45.8947 70.4046 45.7898C70.2768 45.3719 70.111 44.9615 69.9132 44.5619C69.8698 44.4561 69.8096 44.3649 69.7541 44.2684C69.6985 44.1711 69.6427 44.0734 69.5867 43.9756C69.5262 43.8814 69.4589 43.7931 69.3958 43.6995C69.3297 43.609 69.2735 43.5069 69.1971 43.425C69.0518 43.2535 68.9153 43.0681 68.7492 42.9118L68.6303 42.7877C68.5908 42.746 68.5523 42.7029 68.5073 42.6671C68.4207 42.5904 68.3342 42.5139 68.2481 42.4376C67.891 42.1433 67.5105 41.8655 67.0947 41.6424C66.8948 41.519 66.6752 41.4272 66.468 41.3205C66.3591 41.2747 66.2513 41.2294 66.1448 41.1847C66.0911 41.1626 66.0386 41.1383 65.9846 41.1178C65.9298 41.0982 65.8753 41.0789 65.8213 41.0596C65.3918 40.8957 64.9568 40.7812 64.5489 40.6836C64.1394 40.588 63.7516 40.5282 63.4056 40.4799C63.0598 40.4396 62.7536 40.4101 62.5062 40.3995C62.2583 40.3861 62.0662 40.3836 61.9473 40.3832C61.918 40.383 61.8921 40.3829 61.8698 40.3827C61.8566 40.3817 61.8478 40.4472 61.8388 40.4465C61.834 40.4462 61.8335 40.5117 61.8285 40.5119C61.8206 40.5123 61.814 40.5126 61.8088 40.5128C61.7982 40.5133 61.7929 40.5135 61.7929 40.5135L61.2163 36.7444Z" fill="white"/>
<path d="M62.9467 43.7351L52.8256 39.0647L62.5863 33.0681L62.9467 43.7351Z" fill="white"/>
<path d="M80.5031 57.9965L54.6233 59.2104L54.4392 55.2798L80.5031 53.9839V57.9965Z" fill="white"/>
<path d="M210.99 132.872L208.477 128.483L211.535 126.791C212.404 126.31 213.049 125.491 213.306 124.543C213.562 123.596 213.415 122.57 212.904 121.728L208.533 114.532C207.51 112.848 205.333 112.257 203.575 113.185L200.38 114.874L197.954 110.439L201.149 108.75C205.326 106.542 210.501 107.948 212.931 111.95L217.302 119.146C218.518 121.146 218.866 123.585 218.257 125.838C217.647 128.09 216.113 130.037 214.048 131.18L210.99 132.872Z" fill="#496172"/>
<path d="M145.518 133.604C144.111 135.692 141.25 136.264 139.126 134.881L138.164 134.255C136.04 132.873 135.458 130.06 136.865 127.972L140.472 122.616C141.878 120.528 144.74 119.956 146.864 121.338L147.825 121.964C149.949 123.347 150.531 126.16 149.125 128.248L145.518 133.604Z" fill="#496172"/>
<path d="M199.361 195.039C198.897 195.457 198.424 195.861 197.946 196.256C188.55 203.964 175.933 207.57 163.329 204.789C150.065 201.947 139.814 192.694 134.845 181.001C129.769 169.275 129.977 155.11 135.193 141.575C140.429 127.981 149.28 117.326 158.461 110.326C159.972 109.192 161.492 108.156 163.02 107.227C170.863 102.428 178.843 100.379 186.459 102.028C195.554 104.014 202.854 111.001 208.282 121.163C213.602 131.317 217.053 144.649 215.967 159.145C214.887 173.58 208.997 186.509 199.361 195.039Z" fill="#496172"/>
<path opacity="0.2" d="M197.946 196.256C188.55 203.964 175.933 207.57 163.329 204.789C150.065 201.947 139.814 192.694 134.845 181.002C129.769 169.275 129.977 155.11 135.193 141.575C140.429 127.981 149.28 117.326 158.461 110.326C159.972 109.192 161.492 108.156 163.02 107.227C160.245 119.189 162.007 135.755 177.081 156.808C188.567 172.847 195.184 185.896 197.946 196.256Z" fill="#F4F7FA"/>
<path opacity="0.3" d="M173.241 185.033C188.338 185.033 200.576 173.003 200.576 158.162C200.576 143.321 188.338 131.291 173.241 131.291C158.145 131.291 145.907 143.321 145.907 158.162C145.907 173.003 158.145 185.033 173.241 185.033Z" fill="#D8DEE8"/>
<path d="M173.241 180.363C185.714 180.363 195.825 170.423 195.825 158.162C195.825 145.9 185.714 135.96 173.241 135.96C160.768 135.96 150.657 145.9 150.657 158.162C150.657 170.423 160.768 180.363 173.241 180.363Z" fill="#28353E"/>
<g opacity="0.8">
<path d="M178.405 167.41C177.611 170.936 174.06 173.161 170.474 172.381L169.019 172.065C165.433 171.285 163.169 167.794 163.962 164.268L165.403 157.869C166.196 154.344 169.747 152.118 173.333 152.898L174.788 153.214C178.375 153.995 180.639 157.485 179.845 161.011L178.405 167.41ZM178.051 160.569C178.618 158.05 177 155.557 174.439 155L172.884 154.662C170.322 154.105 167.786 155.694 167.219 158.213L165.757 164.71C165.19 167.229 166.807 169.722 169.369 170.279L170.923 170.617C173.485 171.175 176.021 169.585 176.588 167.066L178.051 160.569Z" fill="white"/>
<path d="M174.884 150.866C172.965 150.449 171.75 148.575 172.174 146.69C172.599 144.804 174.505 143.609 176.423 144.026C178.341 144.444 179.557 146.317 179.132 148.203C178.708 150.089 176.802 151.284 174.884 150.866ZM176.012 145.85C175.117 145.656 174.228 146.213 174.03 147.093C173.832 147.973 174.399 148.848 175.294 149.042C176.189 149.237 177.079 148.679 177.277 147.8C177.475 146.92 176.908 146.045 176.012 145.85Z" fill="white"/>
</g>
<path opacity="0.3" d="M182.871 198.893C184.491 198.893 185.805 197.602 185.805 196.009C185.805 194.416 184.491 193.125 182.871 193.125C181.251 193.125 179.937 194.416 179.937 196.009C179.937 197.602 181.251 198.893 182.871 198.893Z" fill="white"/>
<path d="M182.871 197.982C183.98 197.982 184.878 197.099 184.878 196.009C184.878 194.919 183.98 194.036 182.871 194.036C181.763 194.036 180.864 194.919 180.864 196.009C180.864 197.099 181.763 197.982 182.871 197.982Z" fill="#28353E"/>
<path d="M34.8104 202.71C33.2198 203.974 33.1298 204.872 33.1813 205.309C33.2642 206.015 33.8051 206.288 35.0995 207.62C36.8503 209.421 36.5825 209.662 37.4744 210.314C39.4425 211.751 42.2257 211.656 42.3935 211.167C42.5114 210.824 41.2527 210.544 39.8202 208.913C38.4984 207.408 38.0509 205.917 37.9313 205.479C37.7139 204.684 37.6575 203.996 37.6467 203.52L34.8104 202.71Z" fill="url(#paint4_linear_590_7079)"/>
<path d="M40.1372 198.859L37.0052 204.224C36.251 204.552 35.5297 204.387 34.8607 203.43L36.0828 196.908L40.1372 198.859Z" fill="url(#paint5_linear_590_7079)"/>
<path d="M43.9686 129.908C47.02 134.971 51.9693 144.744 52.9707 157.959C53.9591 171.002 50.6121 180.943 49.2101 184.65C46.5833 191.596 42.0148 198.89 39.3611 202.366C37.5713 201.63 36.5177 200.476 34.7278 199.74C34.9966 198.783 35.8265 195.621 36.3488 193.738C36.7537 192.279 37.4999 189.58 37.6534 189.003C38.9385 184.172 37.924 180.547 38.2776 174.572C38.6901 167.604 40.314 168.414 40.0697 164.231C39.705 157.985 36.1046 156.526 31.9711 147.485C29.1418 141.296 26.1702 134.796 28.9014 131.242C32.3392 126.769 42.8008 129.581 43.9686 129.908Z" fill="url(#paint6_linear_590_7079)"/>
<path d="M21.8541 207.617C20.9 208.213 20.3242 209.631 20.7588 210.524C21.1861 211.402 22.2752 211.124 24.9206 211.924C27.7541 212.78 28.3147 213.645 30.4035 213.643C31.2474 213.642 32.7773 213.499 32.9051 212.941C32.9949 212.549 32.3454 212.159 30.2069 210.746C27.1712 208.741 27.2026 208.685 26.525 208.378C24.823 207.605 23.1136 206.829 21.8541 207.617Z" fill="url(#paint7_linear_590_7079)"/>
<path d="M26.3863 203.368L25.2232 208.59C25.0607 208.824 23.4047 209.382 22.2446 208.59L22.6721 203.368H26.3863Z" fill="url(#paint8_linear_590_7079)"/>
<path d="M28.8666 131.38C32.3043 126.906 42.766 129.719 43.9337 130.045C45.1875 132.126 46.7604 135.013 48.2495 138.596C44.5418 137.879 42.9325 138.53 42.1826 139.394C39.2718 142.75 48.3853 150.158 46.5113 161.399C45.7783 165.796 43.8654 167.775 44.2154 173.145C44.4758 177.141 45.7385 179.163 46.6115 182.089C47.1352 183.844 47.5409 186.003 47.5601 188.611C44.939 194.276 41.494 199.663 39.3261 202.504C37.5363 201.768 36.4827 200.614 34.6928 199.878C34.9617 198.921 35.7916 195.759 36.3139 193.876C36.7187 192.417 37.4649 189.717 37.6184 189.14C38.9035 184.31 37.889 180.685 38.2426 174.71C38.6551 167.742 40.2791 168.552 40.0348 164.369C39.67 158.122 36.0696 156.664 31.9361 147.622C29.1071 141.434 26.1354 134.933 28.8666 131.38Z" fill="#121414"/>
<path d="M35.7633 132.79C36.0584 144.442 35.6114 157.943 33.661 172.826C32.0732 184.942 29.7641 195.873 27.2206 205.463C26.8688 205.659 25.635 206.287 24.0548 205.993C22.9359 205.785 22.1872 205.215 21.8541 204.925C22.1317 202.966 22.413 200.002 22.1826 196.42C21.7867 190.262 20.3119 189.007 19.679 182.635C19.1239 177.047 19.7088 172.482 19.9922 170.365C20.8649 163.849 22.0495 163.715 22.0731 159.814C22.1093 153.805 19.3148 151.654 17.7785 145.929C16.7536 142.11 16.2103 136.409 18.7874 128.591C24.446 129.99 30.1046 131.39 35.7633 132.79Z" fill="#050A0D"/>
<path d="M41.8108 86.2979C43.8888 87.445 46.7753 89.3456 49.4657 92.3743C55.6707 99.3597 59.5082 110.854 55.52 114.615C52.8067 117.173 46.3714 116.398 44.1549 113.362C42.5245 111.128 43.6981 108.385 44.2611 104.487C44.8669 100.291 44.8451 94.2072 41.8108 86.2979Z" fill="url(#paint9_linear_590_7079)"/>
<path d="M17.7153 131.401C20.0128 101.629 27.3383 89.4417 26.698 85.8239C27.6199 85.1723 31.2624 84.1365 39.5144 85.2044C40.2195 85.4591 42.102 86.2058 43.9675 87.8823C43.9675 87.8823 44.4012 88.271 44.9944 88.954C39.1974 90.0301 33.2922 93.2751 31.1665 97.8724C27.4843 106.663 34.3227 116.489 31.1665 124.245C29.5079 128.322 26.8544 131.935 23.6868 135.312C20.065 134.424 17.5829 133.117 17.7153 131.401Z" fill="url(#paint10_linear_590_7079)"/>
<path opacity="0.3" d="M18.7874 128.591C20.4439 129.001 22.1004 129.41 23.7568 129.82C22.8906 132.754 22.0584 137.157 23.0587 142.157C24.44 149.06 28.0098 150.574 28.5348 156.799C29.0071 162.399 26.3177 163.542 25.0301 171.011C23.7107 178.666 25.7077 182.266 26.1254 188.668C26.4112 193.049 25.9473 198.782 23.2354 205.758C22.5655 205.497 22.0975 205.137 21.8541 204.926C22.1317 202.967 22.413 200.002 22.1826 196.42C21.7867 190.262 20.3119 189.008 19.6789 182.635C19.1239 177.047 19.7088 172.482 19.9922 170.365C20.8649 163.85 22.0495 163.716 22.0731 159.814C22.1093 153.805 19.3148 151.654 17.7785 145.929C16.7536 142.11 16.2103 136.409 18.7874 128.591Z" fill="#6B7F8D"/>
<path d="M43.9676 87.8825C43.9676 87.8825 46.1633 89.8466 47.4434 92.7319C49.3722 97.079 47.2951 100.811 46.672 107.91C45.9886 115.697 46.9553 128.67 49.184 133.317C49.2228 133.398 49.3194 133.629 49.28 133.922C48.6775 138.414 17.2526 137.396 17.7153 131.401C20.0128 101.629 27.3383 89.4417 26.698 85.824C27.6199 85.1723 31.2624 84.1365 39.5144 85.2044C40.2196 85.4591 42.102 86.2059 43.9676 87.8825Z" fill="url(#paint11_linear_590_7079)"/>
<path d="M34.6267 77.7283C34.6267 77.7283 32.5973 83.9901 31.9402 84.7436C31.283 85.4971 34.578 87.4667 37.1039 86.5787C39.4234 85.7632 37.102 82.2878 37.102 82.2878L34.6267 77.7283Z" fill="#FFBF9D"/>
<path d="M42.6382 81.1351C44.0062 80.5652 45.0919 78.8291 44.8569 77.2073C44.6545 75.812 43.5281 74.9886 42.8539 74.4956C40.9001 73.0666 37.7522 72.423 35.7182 73.7948C34.5129 74.6078 34.3176 77.6104 34.2553 78.1347C34.1849 78.7278 34.4679 79.1058 34.607 79.6636C34.7999 80.4371 35.0945 81.6601 35.5567 83.688C35.8829 83.3527 36.3137 82.9532 36.8548 82.562C37.0629 82.4115 37.8863 81.8293 38.815 81.4863C40.6764 80.7989 41.3415 81.6755 42.6382 81.1351Z" fill="#121414"/>
<path d="M34.4416 81.5693C34.4416 81.5693 34.5114 84.5723 37.3551 85.9559C39.9013 87.1947 43.4449 81.9899 42.5533 79.9503C42.2559 79.27 41.3023 78.5153 40.3128 78.2654C39.7283 78.1179 39.4371 78.2264 38.4869 77.9672C37.6104 77.728 37.444 77.5225 37.102 77.5819C36.6739 77.6563 36.1197 78.1201 35.6693 79.9746C35.4754 79.2425 35.0188 78.7438 34.5119 78.7022C34.4311 78.6956 34.1961 78.7125 34.0009 78.8292C33.2942 79.2521 33.4036 80.3677 34.4416 81.5693Z" fill="#FFBF9D"/>
<path d="M37.1814 77.1952C37.2486 77.3494 36.6315 77.5778 36.2429 78.1765C35.4886 79.3391 35.8738 81.4687 37.0548 82.3027C37.7531 82.7956 38.2149 82.4725 39.5138 83.0418C40.318 83.3943 40.8931 83.8478 41.2399 84.1589C40.8548 85.6853 39.7252 86.7834 38.4801 86.8825C37.1392 86.9892 36.149 85.8986 35.735 85.4425C35.458 85.1373 34.5692 84.162 34.5781 82.8481C34.5874 81.4791 35.5383 81.1917 35.2636 80.1058C35.125 79.5581 34.7609 79.1479 34.7195 78.2166C34.7083 77.9637 34.7246 77.7547 34.7403 77.6169C35.7616 77.3177 37.084 76.9722 37.1814 77.1952Z" fill="#121414"/>
<path opacity="0.4" d="M26.5761 105.113C30.0055 106.296 34.5558 109.622 34.861 113.884C35.3298 120.429 25.4145 124.02 26.7355 128.606C27.0958 129.857 28.2346 130.985 35.6577 133.618C38.6614 134.684 41.4518 135.553 43.9851 136.272C34.9019 137.588 17.3689 135.89 17.7153 131.401C18.5948 120.004 20.2112 111.191 21.8355 104.442C23.4812 104.379 25.081 104.597 26.5761 105.113Z" fill="#354753"/>
<path d="M37.3728 118.505C31.7947 124.072 23.8311 125.825 17.7085 123.04C9.2058 119.173 7.89086 108.207 9.87332 101.343C13.1832 89.8854 27.6076 83.2037 32.1518 86.256C35.4381 88.4633 35.4067 97.0038 31.4903 101.279C27.9699 105.121 22.5626 104.151 21.0921 108.065C19.9905 110.997 22.119 113.952 22.3018 114.198C24.6694 117.384 29.8289 118.465 34.7085 116.277C35.5967 117.019 36.4847 117.762 37.3728 118.505Z" fill="url(#paint12_linear_590_7079)"/>
<path d="M48.4171 108.911C47.9629 107.476 46.4872 106.741 45.3262 106.582C44.1898 106.427 42.3172 106.68 41.5717 108.141C40.8744 109.507 41.4227 111.418 43.0257 112.454C43.2513 111.904 43.6555 111.18 44.3675 110.96C45.677 110.556 46.8119 112.234 47.7795 111.796C48.5506 111.446 48.7504 109.963 48.4171 108.911Z" fill="#FFBF9D"/>
<path d="M43.0608 117.605L38.7682 118.339C37.9366 118.481 37.2227 117.751 37.4002 116.94L38.9619 109.801C39.0749 109.285 39.5258 108.907 40.0623 108.878L45.2016 108.608C46.0498 108.564 46.6714 109.381 46.3874 110.168L43.979 116.844C43.8353 117.242 43.4843 117.533 43.0608 117.605Z" fill="white"/>
<path d="M35.5688 116.996C35.9212 114.51 36.987 113.86 37.3728 113.675C38.0196 113.365 38.3384 113.606 40.5966 113.571C42.6139 113.539 43.092 113.336 43.3471 113.675C43.8303 114.318 42.8372 116.006 41.7119 116.996C40.1343 118.384 38.1779 118.503 37.3728 118.505L35.5688 116.996Z" fill="#FFBF9D"/>
<path d="M39.1406 107.934L37.7597 102.144H39.8212L39.1406 107.934Z" fill="url(#paint13_linear_590_7079)"/>
<path d="M38.3537 108.546L36.1828 104.724L34.7387 105.358L38.3537 108.546Z" fill="url(#paint14_linear_590_7079)"/>
<path d="M211.592 59.4675C212.291 76.7887 198.51 91.2402 180.65 91.7504C162.608 92.2657 147.271 78.3871 146.559 60.7469C145.847 43.1067 160.041 28.6471 178.095 28.4524C195.968 28.2596 210.893 42.1463 211.592 59.4675Z" fill="url(#paint15_linear_590_7079)"/>
<path d="M210.92 59.4807C211.605 76.4407 198.109 90.5882 180.623 91.0845C162.963 91.5857 147.952 77.9989 147.256 60.7332C146.559 43.4675 160.45 29.3122 178.122 29.1182C195.621 28.9262 210.236 42.5207 210.92 59.4807Z" fill="#FD5B68"/>
<path opacity="0.8" d="M207.672 59.5447C208.286 74.7584 196.173 87.438 180.493 87.8689C164.673 88.3035 151.24 76.1265 150.616 60.6671C149.992 45.2078 162.422 32.5219 178.252 32.3339C193.942 32.1475 207.058 44.3308 207.672 59.5447Z" fill="white"/>
<path opacity="0.5" d="M183.448 81.8188C181.588 78.4132 181.959 76.7128 180.098 63.8404C177.329 44.6855 175.5 41.4825 174.019 39.4769C172.506 37.4287 169.823 34.5547 164.909 32.0896C154.036 37.1509 146.747 48.1203 147.256 60.7332C147.953 77.999 162.963 91.5857 180.623 91.0845C184.034 90.9877 187.292 90.3718 190.321 89.3186C187.556 87.3672 185.14 84.9152 183.448 81.8188Z" fill="white"/>
<path d="M188.172 56.8127C187.897 53.7346 185.287 51.3726 182.144 51.3726C180.139 51.3726 178.133 51.3726 176.128 51.3726C172.99 51.3726 170.374 53.7402 170.1 56.8127C169.628 62.0945 169.156 67.2044 168.685 72.6636C175.652 72.6636 182.62 72.6636 189.587 72.6636C189.115 67.2044 188.643 62.0945 188.172 56.8127Z" fill="url(#paint16_linear_590_7079)"/>
<path d="M192.126 75.5684C192.126 74.5672 191.3 73.7556 190.282 73.7556H167.591C166.573 73.7556 165.747 74.5672 165.747 75.5684V77.402C165.747 78.4032 166.573 79.2148 167.591 79.2148H190.282C191.3 79.2148 192.126 78.4032 192.126 77.402V75.5684Z" fill="url(#paint17_linear_590_7079)"/>
<path d="M180.186 46.2141C180.186 46.8018 179.702 47.2781 179.104 47.2781H179.047C178.449 47.2781 177.965 46.8018 177.965 46.2141V42.064C177.965 41.4764 178.449 41 179.047 41H179.104C179.702 41 180.186 41.4764 180.186 42.064V46.2141Z" fill="url(#paint18_linear_590_7079)"/>
<path d="M172.311 46.6759C172.603 47.1891 172.415 47.8372 171.893 48.1234C171.371 48.4095 170.712 48.2255 170.421 47.7121L168.312 43.9947C168.021 43.4815 168.209 42.8334 168.731 42.5472C169.253 42.2611 169.912 42.4452 170.203 42.9585L172.311 46.6759Z" fill="url(#paint19_linear_590_7079)"/>
<path d="M167.386 50.8896C167.938 51.1152 168.2 51.738 167.97 52.2806C167.741 52.8232 167.107 53.0802 166.555 52.8545L162.558 51.2203C162.006 50.9947 161.744 50.3719 161.974 49.8293C162.203 49.2867 162.837 49.0298 163.389 49.2554L167.386 50.8896Z" fill="url(#paint20_linear_590_7079)"/>
<path d="M185.84 46.6759C185.549 47.1891 185.736 47.8372 186.258 48.1234C186.78 48.4095 187.44 48.2255 187.731 47.7121L189.839 43.9947C190.13 43.4815 189.943 42.8334 189.421 42.5472C188.898 42.2611 188.239 42.4452 187.948 42.9585L185.84 46.6759Z" fill="url(#paint21_linear_590_7079)"/>
<path d="M190.765 50.8896C190.213 51.1152 189.951 51.738 190.181 52.2806C190.41 52.8232 191.044 53.0802 191.596 52.8545L195.594 51.2203C196.146 50.9947 196.407 50.3719 196.177 49.8293C195.948 49.2867 195.314 49.0298 194.762 49.2554L190.765 50.8896Z" fill="url(#paint22_linear_590_7079)"/>
<path d="M175.747 65.6925C175.747 66.1711 175.572 66.5482 175.222 66.8236C174.872 67.0992 174.384 67.237 173.76 67.237C173.184 67.237 172.676 67.1306 172.233 66.918V65.8738C172.597 66.0333 172.905 66.1457 173.157 66.211C173.409 66.2762 173.639 66.3089 173.848 66.3089C174.099 66.3089 174.291 66.2617 174.425 66.1675C174.559 66.0731 174.627 65.9331 174.627 65.7469C174.627 65.6431 174.597 65.5506 174.538 65.4695C174.479 65.3886 174.392 65.3107 174.278 65.2357C174.164 65.1608 173.931 65.0412 173.579 64.8768C173.25 64.7246 173.003 64.5783 172.838 64.4382C172.673 64.298 172.542 64.1349 172.443 63.9488C172.345 63.7627 172.296 63.5451 172.296 63.2962C172.296 62.8274 172.457 62.4588 172.781 62.1906C173.104 61.9223 173.551 61.7881 174.121 61.7881C174.402 61.7881 174.669 61.8208 174.923 61.886C175.178 61.9512 175.444 62.0431 175.722 62.1615L175.353 63.0352C175.065 62.9192 174.827 62.8383 174.639 62.7923C174.451 62.7465 174.266 62.7234 174.084 62.7234C173.868 62.7234 173.702 62.773 173.587 62.872C173.471 62.9712 173.413 63.1004 173.413 63.26C173.413 63.359 173.436 63.4455 173.483 63.5192C173.53 63.593 173.604 63.6642 173.706 63.7331C173.808 63.8019 174.05 63.9258 174.431 64.1046C174.935 64.3416 175.28 64.579 175.467 64.817C175.654 65.0552 175.747 65.347 175.747 65.6925Z" fill="white"/>
<path d="M181.618 64.5068C181.618 65.3842 181.397 66.0585 180.955 66.5298C180.512 67.0011 179.878 67.2367 179.052 67.2367C178.226 67.2367 177.591 67.0011 177.149 66.5298C176.706 66.0585 176.485 65.3818 176.485 64.4996C176.485 63.6174 176.707 62.9438 177.151 62.4785C177.594 62.0132 178.231 61.7805 179.059 61.7805C179.888 61.7805 180.521 62.015 180.96 62.4839C181.399 62.9529 181.618 63.6271 181.618 64.5068ZM177.684 64.5068C177.684 65.0991 177.798 65.545 178.027 65.8446C178.255 66.1443 178.597 66.2942 179.052 66.2942C179.964 66.2942 180.42 65.6985 180.42 64.5068C180.42 63.3129 179.966 62.716 179.059 62.716C178.604 62.716 178.261 62.8665 178.03 63.1674C177.799 63.4682 177.684 63.9147 177.684 64.5068Z" fill="white"/>
<path d="M185.918 65.6923C185.918 66.1708 185.743 66.5479 185.393 66.8234C185.042 67.099 184.555 67.2367 183.931 67.2367C183.355 67.2367 182.846 67.1304 182.404 66.9177V65.8736C182.768 66.0331 183.076 66.1454 183.328 66.2108C183.58 66.276 183.81 66.3086 184.019 66.3086C184.27 66.3086 184.462 66.2614 184.596 66.1672C184.73 66.0729 184.797 65.9329 184.797 65.7466C184.797 65.6428 184.768 65.5503 184.709 65.4693C184.65 65.3884 184.563 65.3104 184.449 65.2355C184.335 65.1605 184.102 65.0409 183.75 64.8765C183.42 64.7243 183.173 64.5781 183.009 64.4379C182.844 64.2978 182.712 64.1347 182.614 63.9485C182.516 63.7624 182.467 63.5449 182.467 63.296C182.467 62.8271 182.628 62.4585 182.952 62.1903C183.275 61.9221 183.722 61.7878 184.292 61.7878C184.572 61.7878 184.84 61.8205 185.094 61.8858C185.349 61.951 185.615 62.0429 185.893 62.1612L185.524 63.035C185.236 62.919 184.998 62.838 184.81 62.7921C184.622 62.7463 184.437 62.7231 184.255 62.7231C184.039 62.7231 183.873 62.7727 183.757 62.8718C183.642 62.971 183.584 63.1002 183.584 63.2597C183.584 63.3588 183.607 63.4452 183.654 63.5189C183.701 63.5927 183.775 63.6639 183.877 63.7329C183.979 63.8017 184.221 63.9256 184.602 64.1044C185.106 64.3413 185.451 64.5788 185.638 64.8167C185.825 65.0549 185.918 65.3468 185.918 65.6923Z" fill="white"/>
<defs>
<linearGradient id="paint0_linear_590_7079" x1="133.598" y1="67.1299" x2="129.169" y2="167.948" gradientUnits="userSpaceOnUse">
<stop offset="0.0036" stop-color="#2B605B"/>
<stop offset="1" stop-color="#1C1B20"/>
</linearGradient>
<linearGradient id="paint1_linear_590_7079" x1="89.7645" y1="14.3224" x2="-22.3159" y2="290.971" gradientUnits="userSpaceOnUse">
<stop stop-color="#FFC444"/>
<stop offset="0.9964" stop-color="#F36F56"/>
</linearGradient>
<linearGradient id="paint2_linear_590_7079" x1="90.9788" y1="88.1676" x2="115.158" y2="151.52" gradientUnits="userSpaceOnUse">
<stop stop-color="#FF8791"/>
<stop offset="1" stop-color="#FD5B68"/>
</linearGradient>
<linearGradient id="paint3_linear_590_7079" x1="82.0594" y1="91.5718" x2="106.238" y2="154.924" gradientUnits="userSpaceOnUse">
<stop stop-color="#FF9085"/>
<stop offset="1" stop-color="#C86258"/>
</linearGradient>
<linearGradient id="paint4_linear_590_7079" x1="42.2024" y1="206.911" x2="33.2733" y2="207.333" gradientUnits="userSpaceOnUse">
<stop stop-color="#444B8C"/>
<stop offset="0.9964" stop-color="#26264F"/>
</linearGradient>
<linearGradient id="paint5_linear_590_7079" x1="34.7658" y1="196.729" x2="39.5121" y2="204.663" gradientUnits="userSpaceOnUse">
<stop stop-color="#FFC444"/>
<stop offset="0.9964" stop-color="#F36F56"/>
</linearGradient>
<linearGradient id="paint6_linear_590_7079" x1="51.9789" y1="205.219" x2="33.5815" y2="138.066" gradientUnits="userSpaceOnUse">
<stop stop-color="#242D33"/>
<stop offset="0.9964" stop-color="#242D33"/>
</linearGradient>
<linearGradient id="paint7_linear_590_7079" x1="32.9132" y1="210.465" x2="20.6116" y2="210.465" gradientUnits="userSpaceOnUse">
<stop stop-color="#444B8C"/>
<stop offset="0.9964" stop-color="#26264F"/>
</linearGradient>
<linearGradient id="paint8_linear_590_7079" x1="26.2185" y1="209.851" x2="21.6078" y2="200.143" gradientUnits="userSpaceOnUse">
<stop stop-color="#FFC444"/>
<stop offset="0.9964" stop-color="#F36F56"/>
</linearGradient>
<linearGradient id="paint9_linear_590_7079" x1="54.4527" y1="81.4325" x2="45.6621" y2="113.149" gradientUnits="userSpaceOnUse">
<stop stop-color="#090A0B"/>
<stop offset="1" stop-color="#587488"/>
</linearGradient>
<linearGradient id="paint10_linear_590_7079" x1="38.7814" y1="77.1548" x2="21.5152" y2="139.452" gradientUnits="userSpaceOnUse">
<stop stop-color="#311944"/>
<stop offset="1" stop-color="#893976"/>
</linearGradient>
<linearGradient id="paint11_linear_590_7079" x1="49.0279" y1="71.4024" x2="31.7613" y2="133.701" gradientUnits="userSpaceOnUse">
<stop stop-color="#394B58"/>
<stop offset="1" stop-color="#577386"/>
</linearGradient>
<linearGradient id="paint12_linear_590_7079" x1="20.5935" y1="74.4399" x2="23.6743" y2="121.662" gradientUnits="userSpaceOnUse">
<stop stop-color="#28353E"/>
<stop offset="1" stop-color="#5A778B"/>
</linearGradient>
<linearGradient id="paint13_linear_590_7079" x1="37.7597" y1="105.039" x2="39.8212" y2="105.039" gradientUnits="userSpaceOnUse">
<stop stop-color="#FFC444"/>
<stop offset="0.9964" stop-color="#F36F56"/>
</linearGradient>
<linearGradient id="paint14_linear_590_7079" x1="34.7387" y1="106.635" x2="38.3537" y2="106.635" gradientUnits="userSpaceOnUse">
<stop stop-color="#FFC444"/>
<stop offset="0.9964" stop-color="#F36F56"/>
</linearGradient>
<linearGradient id="paint15_linear_590_7079" x1="184.458" y1="54.644" x2="188.375" y2="50.5363" gradientUnits="userSpaceOnUse">
<stop stop-color="#FF9085"/>
<stop offset="1" stop-color="#FB6FBB"/>
</linearGradient>
<linearGradient id="paint16_linear_590_7079" x1="179.779" y1="58.5191" x2="179.17" y2="72.3657" gradientUnits="userSpaceOnUse">
<stop stop-color="#FF8A8D"/>
<stop offset="1" stop-color="#FD5B68"/>
</linearGradient>
<linearGradient id="paint17_linear_590_7079" x1="178.986" y1="75.399" x2="178.807" y2="79.4855" gradientUnits="userSpaceOnUse">
<stop stop-color="#FF8A8D"/>
<stop offset="1" stop-color="#FD5B68"/>
</linearGradient>
<linearGradient id="paint18_linear_590_7079" x1="179.124" y1="43.0827" x2="178.949" y2="47.0572" gradientUnits="userSpaceOnUse">
<stop stop-color="#FF8A8D"/>
<stop offset="1" stop-color="#FD606C"/>
</linearGradient>
<linearGradient id="paint19_linear_590_7079" x1="169.823" y1="44.374" x2="171.614" y2="48.0147" gradientUnits="userSpaceOnUse">
<stop stop-color="#FF8A8D"/>
<stop offset="1" stop-color="#FD616D"/>
</linearGradient>
<linearGradient id="paint20_linear_590_7079" x1="163.982" y1="50.5984" x2="167.683" y2="52.3649" gradientUnits="userSpaceOnUse">
<stop stop-color="#FF878B"/>
<stop offset="1" stop-color="#FD5E6A"/>
</linearGradient>
<linearGradient id="paint21_linear_590_7079" x1="188.329" y1="44.374" x2="186.538" y2="48.0147" gradientUnits="userSpaceOnUse">
<stop stop-color="#FF8A8D"/>
<stop offset="1" stop-color="#FD636E"/>
</linearGradient>
<linearGradient id="paint22_linear_590_7079" x1="194.169" y1="50.5984" x2="190.468" y2="52.3649" gradientUnits="userSpaceOnUse">
<stop stop-color="#FF8A8D"/>
<stop offset="1" stop-color="#FD626E"/>
</linearGradient>
</defs>
</svg>
