<svg width="296" height="290" viewBox="0 0 296 290" fill="none" xmlns="http://www.w3.org/2000/svg">
<path d="M269 105.031C258.804 72.8197 251.194 50.6467 231.023 40.9893C196.999 24.6997 168.015 64.2634 120.896 48.0855C97.6958 40.1202 94.8469 27.1387 76.4211 28.227C43.822 30.1526 23.4954 72.5453 21.7284 76.1845C10.9923 98.2963 10.163 123.348 19.3981 145.67C25.3961 160.169 30.2941 175.378 32.0339 190.966C35.062 218.093 39.6645 243.139 68.3456 255.131C93.9544 265.838 125.34 273.911 153.745 271.756C173.048 270.292 194.052 264.523 211.656 256.7C301.372 216.833 283.018 149.319 269 105.031Z" fill="#28353E"/>
<path d="M34.6592 222.356H45.8721L45.8721 174.913H34.6592L34.6592 222.356Z" fill="#EBEBEB"/>
<path d="M40.3742 184.809H43.7824V178.238H40.3742V184.809Z" fill="white"/>
<path d="M41.9824 184.809C42.0076 184.809 42.0281 183.338 42.0281 181.524C42.0281 179.709 42.0076 178.238 41.9824 178.238C41.9571 178.238 41.9367 179.709 41.9367 181.524C41.9367 183.338 41.9571 184.809 41.9824 184.809Z" fill="#E0E0E0"/>
<path d="M40.3745 180.521C40.3745 180.546 41.1376 180.567 42.0786 180.567C43.0199 180.567 43.7826 180.546 43.7826 180.521C43.7826 180.496 43.0199 180.475 42.0786 180.475C41.1372 180.475 40.3745 180.496 40.3745 180.521Z" fill="#E0E0E0"/>
<path d="M40.3567 182.871C40.3567 182.896 41.1261 182.916 42.0745 182.916C43.0236 182.916 43.7927 182.896 43.7927 182.871C43.7927 182.845 43.0236 182.825 42.0745 182.825C41.1257 182.825 40.3567 182.846 40.3567 182.871Z" fill="#E0E0E0"/>
<path d="M40.3742 193.392H43.7824V186.821H40.3742V193.392Z" fill="white"/>
<path d="M41.9824 193.392C42.0076 193.392 42.0281 191.921 42.0281 190.107C42.0281 188.292 42.0076 186.821 41.9824 186.821C41.9571 186.821 41.9367 188.292 41.9367 190.107C41.9367 191.921 41.9571 193.392 41.9824 193.392Z" fill="#E0E0E0"/>
<path d="M40.3745 189.104C40.3745 189.129 41.1376 189.15 42.0786 189.15C43.0199 189.15 43.7826 189.129 43.7826 189.104C43.7826 189.079 43.0199 189.058 42.0786 189.058C41.1372 189.058 40.3745 189.079 40.3745 189.104Z" fill="#E0E0E0"/>
<path d="M40.3567 191.454C40.3567 191.479 41.1261 191.499 42.0745 191.499C43.0236 191.499 43.7927 191.479 43.7927 191.454C43.7927 191.428 43.0236 191.408 42.0745 191.408C41.1257 191.408 40.3567 191.429 40.3567 191.454Z" fill="#E0E0E0"/>
<path d="M40.3742 201.975H43.7824V195.404H40.3742V201.975Z" fill="white"/>
<path d="M41.9824 201.975C42.0076 201.975 42.0281 200.504 42.0281 198.69C42.0281 196.875 42.0076 195.404 41.9824 195.404C41.9571 195.404 41.9367 196.875 41.9367 198.69C41.9367 200.504 41.9571 201.975 41.9824 201.975Z" fill="#E0E0E0"/>
<path d="M40.3745 197.687C40.3745 197.712 41.1376 197.733 42.0786 197.733C43.0199 197.733 43.7826 197.712 43.7826 197.687C43.7826 197.662 43.0199 197.641 42.0786 197.641C41.1372 197.641 40.3745 197.662 40.3745 197.687Z" fill="#E0E0E0"/>
<path d="M40.3567 200.037C40.3567 200.062 41.1261 200.083 42.0745 200.083C43.0236 200.083 43.7927 200.062 43.7927 200.037C43.7927 200.012 43.0236 199.991 42.0745 199.991C41.1257 199.991 40.3567 200.012 40.3567 200.037Z" fill="#E0E0E0"/>
<path d="M40.3742 210.558H43.7824V203.987H40.3742V210.558Z" fill="white"/>
<path d="M41.9824 210.558C42.0076 210.558 42.0281 209.087 42.0281 207.273C42.0281 205.458 42.0076 203.988 41.9824 203.988C41.9571 203.988 41.9367 205.458 41.9367 207.273C41.9367 209.087 41.9571 210.558 41.9824 210.558Z" fill="#E0E0E0"/>
<path d="M40.3745 206.27C40.3745 206.296 41.1376 206.316 42.0786 206.316C43.0199 206.316 43.7826 206.296 43.7826 206.27C43.7826 206.245 43.0199 206.225 42.0786 206.225C41.1372 206.225 40.3745 206.245 40.3745 206.27Z" fill="#E0E0E0"/>
<path d="M40.3567 208.62C40.3567 208.645 41.1261 208.666 42.0745 208.666C43.0236 208.666 43.7927 208.645 43.7927 208.62C43.7927 208.595 43.0236 208.574 42.0745 208.574C41.1257 208.574 40.3567 208.595 40.3567 208.62Z" fill="#E0E0E0"/>
<path d="M29.8911 222.356H38.0609L38.0609 174.913H29.8911L29.8911 222.356Z" fill="#E0E0E0"/>
<path d="M32.1158 184.809H35.5239V178.238H32.1158V184.809Z" fill="white"/>
<path d="M33.7238 184.809C33.7491 184.809 33.7695 183.338 33.7695 181.524C33.7695 179.709 33.7491 178.238 33.7238 178.238C33.6986 178.238 33.6782 179.709 33.6782 181.524C33.6782 183.338 33.6986 184.809 33.7238 184.809Z" fill="#E0E0E0"/>
<path d="M32.1156 180.521C32.1156 180.546 32.8787 180.567 33.8197 180.567C34.761 180.567 35.5237 180.546 35.5237 180.521C35.5237 180.496 34.761 180.475 33.8197 180.475C32.8787 180.475 32.1156 180.496 32.1156 180.521Z" fill="#E0E0E0"/>
<path d="M32.0978 182.871C32.0978 182.896 32.8672 182.916 33.8156 182.916C34.7647 182.916 35.5337 182.896 35.5337 182.871C35.5337 182.845 34.7647 182.825 33.8156 182.825C32.8672 182.825 32.0978 182.846 32.0978 182.871Z" fill="#E0E0E0"/>
<path d="M32.1158 193.462H35.5239V186.891H32.1158V193.462Z" fill="white"/>
<path d="M33.7238 193.462C33.7491 193.462 33.7695 191.991 33.7695 190.177C33.7695 188.362 33.7491 186.892 33.7238 186.892C33.6986 186.892 33.6782 188.362 33.6782 190.177C33.6782 191.991 33.6986 193.462 33.7238 193.462Z" fill="#E0E0E0"/>
<path d="M32.1156 189.174C32.1156 189.2 32.8787 189.22 33.8197 189.22C34.761 189.22 35.5237 189.2 35.5237 189.174C35.5237 189.149 34.761 189.129 33.8197 189.129C32.8787 189.129 32.1156 189.149 32.1156 189.174Z" fill="#E0E0E0"/>
<path d="M32.0978 191.524C32.0978 191.55 32.8672 191.57 33.8156 191.57C34.7647 191.57 35.5337 191.55 35.5337 191.524C35.5337 191.499 34.7647 191.479 33.8156 191.479C32.8672 191.479 32.0978 191.499 32.0978 191.524Z" fill="#E0E0E0"/>
<path d="M32.1158 202.116H35.5239V195.545H32.1158V202.116Z" fill="white"/>
<path d="M33.7238 202.116C33.7491 202.116 33.7695 200.645 33.7695 198.831C33.7695 197.016 33.7491 195.545 33.7238 195.545C33.6986 195.545 33.6782 197.016 33.6782 198.831C33.6782 200.645 33.6986 202.116 33.7238 202.116Z" fill="#E0E0E0"/>
<path d="M32.1156 197.828C32.1156 197.853 32.8787 197.874 33.8197 197.874C34.761 197.874 35.5237 197.853 35.5237 197.828C35.5237 197.803 34.761 197.782 33.8197 197.782C32.8787 197.782 32.1156 197.803 32.1156 197.828Z" fill="#E0E0E0"/>
<path d="M32.0978 200.178C32.0978 200.203 32.8672 200.224 33.8156 200.224C34.7647 200.224 35.5337 200.203 35.5337 200.178C35.5337 200.153 34.7647 200.132 33.8156 200.132C32.8672 200.132 32.0978 200.153 32.0978 200.178Z" fill="#E0E0E0"/>
<path d="M32.1158 210.77H35.5239V204.198H32.1158V210.77Z" fill="white"/>
<path d="M33.7238 210.77C33.7491 210.77 33.7695 209.299 33.7695 207.485C33.7695 205.67 33.7491 204.199 33.7238 204.199C33.6986 204.199 33.6782 205.67 33.6782 207.485C33.6782 209.298 33.6986 210.77 33.7238 210.77Z" fill="#E0E0E0"/>
<path d="M32.1156 206.481C32.1156 206.507 32.8787 206.527 33.8197 206.527C34.761 206.527 35.5237 206.507 35.5237 206.481C35.5237 206.456 34.761 206.436 33.8197 206.436C32.8787 206.436 32.1156 206.456 32.1156 206.481Z" fill="#E0E0E0"/>
<path d="M32.0978 208.831C32.0978 208.857 32.8672 208.877 33.8156 208.877C34.7647 208.877 35.5337 208.857 35.5337 208.831C35.5337 208.806 34.7647 208.786 33.8156 208.786C32.8672 208.786 32.0978 208.806 32.0978 208.831Z" fill="#E0E0E0"/>
<path d="M40.3742 219.141H43.7824V212.57H40.3742V219.141Z" fill="white"/>
<path d="M41.9824 219.141C42.0076 219.141 42.0281 217.67 42.0281 215.856C42.0281 214.041 42.0076 212.571 41.9824 212.571C41.9571 212.571 41.9367 214.042 41.9367 215.856C41.9367 217.67 41.9571 219.141 41.9824 219.141Z" fill="#E0E0E0"/>
<path d="M40.3745 214.853C40.3745 214.879 41.1376 214.899 42.0786 214.899C43.0199 214.899 43.7826 214.879 43.7826 214.853C43.7826 214.828 43.0199 214.808 42.0786 214.808C41.1372 214.808 40.3745 214.828 40.3745 214.853Z" fill="#E0E0E0"/>
<path d="M40.3567 217.203C40.3567 217.229 41.1261 217.249 42.0745 217.249C43.0236 217.249 43.7927 217.229 43.7927 217.203C43.7927 217.178 43.0236 217.157 42.0745 217.157C41.1257 217.157 40.3567 217.178 40.3567 217.203Z" fill="#E0E0E0"/>
<path d="M32.1158 219.423H35.5239V212.852H32.1158V219.423Z" fill="white"/>
<path d="M33.7238 219.423C33.7491 219.423 33.7695 217.952 33.7695 216.138C33.7695 214.323 33.7491 212.852 33.7238 212.852C33.6986 212.852 33.6782 214.323 33.6782 216.138C33.6782 217.952 33.6986 219.423 33.7238 219.423Z" fill="#E0E0E0"/>
<path d="M32.1156 215.135C32.1156 215.16 32.8787 215.181 33.8197 215.181C34.761 215.181 35.5237 215.16 35.5237 215.135C35.5237 215.11 34.761 215.089 33.8197 215.089C32.8787 215.089 32.1156 215.11 32.1156 215.135Z" fill="#E0E0E0"/>
<path d="M32.0978 217.485C32.0978 217.51 32.8672 217.531 33.8156 217.531C34.7647 217.531 35.5337 217.51 35.5337 217.485C35.5337 217.46 34.7647 217.439 33.8156 217.439C32.8672 217.439 32.0978 217.46 32.0978 217.485Z" fill="#E0E0E0"/>
<path d="M154.27 188.948H167.462V133.129H154.27V188.948Z" fill="#EBEBEB"/>
<path d="M160.993 144.772H165.003V137.041H160.993V144.772Z" fill="white"/>
<path d="M162.885 144.772C162.915 144.772 162.939 143.041 162.939 140.907C162.939 138.772 162.915 137.041 162.885 137.041C162.855 137.041 162.831 138.772 162.831 140.907C162.831 143.041 162.855 144.772 162.885 144.772Z" fill="#E0E0E0"/>
<path d="M160.993 139.727C160.993 139.757 161.891 139.781 162.998 139.781C164.105 139.781 165.003 139.757 165.003 139.727C165.003 139.698 164.105 139.674 162.998 139.674C161.891 139.673 160.993 139.698 160.993 139.727Z" fill="#E0E0E0"/>
<path d="M160.972 142.492C160.972 142.522 161.877 142.546 162.993 142.546C164.11 142.546 165.015 142.521 165.015 142.492C165.015 142.462 164.11 142.438 162.993 142.438C161.877 142.438 160.972 142.462 160.972 142.492Z" fill="#E0E0E0"/>
<path d="M160.993 154.871H165.003V147.139H160.993V154.871Z" fill="white"/>
<path d="M162.885 154.871C162.915 154.871 162.939 153.14 162.939 151.005C162.939 148.87 162.915 147.14 162.885 147.14C162.855 147.14 162.831 148.87 162.831 151.005C162.831 153.14 162.855 154.871 162.885 154.871Z" fill="#E0E0E0"/>
<path d="M160.993 149.826C160.993 149.855 161.891 149.879 162.998 149.879C164.105 149.879 165.003 149.855 165.003 149.826C165.003 149.796 164.105 149.772 162.998 149.772C161.891 149.772 160.993 149.796 160.993 149.826Z" fill="#E0E0E0"/>
<path d="M160.972 152.59C160.972 152.62 161.877 152.644 162.993 152.644C164.11 152.644 165.015 152.62 165.015 152.59C165.015 152.56 164.11 152.537 162.993 152.537C161.877 152.537 160.972 152.561 160.972 152.59Z" fill="#E0E0E0"/>
<path d="M160.993 164.969H165.003V157.238H160.993V164.969Z" fill="white"/>
<path d="M162.885 164.969C162.915 164.969 162.939 163.238 162.939 161.104C162.939 158.968 162.915 157.238 162.885 157.238C162.855 157.238 162.831 158.968 162.831 161.104C162.831 163.238 162.855 164.969 162.885 164.969Z" fill="#E0E0E0"/>
<path d="M160.993 159.924C160.993 159.953 161.891 159.978 162.998 159.978C164.105 159.978 165.003 159.953 165.003 159.924C165.003 159.894 164.105 159.87 162.998 159.87C161.891 159.87 160.993 159.894 160.993 159.924Z" fill="#E0E0E0"/>
<path d="M160.972 162.689C160.972 162.719 161.877 162.742 162.993 162.742C164.11 162.742 165.015 162.718 165.015 162.689C165.015 162.659 164.11 162.635 162.993 162.635C161.877 162.635 160.972 162.659 160.972 162.689Z" fill="#E0E0E0"/>
<path d="M160.993 175.067H165.003V167.336H160.993V175.067Z" fill="white"/>
<path d="M162.885 175.067C162.915 175.067 162.939 173.337 162.939 171.202C162.939 169.067 162.915 167.336 162.885 167.336C162.855 167.336 162.831 169.067 162.831 171.202C162.831 173.337 162.855 175.067 162.885 175.067Z" fill="#E0E0E0"/>
<path d="M160.993 170.022C160.993 170.052 161.891 170.076 162.998 170.076C164.105 170.076 165.003 170.051 165.003 170.022C165.003 169.992 164.105 169.969 162.998 169.969C161.891 169.969 160.993 169.993 160.993 170.022Z" fill="#E0E0E0"/>
<path d="M160.972 172.787C160.972 172.817 161.877 172.841 162.993 172.841C164.11 172.841 165.015 172.816 165.015 172.787C165.015 172.757 164.11 172.733 162.993 172.733C161.877 172.733 160.972 172.757 160.972 172.787Z" fill="#E0E0E0"/>
<path d="M148.659 188.948H158.271V133.129H148.659V188.948Z" fill="#E0E0E0"/>
<path d="M151.277 144.772H155.286V137.041H151.277V144.772Z" fill="white"/>
<path d="M153.169 144.772C153.198 144.772 153.222 143.041 153.222 140.907C153.222 138.772 153.198 137.041 153.169 137.041C153.139 137.041 153.115 138.772 153.115 140.907C153.115 143.041 153.139 144.772 153.169 144.772Z" fill="#E0E0E0"/>
<path d="M151.277 139.727C151.277 139.757 152.174 139.781 153.281 139.781C154.389 139.781 155.286 139.757 155.286 139.727C155.286 139.698 154.389 139.674 153.281 139.674C152.174 139.673 151.277 139.698 151.277 139.727Z" fill="#E0E0E0"/>
<path d="M151.255 142.492C151.255 142.522 152.16 142.546 153.277 142.546C154.393 142.546 155.298 142.521 155.298 142.492C155.298 142.462 154.393 142.438 153.277 142.438C152.161 142.438 151.255 142.462 151.255 142.492Z" fill="#E0E0E0"/>
<path d="M151.277 154.953H155.286V147.222H151.277V154.953Z" fill="white"/>
<path d="M153.169 154.953C153.198 154.953 153.222 153.223 153.222 151.088C153.222 148.952 153.198 147.222 153.169 147.222C153.139 147.222 153.115 148.952 153.115 151.088C153.115 153.222 153.139 154.953 153.169 154.953Z" fill="#E0E0E0"/>
<path d="M151.277 149.908C151.277 149.938 152.174 149.962 153.281 149.962C154.389 149.962 155.286 149.938 155.286 149.908C155.286 149.879 154.389 149.855 153.281 149.855C152.174 149.855 151.277 149.879 151.277 149.908Z" fill="#E0E0E0"/>
<path d="M151.255 152.673C151.255 152.703 152.16 152.727 153.277 152.727C154.393 152.727 155.298 152.703 155.298 152.673C155.298 152.643 154.393 152.619 153.277 152.619C152.161 152.619 151.255 152.644 151.255 152.673Z" fill="#E0E0E0"/>
<path d="M151.277 165.135H155.286V157.404H151.277V165.135Z" fill="white"/>
<path d="M153.169 165.135C153.198 165.135 153.222 163.404 153.222 161.269C153.222 159.134 153.198 157.404 153.169 157.404C153.139 157.404 153.115 159.134 153.115 161.269C153.115 163.404 153.139 165.135 153.169 165.135Z" fill="#E0E0E0"/>
<path d="M151.277 160.089C151.277 160.119 152.174 160.143 153.281 160.143C154.389 160.143 155.286 160.119 155.286 160.089C155.286 160.06 154.389 160.036 153.281 160.036C152.174 160.036 151.277 160.06 151.277 160.089Z" fill="#E0E0E0"/>
<path d="M151.255 162.855C151.255 162.884 152.16 162.908 153.277 162.908C154.393 162.908 155.298 162.884 155.298 162.855C155.298 162.825 154.393 162.801 153.277 162.801C152.161 162.801 151.255 162.825 151.255 162.855Z" fill="#E0E0E0"/>
<path d="M151.277 175.316H155.286V167.585H151.277V175.316Z" fill="white"/>
<path d="M153.169 175.316C153.198 175.316 153.222 173.585 153.222 171.451C153.222 169.315 153.198 167.585 153.169 167.585C153.139 167.585 153.115 169.315 153.115 171.451C153.115 173.585 153.139 175.316 153.169 175.316Z" fill="#E0E0E0"/>
<path d="M151.277 170.271C151.277 170.3 152.174 170.324 153.281 170.324C154.389 170.324 155.286 170.3 155.286 170.271C155.286 170.241 154.389 170.217 153.281 170.217C152.174 170.217 151.277 170.241 151.277 170.271Z" fill="#E0E0E0"/>
<path d="M151.255 173.035C151.255 173.065 152.16 173.089 153.277 173.089C154.393 173.089 155.298 173.065 155.298 173.035C155.298 173.006 154.393 172.982 153.277 172.982C152.161 172.982 151.255 173.006 151.255 173.035Z" fill="#E0E0E0"/>
<path d="M160.993 185.165H165.003V177.434H160.993V185.165Z" fill="white"/>
<path d="M162.885 185.165C162.915 185.165 162.939 183.435 162.939 181.3C162.939 179.165 162.915 177.435 162.885 177.435C162.855 177.435 162.831 179.165 162.831 181.3C162.831 183.435 162.855 185.165 162.885 185.165Z" fill="#E0E0E0"/>
<path d="M160.993 180.121C160.993 180.15 161.891 180.174 162.998 180.174C164.105 180.174 165.003 180.15 165.003 180.121C165.003 180.091 164.105 180.067 162.998 180.067C161.891 180.067 160.993 180.091 160.993 180.121Z" fill="#E0E0E0"/>
<path d="M160.972 182.885C160.972 182.915 161.877 182.939 162.993 182.939C164.11 182.939 165.015 182.914 165.015 182.885C165.015 182.855 164.11 182.832 162.993 182.832C161.877 182.832 160.972 182.855 160.972 182.885Z" fill="#E0E0E0"/>
<path d="M151.277 185.497H155.286V177.766H151.277V185.497Z" fill="white"/>
<path d="M153.169 185.497C153.198 185.497 153.222 183.766 153.222 181.632C153.222 179.496 153.198 177.766 153.169 177.766C153.139 177.766 153.115 179.497 153.115 181.632C153.115 183.766 153.139 185.497 153.169 185.497Z" fill="#E0E0E0"/>
<path d="M151.277 180.452C151.277 180.482 152.174 180.506 153.281 180.506C154.389 180.506 155.286 180.482 155.286 180.452C155.286 180.422 154.389 180.398 153.281 180.398C152.174 180.398 151.277 180.422 151.277 180.452Z" fill="#E0E0E0"/>
<path d="M151.255 183.217C151.255 183.246 152.16 183.27 153.277 183.27C154.393 183.27 155.298 183.246 155.298 183.217C155.298 183.187 154.393 183.163 153.277 183.163C152.161 183.163 151.255 183.187 151.255 183.217Z" fill="#E0E0E0"/>
<path d="M154.48 222.356H167.673V166.537H154.48V222.356Z" fill="#EBEBEB"/>
<path d="M161.204 178.181H165.214V170.45H161.204V178.181Z" fill="white"/>
<path d="M163.096 178.181C163.126 178.181 163.149 176.45 163.149 174.316C163.149 172.18 163.125 170.45 163.096 170.45C163.066 170.45 163.042 172.18 163.042 174.316C163.042 176.45 163.066 178.181 163.096 178.181Z" fill="#E0E0E0"/>
<path d="M161.204 173.136C161.204 173.165 162.101 173.189 163.209 173.189C164.316 173.189 165.214 173.165 165.214 173.136C165.214 173.106 164.316 173.082 163.209 173.082C162.102 173.082 161.204 173.106 161.204 173.136Z" fill="#E0E0E0"/>
<path d="M161.183 175.901C161.183 175.93 162.088 175.954 163.204 175.954C164.321 175.954 165.226 175.93 165.226 175.901C165.226 175.871 164.321 175.847 163.204 175.847C162.088 175.847 161.183 175.871 161.183 175.901Z" fill="#E0E0E0"/>
<path d="M161.204 188.279H165.214V180.548H161.204V188.279Z" fill="white"/>
<path d="M163.096 188.279C163.126 188.279 163.149 186.548 163.149 184.413C163.149 182.278 163.125 180.548 163.096 180.548C163.066 180.548 163.042 182.278 163.042 184.413C163.042 186.548 163.066 188.279 163.096 188.279Z" fill="#E0E0E0"/>
<path d="M161.204 183.234C161.204 183.263 162.101 183.287 163.209 183.287C164.316 183.287 165.214 183.263 165.214 183.234C165.214 183.204 164.316 183.18 163.209 183.18C162.102 183.18 161.204 183.204 161.204 183.234Z" fill="#E0E0E0"/>
<path d="M161.183 185.999C161.183 186.029 162.088 186.052 163.204 186.052C164.321 186.052 165.226 186.028 165.226 185.999C165.226 185.969 164.321 185.945 163.204 185.945C162.088 185.945 161.183 185.969 161.183 185.999Z" fill="#E0E0E0"/>
<path d="M161.204 198.377H165.214V190.646H161.204V198.377Z" fill="white"/>
<path d="M163.096 198.377C163.126 198.377 163.149 196.647 163.149 194.512C163.149 192.377 163.125 190.646 163.096 190.646C163.066 190.646 163.042 192.377 163.042 194.512C163.042 196.647 163.066 198.377 163.096 198.377Z" fill="#E0E0E0"/>
<path d="M161.204 193.333C161.204 193.362 162.101 193.387 163.209 193.387C164.316 193.387 165.214 193.362 165.214 193.333C165.214 193.303 164.316 193.279 163.209 193.279C162.102 193.279 161.204 193.303 161.204 193.333Z" fill="#E0E0E0"/>
<path d="M161.183 196.097C161.183 196.127 162.088 196.151 163.204 196.151C164.321 196.151 165.226 196.127 165.226 196.097C165.226 196.068 164.321 196.044 163.204 196.044C162.088 196.044 161.183 196.068 161.183 196.097Z" fill="#E0E0E0"/>
<path d="M161.204 208.476H165.214V200.745H161.204V208.476Z" fill="white"/>
<path d="M163.096 208.476C163.126 208.476 163.149 206.745 163.149 204.611C163.149 202.475 163.125 200.745 163.096 200.745C163.066 200.745 163.042 202.475 163.042 204.611C163.042 206.745 163.066 208.476 163.096 208.476Z" fill="#E0E0E0"/>
<path d="M161.204 203.431C161.204 203.461 162.101 203.484 163.209 203.484C164.316 203.484 165.214 203.46 165.214 203.431C165.214 203.401 164.316 203.377 163.209 203.377C162.102 203.377 161.204 203.401 161.204 203.431Z" fill="#E0E0E0"/>
<path d="M161.183 206.195C161.183 206.225 162.088 206.249 163.204 206.249C164.321 206.249 165.226 206.225 165.226 206.195C165.226 206.166 164.321 206.142 163.204 206.142C162.088 206.142 161.183 206.166 161.183 206.195Z" fill="#E0E0E0"/>
<path d="M148.87 222.356H158.482V166.537H148.87V222.356Z" fill="#E0E0E0"/>
<path d="M151.487 178.181H155.497V170.45H151.487V178.181Z" fill="white"/>
<path d="M153.379 178.181C153.409 178.181 153.433 176.45 153.433 174.316C153.433 172.18 153.408 170.45 153.379 170.45C153.349 170.45 153.326 172.18 153.326 174.316C153.326 176.45 153.35 178.181 153.379 178.181Z" fill="#E0E0E0"/>
<path d="M151.488 173.136C151.488 173.165 152.385 173.189 153.492 173.189C154.6 173.189 155.497 173.165 155.497 173.136C155.497 173.106 154.6 173.082 153.492 173.082C152.385 173.082 151.488 173.106 151.488 173.136Z" fill="#E0E0E0"/>
<path d="M151.466 175.901C151.466 175.93 152.371 175.954 153.488 175.954C154.604 175.954 155.509 175.93 155.509 175.901C155.509 175.871 154.604 175.847 153.488 175.847C152.371 175.847 151.466 175.871 151.466 175.901Z" fill="#E0E0E0"/>
<path d="M151.487 188.362H155.497V180.631H151.487V188.362Z" fill="white"/>
<path d="M153.379 188.362C153.409 188.362 153.433 186.631 153.433 184.497C153.433 182.361 153.408 180.631 153.379 180.631C153.349 180.631 153.326 182.361 153.326 184.497C153.326 186.631 153.35 188.362 153.379 188.362Z" fill="#E0E0E0"/>
<path d="M151.488 183.317C151.488 183.347 152.385 183.371 153.492 183.371C154.6 183.371 155.497 183.346 155.497 183.317C155.497 183.287 154.6 183.263 153.492 183.263C152.385 183.263 151.488 183.287 151.488 183.317Z" fill="#E0E0E0"/>
<path d="M151.466 186.082C151.466 186.111 152.371 186.136 153.488 186.136C154.604 186.136 155.509 186.111 155.509 186.082C155.509 186.052 154.604 186.028 153.488 186.028C152.371 186.028 151.466 186.052 151.466 186.082Z" fill="#E0E0E0"/>
<path d="M151.487 198.543H155.497V190.812H151.487V198.543Z" fill="white"/>
<path d="M153.379 198.543C153.409 198.543 153.433 196.812 153.433 194.678C153.433 192.542 153.408 190.812 153.379 190.812C153.349 190.812 153.326 192.542 153.326 194.678C153.326 196.812 153.35 198.543 153.379 198.543Z" fill="#E0E0E0"/>
<path d="M151.488 193.498C151.488 193.528 152.385 193.552 153.492 193.552C154.6 193.552 155.497 193.527 155.497 193.498C155.497 193.468 154.6 193.444 153.492 193.444C152.385 193.444 151.488 193.468 151.488 193.498Z" fill="#E0E0E0"/>
<path d="M151.466 196.263C151.466 196.293 152.371 196.316 153.488 196.316C154.604 196.316 155.509 196.293 155.509 196.263C155.509 196.233 154.604 196.209 153.488 196.209C152.371 196.209 151.466 196.233 151.466 196.263Z" fill="#E0E0E0"/>
<path d="M151.487 208.724H155.497V200.993H151.487V208.724Z" fill="white"/>
<path d="M153.379 208.724C153.409 208.724 153.433 206.994 153.433 204.859C153.433 202.724 153.408 200.994 153.379 200.994C153.349 200.994 153.326 202.724 153.326 204.859C153.326 206.993 153.35 208.724 153.379 208.724Z" fill="#E0E0E0"/>
<path d="M151.488 203.679C151.488 203.709 152.385 203.733 153.492 203.733C154.6 203.733 155.497 203.709 155.497 203.679C155.497 203.65 154.6 203.626 153.492 203.626C152.385 203.626 151.488 203.65 151.488 203.679Z" fill="#E0E0E0"/>
<path d="M151.466 206.444C151.466 206.474 152.371 206.497 153.488 206.497C154.604 206.497 155.509 206.473 155.509 206.444C155.509 206.414 154.604 206.39 153.488 206.39C152.371 206.39 151.466 206.415 151.466 206.444Z" fill="#E0E0E0"/>
<path d="M161.204 218.574H165.214V210.843H161.204V218.574Z" fill="white"/>
<path d="M163.096 218.574C163.126 218.574 163.149 216.843 163.149 214.709C163.149 212.573 163.125 210.843 163.096 210.843C163.066 210.843 163.042 212.573 163.042 214.709C163.042 216.843 163.066 218.574 163.096 218.574Z" fill="#E0E0E0"/>
<path d="M161.204 213.529C161.204 213.559 162.101 213.582 163.209 213.582C164.316 213.582 165.214 213.558 165.214 213.529C165.214 213.499 164.316 213.475 163.209 213.475C162.102 213.475 161.204 213.499 161.204 213.529Z" fill="#E0E0E0"/>
<path d="M161.183 216.294C161.183 216.324 162.088 216.347 163.204 216.347C164.321 216.347 165.226 216.323 165.226 216.294C165.226 216.264 164.321 216.24 163.204 216.24C162.088 216.24 161.183 216.264 161.183 216.294Z" fill="#E0E0E0"/>
<path d="M151.487 218.906H155.497V211.174H151.487V218.906Z" fill="white"/>
<path d="M153.379 218.906C153.409 218.906 153.433 217.175 153.433 215.04C153.433 212.905 153.408 211.175 153.379 211.175C153.349 211.175 153.326 212.905 153.326 215.04C153.326 217.175 153.35 218.906 153.379 218.906Z" fill="#E0E0E0"/>
<path d="M151.488 213.86C151.488 213.89 152.385 213.914 153.492 213.914C154.6 213.914 155.497 213.89 155.497 213.86C155.497 213.83 154.6 213.807 153.492 213.807C152.385 213.807 151.488 213.83 151.488 213.86Z" fill="#E0E0E0"/>
<path d="M151.466 216.625C151.466 216.655 152.371 216.679 153.488 216.679C154.604 216.679 155.509 216.655 155.509 216.625C155.509 216.596 154.604 216.572 153.488 216.572C152.371 216.571 151.466 216.596 151.466 216.625Z" fill="#E0E0E0"/>
<path d="M50.9017 222.277H70.6052L70.6052 133.987H50.9017L50.9017 222.277Z" fill="#EBEBEB"/>
<path d="M60.9445 151.377H66.9331V139.831H60.9445V151.377Z" fill="white"/>
<path d="M63.7699 151.377C63.814 151.377 63.8501 148.792 63.8501 145.604C63.8501 142.415 63.814 139.831 63.7699 139.831C63.7257 139.831 63.6897 142.415 63.6897 145.604C63.69 148.792 63.7257 151.377 63.7699 151.377Z" fill="#E0E0E0"/>
<path d="M60.9444 143.842C60.9444 143.887 62.2849 143.923 63.9385 143.923C65.5924 143.923 66.9329 143.887 66.9329 143.842C66.9329 143.798 65.5924 143.762 63.9385 143.762C62.2853 143.762 60.9444 143.798 60.9444 143.842Z" fill="#E0E0E0"/>
<path d="M60.9128 147.972C60.9128 148.016 62.2645 148.052 63.9314 148.052C65.5991 148.052 66.9507 148.017 66.9507 147.972C66.9507 147.928 65.5994 147.892 63.9314 147.892C62.2645 147.892 60.9128 147.927 60.9128 147.972Z" fill="#E0E0E0"/>
<path d="M60.9445 166.46H66.9331V154.913H60.9445V166.46Z" fill="white"/>
<path d="M63.7699 166.46C63.814 166.46 63.8501 163.875 63.8501 160.687C63.8501 157.498 63.814 154.913 63.7699 154.913C63.7257 154.913 63.6897 157.498 63.6897 160.687C63.69 163.875 63.7257 166.46 63.7699 166.46Z" fill="#E0E0E0"/>
<path d="M60.9444 158.925C60.9444 158.969 62.2849 159.005 63.9385 159.005C65.5924 159.005 66.9329 158.969 66.9329 158.925C66.9329 158.881 65.5924 158.844 63.9385 158.844C62.2853 158.845 60.9444 158.881 60.9444 158.925Z" fill="#E0E0E0"/>
<path d="M60.9128 163.054C60.9128 163.099 62.2645 163.135 63.9314 163.135C65.5991 163.135 66.9507 163.099 66.9507 163.054C66.9507 163.01 65.5994 162.974 63.9314 162.974C62.2645 162.974 60.9128 163.01 60.9128 163.054Z" fill="#E0E0E0"/>
<path d="M60.9445 181.542H66.9331V169.996H60.9445V181.542Z" fill="white"/>
<path d="M63.7699 181.543C63.814 181.543 63.8501 178.958 63.8501 175.77C63.8501 172.581 63.814 169.996 63.7699 169.996C63.7257 169.996 63.6897 172.58 63.6897 175.77C63.69 178.958 63.7257 181.543 63.7699 181.543Z" fill="#E0E0E0"/>
<path d="M60.9444 174.008C60.9444 174.052 62.2849 174.088 63.9385 174.088C65.5924 174.088 66.9329 174.051 66.9329 174.008C66.9329 173.963 65.5924 173.927 63.9385 173.927C62.2853 173.927 60.9444 173.963 60.9444 174.008Z" fill="#E0E0E0"/>
<path d="M60.9128 178.137C60.9128 178.181 62.2645 178.217 63.9314 178.217C65.5991 178.217 66.9507 178.181 66.9507 178.137C66.9507 178.093 65.5994 178.057 63.9314 178.057C62.2645 178.057 60.9128 178.093 60.9128 178.137Z" fill="#E0E0E0"/>
<path d="M60.9445 196.625H66.9331V185.079H60.9445V196.625Z" fill="white"/>
<path d="M63.7699 196.626C63.814 196.626 63.8501 194.04 63.8501 190.852C63.8501 187.663 63.814 185.079 63.7699 185.079C63.7257 185.079 63.6897 187.663 63.6897 190.852C63.69 194.041 63.7257 196.626 63.7699 196.626Z" fill="#E0E0E0"/>
<path d="M60.9444 189.09C60.9444 189.135 62.2849 189.171 63.9385 189.171C65.5924 189.171 66.9329 189.135 66.9329 189.09C66.9329 189.046 65.5924 189.01 63.9385 189.01C62.2853 189.01 60.9444 189.046 60.9444 189.09Z" fill="#E0E0E0"/>
<path d="M60.9128 193.22C60.9128 193.264 62.2645 193.3 63.9314 193.3C65.5991 193.3 66.9507 193.264 66.9507 193.22C66.9507 193.176 65.5994 193.14 63.9314 193.14C62.2645 193.14 60.9128 193.176 60.9128 193.22Z" fill="#E0E0E0"/>
<path d="M42.5225 222.277H56.8788L56.8788 133.987H42.5225L42.5225 222.277Z" fill="#E0E0E0"/>
<path d="M46.4321 151.377H52.4206V139.831H46.4321V151.377Z" fill="white"/>
<path d="M49.2573 151.377C49.3014 151.377 49.3375 148.792 49.3375 145.604C49.3375 142.415 49.3014 139.831 49.2573 139.831C49.2131 139.831 49.1774 142.415 49.1774 145.604C49.1774 148.792 49.2134 151.377 49.2573 151.377Z" fill="#E0E0E0"/>
<path d="M46.4318 143.842C46.4318 143.887 47.7727 143.923 49.4258 143.923C51.0798 143.923 52.4203 143.887 52.4203 143.842C52.4203 143.798 51.0798 143.762 49.4258 143.762C47.7727 143.762 46.4318 143.798 46.4318 143.842Z" fill="#E0E0E0"/>
<path d="M46.4002 147.972C46.4002 148.016 47.7519 148.052 49.4192 148.052C51.0868 148.052 52.4385 148.017 52.4385 147.972C52.4385 147.928 51.0872 147.892 49.4192 147.892C47.7522 147.892 46.4002 147.927 46.4002 147.972Z" fill="#E0E0E0"/>
<path d="M46.4321 166.584H52.4206V155.037H46.4321V166.584Z" fill="white"/>
<path d="M49.2573 166.584C49.3014 166.584 49.3375 163.999 49.3375 160.811C49.3375 157.622 49.3014 155.037 49.2573 155.037C49.2131 155.037 49.1774 157.621 49.1774 160.811C49.1774 163.999 49.2134 166.584 49.2573 166.584Z" fill="#E0E0E0"/>
<path d="M46.4318 159.049C46.4318 159.093 47.7727 159.129 49.4258 159.129C51.0798 159.129 52.4203 159.093 52.4203 159.049C52.4203 159.004 51.0798 158.968 49.4258 158.968C47.7727 158.969 46.4318 159.005 46.4318 159.049Z" fill="#E0E0E0"/>
<path d="M46.4002 163.178C46.4002 163.223 47.7519 163.259 49.4192 163.259C51.0868 163.259 52.4385 163.223 52.4385 163.178C52.4385 163.134 51.0872 163.098 49.4192 163.098C47.7522 163.098 46.4002 163.134 46.4002 163.178Z" fill="#E0E0E0"/>
<path d="M46.4321 181.79H52.4206V170.243H46.4321V181.79Z" fill="white"/>
<path d="M49.2573 181.79C49.3014 181.79 49.3375 179.205 49.3375 176.017C49.3375 172.828 49.3014 170.243 49.2573 170.243C49.2131 170.243 49.1774 172.828 49.1774 176.017C49.1774 179.205 49.2134 181.79 49.2573 181.79Z" fill="#E0E0E0"/>
<path d="M46.4318 174.255C46.4318 174.299 47.7727 174.335 49.4258 174.335C51.0798 174.335 52.4203 174.299 52.4203 174.255C52.4203 174.211 51.0798 174.175 49.4258 174.175C47.7727 174.175 46.4318 174.211 46.4318 174.255Z" fill="#E0E0E0"/>
<path d="M46.4002 178.384C46.4002 178.429 47.7519 178.465 49.4192 178.465C51.0868 178.465 52.4385 178.429 52.4385 178.384C52.4385 178.34 51.0872 178.304 49.4192 178.304C47.7522 178.304 46.4002 178.34 46.4002 178.384Z" fill="#E0E0E0"/>
<path d="M46.4321 196.997H52.4206V185.45H46.4321V196.997Z" fill="white"/>
<path d="M49.2573 196.997C49.3014 196.997 49.3375 194.411 49.3375 191.224C49.3375 188.034 49.3014 185.45 49.2573 185.45C49.2131 185.45 49.1774 188.034 49.1774 191.224C49.1774 194.412 49.2134 196.997 49.2573 196.997Z" fill="#E0E0E0"/>
<path d="M46.4318 189.461C46.4318 189.506 47.7727 189.542 49.4258 189.542C51.0798 189.542 52.4203 189.506 52.4203 189.461C52.4203 189.417 51.0798 189.381 49.4258 189.381C47.7727 189.381 46.4318 189.417 46.4318 189.461Z" fill="#E0E0E0"/>
<path d="M46.4002 193.591C46.4002 193.635 47.7519 193.671 49.4192 193.671C51.0868 193.671 52.4385 193.635 52.4385 193.591C52.4385 193.547 51.0872 193.511 49.4192 193.511C47.7522 193.511 46.4002 193.547 46.4002 193.591Z" fill="#E0E0E0"/>
<path d="M60.9445 211.708H66.9331V200.161H60.9445V211.708Z" fill="white"/>
<path d="M63.7699 211.708C63.814 211.708 63.8501 209.123 63.8501 205.935C63.8501 202.746 63.814 200.161 63.7699 200.161C63.7257 200.161 63.6897 202.746 63.6897 205.935C63.69 209.123 63.7257 211.708 63.7699 211.708Z" fill="#E0E0E0"/>
<path d="M60.9444 204.173C60.9444 204.217 62.2849 204.253 63.9385 204.253C65.5924 204.253 66.9329 204.217 66.9329 204.173C66.9329 204.129 65.5924 204.093 63.9385 204.093C62.2853 204.093 60.9444 204.129 60.9444 204.173Z" fill="#E0E0E0"/>
<path d="M60.9128 208.302C60.9128 208.347 62.2645 208.383 63.9314 208.383C65.5991 208.383 66.9507 208.347 66.9507 208.302C66.9507 208.258 65.5994 208.222 63.9314 208.222C62.2645 208.222 60.9128 208.258 60.9128 208.302Z" fill="#E0E0E0"/>
<path d="M46.4321 212.203H52.4206V200.656H46.4321V212.203Z" fill="white"/>
<path d="M49.2573 212.203C49.3014 212.203 49.3375 209.618 49.3375 206.43C49.3375 203.241 49.3014 200.656 49.2573 200.656C49.2131 200.656 49.1774 203.241 49.1774 206.43C49.1774 209.618 49.2134 212.203 49.2573 212.203Z" fill="#E0E0E0"/>
<path d="M46.4318 204.668C46.4318 204.712 47.7727 204.748 49.4258 204.748C51.0798 204.748 52.4203 204.713 52.4203 204.668C52.4203 204.624 51.0798 204.588 49.4258 204.588C47.7727 204.588 46.4318 204.624 46.4318 204.668Z" fill="#E0E0E0"/>
<path d="M46.4002 208.797C46.4002 208.842 47.7519 208.877 49.4192 208.877C51.0868 208.877 52.4385 208.841 52.4385 208.797C52.4385 208.753 51.0872 208.717 49.4192 208.717C47.7522 208.717 46.4002 208.753 46.4002 208.797Z" fill="#E0E0E0"/>
<path d="M236.213 222.395H254.945V143.136H236.213V222.395Z" fill="#EBEBEB"/>
<path d="M245.761 159.669H251.454V148.692H245.761V159.669Z" fill="white"/>
<path d="M248.447 159.669C248.489 159.669 248.523 157.211 248.523 154.181C248.523 151.149 248.489 148.692 248.447 148.692C248.405 148.692 248.371 151.149 248.371 154.181C248.371 157.211 248.405 159.669 248.447 159.669Z" fill="#E0E0E0"/>
<path d="M245.76 152.505C245.76 152.547 247.035 152.582 248.607 152.582C250.18 152.582 251.454 152.547 251.454 152.505C251.454 152.463 250.179 152.429 248.607 152.429C247.035 152.429 245.76 152.463 245.76 152.505Z" fill="#E0E0E0"/>
<path d="M245.73 156.432C245.73 156.474 247.016 156.508 248.6 156.508C250.186 156.508 251.471 156.474 251.471 156.432C251.471 156.39 250.186 156.355 248.6 156.355C247.016 156.355 245.73 156.389 245.73 156.432Z" fill="#E0E0E0"/>
<path d="M245.761 174.008H251.454V163.031H245.761V174.008Z" fill="white"/>
<path d="M248.447 174.008C248.489 174.008 248.523 171.551 248.523 168.52C248.523 165.488 248.489 163.031 248.447 163.031C248.405 163.031 248.371 165.488 248.371 168.52C248.371 171.551 248.405 174.008 248.447 174.008Z" fill="#E0E0E0"/>
<path d="M245.76 166.845C245.76 166.887 247.035 166.921 248.607 166.921C250.18 166.921 251.454 166.887 251.454 166.845C251.454 166.803 250.179 166.768 248.607 166.768C247.035 166.768 245.76 166.803 245.76 166.845Z" fill="#E0E0E0"/>
<path d="M245.73 170.77C245.73 170.812 247.016 170.847 248.6 170.847C250.186 170.847 251.471 170.812 251.471 170.77C251.471 170.728 250.186 170.694 248.6 170.694C247.016 170.694 245.73 170.728 245.73 170.77Z" fill="#E0E0E0"/>
<path d="M245.761 188.347H251.454V177.369H245.761V188.347Z" fill="white"/>
<path d="M248.447 188.347C248.489 188.347 248.523 185.889 248.523 182.858C248.523 179.827 248.489 177.37 248.447 177.37C248.405 177.37 248.371 179.827 248.371 182.858C248.371 185.89 248.405 188.347 248.447 188.347Z" fill="#E0E0E0"/>
<path d="M245.76 181.184C245.76 181.226 247.035 181.26 248.607 181.26C250.18 181.26 251.454 181.226 251.454 181.184C251.454 181.142 250.179 181.107 248.607 181.107C247.035 181.107 245.76 181.141 245.76 181.184Z" fill="#E0E0E0"/>
<path d="M245.73 185.109C245.73 185.151 247.016 185.185 248.6 185.185C250.186 185.185 251.471 185.151 251.471 185.109C251.471 185.067 250.186 185.033 248.6 185.033C247.016 185.033 245.73 185.067 245.73 185.109Z" fill="#E0E0E0"/>
<path d="M245.761 202.686H251.454V191.709H245.761V202.686Z" fill="white"/>
<path d="M248.447 202.686C248.489 202.686 248.523 200.228 248.523 197.198C248.523 194.166 248.489 191.709 248.447 191.709C248.405 191.709 248.371 194.166 248.371 197.198C248.371 200.228 248.405 202.686 248.447 202.686Z" fill="#E0E0E0"/>
<path d="M245.76 195.522C245.76 195.564 247.035 195.599 248.607 195.599C250.18 195.599 251.454 195.564 251.454 195.522C251.454 195.48 250.179 195.446 248.607 195.446C247.035 195.446 245.76 195.48 245.76 195.522Z" fill="#E0E0E0"/>
<path d="M245.73 199.449C245.73 199.491 247.016 199.525 248.6 199.525C250.186 199.525 251.471 199.491 251.471 199.449C251.471 199.407 250.186 199.372 248.6 199.372C247.016 199.372 245.73 199.406 245.73 199.449Z" fill="#E0E0E0"/>
<path d="M228.247 222.395H241.895V143.136H228.247V222.395Z" fill="#E0E0E0"/>
<path d="M231.963 159.669H237.657V148.692H231.963V159.669Z" fill="white"/>
<path d="M234.65 159.669C234.692 159.669 234.726 157.211 234.726 154.181C234.726 151.149 234.692 148.692 234.65 148.692C234.608 148.692 234.574 151.149 234.574 154.181C234.574 157.211 234.608 159.669 234.65 159.669Z" fill="#E0E0E0"/>
<path d="M231.964 152.505C231.964 152.547 233.239 152.582 234.81 152.582C236.383 152.582 237.657 152.547 237.657 152.505C237.657 152.463 236.383 152.429 234.81 152.429C233.238 152.429 231.964 152.463 231.964 152.505Z" fill="#E0E0E0"/>
<path d="M231.934 156.432C231.934 156.474 233.219 156.508 234.804 156.508C236.389 156.508 237.674 156.474 237.674 156.432C237.674 156.39 236.389 156.355 234.804 156.355C233.218 156.355 231.934 156.389 231.934 156.432Z" fill="#E0E0E0"/>
<path d="M231.963 174.125H237.657V163.148H231.963V174.125Z" fill="white"/>
<path d="M234.65 174.126C234.692 174.126 234.726 171.668 234.726 168.637C234.726 165.605 234.692 163.148 234.65 163.148C234.608 163.148 234.574 165.605 234.574 168.637C234.574 171.668 234.608 174.126 234.65 174.126Z" fill="#E0E0E0"/>
<path d="M231.964 166.962C231.964 167.004 233.239 167.038 234.81 167.038C236.383 167.038 237.657 167.004 237.657 166.962C237.657 166.92 236.383 166.885 234.81 166.885C233.238 166.885 231.964 166.92 231.964 166.962Z" fill="#E0E0E0"/>
<path d="M231.934 170.888C231.934 170.93 233.219 170.964 234.804 170.964C236.389 170.964 237.674 170.93 237.674 170.888C237.674 170.846 236.389 170.812 234.804 170.812C233.218 170.812 231.934 170.846 231.934 170.888Z" fill="#E0E0E0"/>
<path d="M231.963 188.583H237.657V177.605H231.963V188.583Z" fill="white"/>
<path d="M234.65 188.583C234.692 188.583 234.726 186.125 234.726 183.094C234.726 180.062 234.692 177.605 234.65 177.605C234.608 177.605 234.574 180.062 234.574 183.094C234.574 186.125 234.608 188.583 234.65 188.583Z" fill="#E0E0E0"/>
<path d="M231.964 181.419C231.964 181.461 233.239 181.495 234.81 181.495C236.383 181.495 237.657 181.461 237.657 181.419C237.657 181.377 236.383 181.343 234.81 181.343C233.238 181.343 231.964 181.377 231.964 181.419Z" fill="#E0E0E0"/>
<path d="M231.934 185.345C231.934 185.387 233.219 185.421 234.804 185.421C236.389 185.421 237.674 185.387 237.674 185.345C237.674 185.303 236.389 185.268 234.804 185.268C233.218 185.268 231.934 185.303 231.934 185.345Z" fill="#E0E0E0"/>
<path d="M231.963 203.039H237.657V192.061H231.963V203.039Z" fill="white"/>
<path d="M234.65 203.039C234.692 203.039 234.726 200.581 234.726 197.55C234.726 194.519 234.692 192.061 234.65 192.061C234.608 192.061 234.574 194.518 234.574 197.55C234.574 200.581 234.608 203.039 234.65 203.039Z" fill="#E0E0E0"/>
<path d="M231.964 195.875C231.964 195.917 233.239 195.952 234.81 195.952C236.383 195.952 237.657 195.917 237.657 195.875C237.657 195.833 236.383 195.799 234.81 195.799C233.238 195.799 231.964 195.833 231.964 195.875Z" fill="#E0E0E0"/>
<path d="M231.934 199.801C231.934 199.843 233.219 199.877 234.804 199.877C236.389 199.877 237.674 199.843 237.674 199.801C237.674 199.759 236.389 199.725 234.804 199.725C233.218 199.725 231.934 199.759 231.934 199.801Z" fill="#E0E0E0"/>
<path d="M245.761 217.025H251.454V206.048H245.761V217.025Z" fill="white"/>
<path d="M248.447 217.025C248.489 217.025 248.523 214.568 248.523 211.536C248.523 208.505 248.489 206.048 248.447 206.048C248.405 206.048 248.371 208.505 248.371 211.536C248.371 214.567 248.405 217.025 248.447 217.025Z" fill="#E0E0E0"/>
<path d="M245.76 209.861C245.76 209.903 247.035 209.938 248.607 209.938C250.18 209.938 251.454 209.903 251.454 209.861C251.454 209.819 250.179 209.785 248.607 209.785C247.035 209.785 245.76 209.819 245.76 209.861Z" fill="#E0E0E0"/>
<path d="M245.73 213.787C245.73 213.829 247.016 213.863 248.6 213.863C250.186 213.863 251.471 213.829 251.471 213.787C251.471 213.745 250.186 213.711 248.6 213.711C247.016 213.711 245.73 213.745 245.73 213.787Z" fill="#E0E0E0"/>
<path d="M231.963 217.495H237.657V206.518H231.963V217.495Z" fill="white"/>
<path d="M234.65 217.495C234.692 217.495 234.726 215.038 234.726 212.007C234.726 208.975 234.692 206.518 234.65 206.518C234.608 206.518 234.574 208.975 234.574 212.007C234.574 215.038 234.608 217.495 234.65 217.495Z" fill="#E0E0E0"/>
<path d="M231.964 210.332C231.964 210.374 233.239 210.408 234.81 210.408C236.383 210.408 237.657 210.374 237.657 210.332C237.657 210.29 236.383 210.255 234.81 210.255C233.238 210.255 231.964 210.29 231.964 210.332Z" fill="#E0E0E0"/>
<path d="M231.934 214.258C231.934 214.3 233.219 214.334 234.804 214.334C236.389 214.334 237.674 214.3 237.674 214.258C237.674 214.216 236.389 214.182 234.804 214.182C233.218 214.182 231.934 214.216 231.934 214.258Z" fill="#E0E0E0"/>
<path d="M256.952 222.356H268.165V174.913H256.952V222.356Z" fill="#EBEBEB"/>
<path d="M262.667 184.809H266.075V178.238H262.667V184.809Z" fill="white"/>
<path d="M264.275 184.809C264.3 184.809 264.321 183.338 264.321 181.524C264.321 179.709 264.3 178.238 264.275 178.238C264.25 178.238 264.229 179.709 264.229 181.524C264.229 183.338 264.25 184.809 264.275 184.809Z" fill="#E0E0E0"/>
<path d="M262.667 180.521C262.667 180.546 263.43 180.567 264.371 180.567C265.312 180.567 266.075 180.546 266.075 180.521C266.075 180.496 265.312 180.475 264.371 180.475C263.43 180.475 262.667 180.496 262.667 180.521Z" fill="#E0E0E0"/>
<path d="M262.649 182.871C262.649 182.896 263.418 182.916 264.367 182.916C265.316 182.916 266.085 182.896 266.085 182.871C266.085 182.845 265.316 182.825 264.367 182.825C263.418 182.825 262.649 182.846 262.649 182.871Z" fill="#E0E0E0"/>
<path d="M262.667 193.392H266.075V186.821H262.667V193.392Z" fill="white"/>
<path d="M264.275 193.392C264.3 193.392 264.321 191.921 264.321 190.107C264.321 188.292 264.3 186.821 264.275 186.821C264.25 186.821 264.229 188.292 264.229 190.107C264.229 191.921 264.25 193.392 264.275 193.392Z" fill="#E0E0E0"/>
<path d="M262.667 189.104C262.667 189.129 263.43 189.15 264.371 189.15C265.312 189.15 266.075 189.129 266.075 189.104C266.075 189.079 265.312 189.058 264.371 189.058C263.43 189.058 262.667 189.079 262.667 189.104Z" fill="#E0E0E0"/>
<path d="M262.649 191.454C262.649 191.479 263.418 191.499 264.367 191.499C265.316 191.499 266.085 191.479 266.085 191.454C266.085 191.428 265.316 191.408 264.367 191.408C263.418 191.408 262.649 191.429 262.649 191.454Z" fill="#E0E0E0"/>
<path d="M262.667 201.975H266.075V195.404H262.667V201.975Z" fill="white"/>
<path d="M264.275 201.975C264.3 201.975 264.321 200.504 264.321 198.69C264.321 196.875 264.3 195.404 264.275 195.404C264.25 195.404 264.229 196.875 264.229 198.69C264.229 200.504 264.25 201.975 264.275 201.975Z" fill="#E0E0E0"/>
<path d="M262.667 197.687C262.667 197.712 263.43 197.733 264.371 197.733C265.312 197.733 266.075 197.712 266.075 197.687C266.075 197.662 265.312 197.641 264.371 197.641C263.43 197.641 262.667 197.662 262.667 197.687Z" fill="#E0E0E0"/>
<path d="M262.649 200.037C262.649 200.062 263.418 200.083 264.367 200.083C265.316 200.083 266.085 200.062 266.085 200.037C266.085 200.012 265.316 199.991 264.367 199.991C263.418 199.991 262.649 200.012 262.649 200.037Z" fill="#E0E0E0"/>
<path d="M262.667 210.558H266.075V203.987H262.667V210.558Z" fill="white"/>
<path d="M264.275 210.558C264.3 210.558 264.321 209.087 264.321 207.273C264.321 205.458 264.3 203.988 264.275 203.988C264.25 203.988 264.229 205.458 264.229 207.273C264.229 209.087 264.25 210.558 264.275 210.558Z" fill="#E0E0E0"/>
<path d="M262.667 206.27C262.667 206.296 263.43 206.316 264.371 206.316C265.312 206.316 266.075 206.296 266.075 206.27C266.075 206.245 265.312 206.225 264.371 206.225C263.43 206.225 262.667 206.245 262.667 206.27Z" fill="#E0E0E0"/>
<path d="M262.649 208.62C262.649 208.645 263.418 208.666 264.367 208.666C265.316 208.666 266.085 208.645 266.085 208.62C266.085 208.595 265.316 208.574 264.367 208.574C263.418 208.574 262.649 208.595 262.649 208.62Z" fill="#E0E0E0"/>
<path d="M252.183 222.356H260.353V174.913H252.183V222.356Z" fill="#E0E0E0"/>
<path d="M254.408 184.809H257.816V178.238H254.408V184.809Z" fill="white"/>
<path d="M256.016 184.809C256.041 184.809 256.062 183.338 256.062 181.524C256.062 179.709 256.041 178.238 256.016 178.238C255.991 178.238 255.971 179.709 255.971 181.524C255.971 183.338 255.991 184.809 256.016 184.809Z" fill="#E0E0E0"/>
<path d="M254.408 180.521C254.408 180.546 255.171 180.567 256.112 180.567C257.054 180.567 257.816 180.546 257.816 180.521C257.816 180.496 257.054 180.475 256.112 180.475C255.171 180.475 254.408 180.496 254.408 180.521Z" fill="#E0E0E0"/>
<path d="M254.39 182.871C254.39 182.896 255.16 182.916 256.108 182.916C257.057 182.916 257.826 182.896 257.826 182.871C257.826 182.845 257.057 182.825 256.108 182.825C255.159 182.825 254.39 182.846 254.39 182.871Z" fill="#E0E0E0"/>
<path d="M254.408 193.462H257.816V186.891H254.408V193.462Z" fill="white"/>
<path d="M256.016 193.462C256.041 193.462 256.062 191.991 256.062 190.177C256.062 188.362 256.041 186.892 256.016 186.892C255.991 186.892 255.971 188.362 255.971 190.177C255.971 191.991 255.991 193.462 256.016 193.462Z" fill="#E0E0E0"/>
<path d="M254.408 189.174C254.408 189.2 255.171 189.22 256.112 189.22C257.054 189.22 257.816 189.2 257.816 189.174C257.816 189.149 257.054 189.129 256.112 189.129C255.171 189.129 254.408 189.149 254.408 189.174Z" fill="#E0E0E0"/>
<path d="M254.39 191.524C254.39 191.55 255.16 191.57 256.108 191.57C257.057 191.57 257.826 191.55 257.826 191.524C257.826 191.499 257.057 191.479 256.108 191.479C255.159 191.479 254.39 191.499 254.39 191.524Z" fill="#E0E0E0"/>
<path d="M254.408 202.116H257.816V195.545H254.408V202.116Z" fill="white"/>
<path d="M256.016 202.116C256.041 202.116 256.062 200.645 256.062 198.831C256.062 197.016 256.041 195.545 256.016 195.545C255.991 195.545 255.971 197.016 255.971 198.831C255.971 200.645 255.991 202.116 256.016 202.116Z" fill="#E0E0E0"/>
<path d="M254.408 197.828C254.408 197.853 255.171 197.874 256.112 197.874C257.054 197.874 257.816 197.853 257.816 197.828C257.816 197.803 257.054 197.782 256.112 197.782C255.171 197.782 254.408 197.803 254.408 197.828Z" fill="#E0E0E0"/>
<path d="M254.39 200.178C254.39 200.203 255.16 200.224 256.108 200.224C257.057 200.224 257.826 200.203 257.826 200.178C257.826 200.153 257.057 200.132 256.108 200.132C255.159 200.132 254.39 200.153 254.39 200.178Z" fill="#E0E0E0"/>
<path d="M254.408 210.77H257.816V204.198H254.408V210.77Z" fill="white"/>
<path d="M256.016 210.77C256.041 210.77 256.062 209.299 256.062 207.485C256.062 205.67 256.041 204.199 256.016 204.199C255.991 204.199 255.971 205.67 255.971 207.485C255.971 209.298 255.991 210.77 256.016 210.77Z" fill="#E0E0E0"/>
<path d="M254.408 206.481C254.408 206.507 255.171 206.527 256.112 206.527C257.054 206.527 257.816 206.507 257.816 206.481C257.816 206.456 257.054 206.436 256.112 206.436C255.171 206.436 254.408 206.456 254.408 206.481Z" fill="#E0E0E0"/>
<path d="M254.39 208.831C254.39 208.857 255.16 208.877 256.108 208.877C257.057 208.877 257.826 208.857 257.826 208.831C257.826 208.806 257.057 208.786 256.108 208.786C255.159 208.786 254.39 208.806 254.39 208.831Z" fill="#E0E0E0"/>
<path d="M262.667 219.141H266.075V212.57H262.667V219.141Z" fill="white"/>
<path d="M264.275 219.141C264.3 219.141 264.321 217.67 264.321 215.856C264.321 214.041 264.3 212.571 264.275 212.571C264.25 212.571 264.229 214.042 264.229 215.856C264.229 217.67 264.25 219.141 264.275 219.141Z" fill="#E0E0E0"/>
<path d="M262.667 214.853C262.667 214.879 263.43 214.899 264.371 214.899C265.312 214.899 266.075 214.879 266.075 214.853C266.075 214.828 265.312 214.808 264.371 214.808C263.43 214.808 262.667 214.828 262.667 214.853Z" fill="#E0E0E0"/>
<path d="M262.649 217.203C262.649 217.229 263.418 217.249 264.367 217.249C265.316 217.249 266.085 217.229 266.085 217.203C266.085 217.178 265.316 217.157 264.367 217.157C263.418 217.157 262.649 217.178 262.649 217.203Z" fill="#E0E0E0"/>
<path d="M254.408 219.423H257.816V212.852H254.408V219.423Z" fill="white"/>
<path d="M256.016 219.423C256.041 219.423 256.062 217.952 256.062 216.138C256.062 214.323 256.041 212.852 256.016 212.852C255.991 212.852 255.971 214.323 255.971 216.138C255.971 217.952 255.991 219.423 256.016 219.423Z" fill="#E0E0E0"/>
<path d="M254.408 215.135C254.408 215.16 255.171 215.181 256.112 215.181C257.054 215.181 257.816 215.16 257.816 215.135C257.816 215.11 257.054 215.089 256.112 215.089C255.171 215.089 254.408 215.11 254.408 215.135Z" fill="#E0E0E0"/>
<path d="M254.39 217.485C254.39 217.51 255.16 217.531 256.108 217.531C257.057 217.531 257.826 217.51 257.826 217.485C257.826 217.46 257.057 217.439 256.108 217.439C255.159 217.439 254.39 217.46 254.39 217.485Z" fill="#E0E0E0"/>
<path d="M172.734 87.139C172.91 85.8568 171.102 84.802 169.743 84.6924C169.095 84.64 168.422 84.7392 167.808 84.5252C166.478 84.0615 165.946 82.342 164.648 81.794C163.678 81.3845 162.561 81.749 161.62 82.2227C160.68 82.6965 159.75 83.2928 158.699 83.36C157.785 83.4184 156.792 83.0791 155.992 83.5261C155.396 83.859 155.084 84.5464 154.535 84.9517C153.997 85.3482 153.296 85.4321 152.629 85.4686C151.962 85.505 151.272 85.5117 150.665 85.7899C150.058 86.0682 149.555 86.7106 149.682 87.3668L172.734 87.139Z" fill="#EBEBEB"/>
<path d="M224.543 70.1951C224.72 68.9128 222.911 67.858 221.552 67.7484C220.904 67.696 220.231 67.7952 219.617 67.5812C218.287 67.1172 217.756 65.398 216.458 64.8504C215.487 64.4409 214.371 64.8054 213.43 65.2791C212.489 65.7529 211.559 66.3492 210.508 66.4164C209.594 66.4751 208.601 66.1355 207.802 66.5825C207.206 66.9154 206.893 67.6028 206.344 68.0081C205.807 68.4046 205.106 68.4885 204.439 68.525C203.772 68.5614 203.081 68.5681 202.474 68.8463C201.867 69.1246 201.365 69.767 201.491 70.4232L224.543 70.1951Z" fill="#EBEBEB"/>
<path d="M44.5346 122.722C44.711 121.44 42.9026 120.385 41.5435 120.276C40.8955 120.223 40.2223 120.322 39.6084 120.108C38.2783 119.644 37.7469 117.925 36.4491 117.377C35.4788 116.968 34.3618 117.332 33.4208 117.806C32.4802 118.28 31.5504 118.876 30.4995 118.943C29.5853 119.002 28.5927 118.663 27.7929 119.109C27.1969 119.442 26.8846 120.13 26.3354 120.535C25.798 120.931 25.0969 121.015 24.43 121.052C23.7631 121.088 23.0728 121.095 22.4656 121.373C21.8585 121.651 21.3561 122.294 21.482 122.95L44.5346 122.722Z" fill="#EBEBEB"/>
<path d="M119.303 73.0215C119.517 71.4662 117.324 70.187 115.676 70.0543C114.89 69.9908 114.073 70.1112 113.329 69.8514C111.715 69.2889 111.071 67.2034 109.497 66.5391C108.32 66.0424 106.965 66.4845 105.824 67.0593C104.683 67.6337 103.556 68.3567 102.281 68.4385C101.172 68.5094 99.9682 68.0981 98.9979 68.6398C98.2749 69.0437 97.8965 69.8771 97.23 70.369C96.5783 70.8502 95.7279 70.952 94.9191 70.9958C94.1103 71.04 93.273 71.0482 92.5366 71.3856C91.8003 71.7229 91.1909 72.5021 91.3439 73.2979L119.303 73.0215Z" fill="#E0E0E0"/>
<path d="M267.566 129.967C267.78 128.412 265.587 127.133 263.939 127C263.153 126.936 262.337 127.057 261.592 126.797C259.979 126.234 259.334 124.149 257.76 123.485C256.583 122.988 255.228 123.43 254.087 124.005C252.946 124.579 251.819 125.302 250.544 125.384C249.435 125.455 248.231 125.044 247.261 125.585C246.538 125.989 246.16 126.823 245.493 127.314C244.841 127.795 243.991 127.897 243.182 127.941C242.373 127.985 241.536 127.993 240.8 128.331C240.063 128.668 239.454 129.447 239.607 130.243L267.566 129.967Z" fill="#E0E0E0"/>
<path d="M267.386 222.357C267.386 222.357 267.174 222.363 266.761 222.367C266.344 222.369 265.731 222.372 264.926 222.376C263.311 222.38 260.934 222.387 257.873 222.395C251.745 222.402 242.883 222.412 231.933 222.425C210.027 222.433 179.77 222.443 146.353 222.454C112.923 222.442 82.6635 222.432 60.7576 222.425C49.8076 222.412 40.946 222.402 34.8189 222.395C31.7587 222.387 29.3818 222.38 27.7669 222.376C26.9625 222.372 26.3487 222.369 25.9328 222.367C25.5195 222.363 25.3079 222.357 25.3079 222.357C25.3079 222.357 25.5195 222.35 25.9328 222.347C26.3487 222.344 26.9625 222.341 27.7669 222.337C29.3818 222.333 31.7587 222.326 34.8189 222.319C40.946 222.311 49.8072 222.301 60.7576 222.288C82.6635 222.28 112.923 222.271 146.353 222.26C179.771 222.271 210.027 222.281 231.933 222.288C242.883 222.301 251.745 222.311 257.873 222.319C260.934 222.326 263.311 222.333 264.926 222.337C265.731 222.341 266.344 222.344 266.761 222.347C267.174 222.35 267.386 222.357 267.386 222.357Z" fill="#263238"/>
<path d="M124.917 89.0132H104.243V101.155H124.917V89.0132Z" fill="#E0E0E0"/>
<path d="M115.122 88.6082H94.4475V100.75H115.122V88.6082Z" fill="#EBEBEB"/>
<path d="M155.372 100.218H65.6444V105.11H155.372V100.218Z" fill="#E0E0E0"/>
<path d="M126.231 86.6621H92.3212V89.2949H126.231V86.6621Z" fill="#E0E0E0"/>
<path d="M133.49 222.357L70.3938 222.277L70.2865 105.11H133.49V222.357Z" fill="#EBEBEB"/>
<path d="M84.1552 112.528H76.8925V125.595H84.1552V112.528Z" fill="#455A64"/>
<path d="M84.1552 131.428H76.8925V144.496H84.1552V131.428Z" fill="#455A64"/>
<path d="M84.1552 150.329H76.8925V163.397H84.1552V150.329Z" fill="#455A64"/>
<path d="M84.1552 169.23H76.8925V182.298H84.1552V169.23Z" fill="#455A64"/>
<path d="M84.1552 186.802H76.8925V199.87H84.1552V186.802Z" fill="#455A64"/>
<path d="M125.938 112.528H118.675V125.595H125.938V112.528Z" fill="#455A64"/>
<path d="M105.319 92.3118H98.7175V100.844H105.319V92.3118Z" fill="#455A64"/>
<path d="M125.938 131.428H118.675V144.496H125.938V131.428Z" fill="#455A64"/>
<path d="M125.938 150.329H118.675V163.397H125.938V150.329Z" fill="#455A64"/>
<path d="M125.938 169.23H118.675V182.298H125.938V169.23Z" fill="#455A64"/>
<path d="M125.938 186.802H118.675V199.87H125.938V186.802Z" fill="#455A64"/>
<path d="M111.843 105.11H90.4289V222.357H111.843V105.11Z" fill="#455A64"/>
<g opacity="0.3">
<path d="M111.842 141.417L90.4289 159.27V165.793L111.842 147.647V141.417Z" fill="white"/>
</g>
<g opacity="0.3">
<path d="M111.842 107.302L90.4289 125.155V131.678L111.842 113.533V107.302Z" fill="white"/>
</g>
<g opacity="0.3">
<path d="M111.842 155.816L90.4289 173.669V186.803L111.842 168.727V155.816Z" fill="white"/>
</g>
<path d="M151.161 104.024H133.49V222.256H151.161V104.024Z" fill="#E0E0E0"/>
<path d="M151.458 222.256C151.405 222.256 151.304 198.412 151.232 169.006C151.161 139.589 151.146 115.75 151.199 115.749C151.253 115.749 151.354 139.588 151.425 169.005C151.497 198.411 151.512 222.256 151.458 222.256Z" fill="#263238"/>
<path d="M146.691 112.528H139.429V125.595H146.691V112.528Z" fill="#263238"/>
<path d="M146.691 131.428H139.429V144.496H146.691V131.428Z" fill="#263238"/>
<path d="M146.691 150.329H139.429V163.397H146.691V150.329Z" fill="#263238"/>
<path d="M146.691 169.23H139.429V182.298H146.691V169.23Z" fill="#263238"/>
<path d="M146.691 186.802H139.429V199.87H146.691V186.802Z" fill="#263238"/>
<path d="M146.691 205.207H139.429V218.275H146.691V205.207Z" fill="#263238"/>
<path d="M113.268 200.148H88.6669V202.607H113.268V200.148Z" fill="#EBEBEB"/>
<path d="M111.843 126.389H90.4289V127.818H111.843V126.389Z" fill="#263238"/>
<path d="M111.843 147.062H90.4289V148.491H111.843V147.062Z" fill="#263238"/>
<path d="M111.675 184.798H90.2607V186.227H111.675V184.798Z" fill="#263238"/>
<path d="M112.655 166.781H91.241V168.21H112.655V166.781Z" fill="#263238"/>
<path d="M107.594 172.063C107.628 172.103 104.432 174.898 100.456 178.304C96.478 181.711 93.2262 184.439 93.1913 184.398C93.1567 184.358 96.3521 181.564 100.33 178.157C104.307 174.751 107.559 172.022 107.594 172.063Z" fill="#263238"/>
<path d="M107.777 184.756C107.812 184.796 104.615 187.591 100.639 190.997C96.6614 194.403 93.4096 197.132 93.3747 197.091C93.3402 197.051 96.5355 194.257 100.513 190.85C104.49 187.444 107.743 184.715 107.777 184.756Z" fill="#263238"/>
<path d="M107.516 153.328C107.551 153.369 105.206 155.42 102.279 157.909C99.3507 160.398 96.95 162.383 96.9154 162.342C96.8809 162.302 99.2255 160.251 102.154 157.762C105.08 155.273 107.482 153.288 107.516 153.328Z" fill="#263238"/>
<path d="M101.659 155.658C101.695 155.697 100.786 156.59 99.6291 157.651C98.4717 158.713 97.5044 159.542 97.4683 159.502C97.4323 159.463 98.341 158.571 99.4984 157.509C100.655 156.447 101.622 155.619 101.659 155.658Z" fill="#263238"/>
<path d="M94.2203 140.379C94.1883 140.337 97.4078 137.878 101.41 134.888C105.414 131.898 108.685 129.509 108.717 129.552C108.749 129.595 105.53 132.053 101.526 135.044C97.5237 138.033 94.2522 140.422 94.2203 140.379Z" fill="#263238"/>
<path d="M98.657 138.518C98.6429 138.495 98.9299 138.294 99.3985 137.978C99.9255 137.623 100.544 137.206 101.227 136.745C101.905 136.276 102.519 135.852 103.041 135.49C103.505 135.168 103.797 134.974 103.813 134.996C103.829 135.017 103.566 135.249 103.122 135.6C102.677 135.951 102.049 136.418 101.336 136.905C100.622 137.392 99.9596 137.808 99.471 138.094C98.983 138.381 98.6704 138.54 98.657 138.518Z" fill="#263238"/>
<path d="M108.219 109.447C108.223 109.452 108.173 109.5 108.075 109.587C107.959 109.686 107.816 109.809 107.641 109.959C107.237 110.294 106.69 110.749 106.024 111.303C104.637 112.452 102.758 114.007 100.681 115.726C98.6128 117.457 96.7413 119.022 95.3599 120.177C94.6941 120.732 94.1475 121.187 93.7446 121.523C93.5656 121.668 93.4185 121.787 93.2997 121.883C93.1965 121.963 93.1404 122.003 93.136 121.998C93.1315 121.993 93.1794 121.943 93.2741 121.853C93.3866 121.75 93.5255 121.622 93.6952 121.466C94.0884 121.119 94.6213 120.647 95.2708 120.073C96.6091 118.906 98.4739 117.311 100.557 115.577C102.64 113.845 104.546 112.3 105.937 111.196C106.62 110.662 107.18 110.223 107.593 109.9C107.777 109.761 107.929 109.648 108.05 109.556C108.157 109.479 108.214 109.441 108.219 109.447Z" fill="#263238"/>
<path d="M101.855 112.126C101.888 112.168 101.213 112.752 100.347 113.43C99.481 114.109 98.7524 114.625 98.7194 114.583C98.6863 114.541 99.3618 113.957 100.228 113.278C101.094 112.6 101.822 112.084 101.855 112.126Z" fill="#263238"/>
<path d="M82.0244 136.84C82.0608 136.879 81.3883 137.565 80.5224 138.373C79.656 139.18 78.9245 139.803 78.8881 139.764C78.8517 139.725 79.5242 139.039 80.3905 138.231C81.2565 137.423 81.988 136.8 82.0244 136.84Z" fill="#263238"/>
<path d="M124.262 155.534C124.302 155.57 123.619 156.375 122.737 157.332C121.856 158.288 121.11 159.034 121.07 158.998C121.031 158.962 121.713 158.157 122.595 157.2C123.476 156.244 124.223 155.498 124.262 155.534Z" fill="#263238"/>
<path d="M82.6286 173.459C82.6668 173.496 81.9164 174.325 80.9531 175.308C79.9895 176.293 79.1774 177.06 79.1391 177.023C79.1009 176.985 79.851 176.157 80.815 175.173C81.7782 174.189 82.5903 173.421 82.6286 173.459Z" fill="#263238"/>
<path d="M122.975 190.062C123.014 190.1 122.364 190.836 121.525 191.708C120.685 192.58 119.974 193.257 119.935 193.22C119.897 193.182 120.546 192.446 121.386 191.574C122.225 190.702 122.937 190.025 122.975 190.062Z" fill="#263238"/>
<path d="M122.85 192.201C122.889 192.238 122.459 192.752 121.89 193.348C121.322 193.945 120.829 194.398 120.79 194.362C120.752 194.325 121.181 193.811 121.75 193.215C122.319 192.618 122.812 192.164 122.85 192.201Z" fill="#263238"/>
<path d="M125.938 205.754H118.675V218.822H125.938V205.754Z" fill="#455A64"/>
<path d="M84.1021 205.537H76.8394V218.605H84.1021V205.537Z" fill="#455A64"/>
<g opacity="0.3">
<path d="M92.521 222.285L111.848 206.454L111.843 202.454L108.877 202.538L90.4456 218.769L90.4861 222.278" fill="white"/>
</g>
<g opacity="0.3">
<path d="M96.9009 222.29L98.6822 222.318L111.853 210.841L111.838 210.011L111.844 209.101L96.9009 222.29Z" fill="white"/>
</g>
<path d="M100.967 222.318C100.914 222.318 100.871 218.223 100.871 213.173C100.871 208.122 100.914 204.029 100.967 204.029C101.021 204.029 101.064 208.122 101.064 213.173C101.064 218.223 101.021 222.318 100.967 222.318Z" fill="#263238"/>
<path d="M99.9099 212.071H98.6239V216.507H99.9099V212.071Z" fill="#EBEBEB"/>
<path d="M103.174 212.071H101.888V216.507H103.174V212.071Z" fill="#EBEBEB"/>
<path d="M155.487 105.11C155.487 105.164 135.373 105.207 110.568 105.207C85.7534 105.207 65.6444 105.163 65.6444 105.11C65.6444 105.057 85.7538 105.013 110.568 105.013C135.373 105.013 155.487 105.057 155.487 105.11Z" fill="#263238"/>
<path d="M155.487 100.313C155.487 100.366 135.373 100.409 110.568 100.409C85.7534 100.409 65.6444 100.366 65.6444 100.313C65.6444 100.259 85.7538 100.216 110.568 100.216C135.373 100.216 155.487 100.259 155.487 100.313Z" fill="#263238"/>
<path d="M126.489 89.2949C126.489 89.3485 118.865 89.392 109.463 89.392C100.057 89.392 92.4349 89.3485 92.4349 89.2949C92.4349 89.2414 100.057 89.1982 109.463 89.1982C118.865 89.1982 126.489 89.2418 126.489 89.2949Z" fill="#263238"/>
<path d="M70.3938 222.277C70.3403 222.277 70.2445 196.179 70.1795 163.993C70.1145 131.796 70.1052 105.704 70.1587 105.704C70.2122 105.704 70.308 131.796 70.373 163.993C70.438 196.179 70.4472 222.277 70.3938 222.277Z" fill="#263238"/>
<path d="M73.5672 81.1509L58.8775 76.2205L44.3307 81.0844C42.4737 81.904 40.8446 82.3952 40.8446 84.0118V92.0621C40.8446 97.6527 42.412 103.193 45.6367 108.084C48.3501 112.2 52.5521 116.438 59.0205 119.131C64.9667 117.326 69.4049 112.514 72.1186 108.398C75.3433 103.507 76.9107 97.967 76.9107 92.3764V85.1372C76.9104 82.8314 75.6033 81.7052 73.5672 81.1509Z" fill="#FD5B68"/>
<path d="M58.9911 115.961L58.9298 115.936C54.0809 113.916 50.1678 110.686 47.2988 106.335C44.574 102.202 43.1339 97.387 43.1339 92.4098V85.4641C43.1339 84.1035 44.3333 83.5907 45.7221 82.9974C45.8952 82.9235 46.0727 82.8477 46.2524 82.7681L58.8782 78.5459L71.6058 82.8179C73.6352 83.3723 74.6218 84.5553 74.6218 86.4349V92.681C74.6218 97.6582 73.1818 102.474 70.4569 106.607C68.6485 109.349 64.7624 114.209 59.055 115.942L58.9911 115.961ZM58.8775 78.9375L46.3857 83.1141C46.2205 83.188 46.0418 83.2642 45.8673 83.3388C44.5472 83.9032 43.5045 84.3487 43.5045 85.4637V92.4094C43.5045 97.3138 44.9234 102.058 47.6081 106.13C50.4233 110.4 54.2588 113.575 59.0101 115.567C64.5712 113.851 68.3722 109.092 70.1461 106.401C72.8309 102.329 74.2497 97.5846 74.2497 92.6802V86.4346C74.2497 84.721 73.3767 83.6851 71.5022 83.1746L71.4918 83.1716L58.8775 78.9375Z" fill="white"/>
<path d="M75.49 79.1225C75.49 79.1225 75.8391 79.1905 76.4726 79.4376C76.7893 79.5595 77.1725 79.7441 77.5847 80.028C77.9902 80.3152 78.4358 80.7138 78.7537 81.2909C79.079 81.8612 79.278 82.585 79.3014 83.3849C79.3215 84.1826 79.3111 85.0464 79.3174 85.9794C79.3178 87.8453 79.3356 89.9776 79.3211 92.3529C79.2999 94.73 78.9888 97.3487 78.2992 100.095C77.5962 102.836 76.4744 105.697 74.8435 108.484C73.2044 111.26 71.1227 114.003 68.5248 116.451C65.9336 118.883 62.7661 121.027 59.0669 122.163L59.0342 122.173L59.0034 122.16C57.7215 121.612 56.4412 121.001 55.1871 120.295C53.9395 119.579 52.7152 118.781 51.5362 117.892C49.173 116.12 47.0174 113.958 45.1592 111.516C43.1569 108.882 41.5687 105.998 40.4584 103.008C39.3448 100.02 38.6968 96.9344 38.4818 93.9067C38.3659 92.3912 38.3986 90.8935 38.3938 89.4255C38.3945 87.9556 38.3953 86.5088 38.396 85.0866C38.3964 84.3754 38.3968 83.6706 38.3971 82.9725C38.4016 82.6251 38.3797 82.2762 38.4402 81.9169C38.4992 81.5628 38.6541 81.2225 38.8814 80.9494C39.3374 80.3969 39.9631 80.0651 40.5657 79.7712C41.1766 79.4833 41.7934 79.2355 42.3931 78.9709L42.3968 78.9694L42.4005 78.9683C48.6442 76.8888 54.2005 75.0381 58.8574 73.4869L58.8779 73.4802L58.8979 73.4869C64.1074 75.2484 68.2552 76.651 71.1064 77.6152C72.5256 78.0993 73.6211 78.4727 74.3667 78.7268C74.7336 78.8539 75.0136 78.9512 75.2067 79.0181C75.3949 79.0842 75.49 79.1225 75.49 79.1225C75.49 79.1225 75.3916 79.0958 75.2015 79.0352C75.0073 78.972 74.7254 78.8806 74.3563 78.7606C73.6084 78.5136 72.5097 78.1509 71.0859 77.6805C68.2304 76.7294 64.0755 75.345 58.8578 73.6069H58.8979C54.2443 75.1689 48.6925 77.0322 42.4536 79.1262L42.4607 79.1236C41.8584 79.3904 41.2423 79.6393 40.6393 79.9251C40.044 80.2152 39.438 80.5437 39.0165 81.0579C38.8056 81.312 38.666 81.6212 38.6118 81.9485C38.5561 82.2717 38.5761 82.6236 38.5728 82.9728C38.5731 83.6714 38.5735 84.3762 38.5739 85.0869C38.5746 86.5092 38.5754 87.956 38.5761 89.4258C38.5824 90.8968 38.5509 92.3882 38.6675 93.8933C38.884 96.9043 39.5297 99.9707 40.6378 102.942C41.7429 105.913 43.3214 108.78 45.3129 111.399C47.1607 113.827 49.3029 115.976 51.6516 117.739C52.8236 118.623 54.0405 119.417 55.2804 120.13C56.5269 120.832 57.8002 121.441 59.075 121.987L59.0119 121.984C62.6766 120.861 65.8234 118.738 68.4034 116.322C70.9894 113.892 73.0681 111.161 74.7039 108.402C76.3318 105.632 77.4544 102.787 78.161 100.059C78.8543 97.3271 79.1722 94.7196 79.2015 92.351C79.2097 89.9783 79.2175 87.8449 79.2242 85.9794C79.2227 85.0476 79.2375 84.1793 79.2223 83.3879C79.2041 82.5976 79.0129 81.8853 78.6976 81.3224C78.3894 80.7529 77.9546 80.3564 77.5561 80.0677C77.1514 79.7824 76.773 79.594 76.4599 79.4677C76.148 79.3369 75.9033 79.2548 75.7381 79.2043C75.5728 79.153 75.49 79.1225 75.49 79.1225Z" fill="#FF725E"/>
<path d="M58.3959 103.897L50.1006 96.954L52.5224 94.0578L58.0847 98.7133L66.6024 89.6409L69.3529 92.2261L58.3959 103.897Z" fill="white"/>
<path d="M226.894 104.919L229.503 100.475C228.561 97.7003 228.35 94.6391 229.05 91.5731C231.065 82.7552 239.843 77.2419 248.655 79.2579C257.468 81.2739 262.979 90.0565 260.964 98.874C258.949 107.692 250.171 113.205 241.358 111.189C237.678 110.347 234.578 108.323 232.357 105.611L232.361 105.62L226.894 104.919Z" fill="white"/>
<path d="M226.894 104.919C226.894 104.919 227.02 104.931 227.257 104.959C227.498 104.988 227.849 105.029 228.308 105.084C229.233 105.197 230.594 105.363 232.366 105.579L232.323 105.638L232.319 105.629L232.183 105.336L232.39 105.585C233.74 107.214 235.846 109.118 238.874 110.338C239.626 110.643 240.432 110.904 241.283 111.099C242.142 111.254 243.028 111.447 243.961 111.476C245.816 111.596 247.813 111.403 249.794 110.787C251.773 110.175 253.733 109.143 255.461 107.689C257.189 106.239 258.68 104.364 259.716 102.18C260.764 100.003 261.303 97.5045 261.262 94.9613C261.213 92.4225 260.602 89.8106 259.309 87.4925C259.144 87.2001 258.98 86.908 258.816 86.6171C258.634 86.337 258.437 86.0676 258.249 85.7934C257.892 85.2298 257.429 84.752 257.012 84.2429C256.803 83.9873 256.547 83.7774 256.319 83.5433C256.078 83.3215 255.862 83.0726 255.603 82.8745C255.348 82.6709 255.095 82.4684 254.841 82.2659C254.713 82.1675 254.593 82.0575 254.458 81.9691L254.052 81.7053C251.909 80.2722 249.483 79.3924 247.062 79.0714C244.636 78.7552 242.226 79.0264 240.057 79.7212C237.884 80.4168 235.951 81.5414 234.369 82.9061C232.783 84.2708 231.549 85.8725 230.661 87.5203C230.553 87.7284 230.446 87.935 230.34 88.1397L230.181 88.4459L230.054 88.7632C229.887 89.1856 229.723 89.601 229.563 90.009C229.329 90.8546 229.062 91.6616 228.938 92.4682C228.377 95.6936 228.875 98.4809 229.541 100.462L229.547 100.48L229.537 100.496C228.684 101.927 228.028 103.028 227.582 103.777C227.359 104.149 227.189 104.432 227.072 104.627C226.957 104.819 226.894 104.919 226.894 104.919C226.894 104.919 226.944 104.825 227.053 104.636C227.165 104.44 227.328 104.157 227.541 103.786C227.98 103.026 228.627 101.908 229.467 100.454L229.464 100.488C228.78 98.5029 228.261 95.6996 228.813 92.4467C228.935 91.633 229.201 90.8189 229.433 89.9655C229.594 89.5531 229.758 89.1336 229.924 88.7071L230.052 88.3868L230.211 88.0777C230.317 87.8707 230.425 87.6619 230.533 87.4516C231.423 85.7863 232.664 84.1657 234.263 82.7835C235.858 81.4014 237.809 80.2611 240.004 79.5544C242.195 78.8481 244.632 78.5705 247.086 78.8878C249.535 79.2096 251.99 80.0976 254.159 81.5466L254.57 81.8134C254.706 81.9029 254.828 82.014 254.958 82.1136C255.214 82.3183 255.471 82.5234 255.729 82.7293C255.991 82.9299 256.21 83.1811 256.453 83.4058C256.685 83.6425 256.944 83.8554 257.155 84.1136C257.577 84.6282 258.046 85.112 258.407 85.6819C258.598 85.9595 258.797 86.2322 258.981 86.5153C259.147 86.8099 259.313 87.1053 259.479 87.4011C260.787 89.7466 261.406 92.3902 261.454 94.9591C261.494 97.5328 260.947 100.059 259.884 102.26C258.834 104.468 257.323 106.362 255.574 107.824C253.825 109.291 251.844 110.33 249.843 110.943C247.84 111.56 245.824 111.75 243.952 111.624C243.01 111.591 242.117 111.394 241.252 111.235C240.394 111.034 239.583 110.769 238.826 110.458C235.778 109.216 233.669 107.287 232.325 105.64L232.396 105.595L232.399 105.604L232.431 105.673L232.356 105.663C230.573 105.423 229.205 105.239 228.274 105.114C227.821 105.051 227.476 105.004 227.237 104.971C227.006 104.938 226.894 104.919 226.894 104.919Z" fill="#263238"/>
<path d="M249.866 90.1711H237.97V102.073H249.866V90.1711Z" fill="#E0E0E0"/>
<path d="M249.866 102.073C249.864 102.071 249.863 102.051 249.861 102.013C249.86 101.967 249.858 101.913 249.856 101.845C249.854 101.687 249.85 101.473 249.846 101.2C249.841 100.626 249.834 99.8077 249.824 98.7719C249.814 96.683 249.799 93.7203 249.782 90.1706L249.865 90.2542C246.405 90.2579 242.325 90.2623 237.971 90.2672C237.949 90.2876 238.153 90.0851 238.067 90.1724V90.1758V90.1821V90.1947V90.2204V90.2713V90.3731V90.5767V90.9828C238.067 91.2529 238.067 91.5219 238.067 91.7898C238.066 92.3255 238.066 92.8561 238.066 93.3811C238.065 94.4311 238.064 95.4584 238.063 96.4575C238.06 98.4553 238.057 100.341 238.054 102.072L237.97 101.988C241.518 102.005 244.479 102.02 246.567 102.031C247.602 102.04 248.42 102.047 248.993 102.053C249.266 102.057 249.48 102.06 249.638 102.062C249.705 102.064 249.759 102.066 249.805 102.067C249.844 102.069 249.864 102.071 249.866 102.073C249.868 102.076 249.798 102.079 249.656 102.082C249.503 102.084 249.294 102.088 249.028 102.092C248.46 102.097 247.648 102.104 246.621 102.114C244.52 102.124 241.541 102.138 237.971 102.156L237.887 102.157V102.072C237.884 100.342 237.881 98.456 237.878 96.4582C237.877 95.4588 237.876 94.4315 237.875 93.3818C237.875 92.8569 237.875 92.3263 237.874 91.7905C237.874 91.5226 237.874 91.2536 237.874 90.9835V90.5774V90.3738V90.272V90.2211V90.1955V90.1828V90.1765V90.1732C237.788 90.2586 237.992 90.0528 237.972 90.0743C242.326 90.0792 246.405 90.0836 249.866 90.0874H249.95L249.949 90.1709C249.932 93.7426 249.917 96.7235 249.907 98.8257C249.897 99.8534 249.89 100.666 249.885 101.234C249.881 101.501 249.877 101.71 249.875 101.863C249.872 102.004 249.869 102.076 249.866 102.073Z" fill="#263238"/>
<path d="M245.813 100.472L238.663 94.4883L240.75 91.9919L245.545 96.0046L252.886 88.1851L255.257 90.4132L245.813 100.472Z" fill="#455A64"/>
<path d="M196.06 94.36L187.266 88.4773C184.338 87.7877 181.052 89.8859 180.443 92.8333C177.534 92.2244 174.451 94.2608 173.449 97.0604C172.447 99.86 173.326 103.12 175.256 105.382C177.186 107.643 180.029 108.983 182.944 109.562C187.138 110.395 192.041 109.478 194.553 106.016C196.911 102.766 196.537 98.3478 196.06 94.36Z" fill="#050A0D"/>
<path d="M204.229 92.5023L195.436 86.6197C192.508 85.9301 189.221 88.0282 188.613 90.9757C185.704 90.3667 182.62 92.4031 181.618 95.2027C180.616 98.0023 181.495 101.263 183.426 103.524C185.355 105.785 188.198 107.126 191.113 107.705C195.307 108.537 200.211 107.62 202.723 104.158C205.081 100.908 204.707 96.4901 204.229 92.5023Z" fill="#050A0D"/>
<path d="M217.597 98.4469L208.804 92.5642C205.876 91.8746 202.589 93.9728 201.981 96.9202C199.072 96.3113 195.988 98.3477 194.986 101.147C193.985 103.947 194.864 107.207 196.794 109.468C198.724 111.73 201.567 113.07 204.482 113.649C208.675 114.482 213.579 113.565 216.091 110.103C218.449 106.853 218.075 102.435 217.597 98.4469Z" fill="#050A0D"/>
<path d="M170.12 172.838L171.232 222.101L236.859 222.36C236.859 222.36 231.99 153.207 230.573 152.531C229.515 152.027 216.55 147.772 216.55 147.772L210.783 146.093L186.948 150.667L178.305 152.561L170.12 172.838Z" fill="#28353E"/>
<path d="M173.923 164.608C173.923 164.48 180.192 152.148 180.192 152.148C174.05 152.794 168.565 154.964 164.999 159.643C163.341 161.819 162.596 165.119 161.77 167.47C161.211 169.063 157.536 190.505 157.536 190.505L172.096 196.474L173.923 164.608Z" fill="#6B7F8D"/>
<path d="M197.054 182.646L183.319 150.944C178.315 152.068 172.689 153.329 169.103 155.64L170.999 178.944L170.723 222.358L197.013 222.496L198.632 191.6L197.054 182.646Z" fill="#6B7F8D"/>
<path d="M232.07 190.726L229.005 151.095L213.296 146.459L197.012 182.38V222.496L237.253 222.362L232.07 190.726Z" fill="#6B7F8D"/>
<path d="M227.734 189.695H171.232V197.086H227.734V189.695Z" fill="#6B7F8D"/>
<path d="M228.591 151.095C228.591 151.095 232.447 151.052 238.029 160.854C244.296 171.859 248.302 185.828 248.302 185.828L232.87 194.059L228.591 151.095Z" fill="#6B7F8D"/>
<path d="M174.48 153.226L176.079 222.362L182.372 222.395L180.192 151.603C180.192 151.603 175.468 152.711 174.48 153.226Z" fill="white"/>
<path d="M219.058 148.305L217.133 222.395H225.358L225.742 150.537L219.058 148.305Z" fill="white"/>
<g opacity="0.3">
<path d="M202.185 168.089C202.469 171.001 204.209 173.734 206.727 175.221C207.926 175.93 209.294 176.377 210.344 177.292C211.357 178.174 211.981 179.408 212.58 180.61C217.036 189.547 221.501 198.506 224.94 207.881C225.71 209.978 226.439 212.119 227.67 213.983C228.901 215.847 230.723 217.437 232.915 217.86C235.107 218.284 237.643 217.274 238.516 215.217L210.766 163.406L202.185 168.089Z" fill="black"/>
</g>
<path d="M196.283 182.38C196.283 182.38 196.291 182.626 196.295 183.107C196.298 183.592 196.301 184.305 196.307 185.235C196.312 187.106 196.319 189.848 196.328 193.346C196.336 200.347 196.347 210.375 196.361 222.496V222.577L196.283 222.576C188.536 222.534 179.896 222.486 170.636 222.435L170.545 222.435L170.545 222.341C170.592 214.542 170.643 206.13 170.696 197.435C170.737 190.997 170.776 184.715 170.814 178.678L170.815 178.686C170.177 170.515 169.574 162.778 169.018 155.647L169.014 155.594L169.057 155.567C171.327 154.138 173.764 153.26 176.112 152.528C178.469 151.806 180.771 151.259 182.976 150.751L183.035 150.737L183.059 150.794C187.12 160.47 190.432 168.364 192.732 173.844C193.875 176.58 194.766 178.712 195.373 180.164C195.672 180.887 195.901 181.439 196.057 181.815C196.21 182.188 196.283 182.38 196.283 182.38C196.283 182.38 196.196 182.19 196.035 181.82C195.875 181.445 195.639 180.894 195.331 180.174C194.715 178.724 193.812 176.596 192.652 173.865C190.339 168.395 187.008 160.514 182.924 150.854L183.007 150.897C180.804 151.409 178.505 151.96 176.156 152.683C173.816 153.416 171.391 154.295 169.145 155.713L169.184 155.633C169.746 162.763 170.355 170.499 170.998 178.671L170.998 178.675V178.679C170.961 184.716 170.923 190.998 170.884 197.435C170.829 206.131 170.776 214.543 170.726 222.342L170.636 222.249C179.897 222.309 188.537 222.365 196.283 222.416L196.205 222.496C196.219 210.375 196.23 200.347 196.238 193.345C196.248 189.85 196.255 187.111 196.26 185.242C196.265 184.31 196.269 183.597 196.271 183.111C196.275 182.63 196.283 182.38 196.283 182.38Z" fill="#6B7F8D"/>
<path d="M174.518 110.821C173.65 109.449 173.567 107.616 174.305 106.171C175.044 104.725 176.577 103.719 178.197 103.618L185.622 104.706C184.901 108.89 184.181 113.074 183.46 117.258C183.254 118.459 183.011 119.735 182.176 120.622C181.385 121.462 180.178 121.803 179.024 121.795C176.509 121.777 174.08 120.135 173.124 117.807C172.168 115.48 172.742 112.603 174.518 110.821Z" fill="#050A0D"/>
<path d="M197.012 159.065C203.215 159.052 209.921 152.513 210.042 146.309L210.705 112.307C211.22 102.282 205.818 93.6257 195.788 93.3887L194.86 93.421C185.519 93.7454 177.99 101.189 177.563 110.531C177.165 119.223 177.506 127.071 177.725 131.719C178.177 141.341 187.162 142.878 187.162 142.878C187.184 142.879 186.389 151.348 187.711 153.846C190.671 159.44 193.028 158.96 197.012 159.065Z" fill="#FFBF9D"/>
<path d="M187.088 142.89C187.088 142.89 193.164 143.035 199.485 138.749C199.485 138.749 196.615 146.038 186.986 145.504L187.088 142.89Z" fill="#FF9A6C"/>
<path d="M181.974 118.246C181.974 118.973 182.589 119.573 183.347 119.587C184.104 119.602 184.72 119.025 184.72 118.299C184.721 117.572 184.107 116.971 183.349 116.957C182.59 116.942 181.975 117.519 181.974 118.246Z" fill="#263238"/>
<path d="M179.944 114.26C180.121 114.433 181.135 113.626 182.613 113.579C184.089 113.51 185.201 114.233 185.355 114.047C185.431 113.964 185.246 113.646 184.762 113.319C184.285 112.992 183.48 112.686 182.559 112.722C181.639 112.76 180.876 113.126 180.442 113.488C180.001 113.853 179.857 114.182 179.944 114.26Z" fill="#263238"/>
<path d="M195.433 118.246C195.433 118.973 196.047 119.573 196.806 119.587C197.563 119.602 198.179 119.026 198.179 118.298C198.179 117.572 197.565 116.971 196.807 116.957C196.049 116.942 195.433 117.52 195.433 118.246Z" fill="#263238"/>
<path d="M194.447 114.355C194.624 114.528 195.64 113.722 197.117 113.674C198.593 113.606 199.705 114.329 199.859 114.142C199.934 114.06 199.752 113.742 199.266 113.415C198.789 113.088 197.984 112.782 197.063 112.818C196.142 112.855 195.38 113.221 194.946 113.584C194.504 113.948 194.361 114.278 194.447 114.355Z" fill="#263238"/>
<path d="M189.538 125.906C189.542 125.822 188.617 125.695 187.121 125.556C186.743 125.53 186.382 125.467 186.31 125.212C186.212 124.942 186.355 124.529 186.523 124.083C186.846 123.157 187.185 122.186 187.54 121.168C188.948 117.019 189.954 113.613 189.787 113.558C189.619 113.503 188.341 116.82 186.933 120.97C186.595 121.993 186.271 122.968 185.964 123.9C185.836 124.335 185.607 124.83 185.82 125.389C185.931 125.668 186.215 125.864 186.459 125.92C186.704 125.985 186.916 125.982 187.104 125.987C188.605 126.016 189.535 125.991 189.538 125.906Z" fill="#263238"/>
<path d="M194.409 127.225C194.178 127.156 193.806 128.719 192.207 129.512C190.609 130.311 188.984 129.741 188.92 129.957C188.876 130.05 189.22 130.348 189.918 130.533C190.602 130.72 191.662 130.736 192.641 130.251C193.617 129.763 194.182 128.938 194.387 128.309C194.601 127.67 194.518 127.241 194.409 127.225Z" fill="#263238"/>
<path d="M194.067 109.247C194.227 109.644 195.696 109.402 197.438 109.551C199.182 109.665 200.599 110.124 200.817 109.756C200.913 109.579 200.656 109.209 200.077 108.84C199.503 108.47 198.596 108.132 197.55 108.052C196.505 107.974 195.557 108.173 194.935 108.452C194.307 108.731 193.997 109.058 194.067 109.247Z" fill="#263238"/>
<path d="M180.336 108.794C180.608 109.121 181.615 108.737 182.839 108.678C184.061 108.577 185.108 108.826 185.335 108.466C185.434 108.292 185.259 107.961 184.795 107.658C184.338 107.357 183.581 107.124 182.741 107.178C181.9 107.234 181.182 107.564 180.767 107.923C180.346 108.283 180.216 108.635 180.336 108.794Z" fill="#263238"/>
<path d="M210.353 119.267C210.515 119.19 216.896 117.081 216.914 123.669C216.932 130.257 210.318 128.917 210.306 128.728C210.294 128.539 210.353 119.267 210.353 119.267Z" fill="#FFBF9D"/>
<path d="M212.31 126.227C212.339 126.205 212.425 126.307 212.62 126.395C212.809 126.481 213.134 126.54 213.477 126.41C214.172 126.153 214.755 125.046 214.783 123.858C214.798 123.259 214.671 122.688 214.458 122.216C214.255 121.735 213.943 121.399 213.593 121.337C213.244 121.258 212.997 121.468 212.916 121.654C212.829 121.838 212.871 121.97 212.836 121.981C212.818 121.998 212.694 121.871 212.747 121.599C212.774 121.468 212.85 121.313 213.005 121.186C213.162 121.056 213.395 120.99 213.639 121.016C214.147 121.05 214.605 121.516 214.84 122.034C215.103 122.555 215.259 123.196 215.242 123.87C215.204 125.197 214.528 126.441 213.577 126.719C213.114 126.842 212.727 126.703 212.527 126.548C212.323 126.385 212.288 126.239 212.31 126.227Z" fill="#FF9A6C"/>
<path d="M202.152 103.584C202.93 102.811 204.065 102.528 205.154 102.396C207.989 102.052 210.92 102.526 213.502 103.747C214.859 104.388 216.166 105.28 216.898 106.59C217.63 107.901 217.641 109.698 216.609 110.787C218.499 111.94 219.323 114.567 218.43 116.594C217.537 118.62 215.042 119.784 212.917 119.165C212.686 121.348 210.237 122.611 208.385 121.434C207.932 121.146 207.526 120.784 207.2 120.366C205.939 118.749 205.812 115.682 206.161 113.661C204.842 113.675 203.597 112.913 202.786 111.873C201.975 110.832 201.549 109.54 201.294 108.246C200.976 106.629 200.984 104.746 202.152 103.584Z" fill="#050A0D"/>
<path d="M184.397 150.943L186.996 146.247L197.012 159.065L210.972 141.825L213.014 147.082L202.185 166.036L197.591 159.805L196.502 159.964L192.712 166.552L184.397 150.943Z" fill="#E0E0E0"/>
<path d="M206.056 160.341C206.066 160.349 205.958 160.516 205.758 160.816C205.558 161.116 205.268 161.552 204.923 162.1C204.23 163.196 203.327 164.757 202.497 166.591L202.424 166.753L202.327 166.602C202.236 166.459 202.138 166.305 202.039 166.151C200.861 164.37 199.656 162.847 198.846 161.701C198.436 161.131 198.115 160.661 197.902 160.331C197.69 160 197.581 159.812 197.592 159.805C197.604 159.798 197.733 159.972 197.964 160.288C198.218 160.63 198.552 161.078 198.956 161.62C199.793 162.744 201.015 164.252 202.201 166.045C202.3 166.201 202.399 166.356 202.491 166.501L202.321 166.512C203.159 164.669 204.088 163.11 204.812 162.029C205.173 161.488 205.48 161.062 205.699 160.774C205.918 160.486 206.046 160.334 206.056 160.341Z" fill="#263238"/>
<path d="M217.377 111.926C217.385 111.919 217.485 112.014 217.64 112.21C217.795 112.404 217.996 112.709 218.185 113.115C218.566 113.915 218.852 115.199 218.514 116.547C218.172 117.895 217.311 118.889 216.596 119.412C216.236 119.68 215.916 119.852 215.687 119.95C215.457 120.048 215.324 120.085 215.32 120.075C215.303 120.039 215.83 119.855 216.512 119.304C217.188 118.766 217.998 117.794 218.327 116.5C218.651 115.205 218.4 113.964 218.06 113.17C217.721 112.361 217.345 111.949 217.377 111.926Z" fill="#455A64"/>
<path d="M196.502 159.964C196.506 159.966 196.49 160.012 196.453 160.1C196.407 160.201 196.352 160.327 196.283 160.481C196.131 160.812 195.901 161.292 195.593 161.889C194.977 163.084 194.043 164.748 192.785 166.602L192.703 166.723L192.634 166.594C191.924 165.28 191.145 163.838 190.327 162.325C188.711 159.298 187.248 156.559 186.176 154.552C185.661 153.569 185.241 152.766 184.938 152.186C184.802 151.919 184.694 151.704 184.61 151.538C184.537 151.389 184.501 151.31 184.507 151.306C184.513 151.303 184.56 151.377 184.644 151.52C184.736 151.681 184.856 151.891 185.004 152.15C185.32 152.722 185.759 153.515 186.296 154.487C187.381 156.487 188.862 159.216 190.497 162.233C191.31 163.749 192.084 165.192 192.79 166.509L192.638 166.501C193.903 164.662 194.856 163.016 195.497 161.838C195.804 161.261 196.051 160.796 196.232 160.455C196.31 160.306 196.374 160.185 196.426 160.086C196.471 160.004 196.497 159.962 196.502 159.964Z" fill="#263238"/>
<path d="M157.859 181.774L152.514 197.095L144.509 187.78L133.859 194.397L147.405 212.53C151.074 217.762 157.129 219.404 160.437 218.614C167.181 217.003 170.769 208.27 170.769 208.27L170.731 199.9L169.291 187.492L157.859 181.774Z" fill="#6B7F8D"/>
<path d="M158.06 166.036C158.06 166.036 178.636 188.401 182.855 192.5C184.87 194.456 189.123 197.077 189.123 197.077L182.744 197.82L158.06 166.036Z" fill="#E0E0E0"/>
<g opacity="0.3">
<path d="M151.849 199.449C151.849 199.449 160.286 201.413 166.044 201.731C171.8 202.049 186.85 201.949 186.85 201.949L183.886 199.406L151.849 199.449Z" fill="black"/>
</g>
<path d="M156.648 163.153L119.76 162.249L151.849 199.449L185.899 200.377L156.648 163.153Z" fill="#455A64"/>
<path d="M140.753 176.972C140.795 175.973 139.895 175.183 138.898 175.255C138.355 175.294 137.645 175.361 136.774 175.479C134.523 175.782 127.93 179.297 127.795 180.633C127.597 182.594 128.611 183.315 128.611 183.315C128.611 183.315 127.361 185.092 127.891 186.51C128.344 187.726 130.324 188.084 130.324 188.084C130.324 188.084 128.923 189.83 130.469 190.988C131.006 191.39 132.083 192.16 132.334 192.423C132.334 192.423 132.566 193.177 132.779 193.455C133.484 194.376 134.552 194.945 135.709 195.013L136.087 195.035C136.815 195.077 137.53 194.845 138.094 194.383C140.644 192.293 147.855 186.248 147.95 184.635C147.95 184.635 149.325 183.488 148.729 182.353C148.134 181.218 146.048 181.791 146.048 181.791C146.048 181.791 147.04 180.982 146.513 179.789C145.986 178.597 142.253 178.827 140.563 179.105C139.218 179.326 135.467 180.064 135.467 180.064C135.467 180.064 140.428 178.176 140.697 177.311C140.731 177.203 140.748 177.089 140.753 176.972Z" fill="#FFBF9D"/>
<path d="M147.95 184.635C147.956 184.646 147.78 184.761 147.454 184.958C147.13 185.157 146.651 185.43 146.051 185.75C144.853 186.396 143.158 187.214 141.247 188.025C139.334 188.834 137.575 189.495 136.293 189.95C135.653 190.178 135.132 190.356 134.77 190.473C134.408 190.59 134.206 190.649 134.202 190.637C134.197 190.625 134.391 190.543 134.745 190.404C135.13 190.256 135.636 190.062 136.247 189.827C137.516 189.34 139.266 188.661 141.174 187.853C143.081 187.044 144.78 186.247 145.991 185.633C146.597 185.328 147.084 185.074 147.419 184.895C147.754 184.717 147.943 184.624 147.95 184.635Z" fill="#FF9A6C"/>
<path d="M146.277 181.74C146.279 181.753 146.085 181.8 145.732 181.876C145.381 181.958 144.871 182.068 144.247 182.232C142.997 182.549 141.298 183.083 139.44 183.735C138.511 184.065 137.617 184.355 136.826 184.665C136.032 184.974 135.331 185.285 134.747 185.558C134.163 185.83 133.699 186.069 133.379 186.235C133.058 186.401 132.883 186.496 132.875 186.483C132.872 186.478 132.912 186.447 132.991 186.394C133.07 186.34 133.188 186.265 133.343 186.172C133.654 185.986 134.11 185.728 134.689 185.439C135.268 185.15 135.968 184.825 136.763 184.506C137.558 184.184 138.45 183.889 139.379 183.56C141.239 182.907 142.953 182.389 144.216 182.104C144.846 181.956 145.362 181.865 145.718 181.805C146.076 181.751 146.275 181.727 146.277 181.74Z" fill="#FF9A6C"/>
<path d="M135.467 180.064C135.478 180.086 135.178 180.266 134.674 180.521C134.171 180.778 133.462 181.101 132.68 181.456C131.898 181.811 131.201 182.15 130.701 182.406C130.201 182.662 129.893 182.826 129.879 182.803C129.866 182.782 130.15 182.578 130.638 182.291C131.125 182.003 131.819 181.643 132.603 181.287C133.387 180.93 134.103 180.627 134.618 180.402C135.135 180.178 135.455 180.04 135.467 180.064Z" fill="#FF9A6C"/>
<path d="M145.688 187.65C145.697 187.659 145.579 187.803 145.354 188.055C145.127 188.305 144.789 188.659 144.357 189.08C143.498 189.929 142.236 191.02 140.88 192.256C140.543 192.564 140.223 192.883 139.889 193.166C139.556 193.448 139.219 193.703 138.885 193.926C138.216 194.373 137.549 194.679 136.962 194.843C136.375 195.014 135.874 195.039 135.536 195.019C135.366 195.018 135.236 194.99 135.148 194.978C135.06 194.963 135.014 194.953 135.015 194.946C135.017 194.928 135.203 194.952 135.537 194.946C135.87 194.944 136.356 194.899 136.924 194.717C137.493 194.54 138.138 194.23 138.79 193.784C139.115 193.56 139.444 193.307 139.771 193.027C140.097 192.748 140.413 192.431 140.754 192.119C142.116 190.878 143.388 189.807 144.267 188.985C144.71 188.577 145.06 188.238 145.302 188.005C145.542 187.769 145.678 187.641 145.688 187.65Z" fill="#FF9A6C"/>
<path d="M146.075 161.867L129.883 161.663C129.549 161.659 129.365 162.051 129.582 162.305L133.11 166.436L149.091 166.92C149.407 166.921 149.592 166.564 149.41 166.305L146.388 162.03C146.316 161.929 146.199 161.868 146.075 161.867Z" fill="#E0E0E0"/>
<path d="M133.025 166.612L129.446 162.422C129.3 162.249 129.268 162.015 129.364 161.811C129.46 161.606 129.66 161.481 129.885 161.484L146.077 161.688C146.258 161.689 146.429 161.78 146.534 161.928L149.555 166.203C149.679 166.377 149.694 166.603 149.596 166.792C149.498 166.982 149.304 167.1 149.091 167.099L133.025 166.612ZM146.089 162.046C146.083 162.046 146.078 162.045 146.072 162.045L129.881 161.841C129.796 161.84 129.723 161.886 129.688 161.962C129.652 162.04 129.663 162.124 129.718 162.189L133.194 166.26L149.096 166.742C149.172 166.742 149.242 166.7 149.279 166.628C149.316 166.557 149.31 166.475 149.264 166.409L146.242 162.134C146.206 162.084 146.15 162.052 146.089 162.046Z" fill="#263238"/>
<path d="M159.744 207.582C159.701 207.578 159.869 206.776 159.77 205.481C159.679 204.197 159.239 202.4 158.113 200.77C156.984 199.14 155.458 198.095 154.289 197.558C153.113 197.008 152.303 196.883 152.315 196.842C152.316 196.835 152.366 196.84 152.462 196.855C152.556 196.873 152.698 196.89 152.876 196.937C153.233 197.017 153.743 197.171 154.346 197.433C155.546 197.945 157.119 198.994 158.272 200.66C159.423 202.326 159.85 204.167 159.906 205.472C159.939 206.128 159.903 206.661 159.853 207.024C159.833 207.206 159.8 207.345 159.783 207.44C159.764 207.534 159.751 207.583 159.744 207.582Z" fill="#263238"/>
<path d="M214.642 177.842C214.642 177.842 222.725 197.864 226.389 205.09C230.186 212.576 235.83 225.12 247.138 218.562C256.391 213.197 248.009 185.023 248.009 185.023L239.683 188.785L227.368 169.072L214.642 177.842Z" fill="#6B7F8D"/>
<path d="M219.398 145.608C219.201 145.004 218.519 144.712 217.946 144.984C217.088 145.391 215.824 146.357 215.525 148.573C215.063 152.003 215.701 154.424 214.898 155.321C214.095 156.219 204.019 156.932 203.239 158.404C202.488 159.824 202.931 161.104 202.898 161.83C202.886 162.091 202.777 162.333 202.595 162.519C202.137 162.987 201.363 164.046 202.104 165.317C202.291 165.638 202.308 166.025 202.143 166.358C201.848 166.953 201.615 167.983 202.653 169.046C202.75 169.145 202.834 169.258 202.888 169.385C203.19 170.091 204.367 172.599 206.047 173.113C207.505 173.558 209.163 173.562 209.917 173.534C210.181 173.524 210.438 173.615 210.638 173.789C211.488 174.529 214.31 176.334 215.146 177.428C215.146 177.428 225.549 170.153 226.2 169.809C226.2 169.809 221.512 162.653 221.277 159.372C221.026 155.875 218.825 151.796 219.418 148.517C219.677 147.085 219.584 146.176 219.398 145.608Z" fill="#FFBF9D"/>
<path d="M214.642 177.842C214.641 177.84 214.66 177.824 214.699 177.794C214.746 177.759 214.804 177.716 214.876 177.663C215.043 177.543 215.274 177.378 215.568 177.168C216.187 176.733 217.073 176.112 218.185 175.332C220.442 173.766 223.613 171.566 227.316 168.996L227.393 168.943L227.444 169.022C228.784 171.083 230.237 173.351 231.734 175.727C235.154 181.21 238.249 186.174 240.497 189.779C241.621 191.564 242.532 193.012 243.17 194.026C243.48 194.519 243.722 194.907 243.895 195.182C243.972 195.308 244.033 195.408 244.08 195.485C244.12 195.554 244.14 195.59 244.137 195.592C244.134 195.594 244.109 195.561 244.063 195.496C244.012 195.421 243.946 195.324 243.862 195.203C243.683 194.932 243.43 194.551 243.107 194.066C242.456 193.076 241.522 191.638 240.382 189.852C238.095 186.284 235.016 181.303 231.571 175.83C230.074 173.455 228.625 171.186 227.292 169.121L227.419 169.146C223.7 171.692 220.515 173.873 218.249 175.425C217.125 176.186 216.229 176.793 215.602 177.217C215.301 177.417 215.064 177.574 214.893 177.688C214.818 177.736 214.757 177.775 214.708 177.806C214.666 177.832 214.644 177.844 214.642 177.842Z" fill="#263238"/>
<path d="M249.26 199.292C249.248 199.298 249.177 199.178 249.059 198.958C248.923 198.7 248.76 198.388 248.568 198.024C248.15 197.241 247.569 196.149 246.703 195.113C245.837 194.078 244.809 193.372 243.995 193.037C243.181 192.691 242.62 192.657 242.627 192.619C242.628 192.608 242.767 192.606 243.016 192.639C243.266 192.67 243.624 192.75 244.046 192.91C244.893 193.22 245.965 193.93 246.85 194.988C247.734 196.046 248.301 197.161 248.69 197.962C248.883 198.365 249.029 198.696 249.127 198.926C249.225 199.156 249.272 199.286 249.26 199.292Z" fill="#263238"/>
<path d="M198.921 98.8162L198.525 88.2401C197.366 85.463 193.74 84.0306 190.997 85.2668C189.784 82.5524 186.327 81.2484 183.473 82.0789C180.619 82.9095 178.495 85.5343 177.797 88.4248C177.098 91.3151 177.681 94.4051 178.922 97.1067C180.708 100.993 184.326 104.429 188.602 104.433C192.616 104.438 195.973 101.543 198.921 98.8162Z" fill="#050A0D"/>
<path d="M198.787 89.2449L197.494 99.7491C198.196 102.675 201.548 104.667 204.453 103.883C205.218 106.756 208.423 108.594 211.373 108.229C214.323 107.864 216.837 105.61 217.987 102.868C219.137 100.126 219.054 96.9825 218.259 94.1177C217.115 89.9961 214.09 86.0283 209.869 85.3431C205.907 84.6994 202.132 87.0229 198.787 89.2449Z" fill="#050A0D"/>
</svg>
