<svg width="15" height="16" viewBox="0 0 15 16" fill="none" xmlns="http://www.w3.org/2000/svg">
<path d="M11.1966 8.07095C11.8782 7.49945 12.3333 6.78252 12.5059 6.00866C12.6784 5.2348 12.5608 4.43789 12.1675 3.71632C11.7743 2.99475 11.1226 2.38011 10.293 1.94827C9.46339 1.51644 8.49212 1.28632 7.49912 1.28632C6.50611 1.28632 5.53484 1.51644 4.70522 1.94827C3.87559 2.38011 3.22393 2.99475 2.83069 3.71632C2.43745 4.43789 2.31984 5.2348 2.49238 6.00866C2.66492 6.78252 3.12006 7.49945 3.80161 8.07095C4.27368 8.47371 4.84574 8.79502 5.48198 9.01474C6.11822 9.23446 6.80493 9.34787 7.49912 9.34787C8.1933 9.34787 8.88001 9.23446 9.51625 9.01474C10.1525 8.79502 10.7246 8.47371 11.1966 8.07095ZM10.9985 2.95879C11.6598 3.56964 12.0452 4.33734 12.0939 5.14076H10.0828C10.0775 5.04253 10.0742 4.94429 10.061 4.84711C10.0537 4.79486 10.0398 4.74 10.0306 4.6867C10.0114 4.5822 9.99229 4.4777 9.96456 4.3732C9.9474 4.30998 9.92429 4.24728 9.90382 4.18458C9.87345 4.09209 9.84241 3.99961 9.80478 3.90817C9.77771 3.84234 9.74667 3.77807 9.71564 3.71276C9.68989 3.66051 9.66876 3.60303 9.64037 3.54869C9.66678 3.54033 9.69055 3.52884 9.7163 3.52048C9.92897 3.45363 10.1364 3.37686 10.3376 3.29057C10.3488 3.28587 10.3594 3.28012 10.37 3.27542C10.5602 3.19043 10.7442 3.09711 10.9213 2.99588C10.9457 2.98334 10.9735 2.97289 10.9985 2.95879ZM10.6611 2.67925C10.4999 2.77478 10.3322 2.86322 10.1587 2.94416C10.1369 2.95356 10.1177 2.96558 10.0966 2.97498C9.88324 3.06286 9.66265 3.13931 9.43635 3.20384C9.3789 3.11554 9.31222 3.03141 9.24817 2.94625C9.21516 2.90183 9.18214 2.85585 9.15045 2.81248C9.02562 2.65783 8.8896 2.50902 8.74306 2.36679C8.71137 2.33596 8.67704 2.30827 8.6427 2.27849C8.52319 2.16876 8.40038 2.06322 8.26899 1.96499C8.21089 1.92057 8.14948 1.87982 8.08874 1.83697C8.02799 1.79413 7.95272 1.73247 7.87943 1.68858C8.92251 1.75628 9.90433 2.1061 10.6598 2.67925H10.6611ZM5.38625 5.14076C5.39088 5.05454 5.39286 4.96781 5.40408 4.88264C5.41068 4.83509 5.42323 4.78807 5.43181 4.74104C5.44964 4.64177 5.46747 4.54301 5.49454 4.44478C5.50972 4.38888 5.53085 4.33349 5.54868 4.27758C5.57773 4.18928 5.60744 4.10098 5.6431 4.01633C5.66753 3.95833 5.69658 3.90034 5.72431 3.84286C5.75204 3.78538 5.77977 3.73052 5.80949 3.67514C5.82996 3.67984 5.85108 3.68141 5.87155 3.68611C6.11713 3.74277 6.36699 3.7871 6.61964 3.81883C6.64605 3.82196 6.67246 3.82353 6.69887 3.82666C7.23018 3.89075 7.77069 3.89075 8.302 3.82666C8.32908 3.82353 8.35549 3.82196 8.3819 3.81883C8.63434 3.78715 8.88398 3.74283 9.12932 3.68611C9.14979 3.68141 9.17092 3.67984 9.19139 3.67514C9.2211 3.73052 9.25015 3.78643 9.27656 3.84286C9.30297 3.89929 9.33335 3.95833 9.35778 4.01633C9.39343 4.10359 9.4238 4.19189 9.45219 4.27758C9.47002 4.33349 9.49115 4.38888 9.50634 4.44478C9.53341 4.54301 9.55123 4.64177 9.56906 4.74104C9.57765 4.78807 9.59019 4.83509 9.59679 4.88264C9.60802 4.96781 9.61 5.05454 9.61462 5.14076H5.38625ZM9.61198 5.51121C9.60736 5.59742 9.60538 5.68364 9.59415 5.76933C9.58755 5.81687 9.575 5.86442 9.56642 5.91197C9.54859 6.01072 9.53077 6.10948 9.50369 6.20718C9.48851 6.26361 9.46738 6.319 9.44955 6.37491C9.4205 6.46269 9.39079 6.55099 9.35513 6.63616C9.3307 6.69416 9.30165 6.75215 9.27392 6.80963C9.24619 6.8671 9.21846 6.92197 9.18875 6.97735C9.16762 6.97265 9.14649 6.97108 9.12602 6.96638C8.88428 6.91011 8.63813 6.86648 8.38916 6.83575C8.35284 6.83105 8.31653 6.82896 8.28022 6.82478C8.02488 6.79653 7.76749 6.78152 7.50968 6.77985H7.48525C7.22854 6.78152 6.97224 6.79653 6.71802 6.82478C6.68038 6.82844 6.64341 6.83105 6.60577 6.83575C6.35774 6.86679 6.1125 6.91042 5.87155 6.96638C5.84976 6.97108 5.82797 6.97265 5.80553 6.97735C5.77581 6.92197 5.74676 6.86606 5.72035 6.80963C5.69394 6.7532 5.66357 6.69416 5.63914 6.63616C5.60348 6.5489 5.57311 6.4606 5.54472 6.37491C5.52689 6.319 5.50576 6.26361 5.49058 6.20718C5.46351 6.10948 5.44568 6.01072 5.42785 5.91197C5.41927 5.86442 5.40672 5.81687 5.40012 5.76933C5.3889 5.68364 5.38691 5.59742 5.38229 5.51121H9.61198ZM7.96131 2.24191C8.01083 2.28005 8.05572 2.3229 8.10326 2.36261C8.19768 2.44151 8.29144 2.51936 8.3786 2.60453C8.4301 2.65678 8.47698 2.70903 8.52584 2.76128C8.60111 2.84122 8.67572 2.92169 8.74372 3.00581C8.78994 3.06276 8.83286 3.12233 8.87578 3.18137C8.91011 3.2284 8.9418 3.27699 8.97416 3.32506C8.8421 3.35537 8.70609 3.38358 8.57139 3.40553C8.4882 3.41911 8.40633 3.4374 8.32313 3.44785C7.77515 3.51577 7.21714 3.51577 6.66916 3.44785C6.58662 3.4374 6.50475 3.41911 6.42288 3.40553C6.28686 3.38358 6.15217 3.35328 6.01747 3.32506C6.04982 3.27647 6.0835 3.22787 6.11651 3.18033C6.15877 3.12181 6.20103 3.06329 6.24857 3.00633C6.31789 2.92169 6.3925 2.84018 6.46844 2.75971C6.51664 2.70746 6.56285 2.65521 6.6137 2.6061C6.70151 2.52145 6.79659 2.44151 6.89233 2.36209C6.93921 2.3229 6.98279 2.2811 7.03165 2.244C7.17957 2.12924 7.33564 2.02126 7.49912 1.92057C7.66072 2.0207 7.81503 2.12798 7.96131 2.24191ZM7.1188 1.68649C7.04551 1.73299 6.97948 1.78577 6.9095 1.83488C6.83951 1.884 6.78735 1.91848 6.72924 1.9629C6.59719 2.06322 6.47504 2.16876 6.35553 2.2764C6.32318 2.30618 6.2895 2.33387 6.25517 2.3647C6.10875 2.50779 5.97295 2.65747 5.84844 2.81301C5.81345 2.85638 5.78242 2.90236 5.75072 2.94677C5.6847 3.03194 5.61867 3.11606 5.56255 3.20436C5.33624 3.13984 5.11566 3.06338 4.90228 2.97551C4.88115 2.9661 4.862 2.95408 4.84021 2.94468C4.66671 2.86374 4.49897 2.7753 4.33775 2.67977C5.09294 2.10556 6.07507 1.75479 7.1188 1.68649ZM3.99969 2.95879C4.02346 2.97289 4.05119 2.98334 4.07562 2.99745C4.25268 3.09867 4.43674 3.192 4.62694 3.27699C4.63751 3.28169 4.64807 3.28744 4.6593 3.29214C4.86048 3.37843 5.06794 3.4552 5.28061 3.52204C5.30636 3.5304 5.33013 3.5419 5.35654 3.55026C5.32749 3.60251 5.30702 3.65998 5.28127 3.71485C5.25024 3.77964 5.21921 3.8439 5.19213 3.90922C5.1545 4.00118 5.12611 4.09366 5.09309 4.18667C5.07263 4.24937 5.04952 4.31154 5.03235 4.37477C5.00462 4.47927 4.98481 4.58377 4.96632 4.68827C4.95642 4.74052 4.94321 4.79277 4.93595 4.84502C4.92275 4.94273 4.91944 5.04096 4.91416 5.13919H2.90562C2.95443 4.33645 3.33933 3.56937 3.99969 2.95879ZM3.99969 7.69318C3.33854 7.08228 2.95315 6.31461 2.9043 5.51121H4.91416C4.91944 5.60944 4.92275 5.70767 4.93595 5.80538C4.94321 5.85763 4.95642 5.90988 4.96632 5.96213C4.98481 6.06663 5.00462 6.17113 5.03235 6.27563C5.04952 6.33833 5.07263 6.40051 5.09309 6.46269C5.12347 6.55569 5.1545 6.6487 5.19213 6.74066C5.21921 6.80597 5.25024 6.87024 5.28127 6.93503C5.30702 6.98989 5.32749 7.04528 5.35654 7.09962C5.33013 7.10798 5.30636 7.11947 5.28061 7.12783C5.068 7.19478 4.86054 7.27154 4.6593 7.35773C4.64807 7.36244 4.63817 7.36818 4.62694 7.37289C4.43706 7.45782 4.25322 7.55097 4.07628 7.6519C4.05251 7.6681 4.02544 7.67855 3.99969 7.69318ZM4.33709 7.97272C4.49761 7.8783 4.6647 7.79108 4.83757 7.71147C4.86002 7.70154 4.87983 7.68848 4.9036 7.67907C5.1169 7.59106 5.33749 7.5146 5.56387 7.45022C5.62131 7.53904 5.68866 7.62369 5.7527 7.71147C5.78572 7.75536 5.81477 7.80082 5.8491 7.84366C5.97415 7.99879 6.11062 8.14796 6.25781 8.2904C6.28818 8.32018 6.32384 8.34683 6.35487 8.37609C6.47504 8.48634 6.59917 8.59293 6.73122 8.69377C6.78999 8.73871 6.85205 8.77999 6.9128 8.82231C6.97354 8.86463 7.04881 8.9242 7.12144 8.9707C6.07625 8.90147 5.09326 8.54897 4.33841 7.97272H4.33709ZM7.03231 8.40953C6.98345 8.37191 6.93921 8.33011 6.89233 8.29145C6.79725 8.21203 6.70217 8.1347 6.61502 8.04744C6.56351 7.99519 6.51664 7.94294 6.46844 7.89069C6.3925 7.81074 6.31855 7.72976 6.24989 7.64563C6.20301 7.58816 6.16075 7.52859 6.11783 7.46955C6.0835 7.42305 6.05181 7.37445 6.02011 7.32691C6.15217 7.2966 6.28752 7.26786 6.42288 7.24592C6.50607 7.23286 6.5886 7.21405 6.67312 7.2036C7.22005 7.13625 7.77686 7.13625 8.32379 7.2036C8.40765 7.21405 8.49084 7.23286 8.57404 7.24644C8.70609 7.26839 8.84276 7.29869 8.97614 7.32691C8.94379 7.37445 8.91011 7.42252 8.87842 7.46903C8.8355 7.52859 8.79258 7.58816 8.74637 7.64563C8.68034 7.72976 8.60375 7.81074 8.52782 7.89069C8.47962 7.94294 8.43274 7.99519 8.38124 8.04744C8.29408 8.13208 8.19966 8.2115 8.10458 8.2904C8.05704 8.33011 8.01281 8.37191 7.96395 8.40953C7.81784 8.52361 7.66352 8.6309 7.50176 8.73087C7.33909 8.63096 7.18389 8.52367 7.03693 8.40953H7.03231ZM7.87745 8.966C7.95008 8.91949 8.01611 8.86724 8.0861 8.81813C8.15609 8.76901 8.20891 8.73348 8.26767 8.68855C8.39972 8.58875 8.52253 8.48268 8.64138 8.37505C8.6744 8.34474 8.70741 8.31757 8.74174 8.28674C8.88843 8.14461 9.02446 7.99579 9.14913 7.84105C9.18412 7.79768 9.21516 7.7517 9.24685 7.70729C9.31288 7.62212 9.3789 7.53852 9.43503 7.44969C9.66118 7.51432 9.88174 7.5906 10.0953 7.67803C10.1177 7.68796 10.1376 7.7005 10.1613 7.71042C10.3344 7.79004 10.5017 7.87726 10.6625 7.97167C9.90678 8.5467 8.9236 8.89788 7.87877 8.966H7.87745ZM10.92 7.65451C10.742 7.55259 10.5568 7.45874 10.3653 7.37341C10.3561 7.36923 10.3469 7.364 10.337 7.35982C10.135 7.27346 9.92693 7.19652 9.71366 7.1294C9.68857 7.12104 9.6648 7.10955 9.63905 7.10171C9.66744 7.04946 9.68857 6.99198 9.71432 6.93764C9.74535 6.87285 9.77639 6.80806 9.80346 6.74275C9.84109 6.65079 9.86948 6.55778 9.9025 6.4653C9.92297 6.4026 9.94608 6.34042 9.96324 6.27772C9.99097 6.17322 10.0108 6.06872 10.0293 5.96422C10.0392 5.91197 10.0524 5.85972 10.0596 5.80747C10.0728 5.71028 10.0761 5.61205 10.0814 5.51382H12.0913C12.0425 6.31606 11.6581 7.0827 10.9985 7.69318C10.9728 7.67855 10.9457 7.6681 10.9213 7.65451H10.92Z" fill="#74797B"/>
<path d="M13.4457 0.119996H1.55758C1.14495 0.119718 0.749067 0.249132 0.456984 0.479781C0.1649 0.71043 0.000525049 1.02343 0 1.34997V13.89C0.000525049 14.2166 0.1649 14.5296 0.456984 14.7602C0.749067 14.9909 1.14495 15.1203 1.55758 15.12H13.449C13.8605 15.1189 14.2547 14.9889 14.5454 14.7584C14.836 14.5279 14.9995 14.2157 15 13.89V1.34997C14.9995 1.02389 14.8356 0.711278 14.5442 0.480704C14.2528 0.250129 13.8578 0.12041 13.4457 0.119996ZM14.5319 13.89C14.5315 14.1179 14.417 14.3365 14.2134 14.4977C14.0098 14.6589 13.7337 14.7496 13.4457 14.7501H1.55758C1.41468 14.7502 1.27315 14.7281 1.14107 14.6849C1.00898 14.6418 0.888933 14.5785 0.787769 14.4986C0.686604 14.4187 0.606308 14.3239 0.551465 14.2195C0.496621 14.115 0.468304 14.0031 0.468131 13.89V1.34997C0.468304 1.23689 0.496621 1.12494 0.551465 1.02052C0.606308 0.916104 0.686604 0.821256 0.787769 0.741394C0.888933 0.661532 1.00898 0.59822 1.14107 0.555073C1.27315 0.511927 1.41468 0.48979 1.55758 0.489927H13.449C13.7365 0.491031 14.0117 0.582096 14.2146 0.743236C14.4175 0.904375 14.5315 1.1225 14.5319 1.34997V13.89Z" fill="#74797B"/>
<path d="M4.56207 11.554C4.5711 11.3919 4.51111 11.2322 4.39172 11.1004C4.28731 10.9889 4.13806 10.9087 3.96848 10.8731C3.73532 10.8425 3.49882 10.8308 3.26266 10.8381H2.31055V13.1643H2.90479V12.287H3.29237C3.49835 12.2909 3.70435 12.2797 3.90774 12.2536C4.01856 12.2334 4.12316 12.1959 4.21542 12.1433C4.32058 12.0837 4.40616 12.0051 4.46501 11.914C4.53411 11.8021 4.56744 11.6784 4.56207 11.554ZM3.88331 11.741C3.83775 11.7933 3.77298 11.8332 3.69777 11.8554C3.5448 11.8866 3.38669 11.8989 3.22898 11.892H2.90347V11.2316H3.19069C3.3334 11.2285 3.47619 11.2339 3.61788 11.2478C3.71005 11.2601 3.79413 11.297 3.85624 11.3523C3.92021 11.4099 3.95398 11.4846 3.95066 11.5613C3.9519 11.6252 3.9284 11.6879 3.88331 11.741Z" fill="#74797B"/>
<path d="M5.5912 10.8381L4.44629 13.1643H5.07553L5.32115 12.636H6.49577L6.75261 13.1643H7.39835L6.22109 10.8381H5.5912ZM5.50074 12.2441L5.8969 11.381L6.30231 12.2441H5.50074Z" fill="#74797B"/>
<path d="M9.508 11.8799C9.30341 11.8046 9.08849 11.7483 8.86754 11.7122C8.67496 11.6874 8.48997 11.6342 8.32215 11.5555C8.29489 11.5388 8.2728 11.5174 8.25758 11.493C8.24236 11.4685 8.23441 11.4416 8.23434 11.4144C8.23342 11.386 8.24152 11.3578 8.2579 11.3326C8.27428 11.3073 8.29841 11.2856 8.3281 11.2696C8.44847 11.2086 8.5901 11.1792 8.73284 11.1855C8.86578 11.1781 8.9981 11.2056 9.10919 11.2639C9.20221 11.331 9.26055 11.4229 9.27294 11.522L9.86718 11.5016C9.86769 11.4045 9.84171 11.3084 9.791 11.22C9.74029 11.1315 9.66606 11.0527 9.57336 10.9891C9.33416 10.8477 9.0385 10.7794 8.74076 10.7968C8.54305 10.7927 8.34633 10.8203 8.16237 10.8778C8.0127 10.9251 7.8847 11.0073 7.79526 11.1134C7.71216 11.2118 7.66781 11.3274 7.66783 11.4457C7.66614 11.5351 7.68955 11.6236 7.73636 11.7049C7.78318 11.7863 7.85223 11.8583 7.93854 11.916C8.13646 12.0322 8.36555 12.1109 8.60805 12.1459C8.85565 12.195 9.01346 12.2284 9.08344 12.2504C9.16406 12.2691 9.23741 12.3036 9.29671 12.3507C9.33789 12.3902 9.35969 12.4401 9.35812 12.4913C9.35715 12.535 9.34356 12.578 9.31839 12.6169C9.29321 12.6559 9.25711 12.6897 9.21286 12.7159C9.08733 12.787 8.93431 12.821 8.78038 12.8121C8.62525 12.8186 8.47242 12.7801 8.35055 12.7039C8.23234 12.6142 8.15738 12.4946 8.1386 12.3659L7.56152 12.4108C7.57994 12.6376 7.70754 12.8502 7.91807 13.0049C8.16357 13.1528 8.46856 13.2252 8.77642 13.2087C8.99463 13.2138 9.212 13.1851 9.41622 13.124C9.57949 13.0718 9.71801 12.9804 9.81238 12.8628C9.90424 12.7513 9.95311 12.6212 9.95302 12.4881C9.95834 12.3584 9.91762 12.23 9.83549 12.1177C9.75585 12.0162 9.64258 11.934 9.508 11.8799Z" fill="#74797B"/>
<path d="M12.2476 11.8799C12.043 11.8046 11.8281 11.7483 11.6071 11.7122C11.4144 11.6874 11.2292 11.6342 11.0611 11.5555C11.0339 11.5387 11.0119 11.5173 10.9967 11.4929C10.9815 11.4685 10.9735 11.4416 10.9733 11.4144C10.9723 11.3859 10.9805 11.3577 10.997 11.3324C11.0135 11.3071 11.0378 11.2855 11.0677 11.2696C11.1881 11.2086 11.3297 11.1792 11.4724 11.1855C11.6052 11.1781 11.7373 11.2056 11.8481 11.2639C11.9416 11.3307 12 11.4228 12.0119 11.522L12.6061 11.5016C12.6066 11.4045 12.5806 11.3084 12.5299 11.22C12.4792 11.1315 12.405 11.0527 12.3123 10.9891C12.0728 10.8477 11.777 10.7794 11.479 10.7968C11.2813 10.7928 11.0846 10.8203 10.9006 10.8778C10.7512 10.9254 10.6233 11.0075 10.5335 11.1134C10.4303 11.2378 10.3879 11.3878 10.4144 11.5352C10.4409 11.6825 10.5344 11.8172 10.6775 11.9139C10.8754 12.0302 11.1045 12.1088 11.347 12.1438C11.5946 12.1929 11.7524 12.2263 11.8224 12.2483C11.903 12.267 11.9763 12.3015 12.0357 12.3486C12.0768 12.3881 12.0986 12.438 12.0971 12.4892C12.0961 12.5329 12.0825 12.5759 12.0573 12.6148C12.0322 12.6538 11.9961 12.6876 11.9518 12.7138C11.8263 12.7849 11.6732 12.8189 11.5193 12.81C11.3642 12.8166 11.2113 12.7781 11.0895 12.7018C10.9711 12.6122 10.8961 12.4926 10.8775 12.3638L10.2998 12.4087C10.3186 12.6352 10.4461 12.8474 10.6564 13.0017C10.9019 13.1497 11.2068 13.2221 11.5147 13.2055C11.7327 13.2106 11.9498 13.1819 12.1538 13.1209C12.3172 13.0687 12.4557 12.9773 12.55 12.8596C12.6417 12.7482 12.6903 12.618 12.69 12.485C12.6955 12.3553 12.655 12.227 12.5731 12.1145C12.4933 12.0146 12.3808 11.9335 12.2476 11.8799Z" fill="#74797B"/>
</svg>
