<svg width="15" height="16" viewBox="0 0 15 16" fill="none" xmlns="http://www.w3.org/2000/svg">
<g clip-path="url(#clip0_1504_9583)">
<path d="M3.0522 1.26665C2.06079 1.26665 1.35064 1.60415 1.13618 2.76548C0.97212 3.65493 1.19946 4.95571 2.69946 5.1854C3.72954 5.40571 6.39907 5.4268 7.57212 5.55571C6.644 7.35454 7.46196 8.81821 7.97525 9.82837C8.23189 10.3323 8.55064 11.5018 8.35728 12.5143C8.29048 12.8624 8.00923 13.6299 8.6022 13.8877C8.82134 13.9827 8.99361 14.0073 9.17173 14.0073C9.31704 14.0073 9.46587 13.9909 9.64751 13.9838C9.84204 13.9756 9.98853 13.9534 10.1327 13.9534C10.2885 13.9534 10.442 13.9791 10.6506 14.0788C10.9213 14.2077 11.0936 14.3284 11.376 14.3788C11.4018 14.3834 11.4288 14.3858 11.4557 14.3858C11.7252 14.3858 12.0405 14.1842 12.0405 14.1842C12.0405 14.1842 12.1038 14.353 12.3159 14.4127C12.4249 14.4432 12.5221 14.4772 12.6241 14.4772C12.7096 14.4772 12.7987 14.4538 12.8995 14.3846C13.0471 14.2838 12.8995 14.1526 12.8995 14.1526C12.8995 14.1526 12.378 13.8514 12.2444 13.7741C11.9983 13.6334 11.3385 13.0674 10.7116 12.6584C10.2721 12.3713 10.0823 12.1452 9.90415 11.6928C9.66861 11.0916 10.2206 7.18462 10.0506 5.50883C10.1573 4.74946 10.3471 4.28071 9.97798 3.65844C9.87825 3.48997 9.72768 3.35745 9.5479 3.27993C7.60962 2.44673 4.5229 1.39555 3.71431 1.30649C3.48228 1.28188 3.26079 1.26665 3.0522 1.26665ZM3.0522 0.915085C3.26314 0.915085 3.49165 0.929147 3.75298 0.957272C4.66001 1.05688 7.82759 2.15727 9.68735 2.95649C9.93579 3.06313 10.1397 3.2436 10.2803 3.47798C10.6483 4.09673 10.5616 4.59594 10.462 5.17368C10.4432 5.28383 10.4233 5.39751 10.4057 5.51704C10.4877 6.39594 10.3893 7.80923 10.3026 9.05962C10.2358 10.017 10.1456 11.3295 10.2323 11.5651C10.3823 11.9459 10.5264 12.1182 10.9038 12.3655C11.2588 12.5975 11.6221 12.8764 11.9139 13.1002C12.1272 13.2643 12.3276 13.4178 12.4178 13.4694C12.5526 13.5467 13.0752 13.8491 13.0752 13.8491C13.0952 13.8608 13.1151 13.8749 13.1327 13.8901C13.1795 13.9311 13.3295 14.0846 13.3155 14.3096C13.3061 14.4561 13.2288 14.5862 13.0963 14.6752C12.944 14.7784 12.7893 14.8288 12.6229 14.8288C12.4858 14.8288 12.3674 14.7948 12.2631 14.7643L12.2186 14.7514C12.1167 14.7221 12.0288 14.6764 11.9561 14.6225C11.8143 14.6823 11.6338 14.7385 11.4534 14.7385C11.4053 14.7385 11.3573 14.735 11.3116 14.7268C11.0479 14.6799 10.8581 14.5827 10.6752 14.4877C10.619 14.4584 10.5616 14.4291 10.4971 14.3975C10.3377 14.3213 10.2358 14.3061 10.1303 14.3061C10.067 14.3061 9.99673 14.312 9.9147 14.319C9.8397 14.3249 9.7565 14.3319 9.6604 14.3366C9.59009 14.3389 9.52446 14.3436 9.46235 14.3483C9.36275 14.3553 9.26782 14.3612 9.17056 14.3612C8.91626 14.3612 8.69712 14.3155 8.4604 14.2124C7.67759 13.8713 7.88853 12.9772 7.97876 12.5952C7.99165 12.5413 8.00337 12.492 8.01157 12.4499C8.18032 11.5616 7.90845 10.4764 7.66118 9.99009L7.60493 9.87876C7.12212 8.93423 6.41314 7.5479 7.05064 5.86508C6.65103 5.83696 6.16821 5.81235 5.66548 5.78774C4.49829 5.73032 3.29009 5.67173 2.63618 5.53344C1.98462 5.43149 1.4854 5.14321 1.15376 4.67798C0.632277 3.94438 0.726027 3.05376 0.790481 2.70454C1.01196 1.49985 1.75142 0.915085 3.0522 0.915085Z" fill="#E2E4E5"/>
<path d="M8.1138 5.90141C8.19935 6.16977 8.27669 6.42641 8.34232 6.68305C8.4056 6.93969 8.46185 7.19282 8.4888 7.44946C8.5263 7.70493 8.54271 7.96157 8.54388 8.22172C8.55208 8.4854 8.52513 8.74555 8.52279 9.03032V9.03383C8.52279 9.03969 8.52747 9.04555 8.53568 9.04555C8.54036 9.04555 8.54622 9.04204 8.5474 9.03735C8.63763 8.77602 8.71615 8.51235 8.7431 8.24047C8.78177 7.96977 8.77474 7.69555 8.7431 7.42368C8.70677 7.15297 8.63529 6.88461 8.5345 6.62797C8.43372 6.37016 8.30365 6.12055 8.13607 5.88969C8.13523 5.88837 8.13415 5.88723 8.13286 5.88633C8.13158 5.88543 8.13013 5.8848 8.12861 5.88448C8.12708 5.88415 8.1255 5.88413 8.12396 5.88442C8.12243 5.88471 8.12096 5.88531 8.11966 5.88618C8.11497 5.88852 8.1138 5.89438 8.11497 5.89907L8.1138 5.90141Z" fill="#455A64"/>
<path d="M8.82987 12.2717C8.78182 12.3807 8.72674 12.587 8.83104 12.792C8.99862 13.0393 9.20956 13.0733 9.31854 13.0698C9.35135 13.0686 9.36893 13.0346 9.34901 13.01C9.28924 12.9385 9.17791 12.7956 9.08416 12.6338C8.99979 12.4885 8.93885 12.3526 8.90604 12.2706C8.89081 12.2389 8.84276 12.2401 8.82987 12.2717Z" fill="#E2E4E5"/>
<path d="M9.25859 4.99906C9.08281 4.83852 8.93164 4.51742 8.89883 4.41899C8.86719 4.32055 8.7793 3.93852 8.80039 3.73227L8.80273 3.72172C8.80391 3.71469 8.79922 3.70766 8.79102 3.70766C8.7875 3.70649 8.78398 3.70766 8.78164 3.71C8.65273 3.79789 8.58594 3.94086 8.56484 4.07914C8.54141 4.21977 8.55547 4.36391 8.59648 4.49985C8.64102 4.63461 8.71836 4.76469 8.83203 4.86547C8.94336 4.96742 9.10039 5.02836 9.25742 5.02953C9.26445 5.02953 9.27148 5.02367 9.27148 5.01664C9.27148 5.01313 9.26914 5.00844 9.2668 5.0061L9.25859 4.99906Z" fill="#E2E4E5"/>
</g>
<defs>
<clipPath id="clip0_1504_9583">
<rect width="15" height="15" fill="white" transform="matrix(-1 0 0 1 15 0.30806)"/>
</clipPath>
</defs>
</svg>
