<svg width="15" height="16" viewBox="0 0 15 16" fill="none" xmlns="http://www.w3.org/2000/svg">
<g clip-path="url(#clip0_1504_9532)">
<path d="M4.03074 3.6243C4.18798 3.6243 4.31613 3.75049 4.31851 3.90773L4.39986 9.29904C4.64878 9.22821 5.04384 9.19946 5.52158 9.19946C6.24325 9.19946 7.15338 9.2651 8.03266 9.3506C8.1162 9.35874 8.19975 9.36274 8.28296 9.36274C8.8582 9.36274 9.41911 9.17052 9.87548 8.81216C10.1926 8.56314 11.1376 7.8083 11.1376 7.8083C11.2013 7.75765 11.2774 7.73304 11.3529 7.73304C11.4548 7.73304 11.5557 7.77778 11.624 7.86371C11.7431 8.01332 11.7182 8.23106 11.5686 8.35007L11.1677 8.68448C11.1291 8.71666 11.1152 8.76974 11.1331 8.81668C11.1505 8.86238 11.1943 8.89242 11.243 8.89242C11.2443 8.89242 11.2456 8.89242 11.2469 8.89237L13.4857 8.81844C13.4862 8.81844 13.4868 8.81844 13.4873 8.81844C13.6777 8.81844 13.8324 8.93002 13.833 9.12063C13.8335 9.24506 13.768 9.31128 13.6696 9.37264L13.9387 9.37169C13.9391 9.37169 13.9395 9.37169 13.9399 9.37169C14.1306 9.37169 14.2854 9.52587 14.2861 9.71662C14.2867 9.9078 14.1323 10.0633 13.9411 10.064L13.6113 10.0651C13.7101 10.1258 13.7763 10.2344 13.7768 10.3588C13.7774 10.55 13.623 10.7055 13.4318 10.7062L12.8574 10.7081C12.9562 10.7688 13.0224 10.8346 13.0229 10.959C13.0235 11.1502 12.8691 11.2201 12.6779 11.2208C12.628 11.221 12.5248 11.2234 12.375 11.2234C11.9524 11.2234 11.1594 11.2043 10.1515 11.0625C9.9684 11.0367 9.78513 11.0238 9.6021 11.0238C9.3359 11.0238 9.07027 11.0512 8.80702 11.1064C7.37469 11.4066 5.66221 11.7646 4.15199 11.9742C4.06616 11.9861 3.98081 11.9919 3.89641 11.9919C3.03345 11.9919 2.2688 11.3862 2.08772 10.5189L0.720361 3.9709C0.702652 3.88607 0.724074 3.79781 0.778722 3.73055C0.833371 3.66329 0.915391 3.62425 1.00208 3.62425L4.03074 3.6243ZM1.58027 4.9371C1.75754 4.9371 1.90126 4.79339 1.90126 4.61611C1.90126 4.43884 1.75754 4.29512 1.58027 4.29512C1.40299 4.29512 1.25928 4.43884 1.25928 4.61611C1.25928 4.79339 1.40299 4.9371 1.58027 4.9371ZM2.14979 7.86847C2.16941 7.86847 2.18926 7.86666 2.2092 7.86295C2.38343 7.83034 2.4983 7.66268 2.46569 7.48845L2.07249 5.38624C2.04364 5.23191 1.90849 5.12423 1.75711 5.12428C1.7376 5.12428 1.71779 5.12609 1.69794 5.12975C1.52371 5.16236 1.40885 5.33002 1.44146 5.50425L1.83466 7.60646C1.86351 7.76079 1.99832 7.86847 2.14979 7.86847ZM4.03074 2.91025H1.00208C0.699082 2.91025 0.415747 3.04511 0.224619 3.28022C0.0335397 3.51533 -0.0405787 3.82028 0.0214008 4.1169L1.38862 10.6649C1.50929 11.2428 1.82852 11.7653 2.28756 12.1361C2.74245 12.5036 3.31379 12.706 3.89626 12.706C4.01394 12.706 4.13295 12.6977 4.25005 12.6815C5.79949 12.4665 7.5483 12.0999 8.95345 11.8053C9.16676 11.7606 9.38498 11.7379 9.602 11.7379C9.75085 11.7379 9.90223 11.7486 10.0519 11.7697C10.8323 11.8795 11.6356 11.9375 12.3749 11.9375C12.4796 11.9375 12.5641 11.9364 12.6201 11.9356C12.6452 11.9353 12.6654 11.935 12.6802 11.9349C12.9257 11.9341 13.14 11.874 13.3173 11.7562C13.4553 11.6645 13.5629 11.5425 13.6346 11.4006C14.0282 11.3235 14.3442 11.028 14.4514 10.6464C14.7794 10.4649 15.0014 10.1148 15 9.71429C14.9987 9.33841 14.8003 9.00781 14.5033 8.82049C14.3755 8.39706 13.9806 8.10453 13.4873 8.10453C13.4859 8.10453 13.4827 8.10453 13.4813 8.10453C13.4749 8.10458 13.4685 8.10468 13.4621 8.10491L12.4116 8.13962C12.4268 7.87894 12.3466 7.62517 12.1828 7.41924C11.9806 7.16499 11.6781 7.01908 11.3529 7.01908C11.1144 7.01908 10.8801 7.10091 10.6932 7.24953C10.6825 7.258 9.74562 8.00628 9.43448 8.25063C9.10754 8.5074 8.69858 8.64878 8.28296 8.64878C8.22274 8.64878 8.16176 8.64583 8.10173 8.63998C7.04737 8.53744 6.17927 8.48546 5.52154 8.48546C5.37059 8.48546 5.23101 8.48807 5.10177 8.49336L5.03241 3.89702C5.02427 3.35291 4.5749 2.91025 4.03074 2.91025Z" fill="#E2E4E5"/>
</g>
<defs>
<clipPath id="clip0_1504_9532">
<rect width="15" height="15" fill="white" transform="translate(0 0.30806)"/>
</clipPath>
</defs>
</svg>
