<svg width="15" height="16" viewBox="0 0 15 16" fill="none" xmlns="http://www.w3.org/2000/svg">
<path d="M0 0.740054C0.530671 1.75668 1.12211 2.74261 1.76982 3.69862C2.03246 4.3954 1.8826 5.17512 0.58427 6.11819C5.2892 4.84247 3.92023 7.91003 0.231346 10.12C6.49533 7.76749 8.052 8.31177 4.02436 13.0936C7.19096 10.7641 9.68255 11.3939 8.6552 14.2867C9.8477 13.3521 10.8375 13.1528 11.5958 13.491C12.6864 14.2718 13.8225 15.0214 15 15.74C14.3574 14.4629 13.6791 13.2305 12.9521 12.0525C12.3859 10.8202 12.2486 9.54018 12.7173 8.44071C10.9391 10.6687 9.84808 8.60875 12.5631 5.74312C8.73176 8.13463 6.99364 6.9436 12.0344 2.37673C8.15454 4.46176 5.15703 5.01672 7.10031 2.95646C5.69844 3.36197 4.90651 3.15509 4.23475 2.86357C2.94012 2.0444 1.53487 1.33167 0 0.73999V0.740054ZM1.55254 2.00582C2.45114 2.68912 3.32609 3.39808 4.17964 4.13183L5.32672 3.82994L4.63425 4.52675C5.12263 4.95566 5.60371 5.39325 6.07809 5.83903L8.32921 4.87323L7.74103 5.79331L7.75042 5.7857C7.07515 6.65886 8.33823 8.51329 9.19129 8.27211L10.191 7.71093L9.41452 8.86924L10.5697 10.5404C10.5779 10.5499 10.5862 10.5594 10.5944 10.569C11.0217 10.9654 11.5727 10.6232 11.943 10.1084L11.3293 11.4396C12.0002 12.2479 12.6569 13.0773 13.3 13.9282C12.5747 13.407 11.8708 12.8687 11.1865 12.3149C10.5606 11.9372 10.2002 12.3242 9.80012 12.8493C10.0756 12.2731 10.2192 11.6778 9.90161 11.2366C9.855 11.196 9.80832 11.1556 9.7619 11.1149L8.35672 9.99423L6.86125 10.8338L7.39966 10.0305C7.62866 9.63727 7.50711 9.16892 7.22273 8.72603C6.88096 8.38108 6.5446 8.03181 6.21351 7.6784C6.16151 7.6395 6.10976 7.60294 6.05823 7.56765L3.9769 8.16571L4.65881 7.34898C4.98981 6.79046 4.65881 6.03037 4.35031 5.58301C4.17513 5.37572 4.00196 5.16672 3.82976 4.95705L2.46185 5.18796C3.03914 4.95651 3.44457 4.47853 2.98952 3.91849L2.91847 3.83726C2.94447 3.86453 2.96765 3.89154 2.98952 3.91849L3.05411 3.99239C2.54086 3.34041 2.04033 2.67819 1.55254 2.00582Z" fill="#74797B"/>
</svg>
