<svg width="50" height="50" viewBox="0 0 50 50" fill="none" xmlns="http://www.w3.org/2000/svg">
<circle cx="25" cy="25" r="19.5" fill="#FD5B68" stroke="#FD5B68"/>
<circle cx="25" cy="25" r="24.5" stroke="#FD5B68"/>
<path d="M10.6088 27.3247L12.7182 27.1196C12.8451 27.8276 13.1015 28.3477 13.4872 28.6797C13.8778 29.0117 14.4027 29.1777 15.0619 29.1777C15.7602 29.1777 16.2851 29.0312 16.6366 28.7383C16.9931 28.4404 17.1713 28.0938 17.1713 27.6982C17.1713 27.4443 17.0956 27.2295 16.9442 27.0537C16.7978 26.873 16.539 26.7168 16.1679 26.585C15.914 26.4971 15.3354 26.3408 14.432 26.1162C13.2699 25.8281 12.4545 25.4741 11.9858 25.0542C11.3266 24.4634 10.997 23.7432 10.997 22.8936C10.997 22.3467 11.1508 21.8364 11.4584 21.3628C11.7709 20.8843 12.2177 20.5205 12.7987 20.2715C13.3847 20.0225 14.0902 19.8979 14.9154 19.8979C16.2631 19.8979 17.2763 20.1934 17.955 20.7842C18.6386 21.375 18.9975 22.1636 19.0316 23.1499L16.8637 23.2451C16.7709 22.6934 16.5707 22.2979 16.2631 22.0586C15.9604 21.8145 15.5038 21.6924 14.8935 21.6924C14.2636 21.6924 13.7704 21.8218 13.414 22.0806C13.1845 22.2466 13.0697 22.4688 13.0697 22.7471C13.0697 23.001 13.1772 23.2183 13.392 23.3989C13.6654 23.6284 14.3295 23.8677 15.3842 24.1167C16.4389 24.3657 17.2177 24.6245 17.7206 24.8931C18.2284 25.1567 18.6239 25.5205 18.9071 25.9844C19.1952 26.4434 19.3393 27.0122 19.3393 27.6909C19.3393 28.3062 19.1684 28.8823 18.8266 29.4194C18.4848 29.9565 18.0014 30.3569 17.3764 30.6206C16.7514 30.8794 15.9726 31.0088 15.04 31.0088C13.6825 31.0088 12.64 30.6963 11.9125 30.0713C11.185 29.4414 10.7504 28.5259 10.6088 27.3247ZM20.7235 25.5156C20.7235 24.4219 20.8871 23.5039 21.2143 22.7617C21.4584 22.2148 21.7904 21.7241 22.2104 21.2896C22.6352 20.855 23.099 20.5327 23.602 20.3228C24.2709 20.0396 25.0424 19.8979 25.9164 19.8979C27.4984 19.8979 28.7631 20.3887 29.7104 21.3701C30.6625 22.3516 31.1386 23.7163 31.1386 25.4644C31.1386 27.1978 30.6674 28.5552 29.725 29.5366C28.7826 30.5132 27.5229 31.0015 25.9457 31.0015C24.349 31.0015 23.0795 30.5156 22.1371 29.5439C21.1947 28.5674 20.7235 27.2246 20.7235 25.5156ZM22.9574 25.4424C22.9574 26.6582 23.2382 27.5811 23.7997 28.2109C24.3612 28.8359 25.0741 29.1484 25.9384 29.1484C26.8026 29.1484 27.5107 28.8384 28.0624 28.2183C28.6191 27.5933 28.8974 26.6582 28.8974 25.4131C28.8974 24.1826 28.6264 23.2646 28.0844 22.6592C27.5473 22.0537 26.8319 21.751 25.9384 21.751C25.0448 21.751 24.3246 22.0586 23.7777 22.6738C23.2309 23.2842 22.9574 24.207 22.9574 25.4424ZM32.2885 27.3247L34.3979 27.1196C34.5248 27.8276 34.7812 28.3477 35.1669 28.6797C35.5575 29.0117 36.0824 29.1777 36.7416 29.1777C37.4399 29.1777 37.9648 29.0312 38.3163 28.7383C38.6728 28.4404 38.851 28.0938 38.851 27.6982C38.851 27.4443 38.7753 27.2295 38.6239 27.0537C38.4775 26.873 38.2187 26.7168 37.8476 26.585C37.5937 26.4971 37.015 26.3408 36.1117 26.1162C34.9496 25.8281 34.1342 25.4741 33.6654 25.0542C33.0063 24.4634 32.6767 23.7432 32.6767 22.8936C32.6767 22.3467 32.8305 21.8364 33.1381 21.3628C33.4506 20.8843 33.8974 20.5205 34.4784 20.2715C35.0644 20.0225 35.7699 19.8979 36.5951 19.8979C37.9428 19.8979 38.956 20.1934 39.6347 20.7842C40.3183 21.375 40.6772 22.1636 40.7113 23.1499L38.5434 23.2451C38.4506 22.6934 38.2504 22.2979 37.9428 22.0586C37.64 21.8145 37.1835 21.6924 36.5732 21.6924C35.9433 21.6924 35.4501 21.8218 35.0937 22.0806C34.8642 22.2466 34.7494 22.4688 34.7494 22.7471C34.7494 23.001 34.8568 23.2183 35.0717 23.3989C35.3451 23.6284 36.0092 23.8677 37.0639 24.1167C38.1186 24.3657 38.8974 24.6245 39.4003 24.8931C39.9081 25.1567 40.3036 25.5205 40.5868 25.9844C40.8749 26.4434 41.019 27.0122 41.019 27.6909C41.019 28.3062 40.8481 28.8823 40.5063 29.4194C40.1645 29.9565 39.6811 30.3569 39.0561 30.6206C38.4311 30.8794 37.6523 31.0088 36.7196 31.0088C35.3622 31.0088 34.3197 30.6963 33.5922 30.0713C32.8647 29.4414 32.4301 28.5259 32.2885 27.3247Z" fill="#E0E0E0"/>
</svg>
