<svg width="15" height="16" viewBox="0 0 15 16" fill="none" xmlns="http://www.w3.org/2000/svg">
<g clip-path="url(#clip0_1504_9762)">
<path d="M15 0.811905H0V15.8119H15V0.811905Z" fill="white" fill-opacity="0.01"/>
<path d="M2.46779 2.37437C3.35461 3.31791 3.79802 4.54338 3.79802 6.05079C3.79802 8.31188 1.87411 10.0426 1.55208 11.2806C1.33739 12.106 1.23641 13.0956 1.24911 14.2494" stroke="#E2E4E5" stroke-width="0.6" stroke-linecap="round"/>
<path d="M12.2678 2.37437C11.3809 3.31791 10.9375 4.54338 10.9375 6.05079C10.9375 8.31188 12.8614 10.0426 13.1835 11.2806C13.3982 12.106 13.4991 13.0956 13.4864 14.2494" stroke="#E2E4E5" stroke-width="0.6" stroke-linecap="round"/>
<path d="M1.95117 10.4484C3.99028 11.739 5.84203 12.3843 7.50647 12.3843C9.17088 12.3843 10.9311 11.739 12.7871 10.4484" stroke="#E2E4E5" stroke-width="0.6" stroke-linecap="round"/>
<path d="M7.5 10.4994C7.93147 10.4994 8.28125 10.1496 8.28125 9.71812C8.28125 9.28666 7.93147 8.93687 7.5 8.93687C7.06853 8.93687 6.71875 9.28666 6.71875 9.71812C6.71875 10.1496 7.06853 10.4994 7.5 10.4994Z" fill="#E2E4E5"/>
</g>
<defs>
<clipPath id="clip0_1504_9762">
<rect width="15" height="15" fill="white" transform="translate(0 0.811905)"/>
</clipPath>
</defs>
</svg>
