<svg width="15" height="12" viewBox="0 0 15 12" fill="none" xmlns="http://www.w3.org/2000/svg">
<path d="M14.9618 5.70926L13.2287 3.97615C13.2767 3.83764 13.3684 3.53808 13.4057 3.18035C13.4677 2.58485 13.3478 2.08942 13.0596 1.73617C13.0878 1.67223 13.103 1.60405 13.1052 1.53538L13.5151 1.43213L13.5493 1.63527C13.5601 1.69898 13.6153 1.74406 13.6778 1.74406C13.685 1.74406 13.6924 1.74344 13.6997 1.7422L14.6279 1.58552C14.699 1.57352 14.7468 1.50619 14.7348 1.43514L14.6264 0.792525C14.6206 0.758403 14.6015 0.727968 14.5733 0.707905C14.5451 0.687876 14.5101 0.679883 14.476 0.68556L13.5478 0.842241C13.5137 0.848015 13.4832 0.867098 13.4632 0.895283C13.4431 0.923468 13.4351 0.958503 13.4408 0.992625L13.4714 1.17394L13.0506 1.27992C13.0067 1.19002 12.9378 1.10935 12.8389 1.05144C12.6541 0.943269 12.4177 0.954002 12.2456 1.08139C12.0919 1.19517 12.0193 1.36813 12.0259 1.53858L11.7314 1.61279L11.7952 1.86587L12.0986 1.7894C12.1215 1.82888 12.1493 1.86626 12.183 1.90006C12.228 1.94501 12.2791 1.97975 12.3335 2.00555C12.4308 2.21844 12.3301 2.64405 12.2121 2.95957L10.4731 1.22058C10.4487 1.19612 10.4155 1.18235 10.3809 1.18235C10.3462 1.18235 10.3131 1.19612 10.2886 1.22058L6.33599 5.17326L5.82236 4.65964C5.79789 4.63517 5.76469 4.6214 5.73007 4.6214C5.69546 4.6214 5.66229 4.63517 5.63779 4.65964L5.49112 4.8063L5.3514 4.66655L5.78821 4.22975C5.83916 4.1788 5.83916 4.0962 5.78821 4.04524L5.37006 3.6271C5.31911 3.57615 5.23648 3.57615 5.18552 3.6271L4.12735 4.68528C4.07639 4.73623 4.07639 4.81886 4.12735 4.86978L4.54549 5.28793C4.57097 5.3134 4.60437 5.32616 4.63778 5.32616C4.67118 5.32616 4.70455 5.3134 4.73006 5.28793L5.16686 4.85112L5.30658 4.99088L5.15992 5.13754C5.10896 5.1885 5.10896 5.27109 5.15992 5.32205L5.40037 5.5625L4.60914 6.35377L4.51375 6.25838C4.48743 6.23206 4.45108 6.21787 4.41399 6.22038L3.87081 6.25156C3.83884 6.25339 3.80867 6.26693 3.78603 6.28957L1.58438 8.49119C1.56174 8.5138 1.54823 8.544 1.54637 8.57597L1.51522 9.11915C1.5131 9.15631 1.52693 9.19258 1.55322 9.21891L1.66577 9.33145L1.04436 9.95289C1.00818 9.98907 0.993503 10.0431 1.01118 10.0911C1.05542 10.2111 1.02577 10.3469 0.935861 10.4369C0.848142 10.5246 0.720005 10.555 0.601589 10.5163C0.541696 10.4967 0.476453 10.5227 0.446376 10.578L0.145247 11.1325C0.117649 11.1833 0.126783 11.2462 0.167658 11.287L0.246145 11.3655L0.038216 11.5735C-0.0127387 11.6244 -0.0127387 11.707 0.038216 11.758C0.0891708 11.809 0.171768 11.809 0.222723 11.758L0.430652 11.5501L0.543196 11.6626C0.568674 11.6881 0.602078 11.7008 0.635482 11.7008C0.668887 11.7008 0.702259 11.6881 0.727769 11.6626L2.36233 10.0281L2.47373 10.1395C2.49934 10.1651 2.53428 10.1797 2.57049 10.1788L2.5746 10.1786L3.11778 10.1474C3.14975 10.1456 3.17992 10.132 3.20256 10.1094L5.40422 7.90776C5.42686 7.88515 5.44036 7.85494 5.44222 7.82297L5.47341 7.27979C5.47553 7.24264 5.4617 7.20636 5.4354 7.18004L5.34002 7.08465L6.13125 6.29338L6.37171 6.53384C6.39617 6.5583 6.42938 6.57207 6.46399 6.57207C6.4986 6.57207 6.53178 6.5583 6.55628 6.53384L7.03415 6.05597C7.0851 6.00501 7.0851 5.92241 7.03415 5.87146L6.52052 5.35783L6.57494 5.30342L10.9713 9.69981C10.9958 9.72428 11.029 9.73805 11.0636 9.73805C11.0982 9.73805 11.1314 9.72428 11.1559 9.69981L14.9618 5.89384C15.0127 5.84285 15.0127 5.76022 14.9618 5.70926ZM14.3908 0.964669L14.4558 1.34996L13.7849 1.46319L13.7199 1.0779L14.3908 0.964669ZM4.63781 5.01113L4.40417 4.77753L5.27781 3.90393L5.51145 4.13753L4.63781 5.01113ZM0.635482 11.3858L0.421094 11.1714L0.628795 10.7889C0.808148 10.8123 0.989262 10.7525 1.12037 10.6214C1.26097 10.4807 1.31962 10.278 1.28028 10.086L1.85021 9.51606L2.17769 9.84351L0.635482 11.3858ZM5.18451 7.75835L3.05319 9.8897L2.61802 9.91469L1.77913 9.07577L1.80408 8.6406L3.93544 6.50927L4.37057 6.48429L5.20947 7.32318L5.18451 7.75835ZM5.15548 6.90008L4.79371 6.53831L5.58494 5.74704L5.94671 6.10881L5.15548 6.90008ZM6.46399 6.25701L5.43677 5.22979L5.73014 4.93646L6.75736 5.96368L6.46399 6.25701ZM12.3676 1.31985C12.4221 1.26531 12.4938 1.23804 12.5654 1.23804C12.6371 1.23804 12.7088 1.26531 12.7633 1.31985C12.8724 1.42897 12.8724 1.6065 12.7633 1.71562C12.6542 1.8247 12.4766 1.8247 12.3676 1.71562C12.2585 1.6065 12.2585 1.42894 12.3676 1.31985ZM12.5598 2.72577C12.6314 2.45619 12.651 2.23201 12.6191 2.05553C12.7168 2.04587 12.812 2.00937 12.8937 1.94684C13.3187 2.52384 13.134 3.38704 13.0207 3.76822L12.4128 3.16026C12.4507 3.06768 12.5114 2.90793 12.5598 2.72577ZM13.2684 5.78452L11.0465 8.00644L9.81441 6.77439L12.0363 4.55247L13.2684 5.78452ZM10.5172 7.84623L10.3775 7.98592L9.83496 7.44339L9.97465 7.3037L10.5172 7.84623ZM10.7017 8.03074L10.9542 8.28323C10.9786 8.3077 11.0118 8.32146 11.0465 8.32146C11.0811 8.32146 11.1142 8.3077 11.1387 8.28323L13.5452 5.87674C13.5962 5.82579 13.5962 5.74316 13.5452 5.69224L13.2927 5.43975L13.4324 5.30006L13.8485 5.71621L10.9781 8.58658L10.562 8.17042L10.7017 8.03074ZM13.1082 5.25524L12.5656 4.71271L12.7054 4.57303L13.2479 5.11555L13.1082 5.25524ZM12.3811 4.52817L12.1286 4.27568C12.1041 4.25122 12.0709 4.23745 12.0363 4.23745C12.0017 4.23745 11.9685 4.25122 11.944 4.27568L9.53759 6.68217C9.48663 6.73312 9.48663 6.81575 9.53759 6.86667L9.79008 7.11916L9.65039 7.25885L8.70166 6.31012L8.84135 6.17043L9.09384 6.42292C9.1183 6.44739 9.15151 6.46116 9.18612 6.46116C9.22073 6.46116 9.25391 6.44739 9.27841 6.42292L11.6849 4.01644C11.7094 3.99197 11.7231 3.95876 11.7231 3.92419C11.7231 3.88961 11.7094 3.8564 11.6849 3.83193L11.4324 3.57944L11.5721 3.43976L12.5208 4.38849L12.3811 4.52817ZM11.4081 3.92419L9.18612 6.1461L7.95407 4.91405L10.176 2.69217L11.4081 3.92419ZM8.65684 5.98593L8.51715 6.12561L7.97463 5.58308L8.11431 5.4434L8.65684 5.98593ZM11.2478 3.3949L10.7053 2.85241L10.845 2.71269L11.3875 3.25522L11.2478 3.3949ZM10.5208 2.66787L10.2683 2.41538C10.2173 2.36439 10.1347 2.36442 10.0838 2.41538L7.67731 4.82183C7.62636 4.87279 7.62636 4.95542 7.67731 5.00634L7.9298 5.25883L7.79012 5.39851L7.13495 4.74334L10.0053 1.87295L10.6605 2.52812L10.5208 2.66787ZM11.0636 9.42296L6.75944 5.11888L6.95041 4.92792L10.8859 8.8634C10.9103 8.88787 10.9435 8.90163 10.9781 8.90163C11.0128 8.90163 11.0459 8.88787 11.0704 8.8634L14.1253 5.8085C14.1763 5.75754 14.1763 5.67491 14.1253 5.62399L10.1899 1.68847L10.3809 1.49744L14.685 5.80152L11.0636 9.42296Z" fill="#74797B"/>
</svg>
