<svg width="30" height="32" viewBox="0 0 30 32" fill="none" xmlns="http://www.w3.org/2000/svg">
<path d="M16.667 3.6315H9.66699C6.86673 3.6315 5.46659 3.6315 4.39704 4.17647C3.45623 4.65583 2.69133 5.42073 2.21196 6.36155C1.66699 7.4311 1.66699 8.83123 1.66699 11.6315V22.2982C1.66699 25.0985 1.66699 26.4985 2.21196 27.5682C2.69133 28.509 3.45623 29.2738 4.39704 29.7532C5.46659 30.2982 6.86673 30.2982 9.66699 30.2982H20.3337C23.134 30.2982 24.534 30.2982 25.6037 29.7532C26.5445 29.2738 27.3093 28.509 27.7887 27.5682C28.3337 26.4985 28.3337 25.0985 28.3337 22.2982V15.2982" stroke="#666666" stroke-width="2" stroke-linecap="round" stroke-linejoin="round"/>
<path d="M1.66699 23.6314L8.82181 16.4766C9.47269 15.8258 10.528 15.8258 11.1788 16.4766L16.667 21.9648M16.667 21.9648L21.3218 17.3099C21.9727 16.6591 23.028 16.6591 23.6788 17.3099L28.3337 21.9648M16.667 21.9648L20.417 25.7148" stroke="#666666" stroke-width="2" stroke-linecap="round" stroke-linejoin="round"/>
<path d="M25.0003 10.2983V1.96494M25.0003 1.96494L21.667 5.29827M25.0003 1.96494L28.3337 5.29827" stroke="#666666" stroke-width="2" stroke-linecap="round" stroke-linejoin="round"/>
</svg>
