<svg width="11" height="22" viewBox="0 0 11 22" fill="none" xmlns="http://www.w3.org/2000/svg">
<path d="M5.09795 0.6203C5.92587 0.6203 6.59993 1.17878 6.59993 1.86474C6.59993 2.55069 5.92587 3.10917 5.09795 3.10917C4.27003 3.10917 3.59598 2.55069 3.59598 1.86474C3.59598 1.17878 4.27003 0.6203 5.09795 0.6203ZM6.98825 3.4309H3.23697C2.19657 3.4309 1.36133 4.12293 1.36133 4.98493V8.78502C1.36133 9.08247 1.64707 9.33135 2.02073 9.33135C2.39439 9.33135 2.68014 9.09461 2.68014 8.78502V5.29452C2.68014 5.20954 2.76806 5.13669 2.87063 5.13669C2.97321 5.13669 3.06113 5.20954 3.06113 5.29452V14.7158C3.06113 15.1832 3.47875 15.5657 3.99895 15.5657C4.51914 15.5657 4.93677 15.1832 4.93677 14.7158V9.3435C4.93677 9.25851 5.02469 9.18566 5.12726 9.18566C5.22983 9.18566 5.31775 9.25851 5.31775 9.3435V14.7158C5.31775 15.1832 5.73538 15.5657 6.25557 15.5657C6.77577 15.5657 7.19339 15.1832 7.19339 14.7158V5.29452C7.19339 5.20954 7.28131 5.13669 7.38389 5.13669C7.48646 5.13669 7.57438 5.20954 7.57438 5.29452V8.79109C7.57438 9.08854 7.86013 9.33742 8.23379 9.33742C8.60745 9.33742 8.89319 9.10068 8.89319 8.79109V4.98493C8.86388 4.12293 8.00666 3.4309 6.98825 3.4309Z" fill="#74797B"/>
<path d="M0.50045 19.4027H9.75586M0.50045 19.4027L2.35153 17.5657M0.50045 19.4027L2.35153 21.2396M9.75586 19.4027L7.90478 17.5657M9.75586 19.4027L7.90478 21.2396" stroke="#74797B" stroke-width="0.8" stroke-linecap="round" stroke-linejoin="round"/>
</svg>
