<svg width="16" height="17" viewBox="0 0 16 17" fill="none" xmlns="http://www.w3.org/2000/svg">
<path d="M8.46498 0.053772C9.45428 0.053772 10.2597 0.46482 10.2597 0.969694C10.2597 1.47457 9.45428 1.88562 8.46498 1.88562C7.47568 1.88562 6.67023 1.47457 6.67023 0.969694C6.67023 0.46482 7.47568 0.053772 8.46498 0.053772ZM10.7237 2.12242H6.24125C4.99805 2.12242 4 2.63176 4 3.2662V6.06311C4 6.28204 4.34144 6.46523 4.78794 6.46523C5.23444 6.46523 5.57588 6.29098 5.57588 6.06311V3.49406C5.57588 3.43151 5.68093 3.3779 5.8035 3.3779C5.92607 3.3779 6.03113 3.43151 6.03113 3.49406V10.4283C6.03113 10.7723 6.53016 11.0538 7.15175 11.0538C7.77335 11.0538 8.27237 10.7723 8.27237 10.4283V6.47416C8.27237 6.41161 8.37743 6.358 8.5 6.358C8.62257 6.358 8.72763 6.41161 8.72763 6.47416V10.4283C8.72763 10.7723 9.22665 11.0538 9.84825 11.0538C10.4698 11.0538 10.9689 10.7723 10.9689 10.4283V3.49406C10.9689 3.43151 11.0739 3.3779 11.1965 3.3779C11.3191 3.3779 11.4241 3.43151 11.4241 3.49406V6.06758C11.4241 6.28651 11.7656 6.46969 12.2121 6.46969C12.6586 6.46969 13 6.29545 13 6.06758V3.2662C12.965 2.63176 11.9407 2.12242 10.7237 2.12242Z" fill="#74797B"/>
<path d="M0.5 14.4698H15.5M0.5 14.4698L3.5 13.1335M0.5 14.4698L3.5 15.8062M15.5 14.4698L12.5 13.1335M15.5 14.4698L12.5 15.8062" stroke="#74797B" stroke-width="0.8" stroke-linecap="round" stroke-linejoin="round"/>
</svg>
