<svg width="12" height="13" viewBox="0 0 12 13" fill="none" xmlns="http://www.w3.org/2000/svg">
<path d="M5.1601 2.71009C5.82022 2.71009 6.35535 2.21535 6.35535 1.60505C6.35535 0.994746 5.82022 0.5 5.1601 0.5C4.49998 0.5 3.96484 0.994746 3.96484 1.60505C3.96484 2.21535 4.49998 2.71009 5.1601 2.71009Z" fill="#74797B"/>
<path fill-rule="evenodd" clip-rule="evenodd" d="M10.0615 11.7315C9.80561 11.7315 9.55532 11.6136 9.40451 11.3995L8.38414 9.51319H4.76148C4.32429 9.51319 3.96973 9.17739 3.96973 8.76272V4.30422C3.96973 3.8888 4.32429 3.5545 4.76148 3.5545C5.19707 3.5545 5.55243 3.8888 5.55243 4.30422V8.013H8.80609C9.07 8.013 9.31627 8.13695 9.46147 8.34504L10.331 10.0165L10.8557 9.81518C11.2471 9.63038 11.722 9.78137 11.9169 10.1525C12.1111 10.5228 11.9522 10.9736 11.5608 11.1576L10.4129 11.6527C10.2997 11.7068 10.1802 11.7315 10.0615 11.7315Z" fill="#74797B"/>
<path fill-rule="evenodd" clip-rule="evenodd" d="M4.27082 12.5C1.91561 12.5 0 10.7091 0 8.50877C0 7.21216 0.677844 5.99218 1.81293 5.24397C2.05439 5.08396 2.3897 5.13804 2.55976 5.36566C2.73063 5.59178 2.67287 5.90429 2.43061 6.0643C1.5795 6.62546 1.07332 7.53819 1.07332 8.50877C1.07332 10.1562 2.50762 11.4964 4.27162 11.4964C5.15402 11.4964 5.97466 11.1681 6.58592 10.5724C6.79048 10.3726 7.1298 10.3658 7.34318 10.5574C7.55736 10.7489 7.56378 11.0667 7.35922 11.2673C6.54421 12.062 5.44762 12.5 4.27082 12.5Z" fill="#74797B"/>
</svg>
