<svg width="95" height="128" viewBox="0 0 95 128" fill="none" xmlns="http://www.w3.org/2000/svg">
<g clip-path="url(#clip0_727_6025)">
<path d="M-20.2627 127.397C-20.2627 127.443 4.97436 127.479 36.0984 127.479C67.2333 127.479 92.4648 127.442 92.4648 127.397C92.4648 127.352 67.2333 127.315 36.0984 127.315C4.97408 127.315 -20.2627 127.352 -20.2627 127.397Z" fill="#263238"/>
<path d="M77.3594 123.258C77.3594 123.258 70.3485 97.9464 70.1998 97.1245C70.0652 96.3819 72.744 78.1667 73.0815 73.4526L63.6084 73.854C63.6084 73.854 63.6081 73.8827 63.6076 73.9326L59.581 74.1864L63.1875 125.953H67.5468L67.1145 108.778C69.8025 116.981 73.6547 125.341 73.6547 125.341L77.3594 123.258Z" fill="#FFBE9D"/>
<path d="M67.2923 114.934C67.2962 114.777 67.2395 109.179 67.2395 109.179C67.185 109.514 65.5681 104.32 65.6073 104.004C65.6276 103.84 67.2923 114.934 67.2923 114.934Z" fill="#EB996E"/>
<path d="M65.4228 101.544C65.4128 101.544 65.4033 101.656 65.395 101.858C65.3855 102.06 65.3836 102.354 65.4008 102.716C65.4069 102.898 65.4236 103.096 65.4442 103.308C65.4681 103.52 65.4937 103.747 65.5367 103.983C65.6157 104.455 65.7377 104.966 65.8931 105.491C66.2098 106.538 66.5589 107.454 66.8069 108.118C66.9245 108.421 67.0254 108.682 67.1102 108.901C67.1847 109.085 67.2303 109.184 67.2395 109.18C67.2487 109.175 67.2209 109.068 67.1625 108.877C67.1041 108.686 67.0151 108.412 66.9017 108.075C66.6779 107.399 66.3438 106.476 66.0302 105.438C65.8765 104.919 65.7525 104.416 65.6674 103.953C65.6213 103.722 65.5918 103.499 65.5632 103.291C65.5376 103.082 65.5153 102.887 65.5028 102.708C65.4728 102.351 65.4592 102.059 65.4514 101.858C65.4425 101.656 65.4328 101.544 65.4228 101.544Z" fill="#EB996E"/>
<path d="M59.2374 83.7309C59.0692 76.5137 59.7826 69.0381 60.3469 66.7708C60.4006 66.5547 60.447 66.3363 60.4928 66.1176L61.5701 60.9921C61.5701 60.9921 62.0185 60.576 60.8206 58.7631C60.2654 57.9228 60.3689 54.7119 60.3689 54.7119L60.9046 58.9549L55.2773 55.8742C55.2773 55.8742 57.64 48.2229 58.4037 47.1049C60.3861 44.2027 63.9676 44.7105 63.9676 44.7105L68.6558 44.6489C68.6558 44.6489 70.445 44.7772 72.1541 45.6867L72.2706 45.7211L72.2703 45.7486C73.6142 46.494 74.8126 47.7483 75.1576 49.7934C75.7203 53.1288 75.5435 54.6491 75.5435 54.6491L71.724 54.5716L72.0629 63.7615C72.3518 64.8925 73.1583 64.6214 74.3514 69.8449C74.8421 71.9937 75.139 74.0309 75.3122 75.8479C75.5399 78.2385 75.5023 80.6508 75.2263 83.0347L73.0821 101.543H60.1059L59.2374 83.7309Z" fill="#455A64"/>
<path d="M69.8809 53.0757L69.185 56.4459H75.75L75.318 50.7958L69.8809 53.0757Z" fill="#455A64"/>
<path d="M75.75 56.4458C75.7508 56.4237 75.4192 56.3842 74.881 56.3482C74.343 56.3122 73.5986 56.2822 72.7757 56.2863C71.9525 56.291 71.208 56.3315 70.6707 56.3798C70.133 56.4282 69.8025 56.4797 69.8039 56.5015C69.8055 56.5252 70.1386 56.5147 70.6762 56.4961C71.2139 56.4774 71.9561 56.4553 72.7765 56.4509C73.5966 56.4468 74.3394 56.4585 74.8776 56.4645C75.4156 56.4705 75.7489 56.4689 75.75 56.4458Z" fill="#263238"/>
<path d="M61.57 61.2354C61.5787 61.2367 61.5967 61.1207 61.6084 60.9068C61.6028 60.8003 61.6106 60.6673 61.5834 60.5172C61.5661 60.3655 61.5272 60.1955 61.47 60.0147C61.4135 59.8333 61.3354 59.6415 61.2395 59.4453C61.1453 59.2475 61.0332 59.0452 60.9165 58.8338C60.6815 58.4126 60.4258 57.949 60.2679 57.4128C60.1934 57.1435 60.1433 56.8753 60.1303 56.6095C60.1136 56.3444 60.1264 56.0856 60.1506 55.841C60.1973 55.3506 60.2979 54.9164 60.3871 54.5552C60.5745 53.8338 60.7308 53.3996 60.708 53.3895C60.6991 53.3854 60.6501 53.4887 60.5745 53.6824C60.4989 53.8761 60.3949 54.1596 60.2896 54.5204C60.1867 54.8816 60.0741 55.3193 60.0182 55.8227C59.9896 56.0736 59.9735 56.3412 59.9888 56.619C60.0004 56.8971 60.0527 57.183 60.1306 57.464C60.296 58.0255 60.5637 58.4989 60.8044 58.9154C60.9245 59.1245 61.0388 59.322 61.1352 59.5123C61.2337 59.7016 61.3143 59.8839 61.3746 60.0561C61.4358 60.2277 61.48 60.3889 61.5039 60.5333C61.5378 60.6764 61.5381 60.8047 61.5522 60.908C61.5578 61.1163 61.5589 61.2342 61.57 61.2354Z" fill="#263238"/>
<path d="M73.0817 101.544C73.0839 101.543 73.0753 101.507 73.0561 101.438C73.0336 101.36 73.0041 101.259 72.9669 101.13C72.8826 100.851 72.7631 100.456 72.6105 99.9524C72.4579 99.4398 72.2519 98.8211 72.02 98.0994C71.789 97.3773 71.5152 96.5598 71.2127 95.6561C70.5991 93.8492 69.8702 91.7023 69.061 89.3193C68.6576 88.1261 68.2345 86.8738 67.7958 85.5757C67.3568 84.2775 66.9162 82.9276 66.4647 81.5451C66.0219 80.1585 65.5846 78.8066 65.1887 77.4911C64.9899 76.8335 64.7948 76.1876 64.6035 75.555C64.4223 74.9186 64.2449 74.2957 64.072 73.688C63.7142 72.4765 63.4362 71.3038 63.1443 70.2171C63.0092 69.6704 62.8927 69.138 62.7726 68.6286C62.6595 68.1173 62.5294 67.6325 62.4468 67.1585C62.3556 66.6874 62.2686 66.238 62.1863 65.813C62.1452 65.6007 62.1049 65.3943 62.0659 65.194C62.0365 64.992 62.0078 64.7964 61.98 64.6071C61.9253 64.2292 61.8741 63.8772 61.8269 63.5523C61.7796 63.2281 61.7309 62.9327 61.7176 62.6628C61.6737 62.1329 61.6395 61.7176 61.6153 61.4244C61.6025 61.2898 61.5928 61.1833 61.585 61.1021C61.5775 61.0294 61.5722 60.9924 61.5697 60.9924C61.5672 60.9924 61.5675 61.0297 61.5703 61.1027C61.5744 61.1839 61.5794 61.291 61.5861 61.426C61.6039 61.7205 61.6292 62.1376 61.6617 62.6694C61.6709 62.9406 61.7151 63.2373 61.7587 63.5631C61.8024 63.8895 61.8497 64.2431 61.9003 64.6226C61.9261 64.8129 61.9531 65.0094 61.9809 65.2123C62.0181 65.4133 62.0565 65.6206 62.096 65.8335C62.1755 66.2605 62.2592 66.7114 62.347 67.1844C62.4265 67.6603 62.5538 68.1467 62.6642 68.6599C62.7815 69.1708 62.8955 69.7052 63.0284 70.2534C63.3155 71.343 63.5899 72.5192 63.9444 73.7336C64.1162 74.3428 64.2922 74.9669 64.472 75.6046C64.6625 76.2382 64.8565 76.8853 65.0544 77.5439C65.4489 78.8616 65.8857 80.2147 66.3288 81.6019C66.7805 82.9851 67.2223 84.3354 67.6632 85.6332C68.1047 86.9303 68.5306 88.1817 68.9364 89.3743C69.7565 91.7525 70.4952 93.895 71.1171 95.6981C71.4231 96.5987 71.7 97.414 71.9441 98.1319C72.1832 98.8502 72.3967 99.4654 72.5574 99.9742C72.7208 100.473 72.8487 100.865 72.9391 101.141C72.9819 101.268 73.0161 101.367 73.0419 101.443C73.0658 101.511 73.0795 101.545 73.0817 101.544Z" fill="#263238"/>
<path d="M69.598 50.7683C69.5779 50.7692 69.571 51.0966 69.576 51.6256C69.581 52.1542 69.5977 52.8845 69.6252 53.6903C69.6527 54.4964 69.6858 55.2257 69.7169 55.7535C69.7481 56.2812 69.7773 56.607 69.7973 56.606C69.8173 56.6051 69.8242 56.2777 69.8192 55.749C69.8142 55.2204 69.7976 54.4901 69.77 53.684C69.7425 52.8782 69.7094 52.1489 69.6783 51.6211C69.6472 51.0931 69.618 50.7673 69.598 50.7683Z" fill="#263238"/>
<path opacity="0.3" d="M63.6775 55.9172C63.6775 55.9172 65.0833 65.984 69.1849 65.6585C69.1849 65.6585 71.0317 65.6335 71.6255 64.2384V63.6892L63.6775 55.9172Z" fill="black"/>
<path d="M61.5701 60.9925C61.569 61.038 62.4594 61.1125 63.5592 61.1596C64.6592 61.2064 65.5513 61.2077 65.5527 61.1621C65.5538 61.1166 64.6634 61.0421 63.5636 60.995C62.4639 60.9482 61.5715 60.947 61.5701 60.9925Z" fill="#263238"/>
<path d="M63.0728 61.0613C63.0714 61.0698 63.1336 61.0831 63.2154 61.0145C63.2979 60.9485 63.3669 60.8041 63.4355 60.6417C63.5145 60.4555 63.5965 60.2618 63.6821 60.0596C63.7249 59.949 63.7825 59.839 63.8125 59.6899C63.8434 59.5467 63.8125 59.3385 63.6563 59.244C63.5773 59.1975 63.4797 59.2114 63.4139 59.2563C63.3469 59.2999 63.3015 59.3593 63.2637 59.4184C63.192 59.5404 63.1456 59.6554 63.1033 59.7736C63.0213 60.0078 62.986 60.2324 62.9746 60.4205C62.9549 60.7993 63.0244 61.0243 63.0397 61.0196C63.0633 61.0161 63.0319 60.7886 63.0764 60.4328C63.1 60.2558 63.1434 60.0473 63.2265 59.8318C63.2674 59.7262 63.3193 59.6102 63.3786 59.5132C63.4394 59.4156 63.5267 59.3502 63.5918 59.3916C63.6618 59.4336 63.6969 59.5502 63.6735 59.6583C63.6543 59.7689 63.601 59.8852 63.5606 59.9976C63.4848 60.2049 63.4122 60.4034 63.3421 60.5943C63.2835 60.7681 63.2365 60.8979 63.1778 60.9671C63.1217 61.0373 63.07 61.0477 63.0728 61.0613Z" fill="#263238"/>
<path d="M63.0638 61.2313C63.0816 61.2237 63.0216 60.9687 62.8862 60.5712C62.8184 60.3724 62.7311 60.1389 62.6249 59.8839C62.5718 59.7565 62.5137 59.6241 62.4511 59.488C62.4197 59.4187 62.3816 59.3423 62.3205 59.2759C62.2643 59.208 62.1428 59.1558 62.0452 59.2187C61.953 59.2756 61.9101 59.3849 61.9032 59.481C61.8965 59.578 61.9132 59.6617 61.931 59.7376C61.9649 59.8924 62.0155 60.0359 62.0755 60.1645C62.1976 60.4214 62.3549 60.6189 62.5045 60.7554C62.8081 61.03 63.0533 61.0749 63.0547 61.0597C63.0652 61.0326 62.8398 60.9482 62.5718 60.6676C62.4392 60.5282 62.3007 60.3361 62.1943 60.0953C62.142 59.9743 62.0983 59.8416 62.0692 59.6997C62.033 59.5581 62.0336 59.4112 62.1131 59.3644C62.1762 59.3154 62.2715 59.4339 62.3263 59.5635C62.3877 59.6959 62.4472 59.8248 62.5056 59.9506C62.6174 60.1989 62.7133 60.4255 62.7925 60.6167C62.9501 60.9994 63.0441 61.2395 63.0638 61.2313Z" fill="#263238"/>
<path opacity="0.3" d="M69.5979 51.4929L68.8128 57.5215L69.321 58.5792L69.9429 56.5296L69.8039 56.5011L69.5979 51.4929Z" fill="black"/>
<path d="M63.1055 126.208L63.1036 125.743L67.5688 125.522L67.5811 127.441L67.3056 127.462C66.0799 127.544 61.0683 127.779 60.2482 127.499C59.3336 127.187 63.1055 126.208 63.1055 126.208Z" fill="#E8505B"/>
<g opacity="0.5">
<path d="M65.9704 127.407C66.0324 126.985 66.2378 126.592 66.5344 126.329C66.8311 126.065 67.1966 125.925 67.5719 125.958L67.5767 127.369L65.9704 127.407Z" fill="white"/>
</g>
<path opacity="0.5" d="M61.2627 126.761C61.2627 126.761 59.9408 127.2 60.1065 127.447C60.2722 127.694 65.3445 127.673 67.5811 127.441L67.5736 127.328L61.6574 127.41C61.6574 127.41 61.5215 126.773 61.2627 126.761Z" fill="white"/>
<path d="M67.6436 127.325C67.6436 127.327 67.6174 127.33 67.5671 127.335C67.5012 127.339 67.4292 127.345 67.3478 127.351C67.1284 127.363 66.8588 127.377 66.5405 127.394C65.8585 127.424 64.9161 127.453 63.8747 127.458C62.833 127.463 61.8901 127.444 61.2081 127.42C60.8898 127.407 60.6199 127.395 60.4005 127.386C60.3191 127.381 60.2471 127.376 60.1812 127.372C60.1312 127.368 60.1048 127.365 60.1048 127.363C60.1048 127.361 60.1312 127.36 60.1815 127.36C60.2474 127.36 60.3196 127.361 60.4011 127.362C60.6207 127.366 60.8904 127.371 61.209 127.377C61.8909 127.39 62.8333 127.402 63.8744 127.397C64.915 127.392 65.8571 127.37 66.5391 127.351C66.8574 127.342 67.1273 127.334 67.3467 127.327C67.4281 127.326 67.5004 127.324 67.5663 127.323C67.6171 127.322 67.6436 127.323 67.6436 127.325Z" fill="#263238"/>
<path d="M61.6589 127.489C61.6425 127.491 61.6292 127.272 61.5066 127.051C61.3876 126.828 61.2211 126.717 61.2302 126.701C61.2333 126.686 61.424 126.78 61.5524 127.019C61.6831 127.256 61.6723 127.492 61.6589 127.489Z" fill="#263238"/>
<path d="M62.9675 126.727C62.955 126.736 62.8919 126.65 62.8269 126.534C62.7615 126.418 62.719 126.317 62.7315 126.308C62.744 126.299 62.8069 126.385 62.8722 126.501C62.9375 126.617 62.9801 126.718 62.9675 126.727Z" fill="#263238"/>
<path d="M63.3265 126.509C63.3165 126.522 63.2464 126.469 63.1694 126.391C63.0927 126.313 63.0385 126.24 63.0482 126.228C63.0582 126.215 63.1283 126.268 63.2053 126.346C63.282 126.423 63.3362 126.497 63.3265 126.509Z" fill="#263238"/>
<path d="M63.5522 126.032C63.5525 126.049 63.4488 126.064 63.3207 126.066C63.1925 126.069 63.0885 126.057 63.0883 126.039C63.088 126.023 63.1917 126.007 63.3198 126.005C63.448 126.003 63.552 126.015 63.5522 126.032Z" fill="#263238"/>
<path d="M63.6292 125.695C63.6342 125.711 63.5214 125.769 63.3707 125.782C63.22 125.796 63.1008 125.758 63.1035 125.742C63.106 125.725 63.2236 125.734 63.3665 125.721C63.5097 125.709 63.6245 125.679 63.6292 125.695Z" fill="#263238"/>
<path d="M62.8154 126.287C62.8157 126.294 62.7062 126.31 62.5299 126.286C62.4421 126.275 62.3378 126.251 62.2258 126.211C62.1702 126.189 62.1118 126.172 62.0515 126.13C62.0231 126.109 61.9917 126.079 61.9806 126.03C61.9686 125.981 61.9914 125.927 62.0234 125.9C62.2958 125.738 62.5697 125.911 62.6714 126.071C62.7276 126.153 62.7532 126.233 62.7651 126.288C62.7768 126.343 62.776 126.375 62.7729 126.375C62.7629 126.379 62.7532 126.247 62.642 126.099C62.5872 126.026 62.5041 125.955 62.3976 125.92C62.2967 125.886 62.1532 125.878 62.0573 125.948C62.012 125.986 62.0301 126.046 62.0804 126.08C62.1274 126.114 62.1883 126.135 62.2411 126.158C62.3492 126.199 62.4499 126.227 62.5355 126.243C62.7067 126.277 62.8154 126.277 62.8154 126.287Z" fill="#263238"/>
<path d="M62.7413 126.304C62.7371 126.307 62.6948 126.225 62.7076 126.079C62.7143 126.007 62.7371 125.922 62.7849 125.841C62.8349 125.769 62.8997 125.67 63.022 125.675C63.0882 125.684 63.1207 125.77 63.1104 125.824C63.1054 125.881 63.0832 125.93 63.0623 125.969C63.0201 126.051 62.9723 126.116 62.9281 126.166C62.8388 126.266 62.7682 126.304 62.7652 126.298C62.7602 126.29 62.8219 126.24 62.9003 126.137C62.9392 126.085 62.9814 126.02 63.0193 125.942C63.0582 125.873 63.0846 125.749 63.0131 125.735C62.9417 125.728 62.8689 125.809 62.8255 125.874C62.7807 125.944 62.7563 126.02 62.7454 126.085C62.724 126.217 62.7507 126.301 62.7413 126.304Z" fill="#263238"/>
<path d="M67.5483 125.944C67.5475 125.955 67.421 125.93 67.2203 125.958C67.0215 125.984 66.7452 126.078 66.5053 126.297C66.2656 126.516 66.1252 126.802 66.0602 127.017C65.9929 127.234 65.9868 127.379 65.9771 127.378C65.9737 127.378 65.9721 127.341 65.9765 127.276C65.981 127.211 65.9943 127.117 66.0241 127.004C66.0816 126.78 66.2217 126.477 66.4716 126.249C66.7218 126.021 67.0115 125.931 67.2167 125.915C67.3201 125.907 67.404 125.912 67.461 125.921C67.518 125.93 67.5489 125.94 67.5483 125.944Z" fill="#263238"/>
<path d="M65.4097 126.923C65.4116 126.938 65.1219 126.991 64.7608 126.993C64.3997 126.996 64.1097 126.947 64.1114 126.931C64.1128 126.913 64.403 126.934 64.7605 126.932C65.1183 126.93 65.4083 126.905 65.4097 126.923Z" fill="#263238"/>
<path d="M66.2807 126.912C66.2915 126.924 66.257 126.982 66.2279 127.058C66.1975 127.133 66.1825 127.2 66.1672 127.2C66.1528 127.2 66.1442 127.12 66.1789 127.033C66.2128 126.945 66.2709 126.9 66.2807 126.912Z" fill="#263238"/>
<path d="M66.6072 126.446C66.6177 126.458 66.5894 126.511 66.5435 126.564C66.4976 126.617 66.452 126.651 66.4415 126.639C66.4309 126.627 66.4593 126.574 66.5051 126.521C66.5507 126.468 66.5963 126.434 66.6072 126.446Z" fill="#263238"/>
<path d="M67.076 126.232C67.0729 126.249 67.014 126.249 66.9486 126.276C66.883 126.3 66.8366 126.342 66.8249 126.33C66.813 126.321 66.8502 126.249 66.9311 126.218C67.0123 126.186 67.0804 126.217 67.076 126.232Z" fill="#263238"/>
<path d="M67.4099 126.131C67.4154 126.146 67.39 126.172 67.3535 126.189C67.317 126.205 67.2827 126.206 67.2774 126.19C67.2719 126.174 67.2973 126.148 67.3338 126.132C67.3706 126.116 67.4046 126.115 67.4099 126.131Z" fill="#263238"/>
<path d="M73.5683 125.76L73.3987 125.337L77.3924 123.056L78.0952 124.801L77.8517 124.949C76.763 125.594 72.2758 128.142 71.4268 128.269C70.48 128.41 73.5683 125.76 73.5683 125.76Z" fill="#E8505B"/>
<g opacity="0.5">
<path d="M76.6132 125.52C76.5179 125.106 76.5637 124.652 76.7392 124.274C76.9146 123.895 77.1976 123.597 77.552 123.452L78.0649 124.738L76.6132 125.52Z" fill="white"/>
</g>
<path opacity="0.5" d="M72.086 127.123C72.086 127.123 71.0382 128.138 71.2784 128.287C71.5186 128.435 76.1384 126.054 78.0952 124.801L78.0477 124.702L72.6801 127.531C72.6801 127.531 72.3262 127.013 72.086 127.123Z" fill="white"/>
<path d="M78.1098 124.666C78.1107 124.668 78.0879 124.683 78.0437 124.711C77.9853 124.746 77.9214 124.784 77.8494 124.827C77.6534 124.94 77.4126 125.079 77.1282 125.242C76.5172 125.588 75.6676 126.052 74.7196 126.542C73.7711 127.031 72.9043 127.453 72.2735 127.749C71.978 127.885 71.7278 128 71.5243 128.093C71.4481 128.126 71.3808 128.156 71.3191 128.183C71.2721 128.203 71.2469 128.212 71.2463 128.21C71.2457 128.209 71.2694 128.195 71.315 128.172C71.3753 128.142 71.4415 128.108 71.5162 128.071C71.7181 127.973 71.966 127.852 72.2588 127.709C72.8857 127.403 73.7497 126.975 74.6974 126.486C75.6448 125.997 76.4966 125.539 77.1118 125.203C77.399 125.047 77.6422 124.914 77.8402 124.806C77.9139 124.766 77.9795 124.731 78.0389 124.699C78.0845 124.676 78.109 124.664 78.1098 124.666Z" fill="#263238"/>
<path d="M72.7089 127.602C72.6947 127.612 72.6035 127.418 72.4123 127.273C72.2232 127.125 72.0311 127.101 72.0339 127.083C72.0314 127.067 72.2394 127.065 72.4426 127.223C72.6475 127.378 72.7225 127.599 72.7089 127.602Z" fill="#263238"/>
<path d="M73.6283 126.298C73.6203 126.313 73.5316 126.263 73.4304 126.188C73.3292 126.113 73.2538 126.04 73.2619 126.026C73.27 126.012 73.3587 126.061 73.4598 126.137C73.561 126.211 73.6364 126.284 73.6283 126.298Z" fill="#263238"/>
<path d="M73.8777 125.932C73.8733 125.948 73.7902 125.933 73.692 125.898C73.5939 125.862 73.518 125.821 73.5225 125.805C73.5269 125.789 73.61 125.804 73.7082 125.839C73.8063 125.875 73.8822 125.916 73.8777 125.932Z" fill="#263238"/>
<path d="M73.9113 125.392C73.9177 125.407 73.8285 125.469 73.7125 125.531C73.5963 125.593 73.4971 125.63 73.4907 125.615C73.4843 125.6 73.5735 125.537 73.6895 125.476C73.8057 125.414 73.9052 125.376 73.9113 125.392Z" fill="#263238"/>
<path d="M73.8605 125.049C73.8705 125.06 73.7885 125.166 73.6559 125.248C73.5236 125.331 73.401 125.353 73.3979 125.337C73.3937 125.32 73.5044 125.274 73.63 125.195C73.7563 125.117 73.8499 125.036 73.8605 125.049Z" fill="#263238"/>
<path d="M73.3315 125.968C73.3343 125.974 73.24 126.039 73.0707 126.1C72.9862 126.13 72.8831 126.157 72.7663 126.173C72.7074 126.179 72.6484 126.191 72.5784 126.18C72.5447 126.174 72.5053 126.162 72.4775 126.122C72.4491 126.083 72.4499 126.022 72.4697 125.983C72.6598 125.709 72.972 125.74 73.1227 125.838C73.2033 125.886 73.2553 125.947 73.2862 125.991C73.3167 126.037 73.3276 126.066 73.3248 126.068C73.3173 126.076 73.2609 125.961 73.1057 125.877C73.0296 125.836 72.9284 125.81 72.8183 125.827C72.714 125.844 72.58 125.903 72.5181 126.011C72.4905 126.067 72.5286 126.114 72.587 126.121C72.6423 126.131 72.7051 126.121 72.7616 126.117C72.8753 126.104 72.977 126.082 73.061 126.058C73.2286 126.01 73.3279 125.959 73.3315 125.968Z" fill="#263238"/>
<path d="M73.2697 126.017C73.2672 126.022 73.1988 125.966 73.1579 125.827C73.1382 125.759 73.1284 125.671 73.1426 125.575C73.1623 125.486 73.1854 125.365 73.2991 125.313C73.3628 125.291 73.5118 125.436 73.5221 125.491C73.5379 125.545 73.4467 125.517 73.4423 125.563C73.4331 125.657 73.4131 125.739 73.3909 125.805C73.3453 125.938 73.295 126.005 73.2897 126.001C73.2822 125.997 73.3203 125.922 73.3547 125.791C73.3717 125.726 73.3867 125.647 73.3928 125.558C73.4037 125.477 73.3834 125.352 73.3127 125.372C73.2449 125.399 73.2077 125.506 73.1915 125.586C73.1762 125.671 73.181 125.751 73.1946 125.816C73.2227 125.946 73.2774 126.01 73.2697 126.017Z" fill="#263238"/>
<path d="M77.5253 123.451C77.5287 123.461 77.4044 123.498 77.2312 123.616C77.0591 123.733 76.8409 123.947 76.7008 124.258C76.5612 124.57 76.5365 124.897 76.5543 125.123C76.5712 125.352 76.6179 125.487 76.6085 125.491C76.6054 125.492 76.5907 125.46 76.5715 125.398C76.552 125.336 76.5304 125.244 76.5167 125.127C76.4884 124.896 76.5076 124.555 76.6532 124.23C76.7992 123.905 77.031 123.688 77.2126 123.578C77.3038 123.523 77.3822 123.488 77.4378 123.47C77.4928 123.452 77.5245 123.447 77.5253 123.451Z" fill="#263238"/>
<path d="M75.9271 125.339C75.9346 125.353 75.6891 125.536 75.3605 125.705C75.0322 125.876 74.7497 125.967 74.7456 125.951C74.7406 125.935 75.0127 125.819 75.3383 125.65C75.6638 125.482 75.919 125.324 75.9271 125.339Z" fill="#263238"/>
<path d="M76.7177 124.924C76.7319 124.931 76.7212 124.999 76.7218 125.082C76.7212 125.165 76.7316 125.233 76.7177 125.24C76.7049 125.246 76.6688 125.178 76.6691 125.082C76.6688 124.986 76.7049 124.917 76.7177 124.924Z" fill="#263238"/>
<path d="M76.8478 124.347C76.8617 124.353 76.8548 124.415 76.832 124.484C76.8095 124.554 76.7797 124.606 76.7658 124.6C76.7519 124.594 76.7589 124.533 76.7817 124.463C76.8042 124.393 76.8339 124.342 76.8478 124.347Z" fill="#263238"/>
<path d="M77.1981 123.934C77.2014 123.951 77.1475 123.978 77.0975 124.033C77.0463 124.086 77.0191 124.145 77.0043 124.14C76.9901 124.137 76.9979 124.054 77.0608 123.988C77.123 123.921 77.1964 123.918 77.1981 123.934Z" fill="#263238"/>
<path d="M77.4662 123.686C77.4767 123.698 77.4629 123.733 77.4355 123.765C77.4081 123.797 77.3772 123.814 77.3667 123.802C77.3561 123.79 77.37 123.754 77.3973 123.722C77.4247 123.69 77.4557 123.674 77.4662 123.686Z" fill="#263238"/>
<path d="M60.6441 47.018C60.6068 46.5958 60.5337 46.0264 60.5165 45.7641C60.4642 44.9643 60.3444 44.7864 60.11 44.9052C59.7292 45.0986 60.1281 47.1425 59.8543 47.1697C59.7072 47.1842 59.5098 45.9894 59.4312 45.4001C59.3469 44.7696 59.2891 43.9164 59.2538 43.6121C59.2152 43.2769 58.7134 43.2001 58.7317 43.7948C58.7506 44.4097 58.7765 46.1029 58.6503 46.1695C58.3019 46.3531 58.3147 43.9357 58.2319 43.1451C58.2135 42.9694 58.1788 42.8458 58.136 42.7599C58.0161 42.5194 57.6887 42.6101 57.6558 42.8838C57.5636 43.6545 57.6987 45.7363 57.6472 46.0738C57.6314 46.1771 57.4037 46.2296 57.3475 45.8839C57.2722 45.4203 57.3058 43.2023 56.9044 43.3992C56.4638 43.6153 56.9372 46.2397 56.7571 46.507C56.421 47.0047 56.3832 44.1525 55.9664 44.2764C55.7554 44.3389 55.7602 44.4287 55.9742 45.9515C56.0726 46.6524 56.4852 48.1714 56.7095 49.4711C55.7427 53.3487 54.0502 60.6114 54.2976 63.0054C54.4394 64.3778 57.2394 65.3255 58.4401 64.3019C59.6408 63.2784 60.4767 58.7211 60.4767 58.7211L59.0333 57.7509L60.4442 48.9655C60.5037 48.7813 60.5306 48.3025 60.616 48.0756C60.715 47.8137 60.6691 47.3021 60.6441 47.018Z" fill="#FFBE9D"/>
<path d="M58.213 62.3819C58.2522 62.3908 58.4618 61.3631 58.6814 60.0874C58.9008 58.8111 59.047 57.7699 59.0078 57.761C58.9686 57.7522 58.759 58.7795 58.5394 60.0558C58.3198 61.3315 58.1738 62.3731 58.213 62.3819Z" fill="#EB996E"/>
<path d="M61.6527 41.1872C60.4298 40.9859 59.1885 40.9287 57.9556 41.0175C57.7638 40.6259 57.7335 40.1368 57.8755 39.7187C58.0176 39.3006 58.3289 38.9616 58.7026 38.8181C58.8549 38.7596 59.0239 38.7277 59.1415 38.6026C59.3317 38.4007 59.3047 38.0528 59.2405 37.7658C59.1763 37.4792 59.0915 37.1645 59.2074 36.8994C59.3887 36.4851 59.9194 36.4775 60.2146 36.1586C60.554 35.7921 60.4743 35.1718 60.539 34.6447C60.6558 33.6932 61.3872 32.8846 62.2271 32.7781" fill="#263238"/>
<path d="M66.1423 30.3629C67.5123 29.9856 69.0638 30.7639 69.7413 32.1688C70.1091 32.931 70.2967 33.9128 70.9806 34.3018C71.3984 34.5392 71.8919 34.4797 72.357 34.5297C72.8221 34.5796 73.3464 34.8248 73.4573 35.3408C73.5693 35.8626 73.2188 36.5009 73.5285 36.9063C73.727 37.1661 74.0803 37.1506 74.3586 37.2849C74.9235 37.5573 75.0836 38.3906 75.0224 39.0845C74.961 39.7784 74.7583 40.4809 74.9021 41.1587C74.2816 41.3745 73.6533 41.5923 73.005 41.6308C72.3567 41.6694 71.6764 41.5114 71.1724 41.0462C71.2261 41.3483 71.0534 41.6574 70.821 41.8163C70.5886 41.9753 70.3089 42.0144 70.0382 42.0337C69.1508 42.0966 68.2537 41.9828 67.4002 41.6997" fill="#263238"/>
<path d="M63.0914 45.0866C63.1095 43.7692 63.1262 42.4657 63.1262 42.4657C63.1262 42.4657 61.2513 42.2568 61.1179 40.0919C60.9845 37.9267 61.052 32.9298 61.052 32.9298L64.4447 30.9443L68.0596 34.2702L67.9122 45.2184C67.8683 46.7503 66.7282 47.9436 65.3816 47.8668C64.0839 47.7928 63.0711 46.5633 63.0914 45.0866Z" fill="#FFBE9D"/>
<path d="M61.4582 36.6273C61.4596 36.7805 61.5672 36.9032 61.6987 36.9016C61.8296 36.9 61.935 36.7749 61.9336 36.6216C61.9322 36.4683 61.8246 36.3454 61.6934 36.347C61.5622 36.3489 61.4568 36.474 61.4582 36.6273Z" fill="#263238"/>
<path d="M61.2253 36.328C61.2561 36.3634 61.4301 36.1874 61.6859 36.1684C61.9414 36.145 62.1352 36.2907 62.1613 36.2503C62.1744 36.2323 62.1415 36.1665 62.057 36.1005C61.9739 36.0344 61.8338 35.975 61.6745 35.988C61.5152 36.0013 61.384 36.0831 61.3098 36.1624C61.2342 36.2417 61.2102 36.3122 61.2253 36.328Z" fill="#263238"/>
<path d="M64.2121 36.6282C64.2135 36.7815 64.3211 36.9041 64.4526 36.9025C64.5838 36.9009 64.6889 36.7758 64.6875 36.6225C64.6861 36.4693 64.5785 36.3463 64.4473 36.3479C64.3161 36.3498 64.2107 36.4753 64.2121 36.6282Z" fill="#263238"/>
<path d="M64.0618 36.328C64.0926 36.3634 64.2666 36.1874 64.5224 36.1684C64.7776 36.145 64.9717 36.2907 64.9978 36.2503C65.0106 36.2323 64.9783 36.1665 64.8935 36.1005C64.8104 36.0344 64.6703 35.975 64.5113 35.988C64.352 36.0013 64.2208 36.0831 64.1466 36.1624C64.0707 36.2417 64.0465 36.3122 64.0618 36.328Z" fill="#263238"/>
<path d="M63.1618 38.766C63.1624 38.7483 63.0019 38.7271 62.7428 38.7069C62.6772 38.7037 62.6147 38.6927 62.6016 38.6393C62.5841 38.583 62.608 38.4952 62.6361 38.4C62.6903 38.2029 62.7467 37.9962 62.8062 37.7794C63.0414 36.8962 63.2085 36.1722 63.1793 36.1615C63.1501 36.1508 62.9358 36.858 62.7006 37.7412C62.6442 37.9589 62.5902 38.1662 62.5388 38.365C62.5174 38.4572 62.479 38.5631 62.5168 38.6797C62.5366 38.7378 62.5863 38.777 62.6286 38.7878C62.6711 38.8001 62.7078 38.7982 62.7403 38.7979C63.0006 38.7947 63.1615 38.7837 63.1618 38.766Z" fill="#263238"/>
<path d="M70.9002 36.2522C70.8794 36.0989 70.9186 36.4187 70.8921 36.1782V36.177C70.8552 35.8423 70.8137 35.4897 70.7693 35.3001C69.7145 30.7942 66.3032 29.9925 65.6302 30.0004C64.9082 30.009 62.8424 29.9401 61.6931 31.5766C60.1758 33.7368 61.0354 35.8761 61.0354 35.8761L64.0447 35.2707C63.8218 34.4187 64.1284 33.3538 64.303 32.8574L64.3202 32.8384C64.8918 36.0749 67.9606 36.8014 67.9606 36.8014L67.9962 41.5452C70.2316 41.177 70.9525 38.1279 70.9002 36.2522Z" fill="#263238"/>
<path d="M67.9223 38.7713C67.9042 38.4465 67.7713 37.6675 67.867 37.361C67.9626 37.0545 68.2623 36.985 68.5923 36.9885C68.9217 36.9919 69.3176 37.337 69.3059 37.7981C69.2962 38.1722 69.1869 38.5571 68.9042 38.7495C68.6217 38.9423 68.2578 38.9486 67.9515 38.8099" fill="#FFBE9D"/>
<path d="M68.278 38.3444C68.288 38.3226 68.3717 38.3678 68.4915 38.322C68.6127 38.2847 68.7339 38.1229 68.7386 37.8992C68.7431 37.7895 68.7194 37.6887 68.6711 37.6413C68.6216 37.5905 68.5437 37.5781 68.4823 37.5838C68.3539 37.6006 68.2644 37.6426 68.2563 37.618C68.2505 37.6018 68.3122 37.525 68.4645 37.4707C68.5404 37.4486 68.6511 37.44 68.7542 37.525C68.8573 37.6157 68.8868 37.7709 68.8818 37.9058C68.8773 38.0455 68.8343 38.1785 68.7625 38.2746C68.6922 38.3722 68.5938 38.4234 68.5137 38.4348C68.3447 38.4585 68.2644 38.3568 68.278 38.3444Z" fill="#EB996E"/>
<path d="M63.1769 39.3891C63.1903 39.3756 63.1291 39.2921 62.999 39.3247C62.9387 39.3395 62.86 39.4011 62.8358 39.5064C62.8119 39.6053 62.8336 39.7333 62.9256 39.8135C63.021 39.89 63.1358 39.8742 63.2114 39.8157C63.2926 39.7551 63.3156 39.6442 63.3028 39.5746C63.2767 39.4223 63.1778 39.3983 63.175 39.4192C63.1639 39.4384 63.2094 39.4909 63.2008 39.581C63.1964 39.6252 63.178 39.6663 63.1402 39.6871C63.1035 39.7102 63.0449 39.7099 63.0112 39.6808C62.9762 39.6527 62.9584 39.5895 62.9656 39.5408C62.9709 39.4925 62.9996 39.4561 63.034 39.4337C63.1049 39.3885 63.1677 39.41 63.1769 39.3891Z" fill="#263238"/>
<path d="M63.9132 35.472C63.9224 35.5191 64.2026 35.472 64.5309 35.5602C64.8609 35.642 65.0955 35.8221 65.1216 35.7842C65.1494 35.7551 64.9312 35.4929 64.5632 35.3996C64.1959 35.3029 63.8993 35.4319 63.9132 35.472Z" fill="#263238"/>
<path d="M65.1451 30.0317C65.1471 30.0469 65.2583 30.0283 65.4585 30.0333C65.6578 30.0377 65.9477 30.0779 66.2819 30.2163C66.6138 30.3563 66.988 30.6015 67.3213 30.9759C67.6555 31.3485 67.9371 31.8544 68.1342 32.4292C68.5276 33.5912 68.5184 34.7496 68.5062 35.562C68.4937 35.9447 68.4831 36.2693 68.4745 36.5341C68.4672 36.7641 68.4672 36.8918 68.4773 36.8927C68.4873 36.8937 68.5059 36.7679 68.5306 36.5391C68.5548 36.3107 68.5857 35.9789 68.6085 35.5671C68.6296 35.1554 68.6427 34.6618 68.6049 34.1145C68.5679 33.5678 68.4711 32.9655 68.2693 32.3698C68.0658 31.7761 67.7695 31.2512 67.4145 30.8676C67.0608 30.4824 66.6653 30.2381 66.3158 30.1069C65.9641 29.9774 65.6617 29.9543 65.4576 29.9698C65.3553 29.9786 65.2766 29.9897 65.2241 30.0046C65.1713 30.0166 65.1443 30.026 65.1451 30.0317Z" fill="#455A64"/>
<path d="M62.9198 42.4186C62.9173 42.4379 63.0861 42.4904 63.3677 42.5134C63.6479 42.5327 64.0457 42.5144 64.4622 42.37C64.88 42.2306 65.2219 41.9844 65.4293 41.7651C65.6395 41.5458 65.7276 41.3701 65.7146 41.3591C65.6965 41.342 65.5814 41.4886 65.364 41.6754C65.1486 41.8631 64.8188 42.0792 64.4202 42.2123C63.619 42.4869 62.9212 42.3611 62.9198 42.4186Z" fill="#EB996E"/>
<path d="M72.1422 56.3912L69.9427 56.5296C69.8037 57.3401 69.3208 58.5795 69.3208 58.5795C67.5505 55.0864 66.1777 50.4061 65.8369 48.5253C65.8866 48.3373 65.9453 48.1297 66.0187 47.8974C66.1035 47.6291 66.0306 47.1216 65.9906 46.8398C65.9311 46.4211 65.8283 45.8576 65.7971 45.5966C65.7029 44.8019 65.5903 44.6771 65.3462 44.7668C65.0146 44.8891 65.4821 46.9987 65.2103 47.0445C65.064 47.0692 64.8856 46.3462 64.8336 45.7534C64.7816 45.1602 64.5458 43.336 64.3735 43.2143C64.1205 43.0361 63.9003 43.318 63.9643 43.9086C64.0288 44.5064 64.1105 46.289 63.8347 46.313C63.5631 46.3367 63.3349 43.3123 63.3349 43.3123C63.3349 43.3123 63.378 42.654 63.0585 42.6698C62.4828 42.6983 62.9326 45.887 62.9818 46.1891C63.0163 46.3993 62.7172 46.4378 62.6908 46.2097C62.6638 45.9749 62.5248 43.1849 61.9385 43.2073C61.4884 43.2247 62.2871 45.8349 62.0344 46.44C61.7817 47.0452 61.6063 44.3848 61.1765 44.4214C61.0166 44.4353 60.8985 44.4707 61.1923 45.9761C61.3502 46.7851 61.8142 48.2728 62.2198 49.5046C62.9006 53.679 65.8889 67.0331 70.5737 64.5885C73.1953 63.2209 74.4185 56.4484 74.4185 56.4484L72.1422 56.3912Z" fill="#FFBE9D"/>
<path d="M62.8403 46.3629C62.8403 46.3629 62.8614 46.3673 62.9012 46.3534C62.937 46.3408 63.0079 46.2902 62.9968 46.1866C62.991 46.0074 62.9659 45.7461 62.9295 45.4083C62.9023 45.0683 62.813 44.6606 62.8125 44.1775C62.8091 43.9357 62.8144 43.6756 62.8267 43.4001C62.8344 43.2623 62.8367 43.1192 62.8636 42.9842C62.8836 42.8534 62.9607 42.7036 63.0496 42.7216L63.0593 42.7235L63.0638 42.7232C63.1541 42.7185 63.2248 42.7984 63.2539 42.921C63.2856 43.038 63.2937 43.176 63.2873 43.3078L63.287 43.3132L63.2873 43.317C63.3468 44.0561 63.4107 44.8651 63.5589 45.729C63.5795 45.8368 63.6006 45.9455 63.6301 46.0551C63.6448 46.1098 63.6618 46.1651 63.6829 46.2207C63.6965 46.2491 63.7051 46.2763 63.726 46.3063C63.7441 46.3316 63.7671 46.3756 63.8322 46.3822C63.9378 46.3733 63.9681 46.2823 63.992 46.2305C64.0148 46.1705 64.029 46.1117 64.0396 46.0529C64.0613 45.9354 64.0724 45.8181 64.0804 45.7003C64.1085 45.2291 64.0941 44.7481 64.0635 44.2552C64.0535 44.0062 63.9995 43.7575 64.0371 43.5315C64.0546 43.4203 64.0955 43.3081 64.1622 43.262C64.1947 43.2396 64.2314 43.2348 64.2714 43.2462C64.2914 43.2528 64.3117 43.262 64.3318 43.2759C64.3484 43.2942 64.3448 43.286 64.3598 43.3186C64.4449 43.5252 64.4885 43.7948 64.5361 44.0447C64.5811 44.3004 64.62 44.5608 64.6562 44.8243C64.6918 45.0878 64.7248 45.3546 64.7524 45.6232C64.7752 45.8918 64.8094 46.1733 64.8694 46.4448C64.9 46.5813 64.9336 46.7175 64.9839 46.853C65.0098 46.921 65.0365 46.988 65.0887 47.0572C65.1076 47.0866 65.1669 47.1418 65.2408 47.12C65.3125 47.0929 65.3328 47.0281 65.3445 46.9905C65.3856 46.8243 65.3737 46.6862 65.3715 46.5408C65.3659 46.3974 65.3556 46.2558 65.3451 46.1142C65.327 45.8709 65.3064 45.6301 65.2992 45.3931C65.2959 45.2749 65.2956 45.1567 65.3067 45.0455C65.3128 44.9912 65.3212 44.9352 65.3376 44.8948C65.3451 44.8742 65.3551 44.8594 65.362 44.8518C65.3659 44.8471 65.3684 44.8493 65.3718 44.8445L65.4048 44.8338C65.5733 44.7545 65.6295 45.0212 65.6742 45.2361C65.7134 45.4601 65.7382 45.6914 65.7776 45.9196C65.8446 46.3746 65.93 46.8268 65.9747 47.2613C65.9931 47.4765 66.0067 47.7005 65.9525 47.8829C65.8924 48.0917 65.833 48.2984 65.774 48.5025L65.7687 48.5212L65.7726 48.5405C66.0823 50.0939 66.5115 51.4837 66.9096 52.7177C67.3119 53.9504 67.7142 55.0156 68.0695 55.8868C68.4234 56.759 68.7411 57.4308 68.9605 57.889C69.0717 58.1064 69.1595 58.278 69.2248 58.4057C69.2863 58.522 69.3196 58.5814 69.323 58.5792C69.3263 58.5769 69.2996 58.5131 69.2448 58.3927C69.1842 58.2622 69.1028 58.0868 68.9999 57.865C68.7934 57.3998 68.4881 56.723 68.1459 55.8473C67.8023 54.9726 67.4109 53.9055 67.0178 52.6725C66.6291 51.4401 66.2071 50.0465 65.9061 48.5095L65.9047 48.5474C65.9633 48.3458 66.0228 48.142 66.0826 47.936C66.151 47.7002 66.1307 47.4699 66.114 47.2445C66.0684 46.7927 65.9856 46.3537 65.9191 45.8965C65.8799 45.6706 65.8557 45.4386 65.8149 45.2016C65.7907 45.0837 65.7685 44.9646 65.7112 44.8439C65.6837 44.7854 65.6411 44.7191 65.5708 44.6834C65.4999 44.6483 65.4273 44.6584 65.3704 44.6742L65.3278 44.6878C65.3086 44.6976 65.285 44.7093 65.27 44.7251C65.2375 44.7573 65.2191 44.7937 65.2058 44.8278C65.1791 44.897 65.1713 44.9611 65.1635 45.025C65.1507 45.152 65.1516 45.2749 65.1546 45.3978C65.1621 45.6427 65.1827 45.8851 65.2008 46.1278C65.2113 46.2687 65.2216 46.409 65.2269 46.5475C65.2311 46.6824 65.2355 46.8312 65.208 46.9358C65.2016 46.9662 65.1891 46.9605 65.2036 46.975L65.2041 46.9763C65.2027 46.9665 65.2061 46.9908 65.2055 46.987L65.2052 46.9842C65.2047 46.9804 65.2052 46.9769 65.2061 46.9741C65.2075 46.9715 65.213 46.9614 65.2097 46.9608C65.2077 46.9601 65.2019 46.956 65.1944 46.945C65.1663 46.9083 65.1385 46.8483 65.1168 46.7886C65.0715 46.6675 65.0384 46.5361 65.0092 46.4049C64.9506 46.1401 64.9181 45.8769 64.8944 45.6042C64.8661 45.3324 64.8327 45.0645 64.7963 44.7993C64.7596 44.5342 64.7198 44.2719 64.6734 44.0128C64.6211 43.7521 64.5872 43.5018 64.4802 43.2415C64.4735 43.2152 64.4282 43.1568 64.4004 43.14C64.3718 43.1207 64.3401 43.1056 64.3056 43.0948C64.2372 43.0734 64.1536 43.0831 64.0907 43.1286C63.9645 43.2234 63.9259 43.3739 63.9028 43.5047C63.8822 43.6393 63.8853 43.772 63.8986 43.9006C63.9114 44.0239 63.9217 44.1449 63.9303 44.2669C63.9623 44.7532 63.9784 45.2319 63.9534 45.6898C63.9462 45.8039 63.9359 45.9167 63.9167 46.0235C63.9075 46.0769 63.8947 46.1288 63.8781 46.173C63.87 46.1948 63.8597 46.2157 63.8503 46.227C63.8411 46.251 63.8327 46.2213 63.8339 46.2605C63.8466 46.2308 63.8344 46.2473 63.8244 46.2226C63.8136 46.209 63.8044 46.1831 63.7941 46.1629C63.776 46.1158 63.7602 46.0659 63.746 46.0147C63.7176 45.9123 63.6962 45.8058 63.6757 45.7009C63.5247 44.8524 63.4538 44.0413 63.3885 43.3075V43.3167C63.3941 43.1685 63.3854 43.0266 63.3471 42.8872C63.3276 42.8187 63.2993 42.7488 63.2478 42.6948C63.1972 42.6392 63.1247 42.6142 63.0593 42.6167L63.0735 42.6183C62.9712 42.5978 62.897 42.6682 62.8545 42.7378C62.8108 42.8095 62.7914 42.8872 62.7763 42.9621C62.7483 43.1138 62.7488 43.2579 62.7424 43.3963C62.7335 43.6741 62.7316 43.9357 62.7385 44.18C62.7466 44.6726 62.8442 45.0809 62.8786 45.4165C62.9228 45.7521 62.9559 46.0128 62.9701 46.1882C62.9862 46.2716 62.927 46.3253 62.8959 46.3395C62.8609 46.3569 62.8397 46.3594 62.8403 46.3629Z" fill="#EB996E"/>
<path d="M16.5404 106.065L46.5321 105.907C50.1392 105.888 53.0504 102.55 53.0351 98.4495L52.7173 12.9813C52.7021 8.87866 49.7633 5.56762 46.154 5.58626L16.162 5.74363C12.555 5.76259 9.64403 9.10113 9.65904 13.2012L9.9768 98.6697C9.99236 102.773 12.9311 106.084 16.5404 106.065Z" fill="#263238"/>
<path d="M16.2047 8.52471L22.0197 8.49438C22.7995 8.49027 23.4347 9.23824 23.4377 10.1648L23.4425 11.3637C23.4458 12.2902 24.0808 13.0381 24.8605 13.034L36.1952 12.9746C36.975 12.9705 37.6043 12.2159 37.601 11.2894L37.5966 10.0905C37.5932 9.16398 38.2226 8.40937 39.0024 8.40526L41.0474 8.39452L46.1367 8.36798C48.6643 8.3547 50.7226 10.6738 50.7332 13.5469L51.0434 96.9699C51.054 99.8417 49.0154 102.18 46.4892 102.193L16.5572 102.35C14.0299 102.363 11.9716 100.045 11.9608 97.1712L11.6505 13.7479C11.64 10.8761 13.6786 8.53798 16.2047 8.52471Z" fill="#FAFAFA"/>
<path d="M14.5782 83.1399H48.1167C49.0046 83.1399 49.7246 82.3215 49.7246 81.3122V27.0332C49.7246 26.0239 49.0046 25.2054 48.1167 25.2054H14.5782C13.6902 25.2054 12.9702 26.0236 12.9702 27.0332V81.3122C12.9702 82.3215 13.69 83.1399 14.5782 83.1399Z" fill="#EBEBEB"/>
<path d="M35.154 38.3052L42.63 57.7699C43.6191 60.3456 41.8024 63.1785 39.3427 62.8951C34.1485 62.2962 26.3656 61.3843 20.9713 60.7507C18.2947 60.4363 16.9617 56.9047 18.6047 54.4822L30.0614 37.5917C31.4453 35.5516 34.2472 35.9441 35.154 38.3052Z" fill="#E8505B"/>
<g opacity="0.5">
<path d="M34.7692 39.6131C34.7762 39.6097 34.7553 39.5458 34.7075 39.4229C34.6825 39.3622 34.6553 39.2836 34.613 39.1963C34.5644 39.1117 34.5085 39.0146 34.4457 38.905C34.3778 38.7982 34.2858 38.6923 34.1921 38.5681C34.0815 38.4651 33.9728 38.3305 33.8263 38.2294C33.5491 38.0019 33.1774 37.8142 32.7368 37.7279C32.2978 37.6423 31.7816 37.6666 31.2667 37.8887C31.0157 38.0123 30.7571 38.1621 30.5297 38.3833C30.4728 38.4383 30.4152 38.4936 30.3571 38.5495C30.304 38.6108 30.254 38.6775 30.2017 38.7423C30.093 38.8728 30.0035 39.0086 29.9079 39.1464C29.147 40.2502 28.2816 41.5063 27.325 42.8945C25.4184 45.6803 23.1497 48.9958 20.631 52.6766C20.3169 53.1386 19.9991 53.6059 19.6775 54.079C19.3366 54.5814 19.1089 55.1973 19.033 55.8435C18.874 57.1357 19.3583 58.5412 20.3257 59.3549C20.8028 59.7648 21.3899 60.0144 21.989 60.0846C22.5536 60.1509 23.123 60.2179 23.6965 60.2856C24.8435 60.4199 26.0072 60.556 27.1848 60.6938C29.5412 60.9672 31.8416 61.2339 34.0634 61.4917C35.1743 61.6194 36.2657 61.7445 37.3344 61.8675C37.6015 61.8981 37.8673 61.9284 38.1317 61.9588L38.5272 62.0036L38.949 62.0188C39.5111 61.9989 40.0624 61.8005 40.5205 61.457C41.446 60.7763 41.9831 59.555 41.94 58.3744C41.9272 58.2278 41.9275 58.0799 41.903 57.9364C41.8752 57.7939 41.8518 57.6504 41.8196 57.5108L41.6901 57.1047C41.6445 56.9751 41.595 56.8563 41.548 56.7325C41.3576 56.2423 41.1702 55.7595 40.9859 55.2852C40.2472 53.3889 39.5589 51.6221 38.9303 50.0089C37.6705 46.7848 36.6444 44.179 35.926 42.3829C35.5643 41.4911 35.2824 40.7966 35.0889 40.3194C34.8924 39.8495 34.7831 39.6062 34.7692 39.6131C34.7556 39.6198 34.8382 39.8767 35.008 40.3589C35.1843 40.8446 35.4409 41.5515 35.7703 42.4594C36.4409 44.2792 37.4244 46.9061 38.6482 50.1483C39.2617 51.769 39.9336 53.5437 40.6551 55.4489C40.836 55.9251 41.0198 56.4092 41.2066 56.9012C41.2522 57.0235 41.3031 57.1489 41.3448 57.2706L41.4568 57.6299C41.4841 57.7531 41.5032 57.8792 41.5274 58.0043C41.5486 58.1301 41.546 58.2597 41.5574 58.3877C41.5897 59.4181 41.1118 60.4868 40.3023 61.0749C39.902 61.3716 39.4246 61.5404 38.9353 61.5552L38.5673 61.5401L38.1722 61.4933C37.9081 61.4617 37.6424 61.4301 37.3752 61.3985C36.3069 61.2718 35.216 61.1425 34.1054 61.0108C31.8839 60.7498 29.584 60.4799 27.2282 60.2031C26.0506 60.0659 24.8869 59.9307 23.7399 59.7973C23.1664 59.731 22.597 59.6649 22.0324 59.5995C21.5014 59.5376 20.9968 59.323 20.5804 58.9685C19.7372 58.266 19.3077 57.0314 19.4437 55.9058C19.5084 55.3424 19.7028 54.8052 20.0024 54.3593C20.3213 53.8856 20.6363 53.4173 20.9476 52.9547C23.4388 49.2496 25.6823 45.9123 27.5679 43.1078C28.5056 41.7032 29.3541 40.4322 30.1 39.3152C30.1931 39.1755 30.2832 39.0342 30.378 38.9173C30.4249 38.8566 30.4697 38.7941 30.5175 38.7362C30.5701 38.6838 30.622 38.6316 30.6735 38.5805C30.8784 38.3716 31.1138 38.2287 31.3434 38.1077C31.8149 37.89 32.2959 37.8521 32.7107 37.9184C33.1268 37.9854 33.484 38.1482 33.7554 38.3526C33.8991 38.4421 34.0064 38.5656 34.1179 38.6582C34.2124 38.7723 34.3061 38.8683 34.3773 38.9669C34.4451 39.0684 34.5051 39.1581 34.5571 39.2362C34.6044 39.3174 34.6372 39.3904 34.6683 39.4463C34.7281 39.5594 34.7626 39.6166 34.7692 39.6131Z" fill="white"/>
</g>
<path opacity="0.5" d="M33.5719 44.0618L32.456 51.819C32.3648 52.4532 31.8719 52.9107 31.3067 52.8855C30.7107 52.8586 30.2378 52.3056 30.2311 51.6278L30.1533 43.6965C30.1475 43.0958 30.6059 42.6253 31.1307 42.6929L32.8035 42.9084C33.3028 42.9725 33.6528 43.4984 33.5719 44.0618Z" fill="white"/>
<path opacity="0.5" d="M29.2462 56.7703C29.4508 57.8018 30.352 58.4496 31.2594 58.217C32.1668 57.9844 32.7367 56.9599 32.5321 55.9285C32.3275 54.8971 31.4262 54.2493 30.5186 54.4819C29.6117 54.7141 29.0418 55.7389 29.2462 56.7703Z" fill="white"/>
<path d="M43.1077 33.7008L48.6747 39.4877C49.4114 40.2534 49.1498 41.6374 48.2015 41.9914C46.1988 42.739 43.1961 43.8536 41.1145 44.6255C40.0817 45.0085 39.0803 43.9544 39.3369 42.7542L41.1261 34.3868C41.3422 33.3763 42.4325 32.9986 43.1077 33.7008Z" fill="#E8505B"/>
<g opacity="0.5">
<path d="M43.1546 34.2551C43.161 34.2488 43.1079 34.1467 42.9452 34.0279C42.7873 33.9132 42.4921 33.7861 42.1196 33.8831C41.9366 33.9315 41.7387 34.038 41.5694 34.2228C41.3998 34.402 41.2781 34.6918 41.2236 34.9695C41.0963 35.5188 40.952 36.1416 40.793 36.8289C40.4833 38.2136 40.1157 39.8559 39.7079 41.6782C39.6579 41.9073 39.6073 42.1393 39.5561 42.3741C39.4978 42.6442 39.5019 42.9397 39.5728 43.2165C39.7121 43.7714 40.1266 44.2388 40.6467 44.3718C40.9042 44.4407 41.1833 44.4217 41.4337 44.3285C41.6517 44.2479 41.8716 44.1667 42.0929 44.0852C42.5355 43.9212 42.9844 43.7547 43.439 43.5862C44.3475 43.2468 45.2343 42.9154 46.0911 42.5953C46.5189 42.4341 46.9393 42.2758 47.351 42.1206C47.4538 42.0818 47.5561 42.0429 47.6579 42.0047L47.8102 41.9468L47.9826 41.8666C48.2064 41.743 48.3982 41.5487 48.5283 41.3158C48.7932 40.8509 48.8152 40.2505 48.6098 39.7835C48.5594 39.6659 48.4944 39.5604 48.4241 39.4612L48.3079 39.3253L48.2003 39.2144C48.0585 39.07 47.9189 38.9278 47.7819 38.7881C47.2323 38.2316 46.7202 37.7127 46.2515 37.2381C45.3135 36.2933 44.5496 35.5352 44.015 35.0195C43.4801 34.5031 43.1749 34.2298 43.1546 34.2551C43.1343 34.2804 43.4009 34.6014 43.9004 35.1607C44.4 35.72 45.1325 36.5176 46.0438 37.4953C46.5014 37.9836 47.0018 38.5173 47.5383 39.0899C47.6732 39.2327 47.81 39.3781 47.9492 39.5256L48.0521 39.6359L48.1355 39.7374C48.1847 39.811 48.2308 39.8875 48.2653 39.9721C48.4071 40.3068 48.3846 40.7407 48.1928 41.0671C48.0985 41.2305 47.964 41.3635 47.8049 41.4488L47.6815 41.5044L47.5289 41.56C47.4269 41.5973 47.324 41.6349 47.2209 41.6725C46.808 41.8239 46.3866 41.9784 45.9576 42.1358C45.1 42.4527 44.2124 42.7811 43.3033 43.1173C42.8493 43.2867 42.4004 43.4538 41.9581 43.6188C41.737 43.7016 41.5174 43.7837 41.2998 43.8649C41.114 43.9338 40.9236 43.9471 40.741 43.9007C40.3743 43.8119 40.0707 43.4756 39.9701 43.0835C39.9184 42.8876 39.912 42.679 39.9528 42.4799C40.0012 42.2461 40.049 42.0148 40.0963 41.7863C40.4699 39.9544 40.8069 38.3037 41.0907 36.912C41.2269 36.2187 41.3501 35.5899 41.4588 35.0356C41.5044 34.7597 41.5836 34.5553 41.717 34.3878C41.8482 34.2266 42.0089 34.1242 42.1629 34.0693C42.476 33.9587 42.7451 34.037 42.9038 34.1163C43.0673 34.1976 43.1412 34.2734 43.1546 34.2551Z" fill="white"/>
</g>
<path opacity="0.5" d="M43.3546 36.1195L44.0623 39.1894C44.1202 39.4403 44.0042 39.701 43.7921 39.7971C43.5683 39.8985 43.3142 39.7826 43.2139 39.5335L42.0407 36.6219C41.9518 36.4014 42.053 36.1422 42.2564 36.0696L42.9047 35.8373C43.0982 35.7678 43.3031 35.8967 43.3546 36.1195Z" fill="white"/>
<path opacity="0.5" d="M43.5928 41.6144C43.8171 41.9569 44.243 42.0277 44.5444 41.7727C44.8457 41.5177 44.908 41.0336 44.6837 40.691C44.4593 40.3488 44.0334 40.2777 43.7321 40.5327C43.4307 40.7877 43.3684 41.2722 43.5928 41.6144Z" fill="white"/>
<path d="M21.7462 35.496L23.0092 42.0388C23.1763 42.9046 22.4612 43.6545 21.7156 43.395C20.1411 42.8477 17.7825 42.0233 16.1479 41.4513C15.3367 41.1675 15.1148 39.9819 15.7539 39.3471L20.2094 34.9202C20.7474 34.3856 21.593 34.7025 21.7462 35.496Z" fill="#E8505B"/>
<g opacity="0.5">
<path d="M21.5567 35.8739C21.5664 35.8723 21.5761 35.7791 21.5214 35.6167C21.468 35.4596 21.3301 35.2211 21.0493 35.0871C20.9112 35.0217 20.7391 34.9859 20.5528 35.0169C20.3699 35.0428 20.1686 35.1705 20.023 35.3193C19.7222 35.604 19.3819 35.9257 19.0071 36.28C18.2579 37.0042 17.3711 37.8616 16.3876 38.8124C16.2647 38.9331 16.1401 39.0551 16.0142 39.1786C15.8644 39.3262 15.7451 39.525 15.6781 39.7462C15.5416 40.1889 15.6242 40.7191 15.9147 41.0851C16.0573 41.2683 16.2513 41.4045 16.4551 41.4756C16.6261 41.536 16.7984 41.5967 16.9722 41.6577C17.3197 41.7793 17.6722 41.9029 18.0291 42.028C18.7436 42.2758 19.4411 42.5175 20.115 42.751C20.4522 42.8667 20.7833 42.9801 21.1077 43.0914L21.3499 43.1738L21.4702 43.2146L21.6178 43.2528C21.8174 43.2898 22.0254 43.2623 22.2078 43.1767C22.5753 43.0082 22.836 42.6211 22.8916 42.2015C22.9064 42.0969 22.9067 41.992 22.9005 41.889L22.8794 41.7373L22.8544 41.6109C22.8207 41.4463 22.7874 41.2841 22.7549 41.1249C22.6225 40.4894 22.4988 39.8966 22.386 39.3537C22.1569 38.2717 21.9645 37.398 21.8216 36.7966C21.6787 36.1956 21.5861 35.8666 21.5567 35.8739C21.5275 35.8812 21.5645 36.2244 21.6562 36.8383C21.7482 37.4523 21.895 38.3374 22.0857 39.4292C22.183 39.9762 22.2892 40.5731 22.4029 41.2134C22.4318 41.3736 22.4616 41.5366 22.4913 41.7022L22.513 41.8248L22.5252 41.9269C22.5272 41.9951 22.5261 42.0637 22.515 42.1313C22.4744 42.4012 22.2978 42.6518 22.0601 42.7548C21.9423 42.8076 21.8122 42.8218 21.6848 42.7962L21.5898 42.77L21.4705 42.7273L21.2295 42.6411C20.9062 42.526 20.5759 42.4088 20.2401 42.2893C19.567 42.0527 18.8707 41.8078 18.157 41.5569C17.8001 41.4327 17.4473 41.3101 17.0995 41.189C16.9255 41.129 16.7528 41.0693 16.5816 41.0099C16.4429 40.9615 16.3242 40.8781 16.2316 40.7624C16.0439 40.533 15.9858 40.1829 16.0712 39.8982C16.1129 39.7553 16.1863 39.6264 16.2858 39.5253C16.409 39.4005 16.531 39.2772 16.6514 39.1553C17.6119 38.1744 18.4778 37.2902 19.2095 36.5432C19.5687 36.1684 19.8945 35.8284 20.1828 35.5276C20.433 35.2204 20.7535 35.1803 20.9912 35.2678C21.2303 35.3519 21.3715 35.5336 21.4433 35.6622C21.5172 35.794 21.5378 35.8793 21.5567 35.8739Z" fill="white"/>
</g>
<path opacity="0.5" d="M20.9462 37.1667L20.1825 39.4886C20.12 39.6786 19.9429 39.7857 19.7694 39.7383C19.5865 39.6884 19.47 39.4845 19.5045 39.2744L19.9084 36.8153C19.939 36.6292 20.1061 36.5154 20.2651 36.5729L20.771 36.7562C20.9217 36.8109 21.0018 36.9979 20.9462 37.1667Z" fill="white"/>
<path opacity="0.5" d="M18.9227 40.7969C18.9302 41.1303 19.1743 41.3935 19.4676 41.3846C19.7609 41.3761 19.9925 41.0987 19.9847 40.7653C19.9772 40.4319 19.7331 40.1687 19.4398 40.1772C19.1465 40.1861 18.9149 40.4635 18.9227 40.7969Z" fill="white"/>
<path d="M45.3646 64.4675C45.3719 64.4754 45.4411 64.4024 45.5606 64.2627C45.6215 64.1942 45.6932 64.107 45.7675 63.9973C45.8428 63.8889 45.9351 63.7698 46.0179 63.6228C46.1972 63.3394 46.3802 62.9776 46.5517 62.5586C46.716 62.1361 46.8644 61.6542 46.9662 61.1328C47.0624 60.6098 47.1019 60.1013 47.1055 59.639C47.101 59.1767 47.0657 58.7612 47.0048 58.419C46.9823 58.2464 46.9417 58.0947 46.9123 57.9604C46.8842 57.8258 46.8505 57.7127 46.82 57.6217C46.7616 57.4387 46.7249 57.3398 46.7157 57.3436C46.6893 57.3534 46.815 57.7592 46.9039 58.4379C46.9509 58.7767 46.9751 59.1849 46.9723 59.6375C46.9615 60.0897 46.9192 60.5861 46.825 61.0977C46.7254 61.6077 46.5842 62.0798 46.4299 62.4969C46.2687 62.9106 46.0986 63.2711 45.9331 63.5581C45.6054 64.1351 45.3441 64.4463 45.3646 64.4675Z" fill="#263238"/>
<path d="M42.9436 64.8657C42.9495 64.8749 43.0337 64.8139 43.1816 64.6944C43.2567 64.6363 43.3459 64.5611 43.4412 64.4622C43.5374 64.3648 43.6534 64.2606 43.7632 64.124C43.9959 63.8656 44.2427 63.5233 44.484 63.1182C44.7178 62.7074 44.9419 62.2303 45.1193 61.7016C45.2905 61.1701 45.397 60.643 45.4573 60.1582C45.509 59.6722 45.5198 59.2298 45.4934 58.8614C45.4895 58.6765 45.462 58.5116 45.4456 58.3662C45.4306 58.2205 45.4067 58.0973 45.3836 57.9974C45.3408 57.7971 45.3127 57.6881 45.303 57.6909C45.2747 57.6975 45.3708 58.1406 45.3914 58.8671C45.4045 59.2298 45.3831 59.6628 45.3255 60.1374C45.2591 60.6104 45.1515 61.1246 44.9839 61.6441C44.8104 62.1611 44.5952 62.629 44.3725 63.0357C44.1424 63.4367 43.9088 63.7796 43.6895 64.0438C43.2541 64.5766 42.9261 64.8395 42.9436 64.8657Z" fill="#263238"/>
<path d="M17.0865 61.5009C17.1107 61.4864 16.8944 61.0456 16.649 60.2869C16.5241 59.9086 16.4049 59.4463 16.3015 58.9262C16.2058 58.4041 16.1305 57.8233 16.1016 57.2087C16.0785 56.5934 16.1043 56.0069 16.1558 55.477C16.2147 54.948 16.2945 54.475 16.3871 54.0847C16.5675 53.3029 16.7457 52.8406 16.7204 52.8286C16.7112 52.8242 16.6615 52.9364 16.5789 53.1446C16.4935 53.3513 16.3921 53.6619 16.2884 54.0534C16.1822 54.4443 16.0905 54.9218 16.0235 55.4577C15.964 55.9949 15.9334 56.5912 15.957 57.2166C15.9862 57.8413 16.0668 58.4313 16.1714 58.9596C16.2834 59.4861 16.4146 59.9513 16.5533 60.3286C16.6895 60.7068 16.8166 61.0051 16.9192 61.2017C17.019 61.3998 17.0779 61.5066 17.0865 61.5009Z" fill="#263238"/>
<path d="M14.8551 60.8503C14.8787 60.836 14.7053 60.4758 14.5196 59.8549C14.4248 59.5455 14.3386 59.1669 14.2688 58.7422C14.206 58.3159 14.164 57.8419 14.1645 57.343C14.1701 56.8437 14.2185 56.3706 14.2866 55.9453C14.3616 55.5216 14.4526 55.1446 14.5512 54.8368C14.7447 54.219 14.9226 53.8619 14.8993 53.8471C14.8907 53.8414 14.8406 53.9267 14.757 54.0866C14.6708 54.2449 14.566 54.4873 14.4553 54.7957C14.3425 55.1035 14.2393 55.4843 14.1557 55.9156C14.0786 56.3482 14.0255 56.8317 14.0197 57.342C14.0189 57.8521 14.0661 58.3365 14.1376 58.77C14.216 59.2023 14.3141 59.585 14.4231 59.8944C14.5296 60.2044 14.6316 60.4486 14.7155 60.6082C14.7973 60.7697 14.8462 60.8556 14.8551 60.8503Z" fill="#263238"/>
<path d="M16.2853 78.8515H45.1912C45.8397 78.8515 46.3657 78.2536 46.3657 77.5164V70.9828C46.3657 70.2456 45.84 69.6477 45.1912 69.6477H16.2853C15.6367 69.6477 15.1107 70.2456 15.1107 70.9828V77.5164C15.1107 78.254 15.6367 78.8515 16.2853 78.8515Z" stroke="#E8505B" stroke-miterlimit="10"/>
<path d="M37.0762 76.2856L35.7017 72.7065H35.1914L33.7266 76.2856H34.2661L34.6836 75.2017H36.1802L36.5732 76.2856H37.0762ZM36.0435 74.8159H34.8301L35.2036 73.8247C35.3175 73.5236 35.4022 73.2762 35.4575 73.0825C35.5031 73.312 35.5674 73.5399 35.6504 73.7661L36.0435 74.8159ZM33.3677 76.2856V72.7065H32.894V75.8633H31.1313V76.2856H33.3677ZM30.5552 76.2856V72.7065H27.9673V73.1289H30.0815V74.2251H28.1016V74.645H30.0815V75.8633H27.8843V76.2856H30.5552ZM27.2227 76.2856V72.7065H25.6357C25.3167 72.7065 25.0742 72.7391 24.9082 72.8042C24.7422 72.8677 24.6095 72.9808 24.5103 73.1436C24.411 73.3063 24.3613 73.4862 24.3613 73.6831C24.3613 73.937 24.4435 74.151 24.6079 74.3252C24.7723 74.4993 25.0262 74.61 25.3696 74.6572C25.2443 74.7174 25.1491 74.7769 25.084 74.8354C24.9456 74.9624 24.8146 75.1211 24.6909 75.3115L24.0684 76.2856H24.6641L25.1377 75.541C25.276 75.3262 25.39 75.1618 25.4795 75.0479C25.569 74.9339 25.6496 74.8542 25.7212 74.8086C25.7912 74.763 25.8628 74.7313 25.936 74.7134C25.9897 74.702 26.0776 74.6963 26.1997 74.6963H26.749V76.2856H27.2227ZM26.749 74.2861H25.731C25.5145 74.2861 25.3452 74.2642 25.2231 74.2202C25.1011 74.1746 25.0083 74.103 24.9448 74.0054C24.8813 73.9061 24.8496 73.7987 24.8496 73.6831C24.8496 73.5138 24.9115 73.3747 25.0352 73.2656C25.1572 73.1566 25.3509 73.1021 25.6162 73.1021H26.749V74.2861ZM22.7988 76.2856V73.1289H23.978V72.7065H21.1411V73.1289H22.3252V76.2856H22.7988Z" fill="#E8505B"/>
<path d="M12.9697 22.7166H49.7241V28.4555H12.9697V22.7166Z" fill="#E0E0E0"/>
<path d="M47.4594 26.4252C47.0773 26.4252 46.7675 26.0731 46.7675 25.6387C46.7675 25.2043 47.0773 24.8522 47.4594 24.8522C47.8416 24.8522 48.1514 25.2043 48.1514 25.6387C48.1514 26.0731 47.8416 26.4252 47.4594 26.4252Z" fill="#F5F5F5"/>
<path d="M44.622 26.4252C44.2399 26.4252 43.9301 26.0731 43.9301 25.6387C43.9301 25.2043 44.2399 24.8522 44.622 24.8522C45.0042 24.8522 45.314 25.2043 45.314 25.6387C45.314 26.0731 45.0042 26.4252 44.622 26.4252Z" fill="#F5F5F5"/>
<path d="M41.0932 25.6387C41.0932 26.0729 41.4029 26.4252 41.7851 26.4252C42.1671 26.4252 42.4771 26.0732 42.4771 25.6387C42.4771 25.2042 42.1674 24.8522 41.7851 24.8522C41.4029 24.8522 41.0932 25.2042 41.0932 25.6387Z" fill="#F5F5F5"/>
<path d="M71.0882 33.0727C71.3762 32.9922 72.7634 32.6047 75.447 31.8552L75.415 31.8495C76.3735 32.5444 77.6721 33.1053 79.1774 33.1318C79.9264 33.1287 80.7184 33.0263 81.509 32.7447C82.2988 32.4651 83.0756 32.0012 83.7811 31.3755C85.1934 30.1339 86.2929 28.1438 86.5303 25.8534C86.6515 24.7158 86.5703 23.5194 86.2589 22.3742C85.9417 21.2319 85.3946 20.1496 84.6574 19.2386C84.2837 18.7573 83.844 18.3576 83.395 17.9885C83.1592 17.8232 82.9271 17.6513 82.6841 17.5059L82.3136 17.3031L82.1287 17.2023L81.9366 17.1223C80.9208 16.6745 79.8402 16.5014 78.8027 16.5797C77.7641 16.6556 76.7694 16.9861 75.8993 17.5063C75.0277 18.0254 74.2805 18.7308 73.6939 19.5312C73.1056 20.3319 72.6784 21.2272 72.4065 22.1309C72.1346 23.0359 72.0109 23.946 72.0037 24.8059C71.9945 26.5334 72.4696 28.0158 73.0478 29.0978L73.0473 29.0532C71.8357 31.5395 71.2233 32.7956 71.0882 33.0727C71.228 32.7988 71.8616 31.5563 73.1157 29.0975L73.127 29.0753L73.1151 29.0526C72.5516 27.976 72.0923 26.51 72.1093 24.8071C72.1204 23.9593 72.2463 23.0641 72.5168 22.1752C72.7876 21.2872 73.2107 20.409 73.7909 19.6241C74.3697 18.8395 75.105 18.1493 75.9615 17.6418C76.8167 17.1334 77.7927 16.8117 78.8116 16.739C79.8296 16.6638 80.8888 16.8351 81.8841 17.2746L82.0723 17.353L82.2532 17.4522L82.6166 17.6513C82.8545 17.7938 83.0822 17.9629 83.3132 18.1247C83.753 18.4871 84.1845 18.8786 84.5506 19.3508C85.2732 20.2438 85.8097 21.3043 86.1216 22.4235C86.4277 23.5457 86.5083 24.7186 86.3907 25.8351C86.1608 28.0815 85.0866 30.0369 83.7022 31.2621C83.0105 31.8792 82.2485 32.3384 81.4726 32.6171C80.6959 32.8974 79.9166 33.0023 79.1788 33.0098C77.6954 32.9922 76.4116 32.4493 75.4586 31.7711L75.4433 31.7604L75.4264 31.7654C72.7556 32.57 71.3745 32.9865 71.0882 33.0727Z" fill="#263238"/>
<path d="M79.8926 21.1706L79.6622 25.3093C79.6433 25.6477 79.4056 25.9169 79.1078 25.9372C78.7937 25.9583 78.5201 25.696 78.4854 25.3405L78.0812 21.181C78.0506 20.866 78.2697 20.5917 78.5485 20.5961L79.4367 20.6103C79.7014 20.6148 79.9093 20.8701 79.8926 21.1706Z" fill="#E8505B"/>
<path d="M78.1426 28.2651C78.2972 28.7947 78.8001 29.0813 79.266 28.9056C79.7317 28.73 79.9841 28.1583 79.8295 27.6287C79.675 27.0991 79.1721 26.8125 78.7061 26.9882C78.2402 27.1642 77.9878 27.7358 78.1426 28.2651Z" fill="#E8505B"/>
</g>
<defs>
<clipPath id="clip0_727_6025">
<rect width="95" height="128" fill="white" transform="matrix(-1 0 0 1 95 0)"/>
</clipPath>
</defs>
</svg>
