<svg width="101" height="128" viewBox="0 0 101 128" fill="none" xmlns="http://www.w3.org/2000/svg">
<path d="M9.39893 57.8125C9.39893 32.5763 29.8569 12.1183 55.0931 12.1183C80.3293 12.1183 100.787 32.5763 100.787 57.8125V118C100.787 123.523 96.3101 128 90.7873 128H19.3989C13.8761 128 9.39893 123.523 9.39893 118V57.8125Z" fill="#C5C6C7"/>
<path d="M58.4122 15.2879C58.4122 17.1784 57.8866 18.5576 56.9602 18.5576C56.0338 18.5576 54.8071 16.1401 54.8071 14.2493C54.8071 12.3586 55.8084 11.8644 56.7348 11.8644C57.6612 11.8644 58.4122 13.3972 58.4122 15.2879Z" fill="#1D2345"/>
<path d="M55.4934 14.9423C55.4934 14.9423 56.4662 15.0962 56.7526 16.9424C56.7526 16.9424 56.3518 13.4805 55.6079 13.4038" fill="#1D2345"/>
<path d="M73.2327 15.2879C73.2327 17.1784 73.7586 18.5576 74.6847 18.5576C75.6111 18.5576 76.8377 16.1401 76.8377 14.2493C76.8377 12.3586 75.8365 11.8644 74.9101 11.8644C73.9837 11.8644 73.2327 13.3972 73.2327 15.2879Z" fill="#29353C"/>
<path d="M76.1515 14.9423C76.1515 14.9423 75.1786 15.0962 74.8923 16.9424C74.8923 16.9424 75.2931 13.4805 76.037 13.4038" fill="#29353C"/>
<path d="M70.971 35.778H60.9033V23.054H70.971V35.778Z" fill="#29353C"/>
<mask id="mask0_285_6440" style="mask-type:luminance" maskUnits="userSpaceOnUse" x="60" y="23" width="11" height="14">
<path d="M70.4046 36.203H60.3369V23.4791H70.4046V36.203Z" fill="white"/>
</mask>
<g mask="url(#mask0_285_6440)">
<path d="M75.233 13.4009C75.233 20.8355 71.2531 26.8621 66.3433 26.8621C61.434 26.8621 57.4536 20.8355 57.4536 13.4009C57.4536 5.9664 61.434 -0.0605106 66.3433 -0.0605106C71.2531 -0.0605106 75.233 5.9664 75.233 13.4009Z" fill="#29353C"/>
</g>
<path d="M75.2223 13.4382C75.2223 18.0848 73.6321 22.4201 71.0736 24.4404C69.5385 25.6525 67.273 26.9146 65.772 26.9146C64.2711 26.9146 62.1074 25.7555 60.5724 24.5434C58.0142 22.5232 56.4229 18.0848 56.4229 13.4382C56.4229 6.00364 60.6311 2.85828 65.8226 2.85828C71.0141 2.85828 75.2223 6.00364 75.2223 13.4382Z" fill="#27343A"/>
<path d="M62.6786 5.05622C62.6786 5.05622 63.222 14.8342 74.91 12.6935C79.2267 11.9027 82.3015 -2.28496 70.9714 0.318439C70.9714 0.318439 62.9171 1.45233 60.7761 1.86474C51.2649 3.69637 55.9843 13.5131 55.9843 13.5131C55.9843 13.5131 59.2451 5.8081 62.6786 5.05622Z" fill="#29363C"/>
<path d="M65.2622 14.1322C65.2657 14.7598 65.2302 15.3826 65.172 16.0028C65.1417 16.3127 65.1117 16.6226 65.0707 16.9314C65.0333 17.2405 64.9882 17.5485 64.9404 17.8565L64.9196 17.7767C65.042 17.9551 65.1906 18.1319 65.3551 18.2805C65.5187 18.4327 65.7105 18.5567 65.9405 18.5954C65.7056 18.6244 65.469 18.5216 65.2693 18.3951C65.0677 18.262 64.8953 18.0996 64.7382 17.9098L64.7136 17.8803L64.7175 17.83C64.7418 17.5192 64.7691 17.2088 64.8038 16.8997C64.8352 16.5897 64.8775 16.2809 64.9191 15.9724C65.0054 15.3559 65.1141 14.7415 65.2622 14.1322Z" fill="#A6B1C3"/>
<path d="M89.6243 45.7785C89.6243 38.4912 79.105 32.5836 66.1287 32.5836C53.1526 32.5836 42.6333 38.4912 42.6333 45.7785L53.2318 83.1973L81.1665 82.991L89.6243 45.7785Z" fill="#29353C"/>
<path d="M53.8436 80.9306L53.2319 83.1986C53.2319 83.1986 49.3578 94.744 48.9499 102.372C48.5423 110 48.3062 127.72 48.3062 127.72H87.1731C87.1731 127.72 86.0604 106.701 85.4487 100.723C84.837 94.744 81.1667 82.9923 81.1667 82.9923L53.8436 80.9306Z" fill="#29363C"/>
<path d="M58.5334 33.0985L60.9802 30.2123L71.3795 29.8002L73.8262 33.3046L69.748 38.4589L58.5334 33.0985Z" fill="#29353C"/>
<path d="M39.648 21.285C39.4226 23.1158 39.1112 24.9284 38.7249 26.728C38.3337 28.5248 37.8662 30.3092 37.2291 32.0362C36.909 32.8982 36.5407 33.7449 36.088 34.5459C35.8681 34.9503 35.6064 35.3307 35.3313 35.6989C35.0414 36.0558 34.7234 36.3933 34.3644 36.6781C33.6555 37.2573 32.8474 37.7029 32.2079 38.355C31.8912 38.6804 31.635 39.0716 31.5022 39.5105C31.3662 39.9483 31.3492 40.4148 31.3864 40.8717C31.3438 40.4151 31.3544 39.9477 31.4858 39.5055C31.6137 39.0622 31.868 38.6633 32.183 38.3316C32.8204 37.6653 33.6252 37.2084 34.3213 36.6245C34.6745 36.3369 34.9816 36.0019 35.2641 35.6458C35.5315 35.2779 35.7859 34.8992 35.999 34.4951C36.4377 33.6952 36.7931 32.8496 37.1007 31.9884C37.7132 30.2631 38.1566 28.4801 38.5241 26.6846C38.8869 24.8889 39.1756 23.0736 39.3764 21.2552L39.648 21.285Z" fill="#AC54A2"/>
<path d="M39.5122 21.2701C39.5122 21.2701 38.6541 33.8543 35.1349 36.8916C31.6156 39.9292 30.2423 43.2271 35.5638 46.0042C40.8858 48.7816 42.8596 48.0872 44.834 45.744C46.8081 43.4005 42.6023 21.0099 42.6023 21.0099L39.5122 21.2701Z" fill="black"/>
<path d="M60.0188 21.2701C60.0188 21.2701 60.8771 33.8543 64.3964 36.8916C67.9157 39.9292 69.2887 43.2271 63.9672 46.0042C58.6454 48.7816 56.6713 48.0872 54.697 45.744C52.7229 43.4005 54.7907 21.0099 54.7907 21.0099L60.0188 21.2701Z" fill="black"/>
<path d="M29.3046 80.3258C24.6197 81.6663 9.76318 63.4467 9.76318 63.4467L13.7655 58.355L25.6589 67.4508C25.6589 67.4508 30.8673 48.8723 32.6728 47.1006C36.2956 43.5456 42.1176 41.9236 49.8159 41.9236C56.3679 41.9236 61.0676 43.0575 64.8967 45.7642C67.8094 47.8229 68.3892 51.1412 69.471 53.7811C72.9433 62.2525 75.0621 64.9844 75.0621 64.9844L83.9245 47.7094L89.4105 50.7702C89.4105 50.7702 82.3487 77.7868 73.7241 77.4235C68.2304 77.1921 62.409 59.6342 62.409 59.6342C62.409 59.6342 60.8646 70.9663 60.9326 73.2064C61.0001 75.4472 65.6086 86.6707 65.6086 86.6707C55.9663 89.2981 46.3565 89.5691 36.7726 87.9786C36.7726 87.9786 39.8832 77.5614 39.9209 73.6263C39.9591 69.6912 37.2302 60.0229 37.2302 60.0229C37.2302 60.0229 35.3703 78.59 29.3046 80.3258Z" fill="#818181"/>
<path d="M41.9976 25.7845C41.9976 27.2062 41.472 28.2434 40.5456 28.2434C39.6192 28.2434 38.3926 26.4253 38.3926 25.0033C38.3926 23.5813 39.3938 23.2098 40.3202 23.2098C41.2466 23.2098 41.9976 24.3622 41.9976 25.7845Z" fill="#FFD1BD"/>
<path d="M39.0793 25.5222C39.2547 25.5272 39.4258 25.5907 39.5837 25.6747C39.7437 25.7587 39.882 25.8813 40.0041 26.0172C40.1208 26.1584 40.2202 26.3144 40.2956 26.4813C40.3702 26.6487 40.4267 26.8221 40.4674 26.9992L40.2079 27.047C40.1194 26.5614 40.0153 26.0719 39.8853 25.596C39.82 25.3579 39.7465 25.122 39.65 24.898C39.552 24.6817 39.4402 24.4386 39.1938 24.3651C39.3219 24.3593 39.446 24.4331 39.5397 24.5217C39.635 24.6118 39.7162 24.7154 39.7834 24.8259C39.9202 25.046 40.0202 25.2838 40.1082 25.5233C40.2784 26.0062 40.392 26.5003 40.4685 27.0061C40.4795 27.0787 40.4303 27.1467 40.3582 27.158C40.2896 27.1685 40.2257 27.1238 40.2098 27.0566L40.2093 27.0536L40.1535 26.8105C40.1273 26.7321 40.1076 26.6506 40.077 26.5744C40.0169 26.4211 39.9478 26.2708 39.8547 26.1349C39.6705 25.8656 39.411 25.6305 39.0793 25.5222Z" fill="#1D2345"/>
<path d="M56.8186 25.7845C56.8186 27.2062 57.3445 28.2434 58.2706 28.2434C59.197 28.2434 60.4237 26.4253 60.4237 25.0033C60.4237 23.5813 59.4224 23.2098 58.496 23.2098C57.5696 23.2098 56.8186 24.3622 56.8186 25.7845Z" fill="#FFD1BD"/>
<path d="M59.7371 25.5222C59.4055 25.6305 59.146 25.8656 58.9618 26.1349C58.8687 26.2708 58.7995 26.4211 58.7394 26.5744C58.7088 26.6506 58.6892 26.7321 58.663 26.8105L58.6072 27.0536L58.6067 27.0561C58.5903 27.1279 58.5195 27.1727 58.4485 27.1561C58.381 27.1404 58.3376 27.0743 58.348 27.0061C58.4245 26.5003 58.5381 26.0062 58.7083 25.5233C58.7963 25.2839 58.896 25.046 59.0331 24.8259C59.1003 24.7154 59.1815 24.6118 59.2768 24.5218C59.3705 24.4331 59.4946 24.3593 59.6227 24.3651C59.3763 24.4386 59.2645 24.6817 59.1664 24.898C59.07 25.122 58.9965 25.3579 58.9312 25.596C58.8012 26.0719 58.6971 26.5614 58.6086 27.047L58.3491 26.9992C58.3898 26.8221 58.4463 26.6487 58.5209 26.4813C58.5963 26.3144 58.6957 26.1584 58.8124 26.0172C58.9345 25.8813 59.073 25.7587 59.2328 25.6747C59.3907 25.5907 59.5618 25.5272 59.7371 25.5222Z" fill="#1D2345"/>
<path d="M40.8857 28.604C40.8857 28.9637 40.5972 29.2548 40.2418 29.2548C39.8861 29.2548 39.5981 28.9637 39.5981 28.604C39.5981 28.2444 39.8861 27.953 40.2418 27.953C40.5972 27.953 40.8857 28.2444 40.8857 28.604Z" fill="white"/>
<path d="M59.2111 28.604C59.2111 28.9637 58.9229 29.2548 58.5672 29.2548C58.2121 29.2548 57.9236 28.9637 57.9236 28.604C57.9236 28.2444 58.2121 27.953 58.5672 27.953C58.9229 27.953 59.2111 28.2444 59.2111 28.604Z" fill="white"/>
<path d="M49.5229 46.2911C46.7429 46.2911 44.489 44.0122 44.489 41.2014V33.5671H54.5567V41.2014C54.5567 44.0122 52.3029 46.2911 49.5229 46.2911Z" fill="#FFD1BD"/>
<mask id="mask1_285_6440" style="mask-type:luminance" maskUnits="userSpaceOnUse" x="44" y="36" width="11" height="14">
<path d="M54.6739 49.0789H44.6062V36.3549H54.6739V49.0789Z" fill="white"/>
</mask>
<g mask="url(#mask1_285_6440)">
<path d="M69.5699 25.0098C69.5699 32.4443 65.59 38.4709 60.6802 38.4709C55.7709 38.4709 51.7905 32.4443 51.7905 25.0098C51.7905 17.5752 55.7709 11.5483 60.6802 11.5483C65.59 11.5483 69.5699 17.5752 69.5699 25.0098Z" fill="#FFD1BD"/>
</g>
<path d="M58.808 23.9508C58.808 31.3853 53.4103 36.051 49.4083 36.051C45.4063 36.051 40.0085 31.3853 40.0085 23.9508C40.0085 16.5165 44.2168 13.3706 49.4083 13.3706C54.5997 13.3706 58.808 16.5165 58.808 23.9508Z" fill="#FFD1BD"/>
<path d="M46.2645 15.5711C46.2645 15.5711 46.8079 25.3492 58.4959 23.2084C62.8126 22.4176 58.0525 8.85946 46.7221 11.4631C46.7221 11.4631 42.6371 7.68332 38.8255 10.5955C31.1002 16.497 39.9699 23.2664 39.9699 23.2664C39.9699 23.2664 42.8311 16.3233 46.2645 15.5711Z" fill="black"/>
<path d="M58.8311 19.167C58.9406 19.157 58.998 19.1758 59.0654 19.1998C59.1316 19.2217 59.1865 19.2556 59.2408 19.2896C59.346 19.3609 59.4381 19.4432 59.5157 19.5338C59.6785 19.7106 59.7982 19.9106 59.9118 20.1116C60.1243 20.5196 60.294 20.9434 60.4281 21.3759C60.7043 22.2394 60.886 23.1239 61.0475 24.0094C61.3368 25.7869 61.5504 27.5661 61.8629 29.3325C62.1853 31.0921 62.5609 32.8585 63.2808 34.4993C63.6458 35.3116 64.0701 36.1088 64.6419 36.7958C65.2054 37.4875 65.8775 38.0846 66.6252 38.5708C65.8718 38.0946 65.1904 37.5049 64.6156 36.8179C64.0324 36.1351 63.5961 35.3395 63.2185 34.5275C62.4741 32.8872 62.0744 31.1175 61.7288 29.3577C61.3933 27.5931 61.1559 25.8085 60.8458 24.0467C60.6743 23.1697 60.4825 22.2946 60.2014 21.4524C60.0648 21.0304 59.8938 20.6213 59.6883 20.2379C59.5793 20.0509 59.4646 19.8661 59.322 19.7158C59.2537 19.6374 59.1764 19.5719 59.0971 19.5191C59.0564 19.4948 59.0166 19.4703 58.9761 19.4584C58.9412 19.4407 58.8857 19.4404 58.8846 19.4377L58.8311 19.167Z" fill="black"/>
<path d="M45.8637 25.1753C45.8637 25.6225 45.5053 25.9852 45.0627 25.9852C44.6205 25.9852 44.2615 25.6225 44.2615 25.1753C44.2615 24.7278 44.6205 24.3651 45.0627 24.3651C45.5053 24.3651 45.8637 24.7278 45.8637 25.1753Z" fill="#1D2345"/>
<path d="M42.0857 22.9644C43.094 22.7887 44.0934 22.5597 45.069 22.2683C45.5555 22.1169 46.0265 21.9274 46.4947 21.7454C46.9627 21.5595 47.4198 21.3507 47.7987 21.0026L47.8205 21.0192C47.7468 21.1244 47.6714 21.238 47.5815 21.3357C47.4832 21.4222 47.3873 21.5172 47.2818 21.597C47.175 21.6736 47.0633 21.744 46.9529 21.8175L46.604 21.9987C46.1306 22.2219 45.6271 22.3575 45.1269 22.4815C44.1253 22.7287 43.1102 22.8947 42.089 22.9917L42.0857 22.9644Z" fill="#1D2345"/>
<path d="M52.5017 25.1753C52.5017 25.6225 52.8604 25.9852 53.303 25.9852C53.7453 25.9852 54.1037 25.6225 54.1037 25.1753C54.1037 24.7278 53.7453 24.3651 53.303 24.3651C52.8604 24.3651 52.5017 24.7278 52.5017 25.1753Z" fill="#1D2345"/>
<path d="M56.2773 22.9917C55.2558 22.8947 54.2403 22.7287 53.2391 22.4815C52.7389 22.3575 52.2357 22.2219 51.7619 21.9987L51.4133 21.8175C51.303 21.744 51.191 21.6736 51.0841 21.597C50.979 21.5172 50.8828 21.4222 50.7845 21.3357C50.6946 21.238 50.6194 21.1244 50.5454 21.0192L50.5673 21.0026C50.9465 21.3507 51.4032 21.5595 51.8712 21.7454C52.3395 21.9274 52.8102 22.1169 53.297 22.2683C54.2728 22.5597 55.2722 22.7887 56.2803 22.9644L56.2773 22.9917Z" fill="#1D2345"/>
<path d="M49.183 26.739C49.234 27.0243 49.239 27.3163 49.2007 27.6074C49.1849 27.7538 49.1485 27.8989 49.0977 28.0442C49.0458 28.187 48.968 28.3347 48.8275 28.451C48.7956 28.4822 48.7521 28.5024 48.7082 28.5215L48.6461 28.5483L48.6106 28.5621C48.5806 28.5701 48.5751 28.5814 48.5609 28.5864C48.5601 28.5908 48.5639 28.5806 48.5606 28.5745C48.556 28.5764 48.583 28.6306 48.6267 28.6681C48.6696 28.7085 48.721 28.7474 48.7748 28.7853C48.998 28.9275 49.2491 29.046 49.5264 29.1112C49.2403 29.1612 48.942 29.0974 48.671 28.9736C48.6027 28.941 48.5352 28.9038 48.4708 28.8518C48.4104 28.7977 48.3325 28.7419 48.3036 28.6027C48.2915 28.5234 48.3287 28.4477 48.374 28.3988C48.4164 28.3618 48.4653 28.3264 48.5041 28.3146L48.5664 28.2889L48.6 28.2712C48.6205 28.2615 48.6423 28.2535 48.6603 28.2328C48.7415 28.1729 48.8092 28.064 48.8592 27.9444C48.915 27.8268 48.954 27.6967 48.9925 27.5641C49.0669 27.2983 49.1209 27.0213 49.183 26.739Z" fill="#1D2345"/>
<path d="M40.0571 19.3208C39.9281 18.9134 39.8626 18.4844 39.8508 18.0535C39.8399 17.6231 39.8806 17.1859 40.0038 16.7666C40.1287 16.3486 40.3327 15.9536 40.5999 15.6064C40.8611 15.2504 41.2154 14.9811 41.5758 14.7421C42.3011 14.2574 43.2288 14.072 44.0905 14.2353C44.5249 14.309 44.9336 14.4825 45.3128 14.6946C45.6914 14.9128 46.0414 15.1658 46.3553 15.4846L46.7126 15.847L46.2252 15.6915C45.7422 15.5371 45.2294 15.4338 44.7202 15.3799C44.2101 15.3222 43.6916 15.3134 43.187 15.399C42.6816 15.4794 42.194 15.6686 41.7812 15.9757C41.3687 16.2865 41.0682 16.7326 40.8698 17.2207C41.0242 16.7168 41.3072 16.2423 41.7156 15.8931C42.1227 15.5423 42.6338 15.3288 43.1551 15.2255C43.6777 15.117 44.2142 15.1056 44.7423 15.1473C45.2712 15.1979 45.7895 15.2943 46.3044 15.4515L46.1741 15.6586C45.5876 15.0927 44.8336 14.6673 44.0402 14.499C43.2439 14.3402 42.3921 14.4949 41.6984 14.9449C41.3556 15.173 41.0092 15.4062 40.7532 15.7335C40.4904 16.0506 40.2833 16.4169 40.1489 16.813C39.8902 17.6096 39.8743 18.4883 40.0571 19.3208Z" fill="#1D2345"/>
<path d="M36.773 87.9795C36.773 87.9795 33.9212 100.98 34.2974 110.49C34.6738 119.999 36.773 128 36.773 128L53.3034 128L52.5433 106.686L63.2978 128L81.0655 127.999C81.0655 127.999 78.3868 118.864 72.3613 103.006C69.4982 95.4718 65.4574 86.4498 65.4574 86.4498C56.603 88.9817 46.9459 89.2184 36.773 87.9795Z" fill="white"/>
<path d="M47.6089 103.945C48.0359 104.144 48.4544 104.359 48.8762 104.568L50.1291 105.218L51.3707 105.889C51.7827 106.116 52.2004 106.332 52.6075 106.569L52.4733 106.572C53.4331 105.988 54.3827 105.386 55.3512 104.816C56.315 104.238 57.2829 103.667 58.2634 103.116C57.337 103.756 56.3983 104.375 55.4558 104.987C54.5174 105.607 53.5598 106.195 52.6132 106.802L52.5493 106.842L52.4791 106.805C52.0638 106.584 51.6587 106.344 51.2484 106.114L50.0231 105.413L48.8087 104.692C48.4082 104.444 48.0045 104.202 47.6089 103.945Z" fill="#62385E"/>
<path d="M35.5884 93.0789C35.8157 92.9002 36.0394 92.7218 36.2517 92.5281C36.4689 92.3417 36.6779 92.1469 36.8814 91.9464C37.2868 91.5445 37.6726 91.1246 38.0258 90.6783C38.3872 90.2385 38.7074 89.7665 39.0011 89.2773C39.0729 89.1541 39.1486 89.0323 39.218 88.9071L39.4106 88.5232C39.5554 88.2726 39.6447 87.9986 39.7772 87.7384C39.6423 88.3022 39.4576 88.8624 39.185 89.38C39.124 89.5134 39.0571 89.6438 38.979 89.767L38.7536 90.1438C38.5869 90.3835 38.4238 90.6269 38.2378 90.852C37.8704 91.3053 37.4688 91.7318 37.0215 92.1036C36.5779 92.4776 36.1044 92.8187 35.5884 93.0789Z" fill="#62385E"/>
<path d="M61.2683 87.0018C61.471 87.2741 61.6762 87.5426 61.8964 87.7981C62.1092 88.0594 62.328 88.3158 62.5605 88.5578C63.0228 89.0431 63.4962 89.5185 64.024 89.9245C64.5472 90.3341 65.1075 90.6927 65.7096 90.9686C66.3185 91.228 66.9671 91.3791 67.6427 91.4214C67.3083 91.4371 66.9649 91.4694 66.6278 91.4084C66.2852 91.3791 65.9618 91.262 65.632 91.1661C64.9867 90.9266 64.3983 90.5593 63.8557 90.1419C63.3164 89.7182 62.8362 89.2254 62.4034 88.6978C61.9737 88.1683 61.5778 87.6092 61.2683 87.0018Z" fill="#62385E"/>
<path d="M50.7048 87.1861C50.8529 88.8142 50.9799 90.4434 51.1097 92.0717L51.493 96.9572C51.6091 98.5864 51.7492 100.214 51.8951 101.839C51.9637 102.653 52.047 103.465 52.1405 104.275C52.194 104.679 52.2249 105.088 52.297 105.488L52.3951 106.093L52.5431 106.686L52.3546 106.102L52.226 105.502C52.1328 105.102 52.082 104.696 52.008 104.294C51.8872 103.485 51.7804 102.674 51.6864 101.862C51.4965 100.237 51.3586 98.6076 51.2209 96.9791C51.1034 95.3485 50.9868 93.7183 50.901 92.0861C50.8147 90.4539 50.7403 88.8208 50.7048 87.1861Z" fill="#62385E"/>
<path d="M12.6401 61.7751C8.95307 65.9958 2.65129 60.3158 0.80424 58.4834C0.562847 58.2439 0.513973 57.8693 0.683134 57.5735L0.766894 57.4271C0.9625 57.0851 1.38617 56.955 1.73673 57.1288L3.37749 57.9433L0.258731 55.2347C0.0138137 55.0217 -0.0670789 54.6737 0.0586169 54.3732C0.232586 53.9572 0.727419 53.7898 1.11404 54.0154L3.60288 55.4706L0.592954 52.6752C0.316893 52.4192 0.273345 51.9946 0.491352 51.6861L0.710863 51.3756C0.950234 51.0375 1.41627 50.9601 1.74976 51.2041L5.24255 53.7586L3.05543 51.3035C2.72246 50.9298 2.84018 50.3373 3.28999 50.1224C3.74319 49.9064 4.27572 49.9503 4.68797 50.2381L10.4871 54.2878L8.94878 51.9289C8.57828 51.3604 8.80954 50.5908 9.43061 50.3273C9.86529 50.1428 10.3666 50.2654 10.6698 50.6301C12.1352 52.391 14.7254 56.4537 14.2793 58.2765C13.7361 60.4962 12.6401 61.7751 12.6401 61.7751Z" fill="#FFD1BD"/>
<path d="M4.51277 58.8511C4.50935 58.8549 4.49941 58.8663 4.49247 58.8558C4.4882 58.8483 4.48747 58.8403 4.48662 58.8326C4.48534 58.8171 4.48586 58.8016 4.48662 58.7864C4.48853 58.756 4.49195 58.7259 4.49599 58.6958C4.50528 58.6362 4.51755 58.577 4.53091 58.5185C4.55735 58.4008 4.58745 58.2843 4.62032 58.1682C4.6899 57.9379 4.76995 57.7108 4.86171 57.4885C5.04314 57.0429 5.26647 56.6142 5.52633 56.2068C5.79046 55.8035 6.09214 55.419 6.45658 55.0966C6.81567 54.774 7.25215 54.5146 7.72277 54.4315C7.28468 54.6188 6.92399 54.9199 6.60364 55.2527C6.28617 55.5902 6.00677 55.9645 5.7547 56.3579C5.4988 56.7493 5.27128 57.1609 5.05434 57.5791C4.94793 57.7893 4.84284 58.0008 4.74465 58.216C4.69365 58.3229 4.64455 58.4307 4.5995 58.5403C4.57677 58.595 4.55544 58.6502 4.53569 58.706C4.52533 58.7337 4.5152 58.7616 4.50689 58.79C4.50293 58.8041 4.49889 58.8185 4.49706 58.8326C4.49301 58.8464 4.49706 58.8665 4.51277 58.8511Z" fill="#1D2345"/>
<path d="M84.9897 52.2404C88.6767 56.4611 94.9787 50.7814 96.8254 48.9486C97.0667 48.7092 97.1159 48.3346 96.9465 48.0388L96.8626 47.8924C96.6673 47.5507 96.2433 47.4203 95.893 47.5943L94.252 48.4083L97.3707 45.6997C97.6158 45.4873 97.6967 45.139 97.571 44.8382C97.3972 44.4224 96.9022 44.2548 96.5159 44.4807L94.0269 45.9362L97.0366 43.1408C97.3128 42.8844 97.3565 42.4599 97.1382 42.1516L96.9186 41.8411C96.6793 41.5025 96.2132 41.4257 95.8799 41.6693L92.3872 44.2241L94.5743 41.7688C94.9074 41.395 94.7896 40.8025 94.3397 40.5876C93.8867 40.3714 93.354 40.4156 92.942 40.7034L87.1427 44.7534L88.6808 42.3941C89.0515 41.8257 88.8201 41.0564 88.1991 40.7929C87.7645 40.6084 87.2632 40.7307 86.9597 41.0951C85.4945 42.8563 82.9044 46.919 83.3505 48.7415C83.8936 50.9612 84.9897 52.2404 84.9897 52.2404Z" fill="#FFD1BD"/>
<path d="M93.1172 49.3164C93.1331 49.3322 93.1369 49.3117 93.1331 49.2982C93.1309 49.2838 93.1271 49.2695 93.1232 49.2554C93.1148 49.2272 93.1047 49.199 93.0943 49.1717C93.0743 49.1156 93.0533 49.0603 93.0306 49.0057C92.9853 48.8963 92.9364 48.7883 92.8853 48.6814C92.7869 48.4662 92.682 48.2543 92.5755 48.0447C92.3586 47.6262 92.131 47.2146 91.875 46.8235C91.6231 46.4302 91.3437 46.0556 91.0262 45.7183C90.706 45.3855 90.3454 45.0844 89.9072 44.8968C90.3779 44.9803 90.8142 45.2391 91.1735 45.562C91.5379 45.8843 91.8392 46.2691 92.1037 46.6724C92.3632 47.0796 92.5867 47.5082 92.7681 47.9538C92.8602 48.1762 92.9402 48.4032 93.0099 48.6336C93.0424 48.7496 93.0727 48.8662 93.0992 48.9838C93.1123 49.0424 93.1243 49.1015 93.1342 49.1612C93.138 49.1913 93.1415 49.2214 93.1432 49.252C93.144 49.267 93.1446 49.2824 93.1432 49.2979C93.1426 49.3054 93.1418 49.3136 93.1372 49.3211C93.1303 49.3319 93.1208 49.3206 93.1172 49.3164Z" fill="#1D2345"/>
<path d="M46.6113 11.5443C46.1862 10.9576 45.6672 10.417 45.1019 9.95078C44.5348 9.48397 43.9013 9.09477 43.2145 8.83816C42.5296 8.57934 41.7846 8.47409 41.0535 8.55696C40.32 8.63265 39.6149 8.90556 38.9731 9.27625C39.6029 8.88622 40.3036 8.58846 41.045 8.48819C41.784 8.38129 42.5498 8.46443 43.2595 8.70778C43.9715 8.94892 44.6331 9.32819 45.2284 9.7881C45.8245 10.2508 46.3641 10.7764 46.8334 11.3841L46.6113 11.5443Z" fill="#AC54A2"/>
<mask id="mask2_285_6440" style="mask-type:luminance" maskUnits="userSpaceOnUse" x="13" y="42" width="77" height="47">
<path d="M28.9406 80.8161C24.2557 82.1566 13.4014 67.941 13.4014 67.941L17.4037 62.8494L25.2949 67.941C25.2949 67.941 29.6001 50.1285 31.4056 48.3565C35.0282 44.8018 41.7536 42.4139 49.4519 42.4139C56.0039 42.4139 61.851 44.1439 65.6804 46.8506C68.5931 48.9092 69.2562 51.7505 70.3383 54.3906C73.8103 62.8618 74.6981 65.4746 74.6981 65.4746L83.5605 48.1996L89.0465 51.2605C89.0465 51.2605 81.9847 78.277 73.3601 77.9138C67.8664 77.6823 62.045 60.1245 62.045 60.1245L59.8909 73.5122L65.3058 88.0158L36.4086 88.4688C36.4086 88.4688 39.5192 78.0516 39.5569 74.1165C39.5951 70.1815 36.8662 60.5131 36.8662 60.5131C36.8662 60.5131 35.0063 79.0803 28.9406 80.8161Z" fill="white"/>
</mask>
<g mask="url(#mask2_285_6440)">
<path d="M32.5208 45.2501C32.5208 45.2501 34.8079 52.4962 37.4 61.284" stroke="#3631A9" stroke-width="0.364701" stroke-miterlimit="10"/>
<path d="M62.5593 60.0505C62.5593 60.0505 62.8642 49.1043 65.9139 44.9416" stroke="#3631A9" stroke-width="0.364701" stroke-miterlimit="10"/>
</g>
<path d="M39.8395 38.7331C42.4468 43.709 51.5698 38.5889 53.7898 37.2439C54.0799 37.0683 54.2143 36.7161 54.1181 36.3879L54.0703 36.2258C53.9597 35.8474 53.578 35.6206 53.1969 35.7068L51.413 36.11L55.0721 34.2149C55.3595 34.066 55.5188 33.7467 55.4663 33.4246C55.3934 32.9793 54.9511 32.699 54.523 32.8271L51.7665 33.653L55.3398 31.6477C55.6674 31.4637 55.8084 31.0612 55.6677 30.7099L55.5259 30.3561C55.3715 29.9704 54.9363 29.7854 54.5558 29.9434L50.5685 31.6002L53.2633 29.731C53.6736 29.4464 53.6963 28.8423 53.3087 28.5272C52.9185 28.2098 52.3902 28.1267 51.923 28.309L45.3473 30.8737L47.3889 28.944C47.8809 28.4791 47.8339 27.6764 47.2913 27.2731C46.9113 26.9911 46.3958 26.9914 46.0163 27.274C44.184 28.6396 39.0647 32.623 39.0764 34.5002C39.0904 36.7871 39.8395 38.7331 39.8395 38.7331Z" fill="#29353C"/>
<path d="M51.5349 51.8083C51.1513 49.2778 49.7957 45.7159 49.1772 44.1771C48.9961 43.7263 48.544 43.4465 48.059 43.4857C47.3668 43.5418 46.8953 44.213 47.0775 44.8829L47.8328 47.6633L43.4405 41.8759C43.1285 41.4643 42.6203 41.2505 42.1076 41.3143C41.5983 41.3781 41.2943 41.9143 41.5016 42.3836L42.8627 45.4657L40.2537 41.8679C40.0048 41.5245 39.5234 41.4497 39.1811 41.7008L38.8672 41.9309C38.5552 42.1599 38.4629 42.585 38.6517 42.9225L40.7105 46.5982L38.7355 44.3884C38.4287 44.0451 37.8903 44.0487 37.5873 44.3959C37.3685 44.647 37.3365 45.0102 37.5089 45.2953L39.7024 48.9218L38.3536 47.6059C38.0657 47.3247 37.6092 47.3147 37.3087 47.5832L37.18 47.6981C36.9196 47.9307 36.8483 48.3091 37.0087 48.6188C37.8856 50.3137 40.8255 55.5987 44.2428 57.406C48.0055 63.0589 64.1023 86.3003 70.5638 80.3115C76.9915 74.3539 56.6845 56.2249 51.5349 51.8083Z" fill="#29353C"/>
<path d="M63.7271 21.9753C63.9292 21.711 64.2029 21.5025 64.5035 21.3511C64.8037 21.1972 65.1381 21.1036 65.4779 21.0823C65.8164 21.0682 66.1623 21.0961 66.4786 21.2163C66.642 21.2583 66.7876 21.3478 66.9376 21.4171C67.0816 21.5005 67.2163 21.5997 67.3468 21.6991C67.1862 21.6533 67.0384 21.5881 66.8849 21.5419C66.7283 21.5044 66.5803 21.4455 66.4235 21.4246C66.1169 21.3527 65.8039 21.3411 65.4968 21.3574C65.1875 21.3715 64.8829 21.4447 64.5868 21.5483C64.2909 21.6544 64.0043 21.7969 63.7271 21.9753Z" fill="#A6B1C3"/>
</svg>
