<svg width="28" height="27" viewBox="0 0 28 27" fill="none" xmlns="http://www.w3.org/2000/svg">
<path d="M22.8187 6.71607H19.2971V3.78606C19.2971 2.23654 18.0293 0.96875 16.4798 0.96875H11.0142C9.46467 0.96875 8.19688 2.23654 8.19688 3.78606V6.68789H4.67523C2.30869 6.68789 0.364746 8.63184 0.364746 10.9984V22.2676C0.364746 24.6342 2.30869 26.5781 4.67523 26.5781H22.8187C25.1853 26.5781 27.1292 24.6342 27.1292 22.2676V10.9984C27.1292 8.63184 25.1853 6.71607 22.8187 6.71607ZM10.8452 3.78606C10.8452 3.70154 10.9297 3.61702 11.0142 3.61702H16.4516C16.5361 3.61702 16.6206 3.70154 16.6206 3.78606V6.68789H10.8452V3.78606ZM18.79 18.4079H15.5219V21.7042H11.9721V18.4079H8.70399V14.8863H12.0002V11.59H15.5219V14.8863H18.8181V18.4079H18.79Z" fill="black"/>
</svg>
