<svg width="25" height="24" viewBox="0 0 25 24" fill="none" xmlns="http://www.w3.org/2000/svg">
<path d="M16.09 12.4V16.47C16.09 16.83 16.05 17.17 15.96 17.48C15.59 18.95 14.37 19.87 12.69 19.87H9.97L6.95 21.88C6.5 22.19 5.9 21.86 5.9 21.32V19.87C4.88 19.87 4.03 19.53 3.44 18.94C2.84 18.34 2.5 17.49 2.5 16.47V12.4C2.5 10.5 3.68 9.19 5.5 9.02C5.63 9.01 5.76 9 5.9 9H12.69C14.73 9 16.09 10.36 16.09 12.4Z" fill="#354752"/>
<path d="M18.25 15.6C19.52 15.6 20.59 15.18 21.33 14.43C22.08 13.69 22.5 12.62 22.5 11.35V6.25C22.5 3.9 20.6 2 18.25 2H9.75C7.4 2 5.5 3.9 5.5 6.25V7C5.5 7.28 5.72 7.5 6 7.5H12.69C15.4 7.5 17.59 9.69 17.59 12.4V15.1C17.59 15.38 17.81 15.6 18.09 15.6H18.25Z" fill="#354752"/>
</svg>
