<svg width="15" height="15" viewBox="0 0 15 15" fill="none" xmlns="http://www.w3.org/2000/svg">
<g clip-path="url(#clip0_417_6715)">
<path d="M14.8531 12.6788L8.02398 1.59461C7.91142 1.41146 7.71109 1.29993 7.49639 1.29993C7.28082 1.29993 7.08122 1.41142 6.96811 1.59461L0.0922084 12.7544C-0.025755 12.9455 -0.030745 13.1861 0.078452 13.382C0.188188 13.5785 0.395209 13.7 0.620526 13.7H14.3716C14.374 13.6992 14.3767 13.6992 14.3797 13.7C14.7223 13.7 15 13.4217 15 13.0797C15.0003 12.9266 14.9449 12.7874 14.8531 12.6788ZM7.08913 4.99284H7.90301V9.93616H7.08913V4.99284ZM7.89847 11.7443C7.77889 11.8566 7.6446 11.9133 7.49585 11.9133C7.34736 11.9133 7.2133 11.8566 7.09358 11.7443C6.97441 11.6304 6.91475 11.4935 6.91475 11.3315C6.91475 11.1704 6.97144 11.0335 7.08441 10.9199C7.19698 10.807 7.3341 10.7503 7.49585 10.7503C7.65697 10.7503 7.79507 10.807 7.90818 10.9199C8.02075 11.0335 8.07771 11.1704 8.07771 11.3315C8.07775 11.4935 8.01724 11.6304 7.89847 11.7443Z" fill="black"/>
</g>
<defs>
<clipPath id="clip0_417_6715">
<rect width="15" height="15" fill="white"/>
</clipPath>
</defs>
</svg>
