<svg width="27" height="29" viewBox="0 0 27 29" fill="none" xmlns="http://www.w3.org/2000/svg">
<path fill-rule="evenodd" clip-rule="evenodd" d="M13.3328 0.116373C8.4243 0.159209 4.0297 3.61829 4.06966 8.19752L4.12247 14.2491C4.12994 15.1046 3.88401 15.9432 3.41569 16.6591L0.52181 21.0831C0.303127 21.4174 0.188293 21.809 0.191779 22.2084C0.201531 23.3259 1.11533 24.2239 2.23282 24.2142L8.87577 24.1562C8.89826 26.7334 11.0058 28.8044 13.583 28.7819C16.1602 28.7595 18.2312 26.652 18.2087 24.0747L24.8517 24.0168C25.9692 24.007 26.8672 23.0932 26.8574 21.9757C26.8539 21.5763 26.7323 21.1868 26.5078 20.8563L23.5372 16.4835C23.0564 15.7759 22.7959 14.9417 22.7884 14.0863L22.7356 8.03462C22.6957 3.4554 18.2413 0.0735373 13.3328 0.116373ZM6.06958 8.18006C6.04207 5.02759 9.19382 2.15257 13.3503 2.1163C17.5067 2.08002 20.7082 4.8996 20.7357 8.05207L20.7885 14.1037C20.7994 15.354 21.1802 16.5731 21.8828 17.6074L24.8535 21.9802C24.8561 21.984 24.8575 21.9885 24.8575 21.9932C24.8576 21.9983 24.8562 22.002 24.8562 22.002C24.8562 22.002 24.8536 22.007 24.8508 22.0098C24.848 22.0127 24.8431 22.0153 24.8431 22.0153C24.8431 22.0153 24.8393 22.0168 24.8343 22.0168L2.21536 22.2142C2.21028 22.2143 2.20653 22.2129 2.20653 22.2129C2.20653 22.2129 2.20159 22.2103 2.19872 22.2075C2.19584 22.2047 2.19321 22.1998 2.19321 22.1998C2.19321 22.1998 2.19175 22.1961 2.1917 22.191C2.19166 22.1864 2.19299 22.1818 2.19553 22.1779L5.08941 17.7539C5.77388 16.7076 6.13331 15.482 6.1224 14.2317L6.06958 8.18006ZM16.2088 24.0922L10.8757 24.1387C10.8885 25.6114 12.0928 26.7949 13.5655 26.782C15.0382 26.7692 16.2217 25.5649 16.2088 24.0922Z" fill="#263238"/>
</svg>
