<svg width="15" height="16" viewBox="0 0 15 16" fill="none" xmlns="http://www.w3.org/2000/svg">
<path d="M2.5 15.0771H12.5C13.163 15.0771 13.7989 14.8401 14.2678 14.4181C14.7366 13.9962 15 13.4239 15 12.8271V3.82715C15 3.42932 14.8244 3.04779 14.5118 2.76649C14.1993 2.48518 13.7754 2.32715 13.3333 2.32715H11.6667V0.827148C11.6667 0.628236 11.5789 0.437471 11.4226 0.296818C11.2663 0.156166 11.0543 0.0771484 10.8333 0.0771484C10.6123 0.0771484 10.4004 0.156166 10.2441 0.296818C10.0878 0.437471 10 0.628236 10 0.827148V2.32715H5V0.827148C5 0.628236 4.9122 0.437471 4.75592 0.296818C4.59964 0.156166 4.38768 0.0771484 4.16667 0.0771484C3.94565 0.0771484 3.73369 0.156166 3.57741 0.296818C3.42113 0.437471 3.33333 0.628236 3.33333 0.827148V2.32715H1.66667C1.22464 2.32715 0.800716 2.48518 0.488155 2.76649C0.175595 3.04779 0 3.42932 0 3.82715V12.8271C0 13.4239 0.263392 13.9962 0.732233 14.4181C1.20107 14.8401 1.83696 15.0771 2.5 15.0771ZM1.66667 7.95215C1.66667 7.85269 1.71057 7.75731 1.78871 7.68698C1.86685 7.61666 1.97283 7.57715 2.08333 7.57715H12.9167C13.0272 7.57715 13.1332 7.61666 13.2113 7.68698C13.2894 7.75731 13.3333 7.85269 13.3333 7.95215V12.8271C13.3333 13.0261 13.2455 13.2168 13.0893 13.3575C12.933 13.4981 12.721 13.5771 12.5 13.5771H2.5C2.27899 13.5771 2.06702 13.4981 1.91074 13.3575C1.75446 13.2168 1.66667 13.0261 1.66667 12.8271V7.95215Z" fill="#212F38"/>
</svg>
