<svg width="15" height="16" viewBox="0 0 15 16" fill="none" xmlns="http://www.w3.org/2000/svg">
<path d="M15 10.0771C15 9.81589 14.8056 9.63337 14.5275 9.63337C14.3706 9.63337 14.1019 9.714 13.8706 9.84712C13.5644 9.20212 13.0644 8.63025 12.7069 8.45212C12.47 8.334 11.6631 8.20213 10.9375 8.20213C10.2119 8.20213 9.40499 8.334 9.16748 8.45212C8.81061 8.63025 8.31061 9.20212 8.00437 9.84712C7.77248 9.714 7.50374 9.63337 7.3475 9.63337C7.22876 9.63337 7.12625 9.66463 7.04501 9.72586C6.93564 9.80775 6.875 9.93273 6.875 10.0771C6.875 10.5646 7.25313 10.9027 7.29687 10.9396C7.33188 10.9696 7.37187 10.9877 7.41312 10.9996C7.37375 11.1121 7.33874 11.2265 7.31061 11.3402C8.22623 11.3878 9.37499 11.5821 9.37499 12.2646C9.37499 12.4371 9.23498 12.5772 9.06248 12.5772C8.88998 12.5772 8.74997 12.4371 8.74997 12.2646C8.65622 12.1415 7.95934 12.0015 7.20436 11.9628C7.19498 12.0684 7.18748 12.174 7.18748 12.2646C7.18748 12.7315 7.23061 13.5278 7.49999 13.9347V14.4522C7.49999 14.8028 7.77436 15.0771 8.12498 15.0771H8.74997C9.10059 15.0771 9.37496 14.8028 9.37496 14.4522V14.2403C9.75245 14.3346 10.3412 14.4522 10.9375 14.4522C11.5337 14.4522 12.1225 14.3346 12.4999 14.2403V14.4522C12.4999 14.8028 12.7743 15.0771 13.1249 15.0771H13.7499C14.1005 15.0771 14.3749 14.8028 14.3749 14.4522V13.9347C14.6443 13.5278 14.6874 12.7315 14.6874 12.2646C14.6874 12.1734 14.6799 12.0684 14.6705 11.9628C13.9149 12.0021 13.2174 12.1465 13.1168 12.2959C13.1168 12.4684 12.9805 12.5934 12.8087 12.5934C12.6362 12.5934 12.4999 12.4378 12.4999 12.2653C12.4999 11.5828 13.6487 11.3884 14.5643 11.3409C14.5362 11.2265 14.5005 11.1128 14.4618 11.0003C14.503 10.9884 14.543 10.9703 14.578 10.9403C14.6219 10.9028 15 10.5646 15 10.0771ZM11.5625 12.5772H10.3125C10.14 12.5772 9.99998 12.4371 9.99998 12.2646C9.99998 12.0921 10.14 11.9521 10.3125 11.9521H11.5625C11.735 11.9521 11.875 12.0921 11.875 12.2646C11.875 12.4371 11.735 12.5772 11.5625 12.5772ZM13.2206 10.5178C13.2194 10.5178 13.2181 10.5178 13.2175 10.5184C13.0919 10.5321 12.9619 10.5452 12.8312 10.559C12.815 10.5609 12.7994 10.5621 12.7831 10.564C12.6494 10.5778 12.5144 10.5909 12.3812 10.6034C12.3469 10.6065 12.3137 10.6096 12.28 10.6128C12.1819 10.6221 12.085 10.6309 11.99 10.639C11.9468 10.6428 11.9056 10.6459 11.8637 10.6497C11.78 10.6565 11.6993 10.6628 11.6206 10.669C11.5793 10.6722 11.5387 10.6753 11.4993 10.6778C11.4231 10.6828 11.3525 10.6872 11.2837 10.6909C11.2512 10.6928 11.2162 10.6947 11.1862 10.6959C11.0931 10.6997 11.0075 10.7022 10.9375 10.7022C10.8675 10.7022 10.7818 10.6997 10.6887 10.6953C10.6581 10.694 10.6237 10.6915 10.5912 10.6903C10.5224 10.6865 10.4518 10.6828 10.3756 10.6771C10.3362 10.6746 10.2962 10.6715 10.255 10.6684C10.1762 10.6627 10.0956 10.6565 10.0112 10.649C9.96934 10.6453 9.92809 10.6421 9.88496 10.6384C9.7906 10.6303 9.6931 10.6215 9.59495 10.6121C9.5612 10.609 9.52807 10.6059 9.4937 10.6027C9.36058 10.5902 9.22558 10.5765 9.09184 10.5634C9.07558 10.5615 9.05996 10.5602 9.04435 10.5584C8.8281 10.5365 8.61934 10.514 8.41997 10.4921C8.42185 10.4871 8.42311 10.4834 8.42498 10.4784C8.63249 9.7815 9.20498 9.13213 9.44624 9.01152C9.56249 8.9584 10.2294 8.82715 10.9375 8.82715C11.6456 8.82715 12.3125 8.9584 12.4281 9.01152C12.6706 9.13213 13.2431 9.78153 13.4506 10.479C13.4525 10.484 13.4537 10.4878 13.4556 10.4928C13.3775 10.5009 13.3019 10.5096 13.2206 10.5178Z" fill="#212F38"/>
<path d="M13.4375 0.0771484H1.56249C0.700635 0.0771484 0 0.777783 0 1.63964V1.95215H15V1.63964C15 0.777783 14.2994 0.0771484 13.4375 0.0771484Z" fill="#212F38"/>
<path d="M0 9.76465C0 10.6265 0.700635 11.3271 1.56249 11.3271H6.19875C6.37125 11.3271 6.51126 11.1871 6.51126 11.0146C6.51126 10.9321 6.47938 10.8571 6.4275 10.8015C6.30812 10.5634 6.24999 10.3259 6.24999 10.0771H1.56249C1.38999 10.0771 1.24998 9.93712 1.24998 9.76462C1.24998 8.98087 1.78122 8.30086 2.5406 8.11087L3.47871 7.87711L3.52433 7.69336C3.29558 7.43086 3.13245 7.10148 3.06246 6.76023C2.87183 6.67711 2.74245 6.50836 2.71685 6.3046L2.64935 5.76085C2.62811 5.59585 2.67935 5.42836 2.79059 5.30274C2.82809 5.26087 2.86995 5.2246 2.91621 5.19525C2.89872 5.034 2.87997 4.84087 2.87997 4.73775C2.87997 4.21462 3.03123 3.52149 4.31748 3.47649C4.75374 3.20212 5.2031 3.20212 5.40249 3.20212C6.07937 3.20212 6.41625 3.50151 6.57999 3.7515C6.92499 4.27837 6.70687 4.64461 6.54562 4.81524L6.48876 4.87275L6.4725 5.20462C6.51437 5.23275 6.55312 5.2665 6.58687 5.30526C6.69624 5.42962 6.74687 5.5965 6.72624 5.76088L6.65874 6.30337C6.63437 6.50025 6.51249 6.66463 6.34562 6.75088C6.27437 7.10713 6.10125 7.45026 5.85812 7.719L5.89749 7.8765L6.83561 8.11026C7.27749 8.22088 7.63749 8.49964 7.86498 8.86527C8.19123 8.41026 8.5631 8.05588 8.88935 7.89276C9.285 7.69527 10.2419 7.57714 10.9375 7.57714C11.6331 7.57714 12.5894 7.69465 12.985 7.89276C13.32 8.06025 13.7019 8.42652 14.0337 8.89776C14.1012 8.99277 14.2175 9.04213 14.3325 9.02713C14.4412 9.01339 14.4931 9.0015 14.6556 9.01837C14.7443 9.02713 14.8306 8.99901 14.8975 8.93962C14.9625 8.88088 15 8.79651 15 8.70838V2.57713H0V9.76465ZM12.1875 3.82714H13.4375C13.61 3.82714 13.75 3.96715 13.75 4.13965C13.75 4.31215 13.61 4.45216 13.4375 4.45216H12.1875C12.015 4.45216 11.875 4.31215 11.875 4.13965C11.875 3.96715 12.015 3.82714 12.1875 3.82714ZM9.06249 3.82714H10.9375C11.11 3.82714 11.25 3.96715 11.25 4.13965C11.25 4.31215 11.11 4.45216 10.9375 4.45216H9.06249C8.88999 4.45216 8.74998 4.31215 8.74998 4.13965C8.74998 3.96715 8.88999 3.82714 9.06249 3.82714ZM9.06249 5.70214H13.4375C13.61 5.70214 13.75 5.84215 13.75 6.01465C13.75 6.18715 13.61 6.32716 13.4375 6.32716H9.06249C8.88999 6.32716 8.74998 6.18715 8.74998 6.01465C8.74998 5.84215 8.88999 5.70214 9.06249 5.70214Z" fill="#212F38"/>
</svg>
