<svg width="11" height="16" viewBox="0 0 11 16" fill="none" xmlns="http://www.w3.org/2000/svg">
<path d="M5.23808 12.4136H6.80951V13.9654H5.23808V15.5171H3.14286V13.9654H1.57143V12.4136H3.14286V11.2488C1.33545 10.7895 0 9.16935 0 7.24123C0 4.95591 1.87612 3.10328 4.19045 3.10328C4.94411 3.10328 5.65129 3.29974 6.26232 3.64361L7.85714 2.06882L6.28571 0.51709H11V5.17227L9.42857 3.62054L7.83375 5.19533C8.18198 5.79874 8.38094 6.49705 8.38094 7.24123C8.38094 9.16935 7.04546 10.7895 5.23808 11.2488V12.4136ZM4.19045 4.65504C2.74401 4.65504 1.57143 5.81292 1.57143 7.24123C1.57143 8.66957 2.74401 9.82745 4.19045 9.82745C5.63693 9.82745 6.80951 8.66957 6.80951 7.24123C6.80951 5.81292 5.63693 4.65504 4.19045 4.65504Z" fill="#212F38"/>
</svg>
