<svg width="16" height="17" viewBox="0 0 16 17" fill="none" xmlns="http://www.w3.org/2000/svg">
<path d="M12.6084 15.5772V1.00815M12.6084 15.5772L9.7168 12.6634M12.6084 15.5772L15.5 12.6634M12.6084 1.00815L9.7168 3.92195M12.6084 1.00815L15.5 3.92195" stroke="#212F38" stroke-linecap="round" stroke-linejoin="round"/>
<path d="M4.23662 0.577148C5.06454 0.577148 5.7386 1.13563 5.7386 1.82158C5.7386 2.50754 5.06454 3.06602 4.23662 3.06602C3.40871 3.06602 2.73465 2.50754 2.73465 1.82158C2.73465 1.13563 3.40871 0.577148 4.23662 0.577148ZM6.12692 3.38775H2.37564C1.33525 3.38775 0.5 4.07978 0.5 4.94178V8.74186C0.5 9.03931 0.785742 9.2882 1.1594 9.2882C1.53307 9.2882 1.81881 9.05146 1.81881 8.74186V5.25137C1.81881 5.16639 1.90673 5.09354 2.0093 5.09354C2.11188 5.09354 2.1998 5.16639 2.1998 5.25137V14.6727C2.1998 15.1401 2.61742 15.5225 3.13762 15.5225C3.65781 15.5225 4.07544 15.1401 4.07544 14.6727V9.30034C4.07544 9.21536 4.16336 9.14251 4.26593 9.14251C4.36851 9.14251 4.45643 9.21536 4.45643 9.30034V14.6727C4.45643 15.1401 4.87405 15.5225 5.39425 15.5225C5.91444 15.5225 6.33207 15.1401 6.33207 14.6727V5.25137C6.33207 5.16639 6.41999 5.09354 6.52256 5.09354C6.62513 5.09354 6.71306 5.16639 6.71306 5.25137V8.74794C6.71306 9.04539 6.9988 9.29427 7.37246 9.29427C7.74612 9.29427 8.03186 9.05753 8.03186 8.74794V4.94178C8.00256 4.07978 7.14533 3.38775 6.12692 3.38775Z" fill="#212F38"/>
</svg>
