<svg width="17" height="18" viewBox="0 0 17 18" fill="none" xmlns="http://www.w3.org/2000/svg">
<path d="M13.5 8.57715H11M16 4.29143H1M13.5 12.8629H11M9.33333 16.0771C9.01817 14.2432 7.64558 12.8629 6 12.8629C4.36052 12.8629 2.99195 14.233 2.6702 16.0569M2.6702 16.0569C2.93147 16.0771 3.2533 16.0771 3.66667 16.0771H13.3333C14.2667 16.0771 14.7335 16.0771 15.09 15.8436C15.4036 15.6382 15.6586 15.3103 15.8183 14.9071C16 14.4488 16 13.8487 16 12.6486V4.50572C16 3.30561 16 2.70555 15.8183 2.24717C15.6586 1.84396 15.4036 1.51614 15.09 1.31071C14.7335 1.07715 14.2667 1.07715 13.3333 1.07715H3.66667C2.73325 1.07715 2.26653 1.07715 1.91002 1.31071C1.59641 1.51614 1.34144 1.84396 1.18166 2.24717C1 2.70555 1 3.3056 1 4.50572V12.6486C1 13.8487 1 14.4488 1.18166 14.9071C1.34144 15.3103 1.59641 15.6382 1.91002 15.8436C2.10865 15.9738 2.34149 16.0313 2.6702 16.0569ZM6 8.57715H6.00833M6.83333 8.57715C6.83333 9.1689 6.46023 9.64858 6 9.64858C5.53977 9.64858 5.16667 9.1689 5.16667 8.57715C5.16667 7.9854 5.53977 7.50572 6 7.50572C6.46023 7.50572 6.83333 7.9854 6.83333 8.57715Z" stroke="#212F38" stroke-width="2" stroke-linecap="round" stroke-linejoin="round"/>
</svg>
