<svg width="17" height="17" viewBox="0 0 17 17" fill="none" xmlns="http://www.w3.org/2000/svg">
<path fill-rule="evenodd" clip-rule="evenodd" d="M11.3843 1.07715H5.61573C4.38475 1.08395 3.2069 1.57949 2.34129 2.45475C1.47568 3.33002 0.993226 4.51331 1.00007 5.74429V11.41C0.993226 12.641 1.47568 13.8243 2.34129 14.6995C3.2069 15.5748 4.38475 16.0704 5.61573 16.0771H11.3843C12.6152 16.0704 13.793 15.5748 14.6586 14.6995C15.5243 13.8243 16.0067 12.641 15.9999 11.41V5.74429C16.0067 4.51331 15.5243 3.33002 14.6586 2.45475C13.793 1.57949 12.6152 1.08395 11.3843 1.07715Z" stroke="#212F38" stroke-linecap="round" stroke-linejoin="round"/>
<path d="M4.21469 5.36285C3.7709 5.36285 3.41113 5.72263 3.41113 6.16642C3.41113 6.61021 3.7709 6.97 4.21469 6.97V5.36285ZM8.50034 6.97C8.94412 6.97 9.3039 6.61021 9.3039 6.16642C9.3039 5.72263 8.94412 5.36285 8.50034 5.36285V6.97ZM7.69678 6.16642C7.69678 6.61021 8.05656 6.97 8.50034 6.97C8.94412 6.97 9.3039 6.61021 9.3039 6.16642H7.69678ZM9.3039 4.29143C9.3039 3.84763 8.94412 3.48785 8.50034 3.48785C8.05656 3.48785 7.69678 3.84763 7.69678 4.29143H9.3039ZM8.50034 5.36285C8.05656 5.36285 7.69678 5.72263 7.69678 6.16642C7.69678 6.61021 8.05656 6.97 8.50034 6.97V5.36285ZM12.2503 6.97C12.6941 6.97 13.0539 6.61021 13.0539 6.16642C13.0539 5.72263 12.6941 5.36285 12.2503 5.36285V6.97ZM12.2503 5.36285C11.8065 5.36285 11.4467 5.72263 11.4467 6.16642C11.4467 6.61021 11.8065 6.97 12.2503 6.97V5.36285ZM12.786 6.97C13.2298 6.97 13.5896 6.61021 13.5896 6.16642C13.5896 5.72263 13.2298 5.36285 12.786 5.36285V6.97ZM12.9078 6.62832C13.1629 6.26523 13.0754 5.76403 12.7123 5.5089C12.3491 5.25378 11.848 5.34134 11.5928 5.70448L12.9078 6.62832ZM7.72206 9.94675C7.38371 10.234 7.34235 10.7411 7.6296 11.0794C7.91684 11.4177 8.42395 11.4591 8.76219 11.1718L7.72206 9.94675ZM5.60712 11.6846C5.25225 11.9511 5.18063 12.4549 5.44713 12.8097C5.71365 13.1646 6.21736 13.2362 6.57222 12.9697L5.60712 11.6846ZM8.77548 11.1561C9.1074 10.8615 9.13772 10.3537 8.84319 10.0217C8.54877 9.68971 8.04081 9.65939 7.70888 9.95392L8.77548 11.1561ZM7.60999 11.0512C7.88406 11.4002 8.38913 11.4611 8.7383 11.1871C9.08737 10.9131 9.14822 10.408 8.87426 10.0588L7.60999 11.0512ZM7.6281 7.98432C7.44864 7.57835 6.97411 7.39493 6.56825 7.57439C6.16236 7.75385 5.97884 8.22839 6.15833 8.63425L7.6281 7.98432ZM8.88691 10.0797C8.62205 9.72357 8.1187 9.64964 7.76256 9.9145C7.40653 10.1794 7.33249 10.6827 7.59735 11.0389L8.88691 10.0797ZM10.5309 13.5709C10.9218 13.7807 11.409 13.6341 11.619 13.243C11.8289 12.852 11.6822 12.3649 11.2913 12.1549L10.5309 13.5709ZM4.21469 6.97H8.50034V5.36285H4.21469V6.97ZM9.3039 6.16642V4.29143H7.69678V6.16642H9.3039ZM8.50034 6.97H12.2503V5.36285H8.50034V6.97ZM12.2503 6.97H12.786V5.36285H12.2503V6.97ZM11.5928 5.70448C10.4879 7.27717 9.18722 8.70271 7.72206 9.94675L8.76219 11.1718C10.3314 9.8395 11.7244 8.31271 12.9078 6.62832L11.5928 5.70448ZM6.57222 12.9697C7.1195 12.5587 7.91427 11.9201 8.77548 11.1561L7.70888 9.95392C6.87929 10.6899 6.11839 11.3006 5.60712 11.6846L6.57222 12.9697ZM8.87426 10.0588C8.37423 9.42185 7.95563 8.72489 7.6281 7.98432L6.15833 8.63425C6.53986 9.49707 7.02757 10.309 7.60999 11.0512L8.87426 10.0588ZM7.59735 11.0389C8.37755 12.0879 9.37911 12.9523 10.5309 13.5709L11.2913 12.1549C10.3472 11.648 9.52643 10.9394 8.88691 10.0797L7.59735 11.0389Z" fill="#212F38"/>
</svg>
