<svg width="16" height="16" viewBox="0 0 16 16" fill="none" xmlns="http://www.w3.org/2000/svg">
<path d="M3.6081 2.66611C3.6081 1.50969 4.38119 0.577148 5.35375 0.577148C6.32012 0.577148 7.09941 1.50969 7.09941 2.66611C7.09316 3.82994 6.31387 4.75501 5.35375 4.75501C4.38738 4.75508 3.6081 3.82254 3.6081 2.66611ZM13.237 11.6255H10.0696V8.23845C10.0696 6.58833 8.86459 5.25462 7.50869 5.25462H3.26304C1.77447 5.25462 0.499291 6.79817 0.500005 8.31915V14.5288C0.498279 15.2169 0.90441 15.5763 1.3087 15.5771C1.71399 15.578 2.11739 15.2186 2.11739 14.5288V8.48042H2.65649V15.5677H7.91304V8.48042H8.45215L8.45762 12.5425C8.45399 13.2464 8.81762 13.5462 9.19345 13.561H13.2369C14.3396 13.561 14.3396 11.6255 13.237 11.6255ZM13.1895 4.98373V5.49075H12.8579C12.9395 5.22933 13.0552 5.04356 13.1895 4.98373ZM12.8026 6.90787H13.1895V6.41339H12.7474C12.7526 6.58976 12.7711 6.75665 12.8026 6.90787ZM12.3868 7.11885C12.5052 7.30462 12.6658 7.45584 12.85 7.54716C12.7789 7.43063 12.7184 7.28582 12.6737 7.11885H12.3868ZM12.7448 6.20241H13.1895V5.70173H12.8027C12.7711 5.85601 12.7526 6.02611 12.7448 6.20241ZM13.1895 7.629V7.12199H12.8579C12.9395 7.3802 13.0552 7.56917 13.1895 7.629ZM12.5711 6.41339H12.1605C12.1711 6.58976 12.2132 6.75665 12.2763 6.9078H12.6237C12.5948 6.75665 12.5763 6.58976 12.5711 6.41339ZM12.8421 5.07191C12.6632 5.16323 12.5052 5.30811 12.3895 5.49075H12.6711C12.7158 5.33012 12.7737 5.18844 12.8421 5.07191ZM12.6237 5.70173H12.2789C12.2132 5.85288 12.1737 6.02291 12.1605 6.20241H12.5711C12.5763 6.02611 12.5948 5.85601 12.6237 5.70173ZM15.5 3.53512V10.734H10.8974V3.38397L15.0526 2.78877V3.53512H15.5ZM14.7342 3.21708L12.5237 3.53512H14.7342V3.21708ZM14.6368 6.30633C14.6368 5.40883 14.0289 4.67822 13.2763 4.67822C12.5263 4.67822 11.9158 5.4057 11.9158 6.30633C11.9158 7.20383 12.5237 7.93444 13.2763 7.93444C14.0289 7.9313 14.6368 7.20383 14.6368 6.30633ZM11.9185 8.79732V9.44601H14.6368V8.79732H11.9185ZM13.3658 7.629C13.5 7.5723 13.6184 7.3834 13.7 7.12199H13.3658V7.629ZM13.7079 7.54709C13.8921 7.45577 14.05 7.30775 14.1711 7.11878H13.8868C13.8395 7.28575 13.7789 7.43056 13.7079 7.54709ZM13.9316 6.90787H14.279C14.3421 6.75672 14.3816 6.58983 14.3948 6.41346H13.9842C13.9789 6.58976 13.9605 6.75665 13.9316 6.90787ZM13.8105 6.41339H13.3658V6.9078H13.7526C13.7842 6.75665 13.8026 6.58976 13.8105 6.41339ZM13.7526 5.70173H13.3658V6.20241H13.8105C13.8026 6.02611 13.7842 5.85601 13.7526 5.70173ZM13.9842 6.20241H14.3948C14.3842 6.02291 14.3421 5.85288 14.2764 5.70173H13.9316C13.9632 5.85601 13.9789 6.02611 13.9842 6.20241ZM14.1658 5.49388C14.0474 5.31125 13.8921 5.16636 13.7132 5.07505C13.7815 5.19158 13.8395 5.33326 13.8842 5.49388H14.1658ZM13.3658 4.98373V5.49075H13.7C13.6185 5.22933 13.5 5.04356 13.3658 4.98373Z" fill="#212F38"/>
</svg>
