<svg width="16" height="16" viewBox="0 0 16 16" fill="none" xmlns="http://www.w3.org/2000/svg">
<path d="M4.83995 5.7334H6.14877C6.19866 4.9415 6.36775 4.229 6.62455 3.67061C5.69676 4.0585 5.01674 4.81875 4.83995 5.7334ZM4.83995 6.6709C5.01708 7.58555 5.69676 8.3458 6.62455 8.73369C6.36741 8.17529 6.19866 7.46279 6.14877 6.6709H4.83995ZM8 8.97627C8.25748 8.75801 8.69542 7.96787 8.78449 6.6709H7.21518C7.30458 7.96758 7.74252 8.75801 8 8.97627ZM7.21551 5.7334H8.78482C8.69576 4.43672 8.25781 3.64629 8.00033 3.42803C7.74252 3.64629 7.30458 4.43672 7.21551 5.7334ZM9.37545 8.73369C10.3032 8.3458 10.9833 7.58555 11.16 6.6709H9.85123C9.80134 7.46279 9.63259 8.17529 9.37545 8.73369ZM14.4286 0.577148H2.64286C1.45926 0.577148 0.5 1.4165 0.5 2.45215V13.7021C0.5 14.7378 1.45926 15.5771 2.64286 15.5771H14.4286C15.0202 15.5771 15.5 15.1573 15.5 14.6396V1.51465C15.5 0.996973 15.0202 0.577148 14.4286 0.577148ZM11.75 12.7646H4.25C3.95536 12.7646 3.71429 12.5537 3.71429 12.2959C3.71429 12.0381 3.95536 11.8271 4.25 11.8271H11.75C12.0446 11.8271 12.2857 12.0381 12.2857 12.2959C12.2857 12.5537 12.0446 12.7646 11.75 12.7646ZM8 9.95215C5.63315 9.95215 3.71429 8.27314 3.71429 6.20215C3.71429 4.13115 5.63315 2.45215 8 2.45215C10.3669 2.45215 12.2857 4.13115 12.2857 6.20215C12.2857 8.27314 10.3669 9.95215 8 9.95215ZM9.37545 3.67061C9.63259 4.229 9.80134 4.9415 9.85123 5.7334H11.16C10.9833 4.81875 10.3032 4.0585 9.37545 3.67061Z" fill="#212F38"/>
</svg>
