<svg width="12" height="22" viewBox="0 0 12 22" fill="none" xmlns="http://www.w3.org/2000/svg">
<path d="M5.97051 0.767487C6.79843 0.767487 7.47249 1.32597 7.47249 2.01192C7.47249 2.69788 6.79843 3.25636 5.97051 3.25636C5.14259 3.25636 4.46854 2.69788 4.46854 2.01192C4.46854 1.32597 5.14259 0.767487 5.97051 0.767487ZM7.8608 3.57809H4.10953C3.06913 3.57809 2.23389 4.27012 2.23389 5.13212V8.9322C2.23389 9.22965 2.51963 9.47854 2.89329 9.47854C3.26695 9.47854 3.5527 9.24179 3.5527 8.9322V5.44171C3.5527 5.35672 3.64062 5.28388 3.74319 5.28388C3.84576 5.28388 3.93368 5.35672 3.93368 5.44171V14.863C3.93368 15.3304 4.35131 15.7129 4.8715 15.7129C5.3917 15.7129 5.80932 15.3304 5.80932 14.863V9.49068C5.80932 9.4057 5.89724 9.33285 5.99982 9.33285C6.10239 9.33285 6.19031 9.4057 6.19031 9.49068V14.863C6.19031 15.3304 6.60794 15.7129 7.12813 15.7129C7.64833 15.7129 8.06595 15.3304 8.06595 14.863V5.44171C8.06595 5.35672 8.15387 5.28388 8.25645 5.28388C8.35902 5.28388 8.44694 5.35672 8.44694 5.44171V8.93827C8.44694 9.23572 8.73268 9.48461 9.10635 9.48461C9.48001 9.48461 9.76575 9.24786 9.76575 8.93827V5.13212C9.73644 4.27012 8.87922 3.57809 7.8608 3.57809Z" fill="#212F38"/>
<path d="M1.37203 19.5498H10.6274M1.37203 19.5498L3.22311 17.7129M1.37203 19.5498L3.22311 21.3868M10.6274 19.5498L8.77636 17.7129M10.6274 19.5498L8.77636 21.3868" stroke="#212F38" stroke-width="0.8" stroke-linecap="round" stroke-linejoin="round"/>
</svg>
