<svg width="15" height="15" viewBox="0 0 15 15" fill="none" xmlns="http://www.w3.org/2000/svg">
<path d="M10.1063 4.86251C9.55 4.03126 8.85625 2.98751 8.04375 1.56251C7.98924 1.46632 7.91019 1.38632 7.81466 1.33066C7.71914 1.27499 7.61056 1.24567 7.5 1.24567C7.38944 1.24567 7.28086 1.27499 7.18534 1.33066C7.08981 1.38632 7.01076 1.46632 6.95625 1.56251C6.1375 3.00626 5.45 4.06251 4.89375 4.86251C3.75 6.57501 3.125 7.50001 3.125 9.37501C3.125 10.5353 3.58594 11.6481 4.40641 12.4686C5.22688 13.2891 6.33968 13.75 7.5 13.75C8.66032 13.75 9.77312 13.2891 10.5936 12.4686C11.4141 11.6481 11.875 10.5353 11.875 9.37501C11.875 7.50001 11.25 6.57501 10.1063 4.86251Z" fill="#74797B"/>
</svg>
