<svg width="10" height="14" viewBox="0 0 10 14" fill="none" xmlns="http://www.w3.org/2000/svg">
<path d="M9.375 9.75L7.5 7.625L5.625 9.75C5.18999 10.2505 4.96596 10.9002 5 11.5625C5.03749 11.923 5.14356 12.2731 5.3125 12.5938H5C4.50272 12.5938 4.02581 12.3962 3.67417 12.0446C3.32254 11.6929 3.125 11.216 3.125 10.7188V3.25H6.875V6.0625C6.875 6.22826 6.94085 6.38723 7.05806 6.50444C7.17527 6.62165 7.33424 6.6875 7.5 6.6875C7.66576 6.6875 7.82473 6.62165 7.94194 6.50444C8.05915 6.38723 8.125 6.22826 8.125 6.0625V3.25H8.75C8.91576 3.25 9.07473 3.18415 9.19194 3.06694C9.30915 2.94973 9.375 2.79076 9.375 2.625C9.375 2.45924 9.30915 2.30027 9.19194 2.18306C9.07473 2.06585 8.91576 2 8.75 2H7.5V0.125H2.5V2H1.25C1.08424 2 0.925269 2.06585 0.808058 2.18306C0.690848 2.30027 0.625 2.45924 0.625 2.625C0.625 2.79076 0.690848 2.94973 0.808058 3.06694C0.925269 3.18415 1.08424 3.25 1.25 3.25H1.875V10.75C1.875 11.1604 1.95583 11.5667 2.11288 11.9459C2.26992 12.325 2.50011 12.6695 2.79029 12.9597C3.37634 13.5458 4.1712 13.875 5 13.875C5.45681 13.8828 5.90821 13.7753 6.3125 13.5625C6.67353 13.7704 7.08343 13.8782 7.5 13.875C8.09507 13.8768 8.67126 13.6663 9.125 13.2812C9.37729 13.0685 9.58436 12.8073 9.73395 12.5131C9.88354 12.2189 9.97262 11.8977 9.99593 11.5684C10.0192 11.2392 9.9763 10.9087 9.86965 10.5963C9.76299 10.284 9.5948 9.99621 9.375 9.75ZM3.75 1.375H6.25V2H3.75V1.375Z" fill="black"/>
</svg>
