<svg width="18" height="21" viewBox="0 0 18 21" fill="none" xmlns="http://www.w3.org/2000/svg">
<path d="M0 4.88593C0 4.40148 0.34538 4.00875 0.77143 4.00875L3.43567 4.00828C3.96502 3.99302 4.43202 3.61029 4.61214 3.04408C4.61688 3.02919 4.62232 3.01083 4.64185 2.9442L4.75665 2.55252C4.8269 2.31237 4.8881 2.10314 4.97375 1.91613C5.31209 1.17732 5.93808 0.664276 6.66147 0.532926C6.84457 0.499676 7.0385 0.499816 7.2611 0.499976H10.7391C10.9617 0.499816 11.1556 0.499676 11.3387 0.532926C12.0621 0.664276 12.6881 1.17732 13.0264 1.91613C13.1121 2.10314 13.1733 2.31237 13.2435 2.55252L13.3583 2.9442C13.3778 3.01083 13.3833 3.02919 13.388 3.04408C13.5682 3.61029 14.1278 3.99349 14.6571 4.00875H17.2286C17.6546 4.00875 18 4.40148 18 4.88593C18 5.37039 17.6546 5.76312 17.2286 5.76312H0.77143C0.34538 5.76312 0 5.37039 0 4.88593Z" fill="#E42D2D"/>
<path fill-rule="evenodd" clip-rule="evenodd" d="M8.5956 20.5001H9.4044C12.1871 20.5001 13.5785 20.5001 14.4831 19.6142C15.3878 18.7283 15.4803 17.2751 15.6654 14.3686L15.9321 10.1807C16.0326 8.60365 16.0828 7.81519 15.6289 7.31553C15.1751 6.81587 14.4087 6.81587 12.876 6.81587H5.12404C3.59127 6.81587 2.82488 6.81587 2.37105 7.31553C1.91722 7.81519 1.96744 8.60365 2.06788 10.1807L2.33459 14.3686C2.5197 17.2751 2.61225 18.7283 3.51689 19.6142C4.42153 20.5001 5.81289 20.5001 8.5956 20.5001ZM7.2463 10.6886C7.2051 10.2548 6.83753 9.93815 6.42537 9.98155C6.01321 10.025 5.71251 10.4119 5.75372 10.8457L6.25372 16.1089C6.29494 16.5427 6.66247 16.8593 7.0746 16.8159C7.4868 16.7725 7.7875 16.3856 7.7463 15.9518L7.2463 10.6886ZM11.5746 9.98155C11.9868 10.025 12.2875 10.4119 12.2463 10.8457L11.7463 16.1089C11.7051 16.5427 11.3375 16.8593 10.9254 16.8159C10.5132 16.7725 10.2125 16.3856 10.2537 15.9518L10.7537 10.6886C10.7949 10.2548 11.1625 9.93815 11.5746 9.98155Z" fill="#E42D2D"/>
</svg>
