<svg width="12" height="12" viewBox="0 0 12 12" fill="none" xmlns="http://www.w3.org/2000/svg">
<path d="M11.5 5.7149C11.5003 5.3149 11.1706 5.00035 10.7506 5C10.3306 4.99965 10.0003 5.31367 10 5.71367C9.99968 6.11367 10.749 7 10.749 7C10.749 7 11.4997 6.08632 11.5 5.7149Z" fill="#74797B"/>
<path fill-rule="evenodd" clip-rule="evenodd" d="M6.04449 8.82375L11.3609 8.83012C11.7136 8.83052 11.9997 8.41515 12 7.90236C12.0003 7.38957 11.7146 6.97356 11.362 6.97312H11.3605C11.3862 7.0462 11.4003 7.12557 11.4003 7.20851C11.4001 7.56994 11.1313 7.86266 10.7998 7.86227C10.4684 7.86188 10.1999 7.56855 10.2001 7.20707C10.2002 7.12413 10.2144 7.04481 10.2402 6.97177L6.33307 6.96714L6.33334 6.50287L8.40029 6.50536C8.73169 6.50575 9.00058 6.11539 9.00085 5.63345L9.00091 5.52171C9.00118 5.03977 8.73274 4.64875 8.40134 4.64836L6.33439 4.64591L6.33466 4.18164L8.06821 4.18373C8.39963 4.18413 8.66853 3.79376 8.6688 3.31182L8.66886 3.20004C8.66913 2.71814 8.40068 2.32712 8.06926 2.32673L5.66893 2.3239L5.6692 1.85962L6.9027 1.86111C7.23413 1.8615 7.50299 1.47114 7.50326 0.989194L7.50332 0.877456C7.50359 0.395513 7.23515 0.00449562 6.90375 0.00410271L4.6701 0.00144196L3.44014 1.90735e-06C1.54176 -0.00226688 0.00155538 2.23375 1.16598e-06 4.9943C-0.00114499 7.02513 0.8428 8.85508 2.1353 9.62433L6.00063 11.9249C6.29275 12.0987 6.62876 11.9634 6.8177 11.5956C7.08182 11.0816 6.95239 10.3442 6.55111 10.0772L5.91941 9.65684C5.62624 9.46172 5.7221 8.8234 6.04449 8.82375Z" fill="#74797B"/>
</svg>
