<svg width="30" height="31" viewBox="0 0 30 31" fill="none" xmlns="http://www.w3.org/2000/svg">
<circle cx="15" cy="15.0602" r="15" fill="white"/>
<path d="M15.2381 18.8967H16.8095V20.4485H15.2381V22.0002H13.1429V20.4485H11.5714V18.8967H13.1429V17.7319C11.3354 17.2725 10 15.6524 10 13.7243C10 11.439 11.8761 9.58637 14.1905 9.58637C14.9441 9.58637 15.6513 9.78284 16.2623 10.1267L17.8571 8.55191L16.2857 7.00018H21V11.6554L19.4286 10.1036L17.8338 11.6784C18.182 12.2818 18.3809 12.9801 18.3809 13.7243C18.3809 15.6524 17.0455 17.2725 15.2381 17.7319V18.8967ZM14.1905 11.1381C12.744 11.1381 11.5714 12.296 11.5714 13.7243C11.5714 15.1527 12.744 16.3105 14.1905 16.3105C15.6369 16.3105 16.8095 15.1527 16.8095 13.7243C16.8095 12.296 15.6369 11.1381 14.1905 11.1381Z" fill="#212F38"/>
</svg>
