<svg width="12" height="12" viewBox="0 0 12 12" fill="none" xmlns="http://www.w3.org/2000/svg">
<path d="M10.6246 1.90002C10.3473 1.61715 10.0168 1.39198 9.65207 1.23751C9.28734 1.08304 8.89564 1.00232 8.49956 1.00002C7.52456 1.00002 6.49956 1.77502 5.99956 2.62502C5.49956 1.77502 4.47456 1.00002 3.49956 1.00002C3.10349 1.00232 2.71178 1.08304 2.34706 1.23751C1.98234 1.39198 1.65182 1.61715 1.37456 1.90002C1.0951 2.1785 0.873813 2.5098 0.723594 2.87462C0.573375 3.23943 0.497221 3.63049 0.499564 4.02502C0.509868 4.5489 0.665674 5.0596 0.949564 5.50002H3.47456L4.27456 4.12502C4.29994 4.08891 4.33363 4.05944 4.37279 4.03909C4.41195 4.01875 4.45543 4.00813 4.49956 4.00813C4.54369 4.00813 4.58718 4.01875 4.62634 4.03909C4.6655 4.05944 4.69919 4.08891 4.72456 4.12502L5.99956 6.27502L6.47456 5.50002H8.47456C8.59809 5.49776 8.71846 5.53914 8.81449 5.61687C8.91052 5.69461 8.97605 5.80372 8.99956 5.92502C9.01044 5.99668 9.00561 6.06985 8.9854 6.13945C8.96519 6.20906 8.93009 6.27344 8.88253 6.32814C8.83497 6.38283 8.77608 6.42653 8.70996 6.45621C8.64383 6.48589 8.57204 6.50084 8.49956 6.50002H7.02456L6.22456 7.87502C6.19919 7.91112 6.1655 7.94059 6.12634 7.96094C6.08718 7.98128 6.04369 7.9919 5.99956 7.9919C5.95543 7.9919 5.91195 7.98128 5.87279 7.96094C5.83363 7.94059 5.79994 7.91112 5.77456 7.87502L4.49956 5.72502L4.02456 6.50002H1.69956C1.69956 6.51328 1.70483 6.52599 1.71421 6.53537C1.72359 6.54475 1.7363 6.55002 1.74956 6.55002C2.24956 7.12502 5.07456 10.125 5.82456 10.925C5.8713 10.9708 5.93413 10.9965 5.99956 10.9965C6.065 10.9965 6.12783 10.9708 6.17456 10.925C6.92456 10.125 9.74956 7.12502 10.2496 6.55002C10.7496 5.97502 11.4996 5.05002 11.4996 4.02502C11.5019 3.63049 11.4258 3.23943 11.2755 2.87462C11.1253 2.5098 10.904 2.1785 10.6246 1.90002Z" fill="#74797B"/>
</svg>
