<svg width="30" height="30" viewBox="0 0 30 30" fill="none" xmlns="http://www.w3.org/2000/svg">
<circle cx="15" cy="15" r="15" fill="white"/>
<path d="M19.5 14.5H17M22 10.2143H7M19.5 18.7857H17M15.3333 22C15.0182 20.166 13.6456 18.7857 12 18.7857C10.3605 18.7857 8.99195 20.1559 8.6702 21.9797M8.6702 21.9797C8.93147 22 9.2533 22 9.66667 22H19.3333C20.2667 22 20.7335 22 21.09 21.7664C21.4036 21.561 21.6586 21.2332 21.8183 20.83C22 20.3716 22 19.7715 22 18.5714V10.4286C22 9.22846 22 8.6284 21.8183 8.17002C21.6586 7.76681 21.4036 7.439 21.09 7.23356C20.7335 7 20.2667 7 19.3333 7H9.66667C8.73325 7 8.26653 7 7.91002 7.23356C7.59641 7.439 7.34144 7.76681 7.18166 8.17002C7 8.6284 7 9.22845 7 10.4286V18.5714C7 19.7715 7 20.3716 7.18166 20.83C7.34144 21.2332 7.59641 21.561 7.91002 21.7664C8.10865 21.8966 8.34149 21.9541 8.6702 21.9797ZM12 14.5H12.0083M12.8333 14.5C12.8333 15.0917 12.4602 15.5714 12 15.5714C11.5398 15.5714 11.1667 15.0917 11.1667 14.5C11.1667 13.9082 11.5398 13.4286 12 13.4286C12.4602 13.4286 12.8333 13.9082 12.8333 14.5Z" stroke="#212F38" stroke-width="2" stroke-linecap="round" stroke-linejoin="round"/>
</svg>
