<svg width="15" height="16" viewBox="0 0 15 16" fill="none" xmlns="http://www.w3.org/2000/svg">
<path d="M0 0.500063C0.530671 1.51669 1.12211 2.50262 1.76982 3.45862C2.03246 4.15541 1.8826 4.93513 0.58427 5.8782C5.2892 4.60248 3.92023 7.67004 0.231346 9.88002C6.49533 7.5275 8.052 8.07178 4.02436 12.8536C7.19096 10.5241 9.68255 11.1539 8.6552 14.0467C9.8477 13.1121 10.8375 12.9128 11.5958 13.251C12.6864 14.0318 13.8225 14.7814 15 15.5C14.3574 14.2229 13.6791 12.9905 12.9521 11.8125C12.3859 10.5802 12.2486 9.30019 12.7173 8.20072C10.9391 10.4287 9.84808 8.36876 12.5631 5.50313C8.73176 7.89464 6.99364 6.70361 12.0344 2.13674C8.15454 4.22177 5.15703 4.77673 7.10031 2.71647C5.69844 3.12198 4.90651 2.9151 4.23475 2.62358C2.94012 1.80441 1.53487 1.09168 0 0.5V0.500063ZM1.55254 1.76583C2.45114 2.44913 3.32609 3.15809 4.17964 3.89184L5.32672 3.58995L4.63425 4.28676C5.12263 4.71567 5.60371 5.15326 6.07809 5.59904L8.32921 4.63323L7.74103 5.55332L7.75042 5.54571C7.07515 6.41887 8.33823 8.2733 9.19129 8.03212L10.191 7.47094L9.41452 8.62925L10.5697 10.3004C10.5779 10.3099 10.5862 10.3194 10.5944 10.329C11.0217 10.7254 11.5727 10.3832 11.943 9.86844L11.3293 11.1996C12.0002 12.0079 12.6569 12.8373 13.3 13.6882C12.5747 13.167 11.8708 12.6288 11.1865 12.0749C10.5606 11.6973 10.2002 12.0842 9.80012 12.6093C10.0756 12.0331 10.2192 11.4378 9.90161 10.9966C9.855 10.9561 9.80832 10.9156 9.7619 10.8749L8.35672 9.75424L6.86125 10.5938L7.39966 9.79051C7.62866 9.39727 7.50711 8.92893 7.22273 8.48604C6.88096 8.14109 6.5446 7.79182 6.21351 7.43841C6.16151 7.39951 6.10976 7.36295 6.05823 7.32766L3.9769 7.92571L4.65881 7.10899C4.98981 6.55047 4.65881 5.79038 4.35031 5.34302C4.17513 5.13573 4.00196 4.92673 3.82976 4.71706L2.46185 4.94797C3.03914 4.71652 3.44457 4.23854 2.98952 3.6785L2.91847 3.59727C2.94447 3.62454 2.96765 3.65155 2.98952 3.6785L3.05411 3.7524C2.54086 3.10042 2.04033 2.4382 1.55254 1.76583Z" fill="#74797B"/>
</svg>
