<svg width="18" height="15" viewBox="0 0 18 15" fill="none" xmlns="http://www.w3.org/2000/svg">
<path d="M13.1631 1.09341C12.9744 1.09341 12.8207 1.28665 12.8178 1.52742L12.7202 9.78304C12.4215 9.67458 11.9474 9.63055 11.3741 9.63055C10.5081 9.63055 9.41596 9.73107 8.36083 9.86199C8.26058 9.87445 8.16032 9.88058 8.06047 9.88058C7.37019 9.88058 6.6971 9.58623 6.14945 9.03748C5.76895 8.65617 4.63487 7.50029 4.63487 7.50029C4.55844 7.42273 4.46721 7.38505 4.37655 7.38505C4.25431 7.38505 4.13321 7.45357 4.05123 7.58514C3.90837 7.81425 3.93818 8.14767 4.11772 8.3299L4.59882 8.84198C4.64509 8.89126 4.66177 8.97253 4.64029 9.04441C4.61939 9.11439 4.56683 9.16038 4.50845 9.16038C4.50691 9.16038 4.50531 9.16038 4.50377 9.16031L1.81723 9.0471C1.81655 9.0471 1.81592 9.0471 1.81523 9.0471C1.58674 9.0471 1.4012 9.21797 1.4004 9.50984C1.39989 9.70038 1.47849 9.80178 1.5965 9.89574L1.27358 9.89428C1.27307 9.89428 1.27261 9.89428 1.2721 9.89428C1.04338 9.89428 0.857552 10.1304 0.856752 10.4225C0.855951 10.7152 1.04126 10.9534 1.27067 10.9544L1.66648 10.9561C1.54795 11.0491 1.46843 11.2153 1.46792 11.4058C1.46712 11.6986 1.65249 11.9367 1.8819 11.9377L2.57115 11.9408C2.45262 12.0337 2.3731 12.1344 2.37259 12.3249C2.37179 12.6177 2.55716 12.7248 2.78651 12.7258C2.84643 12.7261 2.97028 12.7297 3.14999 12.7297C3.65719 12.7297 4.6087 12.7005 5.81819 12.4833C6.03794 12.4439 6.25787 12.4241 6.47751 12.4241C6.79695 12.4241 7.1157 12.4661 7.43159 12.5505C9.1504 13.0104 11.2054 13.5584 13.0176 13.8794C13.1206 13.8976 13.223 13.9065 13.3243 13.9065C14.3599 13.9065 15.2774 12.979 15.4947 11.651L17.1356 1.62415C17.1568 1.49426 17.1311 1.35911 17.0655 1.25611C17 1.15311 16.9015 1.09334 16.7975 1.09334L13.1631 1.09341ZM16.1037 3.10368C15.891 3.10368 15.7185 2.88362 15.7185 2.61216C15.7185 2.3407 15.891 2.12063 16.1037 2.12063C16.3164 2.12063 16.4889 2.3407 16.4889 2.61216C16.4889 2.88362 16.3164 3.10368 16.1037 3.10368ZM15.4203 7.59243C15.3967 7.59243 15.3729 7.58966 15.349 7.58397C15.1399 7.53404 15.002 7.27731 15.0412 7.01052L15.513 3.79144C15.5476 3.55512 15.7098 3.39023 15.8915 3.3903C15.9149 3.3903 15.9387 3.39307 15.9625 3.39869C16.1715 3.44862 16.3094 3.70535 16.2703 3.97214L15.7984 7.19122C15.7638 7.42754 15.602 7.59243 15.4203 7.59243ZM13.1631 0H16.7975C17.1611 0 17.5011 0.206509 17.7305 0.566533C17.9598 0.926557 18.0487 1.39352 17.9743 1.84772L16.3337 11.8745C16.1889 12.7595 15.8058 13.5596 15.2549 14.1274C14.7091 14.6901 14.0235 15 13.3245 15C13.1833 15 13.0405 14.9874 12.8999 14.9625C11.0406 14.6333 8.94206 14.0719 7.25588 13.6208C6.99991 13.5524 6.73805 13.5176 6.47763 13.5176C6.299 13.5176 6.11735 13.534 5.93769 13.5662C5.00126 13.7344 4.03735 13.8233 3.15016 13.8233C3.02454 13.8233 2.92309 13.8215 2.85597 13.8204C2.82575 13.8198 2.80159 13.8194 2.78377 13.8193C2.48918 13.818 2.23201 13.726 2.01934 13.5457C1.85362 13.4052 1.72452 13.2185 1.63855 13.0011C1.16619 12.8831 0.786945 12.4306 0.658304 11.8462C0.264776 11.5683 -0.00164986 11.0322 7.62939e-06 10.4189C0.00154877 9.84333 0.239641 9.33708 0.596094 9.05024C0.749414 8.40185 1.22332 7.95391 1.81529 7.95391C1.817 7.95391 1.82077 7.95391 1.82249 7.95391C1.8302 7.95398 1.83785 7.95413 1.84557 7.95449L3.10606 8.00764C3.08784 7.60847 3.18409 7.21987 3.38071 6.90453C3.62332 6.5152 3.98634 6.29178 4.37655 6.29178C4.6628 6.29178 4.94396 6.41709 5.16823 6.64466C5.18097 6.65764 6.30528 7.80346 6.67865 8.17762C7.07097 8.57082 7.56172 8.78731 8.06047 8.78731C8.13273 8.78731 8.20591 8.78279 8.27794 8.77382C9.54318 8.61681 10.5849 8.53721 11.3742 8.53721C11.5553 8.53721 11.7228 8.54122 11.8779 8.54931L11.9611 1.51102C11.9709 0.677842 12.5101 0 13.1631 0Z" fill="#212F38"/>
</svg>
