<svg width="30" height="30" viewBox="0 0 30 30" fill="none" xmlns="http://www.w3.org/2000/svg">
<rect width="30" height="30" rx="15" fill="white"/>
<path d="M11.84 12.6562H13.1488C13.1987 11.8644 13.3677 11.1519 13.6246 10.5935C12.6968 10.9813 12.0167 11.7416 11.84 12.6562ZM11.84 13.5938C12.0171 14.5084 12.6968 15.2687 13.6246 15.6565C13.3674 15.0981 13.1987 14.3856 13.1488 13.5938H11.84ZM15 15.8991C15.2575 15.6809 15.6954 14.8907 15.7845 13.5938H14.2152C14.3046 14.8904 14.7425 15.6809 15 15.8991ZM14.2155 12.6562H15.7848C15.6958 11.3596 15.2578 10.5691 15.0003 10.3509C14.7425 10.5691 14.3046 11.3596 14.2155 12.6562ZM16.3754 15.6565C17.3032 15.2687 17.9833 14.5084 18.16 13.5938H16.8512C16.8013 14.3856 16.6326 15.0981 16.3754 15.6565ZM21.4286 7.5H9.64286C8.45926 7.5 7.5 8.33936 7.5 9.375V20.625C7.5 21.6606 8.45926 22.5 9.64286 22.5H21.4286C22.0202 22.5 22.5 22.0802 22.5 21.5625V8.4375C22.5 7.91982 22.0202 7.5 21.4286 7.5ZM18.75 19.6875H11.25C10.9554 19.6875 10.7143 19.4766 10.7143 19.2188C10.7143 18.9609 10.9554 18.75 11.25 18.75H18.75C19.0446 18.75 19.2857 18.9609 19.2857 19.2188C19.2857 19.4766 19.0446 19.6875 18.75 19.6875ZM15 16.875C12.6331 16.875 10.7143 15.196 10.7143 13.125C10.7143 11.054 12.6331 9.375 15 9.375C17.3669 9.375 19.2857 11.054 19.2857 13.125C19.2857 15.196 17.3669 16.875 15 16.875ZM16.3754 10.5935C16.6326 11.1519 16.8013 11.8644 16.8512 12.6562H18.16C17.9833 11.7416 17.3032 10.9813 16.3754 10.5935Z" fill="black"/>
</svg>
