<svg width="15" height="15" viewBox="0 0 15 15" fill="none" xmlns="http://www.w3.org/2000/svg">
<path d="M13.7502 8.54166H8.54183V13.75C8.54183 14.3229 8.07308 14.7917 7.50016 14.7917C6.92725 14.7917 6.4585 14.3229 6.4585 13.75V8.54166H1.25016C0.677246 8.54166 0.208496 8.07291 0.208496 7.49999C0.208496 6.92708 0.677246 6.45833 1.25016 6.45833H6.4585V1.24999C6.4585 0.677078 6.92725 0.208328 7.50016 0.208328C8.07308 0.208328 8.54183 0.677078 8.54183 1.24999V6.45833H13.7502C14.3231 6.45833 14.7918 6.92708 14.7918 7.49999C14.7918 8.07291 14.3231 8.54166 13.7502 8.54166Z" fill="#263238"/>
</svg>
