<svg width="19" height="16" viewBox="0 0 19 16" fill="none" xmlns="http://www.w3.org/2000/svg">
<path d="M5.33688 1.59341C5.52556 1.59341 5.67934 1.78665 5.6822 2.02742L5.77982 10.283C6.07852 10.1746 6.55259 10.1305 7.12589 10.1305C7.99188 10.1305 9.08404 10.2311 10.1392 10.362C10.2394 10.3745 10.3397 10.3806 10.4395 10.3806C11.1298 10.3806 11.8029 10.0862 12.3506 9.53748C12.7311 9.15617 13.8651 8.00029 13.8651 8.00029C13.9416 7.92273 14.0328 7.88505 14.1234 7.88505C14.2457 7.88505 14.3668 7.95357 14.4488 8.08514C14.5916 8.31425 14.5618 8.64767 14.3823 8.8299L13.9012 9.34198C13.8549 9.39126 13.8382 9.47253 13.8597 9.54441C13.8806 9.61439 13.9332 9.66038 13.9915 9.66038C13.9931 9.66038 13.9947 9.66038 13.9962 9.66031L16.6828 9.5471C16.6835 9.5471 16.6841 9.5471 16.6848 9.5471C16.9133 9.5471 17.0988 9.71797 17.0996 10.0098C17.1001 10.2004 17.0215 10.3018 16.9035 10.3957L17.2264 10.3943C17.2269 10.3943 17.2274 10.3943 17.2279 10.3943C17.4566 10.3943 17.6424 10.6304 17.6432 10.9225C17.644 11.2152 17.4587 11.4534 17.2293 11.4544L16.8335 11.4561C16.9521 11.5491 17.0316 11.7153 17.0321 11.9058C17.0329 12.1986 16.8475 12.4367 16.6181 12.4377L15.9288 12.4408C16.0474 12.5337 16.1269 12.6344 16.1274 12.8249C16.1282 13.1177 15.9428 13.2248 15.7135 13.2258C15.6536 13.2261 15.5297 13.2297 15.35 13.2297C14.8428 13.2297 13.8913 13.2005 12.6818 12.9833C12.4621 12.9439 12.2421 12.9241 12.0225 12.9241C11.7031 12.9241 11.3843 12.9661 11.0684 13.0505C9.3496 13.5104 7.29463 14.0584 5.48238 14.3794C5.37938 14.3976 5.27696 14.4065 5.17568 14.4065C4.14014 14.4065 3.22256 13.479 3.00526 12.151L1.36443 2.12415C1.34318 1.99426 1.36889 1.85911 1.43446 1.75611C1.50004 1.65311 1.59847 1.59334 1.70249 1.59334L5.33688 1.59341ZM2.39632 3.60368C2.60905 3.60368 2.7815 3.38362 2.7815 3.11216C2.7815 2.8407 2.60905 2.62063 2.39632 2.62063C2.18359 2.62063 2.01113 2.8407 2.01113 3.11216C2.01113 3.38362 2.18359 3.60368 2.39632 3.60368ZM3.07975 8.09243C3.10328 8.09243 3.1271 8.08966 3.15104 8.08397C3.36011 8.03404 3.49795 7.77731 3.45882 7.51052L2.98698 4.29144C2.95236 4.05512 2.79019 3.89023 2.60853 3.8903C2.58511 3.8903 2.56135 3.89307 2.53753 3.89869C2.32845 3.94862 2.19061 4.20535 2.22974 4.47214L2.70159 7.69122C2.7362 7.92754 2.89798 8.09243 3.07975 8.09243ZM5.33688 0.5H1.70249C1.3389 0.5 0.998895 0.706509 0.769543 1.06653C0.540248 1.42656 0.451306 1.89352 0.525681 2.34772L2.16634 12.3745C2.31114 13.2595 2.69422 14.0596 3.24506 14.6274C3.79094 15.1901 4.47654 15.5 5.17551 15.5C5.31672 15.5 5.45953 15.4874 5.60005 15.4625C7.45938 15.1333 9.55794 14.5719 11.2441 14.1208C11.5001 14.0524 11.7619 14.0176 12.0224 14.0176C12.201 14.0176 12.3827 14.034 12.5623 14.0662C13.4987 14.2344 14.4626 14.3233 15.3498 14.3233C15.4755 14.3233 15.5769 14.3215 15.644 14.3204C15.6742 14.3198 15.6984 14.3194 15.7162 14.3193C16.0108 14.318 16.268 14.226 16.4807 14.0457C16.6464 13.9052 16.7755 13.7185 16.8615 13.5011C17.3338 13.3831 17.7131 12.9306 17.8417 12.3462C18.2352 12.0683 18.5016 11.5322 18.5 10.9189C18.4985 10.3433 18.2604 9.83708 17.9039 9.55024C17.7506 8.90185 17.2767 8.45391 16.6847 8.45391C16.683 8.45391 16.6792 8.45391 16.6775 8.45391C16.6698 8.45398 16.6621 8.45413 16.6544 8.45449L15.3939 8.50764C15.4122 8.10847 15.3159 7.71987 15.1193 7.40453C14.8767 7.0152 14.5137 6.79178 14.1234 6.79178C13.8372 6.79178 13.556 6.91709 13.3318 7.14466C13.319 7.15764 12.1947 8.30346 11.8214 8.67762C11.429 9.07082 10.9383 9.28731 10.4395 9.28731C10.3673 9.28731 10.2941 9.28279 10.2221 9.27382C8.95682 9.11681 7.91511 9.03721 7.12583 9.03721C6.94469 9.03721 6.7772 9.04122 6.62211 9.04931L6.53888 2.01102C6.52911 1.17784 5.98986 0.5 5.33688 0.5Z" fill="#212F38"/>
</svg>
