<svg width="15" height="15" viewBox="0 0 15 15" fill="none" xmlns="http://www.w3.org/2000/svg">
<g clip-path="url(#clip0_1500_8053)">
<path d="M10.4468 2.59047L14.813 6.95718L11.0084 10.7622L6.64247 6.39551L10.4468 2.59047Z" fill="#74797B"/>
<path d="M14.9618 6.96927L13.2287 5.23616C13.2767 5.09765 13.3684 4.79809 13.4057 4.44036C13.4677 3.84486 13.3478 3.34943 13.0596 2.99618C13.0878 2.93224 13.103 2.86406 13.1052 2.79539L13.5151 2.69214L13.5493 2.89528C13.5601 2.95899 13.6153 3.00407 13.6778 3.00407C13.685 3.00407 13.6924 3.00345 13.6997 3.00221L14.6279 2.84553C14.699 2.83353 14.7468 2.76619 14.7348 2.69515L14.6264 2.05254C14.6206 2.01841 14.6015 1.98798 14.5733 1.96792C14.5451 1.94789 14.5101 1.93989 14.476 1.94557L13.5478 2.10225C13.5137 2.10802 13.4832 2.12711 13.4632 2.15529C13.4431 2.18348 13.4351 2.21851 13.4408 2.25264L13.4714 2.43395L13.0506 2.53993C13.0067 2.45003 12.9378 2.36935 12.8389 2.31145C12.6541 2.20328 12.4177 2.21401 12.2456 2.3414C12.0919 2.45518 12.0193 2.62814 12.0259 2.79859L11.7314 2.8728L11.7952 3.12588L12.0986 3.04941C12.1215 3.08889 12.1493 3.12627 12.183 3.16007C12.228 3.20502 12.2791 3.23976 12.3335 3.26556C12.4308 3.47845 12.3301 3.90406 12.2121 4.21958L10.4731 2.48059C10.4487 2.45613 10.4155 2.44236 10.3808 2.44236C10.3462 2.44236 10.3131 2.45613 10.2886 2.48059L6.33599 6.43327L5.82236 5.91965C5.79789 5.89518 5.76469 5.88141 5.73007 5.88141C5.69546 5.88141 5.66229 5.89518 5.63779 5.91965L5.49112 6.06631L5.3514 5.92656L5.78821 5.48976C5.83916 5.43881 5.83916 5.35621 5.78821 5.30525L5.37006 4.88711C5.31911 4.83616 5.23648 4.83616 5.18552 4.88711L4.12735 5.94529C4.07639 5.99624 4.07639 6.07887 4.12735 6.12979L4.54549 6.54794C4.57097 6.57341 4.60437 6.58617 4.63778 6.58617C4.67118 6.58617 4.70455 6.57341 4.73006 6.54794L5.16686 6.11113L5.30658 6.25089L5.15992 6.39755C5.10896 6.44851 5.10896 6.5311 5.15992 6.58206L5.40037 6.82251L4.60914 7.61378L4.51375 7.51839C4.48743 7.49207 4.45108 7.47788 4.41399 7.48039L3.87081 7.51157C3.83884 7.5134 3.80867 7.52694 3.78603 7.54958L1.58438 9.7512C1.56174 9.77381 1.54823 9.80401 1.54637 9.83598L1.51522 10.3792C1.5131 10.4163 1.52693 10.4526 1.55322 10.4789L1.66577 10.5915L1.04436 11.2129C1.00818 11.2491 0.993503 11.3031 1.01118 11.3512C1.05542 11.4711 1.02577 11.6069 0.935861 11.6969C0.848142 11.7846 0.720005 11.815 0.601589 11.7763C0.541696 11.7567 0.476453 11.7827 0.446376 11.8381L0.145247 12.3925C0.117649 12.4433 0.126783 12.5062 0.167658 12.5471L0.246145 12.6255L0.038216 12.8335C-0.0127387 12.8844 -0.0127387 12.9671 0.038216 13.018C0.0891708 13.069 0.171768 13.069 0.222723 13.018L0.430652 12.8101L0.543196 12.9226C0.568674 12.9481 0.602078 12.9609 0.635482 12.9609C0.668887 12.9609 0.702259 12.9481 0.727768 12.9226L2.36233 11.2881L2.47373 11.3995C2.49934 11.4251 2.53428 11.4397 2.57049 11.4388L2.5746 11.4386L3.11778 11.4074C3.14975 11.4056 3.17992 11.3921 3.20256 11.3694L5.40422 9.16777C5.42686 9.14516 5.44036 9.11495 5.44222 9.08298L5.47341 8.5398C5.47553 8.50265 5.4617 8.46637 5.4354 8.44005L5.34002 8.34466L6.13125 7.55339L6.37171 7.79385C6.39617 7.81831 6.42938 7.83208 6.46399 7.83208C6.4986 7.83208 6.53178 7.81831 6.55628 7.79385L7.03415 7.31598C7.0851 7.26502 7.0851 7.18242 7.03415 7.13147L6.52052 6.61784L6.57494 6.56343L10.9713 10.9598C10.9958 10.9843 11.029 10.9981 11.0636 10.9981C11.0982 10.9981 11.1314 10.9843 11.1559 10.9598L14.9618 7.15385C15.0127 7.10286 15.0127 7.02023 14.9618 6.96927ZM14.3908 2.22468L14.4558 2.60997L13.7849 2.7232L13.7199 2.33791L14.3908 2.22468ZM4.63781 6.27114L4.40417 6.03754L5.27781 5.16394L5.51145 5.39754L4.63781 6.27114ZM0.635482 12.6458L0.421094 12.4314L0.628795 12.0489C0.808148 12.0723 0.989262 12.0125 1.12037 11.8814C1.26097 11.7408 1.31962 11.538 1.28028 11.346L1.85021 10.7761L2.17769 11.1035L0.635482 12.6458ZM5.18451 9.01836L3.05319 11.1497L2.61802 11.1747L1.77913 10.3358L1.80408 9.90061L3.93544 7.76928L4.37057 7.7443L5.20947 8.58319L5.18451 9.01836ZM5.15548 8.16009L4.79371 7.79832L5.58494 7.00705L5.94671 7.36882L5.15548 8.16009ZM6.46399 7.51702L5.43677 6.4898L5.73014 6.19647L6.75736 7.22369L6.46399 7.51702ZM12.3676 2.57986C12.4221 2.52532 12.4938 2.49805 12.5654 2.49805C12.6371 2.49805 12.7088 2.52532 12.7633 2.57986C12.8724 2.68898 12.8724 2.86651 12.7633 2.97562C12.6542 3.08471 12.4766 3.08471 12.3676 2.97562C12.2585 2.86651 12.2585 2.68895 12.3676 2.57986ZM12.5598 3.98578C12.6314 3.7162 12.651 3.49202 12.6191 3.31554C12.7168 3.30588 12.812 3.26938 12.8937 3.20685C13.3187 3.78385 13.134 4.64705 13.0207 5.02823L12.4128 4.42027C12.4507 4.32769 12.5114 4.16794 12.5598 3.98578ZM13.2684 7.04453L11.0465 9.26645L9.81441 8.0344L12.0363 5.81248L13.2684 7.04453ZM10.5172 9.10624L10.3775 9.24593L9.83496 8.7034L9.97465 8.56371L10.5172 9.10624ZM10.7017 9.29075L10.9542 9.54324C10.9786 9.56771 11.0118 9.58147 11.0465 9.58147C11.0811 9.58147 11.1142 9.56771 11.1387 9.54324L13.5452 7.13675C13.5962 7.0858 13.5962 7.00317 13.5452 6.95225L13.2927 6.69976L13.4324 6.56007L13.8485 6.97622L10.9781 9.84659L10.562 9.43043L10.7017 9.29075ZM13.1082 6.51525L12.5656 5.97272L12.7054 5.83304L13.2479 6.37556L13.1082 6.51525ZM12.3811 5.78818L12.1286 5.53569C12.1041 5.51123 12.0709 5.49746 12.0363 5.49746C12.0017 5.49746 11.9685 5.51123 11.944 5.53569L9.53759 7.94218C9.48663 7.99313 9.48663 8.07576 9.53759 8.12668L9.79008 8.37917L9.65039 8.51886L8.70166 7.57013L8.84135 7.43044L9.09384 7.68293C9.1183 7.7074 9.15151 7.72117 9.18612 7.72117C9.22073 7.72117 9.25391 7.7074 9.27841 7.68293L11.6849 5.27645C11.7094 5.25198 11.7231 5.21877 11.7231 5.1842C11.7231 5.14962 11.7094 5.11641 11.6849 5.09194L11.4324 4.83945L11.5721 4.69977L12.5208 5.6485L12.3811 5.78818ZM11.4081 5.1842L9.18612 7.40611L7.95407 6.17406L10.176 3.95218L11.4081 5.1842ZM8.65684 7.24594L8.51715 7.38562L7.97463 6.84309L8.11431 6.70341L8.65684 7.24594ZM11.2478 4.65491L10.7053 4.11242L10.845 3.9727L11.3875 4.51523L11.2478 4.65491ZM10.5208 3.92788L10.2683 3.67539C10.2173 3.6244 10.1347 3.62443 10.0838 3.67539L7.67731 6.08184C7.62636 6.13279 7.62636 6.21543 7.67731 6.26635L7.9298 6.51884L7.79012 6.65852L7.13495 6.00335L10.0053 3.13296L10.6605 3.78813L10.5208 3.92788ZM11.0636 10.683L6.75944 6.37889L6.95041 6.18793L10.8859 10.1234C10.9103 10.1479 10.9435 10.1616 10.9781 10.1616C11.0128 10.1616 11.0459 10.1479 11.0704 10.1234L14.1253 7.06851C14.1763 7.01755 14.1763 6.93492 14.1253 6.884L10.1899 2.94848L10.3809 2.75745L14.685 7.06153L11.0636 10.683Z" fill="#74797B"/>
</g>
<defs>
<clipPath id="clip0_1500_8053">
<rect width="15" height="15" fill="white"/>
</clipPath>
</defs>
</svg>
