<svg width="15" height="16" viewBox="0 0 15 16" fill="none" xmlns="http://www.w3.org/2000/svg">
<g clip-path="url(#clip0_1475_4437)">
<path fill-rule="evenodd" clip-rule="evenodd" d="M1.66666 8C1.66666 6.6925 2.10416 5.48666 2.83416 4.5125L10.9875 12.6658C10.0133 13.3958 8.8075 13.8333 7.5 13.8333C4.28416 13.8333 1.66666 11.2158 1.66666 8ZM13.3333 8C13.3333 9.3075 12.8958 10.5133 12.1658 11.4875L4.0125 3.33416C4.98666 2.60416 6.1925 2.16666 7.5 2.16666C10.7158 2.16666 13.3333 4.78416 13.3333 8ZM7.5 0.5C3.3575 0.5 0 3.8575 0 8C0 12.1425 3.3575 15.5 7.5 15.5C11.6425 15.5 15 12.1425 15 8C15 3.8575 11.6425 0.5 7.5 0.5Z" fill="black"/>
</g>
<defs>
<clipPath id="clip0_1475_4437">
<rect width="15" height="15" fill="white" transform="translate(0 0.5)"/>
</clipPath>
</defs>
</svg>
