<svg width="16" height="16" viewBox="0 0 16 16" fill="none" xmlns="http://www.w3.org/2000/svg">
<g clip-path="url(#clip0_1475_4415)">
<path d="M8 15.5C3.875 15.5 0.5 12.125 0.5 8C0.5 3.875 3.875 0.5 8 0.5C12.125 0.5 15.5 3.875 15.5 8C15.5 12.125 12.125 15.5 8 15.5ZM8 1.75C4.5625 1.75 1.75 4.5625 1.75 8C1.75 11.4375 4.5625 14.25 8 14.25C11.4375 14.25 14.25 11.4375 14.25 8C14.25 4.5625 11.4375 1.75 8 1.75Z" fill="black"/>
<path d="M7.375 10.5C7.1875 10.5 7.0625 10.4375 6.9375 10.3125L5.0625 8.4375C4.8125 8.1875 4.8125 7.8125 5.0625 7.5625C5.3125 7.3125 5.6875 7.3125 5.9375 7.5625L7.8125 9.4375C8.0625 9.6875 8.0625 10.0625 7.8125 10.3125C7.6875 10.4375 7.5625 10.5 7.375 10.5Z" fill="black"/>
<path d="M7.375 10.5C7.1875 10.5 7.0625 10.4375 6.9375 10.3125C6.6875 10.0625 6.6875 9.6875 6.9375 9.4375L10.6875 5.6875C10.9375 5.4375 11.3125 5.4375 11.5625 5.6875C11.8125 5.9375 11.8125 6.3125 11.5625 6.5625L7.8125 10.3125C7.6875 10.4375 7.5625 10.5 7.375 10.5Z" fill="black"/>
</g>
<defs>
<clipPath id="clip0_1475_4415">
<rect width="15" height="15" fill="white" transform="translate(0.5 0.5)"/>
</clipPath>
</defs>
</svg>
